<svg width="27" height="17" viewBox="0 0 27 17" fill="none" xmlns="http://www.w3.org/2000/svg">
<g opacity="0.7">
<path d="M1 2C1 1.44772 1.44772 1 2 1H25C25.5523 1 26 1.44772 26 2V15C26 15.5523 25.5523 16 25 16H2C1.44772 16 1 15.5523 1 15V2Z" stroke="white" stroke-linecap="square"/>
<path d="M7.54952 5.9H8.66952V11.5H7.38952V7.252L6.39752 7.524L6.08552 6.428L7.54952 5.9ZM10.9081 11.5V10.572L12.7881 8.62C13.1161 8.284 13.3561 7.956 13.3561 7.628C13.3561 7.276 13.1321 7.036 12.7561 7.036C12.3641 7.036 12.0841 7.292 11.9321 7.644L10.8521 7.012C11.2121 6.18 11.9641 5.788 12.7401 5.788C13.7401 5.788 14.6361 6.444 14.6361 7.572C14.6361 8.244 14.2761 8.82 13.7641 9.332L12.8361 10.268H14.7161V11.5H10.9081ZM19.3876 8.172C20.0756 8.412 20.5796 8.964 20.5796 9.74C20.5796 10.972 19.6196 11.612 18.5396 11.612C17.6916 11.612 16.9236 11.236 16.5796 10.412L17.6836 9.772C17.8116 10.14 18.0516 10.364 18.5396 10.364C19.0676 10.364 19.2996 10.084 19.2996 9.74C19.2996 9.396 19.0676 9.116 18.5396 9.116H18.2756L17.7876 8.388L18.8036 7.1H16.7556V5.9H20.3556V6.94L19.3876 8.172Z" fill="white"/>
</g>
</svg>
