<svg width="55" height="55" viewBox="0 0 55 55" fill="none" xmlns="http://www.w3.org/2000/svg">
<path d="M27.5001 0C42.6897 0 55.0001 12.3104 55.0001 27.5C55.0001 42.6896 42.6897 55 27.5001 55C12.3105 55 0.00012207 42.6896 0.00012207 27.5C0.00012207 12.3196 12.3105 0 27.5001 0Z" fill="#FAC094"/>
<mask id="mask0_1657_5060" style="mask-type:alpha" maskUnits="userSpaceOnUse" x="0" y="0" width="55" height="55">
<path d="M27.5 7.62939e-06C42.6896 7.62939e-06 55 12.3104 55 27.5C55 42.6896 42.6896 55 27.5 55C12.3104 55 0 42.6896 0 27.5C0 12.3196 12.3104 7.62939e-06 27.5 7.62939e-06Z" fill="#9449FD"/>
</mask>
<g mask="url(#mask0_1657_5060)">
<path d="M-1.21091 -26.7255V9.1352L27.1113 25.4855L55.4335 9.1352V-26.2749M2.29396 -26.7766V7.11008L27.1114 21.439L51.929 7.11008V-26.4154M5.79847 -26.8276V5.08692L27.1113 17.3925L48.4241 5.08692V-26.5558M9.30335 -26.877V3.06349L27.1114 13.3441L44.9195 3.06349V-26.6982M12.8079 -26.9281V1.04025L27.1113 9.29751L41.4129 1.04025V-26.8386M16.3145 -26.979V-0.984782L27.1113 5.24923L37.9083 -0.984782V-26.979M-61.6646 -26.7255V9.1352L-33.3423 25.4855L-5.02018 9.1352V-26.2749M-58.1601 -26.7766V7.11008L-33.3425 21.439L-8.52505 7.11008V-26.4154M-54.6552 -26.8276V5.08692L-33.3424 17.3925L-12.0297 5.08692V-26.5558M-51.1507 -26.877V3.06349L-33.3426 13.3441L-15.5345 3.06349V-26.6982M-47.644 -26.9281V1.04025L-33.3424 9.29751L-19.039 1.04025V-26.8386M-44.1395 -26.979V-0.984782L-33.3426 5.24923L-22.5457 -0.984782V-26.979M-121.695 -26.2749V9.1352L-93.3731 25.4855L-65.0509 9.1352V-26.2749M-118.19 -26.4153V7.11017L-93.373 21.4391L-68.5555 7.11017V-26.4153M-114.686 -26.5559V5.08683L-93.3731 17.3925L-72.0604 5.08683V-26.5559M-111.181 -26.6981V3.06358L-93.373 13.3442L-75.5649 3.06358V-26.6981M-107.675 -26.8386V1.04025L-93.3731 9.29751L-79.0698 1.04025V-26.8386M-104.17 -26.979V-0.984782L-93.373 5.24923L-82.5761 -0.984782V-26.979M119.686 -26.2749V9.1352L148.008 25.4855L176.33 9.1352V-26.2749M123.191 -26.4153V7.11017L148.008 21.4391L172.826 7.11017V-26.4153M126.695 -26.5559V5.08683L148.008 17.3925L169.321 5.08683V-26.5559M130.2 -26.6981V3.06358L148.008 13.3442L165.816 3.06358V-26.6981M133.705 -26.8386V1.04025L148.008 9.29751L162.31 1.04025V-26.8386M137.211 -26.979V-0.984782L148.008 5.24923L158.805 -0.984782V-26.979M59.2321 -26.7255V9.1352L87.5543 25.4855L115.876 9.1352V-26.7255M62.7366 -26.7766V7.11008L87.5542 21.439L112.372 7.11008V-26.7766M66.2415 -26.8276V5.08692L87.5543 17.3925L108.867 5.08692V-26.8276M69.746 -26.877V3.06349L87.5542 13.3441L105.362 3.06349V-26.877M73.2509 -26.9281V1.04025L87.5543 9.29751L101.856 1.04025V-26.9281M76.7571 -26.979V-0.984782L87.5541 5.24923L98.3509 -0.984782V-26.979M-31.602 61.7587V29.0542L-3.27986 12.702L25.0442 29.0542V61.7587M-28.0972 61.764V31.0774L-3.27968 16.7485L21.5397 31.0774V61.764M-24.5926 61.7697V33.1008L-3.27986 20.7969L18.033 33.1008V61.7697M-21.086 61.7751V35.1259L-3.27977 24.8434L14.5284 35.1259V61.7751M-17.5815 61.7806V37.1491L-3.27995 28.8919L11.0235 37.1491V61.7806M-14.0766 61.786V39.1724L-3.27977 32.9384L7.51893 39.1724V61.786M-92.0557 61.7587V29.0542L-63.7317 12.702L-35.4095 29.0542V61.7587M-88.5512 61.764V31.0774L-63.7318 16.7485L-38.9144 31.0774V61.764M-85.0445 61.7697V33.1008L-63.7317 20.7969L-42.4189 33.1008V61.7697M-81.54 61.7751V35.1259L-63.7318 24.8434L-45.9256 35.1259V61.7751M-78.0352 61.7806V37.1491L-63.7317 28.8919L-49.4301 37.1491V61.7806M-74.5303 61.786V39.1724L-63.7315 32.9384L-52.9347 39.1724V61.786M89.2273 61.7587V29.0542L117.549 12.702L145.872 29.0542V61.7587M92.7318 61.764V31.0774L117.549 16.7485L142.367 31.0774V61.764M96.2367 61.7697V33.1008L117.549 20.7969L138.862 33.1008V61.7697M99.7412 61.7751V35.1259L117.549 24.8434L135.357 35.1259V61.7751M103.246 61.7806V37.1491L117.549 28.8919L131.851 37.1491V61.7806M106.752 61.786V39.1724L117.549 32.9384L128.346 39.1724V61.786M28.7733 61.7587V29.0542L57.0955 12.702L85.4196 29.0542V61.7587M32.2781 61.764V31.0774L57.0956 16.7485L81.9131 31.0774V61.764M35.7827 61.7697V33.1008L57.0954 20.7969L78.4082 33.1008V61.7697M39.2875 61.7751V35.1259L57.0956 24.8434L74.9037 35.1259V61.7751M42.7938 61.7806V37.1491L57.0954 28.8919L71.3988 37.1491V61.7806M46.2987 61.786V39.1724L57.0956 32.9384L67.8925 39.1724V61.786M110.14 74.5259V41.1136L117.515 36.7149L124.931 41.1136V74.5259M113.508 74.4967V42.9507L117.524 40.5772L121.563 42.9507V74.4967M116.101 74.3178V45.1436L117.531 44.2515L118.971 45.1436V74.3178M49.8656 74.5259V41.1136L57.238 36.7149L64.6543 41.1136V74.5259M53.2332 74.4967V42.9507L57.2487 40.5772L61.2862 42.9507V74.4967M55.8259 74.3178V45.1436L57.2562 44.2515L58.6938 45.1436V74.3178M-10.4114 74.5259V41.1136L-3.03711 36.7149L4.37912 41.1136V74.5259M-7.04334 74.4967V42.9507L-3.02775 40.5772L1.01143 42.9507V74.4967M-4.45103 74.3178V45.1436L-3.02072 44.2515L-1.58123 45.1436V74.3178M-70.6862 74.5259V41.1136L-63.3138 36.7149L-55.8975 41.1136V74.5259M-67.3185 74.4967V42.9507L-63.303 40.5772L-59.2637 42.9507V74.4967M-64.7262 74.3178V45.1436L-63.2959 44.2515L-61.8583 45.1436V74.3178M140.53 -36.3912V-2.9789L147.904 1.41983L155.32 -2.9789V-36.3912M143.898 -36.3621V-4.81614L147.913 -2.44253L151.953 -4.81614V-36.3621M146.49 -36.1832V-7.009L147.92 -6.11684L149.36 -7.009V-36.1832M80.2549 -36.3912V-2.9789L87.6292 1.41983L95.0436 -2.9789V-36.3912M83.6226 -36.3621V-4.81614L87.6382 -2.44253L91.6773 -4.81614V-36.3621M86.2149 -36.1832V-7.009L87.6453 -6.11684L89.0829 -7.009V-36.1832M19.978 -36.3912V-2.9789L27.3523 1.41983L34.7685 -2.9789V-36.3912M23.3456 -36.3621V-4.81614L27.3612 -2.44253L31.4005 -4.81614V-36.3621M25.9383 -36.1832V-7.009L27.3686 -6.11684L28.8081 -7.009V-36.1832M-40.2972 -36.3912V-2.9789L-32.9229 1.41983L-25.5067 -2.9789V-36.3912M-36.9292 -36.3621V-4.81614L-32.9136 -2.44253L-28.8744 -4.81614V-36.3621M-34.3369 -36.1832V-7.009L-32.9065 -6.11684L-31.4671 -7.009V-36.1832M-100.777 -36.3912V-2.9789L-93.4023 1.41983L-85.9861 -2.9789V-36.3912M-97.4085 -36.3621V-4.81614L-93.3929 -2.44253L-89.3537 -4.81614V-36.3621M-94.8162 -36.1832V-7.009L-93.3858 -6.11684L-91.9464 -7.009V-36.1832" stroke="#656565" stroke-opacity="0.8" stroke-width="0.166667" stroke-miterlimit="10"/>
</g>
</svg>
