<svg width="55" height="55" viewBox="0 0 55 55" fill="none" xmlns="http://www.w3.org/2000/svg">
<path d="M27.5 0C42.6896 0 55 12.3104 55 27.5C55 42.6896 42.6896 55 27.5 55C12.3104 55 0 42.6896 0 27.5C0 12.3196 12.3104 0 27.5 0Z" fill="#D2AAF2"/>
<mask id="mask0_1657_5025" style="mask-type:alpha" maskUnits="userSpaceOnUse" x="0" y="0" width="55" height="55">
<path d="M27.5 6.10352e-05C42.6896 6.10352e-05 55 12.3105 55 27.5001C55 42.6897 42.6896 55.0001 27.5 55.0001C12.3104 55.0001 0 42.6897 0 27.5001C0 12.3197 12.3104 6.10352e-05 27.5 6.10352e-05Z" fill="#9449FD"/>
</mask>
<g mask="url(#mask0_1657_5025)">
<path d="M-1.21086 -26.7254V9.13531L27.1113 25.4856L55.4336 9.13531V-26.2748M2.29401 -26.7765V7.11019L27.1115 21.4392L51.9291 7.11019V-26.4153M5.79853 -26.8275V5.08703L27.1113 17.3927L48.4242 5.08703V-26.5557M9.3034 -26.8768V3.06361L27.1115 13.3442L44.9196 3.06361V-26.698M12.8079 -26.928V1.04036L27.1113 9.29762L41.4129 1.04036V-26.8385M16.3146 -26.9789V-0.984668L27.1114 5.24934L37.9083 -0.984668V-26.9789M-61.6646 -26.7254V9.13531L-33.3423 25.4856L-5.02013 9.13531V-26.2748M-58.1601 -26.7765V7.11019L-33.3425 21.4392L-8.525 7.11019V-26.4153M-54.6552 -26.8275V5.08703L-33.3424 17.3927L-12.0296 5.08703V-26.5557M-51.1507 -26.8768V3.06361L-33.3426 13.3442L-15.5345 3.06361V-26.698M-47.644 -26.928V1.04036L-33.3424 9.29762L-19.039 1.04036V-26.8385M-44.1395 -26.9789V-0.984668L-33.3426 5.24934L-22.5457 -0.984668V-26.9789M-121.695 -26.2748V9.13531L-93.373 25.4856L-65.0509 9.13531V-26.2748M-118.19 -26.4152V7.11028L-93.373 21.4392L-68.5555 7.11028V-26.4152M-114.686 -26.5558V5.08695L-93.3731 17.3926L-72.0604 5.08695V-26.5558M-111.181 -26.698V3.0637L-93.373 13.3443L-75.5649 3.0637V-26.698M-107.675 -26.8385V1.04036L-93.3731 9.29762L-79.0697 1.04036V-26.8385M-104.17 -26.9789V-0.984668L-93.373 5.24934L-82.576 -0.984668V-26.9789M119.686 -26.2748V9.13531L148.008 25.4856L176.33 9.13531V-26.2748M123.191 -26.4152V7.11028L148.008 21.4392L172.826 7.11028V-26.4152M126.695 -26.5558V5.08695L148.008 17.3926L169.321 5.08695V-26.5558M130.2 -26.698V3.0637L148.008 13.3443L165.816 3.0637V-26.698M133.705 -26.8385V1.04036L148.008 9.29762L162.31 1.04036V-26.8385M137.211 -26.9789V-0.984668L148.008 5.24934L158.805 -0.984668V-26.9789M59.2322 -26.7254V9.13531L87.5544 25.4856L115.877 9.13531V-26.7254M62.7367 -26.7765V7.11019L87.5542 21.4392L112.372 7.11019V-26.7765M66.2415 -26.8275V5.08703L87.5544 17.3927L108.867 5.08703V-26.8275M69.7461 -26.8768V3.06361L87.5542 13.3442L105.362 3.06361V-26.8768M73.2509 -26.928V1.04036L87.5544 9.29762L101.856 1.04036V-26.928M76.7572 -26.9789V-0.984668L87.5542 5.24934L98.351 -0.984668V-26.9789M-31.602 61.7588V29.0543L-3.27981 12.7021L25.0442 29.0543V61.7588M-28.0971 61.7642V31.0776L-3.27963 16.7486L21.5397 31.0776V61.7642M-24.5926 61.7698V33.1009L-3.27981 20.797L18.0331 33.1009V61.7698M-21.0859 61.7752V35.126L-3.27972 24.8435L14.5285 35.126V61.7752M-17.5814 61.7807V37.1493L-3.2799 28.892L11.0236 37.1493V61.7807M-14.0766 61.7862V39.1725L-3.27972 32.9385L7.51898 39.1725V61.7862M-92.0557 61.7588V29.0543L-63.7316 12.7021L-35.4095 29.0543V61.7588M-88.5512 61.7642V31.0776L-63.7318 16.7486L-38.9143 31.0776V61.7642M-85.0445 61.7698V33.1009L-63.7316 20.797L-42.4189 33.1009V61.7698M-81.54 61.7752V35.126L-63.7318 24.8435L-45.9256 35.126V61.7752M-78.0351 61.7807V37.1493L-63.7316 28.892L-49.4301 37.1493V61.7807M-74.5303 61.7862V39.1725L-63.7315 32.9385L-52.9346 39.1725V61.7862M89.2274 61.7588V29.0543L117.55 12.7021L145.872 29.0543V61.7588M92.7319 61.7642V31.0776L117.549 16.7486L142.367 31.0776V61.7642M96.2368 61.7698V33.1009L117.55 20.797L138.862 33.1009V61.7698M99.7413 61.7752V35.126L117.549 24.8435L135.358 35.126V61.7752M103.246 61.7807V37.1493L117.55 28.892L131.851 37.1493V61.7807M106.752 61.7862V39.1725L117.549 32.9385L128.346 39.1725V61.7862M28.7733 61.7588V29.0543L57.0956 12.7021L85.4196 29.0543V61.7588M32.2782 61.7642V31.0776L57.0957 16.7486L81.9132 31.0776V61.7642M35.7827 61.7698V33.1009L57.0955 20.797L78.4083 33.1009V61.7698M39.2876 61.7752V35.126L57.0957 24.8435L74.9038 35.126V61.7752M42.7939 61.7807V37.1493L57.0955 28.892L71.3989 37.1493V61.7807M46.2988 61.7862V39.1725L57.0957 32.9385L67.8926 39.1725V61.7862M110.14 74.5261V41.1137L117.515 36.7151L124.931 41.1137V74.5261M113.509 74.4968V42.9509L117.524 40.5773L121.563 42.9509V74.4968M116.101 74.318V45.1437L117.531 44.2516L118.971 45.1437V74.318M49.8656 74.5261V41.1137L57.238 36.7151L64.6544 41.1137V74.5261M53.2333 74.4968V42.9509L57.2488 40.5773L61.2863 42.9509V74.4968M55.826 74.318V45.1437L57.2563 44.2516L58.6939 45.1437V74.318M-10.4113 74.5261V41.1137L-3.03706 36.7151L4.37917 41.1137V74.5261M-7.04329 74.4968V42.9509L-3.02771 40.5773L1.01148 42.9509V74.4968M-4.45098 74.318V45.1437L-3.02067 44.2516L-1.58118 45.1437V74.318M-70.6862 74.5261V41.1137L-63.3138 36.7151L-55.8974 41.1137V74.5261M-67.3185 74.4968V42.9509L-63.303 40.5773L-59.2637 42.9509V74.4968M-64.7262 74.318V45.1437L-63.2959 44.2516L-61.8582 45.1437V74.318M140.53 -36.3911V-2.97879L147.904 1.41994L155.32 -2.97879V-36.3911M143.898 -36.362V-4.81603L147.913 -2.44242L151.953 -4.81603V-36.362M146.49 -36.1831V-7.00889L147.921 -6.11672L149.36 -7.00889V-36.1831M80.255 -36.3911V-2.97879L87.6292 1.41994L95.0437 -2.97879V-36.3911M83.6227 -36.362V-4.81603L87.6382 -2.44242L91.6774 -4.81603V-36.362M86.215 -36.1831V-7.00889L87.6454 -6.11672L89.083 -7.00889V-36.1831M19.978 -36.3911V-2.97879L27.3524 1.41994L34.7686 -2.97879V-36.3911M23.3457 -36.362V-4.81603L27.3613 -2.44242L31.4006 -4.81603V-36.362M25.9384 -36.1831V-7.00889L27.3687 -6.11672L28.8082 -7.00889V-36.1831M-40.2972 -36.3911V-2.97879L-32.9229 1.41994L-25.5067 -2.97879V-36.3911M-36.9291 -36.362V-4.81603L-32.9136 -2.44242L-28.8744 -4.81603V-36.362M-34.3368 -36.1831V-7.00889L-32.9064 -6.11672L-31.467 -7.00889V-36.1831M-100.777 -36.3911V-2.97879L-93.4023 1.41994L-85.986 -2.97879V-36.3911M-97.4085 -36.362V-4.81603L-93.3929 -2.44242L-89.3537 -4.81603V-36.362M-94.8162 -36.1831V-7.00889L-93.3858 -6.11672L-91.9464 -7.00889V-36.1831" stroke="#474747" stroke-opacity="0.7" stroke-width="0.166667" stroke-miterlimit="10"/>
</g>
</svg>
