<svg width="55" height="55" viewBox="0 0 55 55" fill="none" xmlns="http://www.w3.org/2000/svg">
<path d="M27.5001 0C42.6897 0 55.0001 12.3104 55.0001 27.5C55.0001 42.6896 42.6897 55 27.5001 55C12.3105 55 0.00012207 42.6896 0.00012207 27.5C0.00012207 12.3196 12.3105 0 27.5001 0Z" fill="#F9AFAF"/>
<mask id="mask0_1657_5033" style="mask-type:alpha" maskUnits="userSpaceOnUse" x="0" y="0" width="55" height="55">
<path d="M27.5 7.62939e-06C42.6896 7.62939e-06 55 12.3104 55 27.5C55 42.6896 42.6896 55 27.5 55C12.3104 55 0 42.6896 0 27.5C0 12.3196 12.3104 7.62939e-06 27.5 7.62939e-06Z" fill="#9449FD"/>
</mask>
<g mask="url(#mask0_1657_5033)">
<path d="M-1.51572 -27.3343V8.52636L26.8064 24.8767L55.1287 8.52636V-26.8838M1.98915 -27.3855V6.50125L26.8066 20.8302L51.6242 6.50125V-27.0242M5.49366 -27.4364V4.47809L26.8064 16.7837L48.1193 4.47809V-27.1646M8.99854 -27.4858V2.45466L26.8066 12.7353L44.6147 2.45466V-27.307M12.5031 -27.5369V0.431414L26.8064 8.68867L41.1081 0.431414V-27.4475M16.0097 -27.5879V-1.59362L26.8065 4.6404L37.6034 -1.59362V-27.5879M-61.9694 -27.3343V8.52636L-33.6472 24.8767L-5.32499 8.52636V-26.8838M-58.4649 -27.3855V6.50125L-33.6473 20.8302L-8.82986 6.50125V-27.0242M-54.96 -27.4364V4.47809L-33.6472 16.7837L-12.3345 4.47809V-27.1646M-51.4555 -27.4858V2.45466L-33.6474 12.7353L-15.8393 2.45466V-27.307M-47.9489 -27.5369V0.431414L-33.6472 8.68867L-19.3438 0.431414V-27.4475M-44.4443 -27.5879V-1.59362L-33.6474 4.6404L-22.8505 -1.59362V-27.5879M-122 -26.8838V8.52636L-93.6779 24.8767L-65.3557 8.52636V-26.8838M-118.495 -27.0242V6.50133L-93.6778 20.8303L-68.8603 6.50133V-27.0242M-114.991 -27.1647V4.478L-93.678 16.7836L-72.3652 4.478V-27.1647M-111.486 -27.3069V2.45475L-93.6778 12.7353L-75.8697 2.45475V-27.3069M-107.98 -27.4475V0.431414L-93.678 8.68867L-79.3746 0.431414V-27.4475M-104.475 -27.5879V-1.59362L-93.6778 4.6404L-82.8809 -1.59362V-27.5879M119.381 -26.8838V8.52636L147.703 24.8767L176.025 8.52636V-26.8838M122.886 -27.0242V6.50133L147.703 20.8303L172.521 6.50133V-27.0242M126.39 -27.1647V4.478L147.703 16.7836L169.016 4.478V-27.1647M129.895 -27.3069V2.45475L147.703 12.7353L165.511 2.45475V-27.3069M133.4 -27.4475V0.431414L147.703 8.68867L162.005 0.431414V-27.4475M136.906 -27.5879V-1.59362L147.703 4.6404L158.5 -1.59362V-27.5879M58.9273 -27.3343V8.52636L87.2495 24.8767L115.572 8.52636V-27.3343M62.4318 -27.3855V6.50125L87.2493 20.8302L112.067 6.50125V-27.3855M65.9367 -27.4364V4.47809L87.2495 16.7837L108.562 4.47809V-27.4364M69.4412 -27.4858V2.45466L87.2493 12.7353L105.057 2.45466V-27.4858M72.946 -27.5369V0.431414L87.2495 8.68867L101.551 0.431414V-27.5369M76.4523 -27.5879V-1.59362L87.2493 4.6404L98.0461 -1.59362V-27.5879M-31.9068 61.1499V28.4454L-3.58467 12.0931L24.7394 28.4454V61.1499M-28.402 61.1552V30.4686L-3.58449 16.1396L21.2349 30.4686V61.1552M-24.8974 61.1608V32.4919L-3.58467 20.1881L17.7282 32.4919V61.1608M-21.3908 61.1663V34.5171L-3.58458 24.2346L14.2236 34.5171V61.1663M-17.8863 61.1718V36.5403L-3.58476 28.283L10.7187 36.5403V61.1718M-14.3814 61.1772V38.5636L-3.58458 32.3295L7.21412 38.5636V61.1772M-92.3605 61.1499V28.4454L-64.0365 12.0931L-35.7143 28.4454V61.1499M-88.856 61.1552V30.4686L-64.0367 16.1396L-39.2192 30.4686V61.1552M-85.3493 61.1608V32.4919L-64.0365 20.1881L-42.7237 32.4919V61.1608M-81.8448 61.1663V34.5171L-64.0367 24.2346L-46.2304 34.5171V61.1663M-78.34 61.1718V36.5403L-64.0365 28.283L-49.735 36.5403V61.1718M-74.8351 61.1772V38.5636L-64.0363 32.3295L-53.2395 38.5636V61.1772M88.9225 61.1499V28.4454L117.245 12.0931L145.567 28.4454V61.1499M92.427 61.1552V30.4686L117.244 16.1396L142.062 30.4686V61.1552M95.9319 61.1608V32.4919L117.245 20.1881L138.558 32.4919V61.1608M99.4364 61.1663V34.5171L117.244 24.2346L135.053 34.5171V61.1663M102.941 61.1718V36.5403L117.245 28.283L131.546 36.5403V61.1718M106.448 61.1772V38.5636L117.244 32.3295L128.041 38.5636V61.1772M28.4685 61.1499V28.4454L56.7907 12.0931L85.1147 28.4454V61.1499M31.9733 61.1552V30.4686L56.7908 16.1396L81.6083 30.4686V61.1552M35.4778 61.1608V32.4919L56.7906 20.1881L78.1034 32.4919V61.1608M38.9827 61.1663V34.5171L56.7908 24.2346L74.5989 34.5171V61.1663M42.489 61.1718V36.5403L56.7906 28.283L71.094 36.5403V61.1718M45.9939 61.1772V38.5636L56.7908 32.3295L67.5877 38.5636V61.1772M109.836 73.9171V40.5048L117.21 36.1061L124.626 40.5048V73.9171M113.204 73.8879V42.3419L117.219 39.9684L121.258 42.3419V73.8879M115.796 73.709V44.5348L117.226 43.6427L118.666 44.5348V73.709M49.5608 73.9171V40.5048L56.9332 36.1061L64.3495 40.5048V73.9171M52.9284 73.8879V42.3419L56.9439 39.9684L60.9814 42.3419V73.8879M55.5211 73.709V44.5348L56.9514 43.6427L58.389 44.5348V73.709M-10.7162 73.9171V40.5048L-3.34192 36.1061L4.07431 40.5048V73.9171M-7.34815 73.8879V42.3419L-3.33256 39.9684L0.706625 42.3419V73.8879M-4.75584 73.709V44.5348L-3.32553 43.6427L-1.88604 44.5348V73.709M-70.991 73.9171V40.5048L-63.6186 36.1061L-56.2023 40.5048V73.9171M-67.6233 73.8879V42.3419L-63.6078 39.9684L-59.5685 42.3419V73.8879M-65.031 73.709V44.5348L-63.6007 43.6427L-62.1631 44.5348V73.709M140.225 -37V-3.58773L147.599 0.810995L155.015 -3.58773V-37M143.593 -36.971V-5.42498L147.609 -3.05137L151.648 -5.42498V-36.971M146.185 -36.7921V-7.61784L147.616 -6.72567L149.055 -7.61784V-36.7921M79.9501 -37V-3.58773L87.3244 0.810995L94.7388 -3.58773V-37M83.3178 -36.971V-5.42498L87.3334 -3.05137L91.3725 -5.42498V-36.971M85.9101 -36.7921V-7.61784L87.3405 -6.72567L88.7781 -7.61784V-36.7921M19.6731 -37V-3.58773L27.0475 0.810995L34.4637 -3.58773V-37M23.0408 -36.971V-5.42498L27.0564 -3.05137L31.0957 -5.42498V-36.971M25.6335 -36.7921V-7.61784L27.0638 -6.72567L28.5033 -7.61784V-36.7921M-40.602 -37V-3.58773L-33.2278 0.810995L-25.8115 -3.58773V-37M-37.234 -36.971V-5.42498L-33.2184 -3.05137L-29.1792 -5.42498V-36.971M-34.6417 -36.7921V-7.61784L-33.2113 -6.72567L-31.7719 -7.61784V-36.7921M-101.081 -37V-3.58773L-93.7071 0.810995L-86.2909 -3.58773V-37M-97.7133 -36.971V-5.42498L-93.6977 -3.05137L-89.6585 -5.42498V-36.971M-95.121 -36.7921V-7.61784L-93.6906 -6.72567L-92.2512 -7.61784V-36.7921" stroke="#474747" stroke-opacity="0.7" stroke-width="0.166667" stroke-miterlimit="10"/>
</g>
</svg>
