<svg width="38" height="38" viewBox="0 0 38 38" fill="none" xmlns="http://www.w3.org/2000/svg">
<path d="M18.9646 37.5947C22.5934 37.5947 26.1406 36.5186 29.1578 34.5026C32.1751 32.4866 34.5267 29.6211 35.9154 26.2685C37.304 22.916 37.6674 19.2269 36.9594 15.6679C36.2515 12.1089 34.5041 8.83967 31.9381 6.27374C29.3722 3.70781 26.103 1.96039 22.544 1.25245C18.9849 0.544513 15.2959 0.90785 11.9433 2.29652C8.59079 3.68519 5.72532 6.03683 3.70928 9.05405C1.69324 12.0713 0.617188 15.6185 0.617188 19.2473C0.617188 24.1133 2.55021 28.7801 5.99102 32.2209C9.43182 35.6617 14.0986 37.5947 18.9646 37.5947V37.5947Z" fill="white"/>
<path d="M20.1396 18H17.8496V24.56H20.1396V18Z" stroke="#0D0D0D" stroke-width="0.5" stroke-linecap="round" stroke-linejoin="round"/>
<path d="M15.001 18H12.7109V24.56H15.001V18Z" stroke="#0D0D0D" stroke-width="0.5" stroke-linecap="round" stroke-linejoin="round"/>
<path d="M25.28 18H23V24.56H25.28V18Z" stroke="#0D0D0D" stroke-width="0.5" stroke-linecap="round" stroke-linejoin="round"/>
<path d="M19 11L11 15.93V17.93H27V15.93L19 11Z" stroke="#0D0D0D" stroke-width="0.5" stroke-linecap="round" stroke-linejoin="round"/>
<path d="M26.58 24.5701H11.4199V27.0001H26.58V24.5701Z" stroke="#0D0D0D" stroke-width="0.5" stroke-linecap="round" stroke-linejoin="round"/>
</svg>
