<svg width="24" height="24" viewBox="0 0 24 24" fill="none" xmlns="http://www.w3.org/2000/svg">
<path d="M15.2473 18.5905L5.46868 8.69929L12.496 5.95037L16.224 2.17663L21.9058 7.91549L18.1771 11.6563L15.2473 18.5905Z" fill="black"/>
<path d="M15.2473 18.5905L14.8207 19.0123C14.9614 19.1547 15.164 19.2175 15.3606 19.1797C15.5573 19.1419 15.7221 19.0085 15.8 18.824L15.2473 18.5905ZM5.46868 8.69929L5.2501 8.14052C5.06208 8.21407 4.92366 8.37724 4.88175 8.57473C4.83983 8.77222 4.90005 8.97755 5.04199 9.12112L5.46868 8.69929ZM12.496 5.95037L12.7146 6.50914C12.7929 6.47853 12.8638 6.43182 12.9229 6.37204L12.496 5.95037ZM16.224 2.17663L16.6504 1.7545C16.5376 1.64059 16.384 1.57655 16.2237 1.57663C16.0634 1.57672 15.9098 1.64094 15.7972 1.75497L16.224 2.17663ZM21.9058 7.91549L22.3307 8.33906C22.5635 8.10546 22.5642 7.72773 22.3321 7.49335L21.9058 7.91549ZM18.1771 11.6563L17.7522 11.2328C17.6978 11.2873 17.6544 11.3519 17.6244 11.4228L18.1771 11.6563ZM15.674 18.1687L5.89536 8.27746L5.04199 9.12112L14.8207 19.0123L15.674 18.1687ZM5.68725 9.25806L12.7146 6.50914L12.2775 5.3916L5.2501 8.14052L5.68725 9.25806ZM12.9229 6.37204L16.6508 2.5983L15.7972 1.75497L12.0692 5.5287L12.9229 6.37204ZM15.7976 2.59877L21.4794 8.33763L22.3321 7.49335L16.6504 1.7545L15.7976 2.59877ZM21.4808 7.49192L17.7522 11.2328L18.6021 12.0799L22.3307 8.33906L21.4808 7.49192ZM17.6244 11.4228L14.6946 18.357L15.8 18.824L18.7298 11.8899L17.6244 11.4228Z" fill="black"/>
<path d="M10.3737 13.6561L5.02645 19.075" stroke="black" stroke-width="1.2" stroke-linejoin="round"/>
</svg>
