<svg width="37" height="47" viewBox="0 0 37 47" fill="none" xmlns="http://www.w3.org/2000/svg">
<path d="M5.77807 12.7988L3.33447 17.3705L14.3437 46.084L16.7873 41.5255L5.77807 12.7988Z" fill="#470A68" stroke="white" stroke-width="0.4" stroke-linecap="round" stroke-linejoin="round"/>
<path d="M16.7892 41.5283L14.3456 46.0868L33.5564 43.2705L36 38.7119L16.7892 41.5283Z" fill="#470A68" stroke="white" stroke-width="0.4" stroke-linecap="round" stroke-linejoin="round"/>
<path d="M24.9888 9.91797L5.77795 12.7867L16.7871 41.5265L35.998 38.7101L24.9888 9.91797Z" fill="#FF8EFF" stroke="white" stroke-width="0.4" stroke-linecap="round" stroke-linejoin="round"/>
<path d="M35.1913 40.2158L15.9805 43.0453" stroke="#AB00E6" stroke-width="0.4" stroke-linecap="round" stroke-linejoin="round"/>
<path d="M34.3694 41.749L15.1586 44.5523" stroke="#AB00E6" stroke-width="0.4" stroke-linecap="round" stroke-linejoin="round"/>
<path d="M4.96057 14.3057L15.9698 43.0454" stroke="#AB00E6" stroke-width="0.4" stroke-linecap="round" stroke-linejoin="round"/>
<path d="M15.1634 44.5654L4.15417 15.8257" stroke="#AB00E6" stroke-width="0.4" stroke-linecap="round" stroke-linejoin="round"/>
<path d="M5.77807 12.7988L3.33447 17.3705L14.3437 46.084L16.7873 41.5255L5.77807 12.7988Z" stroke="white" stroke-width="0.4" stroke-linecap="round" stroke-linejoin="round"/>
<path d="M16.7892 41.5283L14.3456 46.0868L33.5564 43.2705L36 38.7119L16.7892 41.5283Z" stroke="white" stroke-width="0.4" stroke-linecap="round" stroke-linejoin="round"/>
<path d="M28.2268 22.7691L24.5744 13.1411L22.5468 11.8574L17.2826 12.6303L12.6554 26.2142L17.3086 38.2655L19.8302 39.4706H19.8432L22.6637 39.0646L28.2268 22.7691Z" fill="white"/>
<path d="M19.01 27.4346C20.5698 27.1595 22.7144 26.033 22.5454 23.8454L23.9362 23.662L24.5471 21.9198L22.2855 22.2473C22.1945 21.8936 22.0385 21.5661 21.8046 21.2779C21.5836 20.9897 21.2976 20.754 20.9727 20.5837L23.0914 20.2824L23.7153 18.4878L14.8247 19.7977L14.2528 21.553L16.8524 21.1862C19.192 20.8457 20.1278 21.9984 20.2838 22.5224L15.6046 23.2297L15.0327 24.9195L20.4788 24.1336C20.7517 25.7055 18.8411 25.9413 17.3593 26.2163L16.0595 26.4652L16.5794 27.7621L23.1173 32.8184L25.431 32.4516C23.2993 30.6963 21.2457 29.1768 19.023 27.4084L19.01 27.4346Z" fill="#CC36CC"/>
<path d="M24.5872 13.1411L22.5595 11.8574L9.88662 13.7306H9.86063L8.52185 15.499L17.3214 38.2655L19.843 39.4706H19.856L32.3079 37.6498L33.1918 35.9338L24.5872 13.1411Z" stroke="#0D0D0D" stroke-width="0.4" stroke-linecap="round" stroke-linejoin="round"/>
<path d="M5.36937 42.9018C5.41653 41.7025 6.40356 40.7408 7.63443 40.6949L10.4174 40.5847L7.61826 40.4739C6.39409 40.4282 5.40994 39.4764 5.35394 38.284L5.21813 35.3921L5.12754 38.2511C5.08934 39.4573 4.09949 40.4289 2.86186 40.4751L0.0321674 40.5847L2.87819 40.6949C4.1091 40.7408 5.09609 41.7025 5.14325 42.9018L5.25633 45.7773L5.36941 42.9018H5.36937Z" fill="white" stroke="white" stroke-width="0.4" stroke-miterlimit="10"/>
<path d="M26.7505 13.5708C26.8348 11.4275 28.5988 9.70883 30.7985 9.62672L35.772 9.42974L30.7696 9.23175C28.5819 9.15011 26.823 7.44904 26.723 5.31808L26.4803 0.149902L26.3184 5.25934C26.2501 7.415 24.4811 9.15139 22.2693 9.23398L17.2122 9.42981L22.2985 9.62672C24.4983 9.70883 26.2621 11.4275 26.3464 13.5708L26.5485 18.7096L26.7506 13.5708H26.7505Z" fill="white" stroke="white" stroke-width="0.4" stroke-miterlimit="10"/>
</svg>
