<svg width="140" height="11" viewBox="0 0 140 11" fill="none" xmlns="http://www.w3.org/2000/svg">
<path d="M23.5638 9.9557H25.3392L27.8005 1H26.0288L23.5638 9.9557Z" fill="white" fill-opacity="0.3"/>
<path d="M9.81549 9.99631C10.1786 9.99631 10.5051 9.74897 10.6005 9.39458L12.9114 1.02215H11.1397L9.14788 8.24282H2.05365L4.04546 1.02215H2.27007L0.0398179 9.10664C-0.0335457 9.35767 -0.00419921 9.57178 0.11685 9.74159C0.2379 9.9114 0.424979 9.99631 0.674415 9.99631H9.81549Z" fill="white" fill-opacity="0.3"/>
<path d="M23.8499 1.02584C24.1067 1.02584 24.2974 1.11075 24.4185 1.28056C24.5395 1.45037 24.5615 1.66817 24.4882 1.94135L23.5014 5.52584C23.4317 5.77686 23.2887 5.99098 23.0686 6.16079C22.8485 6.3306 22.6137 6.4155 22.3643 6.4155H14.3934L13.4066 10H11.6349L13.1058 4.65463H14.8776V4.65833H21.9718L22.489 2.78302H13.623L14.1036 1.02584H23.8499Z" fill="white" fill-opacity="0.3"/>
<path d="M30.8671 1.01447L33.1084 5.50339L28.3911 9.99232L28.9523 7.95827L31.5311 5.50339L30.3059 3.04851L30.8671 1.01447Z" fill="white" fill-opacity="0.3"/>
<path d="M31.5311 5.50339L29.2898 1.01447L26.8138 9.99232L31.5311 5.50339Z" fill="white" fill-opacity="0.3"/>
<path d="M39.1084 2L39.1084 8" stroke="white" stroke-opacity="0.3" stroke-width="0.522628"/>
<path d="M96.7053 2L96.7053 8" stroke="white" stroke-opacity="0.3" stroke-width="0.522628"/>
<path d="M107.738 1C108.252 1.91837 108.769 2.83404 109.277 3.75589C108.456 5.26362 107.648 6.77869 106.799 8.26984C106.474 8.84223 106.157 9.42002 105.836 9.99434C104.792 10.0009 103.749 10.0005 102.705 9.99897C102.737 9.92453 102.769 9.8497 102.807 9.77873C104.45 6.85197 106.099 3.92907 107.738 1Z" fill="white" fill-opacity="0.3"/>
<path d="M130.443 3.25781C131.02 4.37791 131.597 5.49762 132.173 6.61811C131.97 6.62235 131.766 6.61155 131.564 6.61888C131.427 6.37202 131.309 6.11476 131.176 5.86636C130.663 5.85055 130.151 5.86135 129.638 5.86019C129.514 6.11591 129.379 6.36508 129.248 6.61618C129.048 6.61425 128.848 6.62042 128.648 6.61849C129.238 5.49338 129.83 4.36904 130.443 3.25781ZM129.894 5.38114C130.244 5.38615 130.594 5.38538 130.944 5.38847C130.769 5.04904 130.611 4.69998 130.423 4.36788C130.243 4.70383 130.067 5.04133 129.894 5.38114Z" fill="white" fill-opacity="0.3"/>
<path d="M132.51 3.24463C133.381 4.03302 134.252 4.82179 135.112 5.62329C135.135 4.90009 135.109 4.17689 135.13 3.45368C135.316 3.45754 135.502 3.46063 135.689 3.4641C135.683 4.57802 135.686 5.69234 135.684 6.80626C135.112 6.31063 134.563 5.78722 133.998 5.28233C133.684 5.0023 133.372 4.71919 133.072 4.42335C133.064 5.15582 133.075 5.88866 133.06 6.62112C132.875 6.62189 132.69 6.61688 132.505 6.61842C132.506 5.4937 132.497 4.36936 132.51 3.24463Z" fill="white" fill-opacity="0.3"/>
<path d="M114.103 6.61356C114.704 5.49461 115.29 4.3668 115.906 3.25635C116.479 4.3776 117.056 5.49731 117.635 6.61471C117.429 6.61973 117.223 6.61934 117.017 6.6151C116.892 6.36477 116.764 6.11599 116.644 5.86258C116.13 5.85564 115.616 5.86142 115.102 5.86142C114.968 6.11406 114.847 6.3748 114.702 6.62127C114.502 6.61548 114.302 6.61973 114.103 6.61356ZM115.352 5.38392C115.703 5.38237 116.055 5.38739 116.406 5.38623C116.23 5.04874 116.074 4.69928 115.884 4.36912C115.705 4.707 115.529 5.04526 115.352 5.38392Z" fill="white" fill-opacity="0.3"/>
<path d="M122.665 3.54689C122.959 3.39608 123.303 3.37641 123.621 3.44314C123.897 3.50369 124.118 3.70773 124.286 3.93376C124.137 4.01244 123.989 4.09228 123.842 4.17598C123.645 3.85392 123.174 3.75132 122.887 4.00241C122.735 4.11581 122.747 4.39507 122.919 4.48146C123.304 4.70248 123.772 4.74992 124.114 5.05578C124.462 5.36319 124.449 5.97763 124.126 6.30008C123.78 6.66573 123.231 6.74519 122.771 6.60826C122.386 6.50682 122.096 6.1377 122.044 5.73193C122.231 5.6895 122.419 5.6544 122.607 5.62393C122.63 5.81409 122.699 6.02353 122.871 6.11918C123.144 6.27154 123.539 6.23335 123.727 5.95834C123.859 5.77127 123.82 5.48392 123.639 5.34699C123.261 5.08278 122.758 5.06658 122.419 4.73372C122.239 4.57481 122.165 4.30944 122.226 4.07377C122.275 3.83347 122.463 3.65566 122.665 3.54689Z" fill="white" fill-opacity="0.3"/>
<path d="M117.815 3.47571C118.027 3.44678 118.24 3.45681 118.453 3.45913C118.68 3.81166 118.907 4.1642 119.135 4.51635C119.374 4.16844 119.607 3.81552 119.844 3.4653C120.062 3.45797 120.28 3.45411 120.498 3.46105C120.152 3.96209 119.804 4.46197 119.457 4.96262C119.81 5.51997 120.195 6.05533 120.54 6.61847C120.332 6.61962 120.125 6.61769 119.917 6.61577C119.653 6.21964 119.39 5.82198 119.126 5.42585C118.852 5.82352 118.577 6.21926 118.307 6.61924C118.097 6.62348 117.886 6.62039 117.676 6.62078C118.041 6.06227 118.427 5.51804 118.807 4.96995C118.48 4.4693 118.147 3.97328 117.815 3.47571Z" fill="white" fill-opacity="0.3"/>
<path d="M121.011 3.46138C121.198 3.45559 121.385 3.45598 121.572 3.46022C121.573 4.51282 121.573 5.56542 121.573 6.61802C121.382 6.6184 121.192 6.61802 121.002 6.61802C121.009 5.5658 121.006 4.51359 121.011 3.46138Z" fill="white" fill-opacity="0.3"/>
<path d="M126.477 3.45898C126.958 3.48058 127.476 3.38994 127.919 3.63525C128.351 3.87594 128.45 4.58988 128.052 4.91311C128.303 5.01609 128.546 5.2101 128.611 5.49591C128.717 5.84652 128.531 6.23454 128.236 6.41621C127.7 6.72324 127.068 6.58014 126.485 6.6218C126.467 5.56765 126.479 4.51351 126.477 3.45898ZM127.035 3.91335C127.036 4.2142 127.035 4.51467 127.033 4.81514C127.242 4.80626 127.474 4.81938 127.652 4.68515C127.833 4.5166 127.827 4.16753 127.626 4.01749C127.451 3.90178 127.234 3.91489 127.035 3.91335ZM127.038 5.22823C127.036 5.53487 127.037 5.84189 127.043 6.14853C127.323 6.1331 127.625 6.1871 127.883 6.04246C128.112 5.92521 128.155 5.54181 127.942 5.38521C127.685 5.1777 127.341 5.23479 127.038 5.22823Z" fill="white" fill-opacity="0.3"/>
<path d="M136.336 3.45875C136.522 3.45721 136.709 3.45798 136.896 3.45837C136.897 3.87416 136.892 4.29034 136.901 4.70652C137.361 4.28494 137.83 3.87416 138.292 3.45605C138.547 3.4576 138.803 3.45875 139.058 3.45798C138.507 3.92932 137.959 4.40567 137.417 4.88858C137.951 5.47485 138.503 6.04146 139.048 6.61539C138.795 6.61269 138.542 6.63352 138.289 6.60305C137.855 6.14174 137.424 5.67774 136.995 5.21257C136.963 5.25577 136.932 5.29897 136.901 5.34217C136.89 5.76761 136.9 6.19266 136.893 6.61809C136.705 6.61694 136.518 6.62195 136.33 6.62079C136.332 5.56704 136.334 4.5129 136.336 3.45875Z" fill="white" fill-opacity="0.3"/>
<path d="M107.739 6.59912C108.786 6.59874 109.833 6.59102 110.88 6.60915C111.504 7.74159 112.147 8.86169 112.765 9.99722C111.718 10.0026 110.671 9.99837 109.624 9.9976C109.001 8.86131 108.35 7.74237 107.739 6.59912Z" fill="white" fill-opacity="0.3"/>
<path d="M79.8126 9.06545C79.7419 9.31675 79.6005 9.5288 79.3728 9.70157C79.1529 9.87435 78.9173 9.96073 78.666 9.96073H69.7524C69.5011 9.96073 69.3204 9.87435 69.1948 9.70157C69.0691 9.5288 69.0456 9.31675 69.1162 9.06545L71.1031 1.90314C71.1738 1.65183 71.3152 1.43979 71.5351 1.26702C71.755 1.09424 71.9827 1.00785 72.234 1.00785H81.1555C81.4147 1.00785 81.6031 1.09424 81.7288 1.26702C81.8545 1.43979 81.878 1.65183 81.7995 1.911L81.5639 2.75916H72.6424L71.1346 8.20943H80.0482L79.8126 9.06545ZM85.0822 1.01571H83.2995L80.8257 9.95288H82.6084L85.0822 1.01571ZM58.1529 1H56.3702L54.7445 6.85864L47.5901 1.01571L45.1084 9.98429H46.8911L48.5011 4.16492L55.6555 10L58.1529 1ZM69.7681 1.25916C69.6424 1.08639 69.4539 1 69.1948 1H59.4094L58.9225 2.75131H67.8283L67.31 4.62042H58.412L56.9278 9.94503H58.7105L59.7 6.37173H67.7105C67.9618 6.37173 68.1974 6.28534 68.4173 6.11257C68.6372 5.93979 68.7864 5.72775 68.8571 5.47644L69.8466 1.89529C69.9173 1.64398 69.8859 1.43194 69.7681 1.25916Z" fill="white" fill-opacity="0.3"/>
<path d="M88.4513 1.00781L90.7053 5.49211L85.9697 9.96854L88.4513 1.00781Z" fill="white" fill-opacity="0.3"/>
<path d="M86.9622 0.963029L86.8459 0.730903L86.7764 0.981044L84.2869 9.94178L84.1906 10.2882L84.4519 10.0412L89.1875 5.56478L89.2415 5.51374L89.2083 5.44732L86.9622 0.963029Z" fill="#565656" stroke="black" stroke-width="0.2"/>
</svg>
