<svg width="160" height="13" viewBox="0 0 160 13" fill="none" xmlns="http://www.w3.org/2000/svg">
<path d="M34.949 10.6411H36.7535L39.255 1.53894H37.4544L34.949 10.6411Z" fill="#ACACAC"/>
<path d="M20.976 10.6823C21.3451 10.6823 21.6769 10.431 21.7738 10.0708L24.1225 1.56145H22.3218L20.2975 8.90018H13.0872L15.1116 1.56145H13.3072L11.0405 9.77813C10.9659 10.0333 10.9957 10.2509 11.1188 10.4235C11.2418 10.596 11.4319 10.6823 11.6854 10.6823H20.976Z" fill="#ACACAC"/>
<path d="M35.2398 1.5652C35.5008 1.5652 35.6947 1.6515 35.8177 1.82408C35.9407 1.99667 35.9631 2.21804 35.8885 2.49568L34.8857 6.13878C34.8148 6.39391 34.6694 6.61152 34.4457 6.78411C34.2221 6.95669 33.9835 7.04299 33.7299 7.04299H25.6287L24.6258 10.6861H22.8251L24.3201 5.25333H26.1208V5.25708H33.331L33.8567 3.35111H24.8458L25.3342 1.5652H35.2398Z" fill="#ACACAC"/>
<path d="M42.3718 1.55365L44.6497 6.11596L39.8553 10.6783L40.4257 8.61098L43.0466 6.11596L41.8014 3.62095L42.3718 1.55365Z" fill="#ACACAC"/>
<path d="M43.0466 6.11596L40.7687 1.55365L38.2522 10.6783L43.0466 6.11596Z" fill="#ACACAC"/>
<path d="M50 2.54913L50 9.5189" stroke="#ACACAC" stroke-width="0.522628"/>
<path d="M106 2.54913L106 9.5189" stroke="#ACACAC" stroke-width="0.522628"/>
<path d="M117.64 0C118.317 1.2115 119 2.41944 119.669 3.63552C118.587 5.62449 117.52 7.62313 116.401 9.59023C115.972 10.3453 115.554 11.1075 115.129 11.8652C113.753 11.8738 112.376 11.8733 111 11.8713C111.042 11.7731 111.084 11.6744 111.134 11.5807C113.302 7.71981 115.477 3.86398 117.64 0Z" fill="#ACACAC"/>
<path d="M147.592 2.97813C148.353 4.45575 149.114 5.93285 149.874 7.41097C149.605 7.41657 149.337 7.40232 149.07 7.41199C148.89 7.08634 148.734 6.74696 148.558 6.41928C147.882 6.39842 147.206 6.41267 146.529 6.41114C146.366 6.74849 146.188 7.07718 146.015 7.40843C145.751 7.40588 145.487 7.41402 145.223 7.41148C146.002 5.92725 146.783 4.44404 147.592 2.97813ZM146.868 5.77919C147.329 5.7858 147.79 5.78478 148.252 5.78885C148.021 5.34109 147.813 4.88061 147.565 4.44252C147.328 4.8857 147.095 5.33092 146.868 5.77919Z" fill="#ACACAC"/>
<path d="M150.317 2.96084C151.466 4.00087 152.615 5.0414 153.75 6.09873C153.781 5.14469 153.746 4.19066 153.774 3.23662C154.019 3.24171 154.265 3.24578 154.511 3.25036C154.503 4.71983 154.507 6.18981 154.505 7.65928C153.751 7.00545 153.026 6.31498 152.28 5.64893C151.866 5.27953 151.455 4.90606 151.059 4.51579C151.049 5.48204 151.063 6.4488 151.043 7.41504C150.799 7.41606 150.555 7.40945 150.311 7.41148C150.313 5.92777 150.301 4.44456 150.317 2.96084Z" fill="#ACACAC"/>
<path d="M126.035 7.40537C126.829 5.92929 127.602 4.4415 128.414 2.97661C129.17 4.45575 129.93 5.93285 130.695 7.4069C130.423 7.41351 130.152 7.41301 129.88 7.40741C129.715 7.07719 129.546 6.749 129.388 6.4147C128.709 6.40554 128.031 6.41318 127.353 6.41318C127.176 6.74645 127.016 7.09041 126.825 7.41555C126.561 7.40792 126.298 7.41351 126.035 7.40537ZM127.683 5.78326C128.146 5.78122 128.61 5.78784 129.074 5.78631C128.841 5.34109 128.636 4.8801 128.385 4.44455C128.149 4.89028 127.916 5.33651 127.683 5.78326Z" fill="#ACACAC"/>
<path d="M137.331 3.35923C137.718 3.16028 138.173 3.13433 138.592 3.22236C138.956 3.30224 139.248 3.57141 139.47 3.86957C139.273 3.97337 139.077 4.0787 138.884 4.18911C138.623 3.76425 138.002 3.6289 137.624 3.96014C137.423 4.10974 137.439 4.47812 137.666 4.5921C138.174 4.88365 138.792 4.94624 139.242 5.34973C139.701 5.75526 139.684 6.56581 139.258 6.99118C138.801 7.47354 138.078 7.57836 137.471 7.39773C136.962 7.26391 136.58 6.77697 136.512 6.24169C136.758 6.18572 137.006 6.13942 137.254 6.09922C137.284 6.35007 137.376 6.62636 137.603 6.75255C137.962 6.95353 138.483 6.90316 138.732 6.54037C138.906 6.29359 138.855 5.91452 138.616 5.73389C138.117 5.38535 137.454 5.36398 137.006 4.92487C136.769 4.71523 136.671 4.36516 136.752 4.05428C136.816 3.73728 137.064 3.50271 137.331 3.35923Z" fill="#ACACAC"/>
<path d="M130.933 3.26563C131.212 3.22747 131.493 3.2407 131.774 3.24376C132.074 3.70882 132.373 4.17388 132.674 4.63843C132.99 4.17947 133.297 3.7139 133.609 3.2519C133.896 3.24223 134.184 3.23714 134.472 3.2463C134.015 3.90726 133.556 4.56669 133.099 5.22713C133.565 5.96238 134.073 6.66862 134.527 7.4115C134.253 7.41302 133.979 7.41048 133.705 7.40793C133.356 6.88538 133.01 6.36078 132.661 5.83823C132.301 6.36282 131.937 6.88487 131.581 7.41251C131.304 7.41811 131.026 7.41404 130.749 7.41455C131.231 6.67778 131.739 5.95983 132.241 5.2368C131.809 4.57635 131.37 3.92201 130.933 3.26563Z" fill="#ACACAC"/>
<path d="M135.148 3.24733C135.395 3.2397 135.642 3.24021 135.889 3.24581C135.89 4.63437 135.889 6.02294 135.889 7.41151C135.638 7.41202 135.388 7.41151 135.136 7.41151C135.146 6.02345 135.141 4.63539 135.148 3.24733Z" fill="#ACACAC"/>
<path d="M142.359 3.24377C142.993 3.27226 143.677 3.15269 144.261 3.4763C144.831 3.7938 144.962 4.73563 144.437 5.16202C144.768 5.29787 145.088 5.55381 145.175 5.93084C145.314 6.39336 145.068 6.90523 144.68 7.14489C143.972 7.54991 143.138 7.36113 142.37 7.41609C142.346 6.02548 142.361 4.63488 142.359 3.24377ZM143.095 3.84316C143.096 4.24004 143.096 4.63641 143.093 5.03278C143.369 5.02107 143.674 5.03837 143.909 4.8613C144.149 4.63895 144.14 4.17847 143.875 3.98054C143.644 3.82789 143.358 3.84519 143.095 3.84316ZM143.099 5.57772C143.096 5.98223 143.098 6.38725 143.105 6.79177C143.475 6.77141 143.873 6.84265 144.214 6.65184C144.516 6.49716 144.572 5.99139 144.291 5.78481C143.953 5.51107 143.498 5.58637 143.099 5.57772Z" fill="#ACACAC"/>
<path d="M155.365 3.24377C155.611 3.24173 155.857 3.24275 156.104 3.24326C156.105 3.79176 156.099 4.34078 156.11 4.8898C156.717 4.33366 157.335 3.79176 157.945 3.2402C158.282 3.24224 158.619 3.24377 158.956 3.24275C158.228 3.86453 157.506 4.49292 156.791 5.12996C157.495 5.90337 158.224 6.65082 158.943 7.40794C158.609 7.40438 158.274 7.43186 157.942 7.39166C157.369 6.78311 156.801 6.171 156.233 5.55737C156.192 5.61436 156.151 5.67134 156.11 5.72833C156.096 6.28956 156.109 6.85028 156.1 7.41151C155.852 7.40998 155.604 7.41659 155.357 7.41507C155.359 6.02497 155.363 4.63437 155.365 3.24377Z" fill="#ACACAC"/>
<path d="M117.64 7.38606C119.022 7.38555 120.403 7.37537 121.784 7.39929C122.607 8.89318 123.456 10.3708 124.271 11.8688C122.89 11.8759 121.509 11.8703 120.127 11.8693C119.305 10.3703 118.447 8.8942 117.64 7.38606Z" fill="#ACACAC"/>
<path d="M90.011 9.74197C89.9397 9.9955 89.797 10.2094 89.5673 10.3837C89.3454 10.558 89.1078 10.6452 88.8542 10.6452H79.8618C79.6083 10.6452 79.4261 10.558 79.2993 10.3837C79.1725 10.2094 79.1488 9.9955 79.2201 9.74197L81.2245 2.51635C81.2959 2.26282 81.4385 2.0489 81.6603 1.8746C81.8821 1.7003 82.1119 1.61315 82.3654 1.61315H91.3658C91.6272 1.61315 91.8174 1.7003 91.9441 1.8746C92.0709 2.0489 92.0947 2.26282 92.0154 2.52427L91.7777 3.37994H82.7774L81.2562 8.87838H90.2486L90.011 9.74197ZM95.3272 1.62107H93.5287L91.033 10.6372H92.8315L95.3272 1.62107ZM68.1598 1.60522H66.3613L64.7213 7.51565L57.5036 1.62107L55 10.6689H56.7985L58.4227 4.79812L65.6404 10.6848L68.1598 1.60522ZM79.8777 1.86668C79.7509 1.69238 79.5608 1.60522 79.2993 1.60522H69.4275L68.9362 3.37201H77.9207L77.3978 5.25765H68.4213L66.9238 10.6293H68.7223L69.7206 7.02444H77.8019C78.0554 7.02444 78.2931 6.93729 78.5149 6.76298C78.7368 6.58868 78.8873 6.37476 78.9586 6.12123L79.9569 2.50843C80.0282 2.2549 79.9965 2.04098 79.8777 1.86668Z" fill="#ACACAC"/>
<path d="M98.726 1.61314L101 6.13708L96.2224 10.6531L98.726 1.61314Z" fill="#ACACAC"/>
<path d="M97.1336 1.61314L99.3995 6.13708L94.6221 10.6531L97.1336 1.61314Z" fill="#ACACAC"/>
</svg>
