<svg id="svg" version="1.1" xmlns="http://www.w3.org/2000/svg" xmlns:xlink="http://www.w3.org/1999/xlink" width="400" height="390.8045977011495" viewBox="0, 0, 400,390.8045977011495"><g id="svgg"><path id="path0" d="M146.628 141.040 C 145.087 141.319,142.846 143.749,142.364 145.663 C 141.668 148.427,141.763 258.073,142.463 259.726 C 144.249 263.946,148.128 263.427,154.013 258.182 C 158.520 254.165,165.335 253.742,168.196 257.303 C 172.265 262.365,179.041 264.654,181.432 261.773 C 181.723 261.422,182.677 260.778,183.552 260.341 C 184.426 259.904,185.846 258.870,186.706 258.042 C 191.210 253.710,197.528 253.597,202.659 257.757 C 203.992 258.838,205.611 259.957,206.256 260.244 C 206.901 260.531,208.221 261.301,209.189 261.955 C 212.376 264.109,215.894 262.807,221.933 257.236 C 224.138 255.202,226.539 254.576,230.094 255.110 C 231.728 255.355,232.478 255.783,236.825 258.960 C 241.091 262.077,242.464 262.802,243.875 262.681 C 246.453 262.461,247.852 258.814,247.096 254.282 C 246.862 252.879,246.729 231.406,246.749 198.360 C 246.785 140.441,246.874 143.128,244.870 141.465 C 244.275 140.971,149.277 140.560,146.628 141.040 M239.183 146.614 C 239.873 147.035,240.841 148.134,241.333 149.056 L 242.229 150.733 242.339 198.827 C 242.450 247.576,242.362 251.147,241.014 252.637 C 240.029 253.725,238.180 253.575,236.854 252.297 C 235.822 251.303,234.421 250.485,229.970 248.279 C 227.307 246.959,221.950 249.271,218.461 253.244 C 215.487 256.632,207.632 256.391,204.800 252.825 C 204.214 252.087,202.806 251.028,201.672 250.472 C 200.537 249.916,199.031 249.089,198.324 248.635 C 195.855 247.049,192.391 247.074,191.395 248.684 C 191.257 248.908,189.970 249.685,188.534 250.412 C 187.098 251.139,185.396 252.295,184.751 252.980 C 181.209 256.742,175.154 256.764,171.103 253.029 C 165.104 247.498,161.816 246.251,159.140 248.491 C 158.817 248.761,157.586 249.462,156.403 250.047 C 155.220 250.633,153.892 251.442,153.451 251.846 C 151.264 253.847,148.699 252.799,147.823 249.546 C 147.528 248.451,147.431 233.385,147.503 199.730 L 147.605 151.485 148.951 149.263 C 151.171 145.602,147.241 145.888,195.503 145.867 C 236.946 145.849,237.957 145.866,239.183 146.614 M165.457 186.508 C 163.703 186.923,163.361 187.344,163.510 188.904 C 163.728 191.188,163.310 191.158,195.308 191.158 C 227.513 191.158,226.898 191.204,227.098 188.809 C 227.328 186.061,227.960 186.114,195.398 186.159 C 179.649 186.181,166.176 186.338,165.457 186.508 M165.543 209.222 C 162.947 209.975,162.612 212.554,165.005 213.370 C 166.932 214.027,223.092 214.081,225.272 213.428 C 227.493 212.763,227.551 210.302,225.368 209.389 C 223.735 208.707,167.857 208.551,165.543 209.222 " stroke="none" fill="#a4a4a5" fill-rule="evenodd"></path><path id="path1" d="M0.000 195.503 L 0.000 391.007 200.000 391.007 L 400.000 391.007 400.000 195.503 L 400.000 0.000 200.000 0.000 L 0.000 0.000 0.000 195.503 M246.900 138.135 C 252.905 140.845,252.395 134.852,252.395 202.737 C 252.395 269.644,252.790 263.522,248.326 265.787 C 244.508 267.724,237.691 266.705,236.670 264.045 C 236.556 263.748,235.815 263.175,235.024 262.771 C 234.233 262.368,232.658 261.203,231.524 260.184 C 228.627 257.579,227.225 257.642,224.351 260.505 C 219.080 265.756,217.448 266.677,212.908 266.960 C 209.408 267.179,205.655 265.974,204.182 264.160 C 203.818 263.711,203.008 263.079,202.384 262.757 C 201.760 262.434,200.191 261.227,198.899 260.074 C 195.953 257.446,193.714 257.325,191.446 259.671 C 190.191 260.968,187.026 263.343,183.424 265.689 C 179.657 268.142,172.969 267.447,169.509 264.243 C 168.860 263.642,167.660 262.595,166.842 261.918 C 166.025 261.240,165.103 260.196,164.793 259.597 C 163.880 257.831,160.974 257.874,159.077 259.681 C 158.543 260.190,157.679 260.903,157.157 261.267 C 156.635 261.630,155.435 262.510,154.492 263.222 C 149.156 267.248,145.301 268.136,141.553 266.202 C 137.449 264.083,137.579 266.345,137.716 199.413 L 137.830 143.695 138.851 141.517 C 140.026 139.012,141.299 138.208,144.954 137.663 C 149.911 136.923,245.192 137.365,246.900 138.135 M152.196 152.096 C 151.628 153.006,151.506 242.559,152.069 245.470 C 152.484 247.616,152.783 247.888,153.595 246.856 C 155.059 244.997,158.618 243.597,161.883 243.597 C 166.308 243.597,167.199 243.876,169.248 245.902 C 170.250 246.892,171.829 248.220,172.758 248.851 C 173.687 249.483,174.843 250.505,175.326 251.123 C 176.663 252.832,179.080 252.766,180.770 250.975 C 181.454 250.251,182.777 249.218,183.710 248.680 C 184.643 248.143,186.172 247.062,187.107 246.278 C 190.912 243.091,197.373 242.547,201.085 245.101 C 202.101 245.800,202.933 246.526,202.933 246.715 C 202.933 246.904,203.856 247.487,204.985 248.010 C 206.114 248.534,207.857 249.690,208.858 250.581 C 211.524 252.953,212.789 252.853,215.729 250.037 C 216.970 248.848,218.376 247.775,218.852 247.652 C 219.328 247.530,219.822 247.103,219.948 246.703 C 221.146 242.930,234.063 242.714,235.494 246.442 C 235.903 247.509,238.013 248.324,238.391 247.562 C 238.939 246.459,239.005 153.228,238.458 152.199 L 237.991 151.320 195.336 151.320 C 153.201 151.320,152.675 151.329,152.196 152.096 M227.815 183.073 C 233.926 186.297,233.969 190.788,227.925 194.704 L 225.942 195.989 195.197 195.920 L 164.451 195.852 161.798 194.458 C 158.578 192.765,157.576 191.363,157.576 188.547 C 157.576 185.329,158.687 184.410,165.396 182.074 C 165.718 181.962,179.443 181.902,195.894 181.942 L 225.806 182.014 227.815 183.073 M226.894 204.254 C 233.837 207.233,233.664 215.577,226.624 217.350 C 223.608 218.109,166.341 217.956,163.349 217.180 C 155.487 215.143,155.859 206.000,163.880 204.106 C 166.416 203.507,225.477 203.646,226.894 204.254 " stroke="none" fill="#141414" fill-rule="evenodd"></path><path id="path2" d="M144.296 139.655 C 139.394 141.070,139.785 135.612,139.785 202.554 C 139.785 267.029,139.627 263.094,142.268 264.321 C 146.069 266.086,149.112 265.025,156.207 259.459 C 160.893 255.783,163.376 255.625,166.537 258.805 C 169.773 262.059,173.240 264.680,174.719 264.989 C 176.917 265.450,180.538 265.275,181.363 264.669 C 181.770 264.370,183.667 263.026,185.578 261.683 C 187.488 260.339,189.928 258.624,191.000 257.870 C 193.699 255.972,196.187 255.940,198.776 257.771 C 209.046 265.034,209.277 265.158,212.463 265.158 C 215.539 265.158,220.786 262.110,223.651 258.657 C 225.769 256.105,229.588 256.118,232.617 258.690 C 233.352 259.314,234.521 260.176,235.214 260.606 C 235.907 261.036,237.679 262.224,239.152 263.245 C 243.439 266.219,247.085 265.670,249.071 261.752 L 250.049 259.824 250.153 203.324 C 250.273 138.665,250.475 142.743,247.035 140.467 L 245.414 139.394 195.532 139.329 C 163.261 139.287,145.172 139.402,144.296 139.655 M245.534 140.557 C 247.056 141.344,248.139 143.244,248.646 146.015 C 249.386 150.054,249.229 257.410,248.480 259.851 C 246.565 266.090,242.678 265.595,233.296 257.916 C 229.900 255.137,226.045 255.291,222.672 258.341 C 213.581 266.562,211.110 266.394,199.229 256.752 C 195.991 254.125,191.590 255.645,183.096 262.323 C 180.123 264.660,176.904 265.207,174.230 263.829 C 173.139 263.267,167.835 258.914,167.258 258.107 C 166.218 256.650,164.598 255.971,162.102 255.942 C 159.281 255.910,158.562 256.306,150.659 262.261 C 145.680 266.013,141.175 264.263,140.576 258.344 C 140.441 257.007,140.383 230.929,140.448 200.391 C 140.583 137.166,140.262 142.718,143.898 140.860 L 145.620 139.980 195.019 139.980 C 237.804 139.980,244.568 140.058,245.534 140.557 M151.867 148.455 C 148.962 149.904,149.183 145.953,149.049 198.827 C 148.927 246.407,149.001 249.523,150.279 250.583 C 151.117 251.278,153.557 250.414,156.833 248.263 C 159.726 246.364,160.135 246.210,162.237 246.230 C 165.316 246.259,165.390 246.304,172.257 252.288 C 176.073 255.614,179.312 255.728,183.049 252.667 C 184.415 251.548,186.098 250.364,186.788 250.036 C 187.478 249.709,188.878 248.803,189.900 248.023 C 191.980 246.435,193.865 245.857,195.894 246.183 C 198.184 246.551,198.529 246.711,200.464 248.310 C 201.491 249.159,202.532 249.853,202.778 249.853 C 203.023 249.853,204.400 250.817,205.836 251.994 C 210.511 255.826,213.895 255.813,218.031 251.944 C 218.915 251.117,220.323 249.960,221.159 249.375 C 221.995 248.789,223.175 247.909,223.782 247.420 C 225.382 246.130,230.122 246.122,231.741 247.405 C 234.271 249.412,238.165 251.465,239.211 251.344 C 241.250 251.109,241.206 252.224,241.227 200.587 C 241.248 149.074,241.303 150.431,239.145 148.786 L 237.854 147.801 195.467 147.826 C 158.043 147.848,152.937 147.921,151.867 148.455 M239.394 150.547 L 240.469 151.723 240.469 200.202 C 240.469 257.780,241.163 252.652,234.018 247.859 L 230.499 245.499 227.370 245.630 C 223.964 245.773,223.453 246.064,217.348 251.320 C 213.248 254.851,210.430 254.882,206.647 251.438 C 206.002 250.851,204.631 249.891,203.601 249.304 C 202.571 248.718,201.132 247.715,200.403 247.075 C 196.525 243.669,191.321 245.055,182.718 251.786 C 178.902 254.772,175.616 254.696,173.021 251.560 C 172.805 251.301,171.750 250.429,170.674 249.623 C 169.599 248.818,168.490 247.837,168.211 247.445 C 166.094 244.476,160.576 244.624,155.867 247.777 C 152.598 249.964,150.932 250.273,150.365 248.795 C 149.957 247.731,150.056 152.391,150.466 151.311 C 151.352 148.983,147.557 149.151,196.676 149.270 L 238.319 149.371 239.394 150.547 M165.200 184.425 C 159.049 185.765,158.265 189.770,163.585 192.683 C 164.851 193.376,220.394 193.977,224.762 193.345 C 230.231 192.554,231.257 186.840,226.302 184.769 C 224.921 184.192,167.749 183.870,165.200 184.425 M226.111 185.696 C 229.260 186.893,229.197 190.465,226.005 191.742 C 223.816 192.618,166.933 192.680,164.490 191.809 C 160.858 190.514,160.337 187.775,163.426 186.217 L 165.171 185.337 195.170 185.337 C 212.395 185.337,225.570 185.490,226.111 185.696 M162.905 207.672 C 158.718 210.445,159.027 213.296,163.704 215.046 C 166.594 216.127,223.753 216.296,226.302 215.231 C 229.972 213.697,230.575 211.259,228.002 208.359 L 226.483 206.647 195.626 206.542 L 164.769 206.438 162.905 207.672 M225.734 208.065 C 229.138 209.817,229.246 213.654,225.914 214.470 C 222.846 215.221,163.867 214.451,162.785 213.646 C 160.710 212.102,161.245 209.776,163.990 208.418 C 165.893 207.476,223.947 207.144,225.734 208.065 " stroke="none" fill="#59595a" fill-rule="evenodd"></path><path id="path3" d="M143.898 140.860 C 140.262 142.718,140.583 137.166,140.448 200.391 C 140.383 230.929,140.441 257.007,140.576 258.344 C 141.175 264.263,145.680 266.013,150.659 262.261 C 158.562 256.306,159.281 255.910,162.102 255.942 C 164.598 255.971,166.218 256.650,167.258 258.107 C 167.835 258.914,173.139 263.267,174.230 263.829 C 176.904 265.207,180.123 264.660,183.096 262.323 C 191.590 255.645,195.991 254.125,199.229 256.752 C 211.110 266.394,213.581 266.562,222.672 258.341 C 226.045 255.291,229.900 255.137,233.296 257.916 C 242.678 265.595,246.565 266.090,248.480 259.851 C 248.996 258.168,249.071 250.944,249.071 203.129 C 249.071 146.259,249.038 145.025,247.436 142.415 C 245.839 139.814,249.433 139.980,195.019 139.980 L 145.620 139.980 143.898 140.860 M244.870 141.465 C 246.874 143.128,246.785 140.441,246.749 198.360 C 246.729 231.406,246.862 252.879,247.096 254.282 C 247.852 258.814,246.453 262.461,243.875 262.681 C 242.464 262.802,241.091 262.077,236.825 258.960 C 232.478 255.783,231.728 255.355,230.094 255.110 C 226.539 254.576,224.138 255.202,221.933 257.236 C 215.894 262.807,212.376 264.109,209.189 261.955 C 208.221 261.301,206.901 260.531,206.256 260.244 C 205.611 259.957,203.992 258.838,202.659 257.757 C 197.528 253.597,191.210 253.710,186.706 258.042 C 185.846 258.870,184.426 259.904,183.552 260.341 C 182.677 260.778,181.723 261.422,181.432 261.773 C 179.041 264.654,172.265 262.365,168.196 257.303 C 165.335 253.742,158.520 254.165,154.013 258.182 C 148.128 263.427,144.249 263.946,142.463 259.726 C 141.763 258.073,141.668 148.427,142.364 145.663 C 142.846 143.749,145.087 141.319,146.628 141.040 C 149.277 140.560,244.275 140.971,244.870 141.465 M151.688 146.464 C 150.703 146.874,149.906 147.689,148.951 149.263 L 147.605 151.485 147.503 199.730 C 147.431 233.385,147.528 248.451,147.823 249.546 C 148.699 252.799,151.264 253.847,153.451 251.846 C 153.892 251.442,155.220 250.633,156.403 250.047 C 157.586 249.462,158.817 248.761,159.140 248.491 C 161.816 246.251,165.104 247.498,171.103 253.029 C 175.154 256.764,181.209 256.742,184.751 252.980 C 185.396 252.295,187.098 251.139,188.534 250.412 C 189.970 249.685,191.257 248.908,191.395 248.684 C 192.391 247.074,195.855 247.049,198.324 248.635 C 199.031 249.089,200.537 249.916,201.672 250.472 C 202.806 251.028,204.214 252.087,204.800 252.825 C 207.632 256.391,215.487 256.632,218.461 253.244 C 221.950 249.271,227.307 246.959,229.970 248.279 C 234.421 250.485,235.822 251.303,236.854 252.297 C 238.180 253.575,240.029 253.725,241.014 252.637 C 242.362 251.147,242.450 247.576,242.339 198.827 L 242.229 150.733 241.333 149.056 C 239.467 145.561,243.561 145.846,195.503 145.867 C 158.986 145.883,152.886 145.966,151.688 146.464 M239.145 148.786 C 241.303 150.431,241.248 149.074,241.227 200.587 C 241.206 252.224,241.250 251.109,239.211 251.344 C 238.165 251.465,234.271 249.412,231.741 247.405 C 230.122 246.122,225.382 246.130,223.782 247.420 C 223.175 247.909,221.995 248.789,221.159 249.375 C 220.323 249.960,218.915 251.117,218.031 251.944 C 213.895 255.813,210.511 255.826,205.836 251.994 C 204.400 250.817,203.023 249.853,202.778 249.853 C 202.532 249.853,201.491 249.159,200.464 248.310 C 198.529 246.711,198.184 246.551,195.894 246.183 C 193.865 245.857,191.980 246.435,189.900 248.023 C 188.878 248.803,187.478 249.709,186.788 250.036 C 186.098 250.364,184.415 251.548,183.049 252.667 C 179.312 255.728,176.073 255.614,172.257 252.288 C 165.390 246.304,165.316 246.259,162.237 246.230 C 160.135 246.210,159.726 246.364,156.833 248.263 C 151.631 251.679,150.115 251.658,149.363 248.161 C 148.494 244.121,149.012 151.775,149.912 150.287 C 151.476 147.704,148.720 147.853,195.467 147.826 L 237.854 147.801 239.145 148.786 M163.426 186.217 C 160.337 187.775,160.858 190.514,164.490 191.809 C 166.933 192.680,223.816 192.618,226.005 191.742 C 229.197 190.465,229.260 186.893,226.111 185.696 C 225.570 185.490,212.395 185.337,195.170 185.337 L 165.171 185.337 163.426 186.217 M225.624 186.756 C 227.119 187.355,227.209 187.480,227.098 188.809 C 226.898 191.204,227.513 191.158,195.308 191.158 C 163.310 191.158,163.728 191.188,163.510 188.904 C 163.361 187.344,163.703 186.923,165.457 186.508 C 168.316 185.833,223.887 186.062,225.624 186.756 M163.990 208.418 C 161.245 209.776,160.710 212.102,162.785 213.646 C 163.867 214.451,222.846 215.221,225.914 214.470 C 229.246 213.654,229.138 209.817,225.734 208.065 C 223.947 207.144,165.893 207.476,163.990 208.418 M225.368 209.389 C 227.551 210.302,227.493 212.763,225.272 213.428 C 223.092 214.081,166.932 214.027,165.005 213.370 C 162.612 212.554,162.947 209.975,165.543 209.222 C 167.857 208.551,223.735 208.707,225.368 209.389 " stroke="none" fill="#747476" fill-rule="evenodd"></path><path id="path4" d="M144.954 137.663 C 141.299 138.208,140.026 139.012,138.851 141.517 L 137.830 143.695 137.716 199.413 C 137.579 266.345,137.449 264.083,141.553 266.202 C 145.301 268.136,149.156 267.248,154.492 263.222 C 155.435 262.510,156.635 261.630,157.157 261.267 C 157.679 260.903,158.543 260.190,159.077 259.681 C 160.974 257.874,163.880 257.831,164.793 259.597 C 165.103 260.196,166.025 261.240,166.842 261.918 C 167.660 262.595,168.860 263.642,169.509 264.243 C 172.969 267.447,179.657 268.142,183.424 265.689 C 187.026 263.343,190.191 260.968,191.446 259.671 C 193.714 257.325,195.953 257.446,198.899 260.074 C 200.191 261.227,201.760 262.434,202.384 262.757 C 203.008 263.079,203.818 263.711,204.182 264.160 C 205.655 265.974,209.408 267.179,212.908 266.960 C 217.448 266.677,219.080 265.756,224.351 260.505 C 227.225 257.642,228.627 257.579,231.524 260.184 C 232.658 261.203,234.233 262.368,235.024 262.771 C 235.815 263.175,236.556 263.748,236.670 264.045 C 237.691 266.705,244.508 267.724,248.326 265.787 C 252.790 263.522,252.395 269.644,252.395 202.737 C 252.395 134.852,252.905 140.845,246.900 138.135 C 245.192 137.365,149.911 136.923,144.954 137.663 M247.035 140.467 C 250.475 142.743,250.273 138.665,250.153 203.324 L 250.049 259.824 249.071 261.752 C 247.085 265.670,243.439 266.219,239.152 263.245 C 237.679 262.224,235.907 261.036,235.214 260.606 C 234.521 260.176,233.352 259.314,232.617 258.690 C 229.588 256.118,225.769 256.105,223.651 258.657 C 220.786 262.110,215.539 265.158,212.463 265.158 C 209.277 265.158,209.046 265.034,198.776 257.771 C 196.187 255.940,193.699 255.972,191.000 257.870 C 189.928 258.624,187.488 260.339,185.578 261.683 C 183.667 263.026,181.770 264.370,181.363 264.669 C 180.538 265.275,176.917 265.450,174.719 264.989 C 173.240 264.680,169.773 262.059,166.537 258.805 C 163.376 255.625,160.893 255.783,156.207 259.459 C 149.112 265.025,146.069 266.086,142.268 264.321 C 139.627 263.094,139.785 267.029,139.785 202.554 C 139.785 139.725,139.696 142.357,141.880 140.802 C 144.023 139.276,144.496 139.263,195.532 139.329 L 245.414 139.394 247.035 140.467 M153.861 149.281 C 152.143 149.444,150.892 150.192,150.466 151.311 C 150.056 152.391,149.957 247.731,150.365 248.795 C 150.932 250.273,152.598 249.964,155.867 247.777 C 160.576 244.624,166.094 244.476,168.211 247.445 C 168.490 247.837,169.599 248.818,170.674 249.623 C 171.750 250.429,172.805 251.301,173.021 251.560 C 175.616 254.696,178.902 254.772,182.718 251.786 C 191.321 245.055,196.525 243.669,200.403 247.075 C 201.132 247.715,202.571 248.718,203.601 249.304 C 204.631 249.891,206.002 250.851,206.647 251.438 C 210.430 254.882,213.248 254.851,217.348 251.320 C 223.453 246.064,223.964 245.773,227.370 245.630 L 230.499 245.499 234.018 247.859 C 241.163 252.652,240.469 257.780,240.469 200.202 L 240.469 151.723 239.394 150.547 L 238.319 149.371 196.676 149.270 C 173.773 149.214,154.506 149.219,153.861 149.281 M238.458 152.199 C 239.005 153.228,238.939 246.459,238.391 247.562 C 238.013 248.324,235.903 247.509,235.494 246.442 C 234.063 242.714,221.146 242.930,219.948 246.703 C 219.822 247.103,219.328 247.530,218.852 247.652 C 218.376 247.775,216.970 248.848,215.729 250.037 C 212.789 252.853,211.524 252.953,208.858 250.581 C 207.857 249.690,206.114 248.534,204.985 248.010 C 203.856 247.487,202.933 246.904,202.933 246.715 C 202.933 246.526,202.101 245.800,201.085 245.101 C 197.373 242.547,190.912 243.091,187.107 246.278 C 186.172 247.062,184.643 248.143,183.710 248.680 C 182.777 249.218,181.454 250.251,180.770 250.975 C 179.080 252.766,176.663 252.832,175.326 251.123 C 174.843 250.505,173.687 249.483,172.758 248.851 C 171.829 248.220,170.250 246.892,169.248 245.902 C 167.199 243.876,166.308 243.597,161.883 243.597 C 158.618 243.597,155.059 244.997,153.595 246.856 C 152.783 247.888,152.484 247.616,152.069 245.470 C 151.506 242.559,151.628 153.006,152.196 152.096 C 152.675 151.329,153.201 151.320,195.336 151.320 L 237.991 151.320 238.458 152.199 M165.396 182.074 C 158.687 184.410,157.576 185.329,157.576 188.547 C 157.576 191.363,158.578 192.765,161.798 194.458 L 164.451 195.852 195.197 195.920 L 225.942 195.989 227.925 194.704 C 233.969 190.788,233.926 186.297,227.815 183.073 L 225.806 182.014 195.894 181.942 C 179.443 181.902,165.718 181.962,165.396 182.074 M226.302 184.769 C 231.257 186.840,230.231 192.554,224.762 193.345 C 220.394 193.977,164.851 193.376,163.585 192.683 C 158.265 189.770,159.049 185.765,165.200 184.425 C 167.749 183.870,224.921 184.192,226.302 184.769 M163.880 204.106 C 155.859 206.000,155.487 215.143,163.349 217.180 C 166.341 217.956,223.608 218.109,226.624 217.350 C 233.664 215.577,233.837 207.233,226.894 204.254 C 225.477 203.646,166.416 203.507,163.880 204.106 M228.002 208.359 C 230.575 211.259,229.972 213.697,226.302 215.231 C 223.753 216.296,166.594 216.127,163.704 215.046 C 159.027 213.296,158.718 210.445,162.905 207.672 L 164.769 206.438 195.626 206.542 L 226.483 206.647 228.002 208.359 " stroke="none" fill="#444444" fill-rule="evenodd"></path></g></svg>