<svg width="77" height="59" viewBox="0 0 77 59" fill="none" xmlns="http://www.w3.org/2000/svg">
    <path d="M67.2387 5.40088H4.76128C3.49851 5.40088 2.28736 5.9066 1.39444 6.80677C0.501528 7.70694 0 8.92784 0 10.2009V48.6009C0 49.8739 0.501528 51.0948 1.39444 51.995C2.28736 52.8952 3.49851 53.4009 4.76128 53.4009H67.2387C68.5015 53.4009 69.7126 52.8952 70.6056 51.995C71.4985 51.0948 72 49.8739 72 48.6009V10.2009C72 8.92784 71.4985 7.70694 70.6056 6.80677C69.7126 5.9066 68.5015 5.40088 67.2387 5.40088Z" fill="#D2D2D2"/>
    <mask id="mask0_5220_11875" style="mask-type:alpha" maskUnits="userSpaceOnUse" x="0" y="5" width="72" height="49">
        <path d="M67.2387 5.40039H4.76128C3.49851 5.40039 2.28736 5.90611 1.39444 6.80628C0.501528 7.70646 0 8.92735 0 10.2004V48.6004C0 49.8734 0.501528 51.0943 1.39444 51.9945C2.28736 52.8947 3.49851 53.4004 4.76128 53.4004H67.2387C68.5015 53.4004 69.7126 52.8947 70.6056 51.9945C71.4985 51.0943 72 49.8734 72 48.6004V10.2004C72 8.92735 71.4985 7.70646 70.6056 6.80628C69.7126 5.90611 68.5015 5.40039 67.2387 5.40039Z" fill="#D2D2D2"/>
    </mask>
    <g mask="url(#mask0_5220_11875)">
        <path d="M61.0344 48.1119C60.9182 47.4495 60.6442 46.8251 60.2353 46.2917L27.4287 4.80774C27.0088 4.29086 26.4608 3.89327 25.8396 3.65461C25.2335 3.42388 24.5793 3.34854 23.9367 3.43542C23.2801 3.54237 22.6614 3.81454 22.1385 4.22641C21.6203 4.64318 21.2202 5.1886 20.9778 5.80839L2.13869 55.2403C1.89141 55.8699 1.8159 56.554 1.91987 57.2225C2.07461 58.2108 2.59839 59.1032 3.38517 59.7194C3.7862 60.0283 4.24586 60.2521 4.73617 60.3769C5.22574 60.5118 5.7389 60.5378 6.23956 60.4532L57.8757 52.5147C58.3521 52.443 58.8105 52.2813 59.2267 52.0382C59.6607 51.7621 60.0358 51.4026 60.3303 50.9804C60.9216 50.1491 61.1734 49.123 61.0344 48.1119Z" fill="#0D0D0D" stroke="#0D0D0D" stroke-width="0.3" stroke-miterlimit="10"/>
        <path d="M74.0539 11.1628L69.8795 21.1581L59.8719 22.8286L64.0464 12.8146L74.0539 11.1628Z" fill="#0D0D0D"/>
        <path d="M68.1831 2.82861L58.1378 4.49921L64.0085 12.8144L74.0539 11.1628L68.1831 2.82861Z" fill="#0D0D0D"/>
        <path d="M59.8706 22.8292L54 14.4951L58.1744 4.49988L64.045 12.8151L59.8706 22.8292Z" fill="#0D0D0D"/>
        <path d="M74.0539 11.1628L69.8795 21.1581L59.8719 22.8286L64.0464 12.8146L74.0539 11.1628ZM74.0539 11.1628L64.0085 12.8144L58.1378 4.49921L68.1831 2.82861L74.0539 11.1628ZM59.8706 22.8292L54 14.4951L58.1744 4.49988L64.045 12.8151L59.8706 22.8292Z" stroke="#0D0D0D" stroke-width="0.3" stroke-linecap="round" stroke-linejoin="round"/>
    </g>
    <path d="M64.0344 45.5811C63.9182 44.9188 63.6442 44.2943 63.2353 43.7609L30.4287 2.27698C30.0088 1.7601 29.4608 1.36251 28.8396 1.12384C28.2335 0.893119 27.5793 0.817778 26.9367 0.90466C26.2801 1.01161 25.6614 1.28378 25.1385 1.69565C24.6203 2.11242 24.2202 2.65783 23.9778 3.27763L5.13869 52.7095C4.89141 53.3391 4.8159 54.0233 4.91987 54.6918C5.07461 55.68 5.59839 56.5725 6.38517 57.1886C6.7862 57.4975 7.24586 57.7213 7.73617 57.8462C8.22574 57.9811 8.7389 58.0071 9.23956 57.9224L60.8757 49.984C61.3521 49.9122 61.8105 49.7505 62.2267 49.5075C62.6607 49.2314 63.0358 48.8718 63.3303 48.4496C63.9216 47.6184 64.1734 46.5922 64.0344 45.5811Z" fill="#FFEB34" stroke="#0D0D0D" stroke-width="0.3" stroke-miterlimit="10"/>
    <path d="M25.338 55.4541L49.5813 26.4926L42.7404 17.8394L9.22021 57.9224L25.338 55.4541Z" fill="white"/>
    <path d="M31.2173 45.0673H31.0652L30.989 44.9434L30.2373 40.0546V39.9021L30.3706 39.8259L35.1851 39.0825H35.3277L35.4135 39.2159L36.1556 44.1048V44.2478L36.0223 44.324L31.2173 45.0673Z" fill="#0D0D0D" stroke="#0D0D0D" stroke-width="0.3" stroke-linecap="round" stroke-linejoin="round"/>
    <path d="M29.982 37.0329H29.8297L29.7537 36.8995L27.2227 20.4603V20.3079L27.356 20.2316L32.1702 19.4883H32.3131L32.3891 19.6217L34.9201 36.0704V36.2134L34.7963 36.2896L29.982 37.0329Z" fill="#0D0D0D" stroke="#0D0D0D" stroke-width="0.3" stroke-linecap="round" stroke-linejoin="round"/>
    <path d="M64.0344 45.5811C63.9182 44.9188 63.6442 44.2943 63.2353 43.7609L30.4287 2.27698C30.0088 1.7601 29.4608 1.36251 28.8396 1.12384C28.2335 0.893119 27.5793 0.817778 26.9367 0.90466C26.2801 1.01161 25.6614 1.28378 25.1385 1.69565C24.6203 2.11242 24.2202 2.65783 23.9778 3.27763L5.13869 52.7095C4.89141 53.3391 4.8159 54.0233 4.91987 54.6918C5.07461 55.68 5.59839 56.5725 6.38517 57.1886C6.7862 57.4975 7.24586 57.7213 7.73617 57.8462C8.22574 57.9811 8.7389 58.0071 9.23956 57.9224L60.8757 49.984C61.3521 49.9122 61.8105 49.7505 62.2267 49.5075C62.6607 49.2314 63.0358 48.8718 63.3303 48.4496C63.9216 47.6184 64.1734 46.5922 64.0344 45.5811Z" stroke="#0D0D0D" stroke-width="0.3" stroke-miterlimit="10"/>
    <path d="M76.1439 9.16309L71.9695 19.1583L61.9619 20.8289L66.1363 10.8148L76.1439 9.16309Z" fill="#8A8A8A" stroke="#0D0D0D" stroke-width="0.3" stroke-linecap="round" stroke-linejoin="round"/>
    <path d="M70.2728 0.829102L60.2275 2.49969L66.0982 10.8149L76.1435 9.16317L70.2728 0.829102Z" fill="white" stroke="#0D0D0D" stroke-width="0.3" stroke-linecap="round" stroke-linejoin="round"/>
    <path d="M61.9605 20.8298L56.0898 12.4957L60.2643 2.50049L66.1349 10.8157L61.9605 20.8298Z" fill="#E0E0E0" stroke="#0D0D0D" stroke-width="0.3" stroke-linecap="round" stroke-linejoin="round"/>
</svg>
