<svg width="26" height="26" viewBox="0 0 26 26" fill="none" xmlns="http://www.w3.org/2000/svg">
<path d="M6.85213 21.8687L5.71002 23.3402L10.8899 21.6099L12.032 20.1384L6.85213 21.8687Z" fill="#29B379" stroke="#0D0D0D" stroke-width="0.25" stroke-linecap="round" stroke-linejoin="round"/>
<path d="M5.43741 17.9312L6.57951 16.4597L6.85241 21.8738L5.7103 23.3452L5.43741 17.9312Z" fill="#29B379" stroke="#0D0D0D" stroke-width="0.25" stroke-linecap="round" stroke-linejoin="round"/>
<path d="M23.8226 18.9966L22.6805 20.4681L17.2984 20.595L18.4405 19.1235L23.8175 19.0017L23.8226 18.9966Z" fill="#29B379" stroke="#0D0D0D" stroke-width="0.25" stroke-linecap="round" stroke-linejoin="round"/>
<path d="M0.500061 15.7949L1.64217 14.3234L6.5795 16.4596L5.43739 17.9311L0.500061 15.7949Z" fill="#29B379" stroke="#0D0D0D" stroke-width="0.25" stroke-linecap="round" stroke-linejoin="round"/>
<path d="M2.17798 6.80364L3.32008 5.33215L5.21517 10.325L4.07306 11.7965L2.17798 6.80364Z" fill="#29B379" stroke="#0D0D0D" stroke-width="0.25" stroke-linecap="round" stroke-linejoin="round"/>
<path d="M20.5626 7.87439L20.2897 2.46034L15.1098 4.18553L11.2034 0.400269L8.6968 5.20542L3.31981 5.33227L5.2149 10.3252L1.64203 14.3235L6.57936 16.4597L6.85225 21.8738L12.0322 20.1435L15.9335 23.9288L18.4401 19.1236L23.8171 19.0018L21.927 14.0089L25.4999 10.0106L20.5575 7.87946L20.5626 7.87439Z" fill="#29E579" stroke="#0D0D0D" stroke-width="0.25" stroke-linecap="round" stroke-linejoin="round"/>
<path d="M19.365 8.61006L19.1376 4.1195L14.8421 5.55039L11.6078 2.41461L9.53078 6.39776L5.07354 6.50432L6.6452 10.6397L3.68381 13.9531L7.77719 15.7239L8.0046 20.2094L12.3001 18.7785C13.5635 20.0014 14.271 20.6914 15.5344 21.9143L17.6114 17.9311L22.0687 17.8297L20.5021 13.6892L23.4635 10.3758L19.3701 8.61006H19.365Z" fill="white" stroke="#0D0D0D" stroke-width="0.25" stroke-linejoin="round"/>
<path d="M11.0516 12.4816C11.3245 12.4106 11.5772 12.2837 11.7996 12.1112C12.128 11.8575 12.3757 11.5074 12.5071 11.1065C12.6384 10.7107 12.6486 10.2795 12.5323 9.8786C12.3807 9.33567 12.0219 8.87901 11.5368 8.605C11.0466 8.331 10.4755 8.25489 9.93479 8.40204H9.92468C9.52545 8.5086 9.16159 8.73693 8.8887 9.04645C8.61076 9.36104 8.43388 9.75175 8.37829 10.1627C8.3227 10.5788 8.39345 11 8.58549 11.3755C8.8129 11.8118 9.17676 12.1619 9.62652 12.3598C10.0763 12.5577 10.5816 12.5983 11.0567 12.4765L11.0516 12.4816ZM9.69222 10.8376C9.61136 10.6803 9.58104 10.5027 9.60125 10.3302C9.62147 10.1577 9.69727 9.99023 9.8135 9.8583C9.92974 9.72638 10.0763 9.63504 10.2481 9.58938C10.4705 9.52849 10.713 9.55893 10.9152 9.67564C11.0921 9.77712 11.2285 9.93441 11.3043 10.1272C11.3801 10.32 11.3852 10.5281 11.3195 10.726C11.2639 10.8883 11.1628 11.0355 11.0264 11.142C10.8849 11.2486 10.7181 11.3146 10.5412 11.3247C10.3643 11.3349 10.1925 11.2943 10.0359 11.208C9.88931 11.1217 9.76802 10.9898 9.69222 10.8376Z" fill="#29E579" stroke="#0D0D0D" stroke-width="0.25" stroke-linecap="round" stroke-linejoin="round"/>
<path d="M18.7331 13.4C18.5713 12.857 18.2125 12.3953 17.7173 12.1162C17.2271 11.8371 16.6459 11.761 16.1001 11.9031C15.6959 12.0097 15.332 12.238 15.0541 12.5526C14.7812 12.8672 14.6043 13.2579 14.5538 13.674C14.5032 14.09 14.579 14.5112 14.7711 14.8816C14.9631 15.2571 15.2613 15.5717 15.6302 15.7797C16.1254 16.0639 16.7116 16.14 17.2625 15.9928C17.5303 15.9218 17.788 15.8 18.0104 15.6275C18.3439 15.3738 18.5916 15.0237 18.7229 14.6279C18.8543 14.227 18.8594 13.8008 18.7432 13.3949H18.7381L18.7331 13.4ZM17.5253 14.2372C17.4697 14.4046 17.3686 14.5467 17.2271 14.6533C17.0856 14.7598 16.9188 14.8258 16.7419 14.8359C16.5651 14.8461 16.3882 14.8055 16.2366 14.7192C16.085 14.633 15.9586 14.501 15.8778 14.3387C15.7969 14.1814 15.7666 14.0038 15.7868 13.8313C15.807 13.6587 15.8778 13.4913 15.994 13.3644C16.1103 13.2325 16.2619 13.1412 16.4286 13.0955C16.656 13.0397 16.8986 13.0701 17.1058 13.1869C17.313 13.3036 17.4646 13.4964 17.5303 13.7247C17.5758 13.8921 17.5758 14.0748 17.5202 14.2423L17.5253 14.2372Z" fill="#29E579" stroke="#0D0D0D" stroke-width="0.25" stroke-linecap="round" stroke-linejoin="round"/>
<path d="M15.3525 7.7627L10.6375 16.003L11.719 16.617L16.434 8.37159L15.3525 7.75763V7.7627Z" fill="#29E579" stroke="#0D0D0D" stroke-width="0.25" stroke-linecap="round" stroke-linejoin="round"/>
<path d="M15.9387 23.9288L14.7966 25.4002L10.8952 21.615L12.0373 20.1435L15.9387 23.9288Z" fill="#29B379" stroke="#0D0D0D" stroke-width="0.25" stroke-linecap="round" stroke-linejoin="round"/>
<path d="M23.86 5.26027L25 4.90027L23.86 4.54027L23.5 3.40027L23.1415 4.54027L22 4.90027L23.1415 5.26027L23.5 6.40027L23.86 5.26027Z" fill="white"/>
<path d="M2.86 21.2603L4 20.9003L2.86 20.5403L2.5 19.4003L2.1415 20.5403L1 20.9003L2.1415 21.2603L2.5 22.4003L2.86 21.2603Z" fill="white"/>
</svg>
