<svg width="80" height="60" viewBox="0 0 80 60" fill="none" xmlns="http://www.w3.org/2000/svg">
<rect x="2" y="6" width="74" height="50" rx="5" fill="#D9D9D9"/>
<mask id="mask0_14144_3764" style="mask-type:alpha" maskUnits="userSpaceOnUse" x="2" y="6" width="74" height="50">
<rect x="2" y="6" width="74" height="50" rx="5" fill="#D9D9D9"/>
</mask>
<g mask="url(#mask0_14144_3764)">
<path d="M58.7399 15.5459L10.9846 17.2031L8.95312 19.8047L11.289 31.315L38.3756 27.0338L39.7185 33.5882L58.7399 15.5459Z" fill="black" stroke="black" stroke-width="0.3" stroke-linejoin="round"/>
<path d="M62.7344 51.0391L65.1562 47.9531L17.4506 49.3516L15.0312 52.469L36.3293 62.0001L34.9864 55.4268L62.7344 51.0391Z" fill="black" stroke="black" stroke-width="0.3" stroke-linejoin="round"/>
</g>
<path d="M14.847 12.252L11 17.1821L13.3391 28.705L17.1861 23.7749L14.847 12.252Z" fill="#8A8A8A" stroke="black" stroke-width="0.3" stroke-linecap="round" stroke-linejoin="round"/>
<path d="M44.858 19.4077L41.011 24.3378L13.3281 28.7072L17.1751 23.7771L44.858 19.4077Z" fill="#8A8A8A" stroke="black" stroke-width="0.3" stroke-linecap="round" stroke-linejoin="round"/>
<path d="M41.0816 1L37.2539 5.9301L38.6651 12.8322L42.5121 7.90214L41.0816 1Z" fill="#8A8A8A" stroke="black" stroke-width="0.3" stroke-linecap="round" stroke-linejoin="round"/>
<path d="M62.6393 10.5895L41.0845 1L42.5151 7.90215L14.8516 12.2522L17.1907 23.7751L44.8735 19.4057L46.2461 26.0952L62.6393 10.5895Z" fill="white" stroke="black" stroke-width="0.3" stroke-linecap="round" stroke-linejoin="round"/>
<path d="M46.243 26.0972L42.396 31.0273L41.0234 24.3378L44.8704 19.4077L46.243 26.0972Z" fill="#8A8A8A" stroke="black" stroke-width="0.3" stroke-linecap="round" stroke-linejoin="round"/>
<path d="M62.6269 10.5903L58.7799 15.5204L42.3867 31.0261L46.2337 26.096L62.6269 10.5903Z" fill="#8A8A8A" stroke="black" stroke-width="0.3" stroke-linecap="round" stroke-linejoin="round"/>
<path d="M68.9991 43.0327L66.6406 31.5484L39.0737 35.8599L37.6432 28.9771L21.25 44.4634L42.7854 54.0722L41.4129 47.3634L68.9991 43.0327Z" fill="#4FE3A3" stroke="black" stroke-width="0.3" stroke-linecap="round" stroke-linejoin="round"/>
<path d="M41.4102 47.3622L42.2801 51.5576L65.1494 47.9615L68.9963 43.0508L41.4102 47.3622Z" fill="#06C270" stroke="black" stroke-width="0.3" stroke-linecap="round" stroke-linejoin="round"/>
<path d="M21.2456 44.4609L17.418 49.391L38.9534 58.9999L42.781 54.0698L21.2456 44.4609Z" fill="#06C270" stroke="black" stroke-width="0.3" stroke-linecap="round" stroke-linejoin="round"/>
</svg>
