<svg width="20" height="20" viewBox="0 0 20 20" fill="none" xmlns="http://www.w3.org/2000/svg">
<path d="M11.8776 8.56367C13.948 8.56367 15.6263 6.87049 15.6263 4.78184C15.6263 2.69319 13.948 1 11.8776 1C9.80726 1 8.12891 2.69319 8.12891 4.78184C8.12891 6.87049 9.80726 8.56367 11.8776 8.56367Z" fill="#E5FE40" stroke="#0D0D0D" stroke-width="0.16" stroke-miterlimit="10"/>
<path d="M18.9992 15.0797C18.9753 15.7993 15.7955 16.3808 11.8785 16.3808C7.96149 16.3808 4.78042 15.7993 4.75781 15.0797C4.75781 15.0721 4.75781 15.0657 4.75781 15.0594C4.78293 12.1746 6.4934 9.69515 8.94482 8.5777C8.97747 8.5625 9.01012 8.54856 9.04403 8.53336C9.91182 8.15201 10.8713 7.94043 11.8785 7.94043C12.8857 7.94043 13.8451 8.15074 14.7129 8.53336C14.7456 8.5473 14.7782 8.56123 14.8122 8.5777C17.2636 9.69642 18.974 12.1758 18.9992 15.0594C18.9992 15.0657 18.9992 15.0721 18.9992 15.0797Z" fill="#E5FE40" stroke="#0D0D0D" stroke-width="0.16" stroke-miterlimit="10"/>
<path d="M18.9992 15.071V15.0798C18.9753 15.7995 15.7955 16.381 11.8785 16.381C7.96149 16.381 4.78042 15.7995 4.75781 15.0798V15.071C4.75781 15.071 4.75781 15.0621 4.75781 15.0596C4.79046 14.3425 7.96651 13.7622 11.8772 13.7622C15.788 13.7622 18.964 14.3425 18.9966 15.0596C18.9966 15.0634 18.9966 15.0684 18.9966 15.071H18.9992Z" fill="white" stroke="#0D0D0D" stroke-width="0.16" stroke-miterlimit="10"/>
<path d="M15.5619 13.9572C14.4869 13.8394 13.226 13.7697 11.8772 13.7697C7.96526 13.7697 4.79046 14.3474 4.75781 15.0594C4.76786 13.8698 5.06801 12.7511 5.5917 11.7692C5.9044 11.5601 6.23595 11.3764 6.58131 11.2206C6.61396 11.2054 6.64661 11.1914 6.67926 11.1762C7.04095 11.0191 7.41645 10.8899 7.80576 10.7949C7.44659 10.6099 7.12007 10.3692 6.83876 10.0829C6.17441 9.40505 5.765 8.47637 5.765 7.45015C5.765 5.82085 6.79983 4.43355 8.24531 3.9141C8.6409 3.77093 9.06789 3.69238 9.51372 3.69238C11.5846 3.69238 13.2624 5.37362 13.2624 7.45015C13.2624 7.67566 13.2423 7.89738 13.2047 8.11149C13.1883 8.20398 13.1682 8.29393 13.1456 8.38515C12.8769 9.43799 12.1661 10.3109 11.2217 10.7962C11.611 10.8924 11.9865 11.0191 12.3482 11.1775C12.3821 11.1927 12.4147 11.2066 12.4474 11.2218C13.7359 11.8059 14.8197 12.7637 15.5619 13.9585V13.9572Z" fill="#0D0D0D"/>
<path d="M8.11981 11.1838C10.1902 11.1838 11.8685 9.4906 11.8685 7.40195C11.8685 5.3133 10.1902 3.62012 8.11981 3.62012C6.04945 3.62012 4.37109 5.3133 4.37109 7.40195C4.37109 9.4906 6.04945 11.1838 8.11981 11.1838Z" fill="white" stroke="#0D0D0D" stroke-width="0.16" stroke-miterlimit="10"/>
<path d="M15.2413 17.6998C15.2175 18.4194 12.0377 19.0009 8.12067 19.0009C4.20368 19.0009 1.02386 18.4182 1 17.6998C1 17.6922 1 17.6859 1 17.6795C1.02512 14.7947 2.73559 12.3153 5.18701 11.1978C5.21966 11.1826 5.25231 11.1687 5.28622 11.1535C6.15401 10.7721 7.11348 10.5605 8.12067 10.5605C9.12787 10.5605 10.0873 10.7709 10.9551 11.1535C10.9878 11.1674 11.0204 11.1814 11.0543 11.1978C13.5058 12.3165 15.2162 14.7959 15.2413 17.6795C15.2413 17.6859 15.2413 17.6922 15.2413 17.6998Z" fill="white" stroke="#0D0D0D" stroke-width="0.16" stroke-miterlimit="10"/>
<path d="M15.2413 17.6911V17.6999C15.2175 18.4196 12.0377 19.0011 8.12067 19.0011C4.20368 19.0011 1.02386 18.4183 1 17.6999V17.6911C1 17.6911 1 17.6822 1 17.6797C1.03265 16.9626 4.2087 16.3823 8.11942 16.3823C12.0301 16.3823 15.2062 16.9626 15.2388 17.6797C15.2388 17.6835 15.2388 17.6885 15.2388 17.6911H15.2413Z" fill="white" stroke="#0D0D0D" stroke-width="0.16" stroke-miterlimit="10"/>
</svg>
