<svg width="371" height="158" viewBox="0 0 371 158" fill="none" xmlns="http://www.w3.org/2000/svg">
<mask id="mask0_365_1095" style="mask-type:alpha" maskUnits="userSpaceOnUse" x="0" y="0" width="371" height="158">
<path fill-rule="evenodd" clip-rule="evenodd" d="M0 0H371V158H0V131.03V0Z" fill="#FBFBFB"/>
</mask>
<g mask="url(#mask0_365_1095)">
<path d="M189 150L371 62L371 -1.49998L-0.500188 -1.49994L-0.499976 62L189 150Z" fill="#5A8FFF"/>
</g>
<g clip-path="url(#clip0_365_1095)">
<path d="M195.639 95.3493C205.696 100.253 218.653 101.12 218.653 101.12V126.549C218.647 130.737 217.634 134.861 215.702 138.569C213.769 142.277 210.974 145.459 207.555 147.842L195.569 156.225L187.551 157.623L190.256 152.509L183.583 147.814C180.203 145.41 177.446 142.221 175.548 138.517C173.65 134.813 172.666 130.703 172.68 126.535V101.12C172.68 101.12 185.581 100.253 195.639 95.3493Z" fill="#0037FF" stroke="black" stroke-width="0.5" stroke-linecap="round" stroke-linejoin="round"/>
<path d="M210.635 102.517L218.653 101.12C218.653 101.12 205.003 100.212 195.639 95.3633L187.62 96.7605C187.62 96.7605 195.167 101.246 210.635 102.517Z" fill="#0F69FF" stroke="black" stroke-width="0.5" stroke-linecap="round" stroke-linejoin="round"/>
<path d="M172.68 101.12L164.648 102.517C168.534 102.769 172.428 102.153 176.051 100.715L172.68 101.12Z" fill="#0F69FF" stroke="black" stroke-width="0.5" stroke-linecap="round" stroke-linejoin="round"/>
<path d="M187.62 96.7465C197.65 101.651 210.635 102.517 210.635 102.517V127.946C210.628 132.134 209.616 136.258 207.683 139.966C205.751 143.674 202.955 146.856 199.537 149.239L187.551 157.623L175.565 149.239C172.145 146.857 169.348 143.676 167.415 139.968C165.483 136.259 164.471 132.134 164.467 127.946V102.517C164.467 102.517 177.563 101.651 187.62 96.7465Z" fill="#5A8FFF" stroke="black" stroke-width="0.5" stroke-linecap="round" stroke-linejoin="round"/>
<path d="M164.592 117.747V103.369" stroke="black" stroke-width="0.43" stroke-linecap="round" stroke-linejoin="round"/>
<path d="M164.592 103.369V117.747L195.528 152.09L199.606 149.295C201.928 147.668 203.963 145.661 205.627 143.357L167.921 102.517L164.592 103.369Z" fill="white" stroke="black" stroke-width="0.5" stroke-linecap="round" stroke-linejoin="round"/>
<path d="M187.62 103.467C195.458 107.281 205.557 107.952 205.557 107.952V127.764C205.571 131.037 204.796 134.263 203.297 137.167C201.799 140.07 199.623 142.564 196.956 144.433L187.62 150.986L178.228 144.433C175.576 142.567 173.41 140.084 171.915 137.194C170.419 134.304 169.64 131.093 169.641 127.834V107.952C169.641 107.952 179.782 107.281 187.62 103.467Z" fill="white" stroke="black" stroke-width="0.5" stroke-miterlimit="10"/>
<path d="M196.069 118.333L184.069 127.625L179.838 122.735L175.759 125.906L183.375 134.653L199.357 122.301L196.069 118.333Z" fill="#0F69FF" stroke="black" stroke-width="0.5" stroke-linecap="round" stroke-linejoin="round"/>
<path d="M175.87 97.8224L176.092 98.0879C174.062 99.8002 172.79 102.255 172.556 104.911C172.322 107.568 173.145 110.21 174.844 112.255L174.58 112.465C173.739 111.454 172.707 110.62 171.546 110.01C170.384 109.4 169.114 109.027 167.809 108.912C166.504 108.796 165.19 108.941 163.94 109.337C162.691 109.733 161.531 110.374 160.527 111.222L160.305 110.956C162.337 109.246 163.612 106.794 163.851 104.138C164.09 101.482 163.274 98.8392 161.582 96.7885L161.831 96.5789C163.535 98.6102 165.967 99.881 168.596 100.114C171.226 100.347 173.841 99.5231 175.87 97.8224V97.8224Z" fill="white" stroke="black" stroke-width="0.43" stroke-linecap="round" stroke-linejoin="round"/>
</g>
<defs>
<clipPath id="clip0_365_1095">
<rect width="59" height="63" fill="white" transform="matrix(-1 0 0 1 219 95)"/>
</clipPath>
</defs>
</svg>
