<svg width="130" height="130" viewBox="0 0 130 130" fill="none" xmlns="http://www.w3.org/2000/svg">
<path d="M112.11 81.133L105.757 86.3365L30.3838 97.3138L54.2379 24.298L60.5902 19.0945L112.11 81.133Z" fill="white" stroke="#0D0D0D" stroke-width="0.670103" stroke-linecap="round" stroke-linejoin="round"/>
<path d="M60.5886 19.0945L36.7227 92.1222L112.096 81.1449L60.5886 19.0945Z" fill="white" stroke="#0D0D0D" stroke-width="0.670103" stroke-linecap="round" stroke-linejoin="round"/>
<path d="M93.2279 58.4062L84.2158 85.1961" stroke="#0D0D0D" stroke-width="0.670103" stroke-linecap="round" stroke-linejoin="round"/>
<path d="M66.3721 87.7979L81.1666 43.8411" stroke="#0D0D0D" stroke-width="0.670103" stroke-linecap="round" stroke-linejoin="round"/>
<path d="M69.0845 44.3994L63.207 45.4805L67.0541 66.2828L72.9315 65.2017L69.0845 44.3994Z" fill="#0D0D0D"/>
<path d="M73.9399 68.6829L68.0625 69.764L69.2261 76.0842L75.1035 75.0031L73.9399 68.6829Z" fill="white" stroke="#0D0D0D" stroke-width="0.670103" stroke-linecap="round" stroke-linejoin="round"/>
<path d="M72.7181 68.9087L70.3671 75.8705L69.2272 76.0843L68.0518 69.7759L72.7062 68.9087H72.7181Z" fill="#0D0D0D"/>
<path d="M64.9935 1.27441C56.7057 1.27441 48.786 2.85448 41.5312 5.7295L43.5616 9.151C50.2227 6.58487 57.4419 5.17113 64.9935 5.17113C84.5612 5.17113 101.956 14.604 112.88 29.181L116.264 27.1495C104.663 11.4558 86.0098 1.27441 64.9935 1.27441Z" fill="#0D0D0D"/>
<path opacity="0.1" d="M65 128.725C100.193 128.725 128.726 100.201 128.726 64.9999C128.726 29.7988 100.193 1.27441 65 1.27441C29.8067 1.27441 1.27441 29.8107 1.27441 64.9999C1.27441 100.189 29.8067 128.725 65 128.725V128.725Z" stroke="white" stroke-width="0.670103" stroke-miterlimit="10" stroke-linecap="round" stroke-linejoin="round"/>
<path opacity="0.4" d="M87.8969 120.267C118.424 107.626 132.91 72.6269 120.276 42.1066C107.619 11.5863 72.6275 -2.90758 42.1123 9.73297C11.5853 22.3735 -2.9005 57.3727 9.73301 87.8929C22.3784 118.413 57.3699 132.907 87.8851 120.267H87.8969Z" stroke="white" stroke-width="0.670103" stroke-miterlimit="10" stroke-linecap="round" stroke-linejoin="round"/>
<path d="M36.7225 92.1106L30.3701 97.3141" stroke="#0D0D0D" stroke-width="0.670103" stroke-linecap="round" stroke-linejoin="round"/>
</svg>
