<svg width="80" height="60" viewBox="0 0 80 60" fill="none" xmlns="http://www.w3.org/2000/svg">
<path d="M76 4H4C2.94085 4.00446 1.92669 4.42847 1.17999 5.17905C0.805657 5.55087 0.508675 5.99304 0.306154 6.48007C0.103632 6.96711 -0.000416983 7.48938 1.25588e-06 8.01678V49.9832C-0.000416983 50.5106 0.103632 51.0329 0.306154 51.5199C0.508675 52.007 0.805657 52.4491 1.17999 52.8209C1.92669 53.5715 2.94085 53.9955 4 54H76C76.5261 53.9991 77.047 53.8945 77.5326 53.6922C78.0182 53.4898 78.459 53.1938 78.8299 52.8209C79.2025 52.4483 79.4977 52.0058 79.6985 51.5188C79.8993 51.0318 80.0017 50.5099 80 49.9832V8.01678C80.0017 7.49007 79.8993 6.96823 79.6985 6.48123C79.4977 5.99423 79.2025 5.55169 78.8299 5.17905C78.459 4.8062 78.0182 4.51015 77.5326 4.30783C77.047 4.10551 76.5261 4.0009 76 4Z" fill="#3CBF77"/>
<path d="M6.57875 11C6.17466 11.0609 5.78649 11.2001 5.43611 11.41C5.08574 11.6281 4.78245 11.9136 4.54399 12.25C4.30975 12.5836 4.14601 12.9612 4.06282 13.36C3.97906 13.7624 3.97906 14.1776 4.06282 14.58L11.9113 54H63.6329L71.4112 52.82C71.8203 52.7605 72.2127 52.6176 72.5639 52.4C72.9186 52.1875 73.2229 51.9009 73.4561 51.56C73.6911 51.2195 73.8547 50.8351 73.9372 50.43C74.0209 50.0276 74.0209 49.6124 73.9372 49.21L64.7556 5.20999C64.6645 4.76887 64.4724 4.35475 64.1943 4H53.5693L6.57875 11Z" fill="#0D0D0D"/>
<path d="M75.9001 47.3967L66.74 3.3967C66.5867 2.64328 66.15 1.97745 65.52 1.53669C64.885 1.09525 64.1039 0.91612 63.34 1.03669L8.73001 9.19669C8.32687 9.25756 7.93962 9.39686 7.59005 9.6067C7.24081 9.82098 6.93814 10.1032 6.70004 10.4367C6.46729 10.7745 6.30413 11.1552 6.22006 11.5567C6.13498 11.9555 6.13498 12.3679 6.22006 12.7667L14.99 56.9467C15.1386 57.7127 15.5798 58.3906 16.22 58.8367C16.8563 59.2842 17.6416 59.467 18.4101 59.3467L73.4101 51.0167C73.8182 50.9572 74.2097 50.8143 74.5601 50.5967C74.9095 50.3784 75.2119 50.0929 75.45 49.7567C75.6862 49.4171 75.8497 49.0324 75.9301 48.6267C76.0052 48.219 75.9949 47.8002 75.9001 47.3967Z" fill="white" stroke="#0D0D0D" stroke-width="0.3" stroke-linecap="round" stroke-linejoin="round"/>
<path d="M70.6799 41.947L63.0199 5.12695L10.3799 12.9969L14.2198 32.407L18.7699 55.257L57.3799 49.397L70.7899 47.397C71.0414 47.346 71.2637 47.2002 71.4108 46.9899C71.5578 46.7795 71.6183 46.5207 71.5798 46.267L70.6799 41.947Z" fill="#273E37" stroke="#0D0D0D" stroke-width="0.3" stroke-linecap="round" stroke-linejoin="round"/>
<path d="M52.8208 11.0744C51.664 11.2629 50.5915 11.7974 49.7445 12.6073C48.9056 13.4231 48.3365 14.4759 48.1136 15.6245C47.8846 16.7916 48.0034 18.0003 48.4554 19.1005C48.9189 20.2122 49.6875 21.1701 50.6723 21.8637C51.654 22.5535 52.8134 22.9467 54.0123 22.9964C55.1874 23.0378 56.3477 22.7248 57.3424 22.0981C58.3281 21.4759 59.0987 20.5658 59.5496 19.491C60.0006 18.3973 60.1161 17.1941 59.8816 16.0345C59.5635 14.4518 58.647 13.0528 57.3229 12.1289C56.0168 11.2045 54.4016 10.8262 52.8208 11.0744Z" fill="white" stroke="#0D0D0D" stroke-width="0.3" stroke-linecap="round" stroke-linejoin="round"/>
<path d="M57.3802 49.3967L18.7302 55.2567L14.1802 32.4067L19.6902 24.8667L41.5102 39.0667V39.0767L41.5402 39.0867L57.3802 49.3967Z" fill="white" stroke="#0D0D0D" stroke-width="0.3" stroke-linecap="round" stroke-linejoin="round"/>
<path d="M70.6798 41.9467L49.5697 28.1768L41.5098 39.0667L57.3798 49.3968L70.8798 47.3968C70.9925 47.3786 71.1005 47.3382 71.1974 47.2779C71.2943 47.2176 71.3782 47.1386 71.4443 47.0455C71.5104 46.9525 71.5573 46.8472 71.5823 46.7358C71.6072 46.6244 71.6098 46.5091 71.5897 46.3968L70.6798 41.9467Z" fill="white" stroke="#0D0D0D" stroke-width="0.3" stroke-linecap="round" stroke-linejoin="round"/>
<path d="M71.6398 26.9269C70.5049 26.0581 69.2345 25.3823 67.8798 24.9269C64.6889 23.8836 61.2188 24.1092 58.1898 25.5569C56.7515 26.2911 55.4786 27.3121 54.4497 28.5569C53.4169 29.8047 52.6511 31.2512 52.1997 32.8069C51.743 34.3565 51.607 35.9829 51.7998 37.5869C51.9987 39.1941 52.519 40.7449 53.3297 42.1469C54.9275 45.0956 57.5932 47.3211 60.7798 48.3669C63.9695 49.406 67.4356 49.1878 70.4697 47.7569C71.9136 47.0223 73.1929 46.0016 74.2298 44.7569C74.5433 44.364 74.8338 43.9533 75.0998 43.5269L71.6398 26.9269Z" fill="#0D0D0D" stroke="#0D0D0D" stroke-width="0.3" stroke-linecap="round" stroke-linejoin="round"/>
<path d="M76.6169 28.8968C75.0205 25.9461 72.352 23.721 69.1625 22.6808C65.973 21.6406 62.5059 21.8646 59.4768 23.3068C58.0374 24.0447 56.7633 25.0682 55.7323 26.3147C54.7014 27.5612 53.9351 29.0047 53.4804 30.557C53.0256 32.1094 52.8918 33.7381 53.0872 35.3439C53.2826 36.9497 53.8031 38.4988 54.6169 39.8968C56.2117 42.8492 58.8787 45.077 62.0678 46.1209C65.2569 47.1647 68.725 46.9449 71.7569 45.5068C73.2001 44.7701 74.4777 43.7464 75.5113 42.4985C76.5449 41.2506 77.3127 39.8047 77.7677 38.2495C78.2228 36.6944 78.3554 35.0627 78.1575 33.4544C77.9596 31.8462 77.4353 30.2953 76.6169 28.8968Z" fill="#FFEB34" stroke="#0D0D0D" stroke-width="0.3" stroke-linecap="round" stroke-linejoin="round"/>
<path d="M65.9471 41.7368C64.5583 41.7386 63.1943 41.3685 61.9968 40.6652C60.7992 39.9618 59.8119 38.9507 59.1371 37.7368C58.6531 36.8801 58.3485 35.9338 58.2419 34.9556C58.1353 33.9773 58.2289 32.9877 58.5171 32.0468C58.7903 31.1491 59.2443 30.3168 59.8514 29.6013C60.4585 28.8858 61.2058 28.3023 62.0471 27.8868C63.0541 27.3764 64.168 27.1125 65.2971 27.1168C66.6857 27.116 68.0493 27.4865 69.2466 28.1897C70.444 28.893 71.4315 29.9036 72.1071 31.1168C72.5937 31.978 72.8996 32.9295 73.0062 33.913C73.1128 34.8964 73.0178 35.8912 72.7271 36.8368C72.4501 37.7328 71.9932 38.5629 71.3846 39.2764C70.7759 39.99 70.0282 40.572 69.1871 40.9868C68.1808 41.4873 67.0709 41.7442 65.9471 41.7368ZM60.7171 32.5568V32.6868C60.5093 33.3476 60.4412 34.0444 60.5169 34.733C60.5926 35.4216 60.8106 36.0869 61.157 36.6868C61.6312 37.5511 62.3285 38.2723 63.1763 38.7754C64.0241 39.2784 64.9913 39.5449 65.9771 39.5468C66.7608 39.553 67.5349 39.3748 68.2371 39.0268C68.631 38.8212 68.9944 38.5621 69.3171 38.2568L69.5571 38.0368L60.8771 32.2968L60.7171 32.5568ZM65.3171 29.3368C64.5326 29.3337 63.7584 29.5152 63.0571 29.8668C62.8657 29.9703 62.682 30.0873 62.5071 30.2168L62.2071 30.4268L62.4771 30.6468L70.6071 36.0268L70.6771 35.6568C70.92 34.4761 70.7283 33.2473 70.1371 32.1968C69.6606 31.3345 68.9627 30.615 68.1154 30.1123C67.2682 29.6096 66.3022 29.3419 65.3171 29.3368Z" fill="#0D0D0D"/>
</svg>
