<svg width="80" height="60" viewBox="0 0 80 60" fill="none" xmlns="http://www.w3.org/2000/svg">
<path d="M69.2387 6H6.76128C5.49851 6 4.28736 6.50572 3.39444 7.40589C2.50153 8.30607 2 9.52696 2 10.8V49.2C2 50.473 2.50153 51.6939 3.39444 52.5941C4.28736 53.4943 5.49851 54 6.76128 54H69.2387C70.5015 54 71.7126 53.4943 72.6056 52.5941C73.4985 51.6939 74 50.473 74 49.2V10.8C74 9.52696 73.4985 8.30607 72.6056 7.40589C71.7126 6.50572 70.5015 6 69.2387 6Z" fill="#D2D2D2"/>
<mask id="mask0_2455_10759" style="mask-type:alpha" maskUnits="userSpaceOnUse" x="2" y="6" width="72" height="48">
<path d="M69.2387 6H6.76128C5.49851 6 4.28736 6.50572 3.39444 7.40589C2.50153 8.30607 2 9.52696 2 10.8V49.2C2 50.473 2.50153 51.6939 3.39444 52.5941C4.28736 53.4943 5.49851 54 6.76128 54H69.2387C70.5015 54 71.7126 53.4943 72.6056 52.5941C73.4985 51.6939 74 50.473 74 49.2V10.8C74 9.52696 73.4985 8.30607 72.6056 7.40589C71.7126 6.50572 70.5015 6 69.2387 6Z" fill="#D2D2D2"/>
</mask>
<g mask="url(#mask0_2455_10759)">
<path d="M63.0341 48.7115C62.918 48.0491 62.644 47.4247 62.235 46.8913L29.4285 5.40735C29.0086 4.89047 28.4606 4.49288 27.8394 4.25422C27.2332 4.02349 26.5791 3.94815 25.9365 4.03503C25.2799 4.14198 24.6612 4.41415 24.1383 4.82602C23.6201 5.24279 23.2199 5.78821 22.9775 6.408L4.13844 55.8399C3.89117 56.4695 3.81566 57.1537 3.91963 57.8221C4.07437 58.8104 4.59814 59.7028 5.38492 60.319C5.78596 60.6279 6.24561 60.8517 6.73593 60.9766C7.22549 61.1114 7.73866 61.1375 8.23932 61.0528L59.8754 53.1143C60.3518 53.0426 60.8102 52.8809 61.2264 52.6378C61.6605 52.3617 62.0355 52.0022 62.33 51.58C62.9213 50.7487 63.1732 49.7226 63.0341 48.7115Z" fill="#0D0D0D" stroke="#0D0D0D" stroke-width="0.3" stroke-miterlimit="10"/>
<path d="M76.0539 11.7625L71.8795 21.7577L61.8719 23.4283L66.0464 13.4142L76.0539 11.7625Z" fill="#0D0D0D"/>
<path d="M70.1831 3.42822L60.1378 5.09881L66.0085 13.414L76.0539 11.7625L70.1831 3.42822Z" fill="#0D0D0D"/>
<path d="M61.8706 23.4288L56 15.0947L60.1744 5.09949L66.045 13.4147L61.8706 23.4288Z" fill="#0D0D0D"/>
<path d="M76.0539 11.7625L71.8795 21.7577L61.8719 23.4283L66.0464 13.4142L76.0539 11.7625ZM76.0539 11.7625L66.0085 13.414L60.1378 5.09881L70.1831 3.42822L76.0539 11.7625ZM61.8706 23.4288L56 15.0947L60.1744 5.09949L66.045 13.4147L61.8706 23.4288Z" stroke="#0D0D0D" stroke-width="0.3" stroke-linecap="round" stroke-linejoin="round"/>
</g>
<path d="M66.0341 46.1807C65.918 45.5184 65.644 44.8939 65.235 44.3605L32.4285 2.87659C32.0086 2.35971 31.4606 1.96212 30.8394 1.72345C30.2332 1.49273 29.5791 1.41739 28.9365 1.50427C28.2799 1.61122 27.6612 1.88339 27.1383 2.29526C26.6201 2.71203 26.2199 3.25744 25.9775 3.87723L7.13844 53.3091C6.89117 53.9387 6.81566 54.6229 6.91963 55.2914C7.07437 56.2796 7.59814 57.1721 8.38492 57.7882C8.78596 58.0971 9.24561 58.3209 9.73593 58.4458C10.2255 58.5807 10.7387 58.6067 11.2393 58.522L62.8754 50.5836C63.3518 50.5118 63.8102 50.3501 64.2264 50.1071C64.6605 49.831 65.0355 49.4714 65.33 49.0492C65.9213 48.218 66.1732 47.1918 66.0341 46.1807Z" fill="#FFEB34" stroke="#0D0D0D" stroke-width="0.3" stroke-miterlimit="10"/>
<path d="M27.3378 56.054L51.5811 27.0924L44.7401 18.4392L11.22 58.5222L27.3378 56.054Z" fill="white"/>
<path d="M33.2171 45.6669H33.0649L32.9888 45.5431L32.2371 40.6542V40.5017L32.3704 40.4255L37.1849 39.6821H37.3275L37.4132 39.8155L38.1554 44.7044V44.8474L38.0221 44.9236L33.2171 45.6669Z" fill="#0D0D0D" stroke="#0D0D0D" stroke-width="0.3" stroke-linecap="round" stroke-linejoin="round"/>
<path d="M31.9816 37.6328H31.8292L31.7532 37.4994L29.2222 21.0602V20.9077L29.3555 20.8315L34.1697 20.0881H34.3126L34.3886 20.2216L36.9196 36.6703V36.8132L36.7958 36.8895L31.9816 37.6328Z" fill="#0D0D0D" stroke="#0D0D0D" stroke-width="0.3" stroke-linecap="round" stroke-linejoin="round"/>
<path d="M66.0341 46.1807C65.918 45.5184 65.644 44.8939 65.235 44.3605L32.4285 2.87659C32.0086 2.35971 31.4606 1.96212 30.8394 1.72345C30.2332 1.49273 29.5791 1.41739 28.9365 1.50427C28.2799 1.61122 27.6612 1.88339 27.1383 2.29526C26.6201 2.71203 26.2199 3.25744 25.9775 3.87723L7.13844 53.3091C6.89117 53.9387 6.81566 54.6229 6.91963 55.2914C7.07437 56.2796 7.59814 57.1721 8.38492 57.7882C8.78596 58.0971 9.24561 58.3209 9.73593 58.4458C10.2255 58.5807 10.7387 58.6067 11.2393 58.522L62.8754 50.5836C63.3518 50.5118 63.8102 50.3501 64.2264 50.1071C64.6605 49.831 65.0355 49.4714 65.33 49.0492C65.9213 48.218 66.1732 47.1918 66.0341 46.1807Z" stroke="#0D0D0D" stroke-width="0.3" stroke-miterlimit="10"/>
<path d="M78.1436 9.7627L73.9692 19.7579L63.9617 21.4285L68.1361 11.4144L78.1436 9.7627Z" fill="#8A8A8A" stroke="#0D0D0D" stroke-width="0.3" stroke-linecap="round" stroke-linejoin="round"/>
<path d="M72.2731 1.42822L62.2278 3.09881L68.0984 11.414L78.1437 9.76229L72.2731 1.42822Z" fill="white" stroke="#0D0D0D" stroke-width="0.3" stroke-linecap="round" stroke-linejoin="round"/>
<path d="M63.9605 21.4289L58.0898 13.0948L62.2643 3.09961L68.1349 11.4148L63.9605 21.4289Z" fill="#E0E0E0" stroke="#0D0D0D" stroke-width="0.3" stroke-linecap="round" stroke-linejoin="round"/>
</svg>
