<svg width="40" height="40" viewBox="0 0 40 40" fill="none" xmlns="http://www.w3.org/2000/svg">
<circle opacity="0.6" cx="20" cy="20" r="20" fill="#0D0D0D" fill-opacity="0.1"/>
<path d="M20 19C21.1046 19 22 18.1046 22 17C22 15.8954 21.1046 15 20 15C18.8954 15 18 15.8954 18 17C18 18.1046 18.8954 19 20 19Z" stroke="#0D0D0D" stroke-linecap="square"/>
<path d="M20 24C22.2091 24 24 23.3284 24 22.5C24 21.6716 22.2091 21 20 21C17.7909 21 16 21.6716 16 22.5C16 23.3284 17.7909 24 20 24Z" stroke="#0D0D0D" stroke-linecap="square"/>
<path d="M12 12C12 11.4477 12.4477 11 13 11H27C27.5523 11 28 11.4477 28 12V27C28 27.5523 27.5523 28 27 28H13C12.4477 28 12 27.5523 12 27V12Z" stroke="#0D0D0D" stroke-linecap="square"/>
<path d="M27 14H29" stroke="#0D0D0D" stroke-linecap="square"/>
<path d="M27 19H29" stroke="#0D0D0D" stroke-linecap="square"/>
<path d="M27 24H29" stroke="#0D0D0D" stroke-linecap="square"/>
</svg>
