<svg width="25" height="25" viewBox="0 0 25 25" fill="none" xmlns="http://www.w3.org/2000/svg">
<g clip-path="url(#clip0_3106_18347)">
<path d="M24.7647 9.94226C24.4633 8.44634 23.8743 7.02034 23.0294 5.74034C21.755 3.75249 19.9225 2.16785 17.7521 1.17682C15.5816 0.185801 13.1655 -0.169436 10.7941 0.1538C7.94248 0.567294 5.36232 2.04086 3.58822 4.26918L2.25487 5.99995C1.28951 7.29585 0.610435 8.77502 0.260995 10.3429C-0.0884453 11.9108 -0.100543 13.533 0.225481 15.1057C0.81005 18.1932 2.595 20.9371 5.20353 22.7581C7.81205 24.5791 11.04 25.3347 14.2059 24.8653C17.1211 24.4336 19.7472 22.8972 21.5196 20.5865L23.1078 18.4903L23.1863 18.3653C24.8102 15.8662 25.3764 12.8444 24.7647 9.94226V9.94226Z" fill="#0D0D0D"/>
<path d="M4.35296 4.7981L3.01964 6.51925C2.1304 7.71042 1.50524 9.07098 1.18443 10.5134C0.863614 11.9558 0.85422 13.4481 1.15687 14.8943C1.72735 17.7351 3.38275 20.255 5.78457 21.9386C8.18638 23.6222 11.1532 24.3424 14.0784 23.9519C16.7536 23.5615 19.1654 22.1561 20.7942 20.0385L22.3824 17.9327L4.35296 4.7981Z" fill="#D75304" stroke="black" stroke-width="0.15" stroke-linecap="round" stroke-linejoin="round"/>
<path d="M22.3627 17.9327C21.5667 19.1285 20.522 20.1459 19.2971 20.9181C18.0721 21.6903 16.6946 22.1999 15.2549 22.4134C12.3282 22.8036 9.36019 22.0821 6.95813 20.3965C4.55607 18.7109 2.90161 16.1887 2.33331 13.3461C2.14235 12.3968 2.07972 11.4269 2.14703 10.4615C2.28922 8.4 3.05751 6.42747 4.35291 4.79803C5.98233 2.75999 8.34799 1.41401 10.9607 1.03842C13.8861 0.67471 16.8435 1.40908 19.24 3.09428C21.6364 4.77947 23.2947 7.29089 23.8823 10.125C24.4439 12.8222 23.8979 15.6279 22.3627 17.9327V17.9327Z" fill="#FFBE00" stroke="black" stroke-width="0.15" stroke-linecap="round" stroke-linejoin="round"/>
<path d="M22.2451 6.23077C22.1298 7.99833 21.5524 9.70701 20.5686 11.1923C19.7717 12.3864 18.7266 13.402 17.5017 14.1725C16.2768 14.943 14.8998 15.4511 13.4608 15.6635C11.2676 15.9718 9.03023 15.6478 7.02141 14.731C5.01259 13.8142 3.31904 12.3442 2.14709 10.5C2.28156 8.42516 3.05026 6.43818 4.35298 4.79808C5.9824 2.76003 8.34806 1.41405 10.9608 1.03846C13.1512 0.753504 15.379 1.09132 17.3793 2.01175C19.3797 2.93218 21.0685 4.39653 22.2451 6.23077V6.23077Z" fill="#FFDF0D"/>
<path d="M5.84314 19.4808C6.93445 20.4938 8.22012 21.284 9.62543 21.8056C11.0308 22.3272 12.5277 22.5698 14.0294 22.5192L20.3823 4.00001C18.175 1.95526 15.2312 0.852234 12.1961 0.932702L5.84314 19.4808Z" fill="white"/>
<path d="M13.5784 19.7789C11.5628 19.7441 9.6201 19.0334 8.07361 17.765C6.52712 16.4967 5.47007 14.7472 5.0784 12.8077C4.85816 11.7778 4.85411 10.7146 5.06649 9.68306C5.27887 8.65151 5.70323 7.67319 6.3137 6.80774C6.89553 5.9887 7.64332 5.29614 8.51037 4.77334C9.37742 4.25054 10.3451 3.90873 11.3529 3.76928C11.7489 3.71144 12.1487 3.68252 12.549 3.68274C14.5741 3.71992 16.5261 4.43107 18.0849 5.69952C19.6436 6.96796 20.7165 8.71835 21.1274 10.6635C21.3457 11.681 21.3514 12.7313 21.1441 13.751C20.9368 14.7707 20.5209 15.7386 19.9215 16.5962C19.335 17.4237 18.5818 18.1245 17.7083 18.6554C16.8349 19.1862 15.8597 19.5359 14.8431 19.6827C14.425 19.7491 14.0019 19.7813 13.5784 19.7789V19.7789Z" stroke="black" stroke-width="0.15" stroke-linecap="round" stroke-linejoin="round"/>
<path fill-rule="evenodd" clip-rule="evenodd" d="M9.85288 13.7981C9.72635 13.3159 9.70331 12.8132 9.7852 12.3217C9.8671 11.8303 10.0522 11.361 10.3287 10.9434C10.6051 10.5258 10.9671 10.169 11.3914 9.89574C11.8158 9.62246 12.2934 9.43859 12.7941 9.35579C13.4271 9.25383 14.0763 9.31352 14.679 9.52909C15.2817 9.74466 15.8177 10.1088 16.2352 10.5866L15.1568 11.5481C14.9092 11.2514 14.5844 11.0259 14.2168 10.8956C13.8491 10.7652 13.4524 10.7349 13.0686 10.8077C12.7511 10.8548 12.4477 10.9683 12.179 11.1407C11.9103 11.3131 11.6826 11.5402 11.5114 11.8066C11.3402 12.0731 11.2296 12.3725 11.187 12.6846C11.1445 12.9968 11.1709 13.3142 11.2646 13.6154C11.3034 13.9342 11.4084 14.2419 11.5733 14.5193C11.7381 14.7966 11.9593 15.0379 12.2231 15.2281C12.4868 15.4183 12.7876 15.5533 13.1067 15.6249C13.4258 15.6965 13.7565 15.7031 14.0784 15.6442C14.4583 15.6027 14.8175 15.4531 15.1119 15.214C15.4063 14.9748 15.6229 14.6564 15.7352 14.2981L17.1078 14.8269C16.9021 15.4104 16.5375 15.9276 16.0537 16.3225C15.5698 16.7174 14.9851 16.9749 14.3627 17.0673C13.847 17.149 13.3198 17.1288 12.8121 17.0079C12.3045 16.8871 11.8265 16.6679 11.4064 16.3634C10.9863 16.0588 10.6325 15.675 10.3657 15.2345C10.0989 14.794 9.92456 14.3056 9.85288 13.7981V13.7981Z" fill="#EF6817" stroke="black" stroke-width="0.15" stroke-linecap="round" stroke-linejoin="round"/>
<path fill-rule="evenodd" clip-rule="evenodd" d="M14.8333 7.94232L9.13721 8.90386L9.5784 7.17309L15.2843 6.21155L14.8333 7.94232Z" fill="#EF6817" stroke="black" stroke-width="0.15" stroke-linecap="round" stroke-linejoin="round"/>
<path d="M23.8529 10.125C24.4221 12.8185 23.8867 15.6235 22.3627 17.9327C21.5667 19.1286 20.522 20.146 19.2971 20.9182C18.0721 21.6904 16.6946 22.2 15.2549 22.4135C12.3367 22.7926 9.38109 22.0655 6.99084 20.3806C4.60059 18.6956 2.95584 16.1798 2.39211 13.3462C2.07074 11.867 2.07959 10.3371 2.41805 8.86156C2.75651 7.38603 3.41657 5.99982 4.3529 4.79812C5.97522 2.75686 8.33933 1.40976 10.9509 1.0385C13.875 0.66836 16.8334 1.40059 19.2283 3.08725C21.6232 4.77391 23.2761 7.28925 23.8529 10.125V10.125Z" stroke="black" stroke-width="0.15" stroke-linecap="round" stroke-linejoin="round"/>
</g>
<defs>
<clipPath id="clip0_3106_18347">
<rect width="25" height="25" fill="white"/>
</clipPath>
</defs>
</svg>
