<svg width="32" height="38" viewBox="0 0 32 38" fill="none" xmlns="http://www.w3.org/2000/svg">
<path d="M15.9983 24.813C15.8608 24.8135 15.7256 24.7782 15.6062 24.7108L5.41515 19.0117C5.29184 18.9426 5.18926 18.8422 5.11795 18.7207C5.04664 18.5993 5.00918 18.4612 5.0094 18.3206V0.792154C5.0094 0.582062 5.09346 0.380574 5.24309 0.232017C5.39272 0.0834589 5.59565 0 5.80726 0L26.188 0C26.3996 0 26.6026 0.0834589 26.7522 0.232017C26.9018 0.380574 26.9859 0.582062 26.9859 0.792154V18.3206C26.9861 18.4612 26.9487 18.5993 26.8773 18.7207C26.806 18.8422 26.7035 18.9426 26.5801 19.0117L16.3891 24.7108C16.27 24.7781 16.1353 24.8133 15.9983 24.813V24.813ZM6.60512 17.8635L15.9983 23.1166L25.3902 17.8635V1.58431H6.60512V17.8635Z" fill="white" fill-opacity="0.9"/>
<path d="M15.9981 16.8783C15.8607 16.8781 15.7257 16.8429 15.606 16.776L12.3798 14.97C12.2565 14.901 12.1539 14.8009 12.0823 14.6796C12.0108 14.5584 11.973 14.4205 11.9728 14.2801V10.9648H13.5685V13.8242L15.9993 15.1794L18.8346 13.5926L19.6176 14.9724L16.3914 16.7785C16.2711 16.8448 16.1356 16.8791 15.9981 16.8783V16.8783Z" fill="white" fill-opacity="0.9"/>
<path d="M15.998 20.8457C15.8607 20.8455 15.7257 20.8103 15.6059 20.7434L8.89672 16.9908C8.77359 16.9218 8.67113 16.8216 8.59983 16.7004C8.52854 16.5792 8.49097 16.4413 8.49097 16.3009V7.70426C8.49097 7.49417 8.57503 7.29268 8.72465 7.14413C8.87428 6.99557 9.07722 6.91211 9.28883 6.91211H19.1423V8.50011H10.0842V15.8414L15.9956 19.148L21.9057 15.8414V12.4067H23.5014V16.3009C23.5014 16.4413 23.4638 16.5792 23.3925 16.7004C23.3212 16.8216 23.2188 16.9218 23.0956 16.9908L16.3864 20.7434C16.2678 20.8097 16.1342 20.8449 15.998 20.8457Z" fill="white" fill-opacity="0.9"/>
<path d="M23.5039 9.37909H21.9082V5.04134H11.3152V3.45703H22.7073C22.9189 3.45703 23.1219 3.54049 23.2715 3.68905C23.4211 3.83761 23.5052 4.03909 23.5052 4.24919L23.5039 9.37909Z" fill="white" fill-opacity="0.9"/>
<path d="M0 33.9249C0 31.6199 1.72104 29.852 4.09477 29.852C4.76646 29.8418 5.42956 30.0028 6.02069 30.3197C6.61181 30.6365 7.1112 31.0986 7.47109 31.6618L5.9188 32.5599C5.57013 31.955 4.89511 31.5977 4.09601 31.5977C2.70007 31.5977 1.80046 32.5266 1.80046 33.9249C1.80046 35.3232 2.70007 36.2521 4.09601 36.2521C4.89511 36.2521 5.58502 35.8948 5.9188 35.2899L7.47109 36.1856C6.79608 37.2943 5.53662 37.9978 4.09601 37.9978C1.72104 37.9978 0 36.2299 0 33.9249Z" fill="white" fill-opacity="0.9"/>
<path d="M22.9728 36.2366V37.9786H17.6545V29.8477H22.9728V31.5897H19.5232V32.983H22.5596V34.7472H19.5232V36.2329L22.9728 36.2366Z" fill="white" fill-opacity="0.9"/>
<path d="M14.0972 35.0056C14.5427 34.7879 14.9192 34.4526 15.1854 34.0364C15.4516 33.6202 15.5971 33.1393 15.6061 32.6464C15.6074 32.2797 15.5357 31.9163 15.3951 31.5772C15.2545 31.2381 15.0478 30.9299 14.7868 30.6704C14.5259 30.4108 14.2158 30.2051 13.8745 30.0649C13.5332 29.9247 13.1674 29.8529 12.798 29.8535H9.52222V37.9993H11.3934V35.3198H12.2843L13.8292 37.9968H15.8418L14.0972 35.0056ZM12.798 33.6911H11.3934V31.5968H12.798C13.313 31.5968 13.7336 32.0501 13.7336 32.6439C13.7336 33.2377 13.313 33.6911 12.798 33.6911V33.6911Z" fill="white" fill-opacity="0.9"/>
<path d="M28.0293 29.8516H25.0203V37.9702H28.0293C30.2802 37.9702 32 36.2073 32 33.9109C32 31.6145 30.2765 29.8516 28.0293 29.8516ZM28.0293 36.2368H26.8865V31.5948H28.0243C29.3074 31.5948 30.1933 32.52 30.1933 33.9121C30.1933 35.3042 29.3123 36.2368 28.0293 36.2368Z" fill="white" fill-opacity="0.9"/>
</svg>
