<svg width="164" height="164" viewBox="0 0 164 164" fill="none" xmlns="http://www.w3.org/2000/svg">
<path d="M82 162C126.183 162 162 126.183 162 82C162 37.8172 126.183 2 82 2C37.8172 2 2 37.8172 2 82C2 126.183 37.8172 162 82 162Z" fill="black"/>
<path d="M111.51 111.27L111.58 90C114.84 90 117.83 88.67 120 86.54C122.17 84.39 123.53 81.44 123.53 78.18C123.53 72.45 119.43 67.65 114 66.57L116.74 55.77C118.39 48.63 117.69 44.63 117.69 44.63C115.21 29.52 102.14 17.9 86.3301 17.77H86.0601C78.0401 17.77 70.6801 20.74 65.0401 25.65C57.3401 32.35 53.5701 42.52 54.4201 52.7L54.5101 53.84L37.9701 55.26C33.4701 56.01 33.0901 60.02 36.6601 64.36C41.3801 70.57 53.7701 72.52 57.9901 73.02V73.86C52.2101 77.85 48.7801 84.31 48.7801 91.34C48.7801 101.05 55.1001 109.19 60.3301 112.2L43.1801 151.97C44.0801 152.47 44.9901 152.95 45.9201 153.41L63.3501 113L103.8 112.77C108.14 112.76 112.3 114.54 115.38 117.61C118.77 120.99 120.64 125.53 120.64 130.41V152.05C121.68 151.47 122.71 150.88 123.73 150.26V130.41C123.73 124.7 121.55 119.38 117.56 115.43C115.78 113.65 113.73 112.26 111.51 111.27ZM110.85 66.44C110.54 67.64 110.15 69.45 109.45 69.94C109.17 70.09 108.84 70.14 108.55 70.11C108.32 70.09 107.18 69.94 107.06 68.66C106.24 59.91 105.55 55.18 104.87 52.6L114.57 51.78L110.85 66.44ZM86.0601 20.86H86.3001C101.79 20.99 114.39 33.33 115.01 48.65L86.8801 51.06C86.9901 50.26 87.0801 49.38 87.0801 48.48C87.4101 32.78 80.2401 25.43 76.2701 22.57C79.3301 21.47 82.6201 20.86 86.0501 20.86H86.0601ZM69.0501 26.41C70.2601 25.53 71.5401 24.74 72.8701 24.05C74.8501 25.09 84.3701 31.03 83.9801 48.46C83.9801 48.46 83.8801 49.86 83.5901 51.34L57.6301 53.57L57.5601 52.85C56.5701 42.65 60.7601 32.44 69.0401 26.41H69.0501ZM44.0501 57.76L82.4501 54.5C79.6301 59.5 71.9101 65.98 61.0901 65.49C47.8401 65.49 44.0501 57.76 44.0501 57.76ZM108.47 95.18L108.42 109.68L62.6601 109.91C58.8501 108.17 51.8801 100.99 51.8801 91.33C51.8801 85.08 55.0501 79.35 60.3701 75.98C60.8101 75.7 61.0901 75.21 61.0901 74.67V68.55C75.2201 69.25 83.9801 59.23 86.1501 54.17L101.75 52.85C102.14 54.22 102.95 58.11 103.97 68.93C104.19 71.3 106.3 73.19 108.68 73.19C110.73 73.19 112.91 71.69 113.22 69.57C117.67 70.35 120.95 74.49 120.36 79.29C119.81 83.74 115.75 87.02 111.26 86.9C106.41 86.77 102.96 83.71 102.96 83.71L108.46 95.18H108.47Z" fill="#8A8A8A"/>
<path d="M88.2099 137.66C87.3599 137.66 86.6699 138.36 86.6699 139.21V161.85C87.6999 161.79 88.7299 161.71 89.7599 161.62V139.21C89.7599 138.36 89.0599 137.66 88.2099 137.66Z" fill="#8A8A8A"/>
<path fill-rule="evenodd" clip-rule="evenodd" d="M82 160C125.078 160 160 125.078 160 82C160 38.9218 125.078 4 82 4C38.9218 4 4 38.9218 4 82C4 125.078 38.9218 160 82 160ZM162 82C162 126.183 126.183 162 82 162C37.8172 162 2 126.183 2 82C2 37.8172 37.8172 2 82 2C126.183 2 162 37.8172 162 82Z" fill="#252525"/>
</svg>
