<svg width="12" height="12" viewBox="0 0 12 12" fill="none" xmlns="http://www.w3.org/2000/svg">
<g opacity="0.2" clip-path="url(#clip0_1_1930)">
<path d="M6 12C7.18669 12 8.34673 11.6481 9.33342 10.9888C10.3201 10.3295 11.0892 9.39246 11.5433 8.2961C11.9974 7.19975 12.1162 5.99335 11.8847 4.82946C11.6532 3.66557 11.0818 2.59648 10.2426 1.75736C9.40353 0.918247 8.33443 0.346803 7.17054 0.115291C6.00665 -0.11622 4.80025 0.00259852 3.7039 0.456724C2.60754 0.91085 1.67048 1.67988 1.01119 2.66658C0.351898 3.65327 0 4.81331 0 6C0 7.5913 0.63215 9.11743 1.75737 10.2426C2.88259 11.3679 4.4087 12 6 12V12Z" fill="#F29947"/>
</g>
<g clip-path="url(#clip1_1_1930)">
<path d="M6 9C6.59334 9 7.17336 8.82405 7.66671 8.49441C8.16006 8.16477 8.54458 7.69623 8.77164 7.14805C8.9987 6.59987 9.05811 5.99667 8.94235 5.41473C8.8266 4.83279 8.54088 4.29824 8.12132 3.87868C7.70177 3.45912 7.16721 3.1734 6.58527 3.05765C6.00333 2.94189 5.40013 3.0013 4.85195 3.22836C4.30377 3.45543 3.83524 3.83994 3.50559 4.33329C3.17595 4.82664 3 5.40666 3 6C3 6.79565 3.31607 7.55871 3.87868 8.12132C4.44129 8.68393 5.20435 9 6 9Z" fill="#F29947"/>
</g>
<defs>
<clipPath id="clip0_1_1930">
<rect width="12" height="12" fill="white"/>
</clipPath>
<clipPath id="clip1_1_1930">
<rect width="6" height="6" fill="white" transform="translate(3 3)"/>
</clipPath>
</defs>
</svg>
