<svg width="30" height="30" viewBox="0 0 30 30" fill="none" xmlns="http://www.w3.org/2000/svg">
<path d="M0.35 29.65V0.35H29.65V29.65H0.35Z" stroke="white" stroke-opacity="0.5" stroke-width="0.7"/>
<path d="M15.375 17.25C16.4105 17.25 17.25 16.4105 17.25 15.375C17.25 14.3395 16.4105 13.5 15.375 13.5C14.3395 13.5 13.5 14.3395 13.5 15.375C13.5 16.4105 14.3395 17.25 15.375 17.25Z" fill="white"/>
<path d="M20.625 17.25C21.6605 17.25 22.5 16.4105 22.5 15.375C22.5 14.3395 21.6605 13.5 20.625 13.5C19.5895 13.5 18.75 14.3395 18.75 15.375C18.75 16.4105 19.5895 17.25 20.625 17.25Z" fill="white"/>
<path d="M10.125 17.25C11.1605 17.25 12 16.4105 12 15.375C12 14.3395 11.1605 13.5 10.125 13.5C9.08947 13.5 8.25 14.3395 8.25 15.375C8.25 16.4105 9.08947 17.25 10.125 17.25Z" fill="white"/>
</svg>
