<svg width="45" height="24" viewBox="0 0 45 24" fill="none" xmlns="http://www.w3.org/2000/svg">
<mask id="path-1-inside-1_8344_4475" fill="white">
<path fill-rule="evenodd" clip-rule="evenodd" d="M19.395 4H43C44.1046 4 45 4.89543 45 6V22C45 23.1046 44.1046 24 43 24H2C0.89543 24 0 23.1046 0 22V6C0 4.89543 0.895429 4 2 4H10.605L14.3256 0.279337C14.6981 -0.0931125 15.3019 -0.0931125 15.6744 0.279337L19.395 4Z"/>
</mask>
<path fill-rule="evenodd" clip-rule="evenodd" d="M19.395 4H43C44.1046 4 45 4.89543 45 6V22C45 23.1046 44.1046 24 43 24H2C0.89543 24 0 23.1046 0 22V6C0 4.89543 0.895429 4 2 4H10.605L14.3256 0.279337C14.6981 -0.0931125 15.3019 -0.0931125 15.6744 0.279337L19.395 4Z" fill="white"/>
<path d="M19.395 4L18.6879 4.70711L18.9808 5H19.395V4ZM10.605 4V5H11.0192L11.3121 4.70711L10.605 4ZM14.3256 0.279337L15.0327 0.986444V0.986444L14.3256 0.279337ZM15.6744 0.279337L14.9673 0.986444V0.986444L15.6744 0.279337ZM43 3H19.395V5H43V3ZM46 6C46 4.34315 44.6569 3 43 3V5C43.5523 5 44 5.44772 44 6H46ZM46 22V6H44V22H46ZM43 25C44.6569 25 46 23.6569 46 22H44C44 22.5523 43.5523 23 43 23V25ZM2 25H43V23H2V25ZM-1 22C-1 23.6569 0.343143 25 2 25V23C1.44772 23 1 22.5523 1 22H-1ZM-1 6V22H1V6H-1ZM2 3C0.343144 3 -1 4.34315 -1 6H1C1 5.44771 1.44771 5 2 5V3ZM10.605 3H2V5H10.605V3ZM11.3121 4.70711L15.0327 0.986444L13.6185 -0.427769L9.89785 3.29289L11.3121 4.70711ZM15.0327 0.986444C15.0147 1.00452 14.9853 1.00452 14.9673 0.986444L16.3815 -0.427769C15.6185 -1.19074 14.3815 -1.19074 13.6185 -0.427769L15.0327 0.986444ZM14.9673 0.986444L18.6879 4.70711L20.1021 3.29289L16.3815 -0.427769L14.9673 0.986444Z" fill="black" mask="url(#path-1-inside-1_8344_4475)"/>
</svg>
