<svg width="60" height="60" viewBox="0 0 60 60" fill="none" xmlns="http://www.w3.org/2000/svg">
<path d="M46.5838 54.8194C41.675 58.0993 35.9038 59.85 30 59.85C22.0833 59.85 14.4908 56.7051 8.89286 51.1072C3.2949 45.5092 0.15 37.9167 0.15 30C0.15 24.0962 1.90067 18.325 5.18063 13.4162C8.46059 8.50743 13.1225 4.68148 18.5769 2.4222C24.0313 0.162929 30.0331 -0.428194 35.8235 0.723575C41.6138 1.87534 46.9326 4.71828 51.1071 8.89288C55.2817 13.0675 58.1247 18.3862 59.2764 24.1766C60.4282 29.9669 59.8371 35.9687 57.5778 41.4231C55.3185 46.8775 51.4926 51.5394 46.5838 54.8194Z" fill="#06C270" stroke="white" stroke-width="0.3" stroke-miterlimit="10"/>
<path d="M30 53C34.7467 53 39.3869 51.6218 43.3337 49.0395C47.2805 46.4573 50.3566 42.7871 52.1731 38.4931C53.9896 34.199 54.4649 29.4739 53.5388 24.9154C52.6128 20.3568 50.327 16.1695 46.9705 12.883C43.6141 9.59647 39.3377 7.35831 34.6822 6.45156C30.0266 5.5448 25.201 6.01018 20.8156 7.78884C16.4302 9.5675 12.6819 12.5796 10.0447 16.4441C7.40757 20.3087 6 24.8521 6 29.5C6 35.7326 8.52857 41.7099 13.0294 46.117C17.5303 50.5241 23.6348 53 30 53V53Z" fill="#0D0D0D"/>
<path d="M21 30.9327L23.1475 28.8363L27.0639 32.7627L36.848 23L39 25.1497L27.0817 37L21 30.9327Z" fill="white"/>
</svg>
