<svg width="151" height="10" viewBox="0 0 151 10" fill="none" xmlns="http://www.w3.org/2000/svg">
<g opacity="0.3">
<path d="M2.90097 2.4C3.98097 2.4 4.81297 3.232 4.81297 4.28C4.81297 5.328 3.98097 6.16 2.90097 6.16H1.91697V8H0.812969V2.4H2.90097ZM2.90097 5.128C3.37297 5.128 3.71697 4.76 3.71697 4.28C3.71697 3.792 3.37297 3.432 2.90097 3.432H1.91697V5.128H2.90097ZM9.14066 8.112C7.52466 8.112 6.23666 6.832 6.23666 5.2C6.23666 3.56 7.52466 2.288 9.14066 2.288C10.7567 2.288 12.0527 3.56 12.0527 5.2C12.0527 6.832 10.7567 8.112 9.14066 8.112ZM9.14066 7.032C10.1567 7.032 10.9487 6.272 10.9487 5.2C10.9487 4.12 10.1567 3.36 9.14066 3.36C8.12466 3.36 7.33266 4.12 7.33266 5.2C7.33266 6.272 8.12466 7.032 9.14066 7.032ZM14.7466 8L13.1786 2.4H14.3386L15.4106 6.552L16.5786 2.4H17.5226L18.6986 6.552L19.7706 2.4H20.9306L19.3626 8H18.1066L17.0506 4.304L16.0026 8H14.7466ZM23.6748 6.944H26.0348V8H22.5708V2.4H25.9948V3.456H23.6748V4.648H25.7948V5.688H23.6748V6.944ZM30.885 8L29.757 6.056H28.917V8H27.813V2.4H30.053C31.085 2.4 31.917 3.232 31.917 4.256C31.917 4.96 31.477 5.592 30.837 5.888L32.077 8H30.885ZM28.917 3.432V5.088H30.053C30.469 5.088 30.813 4.72 30.813 4.256C30.813 3.792 30.469 3.432 30.053 3.432H28.917ZM34.831 6.944H37.191V8H33.727V2.4H37.151V3.456H34.831V4.648H36.951V5.688H34.831V6.944ZM41.1932 2.4C42.7372 2.4 43.8892 3.624 43.8892 5.2C43.8892 6.776 42.7372 8 41.1932 8H38.9692V2.4H41.1932ZM41.1932 6.944C42.1612 6.944 42.8332 6.232 42.8332 5.2C42.8332 4.168 42.1612 3.456 41.1932 3.456H40.0732V6.944H41.1932ZM52.0563 5.096C52.5043 5.352 52.7923 5.792 52.7923 6.376C52.7923 7.336 52.0163 8 51.0483 8H48.6723V2.4H50.8803C51.8243 2.4 52.5843 3.04 52.5843 3.976C52.5843 4.456 52.3843 4.832 52.0563 5.096ZM50.8803 3.432H49.7763V4.664H50.8803C51.2243 4.664 51.4803 4.4 51.4803 4.048C51.4803 3.696 51.2323 3.432 50.8803 3.432ZM51.0483 6.968C51.4243 6.968 51.6963 6.688 51.6963 6.304C51.6963 5.928 51.4243 5.648 51.0483 5.648H49.7763V6.968H51.0483ZM58.6903 2.4L56.7703 5.816V8H55.6743V5.816L53.7623 2.4H55.0103L56.2263 4.736L57.4423 2.4H58.6903Z" fill="#FBFBFB"/>
<path d="M92.5638 9.9557H94.3392L96.8005 1H95.0288L92.5638 9.9557Z" fill="#FBFBFB"/>
<path d="M78.8155 9.99631C79.1786 9.99631 79.5051 9.74897 79.6005 9.39458L81.9114 1.02215H80.1397L78.1479 8.24282H71.0536L73.0455 1.02215H71.2701L69.0398 9.10664C68.9665 9.35767 68.9958 9.57178 69.1169 9.74159C69.2379 9.9114 69.425 9.99631 69.6744 9.99631H78.8155Z" fill="#FBFBFB"/>
<path d="M92.8499 1.02584C93.1067 1.02584 93.2974 1.11075 93.4185 1.28056C93.5395 1.45037 93.5615 1.66817 93.4882 1.94135L92.5014 5.52584C92.4317 5.77686 92.2887 5.99098 92.0686 6.16079C91.8485 6.3306 91.6137 6.4155 91.3643 6.4155H83.3934L82.4066 10H80.6349L82.1058 4.65463H83.8776V4.65833H90.9718L91.489 2.78302H82.623L83.1036 1.02584H92.8499Z" fill="#FBFBFB"/>
<path d="M99.8671 1.01447L102.108 5.50339L97.3911 9.99232L97.9524 7.95827L100.531 5.50339L99.3059 3.04851L99.8671 1.01447Z" fill="#FBFBFB"/>
<path d="M100.531 5.50339L98.2898 1.01447L95.8138 9.99232L100.531 5.50339Z" fill="#FBFBFB"/>
<path d="M108.108 2L108.108 8" stroke="#FBFBFB" stroke-width="0.522628"/>
<path d="M119.033 1C119.546 1.91837 120.064 2.83404 120.572 3.75589C119.751 5.26362 118.943 6.77869 118.094 8.26984C117.769 8.84223 117.452 9.42002 117.13 9.99434C116.087 10.0009 115.043 10.0005 114 9.99897C114.032 9.92453 114.063 9.8497 114.102 9.77873C115.745 6.85197 117.394 3.92907 119.033 1Z" fill="#FBFBFB"/>
<path d="M141.738 3.25781C142.315 4.37791 142.892 5.49762 143.468 6.61811C143.264 6.62235 143.061 6.61155 142.858 6.61888C142.722 6.37202 142.604 6.11476 142.471 5.86636C141.958 5.85055 141.445 5.86135 140.932 5.86019C140.809 6.11591 140.674 6.36508 140.543 6.61618C140.343 6.61425 140.142 6.62042 139.942 6.61849C140.533 5.49338 141.125 4.36904 141.738 3.25781ZM141.189 5.38114C141.539 5.38615 141.889 5.38538 142.238 5.38847C142.063 5.04904 141.906 4.69998 141.718 4.36788C141.538 4.70383 141.362 5.04133 141.189 5.38114Z" fill="#FBFBFB"/>
<path d="M143.804 3.24463C144.675 4.03302 145.546 4.82179 146.406 5.62329C146.43 4.90009 146.403 4.17689 146.425 3.45368C146.611 3.45754 146.797 3.46063 146.983 3.4641C146.977 4.57802 146.98 5.69234 146.979 6.80626C146.407 6.31063 145.858 5.78722 145.293 5.28233C144.978 5.0023 144.667 4.71919 144.367 4.42335C144.359 5.15582 144.37 5.88866 144.355 6.62112C144.17 6.62189 143.984 6.61688 143.8 6.61842C143.801 5.4937 143.792 4.36936 143.804 3.24463Z" fill="#FBFBFB"/>
<path d="M125.397 6.61356C125.999 5.49461 126.585 4.3668 127.201 3.25635C127.774 4.3776 128.35 5.49731 128.93 6.61471C128.724 6.61973 128.518 6.61934 128.312 6.6151C128.187 6.36477 128.059 6.11599 127.939 5.86258C127.425 5.85564 126.911 5.86142 126.396 5.86142C126.262 6.11406 126.141 6.3748 125.996 6.62127C125.797 6.61548 125.597 6.61973 125.397 6.61356ZM126.646 5.38392C126.998 5.38237 127.349 5.38739 127.701 5.38623C127.524 5.04874 127.369 4.69928 127.179 4.36912C127 4.707 126.823 5.04526 126.646 5.38392Z" fill="#FBFBFB"/>
<path d="M133.96 3.54689C134.254 3.39608 134.598 3.37641 134.916 3.44314C135.192 3.50369 135.413 3.70773 135.581 3.93376C135.432 4.01244 135.284 4.09228 135.137 4.17598C134.939 3.85392 134.469 3.75132 134.182 4.00241C134.03 4.11581 134.042 4.39507 134.214 4.48146C134.599 4.70248 135.067 4.74992 135.409 5.05578C135.757 5.36319 135.743 5.97763 135.421 6.30008C135.075 6.66573 134.526 6.74519 134.066 6.60826C133.68 6.50682 133.391 6.1377 133.339 5.73193C133.525 5.6895 133.713 5.6544 133.902 5.62393C133.924 5.81409 133.994 6.02353 134.166 6.11918C134.438 6.27154 134.834 6.23335 135.022 5.95834C135.154 5.77127 135.115 5.48392 134.934 5.34699C134.555 5.08278 134.053 5.06658 133.713 4.73372C133.534 4.57481 133.46 4.30944 133.521 4.07377C133.569 3.83347 133.758 3.65566 133.96 3.54689Z" fill="#FBFBFB"/>
<path d="M129.11 3.47571C129.321 3.44678 129.535 3.45681 129.747 3.45913C129.975 3.81166 130.202 4.1642 130.43 4.51635C130.669 4.16844 130.902 3.81552 131.138 3.4653C131.356 3.45797 131.574 3.45411 131.793 3.46105C131.447 3.96209 131.099 4.46197 130.752 4.96262C131.105 5.51997 131.49 6.05533 131.835 6.61847C131.627 6.61962 131.419 6.61769 131.212 6.61577C130.947 6.21964 130.685 5.82198 130.42 5.42585C130.147 5.82352 129.872 6.21926 129.602 6.61924C129.391 6.62348 129.181 6.62039 128.97 6.62078C129.336 6.06227 129.721 5.51804 130.101 4.96995C129.775 4.4693 129.441 3.97328 129.11 3.47571Z" fill="#FBFBFB"/>
<path d="M132.305 3.46138C132.493 3.45559 132.68 3.45598 132.867 3.46022C132.868 4.51282 132.867 5.56542 132.867 6.61802C132.677 6.6184 132.487 6.61802 132.297 6.61802C132.304 5.5658 132.3 4.51359 132.305 3.46138Z" fill="#FBFBFB"/>
<path d="M137.772 3.45898C138.253 3.48058 138.771 3.38994 139.214 3.63525C139.646 3.87594 139.745 4.58988 139.347 4.91311C139.598 5.01609 139.84 5.2101 139.906 5.49591C140.012 5.84652 139.825 6.23454 139.531 6.41621C138.995 6.72324 138.362 6.58014 137.78 6.6218C137.762 5.56765 137.773 4.51351 137.772 3.45898ZM138.33 3.91335C138.331 4.2142 138.33 4.51467 138.328 4.81514C138.537 4.80626 138.768 4.81938 138.946 4.68515C139.128 4.5166 139.122 4.16753 138.921 4.01749C138.745 3.90178 138.529 3.91489 138.33 3.91335ZM138.333 5.22823C138.331 5.53487 138.332 5.84189 138.337 6.14853C138.618 6.1331 138.919 6.1871 139.178 6.04246C139.407 5.92521 139.449 5.54181 139.236 5.38521C138.98 5.1777 138.635 5.23479 138.333 5.22823Z" fill="#FBFBFB"/>
<path d="M147.63 3.45875C147.817 3.45721 148.004 3.45798 148.191 3.45837C148.191 3.87416 148.187 4.29034 148.196 4.70652C148.655 4.28494 149.124 3.87416 149.587 3.45605C149.842 3.4576 150.098 3.45875 150.353 3.45798C149.801 3.92932 149.254 4.40567 148.712 4.88858C149.245 5.47485 149.798 6.04146 150.343 6.61539C150.09 6.61269 149.836 6.63352 149.584 6.60305C149.15 6.14174 148.719 5.67774 148.289 5.21257C148.258 5.25577 148.227 5.29897 148.196 5.34217C148.185 5.76761 148.195 6.19266 148.188 6.61809C148 6.61694 147.812 6.62195 147.625 6.62079C147.626 5.56704 147.629 4.5129 147.63 3.45875Z" fill="#FBFBFB"/>
<path d="M119.034 6.59912C120.081 6.59874 121.128 6.59102 122.175 6.60915C122.799 7.74159 123.442 8.86169 124.06 9.99722C123.013 10.0026 121.966 9.99837 120.919 9.9976C120.296 8.86131 119.645 7.74237 119.034 6.59912Z" fill="#FBFBFB"/>
</g>
</svg>
