<svg width="42" height="11" viewBox="0 0 42 11" fill="none" xmlns="http://www.w3.org/2000/svg">
<path d="M39.5005 0.808542L41.8622 5.49813L36.8973 10.19L39.5005 0.808542Z" fill="#008C44"/>
<path d="M37.865 0.808542L40.2233 5.49813L35.2617 10.19L37.865 0.808542Z" fill="#F47920"/>
<path d="M0 8.48365L2.35477 0H6.11943C7.29599 0 8.08194 0.186259 8.48181 0.570085C8.87879 0.950828 8.95527 1.57231 8.71597 2.44584C8.57123 2.96042 8.35126 3.39235 8.04905 3.73362C7.74931 4.07551 7.35397 4.34585 6.86714 4.54465C7.28016 4.64395 7.5429 4.8411 7.6607 5.13673C7.77788 5.43236 7.76432 5.86347 7.62205 6.42863L7.33567 7.61361L7.33485 7.64568C7.2522 7.9775 7.27667 8.15512 7.41133 8.16951L7.32457 8.48365H4.77779C4.78642 8.28402 4.80225 8.10558 4.81911 7.95571C4.83761 7.80234 4.86043 7.68351 4.88305 7.6019L5.1205 6.75468C5.24015 6.31411 5.24755 6.00677 5.13653 5.82976C5.02449 5.64802 4.77368 5.55859 4.37772 5.55859H3.30745L2.49127 8.48365H0ZM3.83703 3.64686H4.98337C5.38508 3.64686 5.68154 3.5895 5.8643 3.47088C6.04789 3.35123 6.18419 3.14914 6.26416 2.8568C6.34701 2.55953 6.32666 2.3523 6.20783 2.2345C6.08921 2.11485 5.8053 2.05667 5.35897 2.05667H4.27842L3.83703 3.64686Z" fill="#1B3281"/>
<path d="M15.7055 2.22335L13.9696 8.4836H11.8601L12.1193 7.56649C11.748 7.9312 11.3681 8.20812 10.9851 8.38513C10.6052 8.56522 10.2043 8.65383 9.78223 8.65383C9.43335 8.65383 9.13382 8.59051 8.89267 8.4649C8.64864 8.33969 8.4669 8.14932 8.34458 7.89831C8.23603 7.67854 8.18874 7.40716 8.20725 7.08296C8.22678 6.76389 8.33944 6.22567 8.54831 5.472L9.44795 2.22335H11.7554L10.8576 5.45678C10.7265 5.93004 10.6952 6.26268 10.7592 6.4438C10.8258 6.62656 11.0036 6.72092 11.2923 6.72092C11.5829 6.72092 11.8274 6.61566 12.0293 6.40083C12.234 6.18784 12.3921 5.87021 12.511 5.44753L13.4013 2.22335H15.7055Z" fill="#1B3281"/>
<path d="M14.8684 8.48365L17.2207 0H20.4566C21.1706 0 21.7232 0.0421446 22.1173 0.134658C22.5106 0.223264 22.8189 0.367174 23.0482 0.570085C23.3354 0.835495 23.5113 1.16402 23.5837 1.55812C23.6518 1.95223 23.6115 2.4113 23.4624 2.95034C23.1989 3.8987 22.7369 4.62544 22.0786 5.13324C21.4183 5.63445 20.6013 5.88629 19.6262 5.88629H18.1119L17.3925 8.48365H14.8684ZM18.6852 3.81441H19.4989C20.025 3.81441 20.3949 3.74945 20.6116 3.62404C20.8213 3.49699 20.9703 3.27126 21.0612 2.95034C21.152 2.62511 21.1286 2.39773 20.9913 2.27068C20.8591 2.14425 20.5213 2.08031 19.9808 2.08031H19.1688L18.6852 3.81441Z" fill="#1B3281"/>
<path d="M26.1769 8.48365L26.2003 7.8891C25.8282 8.16766 25.4514 8.37818 25.0725 8.50976C24.6953 8.6438 24.2935 8.71185 23.8633 8.71185C23.2097 8.71185 22.7539 8.53422 22.4904 8.19048C22.2301 7.84613 22.1873 7.3517 22.365 6.72097C22.535 6.09846 22.8374 5.64021 23.2736 5.34725C23.7074 5.0508 24.4319 4.83864 25.4483 4.70295C25.5772 4.68198 25.7499 4.66512 25.9662 4.63901C26.7176 4.55205 27.1395 4.35181 27.2303 4.02514C27.2776 3.84628 27.2488 3.71429 27.1378 3.63329C27.0307 3.54921 26.8305 3.50789 26.5414 3.50789C26.3015 3.50789 26.1084 3.55764 25.9502 3.66105C25.7921 3.76548 25.674 3.91803 25.5941 4.13266H23.3444C23.5475 3.42791 23.9626 2.89545 24.5857 2.53938C25.2066 2.17714 26.0252 2.0028 27.0391 2.0028C27.5159 2.0028 27.9429 2.04742 28.3203 2.14425C28.6984 2.23696 28.9747 2.36915 29.154 2.5291C29.3746 2.72872 29.5051 2.9563 29.5423 3.20794C29.5853 3.45896 29.5382 3.81873 29.4066 4.28952L28.439 7.77973C28.4079 7.89403 28.402 7.996 28.4188 8.08872C28.439 8.17712 28.4776 8.25278 28.5459 8.30684L28.4938 8.48365H26.1769ZM26.7377 5.68832C26.4927 5.78679 26.1742 5.88115 25.7785 5.98477C25.157 6.1515 24.8073 6.37394 24.7317 6.64922C24.6792 6.82623 24.7004 6.96253 24.787 7.06614C24.8723 7.16462 25.0205 7.21437 25.2294 7.21437C25.6124 7.21437 25.9199 7.11754 26.1492 6.92634C26.379 6.73268 26.5509 6.42863 26.6711 6.00923C26.6921 5.92001 26.7106 5.85587 26.7225 5.80797L26.7377 5.68832Z" fill="#1B3281"/>
<path d="M28.5114 10.9505L29.0235 9.09752H29.6839C29.9045 9.09752 30.078 9.05394 30.2009 8.97458C30.3257 8.89214 30.4106 8.75317 30.4595 8.56609C30.484 8.48365 30.499 8.39689 30.5093 8.29842C30.5159 8.19398 30.5159 8.08358 30.5093 7.95571L30.1569 2.22339H32.4926L32.4564 6.02177L34.4954 2.22339H36.6674L33.0627 8.45343C32.6535 9.14974 32.3563 9.62813 32.1675 9.88923C31.9813 10.147 31.8045 10.3475 31.6328 10.4832C31.4104 10.6709 31.162 10.8039 30.8939 10.8814C30.6252 10.9605 30.2161 11 29.6662 11C29.5079 11 29.3257 10.9969 29.1288 10.9866C28.9333 10.979 28.7246 10.9673 28.5114 10.9505Z" fill="#1B3281"/>
</svg>
