<svg width="18" height="18" viewBox="0 0 18 18" fill="none" xmlns="http://www.w3.org/2000/svg">
<path d="M17.5 9C17.5 13.6944 13.6944 17.5 9 17.5C4.30558 17.5 0.5 13.6944 0.5 9C0.5 4.30558 4.30558 0.5 9 0.5C13.6944 0.5 17.5 4.30558 17.5 9Z" stroke="#3F6FD9"/>
<path d="M12.7909 6.62638L11.5196 7.43638C11.8317 7.91042 11.996 8.46636 11.992 9.03388C11.9942 9.62844 11.82 10.2103 11.4913 10.7057C11.1626 11.2012 10.6943 11.5879 10.1456 11.817C9.59697 12.0461 8.99265 12.1072 8.40924 11.9925C7.82583 11.8779 7.28962 11.5927 6.86841 11.1731C6.4472 10.7534 6.16001 10.2183 6.0432 9.63529C5.92638 9.05231 5.9851 8.44778 6.21211 7.89826C6.43913 7.34874 6.82409 6.87895 7.3183 6.54839C7.8125 6.21784 8.39379 6.04139 8.98836 6.04138V7.16638L11.9359 5.31013L8.98836 3.44263V4.56763C8.09834 4.56763 7.2283 4.83155 6.48828 5.32602C5.74826 5.82048 5.17145 6.52329 4.83086 7.34555C4.49026 8.16782 4.4011 9.07262 4.57474 9.94554C4.74837 10.8185 5.17697 11.6203 5.80631 12.2496C6.43564 12.8789 7.2375 13.3075 8.11041 13.4812C8.98333 13.6548 9.88806 13.5657 10.7103 13.2251C11.5326 12.8845 12.2354 12.3077 12.7299 11.5677C13.2244 10.8277 13.4884 9.95764 13.4884 9.06763C13.5002 8.2031 13.2576 7.35416 12.7909 6.62638Z" fill="#3F6FD9"/>
</svg>
