<svg width="37" height="40" viewBox="0 0 37 40" fill="none" xmlns="http://www.w3.org/2000/svg">
<g clip-path="url(#clip0_1_1991)">
<path d="M22.3496 0.221802C28.6569 3.33557 36.7825 3.88559 36.7825 3.88559V20.0311C36.7785 22.69 36.1434 25.3085 34.9314 27.6628C33.7195 30.0171 31.9666 32.0372 29.8227 33.5506L22.3061 38.8733L17.2777 39.7605L18.9741 36.5137L14.7895 33.533C12.6693 32.0067 10.9409 29.9819 9.75058 27.6301C8.5603 25.2783 7.94321 22.6687 7.95153 20.0222V3.88559C7.95153 3.88559 16.0423 3.33557 22.3496 0.221802Z" fill="#06C270" stroke="black" stroke-width="0.5" stroke-linecap="round" stroke-linejoin="round"/>
<path d="M31.754 4.77273L36.7825 3.88562C36.7825 3.88562 28.2219 3.309 22.3496 0.230713L17.3211 1.11783C17.3211 1.11783 22.0538 3.96546 31.754 4.77273Z" fill="#4FE3A3" stroke="black" stroke-width="0.5" stroke-linecap="round" stroke-linejoin="round"/>
<path d="M7.95151 3.88554L2.91436 4.77265C5.35164 4.93259 7.79349 4.54185 10.0656 3.6283L7.95151 3.88554Z" fill="#4FE3A3" stroke="black" stroke-width="0.5" stroke-linecap="round" stroke-linejoin="round"/>
<path d="M17.3212 1.10889C23.6111 4.22266 31.754 4.77267 31.754 4.77267V20.9182C31.7501 23.5771 31.115 26.1956 29.903 28.5499C28.691 30.9042 26.9382 32.9243 24.7942 34.4377L17.2777 39.7604L9.76109 34.4377C7.61607 32.9253 5.86245 30.9054 4.65035 28.5509C3.43825 26.1964 2.80379 23.5774 2.80129 20.9182V4.77267C2.80129 4.77267 11.0138 4.22266 17.3212 1.10889Z" fill="#83E0B8" stroke="black" stroke-width="0.5" stroke-linecap="round" stroke-linejoin="round"/>
<path d="M2.87964 14.4423V5.31384" stroke="black" stroke-width="0.43" stroke-linecap="round" stroke-linejoin="round"/>
<path d="M2.87956 5.31383V14.4423L22.28 36.2475L24.8377 34.4733C26.2939 33.4403 27.5701 32.1659 28.6134 30.7031L4.9675 4.77271L2.87956 5.31383Z" fill="white" stroke="black" stroke-width="0.5" stroke-linecap="round" stroke-linejoin="round"/>
<path d="M17.3212 5.37585C22.2365 7.79768 28.57 8.22351 28.57 8.22351V20.8028C28.5786 22.8804 28.0922 24.929 27.1527 26.7726C26.2131 28.6161 24.8485 30.1993 23.1761 31.3861L17.3212 35.5466L11.4315 31.3861C9.76784 30.2015 8.40945 28.6247 7.47186 26.7898C6.53426 24.9549 6.04522 22.9162 6.04633 20.8471V8.22351C6.04633 8.22351 12.4058 7.79768 17.3212 5.37585Z" fill="white" stroke="black" stroke-width="0.5" stroke-miterlimit="10"/>
<path d="M22.6194 14.8148L15.0941 20.7141L12.4407 17.6092L9.88293 19.623L14.6591 25.1763L24.6812 17.3342L22.6194 14.8148Z" fill="#4FE3A3" stroke="black" stroke-width="0.5" stroke-linecap="round" stroke-linejoin="round"/>
<path d="M9.95248 1.79199L10.0917 1.96054C8.81839 3.04776 8.02064 4.60608 7.87382 6.29291C7.72699 7.97974 8.24311 9.65694 9.3087 10.9558L9.1434 11.0889C8.61562 10.447 7.969 9.91731 7.24046 9.5302C6.51192 9.14309 5.71573 8.90613 4.89736 8.83281C4.07899 8.75949 3.25448 8.85124 2.4709 9.10289C1.68732 9.35453 0.960036 9.7611 0.330565 10.2994L0.19137 10.1308C1.4652 9.0448 2.26477 7.48807 2.4148 5.80187C2.56483 4.11567 2.05309 2.43761 0.991745 1.13553L1.14834 1.00244C2.21661 2.29221 3.74163 3.09902 5.39088 3.24692C7.04013 3.39482 8.67984 2.87183 9.95248 1.79199Z" fill="white" stroke="black" stroke-width="0.43" stroke-linecap="round" stroke-linejoin="round"/>
</g>
<defs>
<clipPath id="clip0_1_1991">
<rect width="37" height="40" fill="white" transform="matrix(-1 0 0 1 37 0)"/>
</clipPath>
</defs>
</svg>
