<svg width="134" height="100" viewBox="0 0 134 100" fill="none" xmlns="http://www.w3.org/2000/svg">
<path d="M67.052 93.8589C90.7751 93.8589 109.999 75.292 109.999 52.386C109.999 29.48 90.7751 10.9189 67.052 10.9189C43.3288 10.9189 24.1045 29.4858 24.1045 52.386C24.1045 75.2862 43.3346 93.8589 67.052 93.8589Z" fill="#0A592A" stroke="#0D0D0D" stroke-width="0.333333" stroke-linecap="round" stroke-linejoin="round"/>
<path d="M67.0585 88.3389C90.7173 88.3389 109.895 69.9357 109.895 47.2402C109.895 24.5448 90.7115 6.1416 67.0585 6.1416C43.4055 6.1416 24.2222 24.5448 24.2222 47.2402C24.2222 69.9357 43.3996 88.3389 67.0585 88.3389Z" fill="white" stroke="#0D0D0D" stroke-width="0.333333" stroke-linecap="round" stroke-linejoin="round"/>
<path d="M66.7685 78.5731C85.162 78.5731 100.069 64.585 100.069 47.328C100.069 30.071 85.162 16.083 66.7685 16.083C48.375 16.083 33.4683 30.071 33.4683 47.328C33.4683 64.585 48.375 78.5731 66.7685 78.5731V78.5731Z" fill="#0D0D0D" stroke="#0D0D0D" stroke-width="0.333333" stroke-linecap="round" stroke-linejoin="round"/>
<path d="M70.7514 28.9482L86.5436 46.4063L65.7896 64.0206L70.7572 28.9491L70.7514 28.9482Z" fill="white" stroke="#0D0D0D" stroke-width="0.333333" stroke-linecap="round" stroke-linejoin="round"/>
<path d="M57.1518 28.9482L72.944 46.4063L52.1899 64.0206L57.1576 28.9491L57.1518 28.9482Z" fill="white" stroke="#0D0D0D" stroke-width="0.333333" stroke-linecap="round" stroke-linejoin="round"/>
<path d="M121.665 84.8652C121.408 85.4383 121.115 86.0056 120.788 86.5494L121.665 84.8652Z" fill="#0A592A" stroke="#0D0D0D" stroke-width="0.333333" stroke-linecap="round" stroke-linejoin="round"/>
<path d="M41.5155 21.7844C41.7963 20.8488 38.1574 18.9014 33.3952 17.4395C28.6271 15.9775 24.5319 15.5506 24.2569 16.4863C23.9761 17.4219 27.615 19.3693 32.3772 20.8312C37.1453 22.2932 41.2405 22.7201 41.5155 21.7844Z" fill="white" stroke="#0D0D0D" stroke-width="0.333333" stroke-linejoin="round"/>
<path d="M94 79.4028C94.9478 80.4671 95.9482 81.4846 97.0012 82.4495L103.7 79.1279L94 79.3969V79.4028Z" fill="#0D0D0D" stroke="#0D0D0D" stroke-width="0.333333" stroke-linecap="round" stroke-linejoin="round"/>
<path d="M87.9897 77.5146L90.6166 79.0585C90.991 79.2807 91.4122 79.3918 91.8451 79.3918H121.003C121.425 79.3918 121.84 79.2807 122.203 79.076L124.958 77.5088H87.9897V77.5146Z" fill="#FFBE00" stroke="#0D0D0D" stroke-width="0.333333" stroke-linecap="round" stroke-linejoin="round"/>
<path d="M123.853 77.83H89.0956C87.4809 77.83 86.4747 76.0756 87.2879 74.6838L104.669 44.8949C105.477 43.509 107.477 43.509 108.285 44.8949L125.666 74.6838C126.479 76.0815 125.473 77.83 123.858 77.83H123.853Z" fill="#FFEA34" stroke="#0D0D0D" stroke-width="0.333333" stroke-linecap="round" stroke-linejoin="round"/>
<path d="M95.2036 61.1117L111.93 77.8307H123.777L99.7201 53.3691L95.2036 61.1117Z" fill="white"/>
<path d="M123.852 77.83H89.0954C88.68 77.83 88.3056 77.713 87.9897 77.52C87.7966 77.3972 87.6211 77.2452 87.4807 77.0698C86.96 76.4323 86.8137 75.4967 87.2876 74.6838L104.669 44.8949C105.476 43.509 107.477 43.509 108.285 44.8949L125.666 74.6838C126.479 76.0815 125.473 77.83 123.858 77.83H123.852Z" stroke="#0D0D0D" stroke-width="0.333333" stroke-linecap="round" stroke-linejoin="round"/>
<path d="M104.593 72.1811V68.4561H108.355V72.1811H104.593Z" fill="#0D0D0D"/>
<path d="M104.593 66.5264V54.6729H108.355V66.5264H104.593Z" fill="#0D0D0D"/>
</svg>
