<svg width="40" height="40" viewBox="0 0 40 40" fill="none" xmlns="http://www.w3.org/2000/svg">
<path d="M0.2 39.8V0.2H39.8V39.8H0.2Z" stroke="#656565" stroke-opacity="0.4" stroke-width="0.4" fill="white"/>
<path d="M27.7572 30.6585H12.2638C11.4894 30.6585 10.7467 30.3509 10.1991 29.8033C9.65145 29.2557 9.34375 28.513 9.34375 27.7385V12.2452C9.34375 11.4708 9.65145 10.7281 10.1991 10.1805C10.7467 9.6329 11.4894 9.3252 12.2638 9.3252H27.7572C28.5316 9.3252 29.2742 9.6329 29.8218 10.1805C30.3694 10.7281 30.6771 11.4708 30.6771 12.2452V27.7385C30.6771 28.513 30.3694 29.2557 29.8218 29.8033C29.2742 30.3509 28.5316 30.6585 27.7572 30.6585ZM12.2638 9.99186C11.6662 9.99186 11.093 10.2293 10.6704 10.6519C10.2478 11.0744 10.0104 11.6476 10.0104 12.2452V27.7385C10.0104 28.3361 10.2478 28.9093 10.6704 29.3319C11.093 29.7545 11.6662 29.9919 12.2638 29.9919H27.7572C28.3548 29.9919 28.9278 29.7545 29.3504 29.3319C29.773 28.9093 30.0104 28.3361 30.0104 27.7385V12.2452C30.0104 11.9493 29.9521 11.6563 29.8389 11.3829C29.7256 11.1095 29.5597 10.8611 29.3504 10.6519C29.1412 10.4426 28.8929 10.2767 28.6195 10.1634C28.3461 10.0502 28.0531 9.99186 27.7572 9.99186H12.2638Z" fill="#0D0D0D" fill-opacity="0.9"/>
<path d="M25.5975 19.775L21.3307 14.4417C21.2905 14.3947 21.238 14.3599 21.1792 14.3411C21.1203 14.3222 21.0574 14.3201 20.9974 14.335C20.9389 14.3484 20.8853 14.3781 20.8429 14.4205C20.8005 14.4629 20.7709 14.5165 20.7575 14.575L20.0374 18.1616L17.0241 14.4417C16.9859 14.3958 16.9357 14.3615 16.8792 14.3427C16.8227 14.3239 16.7621 14.3212 16.7041 14.335C16.6456 14.3484 16.5921 14.3781 16.5496 14.4205C16.5072 14.4629 16.4775 14.5165 16.464 14.575L14.3307 25.2416C14.3163 25.3056 14.3229 25.3725 14.3493 25.4325C14.3756 25.4925 14.4205 25.5424 14.4773 25.575C14.5293 25.5922 14.5854 25.5922 14.6373 25.575C14.7156 25.5742 14.7912 25.5459 14.8507 25.495L19.2773 21.815L18.5975 25.1883C18.5831 25.2523 18.5895 25.3191 18.6159 25.3791C18.6423 25.4391 18.6873 25.4891 18.7441 25.5217C18.8003 25.541 18.8613 25.541 18.9175 25.5217C18.9919 25.5213 19.0632 25.4927 19.1173 25.4417L25.5174 20.1083C25.5597 20.0652 25.5894 20.0114 25.6035 19.9527C25.6176 19.894 25.6156 19.8326 25.5975 19.775ZM15.1707 24.4816L16.984 15.3883L19.8774 19.0016L20.3974 19.655L20.624 19.935L20.2907 20.215L19.504 20.8683L15.1707 24.4816ZM19.4375 24.4816L20.0908 21.215L21.2773 20.2283C21.3345 20.1666 21.3663 20.0857 21.3663 20.0016C21.3663 19.9176 21.3345 19.8366 21.2773 19.775L20.5174 18.8283L21.1974 15.3883L24.8374 19.935L19.4375 24.4816Z" fill="#0D0D0D" fill-opacity="0.9"/>
</svg>
