<svg width="20" height="20" viewBox="0 0 20 20" fill="none" xmlns="http://www.w3.org/2000/svg">
<path d="M1.83301 4.98165C1.83301 3.24232 3.24302 1.83231 4.98235 1.83231H15.018C16.7574 1.83231 18.1674 3.24232 18.1674 4.98165V15.0173C18.1674 16.7567 16.7574 18.1667 15.018 18.1667H4.98235C3.24302 18.1667 1.83301 16.7567 1.83301 15.0173V4.98165Z" stroke="#3D3D3D" stroke-linecap="square" stroke-linejoin="round"/>
<path d="M14.5738 9.85193L11.1073 5.51888C11.0746 5.48075 11.032 5.45246 10.9841 5.43716C10.9363 5.42185 10.8852 5.42012 10.8364 5.4322C10.7889 5.44314 10.7454 5.46721 10.7109 5.50169C10.6765 5.53617 10.6525 5.57966 10.6415 5.62718L10.0565 8.54116L7.60834 5.51888C7.57737 5.48166 7.53658 5.45379 7.49065 5.43848C7.44471 5.42317 7.39547 5.421 7.34836 5.4322C7.30085 5.44314 7.25735 5.46721 7.22287 5.50169C7.18839 5.53617 7.16426 5.57966 7.15332 5.62718L5.42012 14.2933C5.40844 14.3452 5.41375 14.3996 5.4352 14.4483C5.45664 14.4971 5.49307 14.5376 5.53926 14.5641C5.58146 14.5781 5.62706 14.5781 5.66925 14.5641C5.73287 14.5635 5.79426 14.5405 5.84261 14.4991L9.43899 11.5093L8.88664 14.25C8.87496 14.3019 8.88014 14.3562 8.90159 14.405C8.92303 14.4537 8.95959 14.4943 9.00579 14.5208C9.05142 14.5365 9.10099 14.5365 9.14662 14.5208C9.20706 14.5205 9.26504 14.4973 9.309 14.4558L14.5087 10.1227C14.5431 10.0877 14.5672 10.044 14.5787 9.99633C14.5901 9.94864 14.5885 9.89873 14.5738 9.85193ZM6.10258 13.6758L7.57581 6.28795L9.92654 9.22362L10.349 9.75441L10.5331 9.98192L10.2623 10.2094L9.62319 10.7402L6.10258 13.6758ZM9.56911 13.6758L10.0999 11.0219L11.0639 10.2202C11.1103 10.1701 11.1362 10.1044 11.1362 10.0361C11.1362 9.96777 11.1103 9.90201 11.0639 9.85193L10.4465 9.08279L10.999 6.28795L13.9562 9.98192L9.56911 13.6758Z" fill="#3D3D3D"/>
<path fill-rule="evenodd" clip-rule="evenodd" d="M10.8082 5.34366C10.9423 5.31065 11.0905 5.35848 11.1802 5.46355L11.1825 5.4662L14.6308 9.78925C14.7005 9.92037 14.6631 10.0906 14.5592 10.1969L14.5519 10.2044L9.38128 14.5251C9.14709 14.7423 8.71363 14.5734 8.79147 14.2204L9.28279 11.7754L5.93183 14.5693C5.68159 14.7831 5.26271 14.6287 5.34309 14.2637L7.06758 5.6158C7.09808 5.48301 7.20685 5.37419 7.33888 5.34355C7.46995 5.31244 7.61441 5.3608 7.70059 5.4647L9.99831 8.30955L10.5375 5.6158C10.5679 5.48368 10.6762 5.37448 10.8082 5.34366ZM7.64673 6.53702L6.28194 13.4013L10.3862 9.96983L7.64673 6.53702ZM11.0522 6.53743L13.7919 9.96958L9.73094 13.3989L10.1938 11.0776L11.1246 10.3013C11.2633 10.1695 11.2633 9.92595 11.1371 9.78647L10.5552 9.05944L11.0522 6.53743Z" fill="#3D3D3D" stroke="#3D3D3D" stroke-width="0.2"/>
</svg>
