<svg width="16" height="16" viewBox="0 0 16 16" fill="none" xmlns="http://www.w3.org/2000/svg">
<path d="M8 0L9.32661 1.33066L11.0615 0.608964L11.7779 2.34601L13.6569 2.34315L13.654 4.22212L15.391 4.93853L14.6693 6.67339L16 8L14.6693 9.32661L15.391 11.0615L13.654 11.7779L13.6569 13.6569L11.7779 13.654L11.0615 15.391L9.32661 14.6693L8 16L6.67339 14.6693L4.93853 15.391L4.22212 13.654L2.34315 13.6569L2.34601 11.7779L0.608964 11.0615L1.33066 9.32661L0 8L1.33066 6.67339L0.608964 4.93853L2.34601 4.22212L2.34315 2.34315L4.22212 2.34601L4.93853 0.608964L6.67339 1.33066L8 0Z" fill="#19B1F4"/>
<path d="M4.80078 8.57972L6.95726 10.4001L11.2008 5.6001" stroke="white" stroke-linecap="square"/>
</svg>
