<svg width="60" height="60" viewBox="0 0 60 60" fill="none" xmlns="http://www.w3.org/2000/svg">
<path d="M30 60C35.9334 60 41.7336 58.2405 46.6671 54.9441C51.6006 51.6477 55.4457 46.9623 57.7164 41.4805C59.987 35.9987 60.5811 29.9667 59.4235 24.1473C58.266 18.3279 55.4088 12.9824 51.2132 8.78682C47.0176 4.59124 41.6721 1.73401 35.8527 0.576456C30.0333 -0.5811 24.0013 0.0129949 18.5195 2.28362C13.0377 4.55425 8.35235 8.39944 5.05591 13.3329C1.75947 18.2664 0 24.0666 0 30C0 37.9565 3.16071 45.5871 8.7868 51.2132C14.4129 56.8393 22.0435 60 30 60V60Z" fill="black"/>
<path d="M15.6934 32.1125L19.0919 28.7844L25.2897 35.0175L40.7735 19.5195L44.1791 22.9322L25.3179 41.744L15.6934 32.1125Z" fill="white"/>
</svg>
