<svg width="16" height="16" viewBox="0 0 16 16" fill="none" xmlns="http://www.w3.org/2000/svg">
    <path d="M8 0.363636C10.0247 0.365562 11.9659 1.17073 13.3976 2.60241C14.8293 4.03408 15.6344 5.9753 15.6364 8C15.6344 10.0247 14.8293 11.9659 13.3976 13.3976C11.9659 14.8293 10.0247 15.6344 8 15.6364C5.9753 15.6344 4.03408 14.8293 2.60241 13.3976C1.17073 11.9659 0.365562 10.0247 0.363636 8C0.365562 5.9753 1.17073 4.03408 2.60241 2.60241C4.03408 1.17073 5.9753 0.365562 8 0.363636ZM8 0C5.87827 0 3.84344 0.84286 2.34315 2.34315C0.84286 3.84344 0 5.87827 0 8C0 10.1217 0.84286 12.1566 2.34315 13.6568C3.84344 15.1571 5.87827 16 8 16C10.1217 16 12.1566 15.1571 13.6569 13.6568C15.1572 12.1566 16 10.1217 16 8C16 5.87827 15.1572 3.84344 13.6569 2.34315C12.1566 0.84286 10.1217 0 8 0Z" fill="#0D0D0D" fill-opacity="0.5" />
    <path fill-rule="evenodd" clip-rule="evenodd" d="M8.8002 7.20117H7.2002V12.0012H8.8002V7.20117Z" fill="#0D0D0D" fill-opacity="0.5" />
    <path fill-rule="evenodd" clip-rule="evenodd" d="M8.8002 4H7.2002V5.56363H8.8002V4Z" fill="#0D0D0D" fill-opacity="0.5" />
</svg>
    