<svg width="21" height="21" viewBox="0 0 21 21" fill="none" xmlns="http://www.w3.org/2000/svg">
<path d="M4.9834 16.0938L1.41309 10.1484L4.9834 4.20313C5.03778 4.1105 5.11539 4.03368 5.20857 3.98024C5.30174 3.9268 5.40724 3.89861 5.51465 3.89844H17.0381C17.2038 3.89844 17.3628 3.96429 17.48 4.0815C17.5972 4.19871 17.6631 4.35768 17.6631 4.52344V15.7734C17.6631 15.9392 17.5972 16.0982 17.48 16.2154C17.3628 16.3326 17.2038 16.3984 17.0381 16.3984H5.51465C5.40724 16.3983 5.30174 16.3701 5.20857 16.3166C5.11539 16.2632 5.03778 16.1864 4.9834 16.0938V16.0938Z" stroke="#FBFBFB" stroke-linecap="round" stroke-linejoin="round"/>
<path d="M12.6631 8.27344L8.91309 12.0234" stroke="#FBFBFB" stroke-linecap="round" stroke-linejoin="round"/>
<path d="M12.6631 12.0234L8.91309 8.27344" stroke="#FBFBFB" stroke-linecap="round" stroke-linejoin="round"/>
</svg>
