<svg width="99" height="70" viewBox="0 0 99 70" fill="none" xmlns="http://www.w3.org/2000/svg">
<path d="M0.150018 61.4348L0.15 8.56536C0.15 5.57432 2.56895 3.15019 5.55217 3.15016C24.4928 3.14996 43.4334 3.14999 62.374 3.15002C70.7319 3.15003 79.0898 3.15005 87.4478 3.15004C90.431 3.15004 92.85 5.57417 92.85 8.56524V61.4348C92.85 64.4259 90.431 66.85 87.4478 66.85L5.55225 66.85C2.56901 66.85 0.150018 64.4258 0.150018 61.4348Z" fill="#0D0D0D" stroke="#3D3D3D" stroke-width="0.3" stroke-linejoin="round"/>
<path d="M72.1385 30.5894L72.1388 30.5909C73.0697 34.9307 73.1213 39.4114 72.2906 43.7712C71.4623 48.0704 69.7846 52.1637 67.3545 55.814C64.9474 59.4084 61.8266 62.4757 58.1836 64.8274L58.1832 64.8277C54.4897 67.228 50.3201 68.8103 45.9571 69.4671L45.9566 69.4672C44.312 69.7215 42.6501 69.8495 40.9858 69.8501C38.1582 69.8275 35.3457 69.4375 32.6199 68.6899L32.6193 68.6897C23.9853 66.3615 16.509 60.9683 11.6043 53.5305L11.6037 53.5296C9.08655 49.7757 7.3301 45.5698 6.43285 41.1474L6.43262 41.1462C5.52263 36.8278 5.52259 32.3687 6.43249 28.0502C7.33636 23.9416 9.07941 20.0613 11.5536 16.6498L11.5538 16.6495C14.0075 13.249 17.1312 10.3801 20.7351 8.21726C24.5056 5.96976 28.6796 4.47221 33.0249 3.80791C34.7826 3.54045 36.5581 3.40467 38.3363 3.40171C40.9887 3.40268 43.6323 3.7064 46.2151 4.3069L46.2153 4.30696C50.3903 5.27064 54.3484 6.99822 57.8876 9.40146L57.8885 9.40202C61.4701 11.7987 64.5529 14.8598 66.9681 18.4176L66.9685 18.4183C69.4925 22.0912 71.2504 26.2297 72.1385 30.5894Z" fill="#3D3D3D" stroke="#8A8A8A" stroke-width="0.3" stroke-linecap="round" stroke-linejoin="round"/>
<path d="M75.0221 27.326L75.0224 27.3274C75.946 31.6605 75.9936 36.133 75.1625 40.4845C74.3321 44.7869 72.6545 48.8838 70.2261 52.5394C67.8094 56.126 64.6903 59.1914 61.0552 61.5527L61.0551 61.5527C57.3618 63.9534 53.1921 65.5357 48.8291 66.1922L48.8285 66.1923C47.1839 66.4465 45.522 66.5745 43.8576 66.5751C41.03 66.5532 38.2175 66.1632 35.4918 65.415L35.4912 65.4148C26.8572 63.0866 19.3809 57.6934 14.4763 50.2556L14.4756 50.2546C11.96 46.5055 10.2075 42.303 9.31668 37.8842L9.31641 37.8829C8.40642 33.5645 8.40638 29.1054 9.31627 24.7869C10.221 20.6806 11.9597 16.8012 14.4257 13.3864C16.887 9.98829 20.0141 7.11996 23.6189 4.95391C27.3867 2.70326 31.5619 1.20919 35.9082 0.556329L35.909 0.556201C37.6657 0.282347 39.4414 0.146549 41.2195 0.150067L41.22 0.150067C43.8682 0.146466 46.508 0.446302 49.0872 1.04364L49.0872 1.04366C53.262 2.00786 57.2201 3.7354 60.7596 6.13817L60.7604 6.13873C64.342 8.53541 67.425 11.5965 69.8401 15.1543L69.8408 15.1552C72.373 18.8248 74.1351 22.9642 75.0221 27.326Z" fill="#0D0D0D" stroke="white" stroke-width="0.3" stroke-linejoin="round"/>
<path d="M67.8126 28.7484L67.8128 28.7492L68.0299 38.9869L67.8826 38.9585C67.8826 38.9585 67.8826 38.9585 67.8826 38.9585C67.2366 42.3053 65.9293 45.4915 64.0365 48.3327C62.1713 51.1049 59.757 53.4698 56.9409 55.2827L56.9399 55.2834C54.0851 57.155 50.8592 58.3952 47.4806 58.9202C44.0178 59.4493 40.4824 59.26 37.0969 58.3642C30.2879 56.5157 24.3941 52.2557 20.5253 46.3869L20.5244 46.3856C18.5482 43.4518 17.1736 40.1592 16.4793 36.6964L16.4791 36.6952C15.78 33.3483 15.7799 29.8944 16.4789 26.5475C17.1743 23.4013 18.5102 20.4298 20.4043 17.8162L20.4044 17.816C22.3026 15.1888 24.7159 12.9706 27.4992 11.295C30.4443 9.52849 33.7065 8.34765 37.1046 7.81808C40.5522 7.28373 44.0711 7.4136 47.4694 8.2006L47.4696 8.20065C50.7615 8.95815 53.8842 10.314 56.6804 12.1998L56.6808 12.2001C59.4795 14.0746 61.8894 16.4667 63.7794 19.2461L63.78 19.2469C65.7566 22.1104 67.1286 25.3427 67.8126 28.7484Z" fill="#0D0D0D" stroke="#3D3D3D" stroke-width="0.3" stroke-linejoin="round"/>
<path d="M58.6331 29.2329L44.5662 46.5149L44.3534 16.5973L58.6331 29.2329Z" fill="#06C270" stroke="#0D0D0D" stroke-width="0.3" stroke-linecap="round" stroke-linejoin="round"/>
<path d="M47.4727 30.9914L33.3944 48.2848L33.1816 18.3667L47.4727 30.9914Z" fill="#06C270" stroke="#0D0D0D" stroke-width="0.3" stroke-linecap="round" stroke-linejoin="round"/>
<path d="M98.85 20C98.85 30.9629 89.9629 39.85 79 39.85C68.0371 39.85 59.15 30.9629 59.15 20C59.15 9.03715 68.0371 0.15 79 0.15C89.9629 0.15 98.85 9.03715 98.85 20Z" fill="#0D0D0D" stroke="#3D3D3D" stroke-width="0.3" stroke-linejoin="round"/>
<path d="M80.9931 24.639C81.6967 23.8342 82.1613 22.8336 82.3305 21.7587C82.4997 20.6838 82.3663 19.5808 81.9464 18.5835C81.4927 17.56 80.7522 16.704 79.8227 16.1285C78.9578 15.5956 77.9674 15.3253 76.9631 15.348C76.2585 15.3761 75.5659 15.5472 74.924 15.8516L72.5107 16.972L70.0975 18.1303C69.6165 18.3697 69.173 18.6838 68.7822 19.0619C67.9371 19.8471 67.354 20.893 67.1175 22.0476C66.881 23.2022 67.0035 24.4054 67.467 25.4825C68.0532 26.8209 69.1247 27.8617 70.446 28.3764C71.7673 28.891 73.2303 28.8372 74.5136 28.2269L78.8213 26.1749C79.637 25.8207 80.3756 25.2983 80.9931 24.639ZM79.871 22.1211C79.5681 22.8242 79.0387 23.3943 78.3749 23.7326L73.5484 26.0112C72.8155 26.3616 71.9793 26.3939 71.2236 26.1012C70.4678 25.8084 69.8546 25.2146 69.5184 24.4501C69.2117 23.6804 69.1968 22.8178 69.4768 22.037C69.7569 21.2563 70.3109 20.6158 71.0266 20.2453L75.5754 18.0799L75.8289 17.954C76.3536 17.7141 76.9319 17.6318 77.4989 17.7163C78.066 17.8008 78.5991 18.0488 79.0384 18.4324C79.3632 18.7223 79.6228 19.0834 79.7986 19.4899C79.9935 19.9033 80.1008 20.3556 80.1133 20.8161C80.1258 21.2767 80.0432 21.7346 79.871 22.1589V22.1211Z" fill="white" stroke="#0D0D0D" stroke-width="0.3" stroke-linecap="round" stroke-linejoin="round"/>
<path d="M87.8226 21.9072L82.6583 24.3496C82.1253 24.559 81.5625 24.6739 80.9932 24.6895C79.9854 24.7239 78.9891 24.4575 78.1214 23.9215C77.7475 23.6897 77.3995 23.4153 77.0838 23.1032C76.6202 22.6241 76.2442 22.061 75.9738 21.4414C75.7055 20.8221 75.55 20.1561 75.5153 19.4775C75.5153 19.339 75.5153 19.2005 75.5153 19.0494C75.5176 18.7446 75.5499 18.4409 75.6117 18.143L75.8531 18.0171C76.5425 17.6981 77.3208 17.6577 78.037 17.9038C77.9057 18.21 77.8281 18.5383 77.8078 18.8732C77.8011 18.9317 77.8011 18.9909 77.8078 19.0494C77.7925 19.5357 77.8876 20.0189 78.0853 20.4594C78.2799 20.8997 78.5688 21.2874 78.9299 21.5925C79.2195 21.8522 79.556 22.0491 79.9194 22.1716C80.642 22.4155 81.4262 22.3661 82.1154 22.0331L86.9418 19.7544C87.3072 19.5821 87.6361 19.3358 87.9095 19.0298C88.183 18.7238 88.3955 18.3642 88.5346 17.9719C88.6738 17.5796 88.737 17.1623 88.7204 16.7444C88.7038 16.3264 88.6078 15.916 88.438 15.537C88.2728 15.1589 88.0377 14.8186 87.7462 14.5354C87.4547 14.2523 87.1125 14.0319 86.7393 13.8869C86.3661 13.7419 85.9691 13.6751 85.5711 13.6904C85.1732 13.7057 84.7821 13.8027 84.4201 13.9759L79.859 16.1287C79.5883 15.9674 79.306 15.8284 79.0145 15.7132C78.3701 15.464 77.6864 15.3444 76.9994 15.3607C77.3749 14.9271 77.8199 14.565 78.3145 14.2906L83.4789 11.7728C84.1134 11.4708 84.7989 11.3023 85.4959 11.2768C86.1929 11.2514 86.8879 11.3694 87.5412 11.6243C88.1944 11.8792 88.7931 12.2658 89.3031 12.7622C89.8131 13.2586 90.2243 13.855 90.5134 14.5172C90.8084 15.1858 90.9728 15.9089 90.9969 16.6445C91.021 17.38 90.9045 18.1132 90.654 18.8012C90.4035 19.4892 90.0241 20.1182 89.538 20.6515C89.0519 21.1848 88.4687 21.6117 87.8226 21.9072Z" fill="white" stroke="#0D0D0D" stroke-width="0.3" stroke-linecap="round" stroke-linejoin="round"/>
<path d="M78.1213 23.897L77.2284 24.3124C78.0514 24.9698 79.042 25.3595 80.0761 25.4329C80.3999 25.2119 80.6993 24.9543 80.969 24.6649C79.9695 24.6932 78.9825 24.427 78.1213 23.897Z" fill="#0D0D0D" stroke="#0D0D0D" stroke-width="0.3" stroke-linecap="round" stroke-linejoin="round"/>
<path d="M77.7958 18.8476C77.4281 18.7025 77.0354 18.6388 76.6428 18.6604C76.2502 18.6821 75.8662 18.7887 75.5153 18.9735C75.5176 18.6687 75.5499 18.365 75.6117 18.0671L75.8531 17.9412C76.5425 17.6222 77.3208 17.5818 78.037 17.8279C77.8958 18.1489 77.814 18.4949 77.7958 18.8476Z" fill="#0D0D0D" stroke="#0D0D0D" stroke-width="0.3" stroke-linecap="round" stroke-linejoin="round"/>
</svg>
