<svg width="15" height="16" viewBox="0 0 15 16" fill="none" xmlns="http://www.w3.org/2000/svg">
<path d="M7.51123 5.15983V4.10668V3.70667L7.11123 3.70668C6.09251 3.70668 5.09653 4.00901 4.24974 4.57539C3.40296 5.14178 2.74335 5.94673 2.35438 6.88828C1.9654 7.82988 1.86481 8.86569 2.06495 9.86452C2.2651 10.8634 2.75717 11.7804 3.47888 12.4994C4.20057 13.2184 5.11933 13.707 6.11897 13.9035C7.11859 14.0999 8.15403 13.9952 9.09412 13.6027C10.0342 13.2102 10.8366 12.5475 11.3998 11.6986C11.9626 10.8503 12.2611 9.85419 12.2578 8.83625C12.2633 7.99684 12.0547 7.17219 11.6545 6.43928L12.9885 5.58926C13.5494 6.59311 13.8382 7.72893 13.8224 8.88341L13.8223 8.88341V8.88889C13.8223 10.2162 13.4286 11.5137 12.6912 12.6174C11.9538 13.721 10.9056 14.5812 9.6793 15.0891C8.453 15.5971 7.10372 15.73 5.8019 15.471C4.50006 15.2121 3.30421 14.5729 2.36565 13.6344C1.42708 12.6958 0.787887 11.5 0.528938 10.1982C0.269991 8.89635 0.402953 7.54697 0.910906 6.32066C1.41885 5.09437 2.27908 4.04624 3.38272 3.30881C4.48636 2.57138 5.7839 2.17778 7.11123 2.17778H7.51123V1.77778V0.726965L11.02 2.9501L7.51123 5.15983Z" fill="white" stroke="black" stroke-width="0.8"/>
</svg>
