<svg width="152" height="138" viewBox="0 0 152 138" fill="none" xmlns="http://www.w3.org/2000/svg">
<g id="Group 18145747">
<g id="Group 18145704">
<g id="Group 18145697">
<path id="Vector" d="M2.70119 94.9879C0.412079 96.1852 0.419601 99.4758 2.72377 100.666L70.3653 135.544C73.7614 137.299 77.7899 137.284 81.1859 135.507L149.874 99.4908C152.163 98.2861 152.156 94.9955 149.852 93.8133L82.0443 58.8818C78.6408 57.1273 74.6122 57.1424 71.2162 58.927L2.69365 94.9729V94.9879H2.70119Z" fill="#0D0D0D" stroke="#252525" stroke-width="0.4" stroke-linecap="round" stroke-linejoin="round"/>
<path id="Vector_2" d="M2.70119 87.4554C0.412079 88.6527 0.419601 91.9433 2.72377 93.1255L70.3653 128.004C73.7614 129.759 77.7899 129.744 81.1859 127.967L149.874 91.9508C152.163 90.746 152.156 87.4554 149.852 86.2732L82.0443 51.3418C78.6408 49.5873 74.6122 49.6023 71.2162 51.3869L2.69365 87.4328V87.4479L2.70119 87.4554Z" fill="#3D3D3D" stroke="#8A8A8A" stroke-width="0.4" stroke-linecap="round" stroke-linejoin="round"/>
<g id="Mask group">
<mask id="mask0_2203_28294" style="mask-type:alpha" maskUnits="userSpaceOnUse" x="0" y="49" width="152" height="81">
<path id="Vector_3" d="M2.70128 87.4593C0.41217 88.6566 0.419693 91.9472 2.72386 93.1294L70.3654 128.008C73.7615 129.763 77.79 129.748 81.186 127.97L149.874 91.9547C152.163 90.7499 152.156 87.4593 149.852 86.2771L82.0444 51.3457C78.6409 49.5912 74.6123 49.6063 71.2163 51.3909L2.69374 87.4367V87.4518L2.70128 87.4593Z" fill="#3D3D3D" stroke="#8A8A8A" stroke-width="0.4" stroke-linecap="round" stroke-linejoin="round"/>
</mask>
<g mask="url(#mask0_2203_28294)">
<path id="Vector_4" d="M59.0461 16.5586L109.171 80.5927L63.1663 117.855L8.16538 107.598L-21.4972 83.8066C-24.4677 82.2679 -24.5296 78.0717 -21.6829 76.4087L59.0461 16.5586Z" fill="#0D0D0D" stroke="#0D0D0D" stroke-width="0.4" stroke-linecap="round" stroke-linejoin="round"/>
</g>
</g>
<path id="Vector_5" opacity="0.5" d="M2.70119 87.4554C0.412081 88.6527 0.419604 91.9433 2.72377 93.1255L70.3653 128.004C73.7614 129.759 77.7899 129.744 81.1859 127.967L149.874 91.9508C152.163 90.746 152.156 87.4554 149.852 86.2732L82.0443 51.3418C78.6408 49.5873 74.6122 49.6023 71.2162 51.3869L2.69365 87.4328V87.4479L2.70119 87.4554Z" stroke="#8A8A8A" stroke-width="0.4" stroke-linecap="round" stroke-linejoin="round"/>
<g id="Group 18145744">
<g id="Group">
<path id="Vector_6" fill-rule="evenodd" clip-rule="evenodd" d="M51.1632 42.7438V74.9472C51.1632 76.6754 50.1815 78.2502 48.6374 79.0273L23.7063 92.3673C22.0804 93.1752 20.1579 91.9889 20.1579 90.1687V57.9654C20.1579 56.2372 21.1396 54.6624 22.6837 53.8852L47.6148 40.5452C49.2407 39.7374 51.1632 40.9236 51.1632 42.7438Z" fill="#161616" stroke="#8A8A8A" stroke-width="0.4" stroke-linejoin="round"/>
<g id="Group 18145748">
<path id="Vector_7" d="M42.4679 59.5519V71.0831L29.7664 77.6912V66.1599L36.1121 57.5342L42.4679 59.562V59.5519Z" stroke="#D2D2D2" stroke-width="0.6" stroke-linecap="round" stroke-linejoin="round"/>
<path id="Vector_8" d="M36.4643 67.0478C36.4643 65.6455 35.5159 64.9998 34.3457 65.6052C33.1754 66.2105 32.2271 67.8448 32.2271 69.2471V72.6066L36.4643 70.4073V67.0478Z" stroke="#D2D2D2" stroke-width="0.6" stroke-linecap="round" stroke-linejoin="round"/>
<path id="Vector_9" d="M29.7663 73.8981L42.4779 67.29" stroke="#D2D2D2" stroke-width="0.6"/>
<path id="Vector_10" d="M38.5848 65.9367L42.4689 63.9189" stroke="#D2D2D2" stroke-width="0.6"/>
</g>
</g>
</g>
<g id="Group_2">
<path id="Vector_11" fill-rule="evenodd" clip-rule="evenodd" d="M47.7377 2.33147V25.6731C47.7377 26.9257 47.0261 28.0672 45.9069 28.6305L27.8364 38.2995C26.6578 38.8851 25.2644 38.0253 25.2644 36.706V13.3644C25.2644 12.1117 25.9759 10.9703 27.0951 10.4069L45.1657 0.737882C46.3442 0.152331 47.7377 1.01213 47.7377 2.33147Z" fill="#161616" stroke="#8A8A8A" stroke-width="0.4" stroke-linejoin="round"/>
<g id="Group 18145749">
<path id="Vector_12" d="M36.5051 13.96L29.9678 21.3328L36.5051 21.7545L43.0344 14.3898L36.5051 13.96Z" stroke="#D2D2D2" stroke-width="0.4" stroke-linecap="round" stroke-linejoin="round"/>
<path id="Vector_13" d="M41.8099 18.5587V15.7686L36.5054 17.8531" stroke="#D2D2D2" stroke-width="0.4" stroke-linecap="round" stroke-linejoin="round"/>
<path id="Vector_14" d="M41.8028 19.8714C42.1029 19.7091 42.3543 19.2955 42.3543 18.9386C42.3543 18.5817 42.111 18.4276 41.8028 18.5898C41.4945 18.7521 41.2512 19.1657 41.2512 19.5226C41.2512 19.8795 41.4945 20.0336 41.8028 19.8714Z" stroke="#D2D2D2" stroke-width="0.4" stroke-linecap="round" stroke-linejoin="round"/>
<path id="Vector_15" d="M32.4186 21.5099V25.0138C32.4186 25.6384 32.816 26.052 33.619 26.1007C34.5274 26.0926 35.5088 25.8087 36.5065 25.2815C37.5041 24.7543 38.4855 23.9918 39.3939 23.0348C40.1969 22.1426 40.5943 21.3071 40.5943 20.6826V17.1787" stroke="#D2D2D2" stroke-width="0.4" stroke-linecap="round" stroke-linejoin="round"/>
</g>
</g>
<path id="Vector_16" fill-rule="evenodd" clip-rule="evenodd" d="M70.9717 27.7597V37.2951C70.9717 37.8068 70.681 38.2731 70.2238 38.5032L62.8416 42.4532C62.3602 42.6924 61.791 42.3412 61.791 41.8022V32.2668C61.791 31.7551 62.0816 31.2888 62.5389 31.0586L69.921 27.1087C70.4024 26.8695 70.9717 27.2207 70.9717 27.7597Z" fill="#0D0D0D" stroke="#8A8A8A" stroke-width="0.4" stroke-linejoin="round"/>
<g id="Group 18145741">
<path id="Vector_17" d="M110.464 30.9394L50.9682 61.741C48.5095 63.0191 46.9582 65.5558 46.9582 68.3365V107.441C46.9582 109.334 48.9681 110.553 50.656 109.685L110.152 78.9028C112.61 77.6345 114.162 75.088 114.162 72.3074V33.1834C114.162 31.2907 112.152 30.0711 110.464 30.9394Z" fill="white" stroke="#0D0D0D" stroke-width="0.4" stroke-linecap="round" stroke-linejoin="round"/>
<path id="Vector_18" d="M111.742 31.5723L52.2463 62.3738C49.7876 63.6422 48.2363 66.1886 48.2363 68.9693V108.074C48.2363 109.966 50.2461 111.186 51.934 110.318L111.43 79.5356C113.888 78.2673 115.44 75.7208 115.44 72.9402V33.8163C115.44 31.9235 113.43 30.7039 111.742 31.5723Z" fill="#161616" stroke="#868686" stroke-width="0.4" stroke-linejoin="round"/>
</g>
<g id="Group 18145740">
<path id="Vector_19" d="M122.406 38.1211L62.9102 68.9226C60.4516 70.191 58.9003 72.7375 58.9003 75.5181V114.622C58.9003 116.515 60.9101 117.735 62.598 116.867L122.094 86.0845C124.552 84.8161 126.104 82.2697 126.104 79.4988V40.3749C126.104 38.4821 124.094 37.2625 122.406 38.1308V38.1211Z" fill="white" stroke="#0D0D0D" stroke-width="0.4" stroke-linecap="round" stroke-linejoin="round"/>
<path id="Vector_20" d="M123.586 38.7724L64.0905 69.574C61.6319 70.8424 60.0806 73.3888 60.0806 76.1597V115.264C60.0806 117.157 62.0904 118.376 63.7783 117.508L123.274 86.7261C125.733 85.4577 127.284 82.9113 127.284 80.1404V41.0165C127.284 39.1237 125.274 37.9041 123.586 38.7724Z" fill="white" stroke="#0D0D0D" stroke-width="0.4" stroke-linecap="round" stroke-linejoin="round"/>
<path id="Vector_21" d="M67.1731 105.854C67.1731 106.693 67.7682 107.074 68.4902 106.703L76.5784 102.605C77.3101 102.234 77.8955 101.259 77.8955 100.42C77.8955 99.5804 77.3004 99.1999 76.5784 99.5707L68.4902 103.668C67.7584 104.039 67.1731 105.015 67.1731 105.854Z" fill="white" stroke="#3D3D3D" stroke-width="0.4" stroke-linecap="round" stroke-linejoin="round"/>
<path id="Vector_22" d="M110.931 83.6664C110.931 84.5055 111.526 84.886 112.248 84.5152L120.337 80.4175C121.068 80.0467 121.654 79.0711 121.654 78.232C121.654 77.3929 121.059 77.0124 120.337 77.3832L112.248 81.4809C111.517 81.8517 110.931 82.8274 110.931 83.6664Z" fill="white" stroke="#3D3D3D" stroke-width="0.4" stroke-linecap="round" stroke-linejoin="round"/>
<path id="Vector_23" d="M96.3465 91.0629C96.3465 91.902 96.9417 92.2825 97.6637 91.9117L105.752 87.814C106.484 87.4432 107.069 86.4676 107.069 85.6285C107.069 84.7894 106.474 84.4089 105.752 84.7797L97.6637 88.8774C96.9319 89.2482 96.3465 90.2239 96.3465 91.0629Z" fill="white" stroke="#3D3D3D" stroke-width="0.4" stroke-linecap="round" stroke-linejoin="round"/>
<path id="Vector_24" d="M81.7603 98.4574C81.7603 99.2965 82.3555 99.677 83.0774 99.3063L91.1657 95.2085C91.8974 94.8378 92.4828 93.8621 92.4828 93.023C92.4828 92.184 91.8876 91.8035 91.1657 92.1742L83.0774 96.272C82.3457 96.6427 81.7603 97.6184 81.7603 98.4574Z" fill="white" stroke="#3D3D3D" stroke-width="0.4" stroke-linecap="round" stroke-linejoin="round"/>
<path id="Vector_25" d="M67.1741 84.6451V79.5117C67.1741 78.754 67.7045 77.8731 68.3581 77.5417L76.1056 73.6111C76.7591 73.2796 77.2895 73.6205 77.2895 74.3782V79.5117C77.2895 80.2694 76.7591 81.1502 76.1056 81.4817L68.3581 85.4123C67.7045 85.7438 67.1741 85.4028 67.1741 84.6451Z" fill="#D2D2D2" stroke="#3D3D3D" stroke-width="0.4" stroke-miterlimit="10"/>
</g>
<g id="Group 18145742">
<path id="Vector_26" d="M109.435 103.04L96.3455 100.647V83.7832L109.435 103.04Z" fill="#0D0D0D" stroke="#0D0D0D" stroke-width="0.4" stroke-linecap="round" stroke-linejoin="round"/>
<g id="Group_3">
<path id="Vector_27" d="M105.422 67.1215C106.506 66.5671 107.604 66.1749 108.715 65.9585L113.147 65.1201L118.059 102.255L113.847 103.039C113.71 103.066 113.572 103.093 113.435 103.12C106.918 104.08 100.332 99.577 97.6013 91.6119C94.3083 82.024 97.8071 71.0568 105.436 67.1215H105.422Z" fill="#8A8A8A" stroke="#0D0D0D" stroke-width="0.4" stroke-linecap="round" stroke-linejoin="round"/>
<g id="Group_4">
<path id="Vector_28" d="M101.797 90.8126C104.651 99.1158 111.662 103.66 118.44 102.172C119.497 101.942 120.54 101.563 121.555 101.036C129.17 97.1008 132.683 86.1336 129.39 76.5457C126.591 68.4048 119.799 63.8745 113.144 65.1051C111.964 65.3215 110.784 65.7272 109.618 66.3222C102.003 70.2574 98.4903 81.2247 101.783 90.8126H101.797Z" fill="white" stroke="#0D0D0D" stroke-width="0.4" stroke-linecap="round" stroke-linejoin="round"/>
<path id="Vector_29" d="M104.413 89.775C106.773 96.8882 112.591 100.783 118.217 99.5117C119.095 99.3088 119.959 98.9978 120.796 98.538C127.108 95.1707 130.016 85.7857 127.286 77.5772C124.967 70.6128 119.328 66.7316 113.812 67.7729C112.824 67.9622 111.85 68.3003 110.89 68.8142C104.578 72.1814 101.669 81.5665 104.4 89.775H104.413Z" fill="#0D0D0D" stroke="#0D0D0D" stroke-width="0.4" stroke-linecap="round" stroke-linejoin="round"/>
<g id="Group 18145743">
<path id="Vector_30" d="M114.976 86.1534L111.22 83.5702L109.882 86.3669L115.926 90.5221L121.804 78.4034L119.509 76.834L114.976 86.1534Z" fill="#4FE3A3"/>
</g>
</g>
</g>
</g>
</g>
<path id="Vector_31" fill-rule="evenodd" clip-rule="evenodd" d="M81.206 15.169V19.7268C81.206 19.9714 81.0671 20.1943 80.8486 20.3043L77.32 22.1923C77.0899 22.3067 76.8178 22.1388 76.8178 21.8812V17.3233C76.8178 17.0787 76.9567 16.8559 77.1753 16.7459L80.7038 14.8578C80.9339 14.7435 81.206 14.9114 81.206 15.169Z" fill="#0D0D0D" stroke="#3D3D3D" stroke-width="0.4" stroke-linejoin="round"/>
</g>
<path id="Vector_32" d="M127.284 50.0371L124.787 52.5371L127.284 55.0371L129.781 52.5371L127.284 50.0371Z" fill="white" stroke="#0D0D0D" stroke-width="0.4" stroke-linecap="round" stroke-linejoin="round"/>
<path id="Vector_33" d="M8.53925 112.795L6.54175 114.795L8.53925 116.795L10.5367 114.795L8.53925 112.795Z" fill="#8A8A8A" stroke="#0D0D0D" stroke-width="0.4" stroke-linecap="round" stroke-linejoin="round"/>
</g>
</svg>
