<svg width="66" height="52" viewBox="0 0 66 52" fill="none" xmlns="http://www.w3.org/2000/svg">
<path d="M46.3932 45.2047L8.27499 51L0.5 11.7136L3.86045 11.214L38.6452 6L45.8346 42.3615L46.3932 45.2047Z" fill="#FF784B" stroke="black" stroke-width="0.3" stroke-linecap="round" stroke-linejoin="round"/>
<path fill-rule="evenodd" clip-rule="evenodd" d="M45.9729 43.0652L9.9206 48.6454L2.50305 11.4157L3.86047 11.2138L38.6452 5.99988L45.8346 42.3614L45.9729 43.0652Z" fill="black"/>
<path d="M45.9729 43.0652L45.9958 43.2134C46.0362 43.2072 46.0723 43.1847 46.0957 43.1513C46.1191 43.1179 46.1279 43.0763 46.1201 43.0363L45.9729 43.0652ZM9.9206 48.6454L9.77349 48.6747C9.78919 48.7535 9.86416 48.8059 9.94354 48.7937L9.9206 48.6454ZM2.50305 11.4157L2.48099 11.2673C2.44038 11.2733 2.40402 11.2957 2.38039 11.3293C2.35675 11.3629 2.34792 11.4047 2.35594 11.445L2.50305 11.4157ZM3.86047 11.2138L3.88253 11.3622L3.88271 11.3622L3.86047 11.2138ZM38.6452 5.99988L38.7924 5.97078C38.7768 5.89217 38.7022 5.83966 38.623 5.85154L38.6452 5.99988ZM45.8346 42.3614L45.9818 42.3325L45.9818 42.3323L45.8346 42.3614ZM45.9499 42.917L9.89766 48.4972L9.94354 48.7937L45.9958 43.2134L45.9499 42.917ZM10.0677 48.6161L2.65016 11.3863L2.35594 11.445L9.77349 48.6747L10.0677 48.6161ZM2.52511 11.564L3.88253 11.3622L3.83841 11.0655L2.48099 11.2673L2.52511 11.564ZM3.88271 11.3622L38.6675 6.14822L38.623 5.85154L3.83823 11.0655L3.88271 11.3622ZM38.4981 6.02897L45.6875 42.3905L45.9818 42.3323L38.7924 5.97078L38.4981 6.02897ZM45.6874 42.3903L45.8257 43.0941L46.1201 43.0363L45.9818 42.3325L45.6874 42.3903Z" fill="black"/>
<path d="M50.1344 41.0679L10.9378 46.9922L2.93359 6.84078L42.158 1.00006L50.1344 41.0679Z" fill="#FFDF0D" stroke="black" stroke-width="0.3" stroke-linejoin="round"/>
<mask id="mask0_31350_4403" style="mask-type:alpha" maskUnits="userSpaceOnUse" x="2" y="0" width="49" height="47">
<path d="M50.1344 40.9679L10.9378 46.8922L2.93359 6.74074L42.158 0.900024L50.1344 40.9679Z" fill="#FFDF0D"/>
</mask>
<g mask="url(#mask0_31350_4403)">
<path d="M27.5 44.4L46.5 12.8868L42.5 2.5L14.5 46.9L27.5 44.4Z" fill="white"/>
</g>
<path d="M18.3663 28.3581L12.9561 29.1659L11.9277 24.0309L17.3473 23.2138L18.3663 28.3581Z" fill="white" stroke="black" stroke-width="0.3" stroke-linecap="round" stroke-linejoin="round"/>
<path d="M20.4176 38.6437L15.0073 39.4422L13.9883 34.3072L19.3985 33.4994L20.4176 38.6437Z" fill="white" stroke="black" stroke-width="0.3" stroke-linecap="round" stroke-linejoin="round"/>
<path d="M43.4479 35.2104L22.937 38.2562L21.918 33.1212L42.4195 30.0754L43.4479 35.2104Z" stroke="black" stroke-width="0.3" stroke-linejoin="round"/>
<path d="M41.399 24.9234L20.8882 27.9784L19.8691 22.8527L40.3707 19.7977L41.399 24.9234Z" stroke="black" stroke-width="0.3" stroke-linejoin="round"/>
<path d="M39.3522 14.6597L18.8413 17.7054L17.8223 12.5704L38.3238 9.50616L39.3522 14.6597Z" stroke="black" stroke-width="0.3" stroke-linejoin="round"/>
<path d="M16.3214 18.0867L10.9111 18.8852L9.88281 13.7502L15.3023 12.9517L16.3214 18.0867Z" fill="white" stroke="black" stroke-width="0.3" stroke-linecap="round" stroke-linejoin="round"/>
<path fill-rule="evenodd" clip-rule="evenodd" d="M45.4539 9.48853C43.1594 10.5094 41.2097 12.1759 39.8415 14.2857C38.4733 16.3954 37.7454 18.8579 37.7461 21.3742C37.764 24.7654 39.0957 28.017 41.4603 30.4426C43.825 32.8682 47.0375 34.2779 50.4195 34.3742L45.4539 9.48853Z" fill="black" stroke="black" stroke-width="0.3" stroke-linecap="round" stroke-linejoin="round"/>
<path fill-rule="evenodd" clip-rule="evenodd" d="M52.4389 6.23886C55.8888 6.23389 59.2001 7.59894 61.6482 10.0353C64.0963 12.4717 65.4817 15.781 65.5013 19.2389C65.494 22.7056 64.1142 26.0277 61.665 28.4756C59.2159 30.9235 55.8976 32.297 52.4389 32.2945C48.9786 32.2994 45.6579 30.9271 43.2067 28.4789C40.7556 26.0307 39.3746 22.7072 39.3672 19.2389C39.3868 15.7794 40.7735 12.4687 43.2236 10.032C45.6737 7.59538 48.9874 6.23143 52.4389 6.23886Z" fill="white" stroke="black" stroke-width="0.3" stroke-linecap="round" stroke-linejoin="round"/>
<path d="M52.4365 9.36723C53.7383 9.36479 55.0278 9.6193 56.2314 10.1164C57.435 10.6134 58.529 11.3432 59.4512 12.2641C60.3734 13.185 61.1056 14.279 61.606 15.4835C62.1064 16.6881 62.3652 17.9795 62.3677 19.2843C62.3664 20.5899 62.1086 21.8824 61.6087 23.088C61.1089 24.2936 60.3768 25.3886 59.4545 26.3105C58.5322 27.2324 57.4376 27.963 56.2334 28.4606C55.0292 28.9583 53.739 29.2132 52.4365 29.2108C51.1332 29.2145 49.842 28.9605 48.6368 28.4634C47.4315 27.9663 46.3358 27.2358 45.4125 26.3138C44.4892 25.3918 43.7564 24.2964 43.2559 23.0902C42.7555 21.884 42.4973 20.5906 42.4961 19.2843C42.4985 17.9787 42.7577 16.6865 43.2586 15.4814C43.7596 14.2762 44.4926 13.1819 45.4158 12.2609C46.339 11.3398 47.4342 10.6103 48.6389 10.1138C49.8436 9.61724 51.134 9.36356 52.4365 9.36723Z" fill="#9772FF" stroke="black" stroke-width="0.3" stroke-linecap="round" stroke-linejoin="round"/>
<path fill-rule="evenodd" clip-rule="evenodd" d="M51.2852 21.541H53.5734V13.6016H51.2852V21.541Z" fill="white" stroke="black" stroke-width="0.3" stroke-linecap="round" stroke-linejoin="round"/>
<path fill-rule="evenodd" clip-rule="evenodd" d="M51.2676 24.9768H53.5929V22.6832H51.2676V24.9768Z" fill="white" stroke="black" stroke-width="0.3" stroke-linecap="round" stroke-linejoin="round"/>
</svg>
