<svg width="371" height="812" viewBox="0 0 371 812" fill="none" xmlns="http://www.w3.org/2000/svg">
<g opacity="0.25">
<path d="M371.314 34.3921H0V68.587H371.314V34.3921Z" stroke="#4C4F51" stroke-width="0.25" stroke-miterlimit="10"/>
<path d="M371.314 68.5872H0V102.782H371.314V68.5872Z" stroke="#4C4F51" stroke-width="0.25" stroke-miterlimit="10"/>
<path d="M371.314 102.782H0V136.977H371.314V102.782Z" stroke="#4C4F51" stroke-width="0.25" stroke-miterlimit="10"/>
<path d="M371.314 136.977H0V171.172H371.314V136.977Z" stroke="#4C4F51" stroke-width="0.25" stroke-miterlimit="10"/>
<path d="M371.314 171.172H0V205.367H371.314V171.172Z" stroke="#4C4F51" stroke-width="0.25" stroke-miterlimit="10"/>
<path d="M371.314 205.367H0V239.562H371.314V205.367Z" stroke="#4C4F51" stroke-width="0.25" stroke-miterlimit="10"/>
<path d="M371.314 239.562H0V273.757H371.314V239.562Z" stroke="#4C4F51" stroke-width="0.25" stroke-miterlimit="10"/>
<path d="M371.314 273.757H0V307.952H371.314V273.757Z" stroke="#4C4F51" stroke-width="0.25" stroke-miterlimit="10"/>
<path d="M371.314 307.952H0V342.147H371.314V307.952Z" stroke="#4C4F51" stroke-width="0.25" stroke-miterlimit="10"/>
<path d="M371.314 342.147H0V376.341H371.314V342.147Z" stroke="#4C4F51" stroke-width="0.25" stroke-miterlimit="10"/>
<path d="M371.314 376.342H0V410.537H371.314V376.342Z" stroke="#4C4F51" stroke-width="0.25" stroke-miterlimit="10"/>
<path d="M371.314 444.337H0V478.532H371.314V444.337Z" stroke="#4C4F51" stroke-width="0.25" stroke-miterlimit="10"/>
<path d="M371.314 478.532H0V512.727H371.314V478.532Z" stroke="#4C4F51" stroke-width="0.25" stroke-miterlimit="10"/>
<path d="M371.314 512.727H0V546.922H371.314V512.727Z" stroke="#4C4F51" stroke-width="0.25" stroke-miterlimit="10"/>
<path d="M371.314 546.922H0V581.117H371.314V546.922Z" stroke="#4C4F51" stroke-width="0.25" stroke-miterlimit="10"/>
<path d="M371.314 581.116H0V615.311H371.314V581.116Z" stroke="#4C4F51" stroke-width="0.25" stroke-miterlimit="10"/>
<path d="M371.314 615.311H0V649.506H371.314V615.311Z" stroke="#4C4F51" stroke-width="0.25" stroke-miterlimit="10"/>
<path d="M371.314 649.506H0V683.701H371.314V649.506Z" stroke="#4C4F51" stroke-width="0.25" stroke-miterlimit="10"/>
<path d="M371.314 683.701H0V717.896H371.314V683.701Z" stroke="#4C4F51" stroke-width="0.25" stroke-miterlimit="10"/>
<path d="M371.314 717.896H0V752.091H371.314V717.896Z" stroke="#4C4F51" stroke-width="0.25" stroke-miterlimit="10"/>
<path d="M371.314 752.091H0V786.286H371.314V752.091Z" stroke="#4C4F51" stroke-width="0.25" stroke-miterlimit="10"/>
<path d="M371.314 786.286H0V820.481H371.314V786.286Z" stroke="#4C4F51" stroke-width="0.25" stroke-miterlimit="10"/>
<path d="M371.161 803.742L371.161 0L338.004 0L338.004 803.742H371.161Z" stroke="#4C4F51" stroke-width="0.25" stroke-miterlimit="10"/>
<path d="M338.004 803.742L338.004 0L303.951 0L303.951 803.742H338.004Z" stroke="#4C4F51" stroke-width="0.25" stroke-miterlimit="10"/>
<path d="M303.951 803.742L303.951 0L269.898 0L269.898 803.742H303.951Z" stroke="#4C4F51" stroke-width="0.25" stroke-miterlimit="10"/>
<path d="M269.898 803.742L269.898 0L235.845 0L235.845 803.742H269.898Z" stroke="#4C4F51" stroke-width="0.25" stroke-miterlimit="10"/>
<path d="M235.845 803.742L235.845 0L202.688 0L202.688 803.742H235.845Z" stroke="#4C4F51" stroke-width="0.25" stroke-miterlimit="10"/>
<path d="M202.688 803.742L202.688 0L168.635 0L168.635 803.742H202.688Z" stroke="#4C4F51" stroke-width="0.25" stroke-miterlimit="10"/>
<path d="M168.635 803.742L168.635 0L134.581 0L134.581 803.742H168.635Z" stroke="#4C4F51" stroke-width="0.25" stroke-miterlimit="10"/>
<path d="M134.582 803.742L134.582 0L101.424 0L101.424 803.742H134.582Z" stroke="#4C4F51" stroke-width="0.25" stroke-miterlimit="10"/>
<path d="M101.424 803.742L101.424 0L67.3713 0L67.3713 803.742H101.424Z" stroke="#4C4F51" stroke-width="0.25" stroke-miterlimit="10"/>
<path d="M67.3715 803.742L67.3715 0L33.3184 0L33.3184 803.742H67.3715Z" stroke="#4C4F51" stroke-width="0.25" stroke-miterlimit="10"/>
<path d="M33.3182 803.742L33.3182 0L0.161236 0L0.161236 803.742H33.3182Z" stroke="#4C4F51" stroke-width="0.25" stroke-miterlimit="10"/>
</g>
</svg>
