<svg width="22" height="6" viewBox="0 0 22 6" fill="none" xmlns="http://www.w3.org/2000/svg">
<g clip-path="url(#clip0_24346_2979)">
<path d="M3.22512 5.3421C1.98828 5.3421 0.988281 4.3421 0.988281 3.10525C0.988281 1.86841 1.98828 0.868408 3.22512 0.868408C4.46196 0.868408 5.46196 1.86841 5.46196 3.10525C5.46196 4.3421 4.46196 5.3421 3.22512 5.3421ZM11.0482 5.3421C9.81137 5.3421 8.81137 4.3421 8.81137 3.10525C8.81137 1.86841 9.81137 0.868408 11.0482 0.868408C12.2851 0.868408 13.2851 1.86841 13.2851 3.10525C13.2851 4.3421 12.2851 5.3421 11.0482 5.3421ZM18.8713 5.3421C17.6345 5.3421 16.6345 4.3421 16.6345 3.10525C16.6345 1.86841 17.6345 0.868408 18.8713 0.868408C20.1082 0.868408 21.1082 1.86841 21.1082 3.10525C21.1082 4.3421 20.1082 5.3421 18.8713 5.3421Z" fill="white" fill-opacity="0.9"/>
</g>
<defs>
<clipPath id="clip0_24346_2979">
<rect width="22" height="6" fill="white"/>
</clipPath>
</defs>
</svg>
