<svg width="166" height="188" viewBox="0 0 166 188" fill="none" xmlns="http://www.w3.org/2000/svg">
<mask id="mask0_4959_423" style="mask-type:alpha" maskUnits="userSpaceOnUse" x="0" y="0" width="166" height="188">
<rect width="166" height="188" fill="#161616"/>
</mask>
<path d="M305.093 111.489L169.055 42.4103C165.31 40.5117 160.754 40.5117 157.009 42.4103L20.9704 111.489C18.3777 112.804 18.3777 116.212 20.9704 117.526L156.987 186.625C160.732 188.523 165.288 188.523 169.033 186.625L305.082 117.526C307.675 116.212 307.675 112.804 305.082 111.489H305.093Z" fill="#121212"/>
<path d="M293.602 107.711L245.578 132.1C243.124 133.346 240.137 133.346 237.683 132.1L112.858 68.6679C111.108 67.7819 111.108 65.4842 112.858 64.5982L160.861 40.2281C163.315 38.9819 166.303 38.9819 168.757 40.2281L293.602 103.641C295.352 104.527 295.352 106.825 293.602 107.711Z" fill="#0D0D0D" stroke="#3D3D3D" stroke-width="0.25" stroke-linecap="round" stroke-linejoin="round"/>
<path d="M143.027 9.21289V65.884L132.481 71.2434V14.5723L143.027 9.21289Z" fill="#0D0D0D" stroke="#252525" stroke-width="0.25" stroke-linecap="round" stroke-linejoin="round"/>
<path d="M121.921 9.21289V65.884L132.479 71.2434V14.5723L121.921 9.21289Z" fill="#161616" stroke="#3D3D3D" stroke-width="0.25" stroke-linecap="round" stroke-linejoin="round"/>
<path d="M132.476 3.85156L121.918 9.21094L132.476 14.5703L143.035 9.21094L132.476 3.85156Z" fill="#3D3D3D" stroke="#8A8A8A" stroke-width="0.25" stroke-linecap="round" stroke-linejoin="round"/>
<path d="M162.631 37.4077V75.8454L152.072 81.2048V42.7671L162.631 37.4077Z" fill="#0D0D0D" stroke="#252525" stroke-width="0.25" stroke-linecap="round" stroke-linejoin="round"/>
<path d="M141.516 37.4077V75.8454L152.075 81.2048V42.7671L141.516 37.4077Z" fill="#161616" stroke="#3D3D3D" stroke-width="0.25" stroke-linecap="round" stroke-linejoin="round"/>
<path d="M152.072 32.0464L141.513 37.4058L152.072 42.7651L162.631 37.4058L152.072 32.0464Z" fill="#3D3D3D" stroke="#8A8A8A" stroke-width="0.25" stroke-linecap="round" stroke-linejoin="round"/>
<path d="M161.137 65.5952V85.811L171.695 91.1704V70.9661L161.137 65.5952Z" fill="#161616" stroke="#3D3D3D" stroke-width="0.25" stroke-linecap="round" stroke-linejoin="round"/>
<path d="M171.693 60.2339L161.134 65.5933L171.693 70.9526L182.251 65.5933L171.693 60.2339Z" fill="#3D3D3D" stroke="#8A8A8A" stroke-width="0.25" stroke-linecap="round" stroke-linejoin="round"/>
<path d="M101.131 135.466L19.0315 93.7852V105.927L101.131 147.608V135.466Z" fill="#0D0D0D" stroke="#3D3D3D" stroke-width="0.25" stroke-linecap="round" stroke-linejoin="round"/>
<path d="M142.734 114.34V126.471L101.132 147.608V135.466L142.734 114.34Z" fill="#0D0D0D" stroke="#252525" stroke-width="0.25" stroke-linecap="round" stroke-linejoin="round"/>
<path d="M19.0321 93.7864L101.132 135.468L142.734 114.341L60.6568 72.6602L19.0321 93.7864Z" fill="#161616" stroke="#8A8A8A" stroke-width="0.25" stroke-linecap="round" stroke-linejoin="round"/>
<path d="M76.3649 122.891V135.032L87.4395 140.662V128.531L76.3649 122.891Z" fill="#121212" stroke="#3D3D3D" stroke-width="0.25" stroke-linecap="round" stroke-linejoin="round"/>
<path d="M76.3616 122.888L87.4365 128.528L129.05 107.391L117.975 101.762L76.3616 122.888Z" fill="#3D3D3D" stroke="#D2D2D2" stroke-width="0.25" stroke-linecap="round" stroke-linejoin="round"/>
<path d="M116.148 115.703L34.06 74.0112V86.1531L116.148 127.834V115.703Z" fill="#0D0D0D" stroke="#3D3D3D" stroke-width="0.25" stroke-linecap="round" stroke-linejoin="round"/>
<path d="M157.767 94.5664V106.698L116.153 127.834V115.703L157.767 94.5664Z" fill="#0D0D0D" stroke="#252525" stroke-width="0.25" stroke-linecap="round" stroke-linejoin="round"/>
<path d="M34.0648 74.0125L116.153 115.704L157.767 94.5674L75.6895 52.8862L34.0648 74.0125Z" fill="#161616" stroke="#8A8A8A" stroke-width="0.25" stroke-linecap="round" stroke-linejoin="round"/>
<path d="M91.3867 103.127V115.269L102.473 120.888V108.756L91.3867 103.127Z" fill="#121212" stroke="#3D3D3D" stroke-width="0.25" stroke-linecap="round" stroke-linejoin="round"/>
<path d="M91.386 103.125L102.472 108.754L144.074 87.6178L132.999 81.9883L91.386 103.125Z" fill="#3D3D3D" stroke="#D2D2D2" stroke-width="0.25" stroke-linecap="round" stroke-linejoin="round"/>
<path d="M101.504 95.0432L78.4439 54.6812L129.721 80.7202L101.504 95.0432Z" fill="#0D0D0D" stroke="#121212" stroke-width="0.25" stroke-linecap="round" stroke-linejoin="round"/>
<path d="M53.3931 70.0906L68.2127 29.2922C68.668 28.0251 69.7379 27.1215 70.99 26.7372L74.5754 25.6466C75.7022 25.3038 76.977 25.3661 78.1266 25.9478L115.472 44.9136C118.181 46.295 119.444 49.2448 118.465 51.9349L103.646 92.7332C103.179 94.0108 102.109 94.9144 100.834 95.2987L97.2146 96.3997C96.0991 96.7217 94.8471 96.649 93.7316 96.0777L56.3752 77.1119C53.6663 75.7305 52.4028 72.7807 53.3817 70.0906H53.3931Z" fill="#0D0D0D" stroke="#3D3D3D" stroke-width="0.25" stroke-linecap="round" stroke-linejoin="round"/>
<path d="M53.3909 70.0887L68.2105 29.2904C68.6658 28.0232 69.7358 27.1196 70.9878 26.7353C72.1146 26.3822 73.4122 26.4445 74.5504 27.0261L111.895 45.992C114.604 47.3734 115.868 50.3231 114.889 53.0133L100.069 93.8116C99.6027 95.1099 98.4986 96.0239 97.201 96.3978C96.0856 96.7198 94.8335 96.6471 93.7181 96.0758L56.3617 77.11C53.6527 75.7286 52.3893 72.7788 53.3682 70.0887H53.3909Z" fill="#121212" stroke="#8A8A8A" stroke-width="0.25" stroke-linecap="round" stroke-linejoin="round"/>
<path d="M56.9162 71.6666L71.496 31.3262C71.7885 30.5147 72.8182 30.141 73.6373 30.5574L110.45 49.2541C111.292 49.6812 111.69 50.6102 111.386 51.4537L96.7707 91.7728C96.4782 92.5843 95.4485 92.9473 94.6294 92.5415L57.8523 73.8662C57.0098 73.4391 56.6119 72.5102 56.9162 71.6666Z" fill="#0D0D0D" stroke="#252525" stroke-width="0.25" stroke-linecap="round" stroke-linejoin="round"/>
<path d="M95.8337 67.6755L93.4957 66.5672L90.9761 68.1841C90.636 68.4066 90.1916 68.4097 89.8083 68.2268L74.9883 61.2461L68.5254 65.3705C68.135 65.6282 68.2063 66.242 68.6662 66.4591L85.8369 74.5481C86.2202 74.731 86.6644 74.7048 87.0046 74.4938L95.9745 68.7642C96.3649 68.5065 96.2937 67.8926 95.8337 67.6755Z" fill="#3D3D3D"/>
<path d="M81.2627 64.2155L73.8675 68.9259L80.1531 71.885L87.5484 67.1746L81.2627 64.2155Z" fill="#56CC93"/>
<path d="M99.6073 58.3073L82.4748 50.2296C82.0915 50.0468 81.6473 50.073 81.3071 50.284L72.3117 56.0022C71.9213 56.2599 71.9925 56.8737 72.4524 57.0908L89.5849 65.1685C89.9682 65.3513 90.4124 65.3251 90.7526 65.1141L99.7353 59.396C100.126 59.1383 100.055 58.5245 99.5946 58.3074L99.6073 58.3073Z" fill="#3D3D3D"/>
<path d="M95.2579 51.8327L85.2594 51.5303L88.1467 52.8899L77.6647 59.5572L83.9377 62.5163L94.407 55.8491L97.2815 57.1972L95.2579 51.8327Z" fill="#56CC93"/>
<path d="M175.413 129.518V153.151C175.413 153.717 175.103 154.291 174.474 154.62L147.712 168.203C146.966 168.578 146.136 168.777 145.315 168.777C144.494 168.777 143.647 168.585 142.884 168.203L116.173 154.643C115.536 154.314 115.217 153.732 115.217 153.151V129.518C115.217 128.937 115.527 128.355 116.173 128.027L142.91 114.459C143.664 114.084 144.485 113.893 145.315 113.893C146.145 113.893 146.949 114.084 147.695 114.459L174.474 128.05C175.103 128.371 175.413 128.944 175.413 129.518Z" fill="#0D0D0D" stroke="#3D3D3D" stroke-width="0.25" stroke-linecap="round" stroke-linejoin="round"/>
<path d="M175.411 129.518V153.151C175.411 153.717 175.101 154.291 174.472 154.619L147.71 168.203C146.964 168.578 146.134 168.776 145.313 168.776V113.885C146.126 113.885 146.947 114.076 147.693 114.451L174.472 128.042C175.101 128.363 175.411 128.937 175.411 129.51V129.518Z" fill="#0D0D0D" stroke="#8A8A8A" stroke-width="0.25" stroke-linecap="round" stroke-linejoin="round"/>
<path d="M147.694 114.461L174.481 128.059C175.738 128.694 175.738 130.346 174.481 130.996L147.719 144.587C146.219 145.352 144.392 145.352 142.883 144.587L116.171 131.019C114.889 130.369 114.889 128.694 116.171 128.044L142.908 114.468C144.4 113.711 146.202 113.711 147.694 114.468V114.461Z" fill="#0D0D0D" stroke="#8A8A8A" stroke-width="0.25" stroke-linecap="round" stroke-linejoin="round"/>
<path d="M150.479 128.338C151.593 127.712 151.43 126.906 150.015 126.1C148.599 125.295 146.789 125.227 144.979 125.675L143.725 123.146C147.16 122.34 150.78 122.922 153.356 124.377C156.118 125.921 157.186 128.361 154.076 130.107C150.456 132.121 145.304 130.42 143.192 131.606L139.827 129.726C143.006 127.958 148.088 129.704 150.479 128.361V128.338ZM135.51 131.673C136.647 131.047 138.481 131.047 139.641 131.673C140.801 132.3 140.801 133.352 139.664 133.979C138.527 134.605 136.694 134.605 135.533 133.979C134.373 133.352 134.373 132.3 135.51 131.673Z" fill="#8A8A8A"/>
<path d="M175.413 145.277C175.413 145.843 175.103 146.417 174.474 146.746L147.712 160.337C146.203 161.094 144.385 161.094 142.884 160.337L116.173 146.769C115.536 146.44 115.217 145.859 115.217 145.277" stroke="#3D3D3D" stroke-width="0.25" stroke-linecap="round" stroke-linejoin="round"/>
<path d="M175.413 137.401C175.413 137.967 175.103 138.541 174.474 138.87L147.712 152.461C146.203 153.218 144.385 153.218 142.884 152.461L116.173 138.893C115.536 138.564 115.217 137.983 115.217 137.401" stroke="#3D3D3D" stroke-width="0.25" stroke-linecap="round" stroke-linejoin="round"/>
<path d="M64.1605 148.324L53.6018 153.684L64.1605 159.043L74.7192 153.684L64.1605 148.324Z" fill="#121212" stroke="#0D0D0D" stroke-width="0.25" stroke-linecap="round" stroke-linejoin="round"/>
<path d="M66.2817 145.102V158.021L55.723 163.38V150.461L66.2817 145.102Z" fill="#0D0D0D" stroke="#252525" stroke-width="0.25" stroke-linecap="round" stroke-linejoin="round"/>
<path d="M45.1635 145.102V158.021L55.7222 163.38V150.461L45.1635 145.102Z" fill="#161616" stroke="#3D3D3D" stroke-width="0.25" stroke-linecap="round" stroke-linejoin="round"/>
<path d="M55.723 139.74L45.1643 145.1L55.723 150.459L66.2817 145.1L55.723 139.74Z" fill="#3D3D3D" stroke="#8A8A8A" stroke-width="0.25" stroke-linecap="round" stroke-linejoin="round"/>
</svg>
