<svg width="23" height="23" viewBox="0 0 23 23" fill="none" xmlns="http://www.w3.org/2000/svg">
<path d="M11.8037 19.2779C16.2673 19.2779 19.8858 15.6595 19.8858 11.1959C19.8858 6.73231 16.2673 3.11386 11.8037 3.11386C7.34013 3.11386 3.72168 6.73231 3.72168 11.1959C3.72168 15.6595 7.34013 19.2779 11.8037 19.2779Z" fill="#019A58"/>
<path d="M11.8044 21.933C17.7341 21.933 22.541 17.1261 22.541 11.1964C22.541 5.26677 17.7341 0.459839 11.8044 0.459839C5.8748 0.459839 1.06787 5.26677 1.06787 11.1964C1.06787 17.1261 5.8748 21.933 11.8044 21.933Z" stroke="#019B58" stroke-width="0.230894" stroke-miterlimit="10"/>
<path d="M11.8041 18.4076C15.7871 18.4076 19.0159 15.1788 19.0159 11.1958C19.0159 7.21282 15.7871 3.98398 11.8041 3.98398C7.82113 3.98398 4.59229 7.21282 4.59229 11.1958C4.59229 15.1788 7.82113 18.4076 11.8041 18.4076Z" fill="#06C270"/>
<path d="M8.41577 11.5469L9.22354 10.7545L10.6976 12.2371L14.3803 8.55098L15.1898 9.36216L10.7028 13.8373L8.41406 11.5469H8.41577Z" fill="white"/>
</svg>
