<svg width="313" height="173" viewBox="0 0 313 173" fill="none" xmlns="http://www.w3.org/2000/svg">
<rect x="1" width="312" height="172" fill="#FBFBFB"/>
<line x1="39.8" y1="172" x2="39.8" y2="9.45698e-09" stroke="#0D0D0D" stroke-opacity="0.1" stroke-width="0.4"/>
<line x1="0.8" y1="172" x2="0.799993" y2="9.45698e-09" stroke="#0D0D0D" stroke-opacity="0.1" stroke-width="0.4"/>
<line x1="78.8" y1="172" x2="78.8" y2="9.45698e-09" stroke="#0D0D0D" stroke-opacity="0.1" stroke-width="0.4"/>
<line x1="117.8" y1="172" x2="117.8" y2="9.45698e-09" stroke="#0D0D0D" stroke-opacity="0.1" stroke-width="0.4"/>
<line x1="156.8" y1="172" x2="156.8" y2="9.45698e-09" stroke="#0D0D0D" stroke-opacity="0.1" stroke-width="0.4"/>
<line x1="195.8" y1="172" x2="195.8" y2="9.45698e-09" stroke="#0D0D0D" stroke-opacity="0.1" stroke-width="0.4"/>
<line x1="234.8" y1="172" x2="234.8" y2="9.45698e-09" stroke="#0D0D0D" stroke-opacity="0.1" stroke-width="0.4"/>
<line x1="273.8" y1="172" x2="273.8" y2="9.45698e-09" stroke="#0D0D0D" stroke-opacity="0.1" stroke-width="0.4"/>
<line x1="312.8" y1="172" x2="312.8" y2="9.45698e-09" stroke="#0D0D0D" stroke-opacity="0.1" stroke-width="0.4"/>
<line x1="312" y1="43.2" x2="1" y2="43.2" stroke="#0D0D0D" stroke-opacity="0.1" stroke-width="0.4"/>
<line x1="312" y1="0.2" x2="1" y2="0.2" stroke="#0D0D0D" stroke-opacity="0.1" stroke-width="0.4"/>
<line x1="312" y1="86.2" x2="1" y2="86.2" stroke="#0D0D0D" stroke-opacity="0.1" stroke-width="0.4"/>
<line x1="312" y1="129.2" x2="1" y2="129.2" stroke="#0D0D0D" stroke-opacity="0.1" stroke-width="0.4"/>
<line x1="312" y1="172.2" x2="1" y2="172.2" stroke="#0D0D0D" stroke-opacity="0.1" stroke-width="0.4"/>
</svg>
