<svg width="122" height="102" viewBox="0 0 122 102" fill="none" xmlns="http://www.w3.org/2000/svg">
<path d="M46.3085 29.7091L35.6347 23.6005L46.2152 17.4719H34.2813L40.3683 7.10193L29.7612 13.1772V1.02001L23.7009 11.4833L17.5407 1V13.1772L7.08024 7.12194L13.0472 17.4719H1L11.6471 23.6005L1.09334 29.7091H13.0472L6.94024 40.0791L17.5407 34.0505V46.1677L23.7009 35.8244L29.7612 46.181V34.0505L40.4149 40.2925L34.2813 29.7091H46.3085Z" fill="#FF784B" stroke="#0D0D0D" stroke-width="0.5" stroke-linejoin="round"/>
<path d="M106.364 66.3339L44.0683 75.1567L31.7012 15.8445L94.0037 7.02173L106.364 66.3339Z" fill="white" stroke="black" stroke-width="0.5" stroke-linecap="round" stroke-linejoin="round"/>
<path d="M97.6036 49.4691L45.5015 56.8514L37.8545 20.1664L89.9566 12.7908L97.6036 49.4691Z" fill="black" stroke="black" stroke-width="0.5" stroke-linecap="round" stroke-linejoin="round"/>
<g style="mix-blend-mode:screen">
<path d="M81.1635 14.0378L68.2764 53.6237L89.3333 50.6667L94.3333 33.6667L89.9572 12.7908L81.1635 14.0378Z" fill="white"/>
</g>
<path d="M106.371 66.3276L90.2299 86.8208L27.9541 95.6703L44.0814 75.1771L106.371 66.3276Z" fill="#FF784B" stroke="#0D0D0D" stroke-width="0.5" stroke-linejoin="round"/>
<path d="M45.8547 78.2708L98.6102 70.8018L88.4365 83.7192L35.6943 91.1882L45.8547 78.2708Z" fill="#FF784B" stroke="#0D0D0D" stroke-width="0.5" stroke-linejoin="round"/>
<path d="M31.7015 15.8381L15.5742 36.3313L27.9414 95.6501L44.062 75.1569L31.7015 15.8381Z" fill="#9772FF" stroke="black" stroke-width="0.5" stroke-linejoin="round"/>
<path d="M34.9669 44.5337L23.1402 59.5584L19.5869 42.4864L31.4069 27.4683L34.9669 44.5337Z" fill="#9772FF" stroke="black" stroke-width="0.5" stroke-linejoin="round"/>
<path d="M99.5103 58.6248L47.4082 66.0004" stroke="black" stroke-width="0.5" stroke-linecap="round" stroke-linejoin="round"/>
<path d="M52.9819 63.1395L46.9886 63.9931L46.3086 60.7188L52.2953 59.8718L52.9819 63.1395Z" fill="#9772FF" stroke="black" stroke-width="0.5" stroke-linecap="round" stroke-linejoin="round"/>
<path d="M60.9694 62.0127L54.9827 62.8663L54.3027 59.5852L60.2827 58.7383H60.2961L60.9694 62.0127Z" fill="#9772FF" stroke="black" stroke-width="0.5" stroke-linecap="round" stroke-linejoin="round"/>
<path d="M97.6036 49.4691L45.5015 56.8514L37.8545 20.1664L89.9566 12.7908L97.6036 49.4691Z" stroke="black" stroke-width="0.5" stroke-linecap="round" stroke-linejoin="round"/>
<path d="M98.5175 26.6199C103.279 24.0684 106.738 21.2526 106.244 20.3306C105.75 19.4086 101.49 20.7296 96.7292 23.2811C91.968 25.8325 88.5087 28.6483 89.0025 29.5703C89.4963 30.4923 93.7563 29.1714 98.5175 26.6199Z" fill="white" stroke="black" stroke-width="0.5" stroke-linecap="round" stroke-linejoin="round"/>
<path d="M94.8032 35.6202C98.2434 33.7766 100.743 31.7426 100.387 31.077C100.03 30.4115 96.9526 31.3666 93.5124 33.2102C90.0721 35.0538 87.5722 37.0878 87.9286 37.7534C88.2851 38.4189 91.3629 37.4638 94.8032 35.6202Z" fill="white" stroke="black" stroke-width="0.5" stroke-linecap="round" stroke-linejoin="round"/>
<path d="M81.0828 42.3528C81.0338 42.0833 80.9168 41.8308 80.7428 41.6192L66.7422 24.8406C66.5778 24.6351 66.3629 24.476 66.1183 24.379C65.8737 24.282 65.6081 24.2505 65.3476 24.2875C65.0871 24.3246 64.8408 24.4288 64.6329 24.5902C64.425 24.7515 64.2628 24.9642 64.1622 25.2074C64.1622 25.2074 57.6285 44.8736 57.6152 44.9069C57.5433 45.1669 57.5353 45.4405 57.5919 45.7042C57.6485 45.968 57.7681 46.2142 57.9403 46.4218C58.1125 46.6294 58.3322 46.7923 58.5809 46.8966C58.8296 47.0009 59.1 47.0436 59.3687 47.0209L79.9161 44.1C80.1103 44.0677 80.2958 43.996 80.4612 43.8892C80.6266 43.7824 80.7684 43.6428 80.8777 43.4791C80.987 43.3153 81.0617 43.1309 81.0969 42.9372C81.1322 42.7435 81.1274 42.5446 81.0828 42.3528Z" fill="#FFDF0D" stroke="#0D0D0D" stroke-width="0.5" stroke-linejoin="round"/>
<path d="M67.9561 41.9796H67.896V41.9263L67.4961 39.9657V39.9057L67.5493 39.8723L69.4627 39.5989H69.5228L69.556 39.6522L69.9561 41.6129V41.6729H69.9027L67.9561 41.9796Z" fill="black" stroke="black" stroke-width="0.5" stroke-linecap="round" stroke-linejoin="round"/>
<path d="M67.2889 38.7583H67.2288L67.1956 38.705L65.8623 32.1096V32.0495H65.9155L67.8289 31.7761H67.8888V31.8295L69.2222 38.4316V38.4849H69.1689L67.2889 38.7583Z" fill="black" stroke="black" stroke-width="0.5" stroke-linecap="round" stroke-linejoin="round"/>
<path d="M81.0828 42.3528C81.0338 42.0833 80.9168 41.8308 80.7428 41.6192L66.7422 24.8406C66.5778 24.6351 66.3629 24.476 66.1183 24.379C65.8737 24.282 65.6081 24.2505 65.3476 24.2875C65.0871 24.3246 64.8408 24.4288 64.6329 24.5902C64.425 24.7515 64.2628 24.9642 64.1622 25.2074C64.1622 25.2074 57.6285 44.8736 57.6152 44.9069C57.5433 45.1669 57.5353 45.4405 57.5919 45.7042C57.6485 45.968 57.7681 46.2142 57.9403 46.4218C58.1125 46.6294 58.3322 46.7923 58.5809 46.8966C58.8296 47.0009 59.1 47.0436 59.3687 47.0209L79.9161 44.1C80.1103 44.0677 80.2958 43.996 80.4612 43.8892C80.6266 43.7824 80.7684 43.6428 80.8777 43.4791C80.987 43.3153 81.0617 43.1309 81.0969 42.9372C81.1322 42.7435 81.1274 42.5446 81.0828 42.3528V42.3528Z" stroke="#020203" stroke-width="0.5" stroke-linecap="round" stroke-linejoin="round"/>
<path d="M120.538 71.389C121.077 73.3288 121.145 75.3689 120.738 77.3404C120.331 79.3119 119.461 81.1581 118.198 82.726C113.932 87.9143 105.931 87.074 102.084 86.6672C85.9303 84.9667 72.083 90.4551 60.7159 96.0502C54.0023 99.3846 47.8888 100.998 42.4219 100.998C39.0131 101.036 35.639 100.309 32.5481 98.8711C22.4144 94.0829 19.441 82.9727 19.1744 81.9124L13.9541 66.5341L16.4942 65.6739L21.7277 81.1388C21.7315 81.1809 21.7315 81.2234 21.7277 81.2655C21.7277 81.3722 24.3946 92.1356 33.6749 96.4903C40.4819 99.698 49.1689 98.751 59.496 93.6761C71.2298 87.9076 85.497 82.2525 102.324 84.033C107.731 84.5999 113.145 84.6332 116.091 81.0521C117.229 79.6166 117.924 77.881 118.092 76.0572C118.374 73.406 117.714 70.7399 116.226 68.5274C114.739 66.315 112.519 64.6978 109.958 63.96C108.601 63.5841 107.199 63.3956 105.791 63.3998L105.205 60.5723C105.205 60.5723 117.218 59.6186 120.538 71.389Z" fill="#FFDF0D" stroke="#0D0D0D" stroke-width="0.5" stroke-linejoin="round"/>
<path d="M102.365 84.0329C96.2476 83.3982 90.0703 83.6814 84.0371 84.8732C84.1588 85.7679 84.3986 86.6425 84.7504 87.4741C90.4587 86.3634 96.2998 86.1027 102.084 86.7005L103.678 86.8605C103.979 85.9997 104.165 85.1027 104.231 84.193C103.611 84.153 102.991 84.0996 102.365 84.0329Z" fill="black" stroke="black" stroke-width="0.5" stroke-linecap="round" stroke-linejoin="round"/>
<path d="M96.2633 93.7098C101.845 93.7098 106.37 89.1685 106.37 83.5666C106.37 77.9646 101.845 73.4233 96.2633 73.4233C90.6813 73.4233 86.1562 77.9646 86.1562 83.5666C86.1562 89.1685 90.6813 93.7098 96.2633 93.7098Z" fill="#9772FF" stroke="black" stroke-width="0.5" stroke-linejoin="round"/>
<path d="M93.1091 80.5844C94.2172 79.4687 94.5098 77.9624 93.7627 77.2201C93.0156 76.4777 91.5117 76.7804 90.4037 77.8961C89.2957 79.0118 89.0031 80.518 89.7502 81.2604C90.4972 82.0027 92.0011 81.7001 93.1091 80.5844Z" fill="white" stroke="black" stroke-width="0.5" stroke-linecap="round" stroke-linejoin="round"/>
<path d="M21.7202 81.3855C21.7202 81.3454 21.7203 81.3054 21.687 81.2654L16.9536 67.261L14.4336 68.1146L19.1403 82.039C19.187 82.2324 19.3269 82.7459 19.5736 83.4928C20.4209 83.1707 21.2285 82.7523 21.9803 82.2457C21.807 81.7322 21.7202 81.4055 21.7202 81.3855Z" fill="black" stroke="black" stroke-width="0.5" stroke-linecap="round" stroke-linejoin="round"/>
<path d="M25.6148 76.3707L21.4946 64.2002L8.9541 68.4482L13.0742 80.6254C13.6676 82.386 16.961 82.8661 20.4078 81.6924C23.8547 80.5187 26.2081 78.1379 25.6148 76.3707Z" fill="#FFDF0D" stroke="#0D0D0D" stroke-width="0.5" stroke-linejoin="round"/>
<path d="M16.2628 69.4516C19.7251 68.2766 22.0467 65.8934 21.4482 64.1286C20.8496 62.3638 17.5575 61.8856 14.0952 63.0606C10.6329 64.2355 8.31141 66.6187 8.90998 68.3835C9.50854 70.1483 12.8005 70.6265 16.2628 69.4516Z" fill="white" stroke="black" stroke-width="0.5" stroke-linejoin="round"/>
<path d="M13.2845 67.7651C14.1248 67.4799 14.6881 66.9011 14.5426 66.4722C14.3972 66.0433 13.598 65.9268 12.7577 66.212C11.9174 66.4971 11.3543 67.076 11.4997 67.5048C11.6452 67.9337 12.4442 68.0502 13.2845 67.7651Z" fill="black" stroke="black" stroke-width="0.5" stroke-linecap="round" stroke-linejoin="round"/>
<path d="M17.6009 66.3034C18.4412 66.0183 19.0045 65.4394 18.8591 65.0105C18.7136 64.5817 17.9144 64.4652 17.0741 64.7503C16.2339 65.0355 15.6707 65.6143 15.8161 66.0432C15.9616 66.4721 16.7606 66.5886 17.6009 66.3034Z" fill="black" stroke="black" stroke-width="0.5" stroke-linecap="round" stroke-linejoin="round"/>
</svg>
