<svg width="50" height="50" viewBox="0 0 50 50" fill="none" xmlns="http://www.w3.org/2000/svg">
<circle opacity="0.3" cx="25" cy="25" r="25" fill="#D2D2D2"/>
<path d="M33 33.7031L32.4141 34.2464L28.6428 30.1982C27.5455 30.9865 26.1925 31.4553 24.733 31.4553C23.4759 31.4553 22.2614 31.1143 21.196 30.4538L21.6115 29.772C22.549 30.358 23.625 30.6562 24.733 30.6562C28.0036 30.6562 30.6669 28.0036 30.6669 24.733C30.6669 23.4013 30.2195 22.1229 29.4098 21.0788L19.598 30.88L19.0334 30.3153L19.9283 29.4205C18.6925 28.174 18 26.4801 18 24.733C18 21.0149 21.0256 18 24.733 18C26.1605 18 27.5028 18.4368 28.6534 19.2571L28.0781 19.843C27.0874 19.1506 25.9368 18.799 24.733 18.799C21.4624 18.799 18.799 21.4624 18.799 24.733C18.799 26.2777 19.4062 27.7692 20.4929 28.8665L30.3366 19.0227L30.9013 19.5874L29.9744 20.5142C30.9439 21.6967 31.4659 23.1882 31.4659 24.733C31.4659 26.6932 30.6136 28.4723 29.2607 29.6868L33 33.7031Z" fill="#0D0D0D"/>
</svg>
