<svg width="72" height="105" viewBox="0 0 72 105" fill="none" xmlns="http://www.w3.org/2000/svg">
<path d="M59.3575 38.2204L53.5975 33.1204C51.8375 31.6104 49.3475 31.3104 47.2775 32.3504L46.0475 32.9704L43.2375 30.5504C41.4775 29.0404 38.9875 28.7404 36.9175 29.7804L35.2875 30.6104L32.8375 28.5104C30.8275 26.7804 27.9775 26.4404 25.6175 27.6304L18.3975 31.2904C17.0275 31.9904 15.9875 33.2104 15.5375 34.6804L13.3175 41.8904C12.9175 43.1904 13.7375 44.5504 15.0775 44.7804C16.3375 45.0004 17.9675 44.9404 19.6075 43.9204L62.0075 43.2504C61.7675 41.3004 60.8275 39.5104 59.3675 38.2104L59.3575 38.2204Z" fill="white" stroke="#0D0D0D" stroke-width="0.5" stroke-linecap="round" stroke-linejoin="round"/>
<path d="M18.3978 31.3008C17.0278 32.0008 15.9878 33.2208 15.5378 34.6908L13.3177 41.9008C12.9177 43.2008 13.7378 44.5608 15.0778 44.7908C16.3378 45.0108 17.9678 44.9508 19.6078 43.9308C19.6078 43.9308 22.1178 42.4608 22.7478 38.3408" fill="#A2A2A2"/>
<path d="M18.3978 31.3008C17.0278 32.0008 15.9877 33.2208 15.5378 34.6908L13.3177 41.9008C12.9177 43.2008 13.7378 44.5608 15.0778 44.7908C16.3378 45.0108 17.9678 44.9508 19.6078 43.9308C19.6078 43.9308 22.1178 42.4608 22.7478 38.3408" stroke="#0D0D0D" stroke-width="0.5" stroke-linecap="round" stroke-linejoin="round"/>
<path d="M17.5979 31.8008L19.6879 52.9108L11.2279 49.8008C11.2279 40.8108 8.74787 37.1208 6.78787 35.5208C4.82787 33.9208 2.07788 35.3608 2.07788 37.7908V51.8708C2.07788 52.8208 2.29787 53.7608 2.72787 54.6208L8.99788 67.1408C9.67788 68.5008 10.6979 69.6508 11.9579 70.4908L27.1379 80.9808C29.0579 82.3108 30.5479 84.1808 31.4079 86.3508L36.7779 99.9308L69.7279 90.3008L63.7479 79.7308C62.3179 76.5408 61.6079 73.0808 61.6579 69.5908L62.0079 43.2508" fill="white"/>
<path d="M17.5979 31.8008L19.6879 52.9108L11.2279 49.8008C11.2279 40.8108 8.74787 37.1208 6.78787 35.5208C4.82787 33.9208 2.07788 35.3608 2.07788 37.7908V51.8708C2.07788 52.8208 2.29787 53.7608 2.72787 54.6208L8.99788 67.1408C9.67788 68.5008 10.6979 69.6508 11.9579 70.4908L27.1379 80.9808C29.0579 82.3108 30.5479 84.1808 31.4079 86.3508L36.7779 99.9308L69.7279 90.3008L63.7479 79.7308C62.3179 76.5408 61.6079 73.0808 61.6579 69.5908L62.0079 43.2508" stroke="#0D0D0D" stroke-width="0.5" stroke-linecap="round" stroke-linejoin="round"/>
<path d="M29.4479 37.7909L24.4079 24.2409C23.2279 21.2909 20.8779 19.9209 17.8779 20.5809C14.8779 21.2409 13.0379 24.1909 13.6979 27.1809L18.9079 43.2909" fill="white"/>
<path d="M29.4479 37.7909L24.4079 24.2409C23.2279 21.2909 20.8779 19.9209 17.8779 20.5809C14.8779 21.2409 13.0379 24.1909 13.6979 27.1809L18.9079 43.2909" stroke="#0D0D0D" stroke-width="0.5" stroke-linecap="round" stroke-linejoin="round"/>
<path d="M24.0578 23.5315L18.2878 13.5415C16.8878 11.0015 14.2878 9.57151 11.6378 10.5915C8.98781 11.6115 7.47782 14.5115 8.65782 17.2515L13.8878 27.9815" fill="white"/>
<path d="M24.0578 23.5315L18.2878 13.5415C16.8878 11.0015 14.2878 9.57151 11.6378 10.5915C8.98781 11.6115 7.47782 14.5115 8.65782 17.2515L13.8878 27.9815" stroke="#0D0D0D" stroke-width="0.5" stroke-linecap="round" stroke-linejoin="round"/>
<path d="M11.2278 49.8008L20.2278 57.5808L19.6878 52.9108L11.2278 49.8008Z" fill="#A2A2A2" stroke="#0D0D0D" stroke-width="0.5" stroke-linecap="round" stroke-linejoin="round"/>
<path d="M54.7051 100.081C63.8014 97.4212 70.527 93.0475 69.7271 90.3123C68.9273 87.5771 60.9049 87.516 51.8086 90.1759C42.7124 92.8359 35.9868 97.2095 36.7866 99.9448C37.5865 102.68 45.6088 102.741 54.7051 100.081Z" fill="#A2A2A2" stroke="#0D0D0D" stroke-width="0.5" stroke-linecap="round" stroke-linejoin="round"/>
<path d="M32.8379 28.5215L41.4479 35.9115" stroke="#0D0D0D" stroke-width="0.5" stroke-linecap="round" stroke-linejoin="round"/>
<path d="M43.2378 30.5605L51.3978 37.5705" stroke="#0D0D0D" stroke-width="0.5" stroke-linecap="round" stroke-linejoin="round"/>
<path d="M16.8379 11.6809C16.8379 11.6809 12.8979 9.09095 8.63787 3.92095C7.36787 2.38095 6.28787 1.59095 5.41787 1.22095C4.18787 0.690946 2.74786 1.15095 1.92786 2.21095C-0.80214 5.77095 2.72786 12.2409 9.42786 18.8309" fill="white"/>
<path d="M16.8379 11.6809C16.8379 11.6809 12.8979 9.09095 8.63787 3.92095C7.36787 2.38095 6.28787 1.59095 5.41787 1.22095C4.18787 0.690946 2.74786 1.15095 1.92786 2.21095C-0.80214 5.77095 2.72786 12.2409 9.42786 18.8309" stroke="#0D0D0D" stroke-width="0.5" stroke-linecap="round" stroke-linejoin="round"/>
</svg>
