<svg width="172" height="132" viewBox="0 0 172 132" fill="none" xmlns="http://www.w3.org/2000/svg">
<path d="M60.6641 131L142.85 106.667L91.8062 91.5957L60.6641 131Z" fill="#0D0D0D" stroke="#0D0D0D" stroke-width="0.5" stroke-linecap="round" stroke-linejoin="round"/>
<path d="M140.359 112.016H140.219V107.395C140.169 106.477 139.959 105.579 139.619 104.72C139.219 103.642 138.579 102.684 137.759 101.876C136.939 101.067 135.959 100.449 134.879 100.049C134.279 99.8397 133.639 99.72 132.999 99.72H132.389C131.919 99.7699 131.459 99.8996 131.019 100.069C129.989 100.449 129.099 101.107 128.449 101.986C127.799 102.864 127.429 103.902 127.379 105V108.842L134.959 113.234L140.459 112.006H140.369L140.359 112.016Z" fill="#0D0D0D" stroke="#0D0D0D" stroke-width="0.5" stroke-linecap="round" stroke-linejoin="round"/>
<path d="M147.012 106.527V112.366L171.003 105.389V99.5703L147.012 106.537V106.527Z" fill="white" stroke="#0D0D0D" stroke-width="0.5" stroke-linecap="round" stroke-linejoin="round"/>
<path d="M169.169 95.9474C164.329 92.494 159.168 89.4898 153.758 86.9846L129.816 93.9412C135.207 96.4564 140.377 99.4606 145.217 102.904L169.179 95.9474H169.169Z" fill="white" stroke="#0D0D0D" stroke-width="0.5" stroke-linecap="round" stroke-linejoin="round"/>
<path d="M123.977 83.701L129.817 93.9413L153.809 86.9847L144.668 77.6826L123.977 83.701V83.701Z" fill="#333333" stroke="#0D0D0D" stroke-width="0.5" stroke-linecap="round" stroke-linejoin="round"/>
<path d="M169.173 95.9473L171.003 99.5603L164.723 101.397L162.883 97.7638L169.173 95.9473V95.9473Z" fill="#FFFA68" stroke="#0D0D0D" stroke-width="0.5" stroke-linecap="round" stroke-linejoin="round"/>
<path d="M151.489 101.078L153.329 104.711L147.019 106.527L145.219 102.904L151.509 101.078H151.499H151.489Z" fill="#FFFA68" stroke="#0D0D0D" stroke-width="0.5" stroke-linecap="round" stroke-linejoin="round"/>
<path d="M145.209 102.904C140.369 99.4607 135.199 96.4565 129.808 93.9414L123.968 83.7011L144.659 77.6826L118.027 70.1172V106.138L127.368 108.853V105.01C127.418 103.922 127.788 102.884 128.438 101.996C129.088 101.118 129.978 100.449 131.008 100.08C131.448 99.9099 131.908 99.7801 132.378 99.7302H132.988C133.628 99.7302 134.268 99.85 134.869 100.06C135.949 100.459 136.929 101.088 137.749 101.886C138.569 102.695 139.209 103.653 139.609 104.731C139.949 105.589 140.159 106.487 140.209 107.405V112.027L146.999 112.376V106.537L145.199 102.914L145.209 102.904Z" fill="#EFEFEF" stroke="#0D0D0D" stroke-width="0.5" stroke-linecap="round" stroke-linejoin="round"/>
<path d="M164.72 101.397L153.32 104.701L151.48 101.068L162.88 97.7539L164.72 101.387V101.397Z" fill="#0D0D0D" stroke="#0D0D0D" stroke-width="0.5" stroke-linecap="round" stroke-linejoin="round"/>
<path d="M129.807 93.9413L124.317 84.2799C124.257 84.1801 124.197 84.0703 124.117 83.9705C123.057 82.2538 121.397 81.0062 119.437 80.4273L118.027 80.0181" stroke="#0D0D0D" stroke-width="0.5" stroke-linecap="round" stroke-linejoin="round"/>
<path d="M118.057 81.9841V90.5876L127.547 93.3024L122.967 85.2578C122.167 83.8505 120.837 82.8026 119.277 82.3534L118.047 81.9941L118.057 81.9841Z" fill="#0D0D0D" stroke="#0D0D0D" stroke-width="0.5" stroke-linecap="round" stroke-linejoin="round"/>
<path d="M120.498 93.3123H127.498L126.978 92.3941H125.348L124.878 91.4559C124.748 91.2064 124.538 90.9968 124.288 90.867C124.038 90.7373 123.748 90.6874 123.478 90.7273C120.608 91.1465 120.488 93.2924 120.488 93.2924L120.498 93.3123Z" fill="#EFEFEF" stroke="#0D0D0D" stroke-width="0.5" stroke-linecap="round" stroke-linejoin="round"/>
<path d="M118.027 98.2129L128.958 101.387L139.499 104.441L147.009 106.627" stroke="#0D0D0D" stroke-width="0.5" stroke-linecap="round" stroke-linejoin="round"/>
<path d="M128.686 109.002C130.006 112.206 133.236 114.023 135.876 112.995C138.526 111.967 139.596 108.553 138.276 105.349C136.956 102.146 133.746 100.369 131.086 101.367C128.436 102.375 127.366 105.789 128.686 108.992V109.002Z" fill="white" stroke="#0D0D0D" stroke-width="0.5" stroke-linecap="round" stroke-linejoin="round"/>
<path d="M134.326 111.288C132.856 111.288 131.256 110.01 130.536 108.244C130.016 106.986 129.986 105.669 130.436 104.621C130.636 104.152 131.046 103.523 131.806 103.233C132.056 103.134 132.346 103.084 132.636 103.084C134.136 103.084 135.696 104.331 136.426 106.108C136.946 107.366 136.976 108.683 136.526 109.731C136.316 110.21 135.916 110.839 135.146 111.128C134.886 111.228 134.616 111.278 134.326 111.278V111.288Z" fill="#0D0D0D" stroke="#0D0D0D" stroke-width="0.5" stroke-linecap="round" stroke-linejoin="round"/>
<path d="M20 20.6123V53.8883L40 54.1877V20.6123H20Z" fill="#C5D2FF" stroke="#0D0D0D" stroke-width="0.5" stroke-linecap="round" stroke-linejoin="round"/>
<path d="M30.4062 20.9617V53.6046L40 53.8983V20.9617H30.4062Z" fill="white" stroke="#0D0D0D" stroke-width="0.5" stroke-linecap="round" stroke-linejoin="round"/>
<path d="M37.0653 18.8322C33.1524 17.679 26.8176 17.679 22.9347 18.8322C19.0218 19.9854 19.0218 21.8972 22.9347 23.0909C26.8476 24.2441 33.1824 24.2441 37.0653 23.0909C40.9782 21.8972 40.9782 19.9854 37.0653 18.8322Z" fill="#3F69FF" stroke="#0D0D0D" stroke-width="0.5" stroke-linecap="round" stroke-linejoin="round"/>
<path d="M60.672 75.9358V131L5.57812 114.731V58.14L31.89 41.1926L60.652 75.9358H60.672Z" fill="#C5D5FF" stroke="#0D0D0D" stroke-width="0.5" stroke-linecap="round" stroke-linejoin="round"/>
<path d="M30.8001 75.6066C36.6505 77.3432 40.6708 82.653 40.6708 88.7014V125.121L20.8594 119.253V82.9525C20.8594 77.8223 25.8497 74.1394 30.8001 75.6166V75.6066Z" fill="#2447FF" stroke="#0D0D0D" stroke-width="0.5" stroke-linecap="round" stroke-linejoin="round"/>
<path d="M40.6578 88.7013C40.6578 82.653 36.6375 77.3432 30.7871 75.6065C30.107 75.4169 29.427 75.3171 28.7569 75.2971C26.8868 76.6745 25.6367 78.8802 25.6367 81.4453V117.745L40.6578 122.187V88.6914V88.7013Z" fill="#0D0D0D" stroke="#0D0D0D" stroke-width="0.5" stroke-linecap="round" stroke-linejoin="round"/>
<path d="M120.174 58.3098V113.374L60.6602 130.99V75.9259L120.174 58.3098V58.3098Z" fill="#79AFFF" stroke="#0D0D0D" stroke-width="0.5" stroke-linecap="round" stroke-linejoin="round"/>
<path d="M70.2812 102.919L110.554 90.9917V75.8342L70.2813 87.7513L70.2812 102.919Z" fill="#0038FF" stroke="#0D0D0D" stroke-width="0.5" stroke-linecap="round" stroke-linejoin="round"/>
<path d="M123.993 62.931L64.4686 80.5571L30.4062 39.3664L89.9304 21.7502L123.993 62.931Z" fill="#073EFF" stroke="#0D0D0D" stroke-width="0.5" stroke-linecap="round" stroke-linejoin="round"/>
<path d="M37.2266 47.6105L96.7507 29.9844" stroke="#0D0D0D" stroke-width="0.5" stroke-linecap="round" stroke-linejoin="round"/>
<path d="M44.0352 55.8446L103.559 38.2285" stroke="#0D0D0D" stroke-width="0.5" stroke-linecap="round" stroke-linejoin="round"/>
<path d="M50.8477 64.0788L110.372 46.4626" stroke="#0D0D0D" stroke-width="0.5" stroke-linecap="round" stroke-linejoin="round"/>
<path d="M57.6562 72.3229L117.18 54.6968" stroke="#0D0D0D" stroke-width="0.5" stroke-linecap="round" stroke-linejoin="round"/>
<path d="M120.174 58.3099L79.5 41.9214L89.9316 21.7402L120.174 58.2999V58.3099Z" fill="#0D0D0D" stroke="#0D0D0D" stroke-width="0.5" stroke-linecap="round" stroke-linejoin="round"/>
<path fill-rule="evenodd" clip-rule="evenodd" d="M107 21.9597C106.993 27.521 104.774 32.8522 100.832 36.7821C96.8892 40.7121 91.5449 42.9194 85.9729 42.9194C80.408 42.9122 75.0737 40.7008 71.1413 36.7709C67.2089 32.841 65 27.5139 65 21.9597C65 16.4055 67.2089 11.0784 71.1413 7.14846C75.0737 3.21853 80.408 1.00717 85.9729 1C91.5449 0.999995 96.8892 3.2073 100.832 7.13723C104.774 11.0672 106.993 16.3983 107 21.9597V21.9597Z" fill="#00E685" stroke="#0D0D0D" stroke-width="0.5"/>
<path fill-rule="evenodd" clip-rule="evenodd" d="M97 16.9812L82.3923 30.9425L75 23.8005L77.9595 20.8101L82.4083 25.1083L94.0569 13.9751L97 16.9812Z" fill="white" stroke="#0D0D0D" stroke-width="0.5"/>
<path d="M104.699 68.4302L101.553 97.08L116.116 65.1277L104.699 68.4302Z" fill="#0D0D0D" stroke="#0D0D0D" stroke-width="0.5" stroke-linecap="round" stroke-linejoin="round"/>
<path d="M118.919 24.6948L127.127 27.3098L99.2078 75.358L91 72.7431L118.919 24.6948V24.6948Z" fill="#EF7606" stroke="#0D0D0D" stroke-width="0.5" stroke-linecap="round" stroke-linejoin="round"/>
<path d="M129.792 48.8647L137.999 51.4797L120.321 56.7512L112.113 54.1363L129.792 48.8647Z" fill="#FFEB34" stroke="#0D0D0D" stroke-width="0.5" stroke-linecap="round" stroke-linejoin="round"/>
<path d="M101.549 97.0797L109.757 99.6946L116.894 70.0864L108.686 67.4714L101.549 97.0797V97.0797Z" fill="#EF7606" stroke="#0D0D0D" stroke-width="0.5" stroke-linecap="round" stroke-linejoin="round"/>
<path d="M116.905 70.0969L106.43 76.8374L108.687 67.4819L116.905 70.0969Z" fill="#0D0D0D" stroke="#0D0D0D" stroke-width="0.5" stroke-linecap="round" stroke-linejoin="round"/>
<path d="M138.001 51.4798L120.322 56.7513L127.15 27.3098L99.2305 75.3581L116.909 70.0865L109.771 99.6947L138.001 51.4798V51.4798Z" fill="#FFFA68" stroke="#0D0D0D" stroke-width="0.5" stroke-linecap="round" stroke-linejoin="round"/>
<path d="M138.001 51.4795L120.322 56.7511L127.15 27.3096L99.2305 75.3578L116.909 70.0863L109.771 99.6945L138.001 51.4795V51.4795Z" fill="#FFDF0D" stroke="#0D0D0D" stroke-width="0.5" stroke-linecap="round" stroke-linejoin="round"/>
<mask id="mask0_4442_11319" style="mask-type:alpha" maskUnits="userSpaceOnUse" x="98" y="27" width="41" height="73">
<path d="M138.001 51.4795L120.322 56.7511L127.15 27.3096L99.2305 75.3578L116.909 70.0863L109.771 99.6945L138.001 51.4795V51.4795Z" fill="#FFDF0D" stroke="#0D0D0D" stroke-width="0.5" stroke-linecap="round" stroke-linejoin="round"/>
</mask>
<g mask="url(#mask0_4442_11319)">
<path d="M144.174 42.9192V68.7341L84.6602 84.3952V58.5803L144.174 42.9192Z" fill="white"/>
</g>
<path d="M138.001 51.4795L120.322 56.7511L127.15 27.3096L99.2305 75.3578L116.909 70.0863L109.771 99.6945L138.001 51.4795V51.4795Z" stroke="#0D0D0D" stroke-width="0.5" stroke-linecap="round" stroke-linejoin="round"/>
<path d="M25.648 117.755L20.8477 119.262L40.659 125.121V122.197L25.648 117.755Z" fill="#3562FF" stroke="#0D0D0D" stroke-width="0.5" stroke-linecap="round" stroke-linejoin="round"/>
<path d="M30.4121 39.3662L1 58.3098L5.58032 58.1401L31.8922 41.1927L30.4121 39.3662Z" fill="#3F69FF" stroke="#0D0D0D" stroke-width="0.5" stroke-linecap="round" stroke-linejoin="round"/>
</svg>
