<svg width="50" height="50" viewBox="0 0 50 50" fill="none" xmlns="http://www.w3.org/2000/svg">
<circle opacity="0.3" cx="25" cy="25" r="25" fill="#D2D2D2"/>
<path d="M29.0977 20.5003C29.0977 22.7649 27.2619 24.6007 24.9974 24.6007C22.7328 24.6007 20.8971 22.7649 20.8971 20.5003C20.8971 18.2358 22.7328 16.4 24.9974 16.4C27.2619 16.4 29.0977 18.2358 29.0977 20.5003Z" stroke="#0D0D0D" stroke-width="0.8" stroke-linejoin="round"/>
<path d="M32.4006 30.0999C32.4006 30.9438 31.7061 31.8155 30.337 32.5001C28.9918 33.1727 27.1055 33.6002 25 33.6002C22.8946 33.6002 21.0083 33.1727 19.6631 32.5001C18.294 31.8155 17.5995 30.9438 17.5995 30.0999C17.5995 29.256 18.294 28.3843 19.6631 27.6998C21.0083 27.0272 22.8946 26.5996 25 26.5996C27.1055 26.5996 28.9918 27.0272 30.337 27.6998C31.7061 28.3843 32.4006 29.256 32.4006 30.0999Z" stroke="#0D0D0D" stroke-width="0.8" stroke-linejoin="round"/>
</svg>
