<svg width="140" height="12" viewBox="0 0 140 12" fill="none" xmlns="http://www.w3.org/2000/svg">
<g filter="url(#filter0_d_884_2493)">
<path d="M3.98973 11.064C1.94173 11.064 0.81906 10.5573 0.621727 9.544C0.429727 8.52533 0.472393 7.19733 0.749727 5.56C1.02173 3.90667 1.43506 2.58133 1.98973 1.584C2.54973 0.586666 3.84573 0.0879993 5.87773 0.0879993C7.95773 0.0879993 9.07773 0.581333 9.23773 1.568C9.39773 2.54933 9.38706 3.59733 9.20573 4.712H5.97373C6.18706 3.47467 6.23506 2.77067 6.11773 2.6C6.00573 2.424 5.80306 2.336 5.50973 2.336C5.21106 2.336 4.95506 2.432 4.74173 2.624C4.53373 2.81067 4.28039 3.78933 3.98173 5.56C3.68306 7.33067 3.59773 8.31733 3.72573 8.52C3.85373 8.71733 4.06706 8.816 4.36573 8.816C4.65906 8.816 4.89639 8.728 5.07773 8.552C5.25906 8.376 5.45639 7.68267 5.66973 6.472H8.88573C8.70439 7.53867 8.36039 8.57067 7.85373 9.568C7.35239 10.5653 6.06439 11.064 3.98973 11.064ZM13.671 11.08C11.623 11.08 10.4976 10.5867 10.295 9.6C10.0976 8.61333 10.1323 7.27733 10.399 5.592C10.6763 3.89067 11.103 2.54933 11.679 1.568C12.255 0.581333 13.5643 0.0879993 15.607 0.0879993C17.6496 0.0879993 18.7696 0.581333 18.967 1.568C19.1696 2.55467 19.1376 3.896 18.871 5.592C18.5936 7.28267 18.167 8.62133 17.591 9.608C17.0203 10.5893 15.7136 11.08 13.671 11.08ZM14.071 8.832C14.407 8.832 14.6816 8.728 14.895 8.52C15.1136 8.312 15.3723 7.336 15.671 5.592C15.975 3.8 16.0576 2.81067 15.919 2.624C15.7856 2.432 15.551 2.336 15.215 2.336C14.8683 2.336 14.5883 2.432 14.375 2.624C14.1616 2.816 13.903 3.80533 13.599 5.592C13.311 7.336 13.231 8.312 13.359 8.52C13.487 8.728 13.7243 8.832 14.071 8.832ZM19.4604 11L21.3644 0.2H26.3404L26.5804 8.56H26.6204L28.1404 0.2H31.3404L29.4364 11H24.4204L24.1644 2.496H24.1404L22.6444 11H19.4604ZM34.7733 11.064C32.9599 11.064 31.9653 10.5573 31.7893 9.544C31.6133 8.53067 31.6533 7.20267 31.9093 5.56C32.1866 3.864 32.5973 2.528 33.1413 1.552C33.6906 0.575999 34.9893 0.0879993 37.0373 0.0879993C38.9999 0.0879993 40.0933 0.549333 40.3173 1.472C40.5413 2.39467 40.5866 3.296 40.4533 4.176H37.2373C37.3706 3.23733 37.3839 2.696 37.2773 2.552C37.1759 2.408 36.9759 2.336 36.6773 2.336C36.3626 2.336 36.1039 2.43733 35.9013 2.64C35.6986 2.84267 35.4346 3.87467 35.1093 5.736C34.8693 7.15467 34.7999 8.024 34.9013 8.344C35.0079 8.65867 35.2319 8.816 35.5733 8.816C35.8773 8.816 36.1039 8.73333 36.2533 8.568C36.4026 8.40267 36.5519 7.97333 36.7013 7.28L36.7253 7.224H35.9253L36.2693 5.224H40.2693L39.2693 11H37.5973L37.3413 10.088C36.8346 10.7387 35.9786 11.064 34.7733 11.064ZM40.9784 11L42.8824 0.2H48.3704C49.6397 0.2 50.3144 0.570666 50.3944 1.312C50.4797 2.048 50.4584 2.79733 50.3304 3.56C50.213 4.31733 49.9757 5.024 49.6184 5.68C49.261 6.33067 48.4397 6.656 47.1544 6.656H44.9624L44.2104 11H40.9784ZM45.8344 11L45.3784 6.056L48.5224 5.872L49.2184 11H45.8344ZM45.3144 4.696H46.3864C46.605 4.696 46.7597 4.60533 46.8504 4.424C46.9464 4.23733 47.0264 3.95733 47.0904 3.584C47.165 3.19467 47.1864 2.90933 47.1544 2.728C47.1224 2.54133 46.997 2.448 46.7784 2.448H45.7064L45.3144 4.696ZM50.375 11L54.295 0.183999H59.055L59.207 11H55.927L56.055 8.584H54.375L53.647 11H50.375ZM55.047 6.376H56.159L56.351 2.256H56.311L55.047 6.376ZM61.4883 11L62.9843 2.448H60.9203L61.3283 0.2H68.6723L68.2643 2.448H66.2083L64.7043 11H61.4883ZM72.4523 11.048C71.0016 11.048 69.991 10.816 69.4203 10.352C68.8496 9.888 68.6603 9.12 68.8523 8.048L70.2283 0.2H73.4443L72.1323 7.664C72.063 8.06933 72.0736 8.36 72.1643 8.536C72.255 8.712 72.4843 8.8 72.8523 8.8C73.231 8.8 73.495 8.712 73.6443 8.536C73.799 8.36 73.911 8.06933 73.9803 7.664L75.2923 0.2H78.5163L77.1403 8.048C76.9483 9.12 76.4816 9.888 75.7403 10.352C75.0043 10.816 73.9083 11.048 72.4523 11.048ZM78.2799 11L80.1839 0.2H83.3999L81.8879 8.776H84.4639L84.0719 11H78.2799ZM85.5671 11L89.4871 0.183999H94.2471L94.3991 11H91.1191L91.2471 8.584H89.5671L88.8391 11H85.5671ZM90.2391 6.376H91.3511L91.5431 2.256H91.5031L90.2391 6.376ZM96.6805 11L98.1765 2.448H96.1125L96.5205 0.2H103.864L103.456 2.448H101.4L99.8965 11H96.6805ZM103.676 11L105.588 0.2H108.796L106.892 11H103.676ZM112.785 11.08C110.737 11.08 109.612 10.5867 109.409 9.6C109.212 8.61333 109.247 7.27733 109.513 5.592C109.791 3.89067 110.217 2.54933 110.793 1.568C111.369 0.581333 112.679 0.0879993 114.721 0.0879993C116.764 0.0879993 117.884 0.581333 118.081 1.568C118.284 2.55467 118.252 3.896 117.985 5.592C117.708 7.28267 117.281 8.62133 116.705 9.608C116.135 10.5893 114.828 11.08 112.785 11.08ZM113.185 8.832C113.521 8.832 113.796 8.728 114.009 8.52C114.228 8.312 114.487 7.336 114.785 5.592C115.089 3.8 115.172 2.81067 115.033 2.624C114.9 2.432 114.665 2.336 114.329 2.336C113.983 2.336 113.703 2.432 113.489 2.624C113.276 2.816 113.017 3.80533 112.713 5.592C112.425 7.336 112.345 8.312 112.473 8.52C112.601 8.728 112.839 8.832 113.185 8.832ZM118.575 11L120.479 0.2H125.455L125.695 8.56H125.735L127.255 0.2H130.455L128.551 11H123.535L123.279 2.496H123.255L121.759 11H118.575ZM134.28 11.048C132.232 11.048 131.096 10.656 130.872 9.872C130.648 9.08267 130.621 8.19733 130.792 7.216H134.016C133.872 8.064 133.874 8.544 134.024 8.656C134.173 8.76267 134.384 8.816 134.656 8.816C134.928 8.816 135.157 8.77067 135.344 8.68C135.536 8.584 135.664 8.36 135.728 8.008C135.797 7.608 135.696 7.34667 135.424 7.224C135.157 7.10133 134.714 6.952 134.096 6.776C132.805 6.38133 132.008 5.97067 131.704 5.544C131.405 5.11733 131.312 4.48533 131.424 3.648C131.509 2.832 131.818 2.03467 132.352 1.256C132.89 0.477333 134.168 0.0879993 136.184 0.0879993C138.189 0.0879993 139.304 0.501333 139.528 1.328C139.752 2.15467 139.786 3.01067 139.632 3.896H136.408C136.552 3.06933 136.544 2.60267 136.384 2.496C136.229 2.38933 136.024 2.336 135.768 2.336C135.496 2.336 135.258 2.384 135.056 2.48C134.858 2.57067 134.73 2.776 134.672 3.096C134.592 3.592 134.685 3.896 134.952 4.008C135.218 4.11467 135.693 4.26133 136.376 4.448C137.656 4.84267 138.45 5.21867 138.76 5.576C139.074 5.93333 139.168 6.544 139.04 7.408C138.928 8.23467 138.613 9.048 138.096 9.848C137.584 10.648 136.312 11.048 134.28 11.048Z" fill="#FFEB34"/>
</g>
<defs>
<filter id="filter0_d_884_2493" x="0.333496" y="0.0878906" width="139.53" height="10.9922" filterUnits="userSpaceOnUse" color-interpolation-filters="sRGB">
<feFlood flood-opacity="0" result="BackgroundImageFix"/>
<feColorMatrix in="SourceAlpha" type="matrix" values="0 0 0 0 0 0 0 0 0 0 0 0 0 0 0 0 0 0 127 0" result="hardAlpha"/>
<feOffset/>
<feComposite in2="hardAlpha" operator="out"/>
<feColorMatrix type="matrix" values="0 0 0 0 0.913725 0 0 0 0 0.321569 0 0 0 0 0.137255 0 0 0 1 0"/>
<feBlend mode="normal" in2="BackgroundImageFix" result="effect1_dropShadow_884_2493"/>
<feBlend mode="normal" in="SourceGraphic" in2="effect1_dropShadow_884_2493" result="shape"/>
</filter>
</defs>
</svg>
