<svg width="371" height="800" viewBox="0 0 371 800" fill="none" xmlns="http://www.w3.org/2000/svg">
<g clip-path="url(#clip0_2373_254)">
<rect width="371" height="800" fill="#0D0D0D"/>
<path d="M372.461 -37H-0.432617V859.16H372.461V-37Z" fill="#0D0D0D"/>
<path d="M216.854 494.523H155.675L112.412 537.79V598.975L155.675 642.241H216.854L260.116 598.975V537.79L216.854 494.523Z" stroke="#E27A56" stroke-width="17" stroke-miterlimit="10"/>
<path d="M200.81 545.561H171.718L151.145 566.132V595.231L171.718 615.806H200.81L221.384 595.231V566.132L200.81 545.561Z" stroke="#E27A56" stroke-width="8" stroke-miterlimit="10"/>
<path d="M191.347 581.272H181.183L173.993 588.462V598.63L181.183 605.82H191.347L198.536 598.63V588.462L191.347 581.272Z" stroke="#E27A56" stroke-width="3" stroke-miterlimit="10"/>
<path d="M133.533 270.169L135.815 277.283H236.566L239.162 270.203L133.533 270.169Z" fill="#133BBF" stroke="black" stroke-width="0.5" stroke-miterlimit="10"/>
<path d="M192.085 348H178.915L-309 766.796V1110H680V766.796L192.085 348Z" stroke="#171719" stroke-miterlimit="10"/>
<path d="M192.085 348H178.915L-309 700.257V1110H680V700.257L192.085 348Z" stroke="#171719" stroke-miterlimit="10"/>
<path d="M241.917 246.487H130.611L51.9023 318.089V419.35L130.611 490.952H241.917L320.623 419.35V318.089L241.917 246.487Z" stroke="#261D56" stroke-width="20" stroke-miterlimit="10"/>
<path d="M58.6182 320.576L67.3198 322.934L67.5452 415.503L137.33 478.864L133.42 483.762L58.6646 416.806L58.6182 320.576Z" fill="url(#paint0_linear_2373_254)" stroke="#2F2E5E" stroke-width="0.7" stroke-miterlimit="10"/>
<path d="M313.865 320.603L306.188 323.839L305.511 415.904L235.249 479.198L237.852 484.541L314.13 416.806L313.865 320.603Z" fill="url(#paint1_linear_2373_254)" stroke="#2F2E5E" stroke-width="0.7" stroke-miterlimit="10"/>
<path d="M58.6182 320.825L67.3198 323.007L135.815 264.919H167.278L172.969 297.626H199.412L205.102 264.919H236.566L306.188 323.846L313.865 320.848L239.162 257.839L133.533 257.806L58.6182 320.825Z" fill="black" stroke="#2F2E5E" stroke-width="0.7" stroke-miterlimit="10"/>
<path d="M107.959 334.558L113.381 335.619L113.428 387.691L154.057 420.796L151.149 423.701L107.906 388.679L107.959 334.558Z" fill="url(#paint2_linear_2373_254)" stroke="#2F2E5E" stroke-width="0.7" stroke-miterlimit="10"/>
<path d="M263.218 334.535L258.503 336.13L257.992 387.654L214.972 422.046L217.989 425.021L263.135 388.663L263.218 334.535Z" fill="url(#paint3_linear_2373_254)" stroke="#2F2E5E" stroke-width="0.7" stroke-miterlimit="10"/>
<path d="M107.959 334.558L113.381 335.619L154.995 300.402H174.109L177.568 320.231H193.632L197.09 300.402H216.205L258.502 336.13L263.218 334.535L217.783 296.111L153.609 296.087L107.959 334.558Z" stroke="#2F2E5E" stroke-width="0.7" stroke-miterlimit="10"/>
<path d="M172.129 341.438L173.068 341.62L173.074 350.634L180.108 356.363L179.606 356.866L172.119 350.805L172.129 341.438Z" fill="url(#paint4_linear_2373_254)" stroke="#2F2E5E" stroke-width="0.2" stroke-miterlimit="10"/>
<path d="M199 341.432L198.185 341.71L198.097 350.628L190.651 356.579L191.173 357.094L198.987 350.802L199 341.432Z" fill="url(#paint5_linear_2373_254)" stroke="#2F2E5E" stroke-width="0.2" stroke-miterlimit="10"/>
<path d="M172.128 341.439L173.068 341.62L180.27 335.525H183.58L184.176 338.956H186.958L187.554 335.525H190.863L198.184 341.71L198.999 341.432L191.138 334.782L180.03 334.779L172.128 341.439Z" stroke="#2F2E5E" stroke-width="0.2" stroke-miterlimit="10"/>
<rect y="192" width="372" height="223" fill="url(#paint6_linear_2373_254)"/>
<path d="M188.328 347H182.516L-269 791.86V1098H640V791.86L188.328 347Z" fill="#261D56" stroke="#000001" stroke-width="0.34" stroke-miterlimit="10"/>
<path d="M187.966 349H182.898L-211 817.775V1085H582V817.775L187.966 349Z" fill="url(#paint7_linear_2373_254)" stroke="url(#paint8_linear_2373_254)" stroke-miterlimit="10"/>
<path d="M184 349L175.821 361.956L175.801 361.915H178.243L178.296 361.912L178.27 361.959L152.457 405.849L149.232 411.335L148.426 412.707L148.021 413.393C147.882 413.631 147.703 413.855 147.484 414.032C147.268 414.213 147.016 414.347 146.747 414.431C146.481 414.518 146.18 414.524 145.927 414.518H144.345L142.765 414.524C142.506 414.528 142.228 414.514 141.992 414.541C141.75 414.575 141.514 414.655 141.302 414.782C141.089 414.906 140.904 415.077 140.751 415.271C140.605 415.471 140.449 415.702 140.3 415.917L139.394 417.225L135.777 422.456L121.306 443.384L92.3621 485.243L77.8916 506.171L74.2748 511.402L72.4664 514.019C72.1711 514.451 71.8492 514.899 71.5738 515.321C71.3083 515.739 71.1026 516.198 70.9699 516.673C70.7077 517.63 70.7409 518.668 71.0528 519.612C71.3614 520.555 71.9487 521.409 72.7418 521.978C73.1333 522.266 73.5813 522.473 74.0458 522.6C74.2781 522.667 74.517 522.701 74.7592 522.724L75.1242 522.738H75.5191L78.6813 522.731L91.3302 522.711H92.1199C92.2526 522.711 92.4019 522.717 92.5446 522.724C92.6873 522.741 92.83 522.751 92.9726 522.778C93.54 522.875 94.0876 523.076 94.5853 523.363C95.5774 523.952 96.334 524.883 96.772 525.937C97.2066 526.991 97.3427 528.173 97.1203 529.297C97.0108 529.86 96.8184 530.405 96.553 530.91C96.4169 531.165 96.2643 531.406 96.1216 531.62L95.6902 532.289L81.8933 553.676L54.2994 596.452L-0.888401 682L-2 681.267L53.43 595.876L81.1434 553.18L95.0001 531.834L95.4347 531.168C95.584 530.941 95.7168 530.733 95.8329 530.519C96.0652 530.087 96.2311 529.622 96.324 529.14C96.5165 528.179 96.4037 527.155 96.032 526.248C95.6604 525.338 95.0133 524.545 94.1838 524.049C93.769 523.805 93.3144 523.638 92.8399 523.557C92.7205 523.537 92.601 523.527 92.4816 523.511L92.1166 523.497H91.3268L78.678 523.474L75.5157 523.467H75.1209L74.6962 523.45C74.4141 523.42 74.1288 523.38 73.8533 523.3C73.3025 523.149 72.7783 522.901 72.317 522.56C70.4555 521.201 69.6857 518.664 70.2963 516.482C70.4489 515.937 70.6845 515.415 70.9898 514.939C71.295 514.474 71.597 514.063 71.899 513.621L73.7173 511.01L77.354 505.789L91.8942 484.908L120.975 443.15L135.515 422.269L139.152 417.048L140.061 415.743C140.217 415.522 140.356 415.311 140.522 415.087C140.695 414.866 140.91 414.672 141.152 414.531C141.395 414.387 141.67 414.293 141.949 414.257C142.241 414.226 142.49 414.247 142.755 414.243H144.335L145.917 414.25C146.189 414.253 146.422 414.25 146.664 414.176C146.9 414.106 147.122 413.985 147.311 413.828C147.503 413.671 147.663 413.477 147.792 413.259L148.197 412.576L149.007 411.208L152.252 405.732L178.21 361.929L178.236 361.972H175.794L175.748 361.969L175.774 361.929L183.997 349H184Z" fill="url(#paint9_linear_2373_254)"/>
<path d="M185.69 349L184.399 354.049L184.393 354.039H185.804H185.817V354.052L178.729 393.421L178.66 393.337L186.156 393.327H186.234V393.407L188.095 456.24L188.561 471.949C188.564 472.294 188.532 472.645 188.44 472.98C188.346 473.315 188.206 473.632 188.023 473.927C187.648 474.506 187.104 474.974 186.472 475.228C186.159 475.366 185.82 475.433 185.484 475.463C185.136 475.489 184.839 475.469 184.513 475.476H182.6L180.687 475.483H179.729H179.25C179.094 475.489 178.95 475.483 178.8 475.513C177.614 475.663 176.578 476.644 176.353 477.852C176.284 478.146 176.291 478.454 176.275 478.789L176.242 479.769L176.177 481.733L176.046 485.661L175.786 493.514L175.268 509.22L173.192 572.046L172.152 603.461L171.891 611.314L171.859 612.294C171.849 612.622 171.833 612.953 171.846 613.258L171.852 613.726C171.855 613.884 171.885 614.038 171.901 614.191L171.956 614.657L172.057 615.112C172.331 616.326 172.869 617.474 173.618 618.454C175.124 620.418 177.497 621.629 179.925 621.663C182.45 621.663 185.018 621.619 187.564 621.599L195.216 621.522C196.523 621.496 197.908 621.696 199.136 622.248C200.375 622.787 201.493 623.604 202.399 624.624C203.311 625.641 203.976 626.879 204.364 628.201L204.504 628.699C204.54 628.867 204.569 629.037 204.598 629.208C204.628 629.379 204.667 629.546 204.683 629.72L204.725 630.235C204.761 630.587 204.765 630.904 204.778 631.232L204.813 632.213L205.097 640.066L206.225 671.477L208.483 734.297L213 859.94L211.371 860L207.222 734.344L205.146 671.517L204.109 640.102L203.849 632.249L203.816 631.269C203.803 630.945 203.8 630.607 203.767 630.305L203.731 629.844C203.718 629.69 203.679 629.539 203.657 629.385C203.627 629.235 203.604 629.081 203.572 628.93L203.445 628.485C203.102 627.301 202.509 626.187 201.691 625.273C200.883 624.353 199.879 623.617 198.768 623.132C198.491 623.011 198.201 622.921 197.917 622.814C197.624 622.747 197.334 622.657 197.034 622.603C196.431 622.496 195.851 622.463 195.213 622.466L187.56 622.519C185.002 622.533 182.47 622.57 179.895 622.56C177.213 622.513 174.59 621.164 172.941 618.996C172.116 617.915 171.526 616.647 171.23 615.309L171.122 614.807L171.063 614.295C171.047 614.125 171.018 613.954 171.011 613.783L171.005 613.268C170.992 612.92 171.008 612.595 171.021 612.268L171.057 611.287L171.34 603.434L172.471 572.023L174.733 509.203L175.297 493.497L175.58 485.644L175.721 481.72L175.792 479.755L175.828 478.775C175.835 478.608 175.838 478.454 175.848 478.28L175.87 478.019L175.916 477.761C176.056 477.075 176.411 476.44 176.913 475.965C177.412 475.489 178.057 475.172 178.732 475.085C178.898 475.054 179.074 475.058 179.237 475.051H179.716H180.674H182.587L184.5 475.058C184.813 475.054 185.152 475.071 185.442 475.048C185.739 475.021 186.035 474.964 186.312 474.847C186.869 474.623 187.349 474.215 187.681 473.703C187.841 473.445 187.968 473.164 188.053 472.87C188.131 472.572 188.163 472.267 188.16 471.956L187.74 456.247L186.065 393.407L186.143 393.487L178.647 393.477H178.566L178.582 393.394L185.784 354.049L185.794 354.062H184.383H184.373V354.052L185.683 349.007L185.69 349Z" fill="url(#paint10_linear_2373_254)"/>
<path d="M187 349.01L195.245 361.928L195.272 361.968H195.225L192.776 361.972L192.803 361.925L218.464 405.073L221.672 410.467L223.275 413.156C223.548 413.571 223.947 413.902 224.41 414.072C224.64 414.159 224.886 414.199 225.129 414.203H225.911L227.475 414.199H228.256C228.516 414.203 228.776 414.183 229.055 414.22C229.604 414.293 230.12 414.567 230.502 414.962C230.699 415.163 230.845 415.393 230.995 415.601L231.444 416.243L235.038 421.386L249.412 441.952L278.164 483.087L292.539 503.653L296.132 508.797L297.929 511.368L298.827 512.652C299.133 513.09 299.42 513.575 299.629 514.084C300.488 516.127 300.268 518.561 299.1 520.437C298.521 521.377 297.699 522.18 296.708 522.691C296.215 522.949 295.68 523.129 295.134 523.233C294.588 523.34 294.016 523.337 293.51 523.333L281.016 523.36C280.044 523.377 279.093 523.688 278.297 524.243C277.499 524.795 276.86 525.581 276.437 526.463C275.575 528.236 275.609 530.419 276.56 532.138C276.79 532.553 277.106 532.994 277.389 533.429L278.261 534.733L280.001 537.342L283.481 542.562L290.446 552.999L318.296 594.753L374 678.258L372.892 679L317.431 595.328L289.7 553.494L282.766 543.033L279.299 537.803L277.565 535.188L276.7 533.881C276.414 533.439 276.118 533.031 275.838 532.53C275.306 531.553 275.023 530.443 275.003 529.333C274.983 528.222 275.229 527.109 275.715 526.109C276.198 525.112 276.926 524.223 277.848 523.587C278.766 522.949 279.881 522.591 280.996 522.574L293.51 522.591C294.046 522.591 294.522 522.598 295.001 522.507C295.48 522.42 295.943 522.263 296.375 522.043C297.24 521.598 297.976 520.895 298.495 520.056C299.546 518.377 299.752 516.184 298.987 514.351C298.797 513.89 298.551 513.468 298.262 513.05L297.367 511.763L295.58 509.185L292.003 504.031L277.698 483.415L249.086 442.183L234.781 421.566L231.205 416.413L230.759 415.768C230.606 415.55 230.469 415.336 230.299 415.163C229.957 414.808 229.504 414.564 229.018 414.497C228.782 414.464 228.519 414.48 228.256 414.474H227.475L225.911 414.47H225.129C224.853 414.464 224.576 414.417 224.32 414.316C223.801 414.126 223.359 413.755 223.062 413.293L221.462 410.588L218.271 405.184L192.753 361.948L192.726 361.901H195.229L195.205 361.945L187.003 349L187 349.01Z" fill="url(#paint11_linear_2373_254)"/>
<path opacity="0.9" d="M372 0H0V800H372V0Z" fill="#0A0A0A"/>
</g>
<defs>
<linearGradient id="paint0_linear_2373_254" x1="97.3474" y1="482.581" x2="98.6907" y2="304.544" gradientUnits="userSpaceOnUse">
<stop stop-color="#009F97"/>
<stop offset="0.18" stop-color="#00736D"/>
<stop offset="0.41" stop-color="#00413F"/>
<stop offset="0.61" stop-color="#001D1D"/>
<stop offset="0.77" stop-color="#000808"/>
<stop offset="0.87" stop-color="#000001"/>
</linearGradient>
<linearGradient id="paint1_linear_2373_254" x1="275.189" y1="483.347" x2="273.839" y2="304.495" gradientUnits="userSpaceOnUse">
<stop stop-color="#009F97"/>
<stop offset="0.18" stop-color="#00736D"/>
<stop offset="0.41" stop-color="#00413F"/>
<stop offset="0.61" stop-color="#001D1D"/>
<stop offset="0.77" stop-color="#000808"/>
<stop offset="0.87" stop-color="#000001"/>
</linearGradient>
<linearGradient id="paint2_linear_2373_254" x1="130.665" y1="423.051" x2="131.398" y2="325.813" gradientUnits="userSpaceOnUse">
<stop stop-color="#2A2651"/>
<stop offset="0.12" stop-color="#221F42"/>
<stop offset="0.44" stop-color="#0F0E1E"/>
<stop offset="0.7" stop-color="#040308"/>
<stop offset="0.87" stop-color="#000001"/>
</linearGradient>
<linearGradient id="paint3_linear_2373_254" x1="239.442" y1="424.354" x2="238.699" y2="325.667" gradientUnits="userSpaceOnUse">
<stop stop-color="#2A2651"/>
<stop offset="0.12" stop-color="#221F42"/>
<stop offset="0.44" stop-color="#0F0E1E"/>
<stop offset="0.7" stop-color="#040308"/>
<stop offset="0.87" stop-color="#000001"/>
</linearGradient>
<linearGradient id="paint4_linear_2373_254" x1="176.059" y1="356.753" x2="176.187" y2="339.924" gradientUnits="userSpaceOnUse">
<stop stop-color="#2A2651"/>
<stop offset="0.12" stop-color="#221F42"/>
<stop offset="0.44" stop-color="#0F0E1E"/>
<stop offset="0.7" stop-color="#040308"/>
<stop offset="0.87" stop-color="#000001"/>
</linearGradient>
<linearGradient id="paint5_linear_2373_254" x1="194.885" y1="356.978" x2="194.757" y2="339.899" gradientUnits="userSpaceOnUse">
<stop stop-color="#2A2651"/>
<stop offset="0.12" stop-color="#221F42"/>
<stop offset="0.44" stop-color="#0F0E1E"/>
<stop offset="0.7" stop-color="#040308"/>
<stop offset="0.87" stop-color="#000001"/>
</linearGradient>
<linearGradient id="paint6_linear_2373_254" x1="186" y1="268.37" x2="186" y2="360.014" gradientUnits="userSpaceOnUse">
<stop stop-color="#0A0A0A"/>
<stop offset="1" stop-color="#0A0A0A" stop-opacity="0"/>
</linearGradient>
<linearGradient id="paint7_linear_2373_254" x1="185.498" y1="834.206" x2="186.007" y2="363.696" gradientUnits="userSpaceOnUse">
<stop stop-color="white"/>
<stop offset="0.15" stop-color="#DED2FF"/>
<stop offset="0.455691" stop-color="#BFADF0"/>
<stop offset="0.787825" stop-color="#695A92"/>
<stop offset="1" stop-color="#2E2A44"/>
</linearGradient>
<linearGradient id="paint8_linear_2373_254" x1="185.498" y1="1085.67" x2="230.794" y2="343.563" gradientUnits="userSpaceOnUse">
<stop offset="0.19" stop-color="white"/>
<stop offset="0.68" stop-color="white" stop-opacity="0.92"/>
<stop offset="0.866975" stop-color="#CAB7FF"/>
<stop offset="1" stop-color="#000001" stop-opacity="0"/>
</linearGradient>
<linearGradient id="paint9_linear_2373_254" x1="16.5294" y1="671.889" x2="136.5" y2="210.186" gradientUnits="userSpaceOnUse">
<stop stop-color="white"/>
<stop offset="1" stop-color="#000E0C" stop-opacity="0.07"/>
</linearGradient>
<linearGradient id="paint10_linear_2373_254" x1="192.012" y1="860" x2="192.012" y2="349" gradientUnits="userSpaceOnUse">
<stop offset="0.32" stop-color="white"/>
<stop offset="1" stop-color="#9797E3" stop-opacity="0"/>
</linearGradient>
<linearGradient id="paint11_linear_2373_254" x1="370.871" y1="683.733" x2="366.311" y2="204.777" gradientUnits="userSpaceOnUse">
<stop stop-color="white"/>
<stop offset="1" stop-color="#000E0C" stop-opacity="0.07"/>
</linearGradient>
<clipPath id="clip0_2373_254">
<rect width="371" height="800" fill="white"/>
</clipPath>
</defs>
</svg>
