<svg width="371" height="731" viewBox="0 0 371 731" fill="none" xmlns="http://www.w3.org/2000/svg">
<path fill-rule="evenodd" clip-rule="evenodd" d="M225.283 300.012C208.919 280.649 196.383 257.983 188.789 233.102C181.213 257.892 168.733 280.501 152.437 299.837C139.07 296.721 126.011 291.884 113.605 285.326C120.255 297.611 125.157 310.541 128.31 323.778C108.695 340.054 85.7153 352.519 60.4802 360.06C85.6974 367.605 108.683 380.067 128.309 396.346C125.156 409.582 120.255 422.511 113.605 434.795C126.013 428.236 139.073 423.398 152.442 420.283C168.734 439.607 181.218 462.212 188.789 487.018C196.387 462.155 208.92 439.484 225.287 420.11C238.917 423.218 252.234 428.113 264.874 434.795C258.119 422.318 253.168 409.174 250.022 395.721C269.47 379.749 292.185 367.505 317.098 360.06C292.203 352.612 269.483 340.371 250.023 324.396C253.169 310.944 258.119 297.802 264.874 285.326C252.232 292.008 238.915 296.903 225.283 300.012Z" fill="#1608B3"/>
<path d="M188.789 233.102L191.889 232.156L188.791 222.007L185.69 232.155L188.789 233.102ZM225.283 300.012L222.808 302.104L224.081 303.61L226.004 303.171L225.283 300.012ZM152.437 299.837L151.702 302.993L153.636 303.444L154.916 301.926L152.437 299.837ZM113.605 285.326L115.119 282.461L105.661 277.462L110.755 286.869L113.605 285.326ZM128.31 323.778L130.379 326.272L131.929 324.986L131.462 323.027L128.31 323.778ZM60.4802 360.06L59.5523 356.955L49.1675 360.058L59.5512 363.165L60.4802 360.06ZM128.309 396.346L131.461 397.097L131.928 395.138L130.378 393.852L128.309 396.346ZM113.605 434.795L110.755 433.252L105.661 442.659L115.119 437.66L113.605 434.795ZM152.442 420.283L154.92 418.194L153.64 416.676L151.706 417.127L152.442 420.283ZM188.789 487.018L185.689 487.964L188.787 498.114L191.888 487.966L188.789 487.018ZM225.287 420.11L226.007 416.95L224.084 416.512L222.811 418.019L225.287 420.11ZM264.874 434.795L263.359 437.66L272.817 442.659L267.724 433.252L264.874 434.795ZM250.022 395.721L247.965 393.216L246.407 394.495L246.866 396.459L250.022 395.721ZM317.098 360.06L318.026 363.165L328.41 360.062L318.027 356.955L317.098 360.06ZM250.023 324.396L246.867 323.658L246.408 325.621L247.967 326.901L250.023 324.396ZM264.874 285.326L267.724 286.869L272.817 277.462L263.359 282.461L264.874 285.326ZM185.689 234.048C193.414 259.358 206.166 282.412 222.808 302.104L227.758 297.92C211.673 278.886 199.352 256.609 191.889 232.156L185.689 234.048ZM154.916 301.926C171.488 282.261 184.183 259.265 191.888 234.049L185.69 232.155C178.244 256.518 165.978 278.741 149.959 297.749L154.916 301.926ZM112.09 288.191C124.746 294.881 138.066 299.815 151.702 302.993L153.173 296.681C140.073 293.628 127.277 288.888 115.119 282.461L112.09 288.191ZM131.462 323.027C128.244 309.516 123.241 296.319 116.454 283.783L110.755 286.869C117.269 298.902 122.07 311.566 125.157 324.529L131.462 323.027ZM61.4081 363.165C87.0658 355.498 110.433 342.823 130.379 326.272L126.24 321.284C106.957 337.285 84.3647 349.54 59.5523 356.955L61.4081 363.165ZM130.378 393.852C110.42 377.298 87.0481 364.627 61.4092 356.955L59.5512 363.165C84.3468 370.584 106.945 382.837 126.24 398.841L130.378 393.852ZM116.454 436.338C123.241 423.803 128.243 410.607 131.461 397.097L125.156 395.596C122.069 408.557 117.269 421.22 110.755 433.252L116.454 436.338ZM151.706 417.127C138.069 420.305 124.747 425.239 112.09 431.929L115.119 437.66C127.278 431.233 140.076 426.492 153.177 423.439L151.706 417.127ZM191.889 486.072C184.187 460.839 171.489 437.847 154.92 418.194L149.964 422.372C165.979 441.368 178.248 463.585 185.689 487.964L191.889 486.072ZM222.811 418.019C206.166 437.722 193.418 460.78 185.69 486.071L191.888 487.966C199.356 463.529 211.674 441.246 227.763 422.201L222.811 418.019ZM266.388 431.929C253.495 425.114 239.911 420.121 226.007 416.95L224.566 423.27C237.924 426.316 250.973 431.112 263.359 437.66L266.388 431.929ZM246.866 396.459C250.078 410.191 255.13 423.605 262.024 436.338L267.724 433.252C261.107 421.03 256.259 408.158 253.178 394.983L246.866 396.459ZM316.17 356.955C290.84 364.524 267.742 376.974 247.965 393.216L252.079 398.225C271.198 382.524 293.53 370.485 318.026 363.165L316.17 356.955ZM247.967 326.901C267.755 343.145 290.857 355.592 316.169 363.165L318.027 356.955C293.548 349.631 271.21 337.596 252.079 321.891L247.967 326.901ZM262.024 283.783C255.131 296.514 250.079 309.927 246.867 323.658L253.179 325.134C256.26 311.96 261.108 299.089 267.724 286.869L262.024 283.783ZM226.004 303.171C239.909 300.001 253.493 295.008 266.388 288.191L263.359 282.461C250.972 289.009 237.921 293.806 224.563 296.852L226.004 303.171Z" fill="#294DCF"/>
<path d="M188.789 196.748L189.232 196.613L188.79 195.163L188.347 196.613L188.789 196.748ZM236.227 283.721L235.873 284.02L236.055 284.235L236.33 284.173L236.227 283.721ZM141.538 283.494L141.433 283.945L141.709 284.009L141.892 283.792L141.538 283.494ZM91.0608 264.632L91.2772 264.223L89.9261 263.509L90.6537 264.853L91.0608 264.632ZM110.175 314.614L110.471 314.97L110.692 314.786L110.626 314.506L110.175 314.614ZM22.0063 361.776L21.8738 361.332L20.3903 361.775L21.8736 362.219L22.0063 361.776ZM110.174 408.943L110.624 409.05L110.691 408.77L110.47 408.587L110.174 408.943ZM91.0608 458.92L90.6537 458.699L89.9261 460.043L91.2772 459.329L91.0608 458.92ZM141.543 440.057L141.897 439.758L141.714 439.541L141.438 439.606L141.543 440.057ZM188.789 526.803L188.347 526.938L188.789 528.388L189.232 526.939L188.789 526.803ZM236.232 439.832L236.335 439.38L236.06 439.318L235.878 439.533L236.232 439.832ZM287.689 458.92L287.473 459.329L288.824 460.043L288.097 458.699L287.689 458.92ZM268.384 408.129L268.09 407.771L267.868 407.954L267.933 408.234L268.384 408.129ZM355.573 361.776L355.705 362.219L357.189 361.776L355.705 361.332L355.573 361.776ZM268.385 315.417L267.934 315.312L267.869 315.593L268.092 315.775L268.385 315.417ZM287.689 264.632L288.097 264.853L288.824 263.509L287.473 264.223L287.689 264.632ZM188.347 196.883C198.237 229.287 214.563 258.804 235.873 284.02L236.58 283.422C215.349 258.301 199.085 228.894 189.232 196.613L188.347 196.883ZM141.892 283.792C163.113 258.612 179.366 229.167 189.232 196.884L188.347 196.613C178.518 228.775 162.326 258.109 141.184 283.196L141.892 283.792ZM90.8445 265.041C107.007 273.585 124.018 279.886 141.433 283.945L141.643 283.043C124.305 279.002 107.369 272.729 91.2772 264.223L90.8445 265.041ZM110.626 314.506C106.518 297.261 100.132 280.415 91.468 264.412L90.6537 264.853C99.2793 280.784 105.636 297.554 109.725 314.721L110.626 314.506ZM22.1389 362.219C55.0014 352.399 84.9274 336.166 110.471 314.97L109.88 314.257C84.4309 335.374 54.6156 351.548 21.8738 361.332L22.1389 362.219ZM110.47 408.587C84.9115 387.387 54.9783 371.158 22.1391 361.332L21.8736 362.219C54.5924 372.009 84.4151 388.178 109.878 409.299L110.47 408.587ZM91.468 459.14C100.132 443.138 106.517 426.294 110.624 409.05L109.724 408.836C105.635 426.001 99.2785 442.769 90.6537 458.699L91.468 459.14ZM141.438 439.606C124.022 443.664 107.009 449.966 90.8445 458.51L91.2772 459.329C107.371 450.822 124.309 444.548 141.648 440.507L141.438 439.606ZM189.232 526.668C179.372 494.362 163.114 464.924 141.897 439.758L141.189 440.355C162.327 465.427 178.523 494.754 188.347 526.938L189.232 526.668ZM235.878 439.533C214.564 464.763 198.242 494.288 188.347 526.668L189.232 526.939C199.09 494.68 215.35 465.267 236.585 440.131L235.878 439.533ZM287.906 458.51C271.439 449.806 254.092 443.43 236.335 439.38L236.129 440.283C253.808 444.315 271.079 450.663 287.473 459.329L287.906 458.51ZM267.933 408.234C272.032 425.762 278.482 442.886 287.282 459.14L288.097 458.699C279.336 442.518 272.915 425.472 268.835 408.023L267.933 408.234ZM355.44 361.332C322.998 371.027 293.417 386.972 268.09 407.771L268.678 408.487C293.911 387.764 323.382 371.878 355.705 362.219L355.44 361.332ZM268.092 315.775C293.433 336.579 323.02 352.519 355.44 362.219L355.705 361.332C323.405 351.668 293.927 335.786 268.679 315.06L268.092 315.775ZM287.282 264.412C278.483 280.665 272.033 297.786 267.934 315.312L268.836 315.523C272.916 298.076 279.337 281.032 288.097 264.853L287.282 264.412ZM236.33 284.173C254.088 280.123 271.437 273.746 287.906 265.041L287.473 264.223C271.077 272.889 253.804 279.238 236.124 283.27L236.33 284.173Z" fill="#294DCF"/>
<path d="M115.399 249.606L155.037 238.298L162.223 240.644L164.442 267.895L161.491 276.448L145.933 289.506L139.207 286.756L112.893 257.56L115.399 249.606Z" fill="#FFDF0D" stroke="black" stroke-width="0.130032" stroke-linejoin="round"/>
<path d="M164.442 267.895L156.619 270.362L115.059 254.781L115.399 249.606L155.037 238.298L162.223 240.644L164.442 267.895Z" stroke="black" stroke-width="0.130032" stroke-linejoin="round"/>
<path d="M162.223 240.644L155.037 238.298L115.399 249.606L115.059 254.781L156.619 270.362L164.442 267.895L162.223 240.644Z" fill="#FFDF0D" stroke="black" stroke-width="0.130032" stroke-linejoin="round"/>
<path d="M158.343 239.377L144.79 252.45L160.661 269.087L164.441 267.895L162.222 240.645L158.343 239.377Z" stroke="black" stroke-width="0.130032" stroke-linejoin="round"/>
<path d="M155.036 238.299L158.342 239.377L144.789 252.45L115.228 252.181L115.398 249.606L155.036 238.299Z" fill="#FFDF0D" stroke="black" stroke-width="0.130032" stroke-linejoin="round"/>
<path d="M160.662 269.086L144.79 252.449L115.229 252.18L115.06 254.78L156.619 270.361L160.662 269.086Z" fill="#FFDF0D" stroke="black" stroke-width="0.130032" stroke-linejoin="round"/>
<path d="M161.491 276.449L156.619 270.362L164.442 267.896L161.491 276.449Z" stroke="black" stroke-width="0.130032" stroke-linejoin="round"/>
<path d="M161.49 276.449L145.933 289.507L139.206 286.757L112.892 257.56L115.059 254.781L156.618 270.362L161.49 276.449Z" fill="#99790F" stroke="black" stroke-width="0.130032" stroke-linejoin="round"/>
<path d="M159.27 273.674L137.819 273.335L114.141 255.958L115.059 254.781L156.618 270.361L159.27 273.674Z" fill="#99790F" stroke="black" stroke-width="0.130032" stroke-linejoin="round"/>
<path d="M142.609 288.147L137.819 273.334L159.269 273.673L161.49 276.447L145.933 289.505L142.609 288.147Z" fill="#99790F" stroke="black" stroke-width="0.130032" stroke-linejoin="round"/>
<path d="M137.819 273.334L142.609 288.148L139.206 286.756L112.893 257.559L114.141 255.957L137.819 273.334Z" fill="#99790F" stroke="black" stroke-width="0.130032" stroke-linejoin="round"/>
<path d="M152.364 247.078L149.402 246.112L132.339 251.177L132.2 253.311L149.894 259.893L153.119 258.876L152.364 247.078Z" fill="#FFFA68" stroke="black" stroke-width="0.130032" stroke-linejoin="round"/>
<path d="M149.323 274.112L141.628 280.57L138.301 279.211L125.286 264.769L126.358 263.395L146.912 271.101L149.323 274.112Z" fill="#CCA114" stroke="black" stroke-width="0.130032" stroke-linejoin="round"/>
<path d="M156.619 270.362L164.442 267.895L161.491 276.448L156.619 270.362Z" fill="#FFFA68" stroke="black" stroke-width="0.130032" stroke-linejoin="round"/>
<path d="M115.398 249.607L115.059 254.782L112.893 257.56L115.398 249.607Z" fill="#FFFA68" stroke="black" stroke-width="0.130032" stroke-linejoin="round"/>
<path d="M279.682 176.156L239.205 250.42L281.882 177.398C282.613 176.147 281.005 174.85 279.937 175.829C279.835 175.923 279.748 176.033 279.682 176.156Z" fill="white"/>
<path d="M238.166 272.96L410.394 29.4319" stroke="#1C976B" stroke-width="0.925961"/>
<path d="M521.474 519.201L294.196 411.056L529.908 509.765L521.474 519.201Z" fill="white"/>
<path d="M-61.709 178.832L132.799 322.057L-65.5961 206.957L-61.709 178.832Z" fill="white"/>
<circle cx="90.9381" cy="223.884" r="1.62043" stroke="white" stroke-width="0.46298"/>
<path d="M230.778 491.412L211.8 473.097L221.366 448.092L241.007 466.79L230.778 491.412Z" fill="#910577" stroke="black" stroke-width="0.259927" stroke-miterlimit="10"/>
<path d="M241.008 466.79L262.551 462.515L252.117 487.208L230.778 491.413L241.008 466.79Z" fill="#EF18D6" stroke="black" stroke-width="0.259927" stroke-miterlimit="10"/>
<path d="M241.027 466.885L262.571 462.61L242.714 443.926L221.386 448.187L241.027 466.885Z" fill="#FFA1EC" stroke="black" stroke-width="0.259927" stroke-miterlimit="10"/>
<path d="M228.781 482.219L217.477 471.457L223.365 457.286L234.668 468.047L228.781 482.219Z" fill="#670D56" stroke="black" stroke-width="0.259927" stroke-miterlimit="10"/>
<path d="M241.431 462.005L253.832 459.545L242.402 448.79L230.125 451.242L241.431 462.005Z" fill="#EF18D6" stroke="black" stroke-width="0.259927" stroke-miterlimit="10"/>
<path d="M243.593 471.446L255.291 469.124L249.625 482.532L238.039 484.815L243.593 471.446Z" fill="#910577" stroke="black" stroke-width="0.259927" stroke-miterlimit="10"/>
<path d="M236.308 457.084L231.586 457.969L229.491 463.218" stroke="black" stroke-width="0.259927" stroke-miterlimit="10"/>
<path d="M247.932 460.74L252.429 464.638L250.003 470.179" stroke="black" stroke-width="0.259927" stroke-miterlimit="10"/>
<path d="M236.857 449.802L232.74 445.944" stroke="black" stroke-width="0.259927" stroke-miterlimit="10"/>
<path d="M247.725 453.773L252.257 452.907" stroke="black" stroke-width="0.259927" stroke-miterlimit="10"/>
<path d="M222.605 476.495L220.508 481.474" stroke="black" stroke-width="0.259927" stroke-miterlimit="10"/>
<path d="M244.521 483.599L242.065 489.154" stroke="black" stroke-width="0.259927" stroke-miterlimit="10"/>
<path d="M231.798 474.955L236.025 478.898L240.88 477.944" stroke="black" stroke-width="0.259927" stroke-miterlimit="10"/>
<path d="M252.138 476.527L257.033 475.63" stroke="black" stroke-width="0.259927" stroke-miterlimit="10"/>
<path d="M220.213 464.672L216.493 460.985" stroke="black" stroke-width="0.259927" stroke-miterlimit="10"/>
<g clip-path="url(#clip0_19_680)">
<path d="M153.196 427.871C153.754 429.313 154.991 430.395 156.495 430.732C155.04 431.284 153.948 432.51 153.609 434.001C153.051 432.558 151.814 431.477 150.31 431.14C151.765 430.587 152.857 429.361 153.196 427.871Z" fill="#FFFEF3" stroke="#070306" stroke-width="0.381727" stroke-miterlimit="10"/>
<path d="M237.624 360.519C247.067 360.519 254.723 352.932 254.723 343.573C254.723 334.214 247.067 326.627 237.624 326.627C228.18 326.627 220.525 334.214 220.525 343.573C220.525 352.932 228.18 360.519 237.624 360.519Z" fill="black"/>
<path d="M230.784 350.967C230.784 374.403 212.06 392.407 188.413 392.407C164.765 392.407 146.041 374.403 146.041 350.967V340.175L172.017 318.589L186.327 310.176L206.021 313.253L218.245 326.401L230.809 340.175V350.967H230.784ZM207.937 350.967C207.937 339.982 199.715 331.714 188.413 331.714C177.11 331.714 168.888 339.982 168.888 350.967C168.888 361.952 177.11 370.221 188.413 370.221C199.715 370.221 207.937 361.952 207.937 350.967Z" fill="black"/>
<path d="M230.784 339.247C230.784 362.683 212.06 380.686 188.413 380.686C164.765 380.686 146.041 362.683 146.041 339.247V328.454L172.017 306.869L186.327 298.456L206.021 301.533L218.245 314.681L230.809 328.454V339.247H230.784ZM207.937 339.247C207.937 328.262 199.715 319.993 188.413 319.993C177.11 319.993 168.888 328.262 168.888 339.247C168.888 350.232 177.11 358.5 188.413 358.5C199.715 358.5 207.937 350.232 207.937 339.247Z" fill="#15D177" stroke="#020702" stroke-width="0.381727" stroke-miterlimit="10"/>
<path d="M219.798 367.298C212.085 375.518 200.928 380.59 188.413 380.59C175.898 380.59 163.819 375.11 156.082 366.264L151.256 319.945L172.017 306.796L186.327 298.384L206.021 301.46L226.589 313.839L219.822 367.322L219.798 367.298ZM207.937 339.15C207.937 328.165 199.715 319.897 188.413 319.897C177.111 319.897 168.888 328.165 168.888 339.15C168.888 350.135 177.111 358.404 188.413 358.404C199.715 358.404 207.937 350.135 207.937 339.15Z" fill="#C4EA3B" stroke="#0E0426" stroke-width="0.381727" stroke-miterlimit="10"/>
<path d="M146.041 328.454C146.041 305.018 164.765 287.014 188.413 287.014C212.06 287.014 230.784 305.018 230.784 328.454C230.784 351.89 212.06 369.894 188.413 369.894C164.765 369.894 146.041 351.89 146.041 328.454V328.454ZM207.937 328.454C207.937 317.469 199.715 309.2 188.413 309.2C177.11 309.2 168.888 317.469 168.888 328.454C168.888 339.439 177.11 347.708 188.413 347.708C199.715 347.708 207.937 339.439 207.937 328.454Z" fill="#FFFEF3" stroke="black" stroke-width="0.381727" stroke-miterlimit="10"/>
<path d="M148.606 328.702C148.606 306.708 166.088 289.812 188.168 289.812C210.248 289.812 227.73 306.708 227.73 328.702C227.73 350.697 210.248 367.593 188.168 367.593C166.088 367.593 148.606 350.697 148.606 328.702V328.702ZM206.398 328.702C206.398 318.393 198.721 310.633 188.168 310.633C177.615 310.633 169.938 318.393 169.938 328.702C169.938 339.012 177.615 346.772 188.168 346.772C198.721 346.772 206.398 339.012 206.398 328.702Z" fill="#FF3EF1" stroke="black" stroke-width="0.381727" stroke-miterlimit="10"/>
<path d="M131.828 317.316L140.802 332.171C141.7 334.07 142.355 336.209 142.694 338.541C144.586 351.064 136.606 360.054 125.328 361.713L118.925 362.65L121.326 378.539L105.319 380.918L98.2366 369.621L96.8298 324.696L119.24 321.379L131.804 317.268L131.828 317.316ZM126.711 340.921C126.274 338.036 124.019 336.642 121.617 337.003L115.214 337.94L116.597 347.098L123 346.161C125.401 345.8 127.147 343.829 126.711 340.921Z" fill="black" stroke="#06070A" stroke-width="0.381727" stroke-miterlimit="10"/>
<path d="M109.83 328.061L120.235 322.052L129.743 328.758L126.275 339.887L115.506 337.291L109.83 328.061Z" fill="black"/>
<path d="M135.297 327.965C137.091 339.863 129.403 348.396 118.561 350.007L112.401 350.92L114.681 366.015L99.3038 368.299L91.2515 314.913L112.789 311.716C123.631 310.105 133.502 316.043 135.297 327.941V327.965ZM119.92 330.248C119.507 327.508 117.349 326.186 115.02 326.523L108.86 327.436L110.17 336.137L116.33 335.224C118.634 334.888 120.308 332.989 119.895 330.248H119.92Z" fill="black" stroke="white" stroke-width="0.381727" stroke-miterlimit="10"/>
<path d="M116.063 367.025L121.35 378.587L103.985 381.135L98.2849 369.669L116.063 367.025Z" fill="black" stroke="#020702" stroke-width="0.381727" stroke-miterlimit="10"/>
<path d="M112.401 350.92L118.998 362.674L125.159 361.761C125.159 361.761 131.44 360.943 134.86 358.035L127.39 346.738C127.39 346.738 123.461 349.213 118.562 350.007L112.401 350.92Z" fill="black" stroke="#0E0426" stroke-width="0.381727" stroke-miterlimit="10"/>
<path d="M98.285 369.669L89.8689 313.903L112.619 310.538C118.319 309.697 123.849 310.85 128.142 313.783C132.701 316.908 135.612 321.739 136.509 327.772C137.431 333.806 136.073 339.262 132.629 343.589C129.379 347.651 124.455 350.343 118.755 351.209L113.808 351.954L116.087 367.049L98.3093 369.693L98.285 369.669ZM92.6338 315.946L100.322 366.953L113.322 365.03L111.043 349.935L118.392 348.853C123.485 348.108 127.875 345.704 130.737 342.123C133.744 338.349 134.933 333.517 134.108 328.157C133.308 322.797 130.761 318.518 126.759 315.778C122.976 313.182 118.076 312.172 112.983 312.918L92.6338 315.922V315.946ZM109.175 337.507L107.502 326.45L114.85 325.369C116.33 325.152 117.761 325.465 118.901 326.282C120.114 327.148 120.89 328.47 121.132 330.104C121.617 333.301 119.677 335.969 116.548 336.45L109.199 337.531L109.175 337.507ZM110.266 328.47L111.212 334.791L116.16 334.046C117.567 333.83 119.071 332.772 118.707 330.441C118.561 329.455 118.125 328.686 117.47 328.229C116.864 327.797 116.063 327.604 115.214 327.748L110.266 328.494V328.47Z" fill="black" stroke="#070705" stroke-width="0.381727" stroke-miterlimit="10"/>
<path d="M131.828 307.638L140.802 322.493C141.7 324.391 142.355 326.531 142.694 328.862C144.586 341.386 136.606 350.375 125.328 352.034L118.925 352.971L121.326 368.86L105.319 371.24L98.2366 359.942L96.8298 315.017L119.24 311.7L131.804 307.59L131.828 307.638ZM126.711 331.242C126.274 328.358 124.019 326.963 121.617 327.324L115.214 328.261L116.597 337.419L123 336.482C125.401 336.121 127.147 334.15 126.711 331.242Z" fill="#15D177" stroke="#06070A" stroke-width="0.381727" stroke-miterlimit="10"/>
<path d="M109.83 318.382L120.235 312.373L129.743 319.079L126.275 330.209L115.506 327.613L109.83 318.382Z" fill="black"/>
<path d="M135.297 318.286C137.091 330.184 129.403 338.718 118.561 340.328L112.401 341.241L114.681 356.337L99.3038 358.62L91.2515 305.234L112.789 302.037C123.631 300.427 133.502 306.364 135.297 318.262V318.286ZM119.92 320.57C119.507 317.829 117.349 316.507 115.02 316.844L108.86 317.757L110.17 326.459L116.33 325.545C118.634 325.209 120.308 323.31 119.895 320.57H119.92Z" fill="#FFF145" stroke="white" stroke-width="0.381727" stroke-miterlimit="10"/>
<path d="M116.063 357.346L121.35 368.908L103.985 371.456L98.2849 359.99L116.063 357.346Z" fill="#DE2BD1" stroke="#020702" stroke-width="0.381727" stroke-miterlimit="10"/>
<path d="M112.401 341.241L118.998 352.995L125.159 352.082C125.159 352.082 131.44 351.265 134.86 348.356L127.39 337.059C127.39 337.059 123.461 339.535 118.562 340.328L112.401 341.241Z" fill="#0BAA56" stroke="#0E0426" stroke-width="0.381727" stroke-miterlimit="10"/>
<path d="M98.285 359.99L89.8689 304.224L112.619 300.859C118.319 300.018 123.849 301.172 128.142 304.104C132.701 307.229 135.612 312.06 136.509 318.094C137.431 324.127 136.073 329.583 132.629 333.91C129.379 337.972 124.455 340.664 118.755 341.53L113.808 342.275L116.087 357.37L98.3093 360.014L98.285 359.99ZM92.6338 306.268L100.322 357.274L113.322 355.351L111.043 340.256L118.392 339.174C123.485 338.429 127.875 336.025 130.737 332.444C133.744 328.67 134.933 323.839 134.108 318.478C133.308 313.118 130.761 308.839 126.759 306.099C122.976 303.503 118.076 302.494 112.983 303.239L92.6338 306.243V306.268ZM109.175 327.829L107.502 316.772L114.85 315.69C116.33 315.474 117.761 315.786 118.901 316.603C120.114 317.469 120.89 318.791 121.132 320.425C121.617 323.622 119.677 326.29 116.548 326.771L109.199 327.853L109.175 327.829ZM110.266 318.791L111.212 325.113L116.16 324.367C117.567 324.151 119.071 323.093 118.707 320.762C118.561 319.776 118.125 319.007 117.47 318.55C116.864 318.118 116.063 317.925 115.214 318.07L110.266 318.815V318.791Z" fill="white" stroke="#070705" stroke-width="0.381727" stroke-miterlimit="10"/>
<path d="M276.503 325.827L285.208 340.413L278.518 354.183C275.139 361.767 267.235 365.865 258.189 365.388L257.215 367.253L250.798 380.508L234.334 379.66L237.202 325.022L243.619 311.767L260.231 326.199L276.478 325.828L276.503 325.827ZM263.769 346.031C263.906 343.212 261.948 341.481 259.467 341.358L252.877 341.029L252.412 349.922L259.002 350.252C261.482 350.375 263.609 348.851 263.769 346.031Z" fill="black" stroke="#06070A" stroke-width="0.381727" stroke-miterlimit="10"/>
<path d="M251.797 334.912L256.801 324.068L267.322 329.541L263.934 340.084L251.144 340.132L251.797 334.912Z" fill="black"/>
<path d="M285.094 334.187C284.455 346.19 275.223 353.056 264.28 352.482L258.079 352.162L257.269 367.395L241.73 366.609L244.554 312.742L266.294 313.848C277.237 314.398 285.709 322.161 285.069 334.164L285.094 334.187ZM269.555 333.401C269.694 330.63 267.857 328.919 265.523 328.79L259.321 328.47L258.851 337.244L265.052 337.564C267.387 337.692 269.417 336.173 269.555 333.401V333.401Z" fill="black" stroke="white" stroke-width="0.381727" stroke-miterlimit="10"/>
<path d="M240.439 367.764L234.334 379.66L251.162 380.518L258.41 368.675L240.439 367.764Z" fill="black" stroke="#020702" stroke-width="0.381727" stroke-miterlimit="10"/>
<path d="M258.055 352.188L257.468 365.584C257.468 365.584 263.724 366.07 268.106 363.86L272.953 351.41C272.953 351.41 270.349 353.168 258.056 352.212L258.055 352.188Z" fill="black" stroke="#0E0426" stroke-width="0.381727" stroke-miterlimit="10"/>
<path d="M258.409 368.675L240.462 367.763L243.414 311.486L266.37 312.667C278.749 313.307 286.947 322.187 286.31 334.262C285.673 346.337 276.605 354.328 264.228 353.711L259.219 353.467L258.41 368.699L258.409 368.675ZM242.998 365.479L256.105 366.14L256.914 350.908L264.331 351.278C275.299 351.851 283.308 344.766 283.877 334.113C284.446 323.436 277.185 315.603 266.242 315.053L245.717 313.997L242.997 365.455L242.998 365.479ZM265.534 338.773C265.364 338.779 265.17 338.786 265 338.769L257.583 338.398L258.182 327.239L265.599 327.609C267.083 327.698 268.416 328.297 269.376 329.295C270.388 330.387 270.878 331.812 270.795 333.475C270.711 335.114 270.084 336.509 268.956 337.489C268.04 338.293 266.844 338.747 265.559 338.796L265.534 338.773ZM260.118 336.114L265.127 336.358C265.979 336.399 266.77 336.152 267.334 335.65C267.945 335.122 268.303 334.315 268.363 333.326C268.422 332.338 268.148 331.506 267.592 330.902C267.085 330.343 266.32 330.011 265.469 329.971L260.46 329.727L260.118 336.09L260.118 336.114Z" fill="black" stroke="#070705" stroke-width="0.381727" stroke-miterlimit="10"/>
<path d="M276.503 316.149L285.208 330.734L278.518 344.505C275.139 352.089 267.235 356.187 258.189 355.709L257.215 357.574L250.798 370.829L234.334 369.981L237.202 315.343L243.619 302.088L260.231 316.521L276.478 316.149L276.503 316.149ZM263.769 336.352C263.906 333.533 261.948 331.802 259.467 331.679L252.877 331.35L252.412 340.244L259.002 340.573C261.482 340.696 263.609 339.173 263.769 336.352Z" fill="#15D177" stroke="#06070A" stroke-width="0.381727" stroke-miterlimit="10"/>
<path d="M251.797 325.233L256.801 314.389L267.322 319.862L263.934 330.405L251.144 330.453L251.797 325.233Z" fill="black"/>
<path d="M285.094 324.508C284.455 336.511 275.223 343.378 264.28 342.803L258.079 342.484L257.269 357.716L241.73 356.93L244.554 303.063L266.294 304.169C277.237 304.719 285.709 312.482 285.069 324.485L285.094 324.508ZM269.555 323.722C269.694 320.951 267.857 319.24 265.523 319.111L259.321 318.792L258.851 327.565L265.052 327.885C267.387 328.013 269.417 326.494 269.555 323.722V323.722Z" fill="#FFF145" stroke="white" stroke-width="0.381727" stroke-miterlimit="10"/>
<path d="M240.439 358.085L234.334 369.981L251.162 370.839L258.41 358.996L240.439 358.085Z" fill="#DE2BD1" stroke="#020702" stroke-width="0.381727" stroke-miterlimit="10"/>
<path d="M258.055 342.509L257.468 355.905C257.468 355.905 263.724 356.391 268.106 354.182L272.953 341.732C272.953 341.732 270.349 343.489 258.056 342.533L258.055 342.509Z" fill="#0BAA56" stroke="#0E0426" stroke-width="0.381727" stroke-miterlimit="10"/>
<path d="M258.409 358.997L240.462 358.085L243.414 301.807L266.37 302.988C278.749 303.628 286.947 312.508 286.31 324.583C285.673 336.658 276.605 344.649 264.228 344.032L259.219 343.788L258.41 359.021L258.409 358.997ZM242.998 355.8L256.105 356.462L256.914 341.229L264.331 341.599C275.299 342.172 283.308 335.088 283.877 324.434C284.446 313.757 277.185 305.924 266.242 305.374L245.717 304.319L242.997 355.776L242.998 355.8ZM265.534 329.094C265.364 329.1 265.17 329.108 265 329.09L257.583 328.72L258.182 317.56L265.599 317.93C267.083 318.019 268.416 318.618 269.376 319.616C270.388 320.709 270.878 322.133 270.795 323.796C270.711 325.435 270.084 326.83 268.956 327.81C268.04 328.615 266.844 329.069 265.559 329.117L265.534 329.094ZM260.118 326.435L265.127 326.68C265.979 326.72 266.77 326.474 267.334 325.971C267.945 325.443 268.303 324.636 268.363 323.647C268.422 322.659 268.148 321.827 267.592 321.223C267.085 320.665 266.32 320.333 265.469 320.292L260.46 320.048L260.118 326.411L260.118 326.435Z" fill="white" stroke="#070705" stroke-width="0.381727" stroke-miterlimit="10"/>
<path d="M188.523 294.758C190.439 302.354 200.043 304.901 205.525 299.277C203.342 306.8 210.375 313.771 217.967 311.608C212.292 317.064 214.862 326.559 222.527 328.458C214.862 330.357 212.292 339.875 217.967 345.308C210.375 343.144 203.342 350.115 205.525 357.639C200.019 352.014 190.439 354.562 188.523 362.158C186.607 354.562 177.002 352.014 171.521 357.639C173.703 350.115 166.67 343.144 159.078 345.308C164.754 339.851 162.183 330.357 154.519 328.458C162.183 326.559 164.754 317.04 159.078 311.608C166.67 313.771 173.703 306.8 171.521 299.277C177.026 304.901 186.607 302.354 188.523 294.758V294.758Z" fill="#FFF868" stroke="black" stroke-width="0.381727" stroke-linejoin="round"/>
<path d="M188.159 289.133C194.004 308.315 209.162 323.314 228.493 329.107C209.138 334.9 194.004 349.923 188.159 369.08C182.313 349.899 167.155 334.9 147.824 329.107C167.179 323.314 182.313 308.291 188.159 289.133V289.133Z" fill="#FFFEF3" stroke="#070306" stroke-width="0.381727" stroke-miterlimit="10"/>
<path d="M212.025 305.478C204.045 320.261 204.045 338 212.025 352.783C197.108 344.875 179.209 344.875 164.293 352.783C172.272 338 172.272 320.261 164.293 305.478C179.209 313.386 197.108 313.386 212.025 305.478V305.478Z" fill="white" stroke="#070306" stroke-width="0.381727" stroke-miterlimit="10"/>
<path d="M188.216 314.442C190.375 321.557 196.001 327.11 203.181 329.273C196.001 331.412 190.399 336.989 188.216 344.104C186.057 336.989 180.43 331.436 173.251 329.273C180.43 327.134 186.033 321.557 188.216 314.442V314.442Z" fill="black"/>
<path d="M143.001 378.519C144.021 381.017 146.221 382.816 148.86 383.355C146.361 384.374 144.561 386.573 144.021 389.21C143.001 386.712 140.802 384.914 138.162 384.374C140.662 383.355 142.462 381.157 143.001 378.519Z" fill="white" stroke="black" stroke-width="0.381727" stroke-linejoin="round"/>
<path d="M135.384 335.486C132.279 336.345 129.836 338.597 128.876 341.48C127.952 338.597 125.527 336.329 122.421 335.437C125.527 334.579 127.969 332.327 128.929 329.443C129.854 332.327 132.279 334.595 135.384 335.486Z" fill="#FFFEF3" stroke="#070306" stroke-width="0.381727" stroke-miterlimit="10"/>
<path d="M299.957 355.669C297.465 356.519 295.581 358.473 294.937 360.871C294.044 358.563 291.957 356.829 289.381 356.251C291.873 355.402 293.758 353.448 294.402 351.05C295.295 353.358 297.382 355.091 299.957 355.669Z" fill="#FFFEF3" stroke="#070306" stroke-width="0.381727" stroke-miterlimit="10"/>
<path d="M63.6984 405.547C66.7174 397.96 75.2371 394.338 83.765 397.374C89.0371 399.247 92.6953 403.364 93.6638 408.023L85.205 409.193C84.9286 407.224 83.2947 405.405 80.9138 404.575C76.9293 403.152 73.1541 404.876 71.7404 408.417C70.3267 411.981 71.9694 415.603 75.9539 417.026C78.3592 417.88 80.8073 417.556 82.4013 416.178L87.9612 422.353C83.9979 425.28 78.375 426.101 73.1027 424.203C64.5506 421.167 60.6792 413.109 63.674 405.523L63.6984 405.547Z" fill="black"/>
<path d="M121.608 408.801L114.195 435.326L105.89 433.251L108.631 423.478L101.565 421.709L98.8233 431.482L90.5184 429.406L97.9321 402.881L106.237 404.956L103.615 414.344L110.681 416.113L113.303 406.725L121.608 408.801V408.801Z" fill="black"/>
<path d="M137.869 435.692L129.301 434.387L127.692 437.712L118.566 436.314L132.654 410.67L142.581 412.185L147.449 440.742L138.323 439.344L137.893 435.692L137.869 435.692ZM137.085 429.206L136.049 420.509L132.158 428.46L137.085 429.206V429.206Z" fill="black"/>
<path d="M170.727 434.692L170.134 442.267L151.67 440.938L153.841 413.572L162.43 414.18L160.853 433.971L170.727 434.668L170.727 434.692Z" fill="black"/>
<path d="M193.504 434.991L193.347 442.587L174.864 442.268L175.385 414.838L183.996 414.989L183.608 434.822L193.504 434.991Z" fill="black"/>
<path d="M217.679 433.696L218.223 440.905L198.463 442.274L196.365 414.881L215.907 413.537L216.451 420.65L205.492 421.399L205.725 424.379L215.593 423.706L216.137 430.747L206.269 431.419L206.502 434.471L217.679 433.696V433.696Z" fill="black"/>
<path d="M244.264 409.434L248.932 436.502L242.146 437.544L230.669 426.614L232.815 438.983L224.308 440.298L219.641 413.23L226.427 412.188L237.904 423.118L235.758 410.749L244.264 409.434Z" fill="black"/>
<path d="M281.184 415.073C283.354 422.514 279.315 429.648 270.473 431.975C261.293 434.375 253.292 430.014 251.023 422.237C248.729 414.363 253.397 406.673 262.068 404.396C267.591 402.951 272.982 404.175 276.659 407.21L270.671 412.719C269.21 411.549 266.976 411.079 264.408 411.764C260.218 412.866 258.222 416.313 259.332 420.105C260.244 423.25 263.218 426.361 268.62 424.965C271.721 424.156 273.192 422.539 273.571 420.662L267.394 422.278L265.52 415.845L280.296 411.952L281.208 415.096L281.184 415.073Z" fill="black"/>
<path d="M306.102 412.02L308.851 418.761L290.378 425.532L279.922 399.91L298.2 393.212L300.925 399.881L290.684 403.633L291.813 406.415L301.037 403.03L303.713 409.627L294.489 413.013L295.643 415.868L306.078 412.044L306.102 412.02Z" fill="black"/>
<path d="M63.7533 396.845C66.7723 389.258 75.292 385.636 83.8199 388.672C89.0921 390.545 92.7502 394.662 93.7188 399.321L85.2599 400.491C84.9835 398.521 83.3497 396.702 80.9688 395.873C76.9842 394.449 73.209 396.174 71.7953 399.715C70.3817 403.279 72.0243 406.901 76.0089 408.324C78.4141 409.178 80.8622 408.853 82.4562 407.476L88.0162 413.651C84.0528 416.578 78.4299 417.399 73.1576 415.501C64.6055 412.465 60.7342 404.407 63.7289 396.821L63.7533 396.845Z" fill="black"/>
<path d="M121.688 400.099L114.274 426.624L105.969 424.549L108.711 414.776L101.644 413.008L98.9026 422.78L90.5977 420.705L98.0115 394.179L106.316 396.255L103.694 405.642L110.761 407.411L113.383 398.024L121.688 400.099V400.099Z" fill="black"/>
<path d="M137.924 427.014L129.356 425.71L127.747 429.035L118.621 427.636L132.709 401.992L142.636 403.507L147.504 432.064L138.378 430.666L137.948 427.014L137.924 427.014ZM137.14 420.528L136.104 411.831L132.213 419.783L137.14 420.528V420.528Z" fill="black"/>
<path d="M170.783 425.99L170.19 433.565L151.726 432.236L153.897 404.87L162.486 405.478L160.909 425.269L170.783 425.966L170.783 425.99Z" fill="black"/>
<path d="M193.583 426.289L193.426 433.886L174.943 433.566L175.465 406.137L184.075 406.287L183.687 426.12L193.583 426.289Z" fill="black"/>
<path d="M217.734 424.994L218.278 432.203L198.518 433.572L196.42 406.179L215.962 404.835L216.506 411.948L205.547 412.698L205.78 415.677L215.648 415.005L216.192 422.045L206.324 422.718L206.557 425.769L217.734 424.994V424.994Z" fill="black"/>
<path d="M244.319 400.732L248.986 427.8L242.2 428.842L230.723 417.912L232.869 430.282L224.363 431.596L219.695 404.528L226.481 403.486L237.958 414.416L235.812 402.047L244.319 400.732V400.732Z" fill="black"/>
<path d="M281.237 406.371C283.407 413.812 279.368 420.947 270.526 423.273C261.346 425.673 253.345 421.312 251.076 413.535C248.782 405.662 253.45 397.971 262.121 395.694C267.644 394.249 273.035 395.473 276.712 398.508L270.724 404.018C269.263 402.847 267.029 402.377 264.461 403.062C260.271 404.164 258.275 407.611 259.384 411.404C260.297 414.548 263.271 417.659 268.673 416.263C271.774 415.455 273.245 413.837 273.624 411.96L267.447 413.576L265.573 407.143L280.349 403.25L281.261 406.395L281.237 406.371Z" fill="black"/>
<path d="M306.156 403.318L308.905 410.059L290.433 416.831L279.976 391.209L298.255 384.51L300.979 391.18L290.738 394.931L291.868 397.714L301.092 394.328L303.767 400.926L294.543 404.311L295.697 407.166L306.132 403.342L306.156 403.318Z" fill="black"/>
<path d="M84.1987 391.866L95.2508 395.275L94.0976 402.516L85.6388 403.686C85.3624 401.716 83.7285 399.897 81.3476 399.067C77.3631 397.644 73.5879 399.369 72.1742 402.909C70.7605 406.474 72.4032 410.096 76.3877 411.519C78.793 412.373 81.2411 412.048 82.8351 410.67L90.0533 408.737L88.395 416.845C84.4317 419.773 78.8088 420.593 73.5365 418.696C67.1953 416.443 63.4116 411.437 63.1177 405.886L61.9554 396.3L77.2237 388.943L84.1745 391.866L84.1987 391.866Z" fill="#0BAA56" stroke="#06070A" stroke-width="0.381727" stroke-miterlimit="10"/>
<path d="M122.066 403.293L114.652 429.819L106.347 427.743L104.735 420.347L109.089 417.971L102.023 416.202L99.2809 425.975L90.9761 423.899L89.3636 416.503L98.4142 397.398L108.081 390.332L106.719 399.497L104.097 408.885L111.163 410.653L113.786 401.266L123.453 394.201L122.091 403.365L122.066 403.293Z" fill="#0BAA56" stroke="#06070A" stroke-width="0.381727" stroke-miterlimit="10"/>
<path d="M138.303 430.185L129.735 428.88L128.126 432.205L119 430.807L116.999 423.461L133.088 405.163L143.015 406.677L149.208 428.402L147.883 435.235L138.757 433.837L138.327 430.185L138.303 430.185ZM137.633 422.208L136.482 415.002L132.706 421.462L137.633 422.208Z" fill="#15D177" stroke="#06070A" stroke-width="0.381727" stroke-miterlimit="10"/>
<path d="M171.162 429.185L171.528 429.784L170.568 436.76L152.104 435.43L150.687 428.274L154.275 408.065L162.864 408.673L161.287 428.463L171.161 429.161L171.162 429.185Z" fill="#C4EA3B" stroke="#06070A" stroke-width="0.381727" stroke-miterlimit="10"/>
<path d="M193.962 429.484L194.862 430.032L193.805 437.08L175.322 436.761L173.978 429.676L175.868 409.331L184.478 409.482L184.09 429.315L193.986 429.483L193.962 429.484Z" fill="#C4EA3B" stroke="#06070A" stroke-width="0.381727" stroke-miterlimit="10"/>
<path d="M218.113 428.189L219.835 428.228L218.681 435.373L198.921 436.742L197.699 429.753L196.823 409.373L218.063 407.997L217.047 408.627L216.909 415.142L205.95 415.892L206.183 418.871L217.772 418.07L216.297 418.943L216.595 425.239L206.727 425.912L206.96 428.963L218.137 428.188L218.113 428.189Z" fill="#C4EA3B" stroke="#06070A" stroke-width="0.381727" stroke-miterlimit="10"/>
<path d="M244.699 403.927L250.64 423.729L249.366 430.995L242.58 432.037L231.104 421.107L234.5 426.211L233.225 433.476L224.719 434.791L220.051 407.723L219.317 401.333L226.837 406.657L238.314 417.587L236.168 405.218L235.433 398.827L244.675 403.903L244.699 403.927Z" fill="#15D177" stroke="#06070A" stroke-width="0.381727" stroke-miterlimit="10"/>
<path d="M278.797 393.354L277.092 401.679ZM277.092 401.679L271.104 407.188C269.643 406.018 267.409 405.548 264.841 406.233C260.651 407.335 258.655 410.782 259.764 414.574C260.677 417.719 263.651 420.83 269.053 419.433C272.154 418.625 273.625 417.008 274.004 415.131L267.827 416.747L265.079 410.27L264.332 401.187L280.729 406.445L281.641 409.59C283.812 417.031 279.772 424.165 270.931 426.492C261.75 428.891 253.75 424.531 251.48 416.754C251.233 415.865 251.06 415.001 250.958 414.136L249.534 405.537L269.908 390.897L278.797 393.378L277.092 401.703L277.092 401.679Z" fill="#0BAA56"/>
<path d="M278.797 393.354L277.092 401.679M277.092 401.679L271.104 407.188C269.643 406.018 267.409 405.548 264.841 406.233C260.651 407.335 258.655 410.782 259.764 414.574C260.677 417.719 263.651 420.83 269.053 419.433C272.154 418.625 273.625 417.008 274.004 415.131L267.827 416.747L265.079 410.27L264.332 401.187L280.729 406.445L281.641 409.59C283.812 417.031 279.772 424.165 270.931 426.492C261.75 428.891 253.75 424.531 251.48 416.754C251.233 415.865 251.06 415.001 250.958 414.136L249.534 405.537L269.908 390.897L278.797 393.378L277.092 401.703L277.092 401.679Z" stroke="#06070A" stroke-width="0.381727" stroke-miterlimit="10"/>
<path d="M306.536 406.513L310.728 405.675L309.261 413.254L290.789 420.025L280.332 394.403L278.615 385.422L298.587 387.705L302.754 386.796L301.287 394.375L291.046 398.126L292.175 400.909L301.399 397.523L305.542 396.542L304.075 404.121L294.851 407.506L296.005 410.361L306.44 406.537L306.536 406.513Z" fill="#0BAA56" stroke="#06070A" stroke-width="0.381727" stroke-miterlimit="10"/>
<path d="M64.0185 391.748C67.0375 384.161 75.5572 380.539 84.085 383.574C89.3572 385.448 93.0153 389.565 93.9839 394.224L85.525 395.394C85.2487 393.424 83.6148 391.605 81.2339 390.775C77.2493 389.352 73.4742 391.077 72.0604 394.618C70.6468 398.182 72.2895 401.804 76.274 403.227C78.6793 404.081 81.1273 403.756 82.7214 402.379L88.2813 408.554C84.3179 411.481 78.6951 412.302 73.4228 410.404C64.8706 407.368 60.9993 399.31 63.9941 391.724L64.0185 391.748Z" fill="#FF51F2" stroke="white" stroke-width="0.381727" stroke-miterlimit="10"/>
<path d="M121.928 395.026L114.515 421.551L106.21 419.476L108.951 409.703L101.885 407.934L99.1433 417.707L90.8385 415.632L98.2522 389.106L106.557 391.182L103.935 400.569L111.001 402.338L113.624 392.95L121.928 395.026Z" fill="#FF51F2" stroke="white" stroke-width="0.381727" stroke-miterlimit="10"/>
<path d="M138.189 421.917L129.621 420.612L128.012 423.937L118.886 422.539L132.974 396.895L142.901 398.409L147.769 426.967L138.643 425.568L138.213 421.917L138.189 421.917ZM137.405 415.43L136.369 406.734L132.478 414.685L137.405 415.43V415.43Z" fill="#FF51F2" stroke="white" stroke-width="0.381727" stroke-miterlimit="10"/>
<path d="M171.047 420.893L170.454 428.468L151.99 427.139L154.161 399.773L162.75 400.381L161.173 420.171L171.047 420.869L171.047 420.893Z" fill="#FF51F2" stroke="white" stroke-width="0.381727" stroke-miterlimit="10"/>
<path d="M193.824 421.191L193.667 428.788L175.184 428.468L175.705 401.039L184.316 401.19L183.928 421.023L193.824 421.191Z" fill="#FF51F2" stroke="white" stroke-width="0.381727" stroke-miterlimit="10"/>
<path d="M217.999 419.921L218.543 427.129L198.783 428.499L196.686 401.106L216.227 399.762L216.771 406.874L205.812 407.624L206.045 410.604L215.913 409.931L216.457 416.972L206.589 417.644L206.822 420.696L217.999 419.921V419.921Z" fill="#FF51F2" stroke="white" stroke-width="0.381727" stroke-miterlimit="10"/>
<path d="M244.585 395.635L249.252 422.703L242.466 423.745L230.989 412.815L233.135 425.184L224.629 426.499L219.961 399.431L226.747 398.389L238.224 409.319L236.078 396.95L244.585 395.635V395.635Z" fill="#FF51F2" stroke="white" stroke-width="0.381727" stroke-miterlimit="10"/>
<path d="M281.503 401.273C283.674 408.715 279.634 415.849 270.792 418.175C261.612 420.575 253.611 416.215 251.342 408.438C249.048 400.564 253.716 392.874 262.388 390.596C267.91 389.152 273.301 390.376 276.978 393.411L270.99 398.92C269.529 397.749 267.295 397.279 264.728 397.965C260.537 399.067 258.541 402.514 259.651 406.306C260.563 409.451 263.537 412.561 268.939 411.165C272.04 410.357 273.511 408.739 273.89 406.863L267.713 408.479L265.839 402.046L280.615 398.153L281.527 401.297L281.503 401.273Z" fill="#FF51F2" stroke="white" stroke-width="0.381727" stroke-miterlimit="10"/>
<path d="M306.422 398.221L309.171 404.962L290.698 411.734L280.242 386.112L298.521 379.413L301.245 386.083L291.004 389.834L292.133 392.617L301.358 389.231L304.033 395.829L294.809 399.214L295.963 402.069L306.398 398.245L306.422 398.221Z" fill="#FF51F2" stroke="white" stroke-width="0.381727" stroke-miterlimit="10"/>
<path d="M112.768 391.464L110.145 400.852L105.41 399.673L108.032 390.285L97.3961 387.62L95.3459 394.937L95.1473 394.001C94.0794 388.862 89.9832 384.435 84.4679 382.466C75.454 379.24 66.1591 383.059 62.8766 391.32C61.367 395.101 61.411 399.163 63.0051 402.761C64.7952 406.791 68.3516 409.947 73.0165 411.607C75.033 412.318 77.1449 412.693 79.2792 412.683L79.4247 412.682C82.9656 412.641 86.3558 411.543 88.9899 409.583L90.0532 408.785L82.835 400.767L81.9413 401.516C80.6611 402.604 78.625 402.854 76.657 402.143C75.0048 401.55 73.7384 400.474 73.1498 399.131C72.6101 397.883 72.6034 396.513 73.1302 395.116C74.3281 392.082 77.4749 390.793 80.779 391.955C82.7227 392.642 84.0635 394.054 84.2651 395.592L84.4164 396.793L95.1779 395.299L89.2418 416.481L99.878 419.146L102.62 409.373L107.355 410.552L104.613 420.325L115.249 422.99L123.331 394.13L112.695 391.465L112.768 391.464ZM70.9427 394.165C70.152 396.14 70.1621 398.232 70.9714 400.055C71.8299 402.022 73.5836 403.552 75.8674 404.358C78.1998 405.188 80.6487 405.032 82.5353 403.965L86.437 408.297C82.8093 410.43 78.1301 410.789 73.8054 409.248C69.7722 407.801 66.7031 405.123 65.2071 401.717C63.8828 398.719 63.842 395.329 65.1121 392.174C67.1486 387.02 72.0321 383.776 77.8526 383.7C77.9011 383.699 77.9254 383.699 77.9739 383.699C79.8657 383.69 81.7833 384.017 83.6785 384.705C87.9545 386.223 91.1957 389.381 92.4755 393.196L86.416 394.019C85.703 392.051 83.9489 390.425 81.6407 389.595C77.146 388.006 72.644 389.902 70.9669 394.141L70.9427 394.165ZM107.685 418.555L110.426 408.783L101.029 406.424L98.2871 416.197L92.2891 414.687L99.0594 390.497L105.057 392.006L102.435 401.394L111.833 403.752L114.455 394.365L120.453 395.874L113.683 420.065L107.685 418.555V418.555Z" fill="white" stroke="#0C060B" stroke-width="0.381727" stroke-miterlimit="10"/>
<path d="M132.312 395.552L117.335 422.859L116.998 423.462L128.697 425.256L130.306 421.931L137.102 422.98L137.532 426.632L149.207 428.427L143.914 397.371L132.312 395.6L132.312 395.552ZM139.705 424.482L139.275 420.83L128.935 419.246L127.326 422.571L120.773 421.569L133.61 398.166L141.863 399.424L146.282 425.46L139.705 424.458L139.705 424.482Z" fill="white" stroke="#0C060B" stroke-width="0.381727" stroke-miterlimit="10"/>
<path d="M130.688 415.631L138.795 416.866L137.076 402.548L130.688 415.631V415.631ZM134.293 413.739L135.661 410.92L136.04 414.019L134.293 413.763L134.293 413.739Z" fill="white" stroke="#0C060B" stroke-width="0.381727" stroke-miterlimit="10"/>
<path d="M164.031 399.293L153.064 398.504L150.711 428.298L171.552 429.784L172.352 419.781L162.478 419.083L164.055 399.293L164.031 399.293ZM169.357 427.199L153.295 426.05L155.284 401.089L161.471 401.54L159.894 421.331L169.768 422.029L169.357 427.199V427.199Z" fill="white" stroke="#0C060B" stroke-width="0.381727" stroke-miterlimit="10"/>
<path d="M185.547 400.006L174.559 399.818L173.977 429.652L194.861 430.008L195.055 419.983L185.159 419.815L185.547 399.982L185.547 400.006ZM183.109 402.397L182.721 422.23L192.617 422.399L192.521 427.592L176.415 427.308L176.9 402.307L183.109 402.421L183.109 402.397Z" fill="white" stroke="#0C060B" stroke-width="0.381727" stroke-miterlimit="10"/>
<path d="M207.932 419.392L207.88 418.744L217.748 418.071L217.023 408.628L207.155 409.3L207.104 408.748L218.063 407.998L217.337 398.458L195.395 399.958L197.675 429.754L219.811 428.229L219.085 418.618L207.932 419.392V419.392ZM215.143 401.041L215.505 405.751L204.546 406.5L204.961 411.883L214.829 411.21L215.191 415.848L205.323 416.52L205.737 421.975L216.89 421.2L217.253 425.982L199.893 427.171L197.977 402.205L215.119 401.017L215.143 401.041Z" fill="white" stroke="#0C060B" stroke-width="0.381727" stroke-miterlimit="10"/>
<path d="M234.691 395.946L236.413 405.962L227.129 397.112L218.55 398.452L223.641 427.922L234.499 426.235L232.776 416.219L242.06 425.069L250.64 423.729L245.548 394.26L234.691 395.946ZM242.848 422.493L229.178 409.482L231.724 424.229L225.592 425.172L221.325 400.482L226.342 399.712L240.011 412.723L237.466 397.976L243.597 397.033L247.865 421.724L242.848 422.493Z" fill="white" stroke="#0C060B" stroke-width="0.381727" stroke-miterlimit="10"/>
<path d="M281.384 396.683L272.688 398.96L278.772 393.354L277.701 392.47C273.61 389.076 267.759 387.926 262.066 389.42C257.319 390.669 253.5 393.5 251.361 397.38C249.462 400.827 249.02 404.867 250.179 408.78C252.202 415.669 258.359 420.086 265.902 420.05L266.048 420.049C267.697 420.041 269.393 419.793 271.089 419.352C275.861 418.103 279.583 415.417 281.602 411.753C283.382 408.548 283.751 404.7 282.641 400.931L281.383 396.659L281.384 396.683ZM270.837 397.382C269.037 396.381 266.78 396.152 264.382 396.788C261.96 397.425 260.051 398.804 259.017 400.708C258.031 402.468 257.847 404.536 258.464 406.624C259.524 410.273 262.962 413.934 269.187 412.294C273.329 411.192 274.652 408.854 275.007 407.05L275.386 405.149L268.458 406.961L267.249 402.856L279.7 399.575L280.292 401.592C281.229 404.784 280.929 407.862 279.462 410.538C277.755 413.599 274.565 415.874 270.447 416.975C262.138 419.154 254.577 415.393 252.432 408.072C251.47 404.807 251.817 401.416 253.428 398.548C255.255 395.246 258.518 392.826 262.636 391.749C264.016 391.382 265.398 391.207 266.78 391.176C266.829 391.176 266.853 391.176 266.901 391.176C269.885 391.161 272.726 391.965 275.038 393.468L270.812 397.358L270.837 397.382ZM271.28 408.75C270.603 409.258 269.708 409.671 268.594 409.965C264.04 411.141 261.554 408.677 260.764 405.94C260.345 404.476 260.459 403.057 261.108 401.876C261.83 400.575 263.207 399.583 265 399.117C265.678 398.946 266.357 398.846 266.987 398.843C268.127 398.838 269.147 399.121 269.975 399.67L264.306 401.164L266.871 409.901L271.304 408.726L271.28 408.75Z" fill="white" stroke="#0C060B" stroke-width="0.381727" stroke-miterlimit="10"/>
<path d="M307.093 396.703L296.659 400.527L296.413 399.903L305.637 396.518L302.053 387.689L292.805 391.075L292.584 390.523L302.825 386.772L299.192 377.871L278.662 385.398L289.831 412.819L290.002 413.251L310.727 405.652L307.069 396.679L307.093 396.703ZM297.849 380.955L299.641 385.369L289.4 389.12L291.437 394.134L300.686 390.749L302.453 395.091L293.229 398.476L295.315 403.562L305.75 399.738L307.591 404.224L291.37 410.168L281.846 386.777L297.873 380.907L297.849 380.955Z" fill="white" stroke="#0C060B" stroke-width="0.381727" stroke-miterlimit="10"/>
<circle r="1.85192" transform="matrix(1 0 0 -1 69.6412 446.114)" fill="white"/>
<circle r="1.38894" transform="matrix(1 0 0 -1 301.595 280.83)" fill="white"/>
</g>
<defs>
<clipPath id="clip0_19_680">
<rect width="307.419" height="207.415" fill="white" transform="translate(27.9727 240.551)"/>
</clipPath>
</defs>
</svg>
