<svg width="74" height="74" viewBox="0 0 74 74" fill="none" xmlns="http://www.w3.org/2000/svg">
<circle cx="39.1272" cy="39.1277" r="23.8723" fill="#7028CC" stroke="#0D0D0D" stroke-width="0.5" stroke-linejoin="round"/>
<circle cx="35.8723" cy="35.8723" r="23.8723" fill="#7D50FF" stroke="#0D0D0D" stroke-width="0.5" stroke-linejoin="round"/>
<rect x="27.1924" y="32.532" width="3.25532" height="8.68085" fill="black" stroke="black" stroke-width="0.81383" stroke-linejoin="round"/>
<path d="M36.958 28.1917L30.4474 32.5321V41.2129L36.958 45.5534V28.1917Z" fill="black" stroke="black" stroke-width="0.81383" stroke-linejoin="round"/>
<rect x="26.1924" y="31.532" width="3.25532" height="8.68085" fill="white" stroke="black" stroke-width="0.5" stroke-linejoin="round"/>
<path d="M35.958 27.1917L29.4474 31.5321V40.2129L35.958 44.5534V27.1917Z" fill="white" stroke="black" stroke-width="0.5" stroke-linejoin="round"/>
<path d="M42.584 31.0636C45.9323 34.4119 45.9323 39.8405 42.584 43.1888" stroke="black" stroke-width="2.44966" stroke-linecap="round" stroke-linejoin="round"/>
<path d="M40.3447 34.5276C41.7797 35.9626 41.7797 38.2891 40.3447 39.7241" stroke="black" stroke-width="2.44966" stroke-linecap="round" stroke-linejoin="round"/>
<path d="M42.583 29.9348C45.9313 33.2831 45.9313 38.7118 42.583 42.06" stroke="white" stroke-width="0.918622" stroke-linecap="round" stroke-linejoin="round"/>
<path d="M40.3447 33.3988C41.7797 34.8338 41.7797 37.1604 40.3447 38.5953" stroke="white" stroke-width="0.918622" stroke-linecap="round" stroke-linejoin="round"/>
</svg>
