<svg width="72" height="72" viewBox="0 0 72 72" fill="none" xmlns="http://www.w3.org/2000/svg">
<path d="M50.1943 4.51296L44.8643 1.04523L39.5343 4.56297L34.2043 1.04523L28.8843 4.56297L23.5543 1.04523L18.2243 4.56297L12.9043 1.04523V71L18.2243 67.4723L23.5543 71L28.8843 67.4723L34.2143 71L39.5343 67.4723L44.8643 71L50.1843 67.4723L55.5143 71V1.04523L50.1943 4.51296Z" fill="white" stroke="#020203" stroke-width="0.25" stroke-linecap="round" stroke-linejoin="round"/>
<path d="M20.7246 19.4833H47.7046" stroke="#020203" stroke-width="0.25" stroke-linecap="round" stroke-linejoin="round"/>
<path d="M20.7246 25.4694H47.7046" stroke="#020203" stroke-width="0.25" stroke-linecap="round" stroke-linejoin="round"/>
<path d="M20.7246 31.4655H47.7046" stroke="#020203" stroke-width="0.25" stroke-linecap="round" stroke-linejoin="round"/>
<path d="M20.7246 37.4517H47.7046" stroke="#020203" stroke-width="0.25" stroke-linecap="round" stroke-linejoin="round"/>
<path d="M20.7246 43.4378H47.7046" stroke="#020203" stroke-width="0.25" stroke-linecap="round" stroke-linejoin="round"/>
<path d="M20.7246 49.4339H47.7046" stroke="#020203" stroke-width="0.25" stroke-linecap="round" stroke-linejoin="round"/>
<path d="M32.8153 59.8472C32.5122 59.8391 32.2175 59.7455 31.9653 59.5774C31.6539 59.3536 31.4366 59.0225 31.3553 58.648C31.3503 58.5681 31.3503 58.488 31.3553 58.4081C31.3437 58.1161 31.4279 57.8283 31.5953 57.5887C31.6948 57.4395 31.823 57.3114 31.9723 57.212C32.1216 57.1125 32.2892 57.0435 32.4653 57.009L39.4653 55.8498C39.545 55.8402 39.6255 55.8402 39.7053 55.8498C39.8117 55.8395 39.9188 55.8395 40.0253 55.8498C40.2108 55.8952 40.3868 55.973 40.5452 56.0796C40.7027 56.1904 40.8384 56.3293 40.9453 56.4893C41.0499 56.6465 41.1213 56.8233 41.1553 57.009C41.1641 57.0854 41.1641 57.1625 41.1553 57.2389C41.1701 57.3483 41.1701 57.4592 41.1553 57.5687C41.1193 57.7506 41.0479 57.9238 40.9453 58.0783C40.8375 58.2293 40.7017 58.3583 40.5452 58.4581C40.3847 58.5521 40.2086 58.6164 40.0253 58.648L33.0253 59.8172H32.7952" fill="#50FF9F"/>
<path d="M32.8153 59.8472C32.5122 59.8391 32.2175 59.7455 31.9653 59.5774C31.6539 59.3536 31.4366 59.0225 31.3553 58.648C31.3503 58.5681 31.3503 58.488 31.3553 58.4081C31.3437 58.1161 31.4279 57.8283 31.5953 57.5887C31.6948 57.4395 31.823 57.3114 31.9723 57.212C32.1216 57.1125 32.2892 57.0435 32.4653 57.009L39.4653 55.8498C39.545 55.8402 39.6255 55.8402 39.7053 55.8498C39.8117 55.8395 39.9188 55.8395 40.0253 55.8498C40.2108 55.8952 40.3868 55.973 40.5452 56.0796C40.7027 56.1904 40.8384 56.3293 40.9453 56.4893C41.0499 56.6465 41.1213 56.8233 41.1553 57.009C41.1641 57.0854 41.1641 57.1625 41.1553 57.2389C41.1701 57.3483 41.1701 57.4592 41.1553 57.5687C41.1193 57.7506 41.0479 57.9238 40.9453 58.0783C40.8375 58.2293 40.7017 58.3583 40.5452 58.4581C40.3847 58.5521 40.2086 58.6164 40.0253 58.648L33.0253 59.8172H32.7952" stroke="#020203" stroke-width="0.25" stroke-linecap="round" stroke-linejoin="round"/>
<path d="M44.7847 61.4162C44.4954 61.8 44.0692 62.0577 43.5947 62.1357L26.5947 64.904L7.59472 68.0819C7.08672 68.1444 6.57357 68.0165 6.15435 67.7231C5.73513 67.4296 5.43956 66.9914 5.3247 66.4929L1.02471 44.797C0.945003 44.3026 1.05977 43.7966 1.34497 43.3849C1.63016 42.9732 2.06366 42.6878 2.55471 42.5884L34.1047 37.3717L38.5347 36.6422C39.0438 36.5625 39.5639 36.6822 39.9868 36.9764C40.4097 37.2706 40.7027 37.7165 40.8047 38.2212L44.3547 56.0696L44.5047 56.8192L45.1247 59.9271V60.2369C45.1459 60.6569 45.0262 61.0719 44.7847 61.4162Z" fill="#FFEB34" stroke="#020203" stroke-width="0.25" stroke-linecap="round" stroke-linejoin="round"/>
<path d="M1.6543 47.9549L2.94431 54.4607L42.7243 47.8449L41.4343 41.3292L1.6543 47.9549Z" fill="black" stroke="#020203" stroke-width="0.25" stroke-linecap="round" stroke-linejoin="round"/>
<path d="M39.7546 55.8298C39.6749 55.8202 39.5943 55.8202 39.5146 55.8298L32.4646 57.0091C32.1381 57.0682 31.8433 57.2414 31.6326 57.4976C31.422 57.7539 31.3093 58.0766 31.3146 58.4082C31.3212 58.6387 31.3815 58.8644 31.4909 59.0674C31.6003 59.2704 31.7557 59.4451 31.9446 59.5774C32.1969 59.7455 32.4915 59.8391 32.7946 59.8472H33.0246L40.0246 58.678C40.3941 58.6159 40.7245 58.4113 40.9446 58.1083C41.0983 57.8718 41.1801 57.5959 41.1801 57.3138C41.1801 57.0318 41.0983 56.7559 40.9446 56.5194C40.8087 56.3148 40.6245 56.1467 40.4082 56.0299C40.192 55.9132 39.9504 55.8514 39.7046 55.8498" fill="white"/>
<path d="M39.7546 55.8298C39.6749 55.8202 39.5943 55.8202 39.5146 55.8298L32.4646 57.0091C32.1381 57.0682 31.8433 57.2414 31.6326 57.4976C31.422 57.7539 31.3093 58.0766 31.3146 58.4082C31.3212 58.6387 31.3815 58.8644 31.4909 59.0674C31.6003 59.2704 31.7557 59.4451 31.9446 59.5774C32.1969 59.7455 32.4915 59.8391 32.7946 59.8472H33.0246L40.0246 58.678C40.3941 58.6159 40.7245 58.4113 40.9446 58.1083C41.0983 57.8718 41.1801 57.5959 41.1801 57.3138C41.1801 57.0318 41.0983 56.7559 40.9446 56.5194C40.8087 56.3148 40.6245 56.1467 40.4082 56.0299C40.192 55.9132 39.9504 55.8514 39.7046 55.8498" stroke="#020203" stroke-width="0.25" stroke-linecap="round" stroke-linejoin="round"/>
<path d="M44.7852 61.4162L31.2852 54.7205L42.7252 47.845L45.1352 59.9271V60.2369C45.1534 60.658 45.0302 61.0731 44.7852 61.4162Z" fill="black"/>
<g style="mix-blend-mode:screen" opacity="0.1">
<path d="M39.7546 55.8298C39.6749 55.8202 39.5943 55.8202 39.5146 55.8298L32.4646 57.0091C32.1381 57.0682 31.8433 57.2414 31.6326 57.4976C31.422 57.7539 31.3093 58.0766 31.3146 58.4082C31.3212 58.6387 31.3815 58.8644 31.4909 59.0674C31.6003 59.2704 31.7557 59.4451 31.9446 59.5774C32.1969 59.7455 32.4915 59.8391 32.7946 59.8472H33.0246L40.0246 58.678C40.3941 58.6159 40.7245 58.4113 40.9446 58.1083C41.0983 57.8718 41.1801 57.5959 41.1801 57.3138C41.1801 57.0318 41.0983 56.7559 40.9446 56.5194C40.8087 56.3148 40.6245 56.1467 40.4082 56.0299C40.192 55.9132 39.9504 55.8514 39.7046 55.8498" stroke="white" stroke-width="0.25" stroke-linecap="round" stroke-linejoin="round"/>
</g>
<path d="M67.7048 6.95135C66.703 5.43168 65.3966 4.13634 63.8681 3.14723C62.3396 2.15812 60.6223 1.49678 58.8248 1.20506C55.1104 0.587266 51.299 1.37682 48.1363 3.41921C44.9736 5.4616 42.6874 8.60989 41.7249 12.248L40.4648 17.3247L42.7048 17.7244L44.1649 17.9743L45.3748 13.1574C46.0797 10.5624 47.6795 8.29977 49.8917 6.76922C52.104 5.23867 54.7862 4.53863 57.4648 4.79277C57.6932 4.80799 57.9204 4.83806 58.1448 4.88274C59.4494 5.10512 60.6969 5.58404 61.8148 6.29181C63.4555 7.35705 64.7158 8.91471 65.4148 10.7409C66.1138 12.5671 66.2153 14.5677 65.7048 16.4552L62.5848 28.8073L66.3048 29.4568L69.3549 17.3447C69.8161 15.5926 69.9076 13.7639 69.6235 11.9746C69.3395 10.1853 68.6861 8.47467 67.7048 6.95135Z" fill="white" stroke="#020203" stroke-width="0.25" stroke-linecap="round" stroke-linejoin="round"/>
<path d="M57.465 4.79276C54.7799 4.5287 52.0881 5.22408 49.8674 6.75542C47.6467 8.28676 46.0409 10.555 45.335 13.1574L44.125 17.9742L42.665 17.7244L43.885 12.8875C44.5875 10.1615 46.3042 7.80612 48.685 6.3018C51.0453 4.75603 53.9008 4.1532 56.685 4.61288C56.9483 4.65746 57.2088 4.71752 57.465 4.79276Z" fill="#AFAFAF" stroke="#020203" stroke-width="0.25" stroke-linecap="round" stroke-linejoin="round"/>
<path d="M67.7048 6.95135C66.703 5.43169 65.3966 4.13634 63.8681 3.14723C62.3396 2.15812 60.6223 1.49678 58.8248 1.20506C55.1104 0.587266 51.299 1.37682 48.1363 3.41921C44.9736 5.4616 42.6874 8.60989 41.7249 12.248L40.4648 17.3247L42.7048 17.7244L44.1649 17.9743L45.3748 13.1574C46.0797 10.5624 47.6795 8.29977 49.8917 6.76922C52.104 5.23867 54.7862 4.53863 57.4648 4.79277C57.6932 4.80799 57.9204 4.83806 58.1448 4.88274C59.4494 5.10512 60.6969 5.58404 61.8148 6.29181C63.4555 7.35705 64.7158 8.91471 65.4148 10.7409C66.1138 12.5671 66.2153 14.5677 65.7048 16.4552L62.5848 28.8073L66.3048 29.4568L69.3549 17.3447C69.8161 15.5926 69.9076 13.7639 69.6235 11.9746C69.3395 10.1853 68.6861 8.47467 67.7048 6.95135V6.95135Z" stroke="#020203" stroke-width="0.25" stroke-linecap="round" stroke-linejoin="round"/>
<path d="M44.1549 17.9743C44.0649 18.484 43.1549 18.7438 42.1549 18.5639C41.1549 18.384 40.3849 17.8343 40.4749 17.3247C40.5649 16.815 41.4749 16.5452 42.4749 16.7251C43.4749 16.905 44.2449 17.4646 44.1549 17.9743Z" fill="#AFAFAF" stroke="#020203" stroke-width="0.25" stroke-linecap="round" stroke-linejoin="round"/>
<path d="M34.7346 18.8936L27.2246 48.7344L59.4146 54.3707L66.9446 24.53L34.7346 18.8936Z" fill="#50FF9F" stroke="#020203" stroke-width="0.25" stroke-linecap="round" stroke-linejoin="round"/>
<path d="M65.6046 24.2902L38.8946 50.7831L27.2246 48.7344L28.8946 42.1087L49.6646 21.502L65.6046 24.2902Z" fill="#D5FFE8"/>
<path d="M34.7346 18.8936L27.2246 48.7344L59.4146 54.3707L66.9446 24.53L34.7346 18.8936Z" stroke="#020203" stroke-width="0.25" stroke-linecap="round" stroke-linejoin="round"/>
<path d="M48.6643 30.3862C49.1421 30.4597 49.5989 30.6329 50.0052 30.8946C50.4114 31.1563 50.758 31.5006 51.0222 31.9051C51.2863 32.3096 51.4623 32.7652 51.5385 33.2422C51.6146 33.7192 51.5894 34.2069 51.4643 34.6735C51.272 35.3961 50.885 36.0521 50.3454 36.5702C49.8059 37.0882 49.1345 37.4484 48.4043 37.6116H48.2543L48.0143 45.0567L42.1943 44.0574L45.5443 37.1619C44.94 36.7538 44.4727 36.1732 44.2034 35.4958C43.934 34.8184 43.8751 34.0757 44.0343 33.3643C44.3006 32.3834 44.9214 31.536 45.7766 30.9859C46.6317 30.4359 47.6607 30.2222 48.6643 30.3862Z" fill="black" stroke="#020203" stroke-width="0.25" stroke-linecap="round" stroke-linejoin="round"/>
<path d="M45.5443 37.1718L46.7243 38.9107L44.0543 44.3972L42.1943 44.0774L45.5443 37.1718Z" fill="#3CBF77" stroke="#020203" stroke-width="0.25" stroke-linecap="round" stroke-linejoin="round"/>
<path d="M51.4646 32.8247C51.0016 32.4603 50.4552 32.2165 49.8746 32.1152C48.8685 31.9543 47.8385 32.1717 46.9834 32.7254C46.1283 33.2791 45.5088 34.1298 45.2446 35.1132C45.1134 35.8202 45.23 36.5507 45.5746 37.1818C45.4515 37.1006 45.3345 37.0105 45.2246 36.9121C45.1146 36.8121 45.0146 36.7022 44.9146 36.5923C44.8138 36.488 44.7234 36.3742 44.6446 36.2525C44.3494 35.8431 44.145 35.3756 44.0449 34.881C43.9449 34.3864 43.9516 33.8761 44.0646 33.3843C44.3268 32.3997 44.9459 31.5476 45.8015 30.9936C46.6571 30.4395 47.6883 30.2231 48.6946 30.3862C49.3405 30.4876 49.944 30.7709 50.4346 31.2027C50.9252 31.6346 51.2825 32.1972 51.4646 32.8247Z" fill="#3CBF77" stroke="#020203" stroke-width="0.25" stroke-linecap="round" stroke-linejoin="round"/>
<path d="M66.9348 24.53L59.4248 54.3708L63.4848 60.3469L71.0048 30.5062L66.9348 24.53Z" fill="#3CBF77" stroke="#020203" stroke-width="0.25" stroke-linecap="round" stroke-linejoin="round"/>
<path d="M63.4846 60.3469L31.2746 54.7205L27.2246 48.7444L59.4246 54.3708L63.4846 60.3469Z" fill="#288050" stroke="#020203" stroke-width="0.25" stroke-linecap="round" stroke-linejoin="round"/>
<path d="M23.6946 25.0635C23.6946 26.1228 22.0546 26.9123 21.6946 27.8617C21.3346 28.811 22.2046 30.45 21.6046 31.2695C21.0046 32.089 19.2146 31.7691 18.3746 32.3688C17.5346 32.9684 17.2946 34.7572 16.3046 35.077C15.3146 35.3968 14.0946 34.0777 13.0346 34.0777C11.9746 34.0777 10.7246 35.3768 9.77457 35.077C8.82457 34.7772 8.52458 32.9684 7.69458 32.3688C6.86458 31.7691 5.08458 32.099 4.47458 31.2695C3.86458 30.44 4.70457 28.851 4.37457 27.8617C4.04457 26.8723 2.43457 26.1228 2.43457 25.0635C2.43457 24.0042 4.11457 23.2647 4.46457 22.2653C4.81457 21.2659 3.95458 19.687 4.56458 18.8575C5.17458 18.0281 6.95458 18.3578 7.78458 17.7582C8.61458 17.1586 8.86456 15.3698 9.86456 15.05C10.8646 14.7302 12.0646 16.0493 13.1246 16.0493C14.1846 16.0493 15.4346 14.7502 16.3946 15.05C17.3546 15.3498 17.6446 17.1586 18.4646 17.7582C19.2846 18.3578 21.0846 18.0381 21.6946 18.8575C22.3046 19.677 21.4646 21.2759 21.7846 22.2653C22.1046 23.2547 23.6946 24.0042 23.6946 25.0635Z" fill="#50FF9F"/>
<path d="M23.6946 25.0635C23.6946 26.1228 22.0546 26.9123 21.6946 27.8617C21.3346 28.811 22.2046 30.45 21.6046 31.2695C21.0046 32.089 19.2146 31.7691 18.3746 32.3688C17.5346 32.9684 17.2946 34.7572 16.3046 35.077C15.3146 35.3968 14.0946 34.0777 13.0346 34.0777C11.9746 34.0777 10.7246 35.3768 9.77457 35.077C8.82457 34.7772 8.52458 32.9684 7.69458 32.3688C6.86458 31.7691 5.08458 32.099 4.47458 31.2695C3.86458 30.44 4.70457 28.851 4.37457 27.8617C4.04457 26.8723 2.43457 26.1228 2.43457 25.0635C2.43457 24.0042 4.11457 23.2647 4.46457 22.2653C4.81457 21.2659 3.95458 19.687 4.56458 18.8575C5.17458 18.0281 6.95458 18.3578 7.78458 17.7582C8.61458 17.1586 8.86456 15.3698 9.86456 15.05C10.8646 14.7302 12.0646 16.0493 13.1246 16.0493C14.1846 16.0493 15.4346 14.7502 16.3946 15.05C17.3546 15.3498 17.6446 17.1586 18.4646 17.7582C19.2846 18.3578 21.0846 18.0381 21.6946 18.8575C22.3046 19.677 21.4646 21.2759 21.7846 22.2653C22.1046 23.2547 23.6946 24.0042 23.6946 25.0635Z" stroke="#020203" stroke-width="0.25" stroke-linecap="round" stroke-linejoin="round"/>
<path d="M15.7047 21.9056L11.7047 25.843L10.4647 24.5938L9.26465 25.7831L11.7346 28.2215L16.9047 23.0948L15.7047 21.9056Z" fill="white" stroke="#020203" stroke-width="0.25" stroke-linecap="round" stroke-linejoin="round"/>
</svg>
