<svg width="16" height="12" viewBox="0 0 16 12" fill="none" xmlns="http://www.w3.org/2000/svg">
<mask id="path-1-outside-1_863_920" maskUnits="userSpaceOnUse" x="-2" y="-1" width="19" height="14" fill="black">
<rect fill="white" x="-2" y="-1" width="19" height="14"/>
<path d="M0.268366 11L0.215866 0.875H2.48087L2.15837 9.395H2.17337L4.86587 0.875H7.19087L3.56087 11H0.268366ZM10.4874 11.0525C8.89242 11.0525 7.99742 10.7125 7.80242 10.0325C7.61242 9.3525 7.61742 8.45 7.81742 7.325H10.0674C9.89242 8.355 9.87492 8.9725 10.0149 9.1775C10.1599 9.3775 10.4049 9.4775 10.7499 9.4775C11.0999 9.4775 11.3824 9.3875 11.5974 9.2075C11.8174 9.0225 11.9624 8.73 12.0324 8.33C12.1174 7.835 12.0399 7.4975 11.7999 7.3175C11.5649 7.1325 11.1624 6.945 10.5924 6.755C9.55242 6.405 8.90242 6.0325 8.64242 5.6375C8.38242 5.2425 8.30992 4.65 8.42492 3.86C8.50992 3.145 8.78242 2.455 9.24242 1.79C9.70242 1.12 10.7149 0.784999 12.2799 0.784999C13.8449 0.784999 14.7224 1.1425 14.9124 1.8575C15.1074 2.5675 15.1149 3.44 14.9349 4.475H12.6849C12.8549 3.48 12.8649 2.88 12.7149 2.675C12.5649 2.47 12.3224 2.3675 11.9874 2.3675C11.6424 2.3675 11.3549 2.4625 11.1249 2.6525C10.8999 2.8375 10.7574 3.115 10.6974 3.485C10.6124 4.02 10.6849 4.3775 10.9149 4.5575C11.1499 4.7325 11.5724 4.9175 12.1824 5.1125C13.2224 5.4675 13.8749 5.815 14.1399 6.155C14.4099 6.495 14.4799 7.0825 14.3499 7.9175C14.2499 8.6475 13.9774 9.3525 13.5324 10.0325C13.0874 10.7125 12.0724 11.0525 10.4874 11.0525Z"/>
</mask>
<path d="M0.268366 11L0.215866 0.875H2.48087L2.15837 9.395H2.17337L4.86587 0.875H7.19087L3.56087 11H0.268366ZM10.4874 11.0525C8.89242 11.0525 7.99742 10.7125 7.80242 10.0325C7.61242 9.3525 7.61742 8.45 7.81742 7.325H10.0674C9.89242 8.355 9.87492 8.9725 10.0149 9.1775C10.1599 9.3775 10.4049 9.4775 10.7499 9.4775C11.0999 9.4775 11.3824 9.3875 11.5974 9.2075C11.8174 9.0225 11.9624 8.73 12.0324 8.33C12.1174 7.835 12.0399 7.4975 11.7999 7.3175C11.5649 7.1325 11.1624 6.945 10.5924 6.755C9.55242 6.405 8.90242 6.0325 8.64242 5.6375C8.38242 5.2425 8.30992 4.65 8.42492 3.86C8.50992 3.145 8.78242 2.455 9.24242 1.79C9.70242 1.12 10.7149 0.784999 12.2799 0.784999C13.8449 0.784999 14.7224 1.1425 14.9124 1.8575C15.1074 2.5675 15.1149 3.44 14.9349 4.475H12.6849C12.8549 3.48 12.8649 2.88 12.7149 2.675C12.5649 2.47 12.3224 2.3675 11.9874 2.3675C11.6424 2.3675 11.3549 2.4625 11.1249 2.6525C10.8999 2.8375 10.7574 3.115 10.6974 3.485C10.6124 4.02 10.6849 4.3775 10.9149 4.5575C11.1499 4.7325 11.5724 4.9175 12.1824 5.1125C13.2224 5.4675 13.8749 5.815 14.1399 6.155C14.4099 6.495 14.4799 7.0825 14.3499 7.9175C14.2499 8.6475 13.9774 9.3525 13.5324 10.0325C13.0874 10.7125 12.0724 11.0525 10.4874 11.0525Z" fill="#F3C47F"/>
<path d="M0.268366 11L-0.95384 11.0063L-0.947536 12.2222H0.268366V11ZM0.215866 0.875V-0.347222H-1.01271L-1.00634 0.881337L0.215866 0.875ZM2.48087 0.875L3.70221 0.92123L3.75023 -0.347222H2.48087V0.875ZM2.15837 9.395L0.937018 9.34877L0.889005 10.6172H2.15837V9.395ZM2.17337 9.395V10.6172H3.06892L3.33878 9.7633L2.17337 9.395ZM4.86587 0.875V-0.347222H3.97031L3.70045 0.506705L4.86587 0.875ZM7.19087 0.875L8.34138 1.28748L8.92745 -0.347222H7.19087V0.875ZM3.56087 11V12.2222H4.42107L4.71138 11.4125L3.56087 11ZM1.49057 10.9937L1.43807 0.868662L-1.00634 0.881337L-0.95384 11.0063L1.49057 10.9937ZM0.215866 2.09722H2.48087V-0.347222H0.215866V2.09722ZM1.25952 0.828769L0.937018 9.34877L3.37971 9.44123L3.70221 0.92123L1.25952 0.828769ZM2.15837 10.6172H2.17337V8.17278H2.15837V10.6172ZM3.33878 9.7633L6.03128 1.24329L3.70045 0.506705L1.00795 9.0267L3.33878 9.7633ZM4.86587 2.09722H7.19087V-0.347222H4.86587V2.09722ZM6.04035 0.462519L2.41035 10.5875L4.71138 11.4125L8.34138 1.28748L6.04035 0.462519ZM3.56087 9.77778H0.268366V12.2222H3.56087V9.77778ZM7.80242 10.0325L6.62525 10.3614L6.62755 10.3694L7.80242 10.0325ZM7.81742 7.325V6.10278H6.79331L6.61406 7.11107L7.81742 7.325ZM10.0674 7.325L11.2724 7.52973L11.5148 6.10278H10.0674V7.325ZM10.0149 9.1775L9.0056 9.86679L9.0153 9.88098L9.02539 9.8949L10.0149 9.1775ZM11.5974 9.2075L12.382 10.1447L12.384 10.1429L11.5974 9.2075ZM12.0324 8.33L13.2363 8.54069L13.237 8.53685L12.0324 8.33ZM11.7999 7.3175L11.0439 8.27785L11.0551 8.28669L11.0666 8.29528L11.7999 7.3175ZM10.5924 6.755L10.2026 7.91339L10.2059 7.9145L10.5924 6.755ZM8.64242 5.6375L9.66332 4.96551L8.64242 5.6375ZM8.42492 3.86L9.63439 4.03606L9.6367 4.0202L9.63859 4.00428L8.42492 3.86ZM9.24242 1.79L10.2476 2.48531L10.25 2.48179L9.24242 1.79ZM14.9124 1.8575L13.7311 2.1714L13.7338 2.18119L14.9124 1.8575ZM14.9349 4.475V5.69722H15.9629L16.1391 4.68442L14.9349 4.475ZM12.6849 4.475L11.4802 4.26916L11.2362 5.69722H12.6849V4.475ZM12.7149 2.675L13.7013 1.95327V1.95327L12.7149 2.675ZM11.1249 2.6525L11.9012 3.59658L11.9033 3.59479L11.1249 2.6525ZM10.6974 3.485L9.49095 3.28936L9.49033 3.29322L10.6974 3.485ZM10.9149 4.5575L10.1616 5.52001L10.1732 5.52903L10.1849 5.53778L10.9149 4.5575ZM12.1824 5.1125L12.5772 3.95581L12.5659 3.95195L12.5546 3.94832L12.1824 5.1125ZM14.1399 6.155L13.1759 6.90638L13.1828 6.91508L14.1399 6.155ZM14.3499 7.9175L13.1422 7.72948L13.1405 7.74054L13.139 7.75162L14.3499 7.9175ZM13.5324 10.0325L14.5551 10.7018L14.5551 10.7018L13.5324 10.0325ZM10.4874 9.83028C9.75287 9.83028 9.30073 9.74869 9.05396 9.65494C8.82924 9.56957 8.93375 9.54379 8.97729 9.69559L6.62755 10.3694C6.86608 11.2012 7.5156 11.6854 8.18587 11.9401C8.83411 12.1863 9.62696 12.2747 10.4874 12.2747V9.83028ZM8.97955 9.70359C8.86025 9.27663 8.83529 8.58225 9.02077 7.53893L6.61406 7.11107C6.39954 8.31775 6.36458 9.42837 6.62528 10.3614L8.97955 9.70359ZM7.81742 8.54722H10.0674V6.10278H7.81742V8.54722ZM8.86246 7.12027C8.77096 7.6588 8.7124 8.13461 8.70131 8.526C8.69578 8.7212 8.70091 8.92741 8.73056 9.12645C8.75704 9.30422 8.81881 9.59327 9.0056 9.86679L11.0242 8.48821C11.0884 8.58215 11.1186 8.66196 11.1316 8.70187C11.1388 8.7237 11.1429 8.74033 11.1452 8.75036C11.1475 8.7605 11.1483 8.76611 11.1483 8.76636C11.1484 8.76668 11.1478 8.76312 11.1471 8.75514C11.1464 8.74722 11.1456 8.73593 11.145 8.72092C11.1437 8.69047 11.1432 8.64907 11.1448 8.59525C11.1512 8.36914 11.1889 8.0212 11.2724 7.52973L8.86246 7.12027ZM9.02539 9.8949C9.48316 10.5263 10.1798 10.6997 10.7499 10.6997V8.25528C10.69 8.25528 10.708 8.2459 10.7693 8.27091C10.8422 8.30067 10.9335 8.3623 11.0044 8.4601L9.02539 9.8949ZM10.7499 10.6997C11.3135 10.6997 11.8967 10.551 12.382 10.1446L10.8128 8.27035C10.8221 8.26257 10.8318 8.25615 10.8405 8.25141C10.8491 8.24674 10.854 8.24521 10.8533 8.24545C10.8514 8.24606 10.8211 8.25528 10.7499 8.25528V10.6997ZM12.384 10.1429C12.8995 9.70949 13.137 9.10856 13.2363 8.54069L10.8285 8.11931C10.809 8.2308 10.7857 8.28711 10.7761 8.30653C10.7682 8.32249 10.7757 8.30156 10.8108 8.27206L12.384 10.1429ZM13.237 8.53685C13.3442 7.91247 13.3437 6.94757 12.5332 6.33972L11.0666 8.29528C11.0019 8.24673 10.9476 8.18621 10.9077 8.12119C10.8691 8.05826 10.853 8.00607 10.8468 7.97916C10.841 7.95372 10.8438 7.95037 10.8435 7.97727C10.8433 8.00392 10.8402 8.05136 10.8278 8.12315L13.237 8.53685ZM12.5559 6.35715C12.147 6.03525 11.5757 5.79444 10.9789 5.5955L10.2059 7.9145C10.7491 8.09556 10.9828 8.22975 11.0439 8.27785L12.5559 6.35715ZM10.9823 5.59662C10.5065 5.4365 10.1646 5.28561 9.93262 5.15269C9.6868 5.01182 9.64396 4.93609 9.66332 4.96551L7.62151 6.30949C7.90087 6.73391 8.31303 7.04193 8.71721 7.27356C9.13528 7.51314 9.63836 7.7235 10.2026 7.91338L10.9823 5.59662ZM9.66332 4.96551C9.64892 4.94363 9.53508 4.71832 9.63439 4.03606L7.21544 3.68394C7.08476 4.58168 7.11591 5.54137 7.62151 6.30949L9.66332 4.96551ZM9.63859 4.00428C9.69729 3.5105 9.88684 3.00682 10.2476 2.48531L8.23724 1.09469C7.67799 1.90318 7.32254 2.7795 7.21124 3.71572L9.63859 4.00428ZM10.25 2.48179C10.3377 2.35406 10.7675 2.00722 12.2799 2.00722V-0.437223C10.6623 -0.437223 9.06713 -0.114065 8.23481 1.09821L10.25 2.48179ZM12.2799 2.00722C12.994 2.00722 13.4232 2.09235 13.6507 2.18501C13.8439 2.26374 13.7615 2.28546 13.7312 2.17139L16.0936 1.54361C15.8733 0.714542 15.2572 0.200006 14.5729 -0.0787665C13.9229 -0.343598 13.1309 -0.437223 12.2799 -0.437223V2.00722ZM13.7338 2.18119C13.8653 2.6598 13.8922 3.33763 13.7308 4.26558L16.1391 4.68442C16.3377 3.54237 16.3495 2.4752 16.091 1.53381L13.7338 2.18119ZM14.9349 3.25278H12.6849V5.69722H14.9349V3.25278ZM13.8897 4.68084C13.9791 4.15733 14.0355 3.68901 14.042 3.29912C14.0452 3.10436 14.0368 2.89613 14.0016 2.6934C13.9693 2.50779 13.8974 2.22125 13.7013 1.95327L11.7285 3.39673C11.6632 3.30737 11.6301 3.22958 11.6145 3.18656C11.5985 3.14248 11.5937 3.1148 11.5933 3.11223C11.593 3.11075 11.5996 3.15314 11.5979 3.25838C11.5944 3.46849 11.5607 3.79767 11.4802 4.26916L13.8897 4.68084ZM13.7013 1.95327C13.2512 1.33811 12.5763 1.14528 11.9874 1.14528V3.58972C12.0343 3.58972 12.009 3.59734 11.9447 3.57016C11.8701 3.53865 11.7889 3.47929 11.7285 3.39673L13.7013 1.95327ZM11.9874 1.14528C11.4051 1.14528 10.8291 1.31154 10.3465 1.71021L11.9033 3.59479C11.9026 3.59537 11.9006 3.59689 11.8978 3.59842C11.8951 3.59993 11.8942 3.60003 11.8965 3.59926C11.9006 3.59789 11.9273 3.58972 11.9874 3.58972V1.14528ZM10.3487 1.70842C9.83437 2.1313 9.58454 2.71226 9.49095 3.28936L11.9039 3.68064C11.9174 3.59738 11.9342 3.56227 11.9365 3.55769C11.9375 3.5558 11.9353 3.56045 11.9285 3.56895C11.9217 3.57763 11.9124 3.58736 11.9012 3.59658L10.3487 1.70842ZM9.49033 3.29322C9.39482 3.8944 9.36172 4.89398 10.1616 5.52001L11.6682 3.59499C11.7446 3.65476 11.8004 3.72454 11.8371 3.78978C11.8721 3.85195 11.8832 3.89802 11.8859 3.91146C11.8884 3.92412 11.8847 3.91294 11.8853 3.87008C11.8859 3.82782 11.8906 3.76449 11.9045 3.67678L9.49033 3.29322ZM10.1849 5.53778C10.5951 5.84322 11.1873 6.07755 11.8103 6.27668L12.5546 3.94832C11.9575 3.75745 11.7047 3.62178 11.6449 3.57722L10.1849 5.53778ZM11.7876 6.26919C12.2724 6.43468 12.6292 6.58604 12.8773 6.71815C13.1453 6.86088 13.1986 6.93546 13.1759 6.90635L15.1039 5.40365C14.8162 5.03454 14.4108 4.76537 14.0263 4.5606C13.6219 4.34521 13.1324 4.14531 12.5772 3.95581L11.7876 6.26919ZM13.1828 6.91508C13.1346 6.8544 13.1637 6.84769 13.1813 6.99523C13.1988 7.14227 13.1968 7.37922 13.1422 7.72948L15.5576 8.10552C15.6959 7.21739 15.7087 6.16519 15.0971 5.39492L13.1828 6.91508ZM13.139 7.75162C13.0661 8.28413 12.8657 8.81919 12.5097 9.36323L14.5551 10.7018C15.0891 9.88581 15.4338 9.01087 15.5608 8.08338L13.139 7.75162ZM12.5097 9.36323C12.4367 9.47474 12.0287 9.83028 10.4874 9.83028V12.2747C12.1161 12.2747 13.7381 11.9503 14.5551 10.7018L12.5097 9.36323Z" fill="#0A0A0A" mask="url(#path-1-outside-1_863_920)"/>
</svg>
