<svg width="49" height="52" viewBox="0 0 49 52" fill="none" xmlns="http://www.w3.org/2000/svg">
<g id="Group">
<path id="Vector" d="M1.0332 23.9629V27.9121C1.0332 40.6618 11.6454 50.9999 24.7368 50.9999C37.8282 50.9999 48.4404 40.6618 48.4404 27.9121V23.9629H1.0332Z" fill="#019253" stroke="#0D0D0D" stroke-width="0.148148" stroke-miterlimit="10"/>
<g id="Group 12630">
<path id="Vector_2" d="M24.7368 47.6667C37.828 47.6667 48.4404 37.22 48.4404 24.3333C48.4404 11.4467 37.828 1 24.7368 1C11.6457 1 1.0332 11.4467 1.0332 24.3333C1.0332 37.22 11.6457 47.6667 24.7368 47.6667Z" fill="white" stroke="#0D0D0D" stroke-width="0.148148" stroke-miterlimit="10"/>
<path id="Vector_3" d="M24.7372 4.3623C35.7816 4.3623 44.7372 13.1778 44.7372 24.0513C44.7372 34.9248 35.7816 43.7403 24.7372 43.7403C13.6928 43.7403 4.7373 34.9248 4.7373 24.0513C4.7373 13.1778 13.6928 4.3623 24.7372 4.3623Z" fill="#0D0D0D"/>
<path id="Vector_4" d="M31.9721 16.9629L34.2828 19.2441L21.4793 31.8101L14.9512 25.3745L17.2583 23.1536L21.4653 27.3187L31.9721 16.9629Z" fill="white"/>
</g>
</g>
</svg>
