<svg width="52" height="52" viewBox="0 0 52 52" fill="none" xmlns="http://www.w3.org/2000/svg">
<path d="M26 51C30.9445 51 35.778 49.5338 39.8893 46.7867C44.0005 44.0397 47.2048 40.1352 49.097 35.5671C50.9892 30.9989 51.4843 25.9723 50.5196 21.1227C49.555 16.2732 47.174 11.8187 43.6777 8.32234C40.1814 4.82603 35.7268 2.44501 30.8773 1.48038C26.0277 0.51575 21.0011 1.01083 16.4329 2.90302C11.8648 4.79521 7.96029 7.99952 5.21326 12.1108C2.46622 16.222 1 21.0555 1 26C1 32.6304 3.63392 38.9893 8.32233 43.6777C13.0107 48.3661 19.3696 51 26 51Z" fill="#EE4D37" stroke="#EE4D37" stroke-width="0.214921" stroke-miterlimit="10"/>
<path d="M26.001 47.2363C30.2038 47.2363 34.3123 45.99 37.8068 43.6551C41.3014 41.3201 44.025 38.0013 45.6334 34.1184C47.2418 30.2354 47.6626 25.9628 46.8427 21.8407C46.0227 17.7186 43.9989 13.9322 41.027 10.9603C38.0551 7.98846 34.2687 5.96459 30.1466 5.14465C26.0245 4.32472 21.7519 4.74553 17.8689 6.35389C13.986 7.96226 10.6672 10.6859 8.33224 14.1805C5.99726 17.675 4.75098 21.7835 4.75098 25.9863C4.75098 31.6222 6.98981 37.0272 10.975 41.0123C14.9601 44.9975 20.3651 47.2363 26.001 47.2363Z" fill="black"/>
<path fill-rule="evenodd" clip-rule="evenodd" d="M32.978 35.7343L16.8378 19.1046L18.7471 17.1367L34.8873 33.7665L32.978 35.7343Z" fill="#EE4D37"/>
<path fill-rule="evenodd" clip-rule="evenodd" d="M34.8851 18.8468L18.7475 35.4793L16.8379 33.5117L32.9755 16.8792L34.8851 18.8468Z" fill="#EE4D37"/>
</svg>
