<svg width="54" height="54" viewBox="0 0 54 54" fill="none" xmlns="http://www.w3.org/2000/svg">
<path d="M8.03342 11.6055L5.28003 15.0933C3.4443 17.4688 2.1481 20.2088 1.48011 23.1259C0.839962 26.0442 0.839962 29.0644 1.48011 31.9827C2.74721 37.7863 6.19701 42.8951 11.1292 46.2721C16.1152 49.6758 22.2101 51.1016 28.2072 50.2673C33.6788 49.4899 38.6391 46.6595 42.0618 42.3616L45.328 38.134L8.03342 11.6055Z" fill="#008D52" stroke="#0D0D0D" stroke-width="0.3" stroke-linecap="round" stroke-linejoin="round"/>
<path d="M45.285 38.0923C43.6031 40.5251 41.4206 42.5781 38.8808 44.1166C36.3545 45.68 33.5255 46.7025 30.5763 47.1184C24.5787 47.9632 18.48 46.5365 13.4983 43.1232C8.56472 39.7515 5.12017 34.6391 3.87053 28.8338C3.46544 26.9524 3.33618 25.0233 3.48643 23.1054C3.72529 18.8978 5.30214 14.8727 7.99098 11.6061C11.3902 7.4596 16.2482 4.74091 21.5891 3.9964C26.0958 3.39733 30.6817 4.06391 34.8244 5.92005C38.9417 7.73574 42.4569 10.6668 44.9645 14.3753C46.5717 16.7647 47.6888 19.4437 48.2521 22.2598C48.7961 24.9529 48.7961 27.726 48.2521 30.4191C47.7826 33.1453 46.7744 35.7529 45.285 38.0923Z" fill="white" stroke="#0D0D0D" stroke-width="0.3" stroke-linecap="round" stroke-linejoin="round"/>
<path d="M27.0972 41.8128C22.9831 41.7742 19.0031 40.3587 15.8043 37.7965C12.6153 35.2526 10.407 31.6999 9.54963 27.7347C9.09544 25.6448 9.09544 23.4832 9.54963 21.3933C9.97783 19.3042 10.8511 17.3297 12.1112 15.6014C13.3221 13.8944 14.8775 12.4548 16.6794 11.3738C18.462 10.2793 20.453 9.55973 22.5286 9.26C23.3407 9.13368 24.1618 9.07015 24.9838 9.06982C29.1235 9.11087 33.1293 10.525 36.3617 13.0861C39.5922 15.6283 41.8511 19.1848 42.766 23.1691C43.2037 25.2251 43.2037 27.3488 42.766 29.4047C42.3348 31.466 41.4773 33.4164 40.2471 35.1331C39.0249 36.838 37.4631 38.2768 35.6576 39.3607C33.8551 40.4463 31.8521 41.165 29.7657 41.4746C28.8864 41.6557 27.9942 41.7688 27.0972 41.8128Z" fill="#00C26F" stroke="black" stroke-width="0.3" stroke-linecap="round" stroke-linejoin="round"/>
<path d="M26.7969 15.7959L35.0473 23.1807L26.9239 33.2943L26.7969 15.7959Z" fill="white" stroke="#0D0D0D" stroke-width="0.3" stroke-linejoin="round"/>
<path d="M20.5156 16.811L28.766 24.1958L20.6342 34.3009L20.5156 16.811Z" fill="white" stroke="#0D0D0D" stroke-width="0.3" stroke-linejoin="round"/>
<path d="M43.0285 22.4134C47.9862 22.4134 52.0063 18.4018 52.0063 13.4545C52.0063 8.5072 47.9862 4.49561 43.0285 4.49561C38.0708 4.49561 34.0508 8.5072 34.0508 13.4545C34.0508 18.4018 38.0708 22.4134 43.0285 22.4134Z" fill="#0D0D0D" stroke="#0D0D0D" stroke-width="0.3" stroke-linecap="round" stroke-linejoin="round"/>
<path d="M44.0227 21.418C48.9805 21.418 53.0006 17.4063 53.0006 12.459C53.0006 7.51163 48.9805 3.5 44.0227 3.5C39.065 3.5 35.0449 7.51163 35.0449 12.459C35.0449 17.4063 39.065 21.418 44.0227 21.418Z" fill="white" stroke="#0D0D0D" stroke-width="0.3" stroke-linejoin="round"/>
<path d="M47.6935 8.65625L42.646 13.5339L40.3516 11.3141L38.9551 12.6778L42.6559 16.2614L49.11 10.02L47.7035 8.65625H47.6935Z" fill="#0D0D0D"/>
</svg>
