<svg width="80" height="60" viewBox="0 0 80 60" fill="none" xmlns="http://www.w3.org/2000/svg">
<g clip-path="url(#clip0_722_612)">
<path d="M76 5.12451H4C1.79086 5.12451 0 6.90646 0 9.10461V50.8957C0 53.0938 1.79086 54.8758 4 54.8758H76C78.2091 54.8758 80 53.0938 80 50.8957V9.10461C80 6.90646 78.2091 5.12451 76 5.12451Z" fill="#06C270"/>
<path d="M62.74 26.2387C61.9727 22.4984 60.4596 18.9492 58.29 15.8009C56.217 12.7466 53.5723 10.1183 50.5001 8.05954C47.4486 5.9965 44.0367 4.51844 40.44 3.70132C38.2276 3.18478 35.9626 2.92444 33.69 2.9253C32.1629 2.92505 30.6381 3.04481 29.13 3.28349C25.3927 3.83472 21.801 5.11279 18.5599 7.04471C15.4599 8.9079 12.7641 11.367 10.63 14.2784C8.52032 17.2143 7.03047 20.545 6.25009 24.0696C5.47019 27.7773 5.47019 31.6055 6.25009 35.3133C7.02088 39.097 8.52924 42.6938 10.69 45.9004C14.8845 52.2848 21.2904 56.9131 28.69 58.9054C31.0393 59.5492 33.4633 59.8837 35.9 59.9004C37.3363 59.9006 38.7706 59.7908 40.19 59.572C43.9299 58.9971 47.505 57.6406 50.68 55.5919C53.8256 53.5758 56.5241 50.9415 58.61 47.8506C60.6904 44.7178 62.131 41.2085 62.8499 37.5223C63.5414 33.8183 63.4972 30.0154 62.7199 26.3283L62.74 26.2387Z" fill="black" stroke="black" stroke-width="0.3" stroke-linejoin="round"/>
<path d="M65.19 23.4526C64.4386 19.7108 62.9314 16.1598 60.76 13.0148C58.6832 9.96302 56.0349 7.33803 52.9599 5.28341C49.9098 3.20478 46.4937 1.71613 42.89 0.895314C40.6775 0.378771 38.4125 0.118308 36.14 0.119165C34.6169 0.117228 33.0958 0.23041 31.5899 0.457561C27.8506 1.0249 24.2577 2.30894 21.0101 4.23858C17.9065 6.09326 15.2122 8.55399 13.0899 11.4724C10.9619 14.3953 9.46714 17.7259 8.70004 21.2535C7.92014 24.9612 7.92014 28.7896 8.70004 32.4973C9.46818 36.2785 10.9694 39.8746 13.12 43.0844C17.3247 49.4591 23.7265 54.0843 31.12 56.0893C33.4693 56.7331 35.8932 57.0676 38.3299 57.0843C39.7632 57.0807 41.1941 56.9677 42.61 56.7461C46.3519 56.1791 49.9287 54.8221 53.0999 52.766C56.2354 50.7414 58.9318 48.1126 61.03 45.0346C63.1088 41.901 64.5493 38.3919 65.27 34.7062C65.9694 31.0003 65.932 27.1939 65.16 23.5023L65.19 23.4526Z" fill="#FFDF0D" stroke="black" stroke-width="0.3" stroke-linecap="round" stroke-linejoin="round"/>
<path d="M65.19 23.4526C64.4386 19.7108 62.9314 16.1598 60.76 13.0148C58.6832 9.96302 56.0349 7.33803 52.9599 5.28341C49.9098 3.20478 46.4937 1.71613 42.89 0.895314C40.6775 0.378771 38.4125 0.118308 36.14 0.119165C34.6169 0.117228 33.0958 0.23041 31.5899 0.457561C27.8506 1.0249 24.2577 2.30894 21.0101 4.23858C17.9065 6.09326 15.2122 8.55399 13.0899 11.4724C10.9619 14.3953 9.46714 17.7259 8.70004 21.2535C7.92014 24.9612 7.92014 28.7896 8.70004 32.4973C9.46818 36.2785 10.9694 39.8746 13.12 43.0844C17.3247 49.4591 23.7265 54.0843 31.12 56.0893C33.4693 56.7331 35.8932 57.0676 38.3299 57.0843C39.7632 57.0807 41.1941 56.9677 42.61 56.7461C46.3519 56.1791 49.9287 54.8221 53.0999 52.766C56.2354 50.7414 58.9318 48.1126 61.03 45.0346C63.1088 41.901 64.5493 38.3919 65.27 34.7062C65.9694 31.0003 65.932 27.1939 65.16 23.5023L65.19 23.4526Z" fill="#3BFFAD" stroke="black" stroke-width="0.3" stroke-linecap="round" stroke-linejoin="round"/>
<path d="M51.0599 4.08936L15.37 46.3879C18.808 50.3592 23.2064 53.3933 28.15 55.2038L62.15 14.9252C59.4448 10.4261 55.6224 6.69468 51.0499 4.08936H51.0599Z" fill="white"/>
<path d="M65.19 23.4526C64.4386 19.7108 62.9314 16.1598 60.76 13.0148C58.6833 9.96302 56.0349 7.33803 52.9599 5.28341C49.9098 3.20478 46.4937 1.71613 42.89 0.895314C40.6775 0.378771 38.4125 0.118308 36.14 0.119165C34.6169 0.117228 33.0958 0.23041 31.5899 0.457561C27.8506 1.0249 24.2577 2.30894 21.0101 4.23858C17.9065 6.09326 15.2122 8.55399 13.0899 11.4724C10.9619 14.3953 9.46714 17.7259 8.70004 21.2535C7.92014 24.9612 7.92014 28.7896 8.70004 32.4973C9.46818 36.2785 10.9694 39.8746 13.12 43.0844C17.3247 49.4591 23.7265 54.0843 31.12 56.0893C33.4693 56.7331 35.8932 57.0676 38.3299 57.0843C39.7632 57.0807 41.1941 56.9677 42.61 56.7461C46.3519 56.1792 49.9287 54.8221 53.0999 52.766C56.2354 50.7414 58.9318 48.1126 61.03 45.0346C63.1088 41.901 64.5493 38.3919 65.27 34.7062C65.9769 31.0024 65.9532 27.1971 65.2 23.5023L65.19 23.4526Z" stroke="black" stroke-width="0.3" stroke-linecap="round" stroke-linejoin="round"/>
<path d="M38.31 49.1939C36.5907 49.1932 34.8793 48.9656 33.2202 48.5172C27.6892 47.0304 22.8995 43.5745 19.7602 38.8057C18.1623 36.4342 17.0479 33.7736 16.4802 30.9749C15.9101 28.3116 15.9101 25.5586 16.4802 22.8953C17.0212 20.4434 18.0663 18.1296 19.55 16.0993C21.0292 14.0421 22.9228 12.3139 25.1101 11.0247C27.4672 9.61369 30.08 8.67719 32.8 8.26848C33.9169 8.11309 35.0425 8.02668 36.1701 8.00977C37.8327 8.02696 39.4887 8.22038 41.1101 8.58684C43.7544 9.18167 46.2619 10.2687 48.5002 11.7908C50.7485 13.2835 52.6842 15.1962 54.2001 17.4227C55.7812 19.7029 56.8801 22.2791 57.4301 24.9948C57.97 27.6947 57.97 30.474 57.4301 33.1739C56.9074 35.8421 55.8606 38.3814 54.35 40.6465C52.8641 42.8269 50.9531 44.688 48.7302 46.1191C46.5021 47.5853 43.9806 48.553 41.34 48.9551C40.3467 49.1032 39.3444 49.183 38.34 49.1939H38.31Z" fill="white" stroke="black" stroke-width="0.3" stroke-linecap="round" stroke-linejoin="round"/>
<path d="M37.6473 16L49 25.5785L37.8242 38.6889L37.6473 16Z" fill="#3BFFAD" stroke="black" stroke-width="0.3" stroke-linejoin="round"/>
<path d="M29 17.3208L40.3527 26.8895L29.156 40L29 17.3208Z" fill="#3BFFAD" stroke="black" stroke-width="0.3" stroke-linejoin="round"/>
<path d="M57.05 23.5223C56.8437 23.3084 56.5904 23.1449 56.31 23.0447C56.0213 22.9441 55.712 22.9168 55.41 22.9651C55.1156 23.008 54.8369 23.1243 54.5999 23.3034C54.3614 23.4783 54.1721 23.7113 54.05 23.9799L45.42 46.3979C45.3223 46.686 45.2982 46.9938 45.3499 47.2934C45.4003 47.5888 45.525 47.8667 45.712 48.1015C45.899 48.3363 46.1425 48.5204 46.42 48.6367C46.7021 48.7623 47.0128 48.8104 47.3199 48.776L59.6099 46.9054C60.1199 46.2884 60.61 45.6517 61.06 44.985C63.1388 41.8514 64.5794 38.3423 65.3 34.6567C65.3 34.4378 65.37 34.2188 65.4 33.9999L57.05 23.5223Z" fill="#020203" stroke="#020203" stroke-width="0.27" stroke-linecap="round" stroke-linejoin="round"/>
<path d="M74.31 41.3928C74.2681 41.0887 74.1474 40.8007 73.9599 40.557L58.9599 21.7311C58.752 21.5191 58.4992 21.3559 58.2199 21.2535C57.9323 21.1481 57.6218 21.1207 57.32 21.1739C57.0251 21.215 56.746 21.3316 56.5099 21.5122C56.2691 21.6848 56.0791 21.9185 55.9599 22.1889L47.3299 44.6068C47.2288 44.8941 47.2015 45.2018 47.2501 45.5022C47.308 45.7943 47.4308 46.0698 47.6099 46.3083C47.8012 46.5442 48.0487 46.7289 48.3299 46.8456C48.612 46.9712 48.9229 47.0192 49.23 46.9848L72.8699 43.3928C73.3308 43.3085 73.7402 43.0477 74.0099 42.6664C74.2798 42.2886 74.3911 41.8211 74.32 41.363L74.31 41.3928Z" fill="#FFF066" stroke="#020203" stroke-width="0.27" stroke-linecap="round" stroke-linejoin="round"/>
<path d="M59.27 41.8706H59.1801V41.8009L58.78 39.2337V39.164H58.86L61.39 38.7661H61.46L61.52 38.8357L61.89 41.4028V41.4726H61.8201L59.27 41.8706Z" fill="#0D0D0D" stroke="#0D0D0D" stroke-width="0.27" stroke-linecap="round" stroke-linejoin="round"/>
<path d="M58.62 37.7115H58.54V37.6419L57.1901 29.015V28.9255H57.26L59.8 28.5474H59.89V28.617L61.21 37.2339V37.3035H61.15L58.62 37.7115Z" fill="#0D0D0D" stroke="#0D0D0D" stroke-width="0.27" stroke-linecap="round" stroke-linejoin="round"/>
</g>
<defs>
<clipPath id="clip0_722_612">
<rect width="80" height="60" fill="white"/>
</clipPath>
</defs>
</svg>
