<svg width="120" height="154" viewBox="0 0 120 154" fill="none" xmlns="http://www.w3.org/2000/svg">
<path fill-rule="evenodd" clip-rule="evenodd" d="M59.4981 153.103L9.02148 127.864L59.4981 102.626L109.975 127.864L59.4981 153.103Z" fill="black" stroke="#2B2B2B" stroke-width="0.5" stroke-miterlimit="10"/>
<path fill-rule="evenodd" clip-rule="evenodd" d="M59.8352 142.777L0.945801 113.616L59.8352 84.4553L118.725 113.616L59.8352 142.777Z" fill="black" stroke="#545454" stroke-width="0.5" stroke-miterlimit="10"/>
<path fill-rule="evenodd" clip-rule="evenodd" d="M59.8352 132.136L0.945801 102.975V99.1152L59.8352 73.8142L118.725 99.1152V102.975L59.8352 132.136Z" fill="black" stroke="#868686" stroke-width="0.5" stroke-miterlimit="10"/>
<path fill-rule="evenodd" clip-rule="evenodd" d="M59.8352 128.277L0.945801 99.1163L59.8352 69.9553L118.725 99.1163L59.8352 128.277Z" fill="black" stroke="#868686" stroke-width="0.5" stroke-miterlimit="10"/>
<path fill-rule="evenodd" clip-rule="evenodd" d="M59.8352 69.9541L0.945801 99.1151V30.161L59.8352 1L118.725 30.161V99.1151L59.8352 69.9541Z" fill="black" stroke="#868686" stroke-width="0.5" stroke-miterlimit="10"/>
<path d="M59.8354 1V69.9541" stroke="#868686" stroke-width="0.5" stroke-miterlimit="10"/>
<path d="M59.8353 90.9405C74.3616 90.9405 86.1375 79.1646 86.1375 64.6383C86.1375 50.1121 74.3616 38.3362 59.8353 38.3362C45.3091 38.3362 33.5332 50.1121 33.5332 64.6383C33.5332 79.1646 45.3091 90.9405 59.8353 90.9405Z" fill="white"/>
<path d="M59.8358 88.1077C72.798 88.1077 83.3059 77.5998 83.3059 64.6376C83.3059 51.6754 72.798 41.1675 59.8358 41.1675C46.8736 41.1675 36.3657 51.6754 36.3657 64.6376C36.3657 77.5998 46.8736 88.1077 59.8358 88.1077Z" fill="black" stroke="white" stroke-width="0.5" stroke-miterlimit="10"/>
<path d="M53.2968 68.3055L53.3223 65.6435L58.2409 65.6576L58.2353 53.3993L60.9313 53.4021L60.9115 68.3112L53.2939 68.3083L53.2968 68.3055Z" fill="white"/>
</svg>
