<svg width="8" height="8" viewBox="0 0 8 8" fill="none" xmlns="http://www.w3.org/2000/svg">
<path fill-rule="evenodd" clip-rule="evenodd" d="M3.45759 0.199219H0.470703V3.18609H3.45759V0.199219ZM2.81889 0.84132H1.11209V2.54811H2.81889V0.84132Z" fill="white"/>
<path fill-rule="evenodd" clip-rule="evenodd" d="M7.29743 0.199219H4.31055V3.18609H7.29743V0.199219ZM6.65904 0.841391H4.95225V2.54818H6.65904V0.841391Z" fill="white"/>
<path fill-rule="evenodd" clip-rule="evenodd" d="M3.45759 4.03906H0.470703V7.02594H3.45759V4.03906ZM2.81889 4.68122H1.1121V6.38801H2.81889V4.68122Z" fill="white"/>
<path d="M6.65625 4.04011L7.29622 4.04004L7.29637 5.2134H6.65625V4.04011Z" fill="white"/>
<path d="M6.65625 5.85352H7.2963V7.02693H6.65625V5.85352Z" fill="white"/>
<path d="M4.31055 5.21289H4.95059V7.02635H4.31055V5.21289Z" fill="white"/>
<path d="M4.94922 5.85254L4.94922 5.21249L6.65601 5.21249L6.65601 5.85254L4.94922 5.85254Z" fill="white"/>
</svg>
