<svg width="52" height="52" viewBox="0 0 52 52" fill="none" xmlns="http://www.w3.org/2000/svg">
<path d="M26 51C30.9445 51 35.778 49.5338 39.8893 46.7867C44.0005 44.0397 47.2048 40.1352 49.097 35.5671C50.9892 30.9989 51.4843 25.9723 50.5196 21.1227C49.555 16.2732 47.174 11.8187 43.6777 8.32234C40.1814 4.82603 35.7268 2.44501 30.8773 1.48038C26.0277 0.51575 21.0011 1.01083 16.4329 2.90302C11.8648 4.79521 7.96029 7.99952 5.21326 12.1108C2.46622 16.222 1 21.0555 1 26C1 32.6304 3.63392 38.9893 8.32233 43.6777C13.0107 48.3661 19.3696 51 26 51Z" fill="#F08D32" stroke="#F08D32" stroke-width="0.3" stroke-miterlimit="10"/>
<path d="M26.001 47.2383C30.2038 47.2383 34.3123 45.992 37.8068 43.657C41.3014 41.322 44.025 38.0032 45.6334 34.1203C47.2418 30.2374 47.6626 25.9647 46.8427 21.8426C46.0227 17.7205 43.9989 13.9341 41.027 10.9623C38.0551 7.99041 34.2687 5.96654 30.1466 5.1466C26.0245 4.32667 21.7519 4.74749 17.8689 6.35585C13.986 7.96421 10.6672 10.6879 8.33224 14.1824C5.99726 17.677 4.75098 21.7854 4.75098 25.9883C4.75098 31.6241 6.98981 37.0292 10.975 41.0143C14.9601 44.9995 20.3651 47.2383 26.001 47.2383Z" fill="black"/>
<rect x="23.916" y="14.4707" width="3.54564" height="15.6008" fill="#F08D32"/>
<rect width="3.54564" height="3.54564" transform="matrix(1 0 0 -1 23.916 37.1621)" fill="#F08D32"/>
</svg>
