<svg width="101" height="95" viewBox="0 0 101 95" fill="none" xmlns="http://www.w3.org/2000/svg">
<g id="Group 18145757">
<g id="Group 18145652">
<g id="Group 18145651">
<path id="Vector" d="M88.9336 61.1322H88.9497L36.5531 36.7358C35.3599 36.115 33.9087 36.3568 32.9734 37.3243L13.4547 57.2381C12.6727 58.0363 12.8904 59.3827 13.8578 59.8906L33.304 69.9039L31.6835 74.5317L38.6412 70.049L66.2706 84.2789C67.4638 84.8997 68.915 84.6579 69.8502 83.6904L89.3609 63.7927C90.1429 62.9946 89.9333 61.6401 88.9416 61.1322H88.9336Z" fill="#0D0D0D" stroke="#0D0D0D" stroke-width="0.281053" stroke-linecap="round" stroke-linejoin="round"/>
<path id="Vector_2" d="M90.5358 53.9651V57.3835C90.5358 57.7866 90.3584 58.1978 90.0279 58.5122L69.6223 78.9904C69.0418 79.5709 68.292 79.8933 67.5181 79.9256V41.3235L89.5925 52.5058C90.1811 52.7961 90.4794 53.3766 90.5277 53.9732V53.9571L90.5358 53.9651Z" fill="#D1D1D1" stroke="#0D0D0D" stroke-width="0.281053" stroke-linecap="round" stroke-linejoin="round"/>
<path id="Vector_3" d="M67.5441 41.315V79.9252C66.9959 79.9575 66.4315 79.8527 65.9155 79.5947L12.1564 52.3523C11.5679 52.062 11.2534 51.4977 11.2373 50.9011V47.6036C11.2373 47.1602 11.3663 46.7006 11.7291 46.362L32.1508 25.8758C33.1344 24.8841 34.642 24.6262 35.8997 25.2711L67.5602 41.315H67.5441Z" fill="#D1D1D1" stroke="#0D0D0D" stroke-width="0.281053" stroke-linecap="round" stroke-linejoin="round"/>
<path id="Vector_4" d="M89.6281 52.4967L35.8932 25.2785C34.6355 24.6415 33.1359 24.8834 32.1442 25.8831L11.7306 46.3694C10.9083 47.1998 11.1421 48.5704 12.166 49.0944L65.917 76.3287C67.1747 76.9657 68.6743 76.7238 69.666 75.7241L90.0716 55.2459C90.8858 54.4155 90.6762 53.0288 89.6443 52.5047H89.6281V52.4967Z" fill="#EFEFEF" stroke="#0D0D0D" stroke-width="0.281053" stroke-linecap="round" stroke-linejoin="round"/>
<path id="Vector_5" d="M68.8993 74.7592L89.2297 54.3967L89.2317 54.3946C89.3971 54.2357 89.3921 54.0508 89.3714 53.9783L89.3687 53.969L89.3674 53.9595C89.3549 53.8721 89.298 53.697 89.111 53.5967C89.1106 53.5965 89.1102 53.5963 89.1098 53.596L35.3855 26.3631L35.3849 26.3627C35.1046 26.2188 34.7878 26.1364 34.4816 26.1364C33.93 26.1364 33.4338 26.3394 33.0412 26.732C33.0411 26.7321 33.0411 26.7321 33.0411 26.7321L27.1847 32.6043L27.2585 32.6436C27.2586 32.6437 27.2588 32.6438 27.259 32.6439C28.3731 33.2275 28.6183 34.7262 27.7201 35.6246C27.7201 35.6247 27.72 35.6248 27.72 35.6248M68.8993 74.7592L27.6206 35.5254L27.72 35.6248M68.8993 74.7592L68.8932 74.7531L68.7939 74.8486C68.3982 75.2291 67.9001 75.4463 67.3675 75.4463C67.0617 75.4463 66.7446 75.3641 66.4552 75.2195C66.4551 75.2194 66.455 75.2193 66.4548 75.2193L12.7125 47.9933L12.7118 47.993C12.5299 47.9021 12.4732 47.749 12.4589 47.6496C12.4589 47.645 12.4589 47.6403 12.4589 47.6356C12.4582 47.5203 12.4572 47.3707 12.5964 47.2252L68.8993 74.7592ZM27.72 35.6248L23.1408 40.2201L23.1402 40.2207C22.1074 41.2451 20.5273 41.5159 19.2302 40.8517M27.72 35.6248L19.2302 40.8517M19.2302 40.8517L19.2323 40.8527L19.2923 40.7256L19.2282 40.8506C19.2288 40.851 19.2295 40.8513 19.2302 40.8517ZM19.2302 40.8517L19.0317 40.758M19.2302 40.8517L12.4958 47.127L12.5972 47.2244L19.0317 40.758M19.0317 40.758L19.1017 40.6877L19.0021 40.5885L18.942 40.7156L19.0317 40.758Z" fill="white" stroke="black" stroke-width="0.281053"/>
<path id="Vector_6" d="M29.6189 50.2174L29.3529 50.0722C26.0393 48.3953 22.5886 48.363 19.7185 49.6772L17.6868 50.6043L29.0787 75.7828L31.1104 74.8556C33.7468 73.6544 35.8591 71.3163 36.9072 68.0833C39.0517 61.4562 35.8107 53.5068 29.635 50.1932L29.6189 50.2174Z" fill="#898989" stroke="#0D0D0D" stroke-width="0.281053" stroke-linecap="round" stroke-linejoin="round"/>
<path id="Vector_7" d="M34.8523 69.0328C32.6755 75.7728 25.7581 78.6188 19.4131 75.3858C19.3325 75.3455 19.2438 75.2971 19.147 75.2407C12.9794 71.9594 9.73032 63.9938 11.891 57.3586C14.0678 50.6266 20.9852 47.7806 27.3141 51.0055C27.4028 51.0539 27.4834 51.0942 27.5802 51.1506C33.7639 54.4481 37.0049 62.4056 34.8523 69.0408V69.0328Z" fill="white" stroke="#0D0D0D" stroke-width="0.281053" stroke-linecap="round" stroke-linejoin="round"/>
<path id="Vector_8" d="M20.5384 72.9018L20.5384 72.9018L20.5357 72.9004C15.4348 70.1746 12.7156 63.5206 14.4919 58.0883L14.492 58.088C15.6445 54.5351 18.4815 52.34 21.9046 52.34C23.2582 52.34 24.6469 52.6881 25.9914 53.364L26.0764 53.4103L26.078 53.4112L26.2054 53.4829L26.2054 53.4829L26.2079 53.4843C31.309 56.2182 34.0283 62.8723 32.2599 68.3047L32.2599 68.3048C31.1074 71.8578 28.2783 74.0528 24.8554 74.0528H24.7148V74.0596C23.3919 74.0367 22.0668 73.6892 20.7527 73.0209L20.6674 72.9744L20.6658 72.9735L20.5384 72.9018Z" fill="#06C270" stroke="black" stroke-width="0.281053"/>
<path id="Vector_9" d="M71.6187 27.0042C72.1266 27.9313 72.8926 28.7053 73.8278 29.2213C72.9006 29.7292 72.1266 30.4951 71.6187 31.4384C71.1108 30.5112 70.3449 29.7373 69.4097 29.2213C70.3368 28.7134 71.1027 27.9474 71.6187 27.0042Z" fill="white" stroke="#0D0D0D" stroke-width="0.281053" stroke-linecap="round" stroke-linejoin="round"/>
<path id="Vector_10" d="M41.2305 76.2483C41.6498 77.0223 42.2867 77.6592 43.0687 78.0865C42.2947 78.5138 41.6498 79.1507 41.2305 79.9247C40.8113 79.1507 40.1744 78.5138 39.3923 78.0865C40.1663 77.6672 40.8032 77.0223 41.2305 76.2483Z" fill="white" stroke="#0D0D0D" stroke-width="0.281053" stroke-linecap="round" stroke-linejoin="round"/>
<g id="Group">
<path id="Vector_11" d="M22.0544 68.4291L24.6989 58.4963L28.0447 64.7123L22.0544 68.4291Z" fill="white" stroke="#0D0D0D" stroke-width="0.281053" stroke-linecap="round" stroke-linejoin="round"/>
<path id="Vector_12" d="M18.2996 67.3951L20.9359 57.4705L24.2898 63.6865L18.2996 67.3951Z" fill="white" stroke="#0D0D0D" stroke-width="0.281053" stroke-linecap="round" stroke-linejoin="round"/>
</g>
<g id="Group_2">
<g id="Group_3">
<path id="Vector_13" d="M65.3141 27.6798V52.3342L30.4368 34.6698V10.0073L65.3141 27.6798Z" fill="white" stroke="black" stroke-width="0.281053" stroke-linecap="round" stroke-linejoin="round"/>
<path id="Vector_14" d="M40.3216 33.1058V35.5728L34.6619 32.7026V30.2356L40.3216 33.1058Z" stroke="#0D0D0D" stroke-width="0.281053" stroke-linecap="round" stroke-linejoin="round"/>
<path id="Vector_15" d="M65.3209 33.347V37.3943L30.4517 19.7299V15.6907L65.3209 33.347Z" stroke="black" stroke-width="0.281053" stroke-miterlimit="10"/>
<path id="Vector_16" d="M30.4368 10.0068L31.4768 8.97485L66.3541 26.6473L65.3141 27.6793L30.4368 10.0068Z" fill="white" stroke="#0D0D0D" stroke-width="0.281053" stroke-linecap="round" stroke-linejoin="round"/>
<path id="Vector_17" d="M65.3142 52.3341L66.3542 51.3021V26.6477L65.3142 27.6797V52.3341Z" fill="#898989" stroke="#0D0D0D" stroke-width="0.281053" stroke-linecap="round" stroke-linejoin="round"/>
</g>
<path id="Vector_18" d="M42.0994 21.6511V40.154L65.2058 50.9816L65.3509 33.3333L42.0994 21.6511Z" fill="#0D0D0D"/>
<path id="Vector_19" d="M38.7815 47.7387V34.2344" stroke="#0D0D0D" stroke-width="0.281053" stroke-linecap="round" stroke-linejoin="round"/>
<g id="Group_4">
<path id="Vector 1983" d="M87.3409 51.687L74.557 65.3425L72.2327 43.8423L87.3409 51.687Z" fill="black" stroke="black" stroke-width="0.281053"/>
<path id="Vector_20" d="M73.6432 42.1871V66.8415L38.7659 49.1771V24.5146L73.6432 42.1871Z" fill="#D1D1D1" stroke="#0D0D0D" stroke-width="0.281053" stroke-linecap="round" stroke-linejoin="round"/>
<path id="Vector_21" d="M48.6519 47.6131V50.0882L42.9841 47.218V44.7429L48.6519 47.6131Z" stroke="#0D0D0D" stroke-width="0.281053" stroke-linecap="round" stroke-linejoin="round"/>
<path id="Vector_22" d="M73.65 47.8544V51.9016L38.7808 34.2372V30.198L73.65 47.8544Z" fill="#0D0D0D"/>
<path id="Vector_23" d="M38.7656 24.5141L39.8057 23.4822L74.683 41.1547L73.643 42.1866L38.7656 24.5141Z" fill="white" stroke="#0D0D0D" stroke-width="0.281053" stroke-linecap="round" stroke-linejoin="round"/>
<path id="Vector_24" d="M73.6433 66.8414L74.6833 65.8094V41.155L73.6433 42.187V66.8414Z" fill="#898989" stroke="#0D0D0D" stroke-width="0.281053" stroke-linecap="round" stroke-linejoin="round"/>
</g>
</g>
</g>
<g id="Vector 1982" style="mix-blend-mode:overlay">
<path d="M42.2612 50.9016L59.192 34.7771L73.704 42.0331L55.564 57.7546L42.2612 50.9016Z" fill="white"/>
</g>
</g>
</g>
</svg>
