<svg width="98" height="82" viewBox="0 0 98 82" fill="none" xmlns="http://www.w3.org/2000/svg">
<path d="M53.6882 34.3511L41.2768 27.2565L53.5842 20.1379H39.7074L46.786 8.09225L34.4467 15.1469V1.02969L27.4002 13.1872L20.2337 1.00568V15.1549L8.07035 8.11627L15.0129 20.1139H1L13.3793 27.2325L1.11202 34.3271H15.0129L7.91025 46.3726L20.2337 39.3661V53.4433L27.4002 41.4457L34.4467 53.4433V39.4221L46.834 46.6766L39.7074 34.383L53.6882 34.3511Z" fill="#9772FF" stroke="#0D0D0D" stroke-width="0.5" stroke-linejoin="round"/>
<path d="M53.6883 34.3511L41.2769 27.2565L53.5843 20.1379H39.7075L46.7861 8.09222L34.4468 15.1469V11.4116L31.5882 14.2431C31.1518 14.6726 30.8227 15.1986 30.6273 15.7787C29.4422 19.354 24.83 33.2313 20.2178 47.1485V53.4673L27.3843 41.4697L34.4308 53.4673V39.422L46.8182 46.6765L39.6915 34.383L53.6883 34.3511Z" fill="#0D0D0D" stroke="#0D0D0D" stroke-width="0.5" stroke-linejoin="round"/>
<path d="M91.2106 55.4749C91.0614 54.6642 90.7087 53.9048 90.1856 53.2674L47.9709 2.70938C47.4732 2.0923 46.8252 1.61312 46.0891 1.31766C45.3488 1.02792 44.5462 0.934263 43.759 1.04574C42.974 1.15796 42.2318 1.47219 41.6051 1.95757C41.3062 2.1902 41.0373 2.45885 40.8044 2.75741L35.4154 9.61201C35.1733 9.92407 34.9765 10.2688 34.8309 10.6358C34.8309 10.6358 15.1247 69.888 15.0847 69.992C14.8649 70.774 14.8403 71.5978 15.0127 72.3915C15.1816 73.1858 15.5415 73.9271 16.0616 74.5511C16.577 75.1798 17.24 75.6715 17.9914 75.9828C18.7494 76.3022 19.5742 76.4313 20.3937 76.3588L82.3785 67.5605C82.9496 67.456 83.4941 67.2384 83.9799 66.9206C84.4692 66.5883 84.895 66.1711 85.2371 65.6888L90.6261 58.8262C90.9573 58.3454 91.1838 57.8004 91.2907 57.2266C91.3794 56.6431 91.3521 56.0478 91.2106 55.4749Z" fill="#FF784B" stroke="#0D0D0D" stroke-width="0.5" stroke-linejoin="round"/>
<path d="M91.2107 55.4748C91.0579 54.6653 90.7057 53.9067 90.1858 53.2673L47.9711 2.70934C47.4752 2.09227 46.8264 1.61531 46.0893 1.32563C45.3506 1.02956 44.547 0.933031 43.7592 1.0457C42.9738 1.15648 42.2312 1.47086 41.6053 1.95753C40.9793 2.44575 40.4909 3.08786 40.1879 3.82113C40.1879 3.82113 20.4819 63.0733 20.4419 63.1693C20.2272 63.952 20.2024 64.7746 20.3698 65.5688C20.5386 66.3631 20.8987 67.1044 21.4188 67.7284C21.9382 68.3529 22.5999 68.8439 23.3485 69.1602C24.1077 69.4753 24.9314 69.6041 25.7507 69.5361L87.7275 60.7378C88.3147 60.6417 88.8761 60.4267 89.377 60.1059C89.8733 59.7822 90.3006 59.3635 90.6342 58.8741C90.9576 58.3899 91.1809 57.8461 91.2909 57.2745C91.3977 56.6913 91.384 56.0925 91.2508 55.5148L91.2107 55.4748Z" fill="#FFDF0D" stroke="#0D0D0D" stroke-width="0.5" stroke-linejoin="round"/>
<path d="M51.6069 54.3551H51.4228V54.1951L50.2217 48.2842V48.1003L50.3818 48.0043L56.1551 47.2045H56.3312L56.4354 47.3645L57.6365 53.2752V53.4513H57.4764L51.6069 54.3551Z" fill="#0D0D0D" stroke="#0D0D0D" stroke-width="0.5" stroke-linejoin="round"/>
<path d="M49.5726 44.645H49.3884L49.2922 44.485L45.2886 24.617V24.433H45.4489L51.2221 23.6332H51.4063V23.7931L55.41 43.6851V43.8452H55.2499L49.5726 44.645Z" fill="#0D0D0D" stroke="#0D0D0D" stroke-width="0.5" stroke-linejoin="round"/>
<path d="M70.2319 66.8645C65.988 65.0569 66.068 63.4172 67.3011 58.3222L69.327 50.2758L66.2922 58.0263C64.3544 63.2412 62.833 64.121 58.9174 63.5052L54.0571 62.5374L58.5972 64.313C62.5368 65.9127 63.0093 67.7443 61.6641 72.9833L59.4701 80.9817L62.4488 73.1433C64.5868 67.5444 65.8839 67.0564 69.9837 67.8003L74.74 68.7201L70.2319 66.8645Z" fill="white" stroke="#0D0D0D" stroke-width="0.5" stroke-linejoin="round"/>
<path d="M92.1957 52.9232C87.5915 50.9636 87.6796 49.18 88.9928 43.6531L91.1948 34.9268L87.8959 43.3332C85.7979 48.988 84.1404 49.9398 79.8885 49.2759L74.6196 48.2282L79.5441 50.1558C83.82 51.9075 84.3486 53.8751 82.8672 59.562L80.465 68.2402L83.668 59.7299C85.9821 53.6831 87.3913 53.1232 91.8354 53.9391L97.0001 54.9389L92.1957 52.9232Z" fill="white" stroke="#0D0D0D" stroke-width="0.5" stroke-linejoin="round"/>
</svg>
