<svg width="81" height="62" viewBox="0 0 81 62" fill="none" xmlns="http://www.w3.org/2000/svg">
<path d="M70.61 6.03784H5C2.23858 6.03784 0 8.27504 0 11.0348V51.0102C0 53.77 2.23858 56.0072 5 56.0072H70.61C73.3714 56.0072 75.61 53.77 75.61 51.0102V11.0348C75.61 8.27504 73.3714 6.03784 70.61 6.03784Z" fill="#FF784B"/>
<path d="M21.7 6.60668L3 55.5766C3.63064 55.8526 4.31153 55.9956 5 55.9964H58L60.53 55.6066C61.0618 55.5261 61.5714 55.3372 62.0272 55.0519C62.483 54.7665 62.8754 54.3907 63.18 53.9477C63.7842 53.0728 64.031 52.0003 63.87 50.9495C63.7539 50.2531 63.4651 49.5968 63.03 49.0406L28.93 5.98706H21.97C21.8614 6.18498 21.771 6.39237 21.7 6.60668Z" fill="black" stroke="#020203" stroke-width="0.3" stroke-linecap="round" stroke-linejoin="round"/>
<path d="M27.8 1.09091C27.1045 1.19338 26.4495 1.48136 25.9039 1.92457C25.3584 2.36777 24.9425 2.94978 24.7001 3.60932L4.90005 55.4775C4.6443 56.1388 4.56506 56.8551 4.67006 57.5563C4.83365 58.5923 5.3839 59.5278 6.21004 60.1746C6.63052 60.5021 7.11354 60.7401 7.62945 60.8742C8.14535 61.0082 8.68323 61.0354 9.21004 60.9541L63.4801 52.6193C64.0124 52.5404 64.5227 52.3523 64.9787 52.0668C65.4348 51.7813 65.8268 51.4045 66.1301 50.9603C66.7352 50.0858 66.9821 49.0129 66.8201 47.9621C66.7111 47.2618 66.4177 46.603 65.9701 46.0533L66.1401 45.9234L65.9701 46.0533L31.5001 2.52002C31.0682 1.96231 30.4937 1.53144 29.8372 1.27287C29.1807 1.0143 28.4665 0.937583 27.77 1.05089" fill="#FFC919"/>
<path d="M27.8 1.09091C27.1045 1.19338 26.4495 1.48136 25.9039 1.92457C25.3584 2.36777 24.9425 2.94978 24.7001 3.60932L4.90005 55.4775C4.6443 56.1388 4.56506 56.8551 4.67006 57.5563C4.83365 58.5923 5.3839 59.5278 6.21004 60.1746C6.63052 60.5021 7.11354 60.7401 7.62945 60.8742C8.14535 61.0082 8.68323 61.0354 9.21004 60.9541L63.4801 52.6193C64.0124 52.5404 64.5227 52.3523 64.9787 52.0668C65.4348 51.7813 65.8268 51.4045 66.1301 50.9603C66.7352 50.0858 66.9821 49.0129 66.8201 47.9621C66.7111 47.2618 66.4177 46.603 65.9701 46.0533L66.1401 45.9234L65.9701 46.0533L31.5001 2.52002C31.0682 1.96231 30.4937 1.53144 29.8372 1.27287C29.1807 1.0143 28.4665 0.937583 27.77 1.05089" stroke="#020203" stroke-width="0.3" stroke-linecap="round" stroke-linejoin="round"/>
<path d="M66.8498 48.0023C66.7337 47.3059 66.445 46.6496 66.0099 46.0934L31.5298 2.56013C31.0899 2.01712 30.5153 1.59883 29.8632 1.34694C29.2111 1.09506 28.5043 1.01838 27.8133 1.12455C27.1223 1.23071 26.4712 1.51603 25.9249 1.95204C25.3786 2.38805 24.9563 2.95948 24.6999 3.60947L4.89984 55.4777C4.64364 56.1388 4.56439 56.8553 4.66986 57.5564C4.83345 58.5924 5.38369 59.528 6.20984 60.1748C6.63031 60.5022 7.11334 60.7403 7.62924 60.8743C8.14514 61.0084 8.68303 61.0356 9.20984 60.9543L63.4799 52.6194C64.0117 52.5389 64.5212 52.35 64.977 52.0647C65.4329 51.7793 65.8252 51.4035 66.1298 50.9604C66.7346 50.1004 66.9917 49.0438 66.8498 48.0023Z" fill="#FFDF0D" stroke="black" stroke-width="0.3" stroke-miterlimit="10"/>
<path d="M26.1797 58.3556L51.6598 27.9742L44.476 18.8904L9.23975 60.954L26.1797 58.3556Z" fill="white"/>
<path d="M32.3601 47.4616L32.2001 47.4216L32.1201 47.2917L31.3301 42.1549L31.3601 41.995L31.5001 41.915L36.5601 41.1355L36.7101 41.1755L36.8001 41.3154L37.5801 46.4522L37.5501 46.6021L37.4101 46.6821L32.3601 47.4616Z" fill="black" stroke="#020203" stroke-width="0.3" stroke-linecap="round" stroke-linejoin="round"/>
<path d="M31.0602 39.0275L30.9002 38.9876L30.8202 38.8476L28.1602 21.5982L28.2002 21.4383L28.3402 21.3584L33.4002 20.5789L33.5502 20.6188L33.6302 20.7587L36.2902 38.0182L36.2502 38.1681L36.1202 38.248L31.0602 39.0275Z" fill="black" stroke="#020203" stroke-width="0.3" stroke-linecap="round" stroke-linejoin="round"/>
<path d="M66.8498 48.0023C66.7337 47.3059 66.4449 46.6496 66.0099 46.0934L31.5298 2.56013C31.0899 2.01712 30.5153 1.59883 29.8632 1.34694C29.2111 1.09506 28.5043 1.01838 27.8133 1.12455C27.1223 1.23071 26.4712 1.51603 25.9249 1.95204C25.3786 2.38805 24.9563 2.95948 24.6999 3.60947L4.89984 55.4777C4.64364 56.1388 4.56439 56.8553 4.66986 57.5564C4.83345 58.5924 5.38369 59.528 6.20984 60.1748C6.63031 60.5022 7.11334 60.7403 7.62924 60.8743C8.14514 61.0084 8.68303 61.0356 9.20984 60.9543L63.4799 52.6194C64.0117 52.5389 64.5212 52.35 64.977 52.0647C65.4329 51.7793 65.8252 51.4035 66.1298 50.9604C66.7346 50.1004 66.9917 49.0438 66.8498 48.0023Z" stroke="#020203" stroke-width="0.3" stroke-linecap="round" stroke-linejoin="round"/>
<path d="M74.0399 22.4578L75.6099 18.7101V11.0348C75.6099 9.70951 75.0831 8.43847 74.1454 7.50136C73.2078 6.56425 71.936 6.03784 70.6099 6.03784H61.0599L57.1499 15.3821L63.3799 24.1967L74.0399 22.4578Z" fill="black" stroke="#020203" stroke-width="0.3" stroke-linecap="round" stroke-linejoin="round"/>
<path d="M80.0002 9.86572L75.5702 20.4592L64.9102 22.2281L69.3401 11.6246L80.0002 9.86572Z" fill="#9772FF" stroke="#020203" stroke-width="0.3" stroke-linecap="round" stroke-linejoin="round"/>
<path d="M73.7699 1.04102L63.1099 2.80993L69.3399 11.6245L79.9999 9.8656L73.7699 1.04102Z" fill="white" stroke="#020203" stroke-width="0.3" stroke-linecap="round" stroke-linejoin="round"/>
<path d="M64.9097 22.2274L58.6797 13.4028L63.1097 2.80933L69.3397 11.6239L64.9097 22.2274Z" fill="#9772FF" stroke="#020203" stroke-width="0.3" stroke-linecap="round" stroke-linejoin="round"/>
</svg>
