<svg width="82" height="62" viewBox="0 0 82 62" fill="none" xmlns="http://www.w3.org/2000/svg">
<path d="M76.3333 49.8402L2.06408 14.5581L1 15.9215L2.88333 25.7086L10.04 61.0001L75.2692 51.2037L76.3333 49.8402Z" fill="black" stroke="black" stroke-width="0.3" stroke-linecap="round" stroke-linejoin="round"/>
<path d="M68.96 14.6888L3.9473 24.3545L2.06396 14.5581L66.813 4.96709L68.96 14.6888Z" fill="#8DD04A" stroke="black" stroke-width="0.3" stroke-linecap="round" stroke-linejoin="round"/>
<path d="M76.3332 49.8412L11.1039 59.6376L3.94727 24.3555L68.9599 14.6898L76.3332 49.8412Z" fill="#8DD04A" stroke="black" stroke-width="0.3" stroke-linecap="round" stroke-linejoin="round"/>
<path d="M65.7205 22.1598L40.7852 25.8766L41.2937 28.2674L66.229 24.5505L65.7205 22.1598Z" fill="white" stroke="black" stroke-width="0.3" stroke-linecap="round" stroke-linejoin="round"/>
<path d="M65.7205 22.1598L40.7852 25.8766L41.2937 28.2674L66.229 24.5505L65.7205 22.1598Z" fill="white" stroke="black" stroke-width="0.3" stroke-linecap="round" stroke-linejoin="round"/>
<path d="M58.461 28.8743L41.9536 31.3398L42.4715 33.7959L58.9789 31.3398L58.461 28.8743Z" fill="white" stroke="black" stroke-width="0.3" stroke-linecap="round" stroke-linejoin="round"/>
<path d="M25.7471 51.3997C24.0413 51.6542 22.301 51.5588 20.6339 51.1195C18.9851 50.6891 17.4305 49.961 16.0479 48.9716C14.6554 47.9954 13.4527 46.7773 12.4979 45.3761C11.5278 43.9658 10.8493 42.3787 10.5015 40.7067C10.1479 39.1133 10.1479 37.4626 10.5015 35.8692C10.8434 34.3648 11.5012 32.9487 12.4319 31.7134C13.3804 30.4595 14.5713 29.4055 15.9349 28.6129C17.3852 27.776 18.9833 27.2213 20.6433 26.9786C22.3377 26.7227 24.0655 26.7829 25.7377 27.1561C27.3497 27.4996 28.8848 28.1326 30.2671 29.0238C31.6331 29.9074 32.8158 31.0422 33.7513 32.3671C34.7056 33.7338 35.3718 35.2775 35.7099 36.9058C36.0394 38.5083 36.0425 40.1601 35.7191 41.7638C35.3957 43.3676 34.7522 44.891 33.8266 46.2446C32.9051 47.6064 31.7072 48.7624 30.3095 49.6389C28.9118 50.5153 27.3827 51.1581 25.7471 51.3997Z" stroke="black" stroke-width="0.3" stroke-linecap="round" stroke-linejoin="round"/>
<path d="M34.0244 37.2322C34.312 38.6132 34.3168 40.0374 34.0385 41.4203C33.7603 42.8032 33.2047 44.1165 32.4047 45.2823C31.6039 46.4545 30.5657 47.4485 29.3562 48.201C28.1468 48.9535 26.7926 49.4479 25.3799 49.6529C23.9069 49.8711 22.4047 49.7917 20.9635 49.4194C19.5406 49.0432 18.1998 48.41 17.0085 47.5516C15.8089 46.7125 14.7721 45.6653 13.9481 44.4605C13.1179 43.2447 12.5327 41.881 12.2248 40.4448C11.9277 39.0657 11.9277 37.64 12.2248 36.261C12.5218 34.9604 13.0895 33.7358 13.8916 32.6655C14.7077 31.5801 15.7357 30.6686 16.9143 29.9853C18.1687 29.2564 19.5531 28.7744 20.9917 28.5657C22.4575 28.3474 23.9514 28.3981 25.3987 28.7152C26.7925 29.0241 28.1171 29.5844 29.3066 30.3681C30.4845 31.1381 31.5065 32.1201 32.32 33.2632C33.1439 34.4473 33.7173 35.7848 34.0055 37.1949" fill="white"/>
<path d="M34.0244 37.2322C34.312 38.6132 34.3168 40.0374 34.0385 41.4203C33.7603 42.8032 33.2047 44.1165 32.4047 45.2823C31.6039 46.4545 30.5657 47.4485 29.3562 48.201C28.1468 48.9535 26.7926 49.4479 25.3799 49.6529C23.9069 49.8711 22.4047 49.7917 20.9635 49.4194C19.5406 49.0432 18.1998 48.41 17.0085 47.5516C15.8089 46.7125 14.7721 45.6653 13.9481 44.4605C13.1179 43.2447 12.5327 41.881 12.2248 40.4448C11.9277 39.0657 11.9277 37.64 12.2248 36.261C12.5218 34.9604 13.0895 33.7358 13.8916 32.6655C14.7077 31.5801 15.7357 30.6686 16.9143 29.9853C18.1687 29.2564 19.5531 28.7744 20.9917 28.5657C22.4575 28.3474 23.9514 28.3981 25.3987 28.7152C26.7925 29.0241 28.1171 29.5844 29.3066 30.3681C30.4845 31.1381 31.5065 32.1201 32.32 33.2632C33.1439 34.4473 33.7173 35.7848 34.0055 37.1949" stroke="black" stroke-width="0.3" stroke-linecap="round" stroke-linejoin="round"/>
<path d="M68.69 14.4775L66.56 4.80811L52.56 6.8808C52.28 7.12873 52 7.36675 51.73 7.6246C50.2393 9.09687 49.0559 10.8463 48.2477 12.7727C47.4395 14.6991 47.0223 16.7646 47.02 18.8511C47.0221 21.9884 47.9579 25.0554 49.71 27.6676C51.4684 30.2759 53.967 32.3086 56.89 33.5089C59.8084 34.7103 63.02 35.0277 66.12 34.4213C68.371 33.9764 70.4992 33.0565 72.36 31.7238L68.69 14.4775Z" fill="black" stroke="black" stroke-width="0.3" stroke-linecap="round" stroke-linejoin="round"/>
<path fill-rule="evenodd" clip-rule="evenodd" d="M65.05 1.00002C68.2132 1.01285 71.3022 1.95125 73.93 3.69758C76.5493 5.45228 78.5906 7.93195 79.8 10.8282C80.9997 13.7292 81.3093 16.917 80.69 19.9918C80.0672 23.0668 78.5396 25.8897 76.3 28.1042C74.0591 30.3214 71.2054 31.8297 68.1 32.4381C65 33.0445 61.7883 32.727 58.87 31.5257C55.947 30.3254 53.4484 28.2926 51.69 25.6843C49.9378 23.0721 49.0021 20.0052 49 16.8678C48.9997 14.7827 49.4137 12.718 50.2184 10.7917C51.0232 8.86541 52.2028 7.11524 53.69 5.64134C56.7067 2.66213 60.7927 0.992727 65.05 1.00002Z" fill="#FB9075" stroke="black" stroke-width="0.3" stroke-miterlimit="10"/>
<path d="M65.0401 4.96621C67.4083 4.96452 69.7246 5.65436 71.7001 6.94968C73.6664 8.26631 75.197 10.1293 76.1001 12.3051C76.9993 14.481 77.2323 16.8714 76.7701 19.1778C76.3 21.4831 75.1516 23.5986 73.4701 25.2571C71.7912 26.9157 69.6547 28.0441 67.3301 28.5001C65.0027 28.9564 62.5911 28.7183 60.4001 27.8158C58.2093 26.9141 56.3371 25.3887 55.02 23.4323C53.7107 21.4747 53.0148 19.1766 53.02 16.8274C53.0237 15.2618 53.3363 13.712 53.9401 12.2654C54.5509 10.8221 55.441 9.51142 56.5601 8.40757C57.6731 7.29807 58.9993 6.42124 60.4601 5.82902C61.9158 5.24946 63.4714 4.95642 65.0401 4.96621V4.96621Z" fill="#FBFBFB" stroke="black" stroke-width="0.3" stroke-linecap="round" stroke-linejoin="round"/>
<path fill-rule="evenodd" clip-rule="evenodd" d="M64 18.8512H66V10.9174H64V18.8512Z" fill="black" stroke="black" stroke-width="0.3" stroke-linecap="round" stroke-linejoin="round"/>
<path fill-rule="evenodd" clip-rule="evenodd" d="M64 22.8182H66V20.8347H64V22.8182Z" fill="black" stroke="black" stroke-width="0.3" stroke-linecap="round" stroke-linejoin="round"/>
</svg>
