<svg width="211" height="275" viewBox="0 0 211 275" fill="none" xmlns="http://www.w3.org/2000/svg">
<mask id="mask0_10361_1896" style="mask-type:alpha" maskUnits="userSpaceOnUse" x="0" y="0" width="211" height="275">
<path d="M211 0H0C0 107.394 0 167.606 0 275H211V0Z" fill="url(#paint0_linear_10361_1896)"/>
</mask>
<g mask="url(#mask0_10361_1896)">
<path d="M360.329 -39.9454C357.039 -39.8699 354.147 -40.0209 351.344 -40.172C344.646 -40.5344 338.863 -40.8364 331.043 -37.7557C321.837 -34.1161 314.239 -26.8672 306.892 -19.8449C298.099 -11.4482 289.011 -2.76462 277.311 -0.665462C268.061 0.995743 261.481 -5.81521 254.502 -13.0188C249.604 -18.0779 244.544 -23.3032 238.48 -25.3721C231.207 -27.8639 225.305 -25.1909 219.596 -22.6085C213.252 -19.7391 206.686 -16.7792 198.602 -21.3399C190.885 -25.6893 184.379 -32.017 178.079 -38.1332C169.936 -46.0617 161.526 -54.2469 150.313 -58.3546C140.989 -61.7676 129.644 -61.0578 118.653 -60.3631C110.022 -59.8195 101.081 -59.2758 93.2766 -60.7407C79.5117 -63.3382 65.85 -68.3822 52.6309 -73.2601C35.6202 -79.5425 18.0193 -86.0363 -0.186467 -87.5012C-21.5642 -89.2228 -43.8714 -83.1217 -65.4262 -77.2168C-69.0998 -76.2654 -72.7734 -75.2536 -76.4766 -74.2871V-75.1328C-72.8472 -76.0842 -69.2326 -77.0809 -65.6475 -78.0625C-46.5418 -83.2878 -26.8755 -88.664 -7.72548 -88.664C-5.18789 -88.664 -2.65029 -88.5734 -0.142203 -88.362C18.1816 -86.8971 35.8267 -80.3731 52.8817 -74.0756C66.0565 -69.2128 79.6887 -64.1839 93.3947 -61.5864C101.111 -60.1366 109.992 -60.6803 118.579 -61.224C129.644 -61.9186 141.078 -62.6284 150.55 -59.155C161.924 -55.002 170.393 -46.7413 178.596 -38.7675C184.851 -32.6814 191.313 -26.3839 198.941 -22.095C206.701 -17.7306 212.78 -20.4791 219.242 -23.3938C225.084 -26.0366 231.133 -28.77 238.701 -26.1876C244.957 -24.0432 250.076 -18.7575 255.033 -13.638C261.864 -6.58541 268.312 0.0745101 277.134 -1.51119C288.598 -3.56504 297.199 -11.7805 306.316 -20.4791C313.723 -27.5468 321.38 -34.8561 330.719 -38.5561C338.7 -41.6973 344.557 -41.3952 351.344 -41.0328C354.132 -40.8817 357.009 -40.7307 360.27 -40.8062C362.321 -40.8515 364.253 -40.9573 366.083 -41.1234V-40.3079C364.298 -40.0964 362.38 -39.9907 360.329 -39.9454Z" fill="white" fill-opacity="0.3"/>
<path d="M359.601 -32.757C356.326 -32.5758 353.405 -32.6211 350.572 -32.6664C343.697 -32.757 337.751 -32.8476 329.902 -29.6158C320.977 -25.931 313.379 -18.9237 306.017 -12.1581C296.84 -3.70105 287.339 5.02781 275.344 7.12697C266.271 8.69756 260.06 2.05275 253.494 -4.99982C248.935 -9.90792 244.214 -14.967 238.431 -17.0662C231.423 -19.6033 225.448 -17.3833 219.679 -15.2238C213.188 -12.7924 206.46 -10.2855 198.656 -14.9972C191.353 -19.407 185.289 -25.6592 179.432 -31.715C171.775 -39.6284 163.867 -47.7985 153.038 -52.027C143.478 -55.7572 131.719 -55.3343 120.374 -54.9114C111.846 -54.6094 103.024 -54.2772 95.3224 -55.7572C81.882 -58.3396 68.5597 -63.1571 55.6799 -67.8235C38.5069 -74.0304 20.7437 -80.4487 2.33141 -81.7626C-19.8873 -83.3634 -43.0207 -76.8998 -65.387 -70.6476C-69.0606 -69.6207 -72.7489 -68.5937 -76.4668 -67.597V-68.4427C-72.8227 -69.4243 -69.1933 -70.4362 -65.5935 -71.448C-45.514 -77.0508 -24.8297 -82.8348 -4.67648 -82.8348C-2.31593 -82.8348 0.0446276 -82.7593 2.39043 -82.5932C20.906 -81.2642 38.7134 -74.8308 55.9455 -68.6088C68.7957 -63.9575 82.1034 -59.1551 95.47 -56.5878C103.083 -55.1229 111.861 -55.44 120.344 -55.7572C131.778 -56.18 143.611 -56.6029 153.318 -52.8123C164.31 -48.5234 172.276 -40.2929 179.993 -32.3191C185.82 -26.2934 191.84 -20.0715 199.054 -15.7221C206.549 -11.2067 212.789 -13.5324 219.414 -16.0091C225.33 -18.2139 231.438 -20.4943 238.711 -17.8666C244.686 -15.6919 249.467 -10.5573 254.084 -5.58879C260.502 1.29766 266.551 7.82167 275.226 6.29639C286.985 4.24253 295.984 -4.01818 305.5 -12.7924C312.906 -19.6184 320.563 -26.6559 329.622 -30.4011C337.618 -33.7084 343.638 -33.6027 350.601 -33.5121C353.419 -33.4668 356.326 -33.4215 359.572 -33.6027C361.888 -33.7236 364.057 -33.935 366.137 -34.2068V-33.3762C364.057 -33.0893 361.903 -32.8929 359.601 -32.757Z" fill="white" fill-opacity="0.3"/>
<path d="M358.818 -25.6596C355.543 -25.3878 352.592 -25.3274 349.745 -25.267C342.663 -25.1311 336.541 -25.0103 328.647 -21.6274C319.987 -17.9275 312.374 -11.1921 305.012 -4.66807C295.408 3.83428 285.479 12.6236 273.174 14.6472C264.175 16.1272 258.377 9.5881 252.225 2.68655C247.961 -2.10073 243.564 -7.03904 237.973 -9.18351C231.201 -11.781 225.181 -9.95372 219.354 -8.1868C212.73 -6.17825 205.869 -4.10928 198.286 -8.97208C191.337 -13.4271 185.701 -19.634 180.228 -25.6445C173.058 -33.5428 165.637 -41.6978 155.176 -46.0321C145.38 -50.0793 133.282 -49.9132 121.583 -49.732C113.203 -49.6112 104.528 -49.4904 96.9592 -50.9552C83.9024 -53.5075 70.9784 -58.0833 58.4674 -62.5233C41.1616 -68.6546 23.2509 -74.9974 4.61732 -76.13C-18.28 -77.5194 -42.1364 -70.7085 -65.1813 -64.109C-68.9139 -63.0367 -72.6908 -61.9645 -76.4824 -60.9225V-61.7682C-72.7646 -62.7951 -69.0614 -63.8522 -65.4026 -64.9094C-44.3494 -70.935 -22.6323 -77.1419 -1.52011 -77.1419C0.545369 -77.1419 2.61086 -77.0815 4.66159 -76.9606C23.3985 -75.8129 41.3534 -69.455 58.7182 -63.3086C71.1997 -58.8837 84.109 -54.323 97.1067 -51.7708C104.587 -50.3059 113.218 -50.4267 121.568 -50.5475C133.341 -50.7136 145.528 -50.8949 155.471 -46.7871C166.094 -42.3925 173.574 -34.162 180.803 -26.2033C186.232 -20.2381 191.839 -14.0614 198.699 -9.65168C205.958 -4.98521 212.346 -6.91823 219.118 -8.97208C225.078 -10.7692 231.23 -12.6267 238.238 -9.95372C244.007 -7.74884 248.477 -2.71993 252.8 2.12777C258.805 8.8783 264.485 15.2362 273.027 13.8317C285.125 11.8383 294.965 3.12449 304.481 -5.30234C311.888 -11.8565 319.545 -18.6373 328.323 -22.3976C336.364 -25.8258 342.545 -25.9466 349.715 -26.0976C352.548 -26.158 355.484 -26.2184 358.745 -26.4752C361.371 -26.6866 363.805 -27.0037 366.121 -27.3812V-26.5506C363.834 -26.1882 361.415 -25.8711 358.818 -25.6596Z" fill="white" fill-opacity="0.3"/>
<path d="M357.939 -18.6369C354.649 -18.2896 351.669 -18.1386 348.792 -17.9875C341.489 -17.6251 335.174 -17.308 327.193 -13.8345C318.768 -10.1648 311.17 -3.7012 303.808 2.55097C293.761 11.0986 283.36 19.9332 270.702 21.836C261.805 23.165 256.347 16.7618 250.593 9.96599C246.595 5.25421 242.478 0.376318 237.049 -1.75304C227.976 -5.33218 222.65 -3.29343 217.486 -1.33019C211.88 0.81427 206.583 2.83791 197.466 -3.29344C190.605 -7.89951 185.176 -14.1668 179.924 -20.2377C173.314 -27.8793 166.469 -35.7775 156.717 -40.3987C147.127 -44.9444 134.159 -44.9746 121.618 -45.0048C113.12 -45.0199 105.079 -45.035 98.2043 -46.3941C85.5311 -48.901 72.9907 -53.2353 60.8486 -57.4487C43.4395 -63.4743 25.4403 -69.7114 6.68865 -70.6628C-16.9611 -71.8861 -41.5256 -64.6372 -65.2639 -57.645C-68.9671 -56.5577 -72.7144 -55.4552 -76.4766 -54.383V-55.2287C-72.7882 -56.2858 -69.1293 -57.3581 -65.4852 -58.4303C-43.4436 -64.9241 -20.7085 -71.6142 1.40692 -71.6142C3.19209 -71.6142 4.9625 -71.5689 6.73292 -71.4783C25.6026 -70.5118 43.6608 -64.2596 61.1142 -58.2189C73.2267 -54.0206 85.7377 -49.6863 98.3666 -47.1945C105.168 -45.8505 113.164 -45.8354 121.633 -45.8203C134.262 -45.7901 147.304 -45.775 157.056 -41.1387C166.955 -36.442 173.845 -28.4833 180.529 -20.7814C185.751 -14.7558 191.151 -8.51869 197.908 -3.98813C206.701 1.91669 211.57 0.0440692 217.22 -2.1155C222.266 -4.04853 227.99 -6.2232 237.344 -2.53835C242.95 -0.333475 247.14 4.61994 251.198 9.40723C256.804 16.0369 262.1 22.3042 270.584 21.0054C283.021 19.1328 293.334 10.3737 303.307 1.9016C310.713 -4.39587 318.37 -10.8897 326.898 -14.6198C335.012 -18.1537 341.386 -18.4708 348.762 -18.8484C351.639 -18.9843 354.605 -19.1353 357.865 -19.4977C360.801 -19.8149 363.53 -20.2377 366.127 -20.7361V-19.9055C363.545 -19.3618 360.845 -18.9541 357.939 -18.6369Z" fill="white" fill-opacity="0.3"/>
<path d="M358.213 -14.4063C347.576 -12.6243 336.57 -10.797 325.608 -6.1758C317.022 -2.55136 309.247 3.80654 301.737 9.95299C291.454 18.3798 280.832 27.0785 267.996 28.7699C259.114 29.963 254.025 23.6353 248.669 16.9603C244.922 12.3089 241.056 7.49138 235.715 5.27141C226.937 1.63186 221.567 3.32328 216.359 4.95428C210.62 6.76651 205.191 8.45792 196.25 2.10003C189.714 -2.55134 184.668 -8.78842 179.77 -14.8141C173.589 -22.4405 167.186 -30.3388 157.714 -35.0505C147.947 -39.9133 134.728 -40.1248 121.937 -40.3513C113.645 -40.4872 105.811 -40.6231 99.0837 -41.9672C86.3957 -44.4892 74.0028 -48.5667 62.0083 -52.5083C44.8943 -58.1413 27.1901 -63.9555 8.52699 -65.2694C-15.9342 -66.9759 -41.2954 -59.0172 -65.8304 -51.3303C-69.3565 -50.2279 -72.9121 -49.1104 -76.4824 -48.0079V-48.8536C-72.9859 -49.9259 -69.504 -51.0132 -66.0517 -52.1006C-43.7593 -59.1078 -20.7586 -66.3114 1.68139 -66.3114C3.99768 -66.3114 6.29922 -66.2359 8.60076 -66.0698C27.3672 -64.7559 45.1156 -58.9266 62.2738 -53.2785C74.2389 -49.352 86.617 -45.2745 99.246 -42.7676C105.915 -41.4386 113.719 -41.3027 121.966 -41.1668C134.846 -40.9554 148.154 -40.7289 158.068 -35.7905C167.687 -31.0033 174.149 -23.0446 180.39 -15.3426C185.244 -9.36228 190.26 -3.17053 196.707 1.42043C205.323 7.56689 210.325 5.9812 216.123 4.16898C221.213 2.56818 226.981 0.755963 236.025 4.50122C241.543 6.7816 245.482 11.6897 249.289 16.4166C254.511 22.9104 259.439 29.0568 267.907 27.9393C280.507 26.2781 291.056 17.6398 301.25 9.28851C308.804 3.09675 316.623 -3.30643 325.313 -6.96108C336.349 -11.6125 347.399 -13.4549 358.081 -15.2369C360.751 -15.6749 363.436 -16.1279 366.136 -16.6263V-15.7957C363.48 -15.2822 360.825 -14.8443 358.213 -14.4063Z" fill="white" fill-opacity="0.3"/>
<path d="M357.304 -7.53733C346.372 -5.51368 335.086 -3.42962 323.873 1.31236C315.508 4.8462 307.733 10.9473 300.209 16.8522C289.394 25.3243 278.211 34.0985 265.081 35.4577C253.248 36.696 250.534 31.5312 247.391 25.5659C244.883 20.8089 242.05 15.4326 233.995 11.929C225.512 8.24411 220.097 9.61838 214.845 10.9322C208.958 12.4122 203.396 13.8167 194.648 7.21719C188.392 2.50542 183.701 -3.68635 179.156 -9.68179C173.373 -17.3082 167.398 -25.1914 158.192 -29.9636C148.292 -35.1133 134.852 -35.506 121.869 -35.8835C113.813 -36.1251 106.201 -36.3517 99.6059 -37.6655C87.3605 -40.112 75.4102 -43.9328 63.873 -47.6328C46.7147 -53.1298 28.9663 -58.8232 10.1852 -59.9257C-14.9252 -61.4057 -40.8765 -52.9788 -65.9574 -44.8238C-69.4392 -43.6912 -72.9505 -42.5585 -76.4766 -41.441V-42.3018C-73.039 -43.3891 -69.6015 -44.5067 -66.2082 -45.6091C-43.0157 -53.1449 -19.0856 -60.9224 4.29858 -60.9224C6.27554 -60.9224 8.2525 -60.862 10.2295 -60.7563C29.1139 -59.6387 46.9065 -53.9453 64.1091 -48.4332C75.6463 -44.7332 87.567 -40.9124 99.7682 -38.481C106.304 -37.1823 113.872 -36.9558 121.898 -36.7141C134.97 -36.3215 148.499 -35.9288 158.561 -30.7036C167.929 -25.8408 173.963 -17.8821 179.791 -10.1802C184.305 -4.23002 188.968 1.91643 195.12 6.5678C203.573 12.9408 208.708 11.642 214.653 10.1469C219.773 8.86328 225.586 7.38331 234.305 11.1739C242.611 14.7832 245.517 20.3105 248.085 25.1733C251.212 31.1083 253.691 35.805 264.992 34.6422C277.901 33.3132 288.996 24.6145 299.722 16.2028C307.29 10.2678 315.11 4.13641 323.563 0.55727C334.85 -4.21492 346.18 -6.31407 357.157 -8.33772C360.122 -8.88139 363.117 -9.44017 366.112 -10.0442V-9.21363C363.161 -8.62466 360.226 -8.08099 357.304 -7.53733Z" fill="white" fill-opacity="0.3"/>
<path d="M356.286 -0.709959C345.089 1.52512 333.507 3.82059 322.029 8.66829C313.885 12.1115 306.095 17.9257 298.586 23.5587C287.226 32.0611 275.467 40.8655 261.982 41.8773C249.973 42.7834 247.465 37.6488 244.573 31.7137C242.301 27.0473 239.705 21.7616 231.944 18.1976C223.786 14.4523 218.327 15.5245 213.045 16.5666C206.996 17.7596 201.301 18.8923 192.715 12.0662C186.71 7.30912 182.343 1.13245 178.124 -4.83279C172.739 -12.4441 167.162 -20.3122 158.192 -25.175C148.189 -30.5815 134.601 -31.1251 121.456 -31.6537C113.636 -31.9708 106.245 -32.2578 99.8125 -33.5414C88.0244 -35.8973 76.5463 -39.4765 65.4517 -42.9348C48.2786 -48.296 30.5155 -53.8383 11.6458 -54.7293C-14.0547 -55.9224 -40.5224 -47.0274 -66.1344 -38.4042C-69.5572 -37.2565 -73.0095 -36.0937 -76.4766 -34.9459V-35.8067C-73.098 -36.9242 -69.7195 -38.0569 -66.3852 -39.1744C-42.3076 -47.2841 -17.448 -55.6506 6.8657 -55.6506C8.47383 -55.6506 10.0672 -55.6204 11.6753 -55.5449C30.6335 -54.6538 48.4557 -49.0964 65.673 -43.7201C76.7528 -40.2618 88.2162 -36.6826 99.96 -34.3418C106.348 -33.0733 113.695 -32.7712 121.485 -32.4692C134.719 -31.9406 148.396 -31.397 158.561 -25.8848C167.693 -20.9465 173.329 -12.9878 178.758 -5.30094C182.948 0.618992 187.286 6.75035 193.187 11.4319C201.493 18.0314 206.775 16.9894 212.883 15.7662C218.032 14.7543 223.874 13.5915 232.254 17.4425C240.28 21.1273 242.936 26.5489 245.267 31.3362C248.158 37.2561 250.43 41.9377 261.909 41.0467C275.172 40.05 286.827 31.3211 298.099 22.8792C305.667 17.216 313.472 11.3715 321.719 7.88298C333.271 3.00508 344.882 0.69451 356.124 -1.54057C359.429 -2.20505 362.763 -2.86953 366.127 -3.59442V-2.76381C362.822 -2.02382 359.532 -1.35934 356.286 -0.709959Z" fill="white" fill-opacity="0.3"/>
<path d="M355.121 6.07051C343.658 8.48681 331.811 10.9786 320.067 15.8867C312.115 19.2091 304.34 24.7515 296.83 30.1127C284.895 38.6452 272.546 47.4496 258.692 48.0839C246.506 48.6427 244.16 43.508 241.475 37.5579C239.395 32.9669 237.034 27.7719 229.54 24.1474C221.691 20.3569 216.202 21.1724 210.891 21.9577C204.71 22.8789 198.867 23.7397 190.443 16.7173C184.674 11.8847 180.647 5.72317 176.752 -0.226958C171.514 -8.24604 166.587 -15.8121 157.705 -20.5843C147.746 -25.9454 134.822 -26.5797 122.326 -27.1989C114.241 -27.5915 106.599 -27.9691 99.6797 -29.5246C89.4555 -31.82 79.4232 -34.8706 69.7154 -37.8155C50.713 -43.5995 32.758 -49.0512 12.9146 -49.5798C-13.2285 -50.2896 -39.9028 -41.0171 -65.7213 -32.0617C-69.2769 -30.8233 -72.8767 -29.585 -76.4766 -28.3617V-29.2225C-72.9505 -30.4156 -69.4539 -31.6388 -65.9721 -32.847C-41.024 -41.5003 -15.2645 -50.4406 10.0967 -50.4406C11.0409 -50.4406 11.9851 -50.4255 12.9441 -50.3953C32.8908 -49.8668 51.7309 -44.1281 69.9515 -38.6008C79.6445 -35.6559 89.6621 -32.6053 99.8567 -30.325C106.717 -28.7846 114.33 -28.407 122.37 -28.0144C134.955 -27.3952 147.968 -26.7609 158.089 -21.3091C167.147 -16.4312 172.37 -8.42727 177.43 -0.680018C181.296 5.22481 185.279 11.3411 190.959 16.0831C199.103 22.8789 204.518 22.0785 210.788 21.1573C215.966 20.3871 221.824 19.5263 229.894 23.4226C237.654 27.1678 240.074 32.5139 242.213 37.2257C244.898 43.1456 246.993 47.797 258.678 47.2835C272.31 46.6643 284.555 37.9203 296.387 29.4633C303.926 24.0719 311.731 18.4993 319.772 15.1467C331.589 10.2084 343.466 7.71661 354.959 5.28521C358.647 4.51502 362.38 3.71464 366.127 2.85383V3.68442C362.424 4.53012 358.765 5.30032 355.121 6.07051Z" fill="white" fill-opacity="0.3"/>
<path d="M353.936 12.7298C342.192 15.3273 330.035 18.0155 317.996 22.9689C310.266 26.1403 302.668 31.2598 295.32 36.2132C282.898 44.5796 270.048 53.2481 255.501 53.4746C255.25 53.4746 254.999 53.4746 254.748 53.4746C242.709 53.4746 240.555 48.491 238.077 42.7523C236.174 38.3577 234.034 33.3891 226.85 29.7496C221.037 26.8198 215.047 26.8802 209.263 26.9406C201.916 27.0162 194.318 27.0917 187.487 20.8244C182.073 15.871 178.443 9.87555 174.947 4.09154C170.122 -3.86714 165.564 -11.3879 156.785 -16.2658C146.546 -21.9441 133.136 -22.6387 120.153 -23.3183C112.407 -23.7261 105.089 -24.1036 98.4502 -25.4628C87.7687 -27.6677 77.5298 -30.7635 67.6302 -33.7688C49.867 -39.1451 33.0924 -44.2193 14.0162 -44.5516C-12.4958 -45.0046 -39.6127 -35.2186 -65.8296 -25.7497C-69.3409 -24.4812 -72.8965 -23.1975 -76.4668 -21.9441V-22.8049C-72.9997 -24.0432 -69.5327 -25.2816 -66.0951 -26.5199C-40.4094 -35.7925 -13.8679 -45.3821 12.2015 -45.3821C12.8064 -45.3821 13.4113 -45.3822 14.0309 -45.367C33.2104 -45.0348 50.0441 -39.9455 67.8515 -34.539C77.7363 -31.5489 87.9605 -28.453 98.6125 -26.2481C105.193 -24.8889 112.481 -24.5114 120.197 -24.1187C133.268 -23.4391 146.783 -22.7445 157.169 -16.9756C166.139 -11.9919 170.757 -4.3806 175.64 3.66869C179.122 9.40739 182.707 15.3424 188.033 20.2203C194.643 26.2762 201.754 26.2007 209.263 26.1252C215.15 26.0647 221.228 26.0043 227.204 29.0247C234.654 32.7851 236.867 37.9046 238.815 42.42C241.278 48.1286 243.241 52.6591 254.748 52.6591C254.999 52.6591 255.25 52.6591 255.515 52.6591C269.826 52.4175 282.573 43.8245 294.907 35.5185C302.284 30.55 309.911 25.4154 317.716 22.1987C329.814 17.2302 342 14.5269 353.788 11.9294C357.875 11.0233 361.991 10.1172 366.137 9.10537V9.93595C362.035 10.9327 357.963 11.8388 353.936 12.7298Z" fill="white" fill-opacity="0.3"/>
<path d="M352.696 19.3285C340.583 22.1375 328.057 25.0521 315.856 29.93C308.258 32.9655 300.822 37.5263 293.608 41.9511C280.758 49.8343 267.465 57.9893 252.431 58.1554C252.239 58.1554 252.048 58.1554 251.856 58.1554C239.168 58.1554 237.058 53.2473 234.609 47.569C232.809 43.3858 230.758 38.6438 223.898 35.0496C218.1 32.0141 212.036 31.7423 206.179 31.4704C198.684 31.1231 190.939 30.7606 183.975 24.5387C178.384 19.54 175.123 13.4539 171.966 7.5793C167.864 -0.0622354 163.999 -7.26581 155.457 -12.1135C144.878 -18.1089 131.04 -18.7583 117.644 -19.3624C110.016 -19.7097 102.831 -20.042 96.251 -21.3105C85.4368 -23.3946 75.2864 -26.5207 65.4753 -29.5561C48.9367 -34.6606 33.3128 -39.4931 14.93 -39.5536C14.7972 -39.5536 14.6644 -39.5536 14.5316 -39.5536C-12.2901 -39.5536 -39.584 -29.3145 -65.978 -19.4077C-69.4598 -18.1089 -72.9711 -16.78 -76.4824 -15.4812V-16.342C-73.0449 -17.6106 -69.6368 -18.8942 -66.2435 -20.1628C-39.7906 -30.0847 -12.4377 -40.354 14.5316 -40.354C14.6644 -40.354 14.7972 -40.354 14.93 -40.354C33.4161 -40.2935 49.099 -35.4459 65.6966 -30.3112C75.4782 -27.2909 85.5991 -24.1648 96.3838 -22.0958C102.905 -20.8424 110.075 -20.5101 117.658 -20.1628C131.143 -19.5436 145.07 -18.8942 155.811 -12.8082C164.56 -7.83969 168.661 -0.183036 172.644 7.21687C175.757 13.0311 178.988 19.0416 184.477 23.9497C191.234 29.9904 198.507 30.3378 206.194 30.6851C212.139 30.957 218.277 31.2439 224.237 34.3549C231.348 38.0699 233.458 42.9629 235.317 47.267C237.781 52.9906 239.684 57.5211 252.402 57.3701C267.214 57.204 280.418 49.1094 293.18 41.2866C300.409 36.8467 307.889 32.2708 315.546 29.2051C327.807 24.297 340.362 21.3824 352.504 18.5735C357.004 17.5314 361.548 16.4743 366.121 15.2963V16.1421C361.621 17.2445 357.136 18.2865 352.696 19.3285Z" fill="white" fill-opacity="0.3"/>
<path d="M352.297 25.4897C339.609 28.5403 326.479 31.6966 313.614 36.7859C306.635 39.5344 299.509 43.4307 292.62 47.2062C278.737 54.7873 264.381 62.6252 249.215 62.6554C249.171 62.6554 249.141 62.6554 249.097 62.6554C235.465 62.6554 233.34 57.7473 230.891 52.069C229.18 48.0821 227.232 43.5666 220.682 40.0781C215.016 37.0728 208.864 36.4537 202.904 35.8647C195.099 35.0794 187.044 34.279 180.183 28.057C174.71 23.0885 171.774 16.9722 168.927 11.0674C165.312 3.57689 161.904 -3.50587 153.73 -8.17235C142.96 -14.3188 128.679 -14.9229 114.855 -15.5119C107.36 -15.829 100.264 -16.131 93.802 -17.2788C82.9877 -19.1816 72.9553 -22.3379 63.2476 -25.3734C47.7122 -30.2362 33.0472 -34.8121 15.7119 -34.661C-11.6852 -34.3741 -39.3775 -23.5763 -66.1698 -13.1258C-69.5778 -11.7968 -73.0154 -10.4527 -76.4824 -9.12378V-9.99969C-73.1186 -11.2833 -69.7844 -12.5972 -66.4648 -13.8809C-39.6135 -24.3615 -11.8475 -35.1896 15.6824 -35.4765C16.0217 -35.4765 16.3463 -35.4765 16.6857 -35.4765C33.6964 -35.4765 48.1695 -30.946 63.4689 -26.1587C73.1471 -23.1232 83.1647 -19.982 93.92 -18.0943C100.338 -16.9616 107.39 -16.6596 114.87 -16.3425C128.782 -15.7535 143.167 -15.1343 154.099 -8.89726C162.494 -4.09486 165.961 3.09363 169.635 10.6899C172.438 16.5192 175.359 22.5599 180.715 27.4227C187.368 33.4786 194.952 34.2337 202.978 35.0341C209.012 35.6382 215.252 36.2573 221.051 39.3381C227.852 42.9475 229.858 47.6139 231.629 51.7216C234.063 57.3546 235.981 61.8248 249.097 61.8248C249.141 61.8248 249.171 61.8248 249.215 61.8248C264.19 61.7946 278.441 54.002 292.236 46.4662C299.155 42.6907 306.296 38.7793 313.319 36.0157C326.243 30.9113 339.388 27.755 352.105 24.6893C356.738 23.5718 361.415 22.4391 366.121 21.2159V22.0616C361.489 23.2697 356.871 24.3873 352.297 25.4897Z" fill="white" fill-opacity="0.3"/>
<path d="M350.748 31.5173C337.942 34.5075 324.708 37.6034 311.843 42.3907C305.219 44.8523 298.447 48.3559 291.292 52.0559C276.568 59.6672 261.357 67.5655 245.91 66.9916C231.496 66.4782 229.416 61.7513 227.026 56.2844C225.373 52.524 223.514 48.2502 217.082 44.6408C211.343 41.409 205.058 40.5935 198.965 39.7931C191.116 38.7662 183.016 37.7091 176.2 31.4418C170.8 26.4733 168.115 20.3571 165.519 14.4522C162.288 7.09761 159.234 0.150763 151.34 -4.48551C140.467 -10.8736 125.817 -11.3418 111.639 -11.7948C104.321 -12.0214 97.4018 -12.2479 91.1168 -13.2597C80.4501 -14.9662 70.521 -17.9715 60.9018 -20.871C45.7647 -25.4318 31.4539 -29.7509 14.7677 -29.3583C-12.6295 -28.724 -40.2184 -17.5033 -66.9074 -6.64509C-70.0794 -5.36143 -73.2662 -4.06267 -76.4824 -2.77901V-3.65493C-73.3694 -4.90838 -70.2712 -6.16182 -67.2025 -7.41528C-40.4545 -18.2886 -12.7918 -29.5395 14.7382 -30.1889C15.4464 -30.204 16.1545 -30.2191 16.8627 -30.2191C32.7817 -30.2191 46.5614 -26.0661 61.1083 -21.6714C70.6981 -18.787 80.6124 -15.7968 91.2201 -14.0903C97.4461 -13.0936 104.351 -12.8671 111.639 -12.6405C125.905 -12.1875 140.674 -11.7193 151.709 -5.22551C159.824 -0.45332 162.922 6.61436 166.212 14.0898C168.779 19.9191 171.42 25.9598 176.702 30.8075C183.326 36.9087 190.953 37.9054 199.038 38.9626C205.191 39.763 211.564 40.5936 217.436 43.9009C224.104 47.6461 226.022 52.0408 227.734 55.937C230.109 61.3737 231.998 65.6626 245.925 66.161C246.426 66.1761 246.928 66.1912 247.43 66.1912C262.139 66.1912 276.76 58.6403 290.923 51.3159C298.108 47.6008 304.894 44.0972 311.563 41.6054C324.472 36.803 337.736 33.7071 350.556 30.7018C355.705 29.4937 360.899 28.2855 366.121 26.9566V27.8023C360.972 29.1312 355.838 30.3243 350.748 31.5173Z" fill="white" fill-opacity="0.3"/>
<path d="M349.945 37.044C336.873 39.9134 323.344 42.8733 310.184 47.5247C303.456 49.9108 296.581 53.2634 289.308 56.7972C274.082 64.2123 258.37 71.8991 242.525 71.1591C227.594 70.4644 225.514 65.8131 223.08 60.4217C221.427 56.7368 219.554 52.5687 213.195 48.8537C207.412 45.4708 201.023 44.459 194.842 43.4925C186.948 42.2542 178.775 40.9705 171.989 34.673C166.648 29.7045 164.184 23.5882 161.809 17.6683C158.902 10.4345 156.158 3.59336 148.501 -1.01271C137.583 -7.58202 122.638 -7.88404 108.195 -8.17098C101.039 -8.30689 94.2968 -8.44282 88.2036 -9.33383C77.6844 -10.8591 67.8881 -13.6681 58.4017 -16.3713C43.5597 -20.63 29.5292 -24.6471 13.1676 -24.0128C-14.1411 -22.9557 -41.4792 -11.3575 -67.9026 -0.15189C-70.7501 1.05626 -73.627 2.26441 -76.5039 3.48766V2.61175C-73.7303 1.44891 -70.9566 0.270954 -68.2125 -0.89189C-41.7153 -12.1428 -14.3181 -23.7712 13.1381 -24.8132C14.3036 -24.8585 15.4396 -24.8736 16.5756 -24.8736C31.6094 -24.8736 44.7547 -21.0982 58.6082 -17.1415C68.0652 -14.4383 77.832 -11.6293 88.3069 -10.1191C94.3558 -9.24322 101.083 -9.10729 108.209 -8.97137C122.771 -8.68444 137.819 -8.38241 148.899 -1.70738C156.792 3.04971 159.714 10.3288 162.546 17.3663C164.892 23.1956 167.312 29.2363 172.52 34.0689C179.129 40.2154 186.816 41.4084 194.945 42.6921C201.2 43.6737 207.662 44.6855 213.564 48.159C220.144 52.0251 222.062 56.314 223.773 60.1046C226.178 65.4657 228.081 69.6942 242.525 70.3738C258.149 71.0836 273.787 63.4723 288.924 56.0875C296.213 52.5385 303.102 49.1708 309.874 46.7696C323.079 42.088 336.622 39.1281 349.723 36.2587C355.123 35.0808 360.597 33.8726 366.07 32.5437V33.3894C360.7 34.673 355.285 35.8661 349.945 37.044Z" fill="white" fill-opacity="0.3"/>
<path d="M349.057 42.5264C335.705 45.2448 321.911 48.0688 308.471 52.5692C301.625 54.8647 294.647 58.0663 287.255 61.4642C271.557 68.6829 255.314 76.1432 239.115 75.2069C223.668 74.3159 221.632 69.9363 219.065 64.3788C217.398 60.7846 215.494 56.692 209.195 52.8561C203.367 49.3072 196.89 48.1443 190.605 47.0117C182.668 45.577 174.45 44.1121 167.678 37.7845C162.367 32.816 160.125 26.6997 157.956 20.7798C155.344 13.6517 152.881 6.93137 145.415 2.3404C134.439 -4.39503 119.184 -4.50073 104.416 -4.60644C97.5109 -4.65174 90.9899 -4.69706 85.1476 -5.42195C74.7169 -6.72071 64.9206 -9.34842 55.4636 -11.9006C40.9462 -15.7969 27.2402 -19.4818 11.4983 -18.7116C-15.5595 -17.3826 -42.6469 -5.34644 -68.8343 6.28199C-71.3719 7.41463 -73.9242 8.53217 -76.4766 9.66481V8.77381C-74.0275 7.68647 -71.5784 6.61423 -69.1441 5.52689C-42.8829 -6.13174 -15.7366 -18.1981 11.4688 -19.5422C12.9146 -19.6177 14.331 -19.6479 15.7325 -19.6479C29.8221 -19.6479 42.4068 -16.2651 55.6701 -12.701C65.1124 -10.1639 74.8644 -7.53622 85.2508 -6.25256C91.0489 -5.52767 97.5552 -5.48235 104.43 -5.43705C119.302 -5.33133 134.675 -5.22563 145.829 1.63061C153.53 6.35749 156.156 13.5309 158.708 20.4777C160.848 26.3071 163.061 32.3327 168.224 37.1653C174.819 43.3268 182.565 44.7162 190.753 46.1962C197.097 47.3288 203.662 48.5219 209.608 52.1312C216.114 56.0879 218.061 60.3013 219.788 64.0013C222.251 69.302 224.199 73.5004 239.174 74.3612C255.137 75.2824 271.321 67.8674 286.945 60.694C294.352 57.2961 301.359 54.0794 308.235 51.7688C321.734 47.2533 335.558 44.4293 348.925 41.6958C354.619 40.533 360.359 39.3551 366.142 38.0412V38.8718C360.403 40.2159 354.708 41.3787 349.057 42.5264Z" fill="white" fill-opacity="0.3"/>
<path d="M349.795 47.4336C335.646 50.0613 321.026 52.7646 306.715 57.5368C300.297 59.6812 293.643 62.5355 286.576 65.571C269.743 72.8047 252.319 80.2802 235.647 79.1324C219.684 78.03 217.574 73.6655 214.919 68.1534C213.207 64.6195 211.275 60.6024 205.019 56.676C199.147 52.9911 192.567 51.6772 186.194 50.4087C178.212 48.823 169.965 47.1769 163.208 40.8341C157.912 35.8656 155.846 29.7342 153.869 23.8143C151.523 16.7919 149.295 10.1622 142.007 5.61657C131.031 -1.23967 115.584 -1.11886 100.653 -1.01314C93.911 -0.967838 87.5523 -0.907425 81.887 -1.5266C71.6038 -2.62904 61.9846 -5.07554 52.6899 -7.43143C38.4971 -11.0257 25.0862 -14.4387 9.69835 -13.4269C-17.2119 -11.66 -43.96 0.75379 -69.8228 12.7598C-72.0358 13.7867 -74.2488 14.8136 -76.4766 15.8405V14.9495C-74.3668 13.9679 -72.2423 13.0014 -70.1473 12.0198C-44.2108 -0.0164133 -17.4037 -12.4603 9.65409 -14.2424C11.5425 -14.3632 13.4015 -14.4236 15.2309 -14.4236C28.45 -14.4236 40.3708 -11.4032 52.8817 -8.21671C62.1616 -5.86082 71.7514 -3.42943 81.9755 -2.327C87.5966 -1.72292 93.9406 -1.76823 100.653 -1.81354C115.702 -1.93436 131.267 -2.04007 142.435 4.93699C149.959 9.64877 152.335 16.7164 154.621 23.5727C156.569 29.402 158.59 35.4276 163.739 40.2602C170.349 46.452 178.109 47.9924 186.341 49.6385C192.774 50.9222 199.442 52.2511 205.432 56.0115C211.88 60.0588 213.871 64.1816 215.627 67.8211C218.179 73.1068 220.186 77.2749 235.692 78.3471C252.171 79.4949 269.507 72.0497 286.252 64.8461C293.319 61.8106 300.002 58.9412 306.449 56.7968C320.804 52.0095 335.455 49.2912 349.633 46.6634C355.077 45.6516 360.58 44.6247 366.097 43.4769V44.3226C360.653 45.4251 355.195 46.4369 349.795 47.4336Z" fill="white" fill-opacity="0.3"/>
<path d="M348.828 52.8863C334.429 55.3328 319.557 57.8699 304.951 62.4458C298.416 64.4996 291.614 67.233 284.429 70.1477C267.138 77.1399 249.242 84.3586 232.217 82.9692C215.723 81.6251 213.539 77.2758 210.765 71.7787C209.01 68.2902 207.018 64.3335 200.792 60.3164C194.876 56.5107 188.178 55.0609 181.701 53.6716C173.675 51.95 165.369 50.1679 158.671 43.8101C151.958 37.4522 151.043 32.0759 150.158 26.8658C149.155 20.9458 148.196 15.3581 138.4 8.80394C127.379 1.44933 111.873 1.94771 96.8687 2.44607C90.2739 2.65749 84.048 2.86892 78.5154 2.37056C68.4093 1.46444 58.9523 -0.800826 49.8052 -2.97549C35.9369 -6.2828 22.8359 -9.40889 7.78736 -8.17054C-18.9459 -5.95056 -45.3251 6.84071 -70.8338 19.2242C-72.7075 20.1303 -74.5959 21.0516 -76.4844 21.9577V21.0516C-74.714 20.1908 -72.9435 19.3299 -71.1731 18.4842C-45.5906 6.07051 -19.1377 -6.76608 7.72834 -8.98605C10.0741 -9.18237 12.3609 -9.27299 14.6182 -9.27299C26.9816 -9.27299 38.209 -6.58486 49.997 -3.77591C59.1146 -1.60125 68.5421 0.648953 78.5892 1.55506C84.0775 2.05343 90.2739 1.84198 96.8392 1.63056C111.253 1.1624 127.6 0.618744 138.828 8.10927C148.919 14.8447 149.907 20.6136 150.94 26.7148C151.796 31.7739 152.696 37.0142 159.202 43.1909C165.738 49.3826 173.557 51.0741 181.849 52.841C188.399 54.2454 195.171 55.6952 201.205 59.5915C207.608 63.7143 209.659 67.7767 211.474 71.371C214.129 76.6415 216.239 80.8096 232.291 82.1235C249.154 83.4977 266.932 76.3093 284.149 69.3624C291.349 66.4477 298.15 63.6992 304.73 61.6454C319.38 57.0544 334.296 54.5173 348.71 52.0708C354.464 51.0892 360.292 50.0924 366.149 48.9749V49.8055C360.321 50.923 354.553 51.9047 348.828 52.8863Z" fill="white" fill-opacity="0.3"/>
<path d="M345.561 58.9863C331.678 61.161 317.323 63.4112 303.144 67.2773C295.635 69.316 288.052 72.0041 280.011 74.8433C263 80.8538 245.444 87.0758 228.817 86.6982C217.943 86.4415 212.632 80.3404 207.011 73.8768C203.928 70.3278 200.726 66.6581 196.448 63.7887C190.531 59.832 183.701 58.2765 177.106 56.7815C169.036 54.9541 160.7 53.0664 154.031 46.7387C147.274 40.3355 146.492 34.9442 145.725 29.734C144.869 23.9047 144.073 18.3926 134.542 11.9592C123.565 4.55926 107.292 5.37475 92.9226 6.06943C86.4753 6.38657 80.3969 6.68862 74.9971 6.29597C65.0533 5.57108 55.7881 3.50212 46.818 1.49357C33.2891 -1.5419 20.4979 -4.39615 5.80344 -2.91617C-20.7233 -0.243141 -46.7041 12.9408 -71.844 25.6867C-73.3783 26.472 -74.9275 27.2573 -76.4766 28.0275V27.1214C-75.0455 26.3965 -73.6144 25.6716 -72.1981 24.9468C-46.9992 12.1555 -20.9446 -1.05865 5.71491 -3.74678C8.50332 -4.03371 11.218 -4.15453 13.8736 -4.15453C25.3813 -4.15453 35.93 -1.79862 46.9656 0.67808C55.9062 2.68663 65.1566 4.75558 75.0414 5.46537C80.3821 5.85801 86.4458 5.55596 92.8636 5.23882C107.351 4.52904 123.757 3.71354 134.955 11.2645C144.796 17.8942 145.622 23.5725 146.492 29.5981C147.23 34.6723 147.997 39.9127 154.548 46.1196C161.054 52.2811 168.918 54.0782 177.253 55.966C183.922 57.4761 190.826 59.0467 196.861 63.0789C201.228 65.9936 204.459 69.7087 207.572 73.3029C213.075 79.6306 218.283 85.6109 228.802 85.8525C245.281 86.2452 262.794 80.0383 279.716 74.0429C287.757 71.2037 295.355 68.5156 302.908 66.4618C317.131 62.5957 331.515 60.3304 345.413 58.1557C352.244 57.0835 359.149 55.9962 366.097 54.7125V55.5431C359.222 56.8419 352.347 57.9141 345.561 58.9863Z" fill="white" fill-opacity="0.3"/>
<path d="M344.442 64.3326C330.337 66.3261 315.746 68.3799 301.317 72.0346C293.66 73.9676 285.944 76.5349 277.756 79.2382C260.347 85.0071 242.318 90.9723 225.396 90.338C214.272 89.9152 208.636 83.6932 202.661 77.0937C199.504 73.6052 196.243 70.0109 192.024 67.1114C186.063 63.0339 179.144 61.4029 172.446 59.8172C164.361 57.8992 155.981 55.9209 149.327 49.6385C142.511 43.2202 141.832 37.8138 141.169 32.5885C140.446 26.8347 139.752 21.383 130.458 15.0855C119.54 7.68557 103.237 8.77292 88.8675 9.73943C82.553 10.1623 76.5927 10.5549 71.3404 10.268C61.5736 9.73942 52.4855 7.83658 43.6925 5.99416C30.5029 3.23052 18.0362 0.633003 3.69586 2.33951C-22.58 5.4807 -48.1478 19.0422 -72.8893 32.1506C-74.0843 32.7849 -75.2941 33.4342 -76.5039 34.0685V33.1473C-75.4122 32.5734 -74.3351 31.9996 -73.2581 31.4257C-48.4576 18.272 -22.8308 4.68031 3.59258 1.52402C6.80883 1.14648 9.93657 0.965261 12.9905 0.965261C23.672 0.965261 33.5273 3.0342 43.84 5.17867C52.6035 7.00599 61.6622 8.90881 71.3699 9.43738C76.5779 9.72431 82.5088 9.31658 88.7938 8.90883C103.296 7.94231 119.732 6.83987 130.871 14.3908C140.46 20.8997 141.169 26.5176 141.921 32.4677C142.555 37.557 143.219 42.7974 149.814 49.0344C156.32 55.1809 164.582 57.129 172.579 59.0168C179.35 60.6176 186.358 62.2788 192.422 66.4318C196.715 69.3766 200.005 73.0162 203.192 76.5349C209.049 82.9985 214.567 89.1148 225.366 89.5225C242.156 90.1568 260.111 84.2067 277.446 78.4529C285.28 75.8553 293.38 73.1672 301.052 71.2342C315.525 67.5795 330.131 65.5106 344.264 63.5171C351.449 62.5053 358.738 61.4784 366.055 60.2249V61.0555C358.841 62.309 351.597 63.3359 344.442 64.3326Z" fill="white" fill-opacity="0.3"/>
<path d="M343.303 69.6652C328.978 71.4623 314.165 73.3198 299.5 76.7479C291.681 78.5753 283.803 81.0218 275.467 83.6042C257.689 89.1164 239.321 94.84 222.045 93.9339C210.655 93.3449 204.68 86.9719 198.351 80.2214C195.135 76.7933 191.8 73.2443 187.625 70.3297C181.62 66.1464 174.598 64.4399 167.796 62.7787C159.682 60.8004 151.302 58.7616 144.633 52.5246C137.758 46.0912 137.153 40.6545 136.563 35.4141C135.929 29.7207 135.339 24.3445 126.265 18.1678C115.422 10.7981 99.1633 12.1875 84.8229 13.4107C78.6413 13.9393 72.7841 14.4377 67.6647 14.2564C58.0602 13.9091 49.1638 12.1875 40.5478 10.5263C27.7418 8.04956 15.6588 5.72389 1.56921 7.56632C-24.5887 10.9944 -49.9056 25.0996 -74.3963 38.7517C-75.0897 39.1443 -75.7832 39.5219 -76.4766 39.9145V38.9782C-75.9159 38.661 -75.3405 38.3439 -74.7799 38.0268C-50.2302 24.3445 -24.8395 10.194 1.46594 6.7508C5.05103 6.28265 8.50333 6.07123 11.8819 6.07123C21.87 6.07123 31.0761 7.85325 40.6954 9.71078C49.2671 11.372 58.134 13.0785 67.6942 13.4258C72.7694 13.6071 78.597 13.1087 84.7639 12.5952C99.2371 11.3569 115.628 9.96751 126.708 17.4882C136.091 23.8612 136.711 29.4187 137.36 35.3084C137.921 40.4129 138.511 45.6834 145.165 51.9054C151.686 58.0065 159.962 60.0151 167.973 61.9632C174.834 63.6395 181.945 65.3611 188.068 69.635C192.317 72.5949 195.68 76.1741 198.926 79.6324C205.137 86.2621 211.024 92.5143 222.089 93.0882C239.188 93.9943 257.512 88.2858 275.231 82.7887C283.213 80.312 291.475 77.7447 299.323 75.9173C314.033 72.4741 328.875 70.6166 343.215 68.8195C350.769 67.8681 358.426 66.9166 366.127 65.7085V66.5391C358.455 67.7623 350.828 68.7289 343.303 69.6652Z" fill="white" fill-opacity="0.3"/>
<path d="M342.145 74.9796C327.613 76.5804 312.594 78.2265 297.693 81.4432C289.711 83.1648 281.287 85.6113 273.128 87.9823C255.026 93.2528 236.304 98.6895 218.762 97.5267C207.106 96.7414 200.762 90.2174 194.05 83.3158C190.76 79.933 187.352 76.4143 183.176 73.4845C177.127 69.2258 170.002 67.4589 163.112 65.7523C154.997 63.7438 146.603 61.6597 139.919 55.4831C132.956 49.0497 132.41 43.5979 131.879 38.3274C131.318 32.6793 130.787 27.3634 121.891 21.3378C111.121 14.0436 94.9655 15.735 80.7137 17.2301C74.6352 17.8643 68.8961 18.4835 63.88 18.3778C54.4525 18.2117 45.748 16.6562 37.3238 15.146C24.8718 12.926 13.0986 10.8118 -0.651632 12.8958C-26.5144 16.7921 -51.374 31.2748 -75.4074 45.2742C-75.7615 45.4857 -76.1303 45.6971 -76.4844 45.9085V44.9722C-76.2483 44.8363 -76.027 44.7004 -75.791 44.5644C-51.6838 30.5348 -26.7652 16.0068 -0.754906 12.0803C3.27279 11.4762 7.10868 11.2195 10.8561 11.2195C20.0327 11.2195 28.575 12.7448 37.4713 14.3305C45.866 15.8256 54.5263 17.3811 63.9095 17.5472C68.8814 17.6378 74.591 17.0337 80.6547 16.3995C95.0393 14.8893 111.342 13.1828 122.363 20.6431C131.569 26.8651 132.115 32.3923 132.69 38.2217C133.206 43.3412 133.738 48.6268 140.465 54.8639C147.001 60.9046 155.292 62.9585 163.318 64.9519C170.282 66.6736 177.467 68.4707 183.648 72.8049C187.883 75.78 191.306 79.3138 194.625 82.7268C201.22 89.5227 207.461 95.941 218.821 96.6961C236.215 97.8589 254.863 92.4373 272.907 87.1819C281.066 84.8109 289.505 82.3493 297.516 80.6277C312.461 77.411 327.495 75.7649 342.042 74.1641C349.979 73.2882 358.02 72.3972 366.104 71.2494V72.08C358.064 73.2127 350.053 74.1037 342.145 74.9796Z" fill="white" fill-opacity="0.3"/>
<path d="M340.979 80.2495C326.255 81.6389 311.03 83.0886 295.908 86.0637C287.734 87.6796 279.118 90.0204 270.782 92.3008C252.385 97.3146 233.368 102.495 215.59 101.045C203.669 100.063 196.956 93.3881 189.845 86.3204C186.466 82.9527 182.97 79.4793 178.795 76.5344C172.672 72.2002 165.457 70.4031 158.479 68.6513C150.365 66.6276 141.955 64.5134 135.257 58.4273C128.235 52.0392 127.777 46.4515 127.335 41.0602C126.862 35.3668 126.435 29.9905 117.45 24.4934C106.045 17.5164 91.5279 19.3135 77.4974 21.0502C71.36 21.8053 65.5471 22.5302 60.0736 22.5302C50.8232 22.5302 42.3104 21.1257 34.078 19.7665C21.9654 17.758 10.5315 15.8703 -2.90891 18.1658C-28.4619 22.5453 -52.8346 37.3753 -76.3959 51.7221C-76.4254 51.7372 -76.4549 51.7523 -76.4844 51.7825V50.8311C-52.9526 36.5145 -28.6242 21.7449 -3.04169 17.3654C1.38435 16.6103 5.60383 16.2931 9.69054 16.2931C18.1148 16.2931 25.9931 17.5919 34.196 18.9511C42.399 20.3102 50.8674 21.7147 60.0736 21.7147C65.5176 21.7147 71.2862 21.0049 77.4089 20.2498C91.5722 18.498 106.222 16.6858 117.863 23.8138C127.202 29.5223 127.659 35.11 128.131 41.0149C128.559 46.2552 129.002 51.6768 135.788 57.8534C142.354 63.8187 150.645 65.8876 158.671 67.8962C165.723 69.6631 172.997 71.4753 179.237 75.9002C183.471 78.8903 186.983 82.394 190.391 85.7768C197.384 92.7387 203.994 99.3231 215.634 100.275C233.279 101.709 252.223 96.5595 270.546 91.5608C278.897 89.2804 287.528 86.9245 295.73 85.3237C310.897 82.3335 326.137 80.8989 340.876 79.4944C349.197 78.7091 357.621 77.9087 366.104 76.8214V77.6369C357.666 78.6638 349.271 79.4642 340.979 80.2495Z" fill="white" fill-opacity="0.3"/>
<path d="M341.4 85.1881C325.968 86.3963 310.005 87.6347 294.145 90.6701C286.222 92.1803 277.99 94.5362 269.256 97.0129C249.767 102.57 229.613 108.309 212.47 104.549C200.165 101.846 194.013 96.2578 186.873 89.7791C183.243 86.4718 179.481 83.0588 174.465 79.5099C168.268 75.1152 160.966 73.303 153.913 71.5361C145.799 69.5124 137.404 67.4133 130.662 61.4027C123.521 55.0448 123.064 49.4118 122.621 43.9601C122.164 38.2969 121.721 32.9659 112.914 27.6501C101.362 20.673 86.6081 22.8326 72.3563 24.9317C66.6614 25.7623 61.2764 26.5627 56.2455 26.7288C47.4229 27.0611 38.7479 25.7774 30.3679 24.5542C18.934 22.8779 7.13126 21.1563 -5.20263 23.4215C-29.9589 28.0276 -53.6087 42.9482 -76.4766 57.5366V56.5701C-53.6677 42.0421 -30.1065 27.2121 -5.35016 22.6513C-1.05691 21.8509 3.17734 21.5489 7.33781 21.5489C15.2457 21.5489 22.947 22.6815 30.4712 23.7689C38.8217 24.9921 47.4525 26.2607 56.216 25.9436C61.2027 25.7623 66.5729 24.977 72.2383 24.1464C86.6229 22.0322 101.509 19.8575 113.312 26.9705C122.474 32.4978 122.931 38.0401 123.418 43.9148C123.846 49.2004 124.303 54.6673 131.193 60.7986C137.788 66.6733 146.079 68.7422 154.105 70.7508C161.231 72.5328 168.608 74.3752 174.922 78.8454C179.983 82.4245 183.922 86.0037 187.418 89.175C194.766 95.835 200.564 101.106 212.647 103.748C229.613 107.463 249.663 101.755 269.049 96.2276C277.783 93.7358 286.045 91.3799 293.997 89.8697C309.902 86.8192 325.88 85.5808 341.341 84.3727C349.515 83.7384 357.791 83.089 366.127 82.1678V82.9833C357.806 83.9045 349.559 84.5539 341.4 85.1881Z" fill="white" fill-opacity="0.3"/>
<path d="M340.308 90.4437C324.67 91.4405 308.515 92.4674 292.433 95.2763C284.349 96.6808 275.924 98.931 266.999 101.317C247.273 106.588 226.869 112.054 209.549 108.083C197.023 105.213 190.443 99.4142 182.83 92.709C179.083 89.4168 175.217 86.0038 170.216 82.4851C163.931 78.0602 156.554 76.2329 149.428 74.4811C141.329 72.4876 132.949 70.4187 126.162 64.5138C118.889 58.1862 118.387 52.2511 117.93 47.0108C117.443 41.3778 116.985 36.0619 108.325 30.9575C96.8912 24.1919 82.3886 26.6384 68.3581 29.0094C62.7222 29.9608 57.3962 30.8518 52.4243 31.1236C43.8083 31.5918 35.3251 30.4591 27.1369 29.3567C16.0128 27.8616 4.50513 26.3212 -7.51893 28.7828C-31.5818 33.7513 -54.4054 48.6267 -76.4766 63.3208V62.3543C-54.4792 47.7206 -31.7294 32.951 -7.69598 28.0126C4.44611 25.5208 16.0276 27.0763 27.2107 28.5714C35.3693 29.6587 43.7936 30.7914 52.3506 30.3383C57.2782 30.0665 62.5895 29.1755 68.1958 28.2241C75.4397 27.0008 82.8017 25.7625 89.8391 25.7625C96.5667 25.7625 102.984 26.8951 108.694 30.2779C117.708 35.6089 118.195 41.1211 118.697 46.9655C119.154 52.2964 119.641 57.8086 126.649 63.9098C133.288 69.6787 141.579 71.7325 149.591 73.7109C156.79 75.4929 164.241 77.3202 170.644 81.8357C175.689 85.3846 179.57 88.7976 183.332 92.1049C190.871 98.7346 197.377 104.473 209.711 107.297C226.84 111.224 247.155 105.787 266.792 100.532C275.733 98.1457 284.172 95.8804 292.286 94.4759C308.411 91.667 324.596 90.6401 340.249 89.6433C348.777 89.0997 357.408 88.5409 366.112 87.6952V88.5107C357.437 89.3564 348.806 89.9152 340.308 90.4437Z" fill="white" fill-opacity="0.3"/>
<path d="M338.966 95.7601C323.224 96.5303 306.951 97.3156 290.766 99.8527C282.49 101.151 273.874 103.326 264.741 105.622C244.824 110.635 224.214 115.8 206.79 111.647C194.087 108.612 187.094 102.631 178.994 95.6997C175.129 92.3924 171.131 88.9643 166.085 85.4607C159.682 81.0056 152.246 79.2085 145.046 77.4718C136.962 75.5236 128.611 73.5 121.78 67.7311C114.374 61.4638 113.784 55.4684 113.282 50.1676C112.722 44.3232 112.235 39.2641 103.693 34.356C92.3767 27.8471 78.1543 30.5654 64.4041 33.2082C58.8126 34.2804 53.5308 35.2923 48.5884 35.6547C40.1642 36.2739 31.8875 35.247 23.8912 34.2653C13.0474 32.9364 1.84951 31.5621 -9.86473 34.22C-33.2194 39.4906 -55.2021 54.3055 -76.4766 69.06V68.0633C-55.2759 53.3692 -33.367 38.6751 -10.0565 33.3894C1.79049 30.7013 13.0769 32.0907 23.9649 33.4347C31.9318 34.4164 40.1642 35.4282 48.5147 34.8241C53.4128 34.4768 58.665 33.4649 64.2418 32.3927C71.7218 30.958 79.3494 29.4932 86.5933 29.4932C92.7898 29.4932 98.7207 30.5654 104.061 33.6311C112.958 38.7506 113.489 44.2477 114.049 50.077C114.566 55.4683 115.112 61.0258 122.267 67.0817C128.965 72.7449 137.227 74.7383 145.209 76.6563C152.482 78.4081 160.006 80.2203 166.513 84.766C171.588 88.2998 175.601 91.7279 179.481 95.0503C187.492 101.907 194.426 107.827 206.937 110.817C224.184 114.939 244.691 109.79 264.52 104.806C273.667 102.511 282.313 100.336 290.619 99.0372C306.848 96.485 323.15 95.6997 338.907 94.9295C347.862 94.4916 356.95 94.0536 366.112 93.2834V94.0989C356.98 94.8842 347.906 95.3222 338.966 95.7601Z" fill="white" fill-opacity="0.3"/>
<path d="M337.918 100.984C321.999 101.543 305.549 102.117 289.143 104.427C280.852 105.59 272.325 107.342 263.31 109.2C243.319 113.307 222.635 117.566 204.223 115.225C191.712 113.639 183.376 106.3 174.568 98.5376C170.629 95.0642 166.557 91.4851 162.072 88.4194C155.521 83.9644 148.027 82.2125 140.783 80.5211C132.742 78.6334 124.421 76.6853 117.517 71.0372C109.948 64.8303 109.269 58.7744 108.679 53.4284C108.03 47.584 107.469 42.5399 99.0452 37.8433C87.8769 31.6062 73.9791 34.5964 60.5387 37.4959C54.9767 38.689 49.7097 39.8367 44.7968 40.2747C36.5644 41.0147 28.4795 40.0935 20.6749 39.2175C10.1262 38.0245 -0.791362 36.7861 -12.24 39.6253C-34.8423 45.2432 -56.0135 59.9675 -76.4766 74.7522V73.7555C-56.0873 59.0312 -35.0046 44.4579 -12.4318 38.84C-0.850377 35.9706 10.1262 37.209 20.7487 38.4171C28.5237 39.3082 36.5496 40.2143 44.723 39.4743C49.5917 39.0363 54.8291 37.9037 60.3764 36.7106C68.0482 35.0494 75.8823 33.3731 83.3033 33.3731C88.9981 33.3731 94.4569 34.3698 99.4288 37.1335C108.207 42.0416 108.827 47.5236 109.461 53.3378C110.066 58.7895 110.686 64.4074 118.003 70.4029C124.761 75.9453 132.624 77.7726 140.945 79.7207C148.263 81.4272 155.846 83.2093 162.5 87.7398C167.044 90.8357 171.131 94.4299 175.085 97.9185C183.804 105.605 192.036 112.854 204.311 114.425C222.591 116.75 243.201 112.507 263.133 108.414C272.177 106.557 280.704 104.805 289.025 103.627C305.461 101.301 321.94 100.727 337.874 100.169C347.169 99.8364 356.596 99.5042 366.112 98.8246V99.6401C356.626 100.32 347.213 100.667 337.918 100.984Z" fill="white" fill-opacity="0.3"/>
<path d="M336.915 106.21C320.834 106.557 304.207 106.92 287.609 109.019C279.126 110.091 270.362 111.782 261.112 113.564C241.047 117.446 220.274 121.448 201.833 118.88C189.145 117.098 180.47 109.653 171.293 101.77C167.177 98.221 162.913 94.5664 158.236 91.4403C151.568 86.9852 143.999 85.2938 136.681 83.6628C128.67 81.8657 120.394 80.0233 113.445 74.5262C105.699 68.3948 104.888 62.2635 104.194 56.857C103.442 51.0277 102.778 45.9837 94.457 41.5135C83.7165 35.7446 70.6597 38.8707 58.0159 41.8911C52.0556 43.3106 46.4345 44.6547 41.079 45.1078C32.8761 45.8025 25.2043 45.002 17.798 44.2167C7.07226 43.0992 -3.04861 42.027 -14.5711 45.138C-36.4504 51.0428 -56.8102 65.6161 -76.4766 80.4008V79.389C-56.884 64.6798 -36.6275 50.2273 -14.8071 44.3376C-3.13713 41.1813 7.0575 42.2535 17.857 43.3862C25.2338 44.1563 32.8613 44.9567 40.9905 44.2772C46.2869 43.8392 51.8785 42.4951 57.8094 41.0756C65.3337 39.2784 73.0055 37.436 80.2937 37.436C85.3836 37.436 90.2817 38.327 94.7963 40.7584C103.486 45.4249 104.209 50.9069 104.961 56.7211C105.684 62.2333 106.422 67.9267 113.917 73.8466C120.733 79.238 128.552 80.9747 136.844 82.8322C144.235 84.4783 151.877 86.1848 158.664 90.7305C163.385 93.8868 167.664 97.5565 171.809 101.121C180.897 108.928 189.484 116.313 201.936 118.05C220.26 120.617 240.944 116.615 260.964 112.749C270.244 110.952 279.008 109.26 287.521 108.188C304.148 106.089 320.805 105.727 336.915 105.379C346.535 105.168 356.301 104.956 366.142 104.367V105.183C356.287 105.787 346.535 105.998 336.915 106.21Z" fill="white" fill-opacity="0.3"/>
<path d="M335.971 111.437C319.727 111.588 302.923 111.739 286.149 113.612C277.459 114.578 268.489 116.209 259.002 117.946C238.893 121.615 218.091 125.391 199.649 122.582C186.799 120.619 177.799 113.068 168.254 105.049C163.931 101.409 159.446 97.6639 154.577 94.4775C147.805 90.0526 140.178 88.4518 132.801 86.8963C124.82 85.22 116.572 83.4682 109.535 78.1372C101.583 72.1116 100.639 65.8896 99.7977 60.4077C98.8977 54.5632 98.1305 49.5192 89.8686 45.2907C79.2904 39.8691 66.6319 43.2217 54.3865 46.4686C48.4262 48.0543 42.7903 49.5494 37.3906 50.078C29.3204 50.8784 21.8404 50.1384 14.5965 49.4135C4.1658 48.3715 -5.67475 47.3899 -16.9759 50.6972C-38.0438 56.8587 -57.5921 71.281 -76.4766 86.0355V85.0086C-57.6807 70.3447 -38.2209 56.0583 -17.1677 49.9119C-5.71901 46.5744 4.19531 47.556 14.6998 48.598C21.8995 49.3229 29.3352 50.0478 37.3316 49.2625C42.6576 48.7339 48.2639 47.2539 54.1948 45.6682C61.8075 43.6446 69.5678 41.5907 76.9446 41.5907C81.5772 41.5907 86.0475 42.4062 90.2227 44.5507C98.8387 48.9756 99.6944 54.4575 100.58 60.2717C101.435 65.8594 102.321 71.6283 110.007 77.4728C116.897 82.698 124.687 84.3441 132.949 86.0808C140.399 87.6514 148.1 89.2673 154.99 93.7828C159.888 96.9844 164.388 100.76 168.741 104.414C178.198 112.343 187.123 119.849 199.752 121.767C218.061 124.56 238.79 120.785 258.84 117.13C268.356 115.394 277.326 113.763 286.045 112.796C302.864 110.923 319.683 110.772 335.941 110.621C345.871 110.531 355.932 110.44 366.097 109.957V110.772C355.962 111.256 345.9 111.346 335.971 111.437Z" fill="white" fill-opacity="0.3"/>
<path d="M335.086 116.661C318.68 116.616 301.728 116.556 284.791 118.217C275.91 119.093 266.733 120.663 257.01 122.34C236.902 125.798 216.099 129.377 197.716 126.372C184.748 124.243 175.409 116.571 165.51 108.461C160.951 104.716 156.23 100.85 151.154 97.6029C144.309 93.2385 136.622 91.7283 129.201 90.2785C121.234 88.723 113.002 87.1071 105.906 81.9574C97.747 76.0375 96.611 69.74 95.593 64.1825C94.5307 58.323 93.616 53.279 85.4131 49.277C75.0119 44.2178 62.796 47.797 50.9785 51.2553C44.9886 53.0071 39.3233 54.6683 33.8645 55.2724C25.9124 56.1634 18.6094 55.4536 11.5425 54.774C1.40692 53.7924 -8.16807 52.8712 -19.2774 56.3446C-39.6224 62.7176 -58.3741 76.9587 -76.4766 91.6226V90.5806C-58.4626 76.0073 -39.7995 61.9172 -19.4987 55.5593C-8.22709 52.0255 1.42167 52.9618 11.6311 53.9586C18.6537 54.6381 25.9124 55.3328 33.7907 54.4569C39.1758 53.8528 44.8116 52.2067 50.772 50.4549C58.4143 48.2198 66.2336 45.9244 73.6546 45.9244C77.8446 45.9244 81.9165 46.6492 85.7524 48.5219C94.3242 52.69 95.3127 58.1871 96.3749 64.0164C97.4076 69.6796 98.4699 75.5391 106.363 81.2778C113.327 86.3369 121.102 87.8622 129.349 89.463C136.844 90.9279 144.604 92.4532 151.582 96.8931C156.702 100.155 161.423 104.036 166.011 107.797C175.822 115.846 185.073 123.442 197.834 125.541C216.084 128.532 236.828 124.967 256.863 121.509C266.6 119.833 275.792 118.247 284.703 117.371C301.684 115.71 318.665 115.755 335.086 115.801C345.295 115.831 355.667 115.861 366.127 115.468V116.284C355.667 116.722 345.295 116.692 335.086 116.661Z" fill="white" fill-opacity="0.3"/>
<path d="M334.289 121.888C317.75 121.647 300.636 121.405 283.522 122.855C274.567 123.61 265.184 125.377 255.24 127.234C235.043 131.025 214.166 134.936 196.344 130.164C182.83 126.54 173.639 119.532 163.931 112.132C159.003 108.387 153.913 104.506 147.982 100.821C141.048 96.517 133.303 95.1579 125.823 93.8289C117.944 92.4395 109.801 90.9898 102.675 86.1119C94.2947 80.358 92.8783 73.9247 91.639 68.2615C90.3407 62.3264 89.2195 57.2069 81.0461 53.4616C70.9547 48.8556 59.2109 52.6914 47.8508 56.3914C41.7134 58.3999 35.9005 60.2877 30.3237 60.9522C22.3716 61.8885 15.2899 61.1334 8.42956 60.3934C-1.30772 59.3514 -10.5139 58.3546 -21.579 62.0697C-41.1715 68.639 -59.156 82.6837 -76.4766 97.2419V96.1848C-59.2445 81.7323 -41.3633 67.8386 -21.815 61.2995C-10.5876 57.5391 -1.30772 58.5359 8.53284 59.593C15.3489 60.3179 22.3863 61.073 30.2499 60.1518C35.753 59.5024 41.5216 57.6147 47.6295 55.6212C55.3308 53.0992 63.2091 50.5319 70.6891 50.5319C74.3775 50.5319 77.9626 51.1511 81.3854 52.7217C89.9129 56.6179 91.1374 62.1905 92.421 68.0802C93.6898 73.8794 95.0028 79.8597 103.117 85.4323C110.096 90.2196 118.151 91.6391 125.956 93.0285C133.509 94.3575 141.329 95.7468 148.396 100.126C154.356 103.826 159.475 107.723 164.403 111.483C174.067 118.838 183.184 125.8 196.551 129.379C214.196 134.121 234.984 130.209 255.093 126.449C265.051 124.576 274.449 122.824 283.449 122.054C300.607 120.589 317.736 120.846 334.304 121.088C344.764 121.239 355.387 121.39 366.127 121.118V121.933C355.387 122.19 344.764 122.039 334.289 121.888Z" fill="white" fill-opacity="0.3"/>
<path d="M333.699 127.097C316.969 126.689 299.648 126.266 282.372 127.535C273.343 128.199 264.018 129.8 254.163 131.506C234.511 134.904 214.181 138.423 196.448 133.817C182.004 130.072 172.016 122.868 161.452 115.242C156.362 111.572 151.11 107.781 145.091 104.157C138.083 99.9435 130.382 98.8109 122.946 97.7386C115.289 96.6211 107.381 95.4734 100.285 90.9428C93.6455 86.6992 91.0342 80.0695 88.5113 73.6512C85.9147 67.0668 83.4656 60.8448 76.8561 57.8848C66.5877 53.2788 54.9324 57.8546 43.6461 62.2644C37.9955 64.4844 32.1384 66.7798 26.6648 67.7917C18.6537 69.2716 11.4245 68.1088 4.43138 67.0064C-4.27316 65.617 -13.2728 64.1823 -23.8067 67.9125C-42.8092 74.6328 -59.9674 88.5869 -76.4766 103.009V101.937C-60.0707 87.6204 -43.001 73.8324 -24.0723 67.1121C-13.3613 63.3064 -4.25841 64.7713 4.5494 66.1758C11.4688 67.2782 18.6389 68.4259 26.5173 66.9762C31.9171 65.9794 37.4791 63.8048 43.351 61.4942C51.3769 58.353 59.5798 55.1363 67.4139 55.1363C70.7482 55.1363 74.0087 55.7102 77.1511 57.1297C84.0705 60.2256 86.5786 66.5986 89.2195 73.3491C91.6981 79.6466 94.2504 86.1555 100.683 90.2481C107.647 94.6881 115.466 95.8358 123.034 96.9382C130.544 98.0256 138.319 99.1582 145.474 103.462C151.523 107.102 156.805 110.907 161.895 114.592C172.399 122.173 182.329 129.332 196.625 133.047C214.196 137.608 234.438 134.104 254.016 130.721C263.9 129.015 273.239 127.399 282.313 126.734C299.648 125.466 316.969 125.888 333.728 126.296C344.38 126.553 355.209 126.825 366.127 126.644V127.459C355.195 127.625 344.366 127.368 333.699 127.097Z" fill="white" fill-opacity="0.3"/>
<path d="M333.256 132.321C316.305 131.762 298.777 131.173 281.324 132.246C272.413 132.789 263.207 134.254 253.455 135.81C234.172 138.875 214.225 142.032 196.816 137.607C181.281 133.65 170.068 125.993 158.192 117.884C153.22 114.486 148.086 110.982 142.465 107.63C135.412 103.416 127.785 102.631 120.408 101.861C112.972 101.09 105.286 100.305 98.16 96.0011C91.2259 91.8179 88.2014 85.022 85.2655 78.4376C82.2853 71.7475 79.4674 65.4198 72.7693 62.5354C62.6632 58.186 51.3326 63.3358 40.3708 68.3194C34.6317 70.932 28.7008 73.6201 23.0945 74.8585C14.8178 76.6707 7.72138 75.1001 0.84627 73.5899C-7.28288 71.8079 -15.6923 69.9504 -26.0198 73.8165C-44.5058 80.7331 -60.8084 94.8382 -76.4766 109.185V108.098C-60.9117 93.8717 -44.7124 79.9478 -26.2853 73.0463C-15.7514 69.1047 -7.22387 70.9773 1.02331 72.7895C7.8099 74.2846 14.8325 75.825 22.9322 74.0581C28.4647 72.8499 34.3514 70.1618 40.0462 67.5794C48.1901 63.8794 56.5258 60.0889 64.5074 60.0889C67.4138 60.0889 70.276 60.5872 73.0644 61.7954C80.0428 64.8007 82.9345 71.2643 85.9737 78.1205C88.8506 84.5841 91.8308 91.2742 98.5436 95.3215C105.522 99.5198 113.12 100.305 120.467 101.075C127.932 101.845 135.634 102.646 142.848 106.95C148.499 110.318 153.648 113.836 158.62 117.234C170.437 125.314 181.606 132.94 196.993 136.852C214.255 141.246 234.113 138.09 253.322 135.039C263.089 133.484 272.31 132.019 281.265 131.475C298.748 130.388 316.29 130.977 333.271 131.551C344.071 131.913 355.047 132.276 366.112 132.215V133.031C355.047 133.046 344.071 132.683 333.256 132.321Z" fill="white" fill-opacity="0.3"/>
<path d="M333.463 137.427C316.452 136.672 298.866 135.887 281.354 136.747C272.236 137.2 262.927 138.454 253.086 139.783C234.438 142.305 215.17 144.918 197.539 141.52C181.252 138.394 169.257 130.269 156.569 121.676C151.391 118.172 146.02 114.533 140.37 111.301C133.273 107.238 125.734 106.77 118.431 106.302C111.114 105.834 103.56 105.351 96.3897 101.318C89.1162 97.2107 85.6934 90.2941 82.4034 83.5889C79.0544 76.8081 75.8971 70.3899 69.0073 67.5809C58.9454 63.4581 47.9098 69.1515 37.2283 74.6486C31.445 77.6387 25.4551 80.7195 19.7307 82.1542C11.5573 84.2081 4.2691 82.4864 -2.7978 80.8252C-10.7647 78.9526 -18.9971 77.0045 -28.4836 80.5836C-45.7746 87.1076 -61.428 100.594 -76.4766 114.623V113.521C-61.5313 99.5968 -45.9812 86.3072 -28.7491 79.8134C-19.0414 76.1588 -10.6761 78.122 -2.60601 80.0248C4.35762 81.6709 11.5573 83.3623 19.5537 81.3689C25.1747 79.9644 31.1204 76.8988 36.8742 73.9237C45.0772 69.6952 53.5014 65.3458 61.6305 65.3458C64.2271 65.3458 66.7942 65.7838 69.3023 66.8107C76.4725 69.7405 79.7035 76.2947 83.1116 83.2113C86.3573 89.7957 89.7064 96.6067 96.7733 100.594C103.796 104.55 111.261 105.018 118.49 105.487C125.882 105.955 133.509 106.438 140.768 110.591C146.448 113.838 151.818 117.477 157.026 120.996C169.655 129.544 181.576 137.608 197.716 140.719C215.214 144.087 234.438 141.489 253.012 138.967C262.44 137.699 272.192 136.37 281.339 135.917C298.881 135.041 316.482 135.826 333.522 136.596C344.262 137.08 355.151 137.563 366.142 137.623V138.439C355.121 138.394 344.218 137.91 333.463 137.427Z" fill="white" fill-opacity="0.3"/>
<path d="M334.894 142.363C317.824 141.351 300.179 140.309 282.623 141.004C273.18 141.382 263.118 142.711 253.381 143.994C234.998 146.426 216.011 148.933 198.602 145.625C181.738 142.424 168.357 133.801 155.404 125.464C150.078 122.036 144.56 118.472 138.835 115.301C131.606 111.299 124.082 111.148 116.808 111.012C109.638 110.876 102.217 110.74 94.9881 106.949C87.3753 102.963 83.5837 95.9704 79.9248 89.2048C76.2217 82.3636 72.7251 75.9151 65.5845 73.1062C55.3751 69.0891 44.6198 75.3111 34.2186 81.3216C28.4058 84.6742 22.4011 88.1477 16.5882 89.7635C8.26729 92.0741 1.5102 90.0052 -5.04033 88.0117C-13.1105 85.535 -20.738 83.1942 -31.213 88.3591C-47.5008 96.3631 -62.269 109.094 -76.4766 122.082V120.994C-62.387 108.127 -47.7368 95.5778 -31.567 87.6191C-20.8118 82.3334 -12.6826 84.8252 -4.81903 87.2264C1.61348 89.2048 8.26729 91.2284 16.3669 88.9782C22.0913 87.3926 28.0517 83.9493 33.8203 80.6118C42.0232 75.8698 50.4327 71.007 58.7241 71.007C61.1142 71.007 63.5042 71.4148 65.8648 72.336C73.271 75.2507 76.8414 81.8351 80.6182 88.797C84.2181 95.4569 87.9507 102.328 95.3422 106.209C102.409 109.909 109.727 110.045 116.823 110.181C124.185 110.317 131.813 110.468 139.219 114.561C144.973 117.747 150.491 121.296 155.831 124.739C169.301 133.423 182.019 141.623 198.749 144.795C216.025 148.072 234.969 145.565 253.278 143.149C263.03 141.865 273.121 140.536 282.593 140.158C300.194 139.464 317.869 140.506 334.953 141.518C345.221 142.122 355.637 142.741 366.142 142.982V143.798C355.608 143.587 345.177 142.982 334.894 142.363Z" fill="white" fill-opacity="0.3"/>
<path d="M336.443 147.362C319.329 146.109 301.64 144.795 284.024 145.338C274.39 145.625 264.048 147.105 254.045 148.525C235.766 151.122 216.866 153.811 199.974 149.899C182.624 145.882 168.947 137.757 154.474 129.134C149.06 125.917 143.468 122.58 137.67 119.484C130.278 115.542 122.798 115.784 115.584 115.996C108.532 116.222 101.258 116.433 93.9554 112.885C85.9885 109.003 81.7985 101.951 77.7413 95.1248C73.6546 88.2383 69.7892 81.7294 62.383 78.9356C51.967 75.0091 41.4036 81.7898 31.1647 88.344C25.3961 92.0289 19.4504 95.8496 13.6228 97.6619C5.67068 100.139 -1.51425 98.9757 -7.6812 94.2338C-15.294 89.9146 -24.1165 90.5942 -33.9128 96.2423C-48.5335 104.684 -62.151 116.962 -76.4766 130.04V128.953C-62.3132 116.026 -48.8138 103.914 -34.2817 95.5325C-24.2346 89.7334 -15.1464 89.0538 -7.22384 93.5542C-1.23394 98.1602 5.71494 99.2778 13.4162 96.8917C19.1406 95.1097 25.0567 91.3342 30.7663 87.6644C38.9987 82.3788 47.4525 76.9723 55.98 76.9723C58.2077 76.9723 60.4355 77.3499 62.678 78.1805C70.3351 81.0649 74.2743 87.6946 78.4347 94.7019C82.4329 101.422 86.5491 108.384 94.3094 112.16C101.435 115.633 108.62 115.407 115.569 115.195C122.902 114.969 130.47 114.727 138.053 118.774C143.866 121.87 149.473 125.208 154.902 128.439C169.316 137.017 182.933 145.127 200.165 149.114C216.911 152.98 235.736 150.307 253.942 147.725C263.959 146.305 274.331 144.825 284.009 144.538C301.669 144.009 319.373 145.308 336.517 146.577C346.269 147.302 356.154 148.011 366.142 148.419V149.235C356.124 148.797 346.225 148.072 336.443 147.362Z" fill="white" fill-opacity="0.3"/>
<path d="M338.125 152.407C320.981 150.897 303.233 149.342 285.603 149.734C275.718 149.946 265.11 151.456 254.842 152.921C236.916 155.473 218.386 158.116 201.774 154.371C183.981 150.354 169.611 142.183 154.415 133.515C148.764 130.298 142.922 126.961 136.932 123.91C129.378 120.044 121.987 120.678 114.831 121.298C107.912 121.902 100.771 122.521 93.3652 119.183C85.0147 115.438 80.3969 108.295 75.9266 101.393C71.4268 94.4465 67.1926 87.8772 59.506 85.1286C48.9868 81.3683 38.7332 88.587 28.8188 95.564C22.9912 99.6717 16.9718 103.9 10.9524 105.879C2.94128 108.506 -4.31742 107.343 -10.5581 102.42C-18.0676 97.9954 -26.7869 98.6297 -36.4799 104.293C-50.3039 112.357 -63.0804 123.986 -76.4766 136.415V135.312C-63.2427 123.034 -50.599 111.587 -36.8783 103.568C-26.9345 97.7538 -17.9349 97.1195 -10.1155 101.726C-4.05186 106.498 2.95603 107.63 10.7016 105.078C16.6177 103.13 22.5781 98.9317 28.3615 94.8693C36.4906 89.1306 44.8558 83.2409 53.5161 83.2409C55.5816 83.2409 57.6618 83.5731 59.7568 84.3282C67.6942 87.1674 72.0169 93.8424 76.5905 100.91C80.987 107.721 85.5459 114.758 93.6898 118.413C100.919 121.66 107.956 121.041 114.772 120.452C122.031 119.818 129.541 119.183 137.301 123.14C143.306 126.206 149.163 129.543 154.813 132.775C169.965 141.413 184.276 149.553 201.951 153.54C218.415 157.255 236.887 154.627 254.738 152.09C265.022 150.625 275.659 149.115 285.588 148.904C303.292 148.526 321.026 150.082 338.199 151.592C347.405 152.407 356.729 153.208 366.127 153.736V154.552C356.7 154.023 347.346 153.208 338.125 152.407Z" fill="white" fill-opacity="0.3"/>
<path d="M339.91 157.512C322.752 155.761 304.989 153.963 287.344 154.205C277.238 154.341 266.379 155.912 255.875 157.437C238.347 159.974 220.245 162.587 203.957 159.023C185.825 155.051 170.201 146.503 155.079 138.242C149.089 134.98 142.907 131.598 136.622 128.517C128.877 124.741 121.913 125.768 114.536 126.856C107.765 127.867 100.757 128.894 93.2029 125.783C84.4246 122.159 79.3642 114.94 74.4513 107.948C69.5384 100.941 64.8911 94.3111 56.8799 91.6079C46.2427 88.0136 36.3284 95.6401 26.7534 103.025C20.8667 107.555 14.7736 112.252 8.50334 114.381C0.388942 117.145 -6.95828 115.937 -13.3023 110.802C-20.738 106.226 -29.3835 106.785 -38.988 112.448C-52.0301 120.15 -63.9951 131.099 -76.4766 142.864V141.761C-64.1427 130.163 -52.3104 119.38 -39.3716 111.754C-29.4868 105.94 -20.5757 105.381 -12.8302 110.153C-6.67796 115.121 0.418448 116.299 8.26729 113.626C14.4195 111.527 20.4536 106.891 26.296 102.391C34.3071 96.229 42.5248 89.8862 51.3326 89.8862C53.2506 89.8862 55.1833 90.1883 57.1602 90.8528C65.4074 93.6466 70.1285 100.367 75.13 107.48C79.9691 114.366 84.9705 121.51 93.5275 125.043C100.875 128.079 107.779 127.052 114.448 126.07C121.618 125.013 129.024 123.911 136.991 127.807C143.291 130.888 149.487 134.271 155.477 137.548C170.541 145.778 186.135 154.296 204.149 158.237C220.289 161.771 238.333 159.158 255.786 156.636C266.305 155.111 277.193 153.541 287.358 153.39C305.063 153.133 322.826 154.945 340.013 156.697C348.63 157.573 357.349 158.464 366.142 159.098V159.914C357.305 159.279 348.556 158.388 339.91 157.512Z" fill="white" fill-opacity="0.3"/>
<path d="M341.813 162.662C324.67 160.684 306.936 158.63 289.276 158.751C278.787 158.827 267.574 160.382 256.73 161.892C239.941 164.233 222.576 166.649 206.598 163.901C188.407 160.775 172.812 152.303 157.734 144.132C150.933 140.448 143.896 136.627 136.799 133.41C128.759 129.771 121.751 131.175 114.315 132.655C107.75 133.954 100.978 135.313 93.557 132.791C84.6164 129.755 78.9215 122.295 73.4185 115.076C67.9302 107.873 62.737 101.062 54.6226 98.4946C43.8821 95.0967 34.7497 102.738 25.0567 110.848C19.0815 115.847 12.9146 121.011 6.36406 123.247C-2.2372 126.191 -9.12706 123.594 -15.7809 121.072C-23.6592 118.097 -31.1097 115.273 -41.3781 120.77C-54.4644 127.807 -65.7361 138.046 -76.4766 148.542V147.41C-65.8688 137.065 -54.7005 126.992 -41.7322 120.045C-31.154 114.382 -23.1871 117.387 -15.4858 120.302C-8.96477 122.763 -2.22245 125.316 6.12801 122.461C12.531 120.272 18.6537 115.152 24.5698 110.199C32.4334 103.614 40.5183 96.8636 49.4589 96.8636C51.2293 96.8636 53.0292 97.1355 54.8734 97.7093C63.2239 100.352 68.7269 107.571 74.0529 114.563C79.4822 121.676 85.1032 129.046 93.8078 132.006C101.037 134.467 107.706 133.138 114.168 131.84C121.397 130.405 128.862 128.91 137.124 132.655C144.235 135.872 151.287 139.692 158.103 143.392C173.137 151.547 188.672 159.974 206.731 163.085C222.591 165.819 239.896 163.402 256.627 161.077C267.5 159.567 278.727 157.996 289.261 157.92C306.966 157.8 324.714 159.838 341.887 161.832C349.869 162.753 357.954 163.689 366.112 164.414V165.23C357.939 164.535 349.824 163.599 341.813 162.662Z" fill="white" fill-opacity="0.3"/>
<path d="M343.82 167.9C326.809 165.695 309.238 163.43 291.725 163.43C291.622 163.43 291.504 163.43 291.401 163.43C280.734 163.445 269.33 165.121 258.294 166.752C242.006 169.153 225.172 171.615 209.667 169.063C191.343 166.027 175.365 157.691 159.903 149.612C152.586 145.791 145.032 141.849 137.463 138.618C129.201 135.084 122.341 136.971 115.082 138.95C108.65 140.717 102.011 142.529 94.3831 140.203C84.9999 137.334 78.7887 129.768 72.7841 122.443C66.8089 115.164 61.1731 108.293 52.7194 105.801C41.8461 102.6 32.9645 110.619 23.5666 119.091C17.5472 124.528 11.3212 130.145 4.53463 132.486C-4.1699 135.491 -11.1188 132.683 -17.8463 129.964C-25.7837 126.763 -33.2785 123.742 -43.6059 129.269C-55.9103 135.839 -66.459 145.368 -76.4766 155.214V154.082C-66.5918 144.386 -56.1463 135.038 -43.9895 128.529C-33.3375 122.836 -25.3116 126.068 -17.566 129.194C-10.9712 131.852 -4.15515 134.6 4.26907 131.701C10.9081 129.421 17.0603 123.848 23.0207 118.472C30.781 111.464 38.7479 104.276 47.895 104.276C49.5327 104.276 51.1998 104.502 52.9259 105.016C61.6157 107.568 67.6056 114.862 73.3742 121.915C79.3051 129.149 85.4278 136.624 94.5897 139.418C102.011 141.683 108.546 139.886 114.861 138.164C121.928 136.231 129.231 134.223 137.744 137.862C145.342 141.109 152.91 145.051 160.243 148.887C175.645 156.936 191.579 165.242 209.77 168.247C225.158 170.8 241.932 168.323 258.161 165.937C269.226 164.306 280.66 162.629 291.386 162.614C291.489 162.614 291.607 162.614 291.711 162.614C309.267 162.614 326.883 164.895 343.908 167.1C351.226 168.051 358.647 169.002 366.112 169.788V170.603C358.617 169.803 351.182 168.851 343.82 167.9Z" fill="white" fill-opacity="0.3"/>
<path d="M343.215 173.473C326.986 170.906 310.211 168.248 293.732 168.188C293.629 168.188 293.54 168.188 293.437 168.188C282.711 168.188 271.262 170 260.182 171.752C244.455 174.228 228.197 176.796 213.178 174.44C194.81 171.54 178.522 163.355 162.78 155.426C154.887 151.455 146.743 147.347 138.614 144.1C130.086 140.687 123.433 143.073 116.381 145.595C110.096 147.845 103.604 150.171 95.711 148.027C85.8409 145.354 79.0838 137.652 72.5628 130.221C66.1008 122.867 59.9929 115.905 51.1703 113.519C40.1495 110.529 31.5482 118.88 22.4306 127.715C16.3669 133.604 10.0819 139.69 3.01503 142.107C-5.80753 145.082 -12.8744 142.046 -19.6905 139.101C-27.7164 135.643 -35.2997 132.366 -45.7451 137.908C-57.2676 144.009 -67.1376 152.844 -76.4766 162.026V160.893C-67.2557 151.862 -57.5036 143.209 -46.114 137.183C-35.3292 131.475 -27.2295 134.963 -19.3807 138.346C-12.6974 141.231 -5.77802 144.206 2.76422 141.291C9.66884 138.935 15.88 132.91 21.8847 127.095C29.5122 119.695 37.3758 112.084 46.7148 112.084C48.2196 112.084 49.7835 112.28 51.3769 112.718C60.4355 115.18 66.8975 122.55 73.1529 129.663C79.6002 137.017 86.2688 144.614 95.9175 147.226C103.575 149.31 109.948 147.03 116.115 144.81C122.99 142.348 130.101 139.811 138.894 143.33C147.053 146.592 155.226 150.7 163.119 154.686C178.817 162.585 195.031 170.755 213.281 173.624C228.167 175.965 244.367 173.413 260.035 170.936C271.248 169.169 282.799 167.342 293.702 167.372C310.241 167.417 327.045 170.09 343.303 172.658C350.828 173.851 358.44 175.044 366.097 176.01V176.826C358.426 175.889 350.769 174.681 343.215 173.473Z" fill="white" fill-opacity="0.3"/>
<path d="M345.398 178.82C329.288 176.056 312.631 173.187 296.269 173.081C285.411 173.006 273.726 175.014 262.454 176.947C247.317 179.56 231.679 182.248 217.191 180.088C198.838 177.355 182.358 169.336 166.424 161.574C157.513 157.239 149.089 153.132 140.34 149.885C131.518 146.608 125.085 149.507 118.284 152.588C112.161 155.352 105.832 158.221 97.6141 156.258C87.1244 153.766 79.91 146.124 72.9464 138.74C66.3811 131.778 59.5798 124.589 50.0195 121.614C38.6889 118.08 28.9811 128.047 19.5979 137.682C13.5637 143.874 7.86891 149.719 1.86426 152.029C-7.09109 155.472 -14.3203 152.029 -21.3282 148.707C-29.1032 145.022 -37.1291 141.201 -47.7221 146.698C-58.5364 152.346 -67.772 160.471 -76.4766 169.004V167.871C-67.8901 159.49 -58.7577 151.546 -48.0762 145.988C-37.1439 140.295 -28.9262 144.206 -20.9888 147.982C-13.8187 151.38 -7.06158 154.596 1.58394 151.274C7.42631 149.024 13.0621 143.24 19.0373 137.109C27.2254 128.712 35.6497 120.059 45.2984 120.059C46.9213 120.059 48.5737 120.3 50.2556 120.829C60.0076 123.864 66.8827 131.143 73.5218 138.166C80.7362 145.807 87.5375 153.011 97.8059 155.457C105.758 157.345 111.969 154.551 117.974 151.833C124.628 148.828 131.503 145.717 140.62 149.115C149.399 152.377 157.838 156.484 166.778 160.834C182.668 168.566 199.088 176.555 217.309 179.273C231.664 181.402 247.244 178.729 262.322 176.132C273.416 174.214 284.88 172.251 295.679 172.251C295.871 172.251 296.078 172.251 296.269 172.251C312.69 172.356 329.376 175.226 345.516 178.004C352.318 179.167 359.193 180.345 366.112 181.342V182.172C359.163 181.176 352.244 179.998 345.398 178.82Z" fill="white" fill-opacity="0.3"/>
<path d="M350.754 183.999C333.876 181.16 316.423 178.23 299.028 178.079C288.052 177.958 276.411 180.208 265.14 182.353C250.637 185.116 235.633 187.971 221.705 186.038C203.441 183.5 186.843 175.678 170.806 168.112C161.172 163.566 152.084 159.277 142.642 156.045C133.495 152.919 127.313 156.347 120.792 160.002C114.846 163.309 108.709 166.737 100.122 164.986C89.0571 162.72 81.2526 154.943 73.6988 147.407C66.6467 140.37 59.3437 133.09 49.3556 130.236C37.9217 126.959 28.5828 137.138 19.5389 146.969C13.372 153.689 7.54434 160.047 1.06757 162.433C-8.27136 165.892 -15.6628 162.101 -22.8035 158.446C-30.6376 154.429 -38.7372 150.276 -49.5368 155.728C-59.7019 160.848 -68.3622 168.293 -76.4766 176.176V175.059C-68.4802 167.326 -59.9232 160.047 -49.8908 154.988C-38.7372 149.355 -30.4458 153.599 -22.4494 157.706C-15.1317 161.452 -8.2271 165.001 0.787254 161.663C7.07222 159.337 12.8408 153.055 18.9488 146.41C26.9304 137.727 35.1333 128.786 44.9296 128.786C46.4344 128.786 47.9688 128.998 49.5622 129.451C59.742 132.366 67.1188 139.72 74.2447 146.833C82.064 154.626 89.4407 161.98 100.27 164.2C108.576 165.907 114.595 162.539 120.408 159.292C126.796 155.728 133.421 152.043 142.892 155.29C152.364 158.537 161.482 162.841 171.131 167.387C187.123 174.938 203.662 182.73 221.809 185.252C235.618 187.17 250.548 184.316 264.992 181.567C276.072 179.453 287.521 177.279 298.335 177.279C298.571 177.279 298.792 177.279 299.028 177.279C316.482 177.43 333.964 180.374 350.872 183.214C355.918 184.059 360.993 184.92 366.112 185.705V186.521C360.963 185.72 355.829 184.86 350.754 183.999Z" fill="white" fill-opacity="0.3"/>
<path d="M350.016 189.738C334.289 186.612 318.031 183.365 302.038 183.214C291.12 183.108 279.48 185.585 268.253 187.986C254.414 190.946 240.103 193.996 226.751 192.29C208.619 189.979 191.992 182.353 175.896 174.983C165.51 170.226 155.713 165.726 145.548 162.569C136.121 159.625 130.323 163.627 124.185 167.855C118.417 171.827 112.456 175.935 103.206 174.198C91.2554 171.933 82.9197 164.019 74.8643 156.363C67.3843 149.265 59.6535 141.91 49.1491 139.343C37.7594 136.549 28.7893 146.788 20.0995 156.68C14.0064 163.627 7.70663 170.8 0.669236 173.262C-9.09755 176.69 -16.6661 172.507 -23.9838 168.474C-32.2752 163.898 -40.1093 159.579 -51.1744 164.925C-60.7641 169.547 -68.8933 176.312 -76.4766 183.576V182.459C-68.9966 175.346 -60.9707 168.731 -51.5432 164.17C-40.1093 158.628 -31.7293 163.264 -23.6297 167.734C-16.1349 171.872 -9.05329 175.784 0.388917 172.461C7.23452 170.06 13.4605 162.962 19.4799 156.106C27.2992 147.196 35.3546 138.014 45.2984 138.014C46.5967 138.014 47.9393 138.165 49.3114 138.512C60.0224 141.14 67.8417 148.555 75.3807 155.728C83.3623 163.309 91.6095 171.147 103.324 173.367C112.264 175.059 118.077 171.042 123.713 167.16C129.732 163.007 135.958 158.719 145.74 161.769C155.949 164.956 165.775 169.456 176.176 174.228C192.213 181.583 208.796 189.179 226.795 191.474C240.029 193.151 254.266 190.115 268.031 187.17C279.303 184.769 290.988 182.293 301.994 182.383C318.06 182.534 334.363 185.781 350.119 188.922C355.401 189.979 360.727 191.036 366.083 191.988V192.834C360.712 191.867 355.342 190.795 350.016 189.738Z" fill="white" fill-opacity="0.3"/>
<path d="M352.657 195.296C337.107 191.988 321.041 188.56 305.284 188.47C305.166 188.47 305.063 188.47 304.944 188.47C294.706 188.47 283.345 191.203 272.354 193.846C258.737 197.123 244.647 200.506 232.328 198.845C214.978 196.504 198.454 189.27 182.461 182.278C171.013 177.279 160.213 172.552 149.074 169.441C139.234 166.693 133.745 171.238 127.947 176.056C122.429 180.632 116.72 185.374 106.938 183.863C94.2947 181.9 85.3393 173.806 76.6643 165.968C68.6827 158.764 60.4355 151.304 49.4147 148.872C37.8775 146.335 29.2762 156.695 20.9552 166.738C14.744 174.229 8.32629 181.961 0.654492 184.468C-9.59916 187.805 -17.3742 183.214 -24.8837 178.759C-33.3227 173.76 -41.2896 169.049 -52.6792 174.274C-61.7379 178.457 -69.3802 184.603 -76.4766 191.263V190.161C-69.4834 183.637 -61.9297 177.642 -53.0038 173.549C-41.2306 168.142 -32.7178 173.186 -24.4854 178.064C-16.7841 182.625 -9.49588 186.944 0.418437 183.712C7.88368 181.281 14.2277 173.624 20.3651 166.225C27.9336 157.088 35.7382 147.679 45.8886 147.679C47.0836 147.679 48.3229 147.815 49.5917 148.087C60.8191 150.564 69.1548 158.085 77.2102 165.364C85.7967 173.111 94.6635 181.13 107.071 183.063C116.499 184.528 122.061 179.907 127.446 175.437C133.141 170.71 139.057 165.817 149.281 168.671C160.464 171.797 171.795 176.751 182.771 181.538C198.705 188.5 215.184 195.703 232.431 198.044C244.618 199.69 258.619 196.323 272.162 193.061C283.198 190.403 294.602 187.654 304.944 187.654C305.063 187.654 305.181 187.654 305.284 187.654C321.114 187.745 337.24 191.173 352.819 194.495C357.231 195.432 361.657 196.368 366.127 197.244V198.089C361.612 197.198 357.113 196.247 352.657 195.296Z" fill="white" fill-opacity="0.3"/>
<path d="M355.254 200.959C339.999 197.516 324.227 193.952 308.78 193.891C308.721 193.891 308.662 193.891 308.603 193.891C298.438 193.891 287.196 196.987 276.323 199.977C263.458 203.511 250.165 207.181 238.48 205.761C221.469 203.692 205.034 196.67 189.145 189.889C177.386 184.876 165.214 179.68 153.264 176.766C142.981 174.259 137.847 179.363 132.403 184.755C127.151 189.965 121.707 195.356 111.35 194.103C98.3371 192.517 88.8506 184.166 79.6887 176.086C70.5858 168.067 61.9846 160.486 50.2556 159.006C37.125 157.36 30.2351 166.965 22.9322 177.128C17.0161 185.389 10.8786 193.922 1.06758 196.187C-8.86149 198.482 -16.6956 193.786 -24.2641 189.24C-32.9096 184.06 -41.8355 178.699 -53.9628 183.879C-62.5641 187.549 -69.7932 193.106 -76.4766 199.207V198.12C-69.8818 192.155 -62.7411 186.748 -54.2874 183.139C-41.7912 177.793 -32.6883 183.26 -23.8805 188.545C-16.1054 193.212 -8.75822 197.622 0.875783 195.402C10.4065 193.197 16.4407 184.785 22.2683 176.645C28.8631 167.463 35.6497 158.009 47.4082 158.009C48.3524 158.009 49.3261 158.07 50.3293 158.191C62.3091 159.686 71.3973 167.705 80.1903 175.452C89.2637 183.456 98.6617 191.732 111.423 193.287C121.411 194.495 126.708 189.255 131.827 184.166C137.183 178.85 142.715 173.368 153.426 175.965C165.436 178.895 177.637 184.09 189.425 189.134C205.27 195.9 221.646 202.892 238.539 204.946C250.047 206.35 263.295 202.711 276.087 199.192C287.078 196.172 298.438 193.091 308.751 193.076C324.286 193.136 340.102 196.7 355.386 200.159C358.927 200.959 362.498 201.759 366.097 202.53V203.375C362.483 202.59 358.854 201.775 355.254 200.959Z" fill="white" fill-opacity="0.3"/>
<path d="M23.9501 187.957C30.3384 178.488 36.9332 168.702 49.1785 168.702C49.99 168.702 50.8162 168.747 51.6719 168.838C64.2123 170.122 73.8463 178.262 83.1705 186.145C92.893 194.36 102.94 202.847 116.499 204.04C127.121 204.977 132.093 199.072 136.903 193.363C141.889 187.459 147.038 181.357 158.28 183.698C171.145 186.371 184.114 191.793 196.654 197.033C205.093 200.567 213.68 204.146 222.399 206.985H219.817C211.865 204.267 204.046 201.005 196.344 197.788C183.833 192.563 170.895 187.157 158.118 184.483C147.348 182.248 142.568 187.897 137.507 193.892C132.55 199.751 127.431 205.822 116.425 204.856C102.616 203.648 92.4652 195.07 82.6541 186.764C72.9906 178.609 63.873 170.892 51.5833 169.638C38.202 168.264 31.5924 178.05 24.5993 188.41C19.5536 195.916 14.3309 203.618 6.29024 207H3.92969C12.9588 204.237 18.5356 195.976 23.9501 187.957Z" fill="white" fill-opacity="0.3"/>
<path d="M26.3255 199.721C32.3449 189.98 38.5561 179.922 51.1703 179.922C51.9522 179.922 52.7489 179.968 53.5751 180.043C66.8237 181.312 76.9446 189.618 86.7409 197.652C90.68 200.884 94.6635 204.161 98.8977 207H97.4666C93.5865 204.312 89.8834 201.292 86.2393 198.286C76.5462 190.328 66.5139 182.097 53.5013 180.859C39.7364 179.545 33.5399 189.557 26.9894 200.159C25.5731 202.47 24.142 204.78 22.6076 207H21.6191C23.2715 204.659 24.8059 202.183 26.3255 199.721Z" fill="white" fill-opacity="0.3"/>
<path d="M142.526 202.967C148.427 196.141 153.989 189.708 163.859 191.867C175.75 194.48 187.774 199.282 200.507 204.387C202.675 205.247 204.844 206.123 207.028 206.984H204.829C203.295 206.365 201.746 205.761 200.212 205.142C187.509 200.052 175.514 195.25 163.682 192.668C154.269 190.599 148.84 196.866 143.101 203.496C142.083 204.658 141.08 205.836 140.032 206.984H138.926C140.165 205.7 141.345 204.326 142.526 202.967Z" fill="white" fill-opacity="0.3"/>
<path d="M170.011 201.337C163.401 200.098 158.916 202.847 155.021 207H153.93C158.09 202.349 162.87 199.162 170.173 200.521C177.624 201.911 185.119 204.236 192.776 207H190.341C183.451 204.599 176.709 202.59 170.011 201.337Z" fill="white" fill-opacity="0.3"/>
<path d="M54.1851 191.777C54.8047 191.777 55.4391 191.808 56.1031 191.853C68.555 192.759 78.4988 199.66 87.9262 207H86.6132C77.5251 199.978 67.9058 193.529 56.0588 192.668C44.5216 191.838 38.4284 198.573 33.1024 207H32.1582C37.2629 198.86 43.3118 191.777 54.1851 191.777Z" fill="white" fill-opacity="0.3"/>
<path d="M59.1937 205.067C55.0923 204.871 51.7138 205.611 48.7926 207H47.0664C50.0761 205.263 53.5874 204.221 57.8659 204.221C58.3085 204.221 58.7659 204.236 59.2233 204.251C63.7526 204.478 67.9868 205.475 71.9997 207H69.5359C66.2459 205.943 62.8231 205.248 59.1937 205.067Z" fill="white" fill-opacity="0.3"/>
</g>
<defs>
<linearGradient id="paint0_linear_10361_1896" x1="211" y1="5.45635" x2="76.6099" y2="150.364" gradientUnits="userSpaceOnUse">
<stop stop-color="#892D2D"/>
<stop offset="1" stop-color="white" stop-opacity="0"/>
</linearGradient>
</defs>
</svg>
