<svg width="371" height="747" viewBox="0 0 371 747" fill="none" xmlns="http://www.w3.org/2000/svg">
<g clip-path="url(#clip0_5062_5005)">
<path opacity="0.8" d="M185.769 441.617H185.747C14.126 441.617 -125 302.242 -125 130.313V115.304C-125 -56.6245 14.126 -196 185.747 -196H185.769C357.39 -196 496.516 -56.6245 496.516 115.304V130.313C496.516 302.242 357.39 441.617 185.769 441.617Z" stroke="#262626" stroke-width="0.94" stroke-miterlimit="10"/>
<path d="M184.769 415.617H184.747C13.126 415.617 -126 276.242 -126 104.313V89.304C-126 -82.6245 13.126 -222 184.747 -222H184.769C356.39 -222 495.516 -82.6245 495.516 89.304V104.313C495.516 276.242 356.39 415.617 184.769 415.617Z" fill="#067544" stroke="#06C270" stroke-width="0.94" stroke-miterlimit="10"/>
<path d="M471.902 105.134C471.902 263.794 343.344 392.414 184.76 392.414C26.1752 392.414 -102.383 263.794 -102.383 105.134V95.7488C-102.383 -62.9119 26.1752 -191.532 184.76 -191.532C343.344 -191.532 471.902 -62.9119 471.902 95.7488V105.134Z" fill="#05A05D" stroke="#06C270" stroke-opacity="0.9" stroke-width="0.94" stroke-miterlimit="10"/>
<path d="M439.7 112.616C439.7 253.777 325.559 368.211 184.76 368.211C43.9606 368.211 -70.1797 253.777 -70.1797 112.616V104.266C-70.1797 -36.8952 43.9606 -151.329 184.76 -151.329C325.559 -151.329 439.7 -36.8952 439.7 104.266V112.616Z" fill="#06C270" stroke="#06C270" stroke-opacity="0.9" stroke-width="0.94" stroke-miterlimit="10"/>
</g>
<defs>
<clipPath id="clip0_5062_5005">
<rect width="371" height="747" fill="white"/>
</clipPath>
</defs>
</svg>
