<svg width="371" height="95" viewBox="0 0 371 95" fill="none" xmlns="http://www.w3.org/2000/svg">
<mask id="mask0_2169_10612" style="mask-type:alpha" maskUnits="userSpaceOnUse" x="0" y="0" width="371" height="95">
<rect width="371" height="95" fill="#144CC7"/>
</mask>
<g mask="url(#mask0_2169_10612)">
<path opacity="0.1" fill-rule="evenodd" clip-rule="evenodd" d="M367.29 -206.474L388.796 -314.069L386.986 -314.429L364.75 -203.183L266.197 -127.034L225.781 -147.618L187.809 -95.3111L161.148 -122.176L141.621 -98.3987L108.278 -131.814L53.001 -119.613L13.3323 -146.767L-37.414 -133.858L-72.0752 -92.799L-132.35 -86.1081L-160.984 -15.8626L-159.274 -15.167L-131.055 -84.3954L-71.1399 -91.0464L-36.3854 -132.216L12.9776 -144.773L52.6172 -117.639L107.686 -129.794L141.754 -95.6525L161.277 -119.425L188.027 -92.4706L226.348 -145.258L266.401 -124.86L366.293 -202.043L365.069 -196.605L267.187 -122.154L227.279 -142.117L189.743 -90.7345L163.135 -117.049L143.701 -93.4325L110.858 -125.913L56.3996 -113.65L17.6031 -139.479L-32.6936 -126.179L-67.2976 -85.5349L-127.684 -79.1019L-157.601 -9.82118L-155.906 -9.09064L-126.417 -77.3814L-66.3698 -83.7782L-31.6629 -124.544L17.2709 -137.483L56.0334 -111.677L110.277 -123.891L143.841 -90.6982L163.275 -114.315L189.969 -87.9151L227.849 -139.768L267.389 -119.99L366.722 -195.545L391.41 -305.226L389.609 -305.63L367.29 -206.474ZM394.021 -296.381L367.017 -188.939L268.379 -115.124L229.353 -134.28L191.913 -83.3638L165.272 -109.204L145.925 -85.743L112.868 -117.987L59.4501 -105.715L21.5658 -130.19L-26.94 -116.872L-61.5989 -76.507L-121.777 -70.3686L-152.54 -3.01715L-154.219 -3.78282L-123.016 -72.0968L-62.5191 -78.2677L-27.9728 -118.501L21.8745 -132.188L59.7977 -107.688L113.437 -120.011L145.778 -88.4651L165.122 -111.922L191.679 -86.1617L228.781 -136.617L268.178 -117.278L365.386 -190.024L392.23 -296.83L394.021 -296.381ZM396.631 -287.536L367.314 -182.335L269.366 -110.257L230.858 -128.792L193.853 -78.8115L167.266 -104.093L148.009 -80.7878L115.46 -112.084L62.8673 -99.753L25.8583 -122.896L-22.2172 -109.2L-56.828 -69.2357L-117.136 -63.3559L-149.169 3.05795L-150.832 2.25727L-118.348 -65.0916L-57.7406 -71.0005L-23.2521 -110.823L26.1424 -124.895L63.1952 -101.725L116.016 -114.11L147.854 -83.4974L167.105 -106.794L193.613 -81.5877L230.283 -131.117L269.166 -112.401L365.707 -183.443L394.852 -288.03L396.631 -287.536ZM399.244 -278.688L367.607 -175.733L270.353 -105.39L232.362 -123.304L195.795 -74.2561L169.263 -98.9855L150.093 -75.833L118.05 -106.184L66.2883 -93.7927L30.1544 -115.604L-17.4946 -101.528L-52.0569 -61.9647L-112.499 -56.3424L-145.803 9.13415L-147.448 8.29853L-113.683 -58.0853L-52.9618 -63.7336L-18.5318 -103.145L30.4126 -117.604L66.5953 -95.7634L118.594 -108.211L149.931 -78.5298L169.09 -101.67L195.547 -77.0107L231.785 -125.617L270.155 -107.524L366.024 -176.865L397.479 -279.229L399.244 -278.688ZM401.852 -269.842L367.904 -169.128L271.343 -100.525L233.864 -117.815L197.739 -69.7051L171.261 -93.8753L152.177 -70.8814L120.642 -100.281L69.7067 -87.8312L34.4511 -108.312L-12.7729 -93.8586L-47.2872 -54.6965L-107.858 -49.33L-142.437 15.2075L-144.065 14.337L-109.014 -51.0799L-48.1843 -56.4693L-13.8123 -95.4699L34.6824 -110.312L69.9918 -89.8002L121.173 -102.31L152.006 -73.5646L171.076 -96.5428L197.483 -72.4378L233.283 -120.116L271.146 -102.648L366.346 -170.285L400.103 -270.431L401.852 -269.842ZM404.462 -260.997L368.196 -162.526L272.331 -95.655L235.368 -112.328L199.68 -65.1529L173.258 -88.765L154.262 -65.927L123.235 -94.3775L73.1258 -81.8699L38.7452 -101.018L-8.04694 -86.1877L-42.5164 -47.4253L-103.221 -42.3165L-139.071 21.2837L-140.68 20.3786L-104.349 -44.0731L-43.4057 -49.2021L-9.08875 -87.793L38.948 -103.018L73.3875 -83.8368L123.751 -96.4081L154.082 -68.5963L173.063 -91.4154L199.417 -67.8637L234.785 -114.615L272.135 -97.768L366.664 -163.707L402.73 -261.633L404.462 -260.997ZM407.07 -252.147L368.489 -155.92L273.318 -90.7882L236.874 -106.837L201.622 -60.5976L175.253 -83.6534L156.347 -60.9726L125.826 -88.4773L76.5456 -75.9087L43.0423 -93.7297L-3.32384 -78.5156L-37.7453 -40.1541L-98.5802 -35.3041L-135.706 27.3599L-137.294 26.4202L-99.6805 -37.0674L-38.6267 -41.9348L-4.36813 -80.1147L43.2152 -95.7282L76.7825 -77.8732L126.328 -90.5094L156.158 -63.6278L175.046 -86.2867L201.351 -63.2863L236.288 -109.112L273.123 -92.8906L366.984 -157.126L405.357 -252.832L407.07 -252.147ZM409.679 -243.301L368.784 -149.315L274.306 -85.9215L238.379 -101.35L203.562 -56.0455L177.251 -78.5434L158.435 -56.0197L128.419 -82.5742L79.9661 -69.9478L47.3411 -86.4387L1.39886 -70.8434L-32.9757 -32.8859L-93.9382 -28.2893L-132.339 33.4318L-133.906 32.4579L-95.0108 -30.0587L-33.8491 -34.6704L0.352149 -72.4365L47.4827 -88.4352L80.1768 -71.9093L128.906 -84.6078L158.236 -58.6601L177.032 -81.1594L203.284 -58.712L237.79 -103.611L274.112 -88.0133L367.307 -150.546L407.986 -244.036L409.679 -243.301ZM412.283 -234.453L369.078 -142.713L275.297 -81.053L239.884 -95.8624L205.504 -51.4903L179.249 -73.4333L160.52 -51.066L131.012 -76.6711L83.3916 -63.9854L51.6379 -79.147L6.12071 -63.1744L-28.205 -25.6148L-89.301 -21.276L-128.974 39.5075L-130.52 38.4999L-90.3458 -23.0515L-29.0704 -27.4031L5.07144 -64.7615L51.7464 -81.1403L83.5743 -65.9434L131.484 -78.7061L160.311 -53.6911L179.018 -76.032L205.219 -54.1346L239.291 -98.1106L275.104 -83.1342L367.629 -143.969L410.613 -235.238L412.283 -234.453ZM414.888 -225.603L369.369 -136.108L276.284 -76.1865L241.385 -90.3743L207.448 -46.9396L181.246 -68.3266L162.605 -46.1158L133.605 -70.7714L86.8139 -58.0253L55.9384 -71.8571L10.8438 -55.5026L-23.4341 -18.344L-84.6602 -14.2644L-125.61 45.5831L-127.133 44.542L-85.6773 -16.0458L-24.2914 -20.136L9.79185 -57.0836L56.0121 -73.8464L86.9667 -59.9791L134.06 -72.8075L162.386 -48.725L181.003 -70.9075L207.155 -49.5615L240.79 -92.6087L276.092 -78.2569L367.95 -137.388L413.243 -226.438L414.888 -225.603ZM417.493 -216.756L369.659 -129.504L277.271 -71.3199L242.89 -84.8873L209.388 -42.3876L183.244 -63.2167L164.69 -41.1627L136.199 -64.8684L90.2371 -52.0653L60.2388 -64.5705L15.5666 -47.8304L-18.6647 -11.0758L-80.0197 -7.25269L-122.247 51.6553L-123.747 50.5811L-81.0091 -9.0397L-19.5137 -12.8716L14.512 -49.4054L60.2758 -66.5546L90.3583 -54.0143L136.636 -66.9056L164.46 -43.7555L182.989 -65.78L209.088 -44.9871L242.291 -87.1078L277.08 -73.3796L368.27 -130.81L415.875 -217.642L417.493 -216.756ZM420.095 -207.908L369.952 -122.9L278.262 -66.4545L244.395 -79.4003L211.33 -37.8328L185.239 -58.1055L166.777 -36.2097L138.793 -58.9657L93.6615 -46.106L64.5385 -57.2806L20.2898 -40.1583L-13.8941 -3.80478L-75.382 -0.239889L-118.883 57.7306L-120.36 56.6239L-76.344 -2.03231L-14.7349 -5.60423L19.2324 -41.7274L64.5365 -59.2581L93.7487 -48.0492L139.213 -61.0037L166.535 -38.7855L184.972 -60.6509L211.022 -40.4098L243.792 -81.6066L278.071 -68.5034L368.595 -124.231L418.505 -208.845L420.095 -207.908ZM422.697 -199.057L370.241 -116.297L279.251 -61.5846L245.9 -73.9135L213.271 -33.2806L187.237 -52.9957L168.863 -31.2571L141.388 -53.0628L97.0871 -40.1468L68.8424 -49.9924L25.013 -32.486L-9.12323 3.4663L-70.7412 6.77178L-115.521 63.8026L-116.973 62.6638L-71.6759 4.97418L-9.95566 1.66321L23.9529 -34.0493L68.7992 -51.9618L97.138 -42.0834L141.789 -55.1014L168.609 -33.8152L186.958 -55.523L212.956 -35.8349L245.294 -76.1053L279.06 -63.6228L368.916 -117.652L421.138 -200.044L422.697 -199.057ZM425.299 -190.211L370.534 -109.692L280.238 -56.718L247.405 -68.4269L215.216 -28.727L189.236 -47.8861L170.95 -26.3048L143.982 -47.1631L100.517 -34.1894L73.1474 -42.7051L29.7347 -24.8168L-4.35686 10.7355L-66.1033 13.7843L-112.155 69.876L-113.582 68.7059L-67.0109 11.9818L-5.18086 8.92885L28.6717 -26.3743L73.0606 -44.6648L100.529 -36.1184L144.363 -49.2022L170.683 -28.8445L188.943 -50.3952L214.893 -31.2586L246.795 -70.604L280.048 -58.7452L369.242 -111.073L423.773 -191.248L425.299 -190.211ZM427.898 -181.364L370.824 -103.086L281.229 -51.8528L248.908 -62.9394L217.157 -24.1751L191.234 -42.7764L173.04 -21.3543L146.578 -41.2607L103.945 -28.2315L77.4507 -35.4177L34.458 -17.1447L0.416598 18.0053L-61.4613 20.7986L-108.793 75.9503L-110.193 74.7493L-62.3419 18.9913L-0.398984 16.1951L33.392 -18.6963L77.3177 -37.3658L103.915 -30.1516L146.938 -43.2999L172.76 -23.8749L190.929 -45.2674L216.826 -26.684L248.293 -65.1012L281.038 -53.8692L369.565 -104.492L426.406 -182.45L427.898 -181.364ZM430.498 -172.519L371.115 -96.4849L282.217 -46.9862L250.413 -57.4531L219.097 -19.6234L193.23 -37.6657L175.126 -16.4059L149.175 -35.3584L107.375 -22.2743L81.7572 -28.1353L39.1813 -9.47249L5.18405 25.2775L-56.8203 27.8098L-105.431 82.0213L-106.806 80.7902L-57.6741 25.998L4.3771 23.4638L38.1123 -11.0184L81.5752 -30.07L107.3 -24.1843L149.513 -37.3974L174.832 -18.9065L192.912 -40.1381L218.76 -22.1093L249.794 -59.5996L282.026 -48.9918L369.89 -97.9147L429.043 -173.653L430.498 -172.519ZM433.096 -163.669L371.403 -89.8793L283.206 -42.1167L251.919 -51.964L221.039 -15.0686L195.227 -32.5592L177.214 -11.4549L151.77 -29.4595L110.806 -16.3179L86.0663 -20.8512L43.9043 -1.80032L9.9535 32.5452L-52.1822 34.8218L-102.07 88.0948L-103.417 86.8342L-53.0095 33.0058L9.1552 30.7281L42.8322 -3.34049L85.8324 -22.7701L110.684 -18.2163L152.085 -31.498L176.905 -13.9349L194.896 -35.0134L220.694 -17.5318L251.296 -54.0948L283.015 -44.1114L370.213 -91.3333L431.68 -164.852L433.096 -163.669ZM435.694 -154.825L371.693 -83.2783L284.193 -37.2499L253.424 -46.4781L222.983 -10.5182L197.226 -27.4498L179.302 -6.50437L154.368 -23.5575L114.239 -10.3622L90.3737 -13.5669L48.6265 5.869L14.7239 39.8161L-47.541 41.8328L-98.7078 94.168L-100.028 92.8787L-48.342 40.0127L13.9343 37.9956L47.5513 4.33443L90.0848 -15.4675L114.066 -12.2473L154.658 -25.5951L178.977 -8.96277L196.881 -29.8852L222.631 -12.9584L252.797 -48.5929L284.002 -39.234L370.539 -84.756L434.318 -156.054L435.694 -154.825ZM438.289 -145.979L371.981 -76.6732L285.184 -32.3845L254.927 -40.991L224.923 -5.96641L199.224 -22.3404L181.391 -1.55438L156.963 -17.6546L117.674 -4.40749L94.686 -6.28535L53.3499 13.5412L19.4942 47.087L-42.8996 48.8437L-95.3472 100.238L-96.6393 98.9205L-43.6745 47.0197L18.7134 45.2631L52.2714 12.0123L94.3389 -8.16507L117.445 -6.27751L157.228 -19.6908L181.049 -3.9901L198.866 -24.7571L224.564 -8.38372L254.295 -43.0894L284.992 -34.3578L370.864 -78.1742L436.956 -147.254L438.289 -145.979ZM440.885 -137.132L372.271 -70.0723L286.173 -27.5177L256.432 -35.5051L226.865 -1.41151L201.223 -17.231L183.48 3.39554L159.565 -11.7542L121.114 1.5453L99.0001 0.995028L58.0731 21.2138L24.2649 54.3581L-38.261 55.8558L-91.9829 106.309L-93.2467 104.965L-39.0102 54.0281L23.4929 52.5309L56.9913 19.6904L98.5913 -0.860859L120.826 -0.307584L159.803 -13.7886L183.121 0.983237L200.852 -19.6288L226.499 -3.80601L255.795 -37.587L285.98 -29.4804L371.19 -71.5962L439.594 -138.451L440.885 -137.132ZM443.481 -128.289L372.558 -63.4677L287.162 -22.648L257.938 -30.0196L228.805 3.14019L203.219 -12.1206L185.572 8.34022L162.161 -5.85492L124.552 7.49802L103.312 8.27186L62.7966 28.8861L29.0339 61.6258L-33.6194 62.8664L-88.6218 112.381L-89.8569 111.011L-34.3431 61.0353L28.2709 59.7954L61.7114 27.3682L102.838 6.44277L124.203 5.66442L162.37 -7.88687L185.194 5.95273L202.834 -14.4994L228.432 0.768734L257.296 -32.0847L286.968 -24.6002L371.515 -65.014L442.236 -129.651L443.481 -128.289ZM446.074 -119.446L372.848 -56.8645L288.154 -17.7825L259.444 -24.5342L230.75 7.69375L205.218 -7.01124L187.662 13.2887L164.761 0.0459711L127.994 13.4525L107.629 15.549L67.5201 36.5585L33.8041 68.8966L-28.9806 69.8781L-85.262 118.45L-86.4681 117.054L-29.679 68.0437L33.0501 67.063L66.4315 35.0459L107.087 13.75L127.578 11.6406L164.94 -1.98292L187.264 10.9269L204.819 -9.3709L230.37 5.3452L258.796 -26.5821L287.958 -19.7242L371.843 -58.4326L444.875 -120.849L446.074 -119.446ZM448.669 -110.606L373.134 -50.2635L289.142 -12.9155L260.946 -19.0478L232.69 12.2456L207.217 -1.90213L189.752 18.2367L167.363 5.94635L131.437 19.4028L111.948 22.8243L72.2421 44.228L38.5746 76.1674L-24.3387 76.8886L-81.9009 124.521L-83.0777 123.1L-25.0122 75.0511L37.8298 74.3307L71.15 42.7207L111.335 21.0587L130.95 17.615L167.509 3.92132L189.335 15.9019L206.804 -4.2426L232.304 9.91984L260.294 -21.0782L288.944 -14.8469L372.168 -51.8528L447.517 -112.047L448.669 -110.606ZM-20.3444 82.0614L42.6078 81.5952L75.8699 50.3982L115.578 28.3702L134.32 23.5907L170.076 9.82281L191.404 20.8771L208.788 0.882567L234.238 14.4943L261.794 -15.5755L289.931 -9.97007L372.496 -45.2709L450.158 -103.24L451.262 -101.762L373.424 -43.661L290.131 -8.04875L262.453 -13.5628L234.63 16.7972L209.215 3.20393L191.843 23.1838L169.964 11.8432L134.881 25.3516L116.265 30.0991L76.9656 51.9002L43.3434 83.4349L-19.6954 83.9018L-78.5402 130.592L-79.6875 129.147L-20.3444 82.0614ZM-15.6808 89.0703L47.3872 88.863L80.59 58.076L119.823 35.6825L137.689 29.5678L172.644 15.7282L193.473 25.8535L210.77 6.01224L236.173 19.0719L263.295 -10.0725L290.919 -5.09006L372.821 -38.6903L452.798 -94.4349L453.854 -92.9216L373.71 -37.0606L291.121 -3.17858L263.959 -8.0776L236.571 21.3522L211.211 8.31428L193.935 28.1307L172.567 17.743L138.328 31.2992L120.586 37.3715L81.6893 59.5729L48.1136 90.7058L-15.0561 90.9134L-75.1807 136.659L-76.2984 135.191L-15.6808 89.0703ZM175.21 21.634L195.541 30.8303L212.754 11.1409L238.11 23.6454L264.795 -4.5694L291.908 -0.214305L373.15 -32.1075L455.442 -85.6302L456.448 -84.0837L373.999 -30.4587L292.113 1.68748L265.465 -2.59277L238.514 25.9028L213.21 13.4234L196.028 33.0763L175.171 23.642L141.778 37.2444L124.907 44.639L86.413 67.2453L52.8836 97.9767L-10.4137 97.9236L-71.8171 142.728L-72.9051 141.238L-11.0145 96.0779L52.1667 96.1309L85.3098 65.7536L124.066 42.993L141.049 35.5497L141.06 35.5448L175.21 21.634ZM177.776 27.5403L197.607 35.805L214.739 16.2693L240.045 28.2229L266.294 0.933812L292.894 4.66238L373.475 -25.5263L458.084 -76.8201L459.04 -75.2426L374.284 -23.8592L293.102 6.55479L266.971 2.89197L240.455 30.4579L215.209 18.5323L198.12 38.0183L177.777 29.5403L145.226 43.1895L129.226 51.9093L91.1352 74.915L57.6527 105.244L-5.77112 104.934L-68.4562 148.798L-69.5144 147.286L-6.34833 103.086L56.9452 103.395L90.0282 73.4282L128.307 50.3091L144.426 41.5245L177.776 27.5403ZM180.338 33.4445L199.677 40.7823L216.724 21.3979L241.979 32.7973L267.792 6.44142L293.881 9.54183L373.804 -18.9428L460.727 -68.0134L461.635 -66.407L374.573 -17.2582L294.093 11.4252L268.476 8.38082L242.395 35.0099L217.209 23.6414L200.217 42.9614L180.383 35.4352L148.675 49.1333L133.549 59.1775L95.8589 82.5876L62.4227 112.515L-1.13132 111.945L-65.0968 154.864L-66.1253 153.332L-1.68527 110.095L61.7246 110.663L94.748 81.1056L132.551 57.6252L147.792 47.5051L180.338 33.4445ZM182.901 39.3524L201.742 45.7617L218.709 26.5264L243.914 37.3716L269.292 11.9448L294.87 14.417L374.129 -12.3607L463.368 -59.2045L464.226 -57.571L374.858 -10.6594L295.085 16.2916L269.982 13.8654L244.335 39.5619L219.208 28.7503L202.312 47.905L182.991 41.3321L152.124 55.0762L137.871 66.4448L100.583 90.2602L67.1926 119.786L3.5116 118.955L-61.7362 160.933L-62.7349 159.381L2.98056 117.103L66.5042 117.931L99.4679 88.7831L136.796 64.9422L151.158 53.4869L182.901 39.3524ZM185.462 45.2608L203.807 50.7417L220.691 31.656L245.852 41.9477L270.792 17.4481L295.855 19.293L374.459 -5.77653L466.013 -50.3928L466.821 -48.7344L375.147 -4.05943L296.075 21.1594L271.489 19.3497L246.278 44.1158L221.204 33.8601L204.408 52.8473L185.6 47.228L155.572 61.0182L142.187 73.7095L105.306 97.9329L71.9615 127.053L8.15163 125.966L-58.3757 167.001L-59.3446 165.431L7.64311 124.111L71.2828 125.196L104.187 96.4605L141.036 72.2579L154.524 59.4693L185.462 45.2608ZM222.674 36.7818L247.787 46.5219L272.291 22.9518L296.84 24.169L374.785 0.809592L468.653 -41.5817L469.413 -39.9003L375.433 2.54166L297.065 26.0277L272.996 24.8342L248.217 48.6682L223.203 38.9664L206.505 57.7891L188.21 53.1202L159.023 66.9586L146.507 80.976L110.03 105.606L76.7313 134.323L12.795 132.975L-55.0161 173.066L-55.9554 171.478L12.3087 131.12L76.0625 132.464L108.907 104.138L145.283 79.5761L157.895 65.4516L188.022 51.1676L205.871 55.7229L222.674 36.7818ZM224.658 41.9104L249.722 51.0959L273.791 28.4554L297.826 29.0476L375.114 7.39182L471.293 -32.7697L472.004 -31.0672L375.72 9.13796L298.057 30.899L274.503 30.3186L250.156 53.2206L225.202 44.0752L208.601 62.7267L190.822 59.0142L162.469 72.8994L150.825 88.2422L114.753 113.276L81.5012 141.594L17.4397 139.988L-51.6522 179.132L-52.5619 177.527L16.9752 138.131L80.8421 139.732L113.626 111.812L149.532 86.8939L161.263 71.4354L190.58 57.0784L207.933 60.702L224.658 41.9104ZM226.643 47.039L251.658 55.6727L275.287 33.9602L298.814 33.9217L375.44 13.9787L473.937 -23.955L474.6 -22.2333L376.006 15.738L299.051 35.7665L276.007 35.8041L252.096 57.7762L227.202 49.1841L210.7 67.6664L193.436 64.907L165.914 78.8428L155.141 95.5087L119.477 120.949L86.2712 148.864L22.0804 146.999L-48.2926 185.196L-49.173 183.574L21.6373 145.14L85.6221 147L118.345 119.49L153.782 94.2117L164.635 77.4225L193.137 62.9905L209.995 65.685L226.643 47.039ZM228.624 52.1688L253.597 60.2451L276.786 39.4636L299.798 38.7966L375.766 20.5629L476.577 -15.1414L477.193 -13.4023L376.29 22.3345L300.042 40.6355L277.514 41.2883L254.038 62.3273L229.198 54.294L212.799 72.6052L196.05 70.7952L169.357 84.7829L159.452 102.776L124.2 128.622L91.0396 156.132L26.7241 154.009L-44.9317 191.262L-45.783 189.625L26.3022 152.148L90.4006 154.264L123.064 127.167L158.031 101.53L168.007 83.4069L195.691 68.9004L212.056 70.6689L228.624 52.1688ZM230.609 57.2974L255.534 64.8217L278.284 44.9671L300.782 43.6712L376.096 27.1495L479.219 -6.32802L479.788 -4.57312L376.579 28.9323L301.034 45.5048L279.021 46.7728L255.977 66.8834L231.198 59.4028L214.903 77.5418L198.667 76.6853L172.797 90.723L163.763 110.041L128.925 136.295L95.8093 163.402L31.3681 161.018L-41.5707 197.329L-42.3931 195.677L30.967 159.157L95.1805 161.533L127.784 134.844L162.285 108.844L171.382 89.3915L198.245 74.8152L214.119 75.6527L230.609 57.2974ZM232.593 62.426L257.47 69.3951L279.783 50.4705L301.769 48.5473L376.421 33.7348L481.857 2.48743L482.381 4.25642L376.863 35.5281L302.03 50.3766L280.529 52.2573L257.915 71.4364L233.197 64.5118L217.005 82.4785L201.285 82.5738L176.235 96.663L168.072 117.309L133.654 143.959L133.64 143.97L100.579 170.673L36.0092 168.029L-38.2105 203.391L-39.0042 201.726L35.6285 166.166L99.9605 168.8L132.502 142.518L166.542 116.16L174.759 95.3763L200.797 80.7315L216.179 80.6383L232.593 62.426ZM234.577 67.5546L259.406 73.9682L281.279 55.975L302.752 53.4209L376.751 40.3223L484.497 11.3066L484.976 13.0882L377.152 42.125L303.022 55.2469L282.034 57.7433L259.853 75.9897L235.197 69.6207L219.107 87.4147L203.905 88.4606L179.673 102.602L172.377 124.578L105.347 177.94L40.6536 175.038L-34.8462 209.456L-35.6116 207.777L40.2929 173.175L104.739 176.065L170.798 123.477L178.141 101.36L203.348 86.6495L218.237 85.6251L234.577 67.5546ZM236.561 72.6801L261.344 78.5441L282.778 61.4811L303.736 58.2937L377.077 46.9084L487.137 20.1223L487.573 21.9151L377.437 48.7197L304.016 60.1175L283.542 63.2311L261.791 80.5462L237.196 74.7266L221.21 92.3501L206.525 94.3426L183.107 108.541L176.682 131.848L143.098 159.31L143.091 159.316L110.114 185.211L45.2951 182.048L-31.4848 215.521L-32.2221 213.83L44.9542 180.184L109.516 183.335L141.937 157.876L141.951 157.865L175.059 130.792L181.522 107.345L205.897 92.5659L220.295 90.6123L236.561 72.6801ZM238.542 77.8099L263.284 83.1154L284.277 66.9838L304.72 63.1653L377.407 53.4968L489.774 28.9399L490.168 30.7424L377.763 55.3075L377.725 55.3157L305.011 64.988L285.05 68.7163L263.731 85.0986L239.192 79.8367L223.312 97.2818L209.147 100.226L186.538 114.481L180.983 139.119L147.837 166.971L147.822 166.983L114.884 192.482L49.9399 189.058L-28.1244 221.583L-28.834 219.88L49.6182 187.193L114.296 190.603L146.663 165.548L179.319 138.107L184.906 113.329L208.445 98.4875L222.351 95.5973L238.542 77.8099ZM240.526 82.9384L265.221 87.6878L285.775 72.4864L305.703 68.0403L377.733 60.0871L492.415 37.7599L492.767 39.571L378.011 61.9127L306.006 69.8632L286.558 74.202L265.668 89.6527L241.192 84.9455L225.417 102.216L211.77 106.108L189.967 120.421L185.283 146.387L152.545 174.654L119.652 199.749L54.585 196.067L-24.7623 227.647L-25.4445 225.933L54.2824 194.201L119.075 197.868L151.381 173.221L183.582 145.418L188.291 119.314L210.993 104.411L224.407 100.586L240.526 82.9384ZM242.511 88.0672L267.161 92.263L287.273 77.9884L306.684 72.9116L378.062 66.6734L495.051 46.5788L495.363 48.3973L378.298 68.5048L307 74.7361L288.067 79.688L267.605 94.2104L243.192 90.055L227.524 107.149L214.393 111.985L193.395 126.361L189.583 153.658L157.269 182.327L124.422 207.019L59.2282 203.08L-21.4002 233.711L-22.0554 231.987L58.9441 201.215L123.856 205.137L156.1 180.898L187.849 152.73L191.679 125.299L213.54 110.333L226.466 105.573L242.511 88.0672ZM244.495 93.1956L269.102 96.8334L288.768 83.4911L307.665 77.782L378.389 73.2644L497.69 55.3968L497.962 57.2217L378.584 75.1008L307.994 79.6098L289.571 85.1757L269.543 98.764L245.192 95.164L229.629 112.084L217.016 117.863L196.82 132.301L193.878 160.932L161.994 190.001L129.191 214.289L63.8736 210.089L-18.0393 239.772L-18.6678 238.038L63.6079 208.223L128.636 212.405L160.82 188.575L192.114 160.044L195.069 131.284L216.087 116.259L228.522 110.562L244.495 93.1956ZM246.476 98.3251L271.042 101.408L290.267 88.9917L308.648 82.6503L378.717 79.8517L500.325 64.2167L500.559 66.0467L378.871 81.6921L308.993 84.4832L291.08 90.6629L271.479 103.322L247.188 100.274L231.734 117.018L219.639 123.74L200.246 138.239L198.175 168.205L166.718 197.675L133.959 221.556L68.519 217.098L-14.6737 245.835L-15.276 244.091L68.2712 215.232L133.415 219.67L165.539 196.251L196.383 167.355L198.463 137.268L218.634 122.188L230.578 115.55L246.476 98.3251ZM248.46 103.45L272.982 105.979L291.765 94.4916L309.629 87.5218L379.044 86.4435L502.96 73.0401L503.158 74.8745L379.157 88.2871L309.99 89.3615L292.588 96.1509L273.413 107.878L249.187 105.38L233.837 121.95L222.262 129.614L203.668 144.178L202.47 175.478L171.442 205.348L138.728 228.827L73.1616 224.109L-11.3124 251.895L-11.8888 250.142L72.9315 222.242L138.195 226.938L170.258 203.927L200.654 174.666L201.856 143.254L221.182 128.117L232.633 120.535L248.46 103.45ZM250.444 108.579L274.923 110.549L293.263 99.9907L310.608 92.3892L379.372 93.0317L505.597 81.8595L505.759 83.6974L379.445 94.8776L310.986 94.238L294.096 101.64L275.346 112.434L251.186 110.49L235.941 126.886L224.893 135.478L224.873 135.493L207.088 150.117L206.76 182.751L176.166 213.019L143.498 236.097L77.8073 231.117L-7.94962 257.958L-8.50053 256.197L77.5945 229.251L142.975 234.207L174.976 211.601L204.922 181.974L205.251 149.239L223.73 134.045L223.74 134.037L234.69 125.521L250.444 108.579ZM252.428 113.707L276.869 115.12L294.761 105.489L294.777 105.481L311.59 97.2544L379.699 99.6243L508.23 90.6806L508.357 92.5213L379.73 101.472L311.986 99.1145L295.603 107.13L277.283 116.992L253.186 115.599L238.044 131.823L227.508 141.353L227.501 141.36L210.508 156.059L211.053 190.026L180.89 220.693L148.267 243.367L82.4533 238.126L-4.58667 264.02L-5.11256 262.252L82.2574 236.26L147.756 241.475L179.695 219.277L209.195 189.283L208.648 155.228L226.27 139.985L226.285 139.971L236.748 130.508L252.428 113.707ZM254.412 118.835L278.811 119.689L296.243 110.997L296.272 110.982L312.567 102.119L380.028 106.216L510.867 99.5039L510.961 101.347L380.019 108.064L312.983 103.993L297.11 112.626L297.095 112.633L279.215 121.55L255.186 120.708L240.15 136.757L240.146 136.76L240.143 136.764L230.119 147.231L213.925 161.998L215.345 197.301L185.614 228.367L153.035 250.634L87.0962 245.136L-1.22477 270.08L-1.72598 268.304L86.9171 243.27L152.535 248.74L184.414 226.953L213.469 196.592L212.046 161.214L228.829 145.911L238.803 135.496L238.81 135.489L254.412 118.835ZM256.397 123.963L280.755 124.261L297.754 116.481L313.546 106.986L380.354 112.807L513.499 108.326L513.56 110.17L380.304 114.655L313.982 108.876L298.617 118.115L281.146 126.111L257.185 125.818L242.248 141.699L232.736 153.103L217.34 167.936L219.634 204.578L190.339 236.041L157.804 257.904L91.7424 252.145L2.13888 276.142L1.66187 274.36L91.5796 250.279L157.316 256.009L189.133 234.629L217.742 203.902L215.445 167.2L231.383 151.844L240.865 140.476L256.397 123.963Z" fill="white"/>
</g>
</svg>
