<svg width="120" height="12" viewBox="0 0 120 12" fill="none" xmlns="http://www.w3.org/2000/svg">
<path fill-rule="evenodd" clip-rule="evenodd" d="M109.577 11.9122H107.216L110.495 0H112.851L109.577 11.9122ZM14.8199 6.03768C15.1907 6.20954 15.4297 6.58272 15.4297 6.99026C15.4297 7.15721 15.3907 7.32416 15.3126 7.47146C15.1084 8.13936 14.9303 8.8121 14.7519 9.48622C14.6745 9.7785 14.597 10.071 14.5173 10.3636C14.4442 11.2769 13.683 11.9791 12.7755 11.9791C12.673 11.9791 12.5706 11.9692 12.4681 11.9496C8.44157 11.9496 4.41988 11.9545 0.39335 11.9594H0.392935H0.392519H0.3921H0.391682H0.391265H0.390841H0.390417H0.389995H0.389569H0.389139L0.381629 11.9594H0.380199L0.367894 11.9594C0.0507508 11.9594 -0.0663482 11.9299 0.0361134 11.5715C1.07537 7.86919 2.09998 4.16197 3.11972 0.454755C3.14411 0.233795 3.32952 0.061937 3.54908 0.061937C3.5686 0.061937 3.59299 0.061937 3.61251 0.0668472C5.68858 0.0717574 7.76586 0.0729852 9.84315 0.0742127L9.84356 0.074213C11.9207 0.0754405 13.9979 0.0766679 16.0738 0.0815778C16.1323 0.0717574 16.1909 0.061937 16.2494 0.061937C16.713 0.061937 17.0838 0.440025 17.0838 0.901586C17.0838 1.01943 17.0594 1.13237 17.0106 1.24039C16.6983 2.47777 16.3568 3.70532 16.0006 4.93288C15.8103 5.473 15.3712 5.88546 14.8199 6.03768ZM5.39339 2.3992C7.10853 2.42162 8.81953 2.41271 10.5304 2.4038L10.5305 2.4038C11.4429 2.39905 12.3553 2.39429 13.2683 2.39429C13.7318 2.39429 14.1075 2.77238 14.1075 3.23885C14.1075 3.3567 14.0831 3.47454 14.0343 3.58748C13.9026 4.32401 13.2634 4.86414 12.5169 4.86414C9.92122 4.85923 7.32064 4.85923 4.72007 4.87396C4.29071 4.87396 4.27607 4.7021 4.38341 4.3682C4.55418 3.87718 4.69567 3.38125 4.80302 2.8755C4.80789 2.60543 5.02746 2.39429 5.29581 2.39429C5.32781 2.38969 5.35552 2.39371 5.38698 2.39828L5.38699 2.39828L5.39339 2.3992ZM3.95893 7.16703C6.56926 7.16703 9.18447 7.17194 11.7997 7.18176C12.6974 7.18667 13.0536 8.0165 12.5267 8.87088C12.2437 9.35208 11.7314 9.64669 11.1751 9.64669C10.3662 9.64669 9.55723 9.64376 8.74897 9.64082H8.74877H8.74873H8.7487H8.74866H8.74863H8.7486H8.74857H8.74853H8.7485H8.74847H8.74844C6.99763 9.63445 5.24766 9.62809 3.49541 9.65161C3.1002 9.65652 2.9148 9.6025 3.07581 9.14094C3.2363 8.67822 3.35438 8.19997 3.47117 7.72689L3.47118 7.72688L3.51493 7.55003C3.54908 7.32907 3.73937 7.16703 3.95893 7.16703ZM88.9289 11.9662C89.4119 11.9662 89.8462 11.6372 89.973 11.1658L93.0469 0.0294622H90.6902L88.0409 9.63386H78.6047L81.254 0.0294622H78.8925L75.926 10.7829C75.8284 11.1167 75.8675 11.4015 76.0285 11.6274C76.1895 11.8533 76.4383 11.9662 76.7701 11.9662H88.9289ZM108.353 0.373176C108.192 0.147305 107.938 0.0343719 107.596 0.0343719H94.6326L93.9934 2.37164H105.786L105.098 4.86603H95.6621V4.86112H93.3054L91.3489 11.9711H93.7055L95.018 7.2033H105.62C105.952 7.2033 106.264 7.09036 106.557 6.86449C106.85 6.63862 107.04 6.35383 107.133 6.01993L108.445 1.25211C108.543 0.888751 108.514 0.599047 108.353 0.373176ZM25.7621 4.85544C25.3853 4.85733 25.0085 4.85923 24.6318 4.85923C24.2759 4.85923 23.92 4.85861 23.5641 4.858L23.5632 4.858C22.4947 4.85616 21.4262 4.85432 20.3577 4.86905C20.0308 4.87396 19.9429 4.80521 20.0454 4.45659C20.2581 3.71438 20.4583 2.96903 20.6583 2.22409L20.6584 2.22388L20.6584 2.22365C20.8117 1.65297 20.965 1.08227 21.1237 0.513678C21.2115 0.199423 21.1725 0.0668471 20.8163 0.0815778C20.304 0.106129 19.7868 0.106129 19.2745 0.0815778C19.255 0.0766676 19.2306 0.0766676 19.2111 0.0766676C18.9866 0.0766676 18.8012 0.253436 18.7866 0.479306C18.3426 2.14387 17.8888 3.80844 17.4351 5.47301C16.8984 7.45183 16.3568 9.43556 15.8152 11.4144L15.8099 11.4331C15.7243 11.7389 15.6545 11.9882 16.147 11.9545C16.3861 11.9398 16.63 11.9299 16.874 11.9299C17.1082 11.9299 17.3521 11.9349 17.5863 11.9496C17.6156 11.9545 17.6449 11.9594 17.6741 11.9594C17.9083 11.9594 18.1035 11.7826 18.123 11.547C18.2635 11.0121 18.4108 10.478 18.5582 9.94378C18.7639 9.19799 18.9698 8.45179 19.1574 7.70225C19.172 7.39781 19.4209 7.16212 19.7234 7.16212C19.7526 7.16212 19.7819 7.16212 19.8112 7.16703C22.5728 7.18176 25.3392 7.18176 28.1008 7.16212C28.5399 7.15721 28.5887 7.30943 28.4814 7.6826C28.3099 8.28101 28.1459 8.88158 27.9818 9.48228C27.7959 10.1629 27.6098 10.8444 27.4129 11.5224C27.3202 11.8465 27.3738 11.9594 27.7203 11.9447C27.9252 11.9299 28.1301 11.9201 28.335 11.9201C28.5595 11.9201 28.7839 11.9299 29.0083 11.9496C29.062 11.9643 29.1157 11.9692 29.1694 11.9692C29.5353 11.9692 29.8329 11.6746 29.8427 11.3064C30.1787 10.0247 30.5277 8.74556 30.8764 7.46717L30.8764 7.46711L30.8773 7.46392C31.0092 6.98025 31.1411 6.49669 31.2723 6.01313C31.4286 5.43922 31.584 4.86435 31.7395 4.28911L31.7397 4.28845L31.7399 4.2876L31.74 4.2873L31.7405 4.28559C32.0796 3.0312 32.4191 1.77499 32.7701 0.523498C32.8726 0.165052 32.7897 0.0570267 32.4286 0.0766676C32.209 0.0913983 31.9846 0.101219 31.765 0.101219C31.5357 0.101219 31.3113 0.0913983 31.0868 0.0766676C31.0429 0.0668472 31.0039 0.061937 30.96 0.061937C30.6526 0.061937 30.3989 0.307448 30.3891 0.621703C30.1974 1.40928 29.9875 2.19277 29.7776 2.97613C29.6616 3.40888 29.5457 3.84158 29.4328 4.27491C29.4084 4.61372 29.1303 4.87887 28.7888 4.87887C28.7741 4.87887 28.7595 4.87764 28.7449 4.87641C28.7302 4.87518 28.7156 4.87396 28.701 4.87396C27.7214 4.84559 26.7417 4.85051 25.7621 4.85544ZM35.6196 0.115949H36.1319C36.8149 0.115949 36.8198 0.115949 36.6442 0.749368L36.1351 2.60549L36.1346 2.60738L36.1342 2.60887L36.1341 2.60928C35.3477 5.47689 34.5607 8.34663 33.7704 11.2131C33.5557 11.9938 33.5459 11.9938 32.7506 11.9938C32.6436 11.9938 32.536 11.993 32.4284 11.9922L32.4281 11.9922H32.428H32.4279C32.1581 11.9902 31.8871 11.9882 31.6187 11.9987C31.282 12.0134 31.2137 11.9005 31.3064 11.5666C32.2187 8.29685 33.1163 5.0222 34.0139 1.74755L34.014 1.74719L34.0141 1.74697L34.0142 1.74661L34.0143 1.74638L34.0143 1.74622L34.0143 1.74618L34.0143 1.74614C34.1265 1.40243 34.2192 1.0538 34.2875 0.700266V0.675715C34.2875 0.34673 34.551 0.086488 34.8779 0.086488C34.9365 0.086488 34.9999 0.0963084 35.0536 0.115949C35.156 0.12577 35.2634 0.12577 35.3707 0.12577C35.4103 0.12328 35.4524 0.122053 35.4951 0.120808C35.5366 0.119598 35.5787 0.11837 35.6196 0.115949ZM48.4818 6.80115L48.4841 6.79909C48.6 6.6963 48.7161 6.59328 48.8322 6.48942C48.8761 6.53852 48.9005 6.60727 48.9005 6.68092C48.9005 6.73002 48.8859 6.77912 48.8615 6.82332C48.7703 7.1593 48.6794 7.49552 48.5885 7.83182L48.5875 7.83556L48.5865 7.83931L48.5864 7.83958L48.5855 7.84292C48.2588 9.05101 47.9318 10.2603 47.5929 11.4635C47.4905 11.8219 47.5246 11.9741 47.9345 11.9496C48.1687 11.9349 48.4077 11.9299 48.6419 11.9299C48.8859 11.9299 49.1347 11.9349 49.3787 11.9496C49.4031 11.9545 49.4323 11.9594 49.4616 11.9594C49.7105 11.9594 49.9203 11.763 49.9349 11.5126C50.458 9.57413 50.987 7.63568 51.5163 5.69642C51.9496 4.10866 52.3831 2.52035 52.8136 0.931048C52.9014 0.7641 52.9502 0.5726 52.9502 0.381102C52.9502 0.317269 52.9453 0.253436 52.9356 0.194513C52.6839 0.409668 52.4424 0.617661 52.206 0.821296L52.2042 0.822808L52.2008 0.825755L52.1987 0.82754L52.1962 0.829694C51.9181 1.06924 51.6469 1.30286 51.3742 1.535C48.8474 3.68517 46.3304 5.84515 43.8134 8.00513L43.8129 8.00554L43.8116 8.00668L43.7808 8.03317C43.565 8.21886 43.4563 8.31242 43.3648 8.29782C43.272 8.283 43.197 8.15675 43.0458 7.90235L43.0407 7.89374C41.6501 5.55157 40.2596 3.2143 38.8642 0.877035C38.7519 0.631524 38.5909 0.410563 38.3909 0.228885C38.3567 0.263256 38.3275 0.302538 38.3031 0.34182C37.2784 4.10305 36.249 7.86428 35.2146 11.6206C35.1316 11.9152 35.2585 11.9496 35.4878 11.9447C35.5806 11.9428 35.6736 11.9405 35.7667 11.9382L35.7671 11.9381H35.7672C36.1729 11.9279 36.5801 11.9176 36.9808 11.9496C37.015 11.9545 37.0491 11.9594 37.0833 11.9594C37.3663 11.9594 37.5956 11.7385 37.6053 11.4537C38.0445 9.78418 38.4933 8.11961 38.9569 6.45996C38.9813 6.1899 39.0886 5.92965 39.2545 5.71851C39.2984 5.7578 39.3423 5.8069 39.3765 5.856C39.614 6.26752 39.8518 6.67881 40.0896 7.09007L40.0902 7.09117L40.0914 7.09319C40.9567 8.58976 41.8217 10.0859 42.6748 11.5911C42.865 11.9299 42.9919 11.8907 43.2359 11.6599L44.0963 10.8567L44.098 10.8551L44.0988 10.8544L44.0992 10.854L44.0994 10.8538L44.0996 10.8536C45.284 9.74785 46.467 8.64331 47.6563 7.54512C47.9278 7.29268 48.2041 7.04755 48.4818 6.80115ZM54.3797 9.51946L51.8573 11.8812L51.7744 11.8173L51.9258 11.2513L51.9264 11.2492L51.9265 11.2488L51.9266 11.2485C52.1639 10.3614 52.4017 9.47225 52.6429 8.5864C53.3748 5.91033 54.1066 3.23917 54.8434 0.563095V0.538544C54.8434 0.405968 54.9117 0.283212 55.0288 0.219379C55.1561 0.198027 55.1886 0.297897 55.2209 0.397485V0.397497C55.2332 0.435314 55.2455 0.47309 55.263 0.504172C55.402 0.76214 55.5283 1.02616 55.6545 1.29001L55.6545 1.29006L55.6545 1.29012L55.6546 1.29019L55.6546 1.29028L55.6547 1.29039C55.8689 1.73821 56.0829 2.18553 56.3583 2.60197L57.1072 0.0715352L57.2486 0.344791C57.4994 0.829223 57.7166 1.24899 57.9269 1.67227C58.1058 2.03077 58.2834 2.39007 58.4611 2.74948L58.4619 2.7512L58.464 2.75542C58.9108 3.65916 59.3579 4.56362 59.8249 5.45805C59.9127 5.58081 59.9566 5.72811 59.9566 5.88033C59.9566 6.13075 59.8298 6.36644 59.6151 6.49902C58.2769 7.74644 56.9577 9.01605 55.6393 10.2849C55.1985 10.7091 54.7577 11.1333 54.3164 11.5566C54.2042 11.7039 54.0529 11.8168 53.8773 11.8757C54.1016 11.105 54.2724 10.3147 54.3797 9.51946ZM54.5156 9.38763C54.7759 9.13601 55.0358 8.88389 55.2956 8.63176L55.2984 8.62903L55.2986 8.62884C56.0433 7.90623 56.788 7.18361 57.5442 6.47256C56.7065 7.25725 55.8882 8.05306 55.072 8.84685C54.8865 9.02726 54.7011 9.20758 54.5156 9.38763ZM57.6057 6.41508C57.6329 6.39779 57.6584 6.37837 57.682 6.35713C57.6596 6.37686 57.6355 6.39496 57.6098 6.41117L57.6057 6.41508ZM116.93 0.0192453L119.911 5.99008L113.637 11.9609L114.383 9.25537L117.813 5.99008L116.184 2.72478L116.93 0.0192453ZM114.832 0.0192453L117.813 5.99008L111.539 11.9609L114.832 0.0192453ZM67.5196 1.96573V9.82863H68.1196V1.96573H67.5196Z" fill="#606267"/>
</svg>
