<svg width="80" height="61" viewBox="0 0 80 61" fill="none" xmlns="http://www.w3.org/2000/svg">
<path d="M76 5H4C2.93913 5 1.92165 5.4232 1.17151 6.17651C0.421363 6.92982 0 7.95153 0 9.01687V50.9831C0 52.0485 0.421363 53.0702 1.17151 53.8235C1.92165 54.5768 2.93913 55 4 55H76C77.0609 55 78.0782 54.5768 78.8284 53.8235C79.5785 53.0702 80 52.0485 80 50.9831V9.01687C80 7.95153 79.5785 6.92982 78.8284 6.17651C78.0782 5.4232 77.0609 5 76 5Z" fill="#3CBF77"/>
<path d="M4.86985 26.6448C4.49459 27.1869 4.23246 27.8021 4.09984 28.4523C3.96672 29.1016 3.96672 29.7721 4.09984 30.4214L9.03558 55H59.3308C59.3802 54.9394 59.4393 54.899 59.4887 54.8283L64 49.6279L8.91713 21L4.86985 26.6448Z" fill="#0D0D0D"/>
<path d="M10.4798 18.4902L6.4798 24.0803C6.09966 24.617 5.83412 25.2263 5.69978 25.8702C5.56492 26.5132 5.56492 27.1772 5.69978 27.8203L11.4898 56.2202C11.7421 57.4552 12.4578 58.5466 13.4898 59.2702C14.5332 59.9853 15.8089 60.2783 17.0598 60.0902L58.5698 53.8502C59.8299 53.6634 60.9693 52.9971 61.7498 51.9902L66.3198 46.8402L10.4798 18.4902Z" fill="#273E37" stroke="#0D0D0D" stroke-width="0.3" stroke-linecap="round" stroke-linejoin="round"/>
<path d="M67.22 43.44L60.82 13.5899C60.5862 12.5785 59.9835 11.6907 59.1299 11.0999C58.2549 10.4948 57.1814 10.2479 56.1299 10.4099L48.8799 11.5C47.9485 11.6331 46.9987 11.5264 46.12 11.19C45.2406 10.8617 44.4618 10.3103 43.86 9.58993C43.3896 9.03907 42.7876 8.616 42.11 8.35995C41.432 8.09955 40.6979 8.0203 39.98 8.12997L27.2699 9.99997C26.5987 10.0984 25.9684 10.3824 25.45 10.82C24.9288 11.2577 24.5408 11.8328 24.33 12.4799C24.0496 13.3115 23.5483 14.0513 22.8799 14.62C22.2085 15.1898 21.391 15.5605 20.5199 15.69L13.2699 16.76C12.719 16.8337 12.1886 17.0173 11.71 17.3C11.2341 17.5864 10.8223 17.9676 10.5 18.42C10.1787 18.8775 9.95091 19.3941 9.82998 19.94C9.72008 20.4845 9.72008 21.0454 9.82998 21.5899L15.9199 51.5899C16.1378 52.6189 16.7384 53.5268 17.6 54.13C18.4737 54.738 19.5484 54.9852 20.6 54.82L63.7599 48.3399C64.3152 48.2593 64.849 48.0689 65.33 47.7799C65.8068 47.4863 66.2185 47.0984 66.5399 46.64C66.8636 46.1849 67.0885 45.6671 67.2 45.12C67.3296 44.5682 67.3364 43.9947 67.22 43.44Z" fill="white" stroke="#0D0D0D" stroke-width="0.3" stroke-linecap="round" stroke-linejoin="round"/>
<path d="M67.22 43.44L60.82 13.5899C60.5862 12.5785 59.9835 11.6907 59.1299 11.0999C58.2549 10.4948 57.1814 10.2479 56.1299 10.4099L48.8799 11.5C47.9485 11.6331 46.9987 11.5264 46.12 11.19C45.2406 10.8617 44.4618 10.3103 43.86 9.58993C43.3896 9.03907 42.7876 8.616 42.11 8.35995C41.432 8.09955 40.6979 8.0203 39.98 8.12997L27.2699 9.99997C26.5987 10.0984 25.9684 10.3824 25.45 10.82C24.9288 11.2577 24.5408 11.8328 24.33 12.4799C24.0496 13.3115 23.5483 14.0513 22.8799 14.62C22.2085 15.1898 21.391 15.5605 20.5199 15.69L13.2699 16.76C12.719 16.8337 12.1886 17.0173 11.71 17.3C11.2341 17.5864 10.8223 17.9676 10.5 18.42C10.1787 18.8775 9.95091 19.3941 9.82998 19.94C9.72008 20.4845 9.72008 21.0454 9.82998 21.5899L15.9199 51.5899C16.1378 52.6189 16.7384 53.5268 17.6 54.13C18.4737 54.738 19.5484 54.9852 20.6 54.82L63.7599 48.3399C64.3152 48.2593 64.849 48.0689 65.33 47.7799C65.8068 47.4863 66.2185 47.0984 66.5399 46.64C66.8636 46.1849 67.0885 45.6671 67.2 45.12C67.3296 44.5682 67.3364 43.9947 67.22 43.44Z" fill="white" stroke="#0D0D0D" stroke-width="0.3" stroke-linecap="round" stroke-linejoin="round"/>
<path d="M30.85 20.0498L26.5199 26.2298C25.2718 28.1693 24.58 30.4142 24.5199 32.7198C24.4582 35.0259 25.0289 37.3049 26.1699 39.3098C27.8147 42.3593 30.5674 44.661 33.86 45.7398C37.1517 46.8194 40.7327 46.5902 43.86 45.0998C45.845 44.1398 47.5215 42.6434 48.7 40.7798L51.4299 36.7798L30.85 20.0498Z" fill="#273E37" stroke="#0D0D0D" stroke-width="0.3" stroke-linecap="round" stroke-linejoin="round"/>
<path d="M52.5099 22.7097C50.8379 19.6774 48.0796 17.3908 44.79 16.3097C41.4975 15.2425 37.9224 15.4677 34.79 16.9397C33.2832 17.6912 31.9486 18.7467 30.87 20.0397C29.7913 21.3284 28.9911 22.8265 28.5199 24.4397C28.0437 26.0611 27.9076 27.7633 28.12 29.4397C28.3299 31.1077 28.8814 32.7144 29.74 34.1597C31.4074 37.1998 34.1722 39.4889 37.47 40.5597C40.7641 41.6208 44.3381 41.3921 47.47 39.9197C48.9725 39.1658 50.306 38.1146 51.3899 36.8297C52.4687 35.5411 53.2689 34.0429 53.74 32.4297C54.2172 30.8085 54.3499 29.1053 54.1299 27.4297C53.9198 25.7618 53.3683 24.1551 52.5099 22.7097Z" fill="white" stroke="#0D0D0D" stroke-width="0.3" stroke-linecap="round" stroke-linejoin="round"/>
<path d="M48.2898 34.18C47.5288 35.0828 46.5891 35.8182 45.5298 36.3399C43.3393 37.3791 40.8332 37.5367 38.5298 36.7799C36.2369 36.0364 34.3178 34.4395 33.1698 32.32C32.409 31.0002 32.0089 29.5034 32.0098 27.98C32.0103 26.4567 32.4103 24.9603 33.1698 23.64C33.9846 22.2584 35.1832 21.1432 36.6199 20.43C38.8096 19.3877 41.3169 19.2301 43.6199 19.99C45.9148 20.7279 47.84 22.3167 48.9999 24.43C49.8918 25.9379 50.3 27.6829 50.1698 29.43C50.0412 31.1677 49.3853 32.8249 48.2898 34.18Z" fill="#273E37" stroke="#0D0D0D" stroke-width="0.3" stroke-linecap="round" stroke-linejoin="round"/>
<path d="M60.82 13.5903C60.5865 12.5761 59.9796 11.6871 59.1201 11.1003C58.2627 10.5065 57.212 10.2599 56.18 10.4103L50.57 11.2503C49.8758 14.2522 50.3288 17.4052 51.84 20.0903C53.0053 22.2049 54.7235 23.963 56.8107 25.1766C58.898 26.3902 61.2758 27.0136 63.69 26.9803L60.82 13.5903Z" fill="#0D0D0D" stroke="#0D0D0D" stroke-width="0.3" stroke-linecap="round" stroke-linejoin="round"/>
<path d="M74.84 7.05013C73.2436 4.09944 70.5752 1.87434 67.3857 0.834122C64.1961 -0.206097 60.729 0.0179535 57.7 1.4601C56.2605 2.19803 54.9864 3.22152 53.9555 4.46803C52.9245 5.71454 52.1583 7.15797 51.7035 8.71034C51.2488 10.2627 51.1149 11.8914 51.3103 13.4972C51.5057 15.103 52.0262 16.6521 52.84 18.0501C54.4348 21.0025 57.1018 23.2304 60.2909 24.2742C63.4801 25.318 66.9482 25.0982 69.98 23.6601C71.4232 22.9234 72.7008 21.8997 73.7344 20.6518C74.768 19.4039 75.5358 17.958 75.9909 16.4028C76.4459 14.8477 76.5785 13.216 76.3806 11.6077C76.1827 9.99949 75.6585 8.44859 74.84 7.05013Z" fill="#FFEB34" stroke="#0D0D0D" stroke-width="0.3" stroke-linecap="round" stroke-linejoin="round"/>
<path d="M64.17 19.8901C62.7812 19.8919 61.4172 19.5219 60.2197 18.8185C59.0221 18.1151 58.0348 17.104 57.36 15.8901C56.876 15.0334 56.5714 14.0871 56.4648 13.1089C56.3582 12.1307 56.4518 11.141 56.74 10.2001C57.0132 9.3024 57.4672 8.4701 58.0743 7.75463C58.6814 7.03916 59.4287 6.45566 60.27 6.04009C61.277 5.52973 62.3909 5.2658 63.52 5.27007C64.9086 5.26934 66.2722 5.63979 67.4695 6.34307C68.6669 7.04635 69.6544 8.05689 70.33 9.27007C70.8166 10.1314 71.1225 11.0828 71.2291 12.0663C71.3357 13.0497 71.2407 14.0446 70.95 14.9901C70.673 15.8861 70.2161 16.7162 69.6075 17.4297C68.9988 18.1433 68.2511 18.7253 67.41 19.1401C66.4037 19.6406 65.2938 19.8975 64.17 19.8901ZM58.94 10.7101V10.8401C58.7322 11.5009 58.6641 12.1978 58.7398 12.8863C58.8155 13.5749 59.0335 14.2402 59.3799 14.8401C59.8541 15.7044 60.5514 16.4257 61.3992 16.9287C62.247 17.4317 63.2142 17.6982 64.2 17.7001C64.9837 17.7063 65.7578 17.5282 66.46 17.1801C66.8539 16.9745 67.2173 16.7154 67.54 16.4101L67.78 16.1901L59.1 10.4501L58.94 10.7101ZM63.54 7.4901C62.7555 7.48703 61.9813 7.66856 61.28 8.02007C61.0886 8.12364 60.9049 8.24063 60.73 8.37011L60.43 8.58013L60.7 8.8001L68.83 14.1801L68.9 13.8101C69.1429 12.6294 68.9512 11.4006 68.36 10.3501C67.8835 9.48787 67.1856 8.76833 66.3383 8.26561C65.4911 7.7629 64.5251 7.4952 63.54 7.4901Z" fill="#0D0D0D"/>
</svg>
