<svg width="24" height="24" viewBox="0 0 24 24" fill="none" xmlns="http://www.w3.org/2000/svg">
<path d="M20.3668 5.53854H15.7721V4.55084C15.7667 4.32404 15.6784 4.10716 15.5239 3.94161C15.3568 3.78438 15.1373 3.6955 14.9083 3.69238H9.00852C8.78273 3.69777 8.5669 3.78649 8.40209 3.94161C8.24766 4.10716 8.15932 4.32404 8.15396 4.55084V5.53854H3.6328C3.40382 5.54165 3.18433 5.63053 3.01718 5.78776C2.86275 5.95331 2.77441 6.17019 2.76904 6.397V18.5262C2.76888 18.7542 2.85802 18.973 3.01718 19.1355C3.18433 19.2927 3.40382 19.3816 3.6328 19.3847H20.3668C20.5937 19.3849 20.8115 19.2953 20.9732 19.1355C21.055 19.0567 21.1199 18.9621 21.1642 18.8574C21.2084 18.7526 21.231 18.64 21.2306 18.5262V6.397C21.227 6.28349 21.2054 6.17129 21.1664 6.06469C21.1196 5.96124 21.054 5.86735 20.9732 5.78776C20.8932 5.70996 20.8 5.6474 20.6977 5.60315C20.5918 5.56317 20.4799 5.54133 20.3668 5.53854V5.53854Z" stroke="white" stroke-width="0.5" stroke-linecap="round" stroke-linejoin="round"/>
<path d="M11.9956 16.3846C12.8135 16.3846 13.6132 16.141 14.2932 15.6845C14.9733 15.2281 15.5031 14.5794 15.8161 13.8204C16.1291 13.0613 16.211 12.2261 16.0515 11.4204C15.8919 10.6146 15.4982 9.87446 14.9198 9.29354C14.3415 8.71261 13.6046 8.317 12.8024 8.15672C12.0002 7.99644 11.1689 8.0787 10.4133 8.3931C9.65764 8.70749 9.0118 9.2399 8.55742 9.923C8.10303 10.6061 7.86035 11.4092 7.86035 12.2308C7.86035 13.3324 8.29612 14.389 9.07163 15.168C9.84714 15.947 10.8989 16.3846 11.9956 16.3846Z" stroke="white" stroke-width="0.45" stroke-linecap="round" stroke-linejoin="round"/>
</svg>
