<svg width="67" height="54" viewBox="0 0 67 54" fill="none" xmlns="http://www.w3.org/2000/svg">
<g clip-path="url(#clip0_6493_6958)">
<path d="M51.2812 12.0811L2.70117 19.3116L9.48242 53.3161L58.4299 45.9196L51.2812 12.0811Z" fill="#3F3F3F" stroke="#8A8A8A" stroke-width="0.5" stroke-linecap="round" stroke-linejoin="round"/>
<path d="M53.1801 9.43555L4.59131 16.6661L11.3726 50.6706L60.3201 43.2741L53.1801 9.43555Z" fill="#DFDFDF" stroke="#0D0D0D" stroke-width="0.27" stroke-linecap="round" stroke-linejoin="round"/>
<path d="M53.1801 9.43555L4.59131 16.6661L11.3726 50.6706L60.3201 43.2741L53.1801 9.43555Z" fill="#DFDFDF" stroke="#0D0D0D" stroke-width="0.4" stroke-linecap="round" stroke-linejoin="round"/>
<g style="mix-blend-mode:overlay">
<path d="M17.1038 49.8058L28.89 48.0331L38.2788 11.6533L25.3113 13.5832L17.1125 49.8058H17.1038Z" fill="white"/>
</g>
<path d="M53.1801 9.43555L4.59131 16.6661L11.3726 50.6706L60.3201 43.2741L53.1801 9.43555Z" stroke="#0D0D0D" stroke-width="0.27" stroke-linecap="round" stroke-linejoin="round"/>
<path d="M7.18125 29.6597L55.9012 22.3156L54.44 15.4082L5.78125 22.6387L7.18125 29.6597Z" fill="#0D0D0D" stroke="#0D0D0D" stroke-width="0.27" stroke-linejoin="round"/>
<path d="M55.5512 36.8552C55.4549 36.3749 55.1749 35.9557 54.7724 35.6763C54.3699 35.3969 53.8799 35.2746 53.3899 35.3445L44.6137 36.6631C44.3774 36.698 44.1499 36.7766 43.9487 36.9076C43.7474 37.0298 43.5724 37.1958 43.4324 37.3966C43.2924 37.5887 43.2049 37.8158 43.1524 38.0515C43.1087 38.2873 43.1087 38.5231 43.1524 38.7589C43.2487 39.2392 43.5374 39.6671 43.9399 39.9552C44.3512 40.2347 44.8499 40.3569 45.3399 40.2783L54.0987 38.9597C54.3349 38.9248 54.5624 38.8375 54.7637 38.7152C54.9649 38.593 55.1399 38.427 55.2799 38.2262C55.4199 38.0341 55.5074 37.807 55.5599 37.5713C55.6037 37.3355 55.6037 37.0997 55.5599 36.8639L55.5512 36.8552Z" fill="white" stroke="#0D0D0D" stroke-width="0.4" stroke-linecap="round" stroke-linejoin="round"/>
<path d="M65.1325 17.897C64.8 16.2378 64.1263 14.666 63.1725 13.2688C62.2538 11.9152 61.09 10.7538 59.7338 9.8456C58.395 8.92868 56.89 8.27374 55.3063 7.90698C54.3263 7.67993 53.3288 7.56641 52.3225 7.56641C51.6488 7.56641 50.975 7.6188 50.31 7.72359C48.665 7.97684 47.0813 8.54445 45.6463 9.40024C44.2813 10.2211 43.0913 11.3127 42.1638 12.6051C41.2275 13.9062 40.5625 15.3733 40.2213 16.9364C39.88 18.5781 39.88 20.2722 40.2213 21.914C40.5625 23.5906 41.2275 25.1887 42.1813 26.6208C44.0363 29.4501 46.8713 31.4936 50.1438 32.3843C51.1763 32.6724 52.2438 32.8209 53.32 32.8209C53.95 32.8209 54.58 32.7685 55.2013 32.6724C56.855 32.4192 58.4388 31.8254 59.8388 30.9085C61.2213 30.0178 62.4025 28.8476 63.3213 27.4853C64.24 26.0968 64.8788 24.5425 65.1938 22.9095C65.5088 21.2503 65.4913 19.5474 65.1325 17.897Z" fill="#0D0D0D" stroke="#0D0D0D" stroke-width="0.27" stroke-linecap="round" stroke-linejoin="round"/>
<path d="M63.1812 11.5835C64.1087 12.9283 64.7474 14.4478 65.0712 16.0546C65.4124 17.6526 65.4299 19.2944 65.1237 20.8924C64.8174 22.473 64.2049 23.975 63.3124 25.3111C62.4287 26.6297 61.2912 27.7562 59.9524 28.6207C58.6049 29.5027 57.0737 30.079 55.4812 30.3235C54.8774 30.4196 54.2737 30.4633 53.6612 30.4633C52.6287 30.4633 51.5962 30.3148 50.5987 30.0354C47.4399 29.1796 44.7012 27.1973 42.8987 24.4727C41.9799 23.093 41.3324 21.5474 41.0087 19.9231C40.6762 18.3338 40.6762 16.7008 41.0087 15.1202C41.3412 13.6095 41.9799 12.1861 42.8812 10.9373C43.7824 9.68857 44.9199 8.64066 46.2412 7.846C47.6237 7.02515 49.1462 6.475 50.7387 6.23048C51.3862 6.13443 52.0337 6.08203 52.6812 6.08203C53.6524 6.08203 54.6237 6.19555 55.5687 6.41387C57.0999 6.7719 58.5437 7.40064 59.8474 8.28263C61.1599 9.16462 62.2887 10.2824 63.1724 11.5923L63.1812 11.5835Z" fill="#565656" stroke="#0D0D0D" stroke-width="0.4" stroke-linecap="round" stroke-linejoin="round"/>
<path d="M66.2525 14.8147C65.9288 13.1992 65.2725 11.6623 64.3363 10.3087C63.4438 8.99011 62.3063 7.85488 60.9763 6.96416C59.6638 6.07344 58.2025 5.43596 56.6625 5.07793C55.7088 4.85962 54.7375 4.74609 53.7575 4.74609C53.1013 4.74609 52.445 4.79849 51.7975 4.89455C50.1875 5.13906 48.6475 5.68921 47.2563 6.52753C45.9263 7.33092 44.7625 8.39629 43.8525 9.65378C42.9425 10.92 42.295 12.3609 41.9625 13.8803C41.63 15.4784 41.63 17.1376 41.9625 18.7356C42.295 20.3686 42.9425 21.9317 43.87 23.3202C45.6813 26.0709 48.4463 28.0707 51.64 28.9352C52.6463 29.2147 53.6875 29.3544 54.7375 29.3631C55.35 29.3631 55.9713 29.3194 56.575 29.2234C58.185 28.9789 59.7338 28.3938 61.0988 27.5031C62.4463 26.6298 63.5925 25.4946 64.4938 24.1585C65.395 22.805 66.0075 21.2855 66.3225 19.6875C66.6288 18.0719 66.6113 16.4215 66.27 14.8147H66.2525Z" fill="white" stroke="#0D0D0D" stroke-width="0.4" stroke-linecap="round" stroke-linejoin="round"/>
<path d="M63.5925 15.3467C63.3388 14.0805 62.8313 12.8841 62.0963 11.8188C61.3963 10.7883 60.5038 9.89759 59.4713 9.20772C58.4388 8.50912 57.2838 8.00263 56.0588 7.72319C54.7988 7.43502 53.495 7.38262 52.2263 7.58347C50.9663 7.77559 49.7588 8.22095 48.6738 8.87589C47.6413 9.4959 46.7488 10.3255 46.0488 11.2948C45.3488 12.2641 44.85 13.3644 44.5963 14.5346C44.3338 15.7746 44.3338 17.0583 44.5963 18.2983C44.85 19.582 45.3663 20.8045 46.0925 21.8961C47.5275 24.0705 49.7063 25.6511 52.2263 26.341C53.4775 26.6728 54.79 26.7427 56.0675 26.5505C57.3188 26.3584 58.5175 25.8956 59.5675 25.197C60.6088 24.5246 61.5013 23.6426 62.1925 22.6209C62.8925 21.5643 63.3738 20.3854 63.6188 19.1453C63.8638 17.8966 63.855 16.6042 63.5925 15.3554V15.3467Z" fill="#1FC87F" stroke="#0D0D0D" stroke-width="0.4" stroke-linecap="round" stroke-linejoin="round"/>
<path d="M54.5449 10.9374L59.9349 15.7141L54.6237 22.2461L54.5449 10.9287V10.9374Z" fill="white" stroke="#0D0D0D" stroke-width="0.4" stroke-linecap="round" stroke-linejoin="round"/>
<path d="M50.4326 11.5918L55.8226 16.3685L50.5114 22.9092L50.4326 11.5918Z" fill="white" stroke="#0D0D0D" stroke-width="0.4" stroke-linecap="round" stroke-linejoin="round"/>
</g>
<path d="M64.0483 4.78566L66.375 4.05639L64.0483 3.32712L63.3084 1L62.5767 3.32712L60.25 4.05639L62.5767 4.78566L63.3084 7.11277L64.0483 4.78566Z" fill="white" stroke="#0D0D0D" stroke-width="0.33" stroke-linecap="round" stroke-linejoin="round"/>
<defs>
<clipPath id="clip0_6493_6958">
<rect width="65.8875" height="50.7535" fill="white" transform="translate(0.75 2.74609)"/>
</clipPath>
</defs>
</svg>
