<svg width="35" height="40" viewBox="0 0 35 40" fill="none" xmlns="http://www.w3.org/2000/svg">
    <mask id="path-1-inside-1_4027_7803" fill="white">
        <path fill-rule="evenodd" clip-rule="evenodd"
            d="M17.499 40C17.2808 40.0005 17.0662 39.9437 16.8765 39.8352L0.646215 30.648C0.246333 30.4212 -0.000710679 29.9952 2.86487e-06 29.5337L1.59885e-06 1.277C1.56725e-06 0.57173 0.568909 -2.54896e-08 1.27068 -5.69322e-08L33.7292 -1.51122e-06C34.431 -1.54266e-06 35 0.571728 35 1.277L35 29.5337C35.0007 29.9952 34.7537 30.4212 34.3537 30.648L18.1235 39.8352C17.9332 39.944 17.7179 40.0007 17.499 40ZM2.54138 28.797L17.499 37.2572L32.4587 28.797L32.4587 2.554L2.54138 2.554L2.54138 28.797ZM16.8761 27.0397C17.0667 27.1477 17.2818 27.2045 17.5005 27.2047C17.721 27.2067 17.9382 27.1512 18.1309 27.0437L23.269 24.1323L22.022 21.908L17.5065 24.466L13.6351 22.2814L13.6351 17.6719L11.0898 17.6719L11.0898 23.0162C11.0906 23.4772 11.3383 23.9021 11.738 24.1283L16.8761 27.0397ZM17.5027 33.6061C17.284 33.6058 17.0689 33.5491 16.8782 33.4413L6.19308 27.3918C5.7938 27.1656 5.54688 26.7406 5.54688 26.2799L5.54688 12.4215C5.54688 11.7163 6.11578 11.1445 6.81755 11.1445L22.5103 11.1445L22.5103 13.7045L8.08428 13.7045L8.08428 25.5391L17.5027 30.8636L26.9153 25.5331L26.9153 20.0021L29.4566 20.0021L29.4566 26.2799C29.4566 26.7406 29.2096 27.1656 28.8103 27.3918L18.1252 33.4413C17.9351 33.5488 17.7208 33.6056 17.5027 33.6061ZM26.9173 15.1209L29.4588 15.1209L29.4588 6.85119C29.4588 6.14594 28.8898 5.57422 28.1881 5.57422L10.0469 5.57422L10.0469 8.12819L26.9173 8.12819L26.9173 15.1209Z" />
    </mask>
    <path fill-rule="evenodd" clip-rule="evenodd"
        d="M17.499 40C17.2808 40.0005 17.0662 39.9437 16.8765 39.8352L0.646215 30.648C0.246333 30.4212 -0.000710679 29.9952 2.86487e-06 29.5337L1.59885e-06 1.277C1.56725e-06 0.57173 0.568909 -2.54896e-08 1.27068 -5.69322e-08L33.7292 -1.51122e-06C34.431 -1.54266e-06 35 0.571728 35 1.277L35 29.5337C35.0007 29.9952 34.7537 30.4212 34.3537 30.648L18.1235 39.8352C17.9332 39.944 17.7179 40.0007 17.499 40ZM2.54138 28.797L17.499 37.2572L32.4587 28.797L32.4587 2.554L2.54138 2.554L2.54138 28.797ZM16.8761 27.0397C17.0667 27.1477 17.2818 27.2045 17.5005 27.2047C17.721 27.2067 17.9382 27.1512 18.1309 27.0437L23.269 24.1323L22.022 21.908L17.5065 24.466L13.6351 22.2814L13.6351 17.6719L11.0898 17.6719L11.0898 23.0162C11.0906 23.4772 11.3383 23.9021 11.738 24.1283L16.8761 27.0397ZM17.5027 33.6061C17.284 33.6058 17.0689 33.5491 16.8782 33.4413L6.19308 27.3918C5.7938 27.1656 5.54688 26.7406 5.54688 26.2799L5.54688 12.4215C5.54688 11.7163 6.11578 11.1445 6.81755 11.1445L22.5103 11.1445L22.5103 13.7045L8.08428 13.7045L8.08428 25.5391L17.5027 30.8636L26.9153 25.5331L26.9153 20.0021L29.4566 20.0021L29.4566 26.2799C29.4566 26.7406 29.2096 27.1656 28.8103 27.3918L18.1252 33.4413C17.9351 33.5488 17.7208 33.6056 17.5027 33.6061ZM26.9173 15.1209L29.4588 15.1209L29.4588 6.85119C29.4588 6.14594 28.8898 5.57422 28.1881 5.57422L10.0469 5.57422L10.0469 8.12819L26.9173 8.12819L26.9173 15.1209Z"
        fill="white" fill-opacity="0.3" />
    <path
        d="M16.8765 39.8352L16.9975 39.6238L16.9965 39.6233L16.8765 39.8352ZM17.499 40L17.4999 39.7564L17.4985 39.7564L17.499 40ZM0.646215 30.648L0.526081 30.8599L0.52624 30.8599L0.646215 30.648ZM2.86487e-06 29.5337L0.243553 29.5341L0.243553 29.5337L2.86487e-06 29.5337ZM1.27068 -5.69322e-08L1.27068 -0.24355L1.27068 -5.69322e-08ZM33.7292 -1.51122e-06L33.7292 0.243548L33.7292 -1.51122e-06ZM35 29.5337L34.7564 29.5337L34.7564 29.5341L35 29.5337ZM34.3537 30.648L34.4737 30.8599L34.4739 30.8599L34.3537 30.648ZM18.1235 39.8352L18.0035 39.6233L18.0026 39.6238L18.1235 39.8352ZM17.499 37.2572L17.3791 37.4692L17.499 37.537L17.6189 37.4692L17.499 37.2572ZM2.54138 28.797L2.29783 28.797L2.29783 28.939L2.42147 29.009L2.54138 28.797ZM32.4587 28.797L32.5786 29.009L32.7023 28.9391L32.7023 28.797L32.4587 28.797ZM32.4587 2.554L32.7023 2.554L32.7023 2.31045L32.4587 2.31045L32.4587 2.554ZM2.54138 2.554L2.54138 2.31045L2.29783 2.31045L2.29783 2.554L2.54138 2.554ZM17.5005 27.2047L17.5028 26.9612L17.5008 26.9612L17.5005 27.2047ZM16.8761 27.0397L16.756 27.2516L16.756 27.2516L16.8761 27.0397ZM18.1309 27.0437L18.2496 27.2564L18.251 27.2556L18.1309 27.0437ZM23.269 24.1323L23.3891 24.3442L23.6 24.2247L23.4814 24.0132L23.269 24.1323ZM22.022 21.908L22.2345 21.7889L22.1148 21.5755L21.902 21.6961L22.022 21.908ZM17.5065 24.466L17.3868 24.6781L17.5067 24.7458L17.6265 24.6779L17.5065 24.466ZM13.6351 22.2814L13.3916 22.2814L13.3916 22.4236L13.5155 22.4935L13.6351 22.2814ZM13.6351 17.6719L13.8787 17.6719L13.8787 17.4283L13.6351 17.4283L13.6351 17.6719ZM11.0898 17.6719L11.0898 17.4283L10.8463 17.4283L10.8463 17.6719L11.0898 17.6719ZM11.0898 23.0162L10.8463 23.0162L10.8463 23.0166L11.0898 23.0162ZM11.738 24.1283L11.8581 23.9165L11.858 23.9164L11.738 24.1283ZM16.8782 33.4413L16.7583 33.6533L16.7584 33.6534L16.8782 33.4413ZM17.5027 33.6061L17.5024 33.8497L17.5033 33.8497L17.5027 33.6061ZM6.19308 27.3918L6.07301 27.6037L6.07309 27.6038L6.19308 27.3918ZM5.54688 26.2799L5.79043 26.2799L5.54688 26.2799ZM5.54688 12.4215L5.30333 12.4215L5.54688 12.4215ZM22.5103 11.1445L22.7539 11.1445L22.7539 10.901L22.5103 10.901L22.5103 11.1445ZM22.5103 13.7045L22.5103 13.948L22.7539 13.948L22.7539 13.7045L22.5103 13.7045ZM8.08428 13.7045L8.08428 13.4609L7.84073 13.4609L7.84073 13.7045L8.08428 13.7045ZM8.08428 25.5391L7.84073 25.5391L7.84073 25.6812L7.96442 25.7511L8.08428 25.5391ZM17.5027 30.8636L17.3829 31.0756L17.5028 31.1434L17.6227 31.0755L17.5027 30.8636ZM26.9153 25.5331L27.0353 25.745L27.1589 25.6751L27.1589 25.5331L26.9153 25.5331ZM26.9153 20.0021L26.9153 19.7585L26.6718 19.7585L26.6718 20.0021L26.9153 20.0021ZM29.4566 20.0021L29.7001 20.0021L29.7001 19.7585L29.4566 19.7585L29.4566 20.0021ZM29.4566 26.2799L29.7001 26.2799L29.4566 26.2799ZM28.8103 27.3918L28.9303 27.6038L28.9304 27.6037L28.8103 27.3918ZM18.1252 33.4413L18.2451 33.6533L18.2452 33.6533L18.1252 33.4413ZM29.4588 15.1209L29.4588 15.3644L29.7024 15.3644L29.7024 15.1209L29.4588 15.1209ZM26.9173 15.1209L26.6738 15.1209L26.6738 15.3644L26.9173 15.3644L26.9173 15.1209ZM28.1881 5.57422L28.1881 5.81777L28.1881 5.57422ZM10.0469 5.57422L10.0469 5.33067L9.80333 5.33067L9.80333 5.57422L10.0469 5.57422ZM10.0469 8.12819L9.80333 8.12819L9.80333 8.37174L10.0469 8.37174L10.0469 8.12819ZM26.9173 8.12819L27.1609 8.12819L27.1609 7.88464L26.9173 7.88464L26.9173 8.12819ZM16.7556 40.0467C16.9822 40.1763 17.2387 40.2441 17.4996 40.2435L17.4985 39.7564C17.3228 39.7568 17.1502 39.7112 16.9975 39.6238L16.7556 40.0467ZM0.52624 30.8599L16.7565 40.0472L16.9965 39.6233L0.76619 30.436L0.52624 30.8599ZM-0.243547 29.5334C-0.244395 30.0823 0.0494233 30.5896 0.526081 30.8599L0.766349 30.4361C0.443243 30.2529 0.242974 29.9082 0.243552 29.5341L-0.243547 29.5334ZM-0.243548 1.277L-0.243547 29.5337L0.243553 29.5337L0.243551 1.277L-0.243548 1.277ZM1.27068 -0.24355C0.433264 -0.24355 -0.243548 0.43836 -0.243548 1.277L0.243551 1.277C0.243551 0.7051 0.704554 0.24355 1.27068 0.24355L1.27068 -0.24355ZM33.7292 -0.243551L1.27068 -0.24355L1.27068 0.24355L33.7292 0.243548L33.7292 -0.243551ZM35.2435 1.277C35.2435 0.438339 34.5666 -0.243551 33.7292 -0.243551L33.7292 0.243548C34.2954 0.243548 34.7564 0.705118 34.7564 1.277L35.2435 1.277ZM35.2436 29.5337L35.2435 1.277L34.7564 1.277L34.7564 29.5337L35.2436 29.5337ZM34.4739 30.8599C34.9507 30.5896 35.2444 30.0822 35.2435 29.5333L34.7564 29.5341C34.7571 29.9082 34.5568 30.2529 34.2336 30.4361L34.4739 30.8599ZM18.2435 40.0472L34.4737 30.8599L34.2338 30.436L18.0035 39.6233L18.2435 40.0472ZM17.4982 40.2435C17.7598 40.2444 18.017 40.1766 18.2443 40.0467L18.0026 39.6238C17.8494 39.7114 17.6761 39.7571 17.4999 39.7564L17.4982 40.2435ZM17.6189 37.0453L2.66128 28.585L2.42147 29.009L17.3791 37.4692L17.6189 37.0453ZM32.3389 28.585L17.3791 37.0452L17.6189 37.4692L32.5786 29.009L32.3389 28.585ZM32.2152 2.554L32.2152 28.797L32.7023 28.797L32.7023 2.554L32.2152 2.554ZM2.54138 2.79755L32.4587 2.79755L32.4587 2.31045L2.54138 2.31045L2.54138 2.79755ZM2.78493 28.797L2.78493 2.554L2.29783 2.554L2.29783 28.797L2.78493 28.797ZM17.5008 26.9612C17.324 26.961 17.1503 26.9151 16.9961 26.8278L16.756 27.2516C16.9832 27.3803 17.2395 27.448 17.5003 27.4483L17.5008 26.9612ZM18.0123 26.831C17.8564 26.918 17.6808 26.9628 17.5028 26.9612L17.4983 27.4483C17.7611 27.4506 18.02 27.3845 18.2496 27.2564L18.0123 26.831ZM23.1489 23.9204L18.0109 26.8318L18.251 27.2556L23.3891 24.3442L23.1489 23.9204ZM21.8096 22.0271L23.0566 24.2514L23.4814 24.0132L22.2345 21.7889L21.8096 22.0271ZM17.6265 24.6779L22.1421 22.1199L21.902 21.6961L17.3864 24.2541L17.6265 24.6779ZM13.5155 22.4935L17.3868 24.6781L17.6262 24.2539L13.7548 22.0693L13.5155 22.4935ZM13.3916 17.6719L13.3916 22.2814L13.8787 22.2814L13.8787 17.6719L13.3916 17.6719ZM11.0898 17.9154L13.6351 17.9154L13.6351 17.4283L11.0898 17.4283L11.0898 17.9154ZM11.3334 23.0162L11.3334 17.6719L10.8463 17.6719L10.8463 23.0162L11.3334 23.0162ZM11.858 23.9164C11.5348 23.7335 11.334 23.3896 11.3334 23.0158L10.8463 23.0166C10.8472 23.5649 11.1417 24.0707 11.6181 24.3403L11.858 23.9164ZM16.9961 26.8278L11.8581 23.9165L11.618 24.3402L16.756 27.2516L16.9961 26.8278ZM16.7584 33.6534C16.9855 33.7817 17.2417 33.8493 17.5024 33.8497L17.503 33.3626C17.3262 33.3623 17.1523 33.3165 16.9981 33.2293L16.7584 33.6534ZM6.07309 27.6038L16.7583 33.6533L16.9982 33.2294L6.31307 27.1799L6.07309 27.6038ZM5.30333 26.2799C5.30333 26.8279 5.59702 27.334 6.07301 27.6037L6.31315 27.18C5.99059 26.9972 5.79043 26.6534 5.79043 26.2799L5.30333 26.2799ZM5.30333 12.4215L5.30333 26.2799L5.79043 26.2799L5.79043 12.4215L5.30333 12.4215ZM6.81755 10.901C5.98013 10.901 5.30333 11.5829 5.30333 12.4215L5.79043 12.4215C5.79043 11.8496 6.25142 11.3881 6.81755 11.3881L6.81755 10.901ZM22.5103 10.901L6.81755 10.901L6.81755 11.3881L22.5103 11.3881L22.5103 10.901ZM22.7539 13.7045L22.7539 11.1445L22.2668 11.1445L22.2668 13.7045L22.7539 13.7045ZM8.08428 13.948L22.5103 13.948L22.5103 13.4609L8.08428 13.4609L8.08428 13.948ZM8.32783 25.5391L8.32783 13.7045L7.84073 13.7045L7.84073 25.5391L8.32783 25.5391ZM17.6226 30.6516L8.20414 25.3271L7.96442 25.7511L17.3829 31.0756L17.6226 30.6516ZM26.7953 25.3212L17.3827 30.6517L17.6227 31.0755L27.0353 25.745L26.7953 25.3212ZM26.6718 20.0021L26.6718 25.5331L27.1589 25.5331L27.1589 20.0021L26.6718 20.0021ZM29.4566 19.7585L26.9153 19.7585L26.9153 20.2456L29.4566 20.2456L29.4566 19.7585ZM29.7001 26.2799L29.7001 20.0021L29.213 20.0021L29.213 26.2799L29.7001 26.2799ZM28.9304 27.6037C29.4063 27.334 29.7001 26.8279 29.7001 26.2799L29.213 26.2799C29.213 26.6533 29.0128 26.9972 28.6902 27.18L28.9304 27.6037ZM18.2452 33.6533L28.9303 27.6038L28.6903 27.1799L18.0052 33.2294L18.2452 33.6533ZM17.5033 33.8497C17.7633 33.8491 18.0187 33.7814 18.2451 33.6533L18.0053 33.2294C17.8516 33.3163 17.6783 33.3621 17.5022 33.3626L17.5033 33.8497ZM29.4588 14.8773L26.9173 14.8773L26.9173 15.3644L29.4588 15.3644L29.4588 14.8773ZM29.2153 6.85119L29.2153 15.1209L29.7024 15.1209L29.7024 6.85119L29.2153 6.85119ZM28.1881 5.81777C28.7542 5.81777 29.2153 6.27934 29.2153 6.85119L29.7024 6.85119C29.7024 6.01255 29.0255 5.33067 28.1881 5.33067L28.1881 5.81777ZM10.0469 5.81777L28.1881 5.81777L28.1881 5.33067L10.0469 5.33067L10.0469 5.81777ZM10.2904 8.12819L10.2904 5.57422L9.80333 5.57422L9.80333 8.12819L10.2904 8.12819ZM26.9173 7.88464L10.0469 7.88464L10.0469 8.37174L26.9173 8.37174L26.9173 7.88464ZM27.1609 15.1209L27.1609 8.12819L26.6738 8.12819L26.6738 15.1209L27.1609 15.1209Z"
        fill="white" fill-opacity="0.3" mask="url(#path-1-inside-1_4027_7803)" />
</svg>
