<svg width="97" height="27" viewBox="0 0 97 27" fill="none" xmlns="http://www.w3.org/2000/svg">
<path d="M11.2808 26.4955C11.1399 26.4959 11.0013 26.4595 10.8788 26.3898L0.430643 20.5026C0.304212 20.4312 0.199045 20.3275 0.125939 20.202C0.0528335 20.0766 0.0144224 19.9339 0.0146494 19.7887V1.68159C0.0146494 1.46456 0.100831 1.25642 0.254234 1.10296C0.407638 0.949495 0.615697 0.863281 0.832643 0.863281L21.7277 0.863281C21.9447 0.863281 22.1527 0.949495 22.3061 1.10296C22.4595 1.25642 22.5457 1.46456 22.5457 1.68159V19.7887C22.5459 19.9339 22.5075 20.0766 22.4344 20.202C22.3613 20.3275 22.2562 20.4312 22.1297 20.5026L11.6815 26.3898C11.5594 26.4594 11.4213 26.4958 11.2808 26.4955ZM1.65064 19.3165L11.2808 24.743L20.9097 19.3165V2.49989H1.65064V19.3165Z" fill="#0D0D0D" fill-opacity="0.7"/>
<path d="M11.2812 18.2981C11.1403 18.2979 11.0019 18.2616 10.8792 18.1925L7.57156 16.3268C7.44517 16.2556 7.33994 16.1521 7.26663 16.0269C7.19332 15.9017 7.15455 15.7592 7.1543 15.6141V12.1895H8.79028V15.1432L11.2824 16.5431L14.1893 14.904L14.992 16.3293L11.6844 18.195C11.5611 18.2635 11.4222 18.299 11.2812 18.2981Z" fill="#0D0D0D" fill-opacity="0.7"/>
<path d="M11.2805 22.3974C11.1397 22.3973 11.0012 22.3609 10.8785 22.2918L3.99998 18.4153C3.87373 18.3441 3.76869 18.2405 3.6956 18.1153C3.6225 17.9901 3.58398 17.8477 3.58398 17.7027V8.82221C3.58398 8.60518 3.67017 8.39704 3.82357 8.24358C3.97697 8.09012 4.18503 8.00391 4.40198 8.00391H14.5041V9.64434H5.21743V17.228L11.278 20.6437L17.3372 17.228V13.6799H18.9732V17.7027C18.9732 17.8477 18.9347 17.9901 18.8616 18.1153C18.7885 18.2405 18.6834 18.3441 18.5572 18.4153L11.6787 22.2918C11.5571 22.3603 11.42 22.3967 11.2805 22.3974Z" fill="#0D0D0D" fill-opacity="0.7"/>
<path d="M18.9768 10.5512H17.3408V6.07021H6.48047V4.43359H18.1601C18.377 4.43359 18.5851 4.51981 18.7385 4.67327C18.8919 4.82673 18.9781 5.03487 18.9781 5.2519L18.9768 10.5512Z" fill="#0D0D0D" fill-opacity="0.7"/>
<path d="M30.1572 11.3838C30.1572 6.53241 33.7523 2.81151 38.7107 2.81151C40.1138 2.78999 41.499 3.12887 42.7338 3.79575C43.9685 4.46264 45.0117 5.43524 45.7635 6.62057L42.5209 8.51084C41.7926 7.2377 40.3825 6.48574 38.7133 6.48574C35.7974 6.48574 33.9182 8.44083 33.9182 11.3838C33.9182 14.3268 35.7974 16.2819 38.7133 16.2819C40.3825 16.2819 41.8237 15.53 42.5209 14.2568L45.7635 16.1419C44.3534 18.4756 41.7226 19.9562 38.7133 19.9562C33.7523 19.9562 30.1572 16.2353 30.1572 11.3838Z" fill="#0D0D0D" fill-opacity="0.7"/>
<path d="M78.1453 16.2518V19.9182H67.0361V2.80469H78.1453V6.47114H70.9396V9.40377H77.2822V13.1169H70.9396V16.244L78.1453 16.2518Z" fill="#0D0D0D" fill-opacity="0.7"/>
<path d="M59.6044 13.6621C60.5351 13.204 61.3216 12.4982 61.8776 11.6223C62.4336 10.7463 62.7376 9.73406 62.7563 8.69661C62.759 7.92477 62.6092 7.16001 62.3156 6.44627C62.0219 5.73253 61.5901 5.08389 61.045 4.53764C60.4999 3.99138 59.8523 3.55829 59.1393 3.26323C58.4264 2.96818 57.6622 2.817 56.8907 2.81837H50.0479V19.963H53.9565V14.3233H55.8176L59.0446 19.9578H63.2488L59.6044 13.6621ZM56.8907 10.8954H53.9565V6.48741H56.8907C57.9663 6.48741 58.845 7.44162 58.845 8.69142C58.845 9.94123 57.9663 10.8954 56.8907 10.8954Z" fill="#0D0D0D" fill-opacity="0.7"/>
<path d="M88.7064 2.8125H82.4209V19.9001H88.7064C93.4083 19.9001 97.0007 16.1896 97.0007 11.3563C97.0007 6.52303 93.4005 2.8125 88.7064 2.8125ZM88.7064 16.2518H86.3192V6.48154H88.6961C91.3762 6.48154 93.2268 8.42885 93.2268 11.3589C93.2268 14.2889 91.3865 16.2518 88.7064 16.2518Z" fill="#0D0D0D" fill-opacity="0.7"/>
</svg>
