<svg width="22" height="22" viewBox="0 0 22 22" fill="none" xmlns="http://www.w3.org/2000/svg">
<path d="M21.7987 8.723C21.5348 7.40116 21.0159 6.1498 20.2682 5.02183C19.151 3.26818 17.5325 1.87584 15.6237 1.00343C13.7149 0.131009 11.5862 -0.186251 9.50146 0.104554C6.9945 0.465858 4.72504 1.77013 3.15929 3.73527L1.98939 5.25978C1.13614 6.40538 0.546784 7.70956 0.238912 9.08428C-0.0689594 10.4678 -0.0777633 11.8954 0.20372 13.2789C0.713907 16.0019 2.28846 18.4165 4.58431 20.0204C6.88015 21.6242 9.72137 22.2939 12.501 21.8797C15.0695 21.5008 17.3742 20.1438 18.9311 18.1081L20.3297 16.2575L20.4001 16.1518C21.8251 13.9487 22.3265 11.2874 21.7899 8.73182L21.7987 8.723Z" fill="#0D0D0D"/>
<path d="M3.84622 4.19437L2.6763 5.71011C1.89343 6.75877 1.34804 7.95724 1.05777 9.22621C0.776283 10.4952 0.767487 11.8082 1.03138 13.086C1.53277 15.5887 2.99297 17.8094 5.10409 19.2898C7.21521 20.7703 9.82772 21.4048 12.3962 21.0611C14.7537 20.7174 16.8736 19.4749 18.3074 17.6155L19.706 15.7561L3.84622 4.18555V4.19437Z" fill="#D75304" stroke="black" stroke-width="0.15" stroke-linecap="round" stroke-linejoin="round"/>
<path d="M19.6867 15.7633C18.983 16.8208 18.0682 17.7109 16.9862 18.3982C15.9131 19.0768 14.6992 19.5262 13.4325 19.7201C10.8552 20.0637 8.25147 19.4293 6.13155 17.94C4.02043 16.4507 2.56024 14.23 2.06765 11.7273C1.90052 10.8901 1.84774 10.0353 1.90052 9.18935C2.02366 7.37402 2.70099 5.63802 3.84451 4.20162C5.27832 2.40391 7.36304 1.22306 9.65888 0.888189C12.2362 0.570946 14.8311 1.21424 16.9423 2.70352C19.0534 4.1928 20.5048 6.40471 21.0238 8.89859C21.5164 11.2779 21.0414 13.7453 19.6867 15.781V15.7633Z" fill="#FFBE00" stroke="black" stroke-width="0.15" stroke-linecap="round" stroke-linejoin="round"/>
<path d="M19.583 5.45268C19.4774 7.01246 18.976 8.51938 18.1052 9.8236C17.4015 10.8723 16.4867 11.7711 15.4047 12.4496C14.3316 13.1282 13.1177 13.5776 11.851 13.7627C9.9246 14.0358 7.95422 13.745 6.18616 12.9431C4.41809 12.1324 2.93152 10.837 1.90234 9.21555C2.0167 7.3914 2.69402 5.63775 3.84634 4.19253C5.28014 2.39482 7.36486 1.21397 9.66071 0.879101C11.5871 0.632356 13.5487 0.92319 15.308 1.73392C17.0672 2.54465 18.5538 3.83122 19.5918 5.45268H19.583Z" fill="#FFDF0D"/>
<path d="M5.15528 17.1302C6.11408 18.0202 7.2488 18.7164 8.48029 19.1746C9.72057 19.6329 11.0312 19.8444 12.3507 19.8003L17.9364 3.47994C15.9924 1.68223 13.4062 0.704061 10.7322 0.774559L5.14648 17.1214L5.15528 17.1302Z" fill="white"/>
<path d="M11.9552 17.3929C10.1783 17.3664 8.47183 16.7319 7.11719 15.6216C5.75376 14.5024 4.83014 12.9603 4.47829 11.2507C4.28477 10.343 4.28477 9.40891 4.4695 8.50124C4.65422 7.59358 5.03246 6.72997 5.56904 5.9633C6.07923 5.24069 6.73895 4.63267 7.50423 4.17443C8.26951 3.71619 9.11397 3.41657 10.0024 3.2932C10.3543 3.24033 10.7061 3.21387 11.058 3.21387C12.8436 3.24912 14.5589 3.87481 15.9311 4.99397C17.3034 6.11313 18.2446 7.65525 18.6052 9.36483C18.7987 10.2637 18.7987 11.189 18.6228 12.0879C18.4381 12.9867 18.0774 13.8415 17.5496 14.5993C17.0307 15.3308 16.3709 15.9476 15.6057 16.4147C14.8404 16.8817 13.9783 17.1902 13.0811 17.3224C12.7117 17.384 12.3422 17.4105 11.9728 17.4105L11.9552 17.3929Z" stroke="black" stroke-width="0.15" stroke-linecap="round" stroke-linejoin="round"/>
<path fill-rule="evenodd" clip-rule="evenodd" d="M8.68333 12.1252C8.56898 11.7022 8.55138 11.2616 8.62175 10.821C8.69212 10.3892 8.85925 9.97498 9.09675 9.60486C9.34305 9.23474 9.65973 8.92632 10.0292 8.67958C10.3986 8.44165 10.8208 8.27418 11.2607 8.20368C11.8148 8.11556 12.3866 8.16847 12.9144 8.35353C13.4422 8.5474 13.9172 8.86464 14.2866 9.28763L13.3366 10.1336C13.1167 9.86921 12.8352 9.67537 12.5097 9.56081C12.1843 9.44625 11.8412 9.41979 11.4982 9.48147C11.2167 9.52554 10.9528 9.62249 10.7153 9.77229C10.4778 9.9221 10.2755 10.1248 10.1259 10.3627C9.97639 10.6006 9.87963 10.865 9.84444 11.1382C9.80926 11.4114 9.82685 11.6934 9.91481 11.9577C9.95 12.2397 10.038 12.5129 10.1875 12.7509C10.3282 12.9976 10.5306 13.2091 10.7593 13.3765C10.988 13.5439 11.2519 13.6673 11.5333 13.729C11.8148 13.7907 12.1051 13.7995 12.3866 13.7466C12.7208 13.7114 13.0375 13.5792 13.2926 13.3677C13.5477 13.1562 13.7412 12.8742 13.838 12.557L15.0431 13.024C14.8584 13.5351 14.5417 13.9934 14.1195 14.3459C13.6972 14.6896 13.1783 14.9187 12.6329 14.998C12.1755 15.0685 11.7181 15.0509 11.2694 14.9451C10.8208 14.8394 10.3986 14.6455 10.0292 14.3811C9.65973 14.1167 9.35185 13.7731 9.11434 13.3853C8.87684 12.9976 8.72731 12.5658 8.66574 12.1163L8.68333 12.1252Z" fill="#EF6817" stroke="black" stroke-width="0.15" stroke-linecap="round" stroke-linejoin="round"/>
<path fill-rule="evenodd" clip-rule="evenodd" d="M13.0647 6.96201L8.05078 7.80801L8.43781 6.28345L13.4605 5.4375L13.0647 6.96201Z" fill="#EF6817" stroke="black" stroke-width="0.15" stroke-linecap="round" stroke-linejoin="round"/>
<path d="M20.9977 8.88173C21.4991 11.2522 21.0241 13.7285 19.687 15.7641C18.9833 16.8216 18.0685 17.7116 16.9865 18.399C15.9046 19.0775 14.6995 19.527 13.4328 19.7208C10.8643 20.0557 8.26938 19.4124 6.16705 17.932C4.06473 16.4515 2.61333 14.2308 2.12073 11.7369C1.83925 10.4327 1.84804 9.08442 2.14712 7.78901C2.44619 6.48479 3.02676 5.2687 3.84482 4.21122C5.26983 2.41352 7.35455 1.22385 9.6504 0.897793C12.2189 0.571739 14.8226 1.21503 16.9338 2.7043C19.0449 4.19358 20.4963 6.4055 20.9977 8.90819V8.88173Z" stroke="black" stroke-width="0.15" stroke-linecap="round" stroke-linejoin="round"/>
</svg>
