<svg width="71" height="50" viewBox="0 0 71 50" fill="none" xmlns="http://www.w3.org/2000/svg">
<path d="M1.26258e-05 44.0001L0 6.00011C0 3.79099 1.79083 2.00014 3.99995 2.00012C23.6666 1.99991 43.3333 2.00005 63 2.00003C65.2091 2.00003 67 3.79089 67 6.00003V44.0001C67 46.2092 65.2091 48.0001 63 48.0001L4.00001 48.0001C1.79087 48.0001 1.32899e-05 46.2092 1.26258e-05 44.0001Z" fill="#D2D2D2"/>
<path d="M51.4853 21.8582L51.4856 21.8597C52.1494 24.954 52.1862 28.1488 51.5938 31.2573C51.0033 34.3225 49.8072 37.2408 48.0746 39.8433C46.3585 42.4059 44.1336 44.5927 41.5364 46.2693L41.536 46.2696C38.9029 47.9807 35.9304 49.1088 32.82 49.577L32.8194 49.5771C31.6469 49.7584 30.4621 49.8496 29.2755 49.8501C27.2596 49.834 25.2545 49.5559 23.3112 49.0229L23.3105 49.0227C17.1535 47.3625 11.822 43.5165 8.32452 38.2125L8.32388 38.2116C6.52902 35.5349 5.2766 32.5359 4.63683 29.3825L4.63659 29.3814C3.98785 26.3027 3.9878 23.1237 4.63646 20.0449C5.28083 17.1161 6.52341 14.3499 8.2872 11.918L8.28741 11.9177C10.0366 9.49351 12.2635 7.44828 14.8326 5.90638C17.5211 4.30386 20.4973 3.23607 23.5956 2.76241C24.849 2.57169 26.115 2.47487 27.383 2.47275C29.2743 2.47345 31.1593 2.69002 33.001 3.11821L33.0012 3.11826C35.9782 3.80542 38.8005 5.03726 41.3241 6.75088L41.325 6.75144C43.8787 8.4603 46.0767 10.6429 47.7987 13.1796L47.7992 13.1803C49.5988 15.799 50.8522 18.7498 51.4853 21.8582Z" fill="#565656" stroke="#0D0D0D" stroke-width="0.3" stroke-linecap="round" stroke-linejoin="round"/>
<path d="M53.5451 19.5271L53.5454 19.5285C54.2039 22.6179 54.2379 25.8067 53.6453 28.9093C53.0533 31.9769 51.8572 34.8979 50.1258 37.5044C48.4028 40.0613 46.1791 42.2468 43.5874 43.9302L43.5874 43.9302C40.9544 45.6416 37.9819 46.7696 34.8715 47.2377L34.8709 47.2377C33.6983 47.419 32.5135 47.5103 31.3269 47.5107C29.311 47.4951 27.3058 47.217 25.3626 46.6836L25.362 46.6834C19.2049 45.0231 13.8735 41.1771 10.3759 35.8732L10.3753 35.8722C8.58156 33.199 7.33192 30.2024 6.69677 27.0517L6.6965 27.0504C6.04775 23.9716 6.04771 20.7927 6.69636 17.7139C7.34136 14.7867 8.58081 12.0212 10.3388 9.58687C12.0934 7.16435 14.3227 5.1195 16.8926 3.5753C19.5791 1.97056 22.556 0.90526 25.655 0.43976L25.6558 0.439632C26.9084 0.244367 28.1745 0.14754 29.4424 0.150048L29.4429 0.150048C31.3312 0.14748 33.2135 0.361278 35.0525 0.787206L35.0526 0.787226C38.0294 1.47475 40.8517 2.70657 43.3755 4.41986L43.3764 4.42041C45.9301 6.12927 48.1282 8.31187 49.8503 10.8485L49.8509 10.8495C51.6563 13.4659 52.9127 16.4172 53.5451 19.5271Z" fill="white" stroke="#0D0D0D" stroke-width="0.3" stroke-linecap="round" stroke-linejoin="round"/>
<path d="M48.5426 20.5134C48.0511 18.0665 47.0654 15.7442 45.6453 13.6869C44.2876 11.6903 42.5563 9.97191 40.5459 8.62532C38.5377 7.27094 36.295 6.29721 33.9309 5.75319C31.4902 5.18796 28.963 5.0947 26.4869 5.47847C24.046 5.85884 21.7027 6.70706 19.5872 7.97597C17.5867 9.18028 15.8521 10.7746 14.4878 12.6629C13.1261 14.5419 12.1658 16.6781 11.6659 18.94C11.1635 21.3452 11.1635 23.8275 11.6659 26.2327C12.1646 28.72 13.152 31.0851 14.5715 33.1924C17.3494 37.4064 21.5813 40.4651 26.4701 41.7921C28.9026 42.4358 31.4429 42.5719 33.9309 42.1917C36.3594 41.8144 38.6781 40.923 40.7301 39.5777C42.7539 38.2748 44.489 36.5751 45.8295 34.5827C47.1894 32.5414 48.1286 30.2523 48.5928 27.8478C49.0601 25.4234 49.0431 22.9313 48.5426 20.5134Z" fill="#0D0D0D"/>
<path d="M30.9799 12L41.4365 21.2527L31.1357 33.9078L30.9799 12Z" fill="white" stroke="#0D0D0D" stroke-width="0.3" stroke-linecap="round" stroke-linejoin="round"/>
<path d="M23 13.2642L33.4648 22.5087L23.1558 35.172L23 13.2642Z" fill="white" stroke="#0D0D0D" stroke-width="0.3" stroke-linecap="round" stroke-linejoin="round"/>
<path d="M53.6202 28.8352L53.6201 28.8359C53.4952 29.4957 53.3334 30.1491 53.1483 30.7963C49.8122 30.3469 46.7484 28.7191 44.5182 26.2084C42.2598 23.6659 41.011 20.3922 41.0056 17.0004C41.004 14.9643 41.4529 12.9527 42.3204 11.1082C43.1698 9.30203 44.4005 7.69929 45.928 6.40866C47.4236 7.71842 48.7471 9.21056 49.8672 10.8498L49.8676 10.8504C51.6731 13.4668 52.9294 16.4181 53.5618 19.528L53.5619 19.5285C54.1968 22.5968 54.2166 25.7594 53.6202 28.8352Z" fill="#0D0D0D" stroke="#0D0D0D" stroke-width="0.3" stroke-linejoin="round"/>
<path d="M56.7624 1.33262C60.4989 1.33262 64.0823 2.80955 66.7241 5.43827C69.366 8.06697 70.85 11.6321 70.85 15.3493C70.85 19.0665 69.366 22.6316 66.7241 25.2603C64.0823 27.889 60.4989 29.366 56.7624 29.366C53.026 29.366 49.4426 27.889 46.8008 25.2603C44.1589 22.6316 42.6749 19.0665 42.6749 15.3493C42.6749 11.6321 44.1589 8.06697 46.8008 5.43827C49.4426 2.80955 53.026 1.33262 56.7624 1.33262Z" fill="#EE4D37" stroke="#0D0D0D" stroke-width="0.3" stroke-linejoin="round"/>
<path fill-rule="evenodd" clip-rule="evenodd" d="M63.4624 10.9914L61.1416 8.68213L56.7624 13.0395L52.3914 8.68213L50.0624 10.9914L54.4416 15.3488L50.0624 19.7062L52.3914 22.0155L56.7624 17.6581L61.1416 22.0155L63.4624 19.7062L59.0914 15.3488L63.4624 10.9914Z" fill="white" stroke="#0D0D0D" stroke-width="0.3" stroke-linecap="round" stroke-linejoin="round"/>
</svg>
