<svg width="12" height="16" viewBox="0 0 12 16" fill="none" xmlns="http://www.w3.org/2000/svg">
<path d="M4.30761 15.5812L7.53908 11.5692L2.51062 6.54204L1.0511 8.35375C0.925137 8.51207 0.855469 8.66015 0.855469 8.82221C0.855469 9.11274 1.07952 9.32605 1.38843 9.32605L5.2909 9.38431L3.30371 15.0343C3.03911 15.7957 3.80378 16.1977 4.30761 15.5812ZM9.33801 9.34656L10.809 7.52907C10.9349 7.37522 10.9988 7.22838 10.9988 7.06061C10.9988 6.77454 10.7805 6.56124 10.4716 6.55553L6.5647 6.49602L8.55631 0.847283C8.82217 0.0813645 8.05629 -0.314901 7.55245 0.30611L4.30956 4.32507L9.33801 9.34656Z" fill="white"/>
<path d="M10.9001 13.6999C11.1167 13.9139 11.475 13.9164 11.6846 13.6999C11.9011 13.4903 11.9011 13.1377 11.6846 12.9155L0.948585 2.18074C0.732058 1.96547 0.366727 1.96547 0.157169 2.18074C-0.0523897 2.39029 -0.0523897 2.75688 0.157169 2.96519L10.9001 13.6999Z" fill="white"/>
</svg>
