<svg width="30" height="30" viewBox="0 0 30 30" fill="none" xmlns="http://www.w3.org/2000/svg">
<path d="M0.25 29.6379V0.25H29.75V29.6379H0.25Z" fill="#121212" fill-opacity="0.5" stroke="#565656" stroke-width="0.5"/>
<path d="M21.7324 9.96474H8.65161V20.4294H21.7324V9.96474Z" stroke="white" stroke-width="0.7" stroke-linecap="round" stroke-linejoin="round"/>
<path d="M21.7324 9.96474H8.65161V20.4294H21.7324V9.96474Z" stroke="white" stroke-width="0.7" stroke-linecap="round" stroke-linejoin="round"/>
<path d="M8.65161 15.3364L10.9257 13.2207L14.9162 16.9332L18.6737 20.429" stroke="white" stroke-width="0.7" stroke-linecap="round" stroke-linejoin="round"/>
<path d="M14.9146 16.9347L17.0661 14.933L21.7308 19.2671" stroke="white" stroke-width="0.7" stroke-linecap="round" stroke-linejoin="round"/>
<path d="M19.1174 11.2715C18.8587 11.2715 18.6058 11.3483 18.3907 11.492C18.1756 11.6357 18.008 11.84 17.909 12.079C17.81 12.3181 17.784 12.5811 17.8344 12.8348C17.8849 13.0886 18.0095 13.3216 18.1924 13.5046C18.3754 13.6875 18.6085 13.8121 18.8623 13.8626C19.116 13.913 19.379 13.8871 19.618 13.7881C19.857 13.6891 20.0612 13.5215 20.205 13.3064C20.3487 13.0912 20.4255 12.8383 20.4255 12.5796C20.4255 12.2327 20.2877 11.9 20.0424 11.6547C19.7971 11.4094 19.4643 11.2715 19.1174 11.2715Z" stroke="white" stroke-width="0.7" stroke-linecap="round" stroke-linejoin="round"/>
</svg>
