<svg width="32" height="27" viewBox="0 0 32 27" fill="none" xmlns="http://www.w3.org/2000/svg">
<path d="M31.9413 18.9382L29.7445 7.92066C30.4483 7.87733 31.1522 7.68233 31.6214 7.10816C31.8987 6.75066 32.016 6.3065 31.9627 5.84066C31.9627 5.79733 31.952 5.754 31.9413 5.71066L31.4614 2.36316C31.3975 1.89733 31.1522 1.48566 30.7789 1.19316C30.4163 0.911496 29.9577 0.79233 29.5098 0.846496C29.1366 0.88983 28.7633 0.965663 28.3901 1.08483L28.3474 0.868163C28.2301 0.30483 27.7075 -0.0743368 27.153 0.0123299L2.52858 3.5765C2.24064 3.61983 1.98469 3.78233 1.81406 4.02066L0.225045 6.079C0.0330833 6.32816 -0.0415684 6.65316 0.0224188 6.9565L3.64836 25.1348C3.755 25.644 4.19225 26.0015 4.69348 26.0015C4.7468 26.0015 4.78946 26.0015 4.84278 26.0015L29.4458 22.4373C29.7231 22.394 29.9684 22.2532 30.139 22.0365L31.6641 20.0648C31.792 19.9348 31.8987 19.7832 31.952 19.599C32.016 19.3823 32.016 19.1548 31.952 18.949L31.9413 18.9382Z" fill="#0D0D0D"/>
<path d="M6.31475 22.8143L4.69663 24.9171L1.07227 6.74895L2.69039 4.64624L6.31475 22.8143Z" fill="#EB7AEB" stroke="#0D0D0D" stroke-width="0.1625" stroke-linejoin="round"/>
<path d="M27.2948 1.08496L2.6875 4.64681L6.31113 22.8149L30.9184 19.2531L27.2948 1.08496Z" fill="white" stroke="#0D0D0D" stroke-width="0.1625" stroke-linejoin="round"/>
<path d="M16.1256 6.13811C16.0579 6.07529 15.9764 6.02899 15.8875 6.00288C15.7987 5.97677 15.7049 5.97156 15.6137 5.98767C15.5225 6.00378 15.4363 6.04077 15.362 6.09571C15.2876 6.15065 15.2272 6.22203 15.1854 6.30419L6.32031 22.8234L30.9276 19.2645L16.1256 6.13811Z" fill="white" stroke="#0D0D0D" stroke-width="0.1625" stroke-linejoin="round"/>
<path d="M30.9204 19.2529L29.2966 21.3556L4.69531 24.9175L6.31311 22.8148L30.9204 19.2529Z" fill="#EB7AEB" stroke="#0D0D0D" stroke-width="0.1625" stroke-linejoin="round"/>
<path d="M2.6875 4.64681L27.2948 1.08496L17.2089 13.6152L2.6875 4.64681Z" fill="white" stroke="#0D0D0D" stroke-width="0.1625" stroke-linejoin="round"/>
<path d="M24.7185 1.45605L22.1426 1.82974L25.7662 19.9978L28.3422 19.6242L24.7185 1.45605Z" fill="#50FF9F" stroke="#0D0D0D" stroke-width="0.1625" stroke-linejoin="round"/>
<path d="M27.8104 3.65918L3.20312 7.22103L3.66578 9.54913L28.2761 5.99025L27.8104 3.65918Z" fill="#50FF9F" stroke="#0D0D0D" stroke-width="0.1625" stroke-linejoin="round"/>
<path d="M17.8845 8.51154C17.9051 8.5915 17.9423 8.6663 17.9937 8.73116C18.0451 8.79601 18.1096 8.84948 18.183 8.88817C19.0784 9.38045 21.8064 6.99911 22.8421 6.18654C21.9129 7.49353 21.3121 9.00255 21.0901 10.5874L23.4181 10.8662C23.2594 9.41134 23.5268 7.9419 24.1882 6.63435L24.6807 6.54834C24.809 6.67586 25.6417 8.13788 26.2148 10.371L28.3041 9.30039C28.3041 9.30039 27.9698 8.15271 26.3372 6.65214C27.0476 6.85803 27.7731 7.00873 28.507 7.1029L27.6295 2.71387C26.7125 3.13748 25.8888 3.73715 25.206 4.47837C25.1454 4.33979 25.0409 4.22473 24.9083 4.15082C24.7756 4.07691 24.6223 4.04821 24.4717 4.06912L22.857 4.30341C22.7149 4.32324 22.5826 4.38683 22.4787 4.48524C22.3749 4.58365 22.3046 4.71193 22.278 4.85204V4.82535C22.278 4.82535 19.9797 3.60057 17.5621 4.25596C17.3869 4.30211 17.2368 4.41443 17.1437 4.56898C17.0506 4.72353 17.0219 4.9081 17.0637 5.08335L17.8845 8.51154Z" fill="#0D0D0D" stroke="#0D0D0D" stroke-width="0.1625" stroke-linecap="round" stroke-linejoin="round"/>
<path d="M30.7832 6.45025C29.9981 7.39033 26.7351 6.40874 25.8605 6.12404L25.75 5.58431C25.7908 5.61055 25.8337 5.63336 25.8784 5.65251C26.2111 5.79668 26.5725 5.86362 26.9352 5.84824C27.8307 5.82451 28.6666 5.44195 29.5503 5.35595C29.9085 5.32333 30.3951 5.29368 30.6817 5.55465C30.8107 5.66271 30.8932 5.81578 30.912 5.98237C30.9309 6.14896 30.8848 6.31639 30.7832 6.45025Z" fill="#4E29B6" stroke="#0D0D0D" stroke-width="0.1625" stroke-linejoin="round"/>
<path d="M30.4074 2.51713C30.3821 2.33693 30.2866 2.17378 30.1415 2.06285C29.9963 1.95191 29.8132 1.90206 29.6314 1.92402C27.1421 2.22058 25.4707 4.20157 25.4707 4.20157L25.7393 5.5509V5.56869C25.7818 5.59563 25.8256 5.62038 25.8707 5.64283C26.204 5.78847 26.5664 5.85644 26.9302 5.84153C27.8256 5.81484 28.6584 5.42931 29.5418 5.34628C29.903 5.31365 30.3865 5.284 30.673 5.542C30.8021 5.65873 30.8848 5.81764 30.9058 5.98981L30.4074 2.51713Z" fill="#9772FF" stroke="#0D0D0D" stroke-width="0.1625" stroke-linejoin="round"/>
<path d="M24.1843 6.63354C24.1843 6.63354 23.444 8.13707 23.7097 10.5748L21.3811 10.296C21.3811 10.296 21.2587 8.71239 22.832 6.1709L24.1843 6.63354Z" fill="#9772FF" stroke="#0D0D0D" stroke-width="0.1625" stroke-linejoin="round"/>
<path d="M24.6875 6.54806C24.6875 6.54806 25.9115 7.70166 26.5205 10.0741L28.6102 9.00355C28.6102 9.00355 28.1684 7.47924 25.798 5.64355L24.6875 6.54806Z" fill="#9772FF" stroke="#0D0D0D" stroke-width="0.1625" stroke-linejoin="round"/>
<path d="M18.4785 8.57624C19.5562 9.16935 22.2161 7.04007 22.9236 6.44992L22.8221 5.90723C22.7946 5.94736 22.7636 5.98507 22.7296 6.01992C22.4739 6.27711 22.1625 6.47288 21.8191 6.59227C20.9802 6.90366 20.0607 6.85621 19.2099 7.10235C18.8636 7.20614 18.4039 7.35739 18.2337 7.69546C18.1511 7.84504 18.1304 8.02074 18.1761 8.18521C18.2219 8.34969 18.3303 8.48997 18.4785 8.57624Z" fill="#4E29B6" stroke="#0D0D0D" stroke-width="0.1625" stroke-linejoin="round"/>
<path d="M17.3489 4.78593C17.307 4.61067 17.3357 4.42611 17.4288 4.27156C17.5219 4.11701 17.6721 4.00469 17.8473 3.95853C20.2649 3.30314 22.5631 4.52793 22.5631 4.52793L22.8198 5.88022V5.90098C22.7914 5.94232 22.7605 5.98193 22.7273 6.01961C22.472 6.27787 22.1606 6.47467 21.8169 6.59493C20.9782 6.89148 20.059 6.85293 19.2083 7.105C18.8621 7.20583 18.3995 7.35708 18.2323 7.69812C18.156 7.85397 18.1391 8.03199 18.1846 8.1993L17.3489 4.78593Z" fill="#9772FF" stroke="#0D0D0D" stroke-width="0.1625" stroke-linejoin="round"/>
<path d="M25.8101 5.66642L25.5414 4.32005C25.5066 4.14709 25.4065 3.99391 25.2616 3.8919C25.1167 3.7899 24.9381 3.74679 24.7623 3.77142L23.1472 4.0057C23.0543 4.01882 22.9651 4.05063 22.885 4.09918C22.8049 4.14773 22.7357 4.21201 22.6815 4.28807C22.6273 4.36414 22.5892 4.45039 22.5697 4.54155C22.5502 4.63272 22.5497 4.72687 22.5681 4.81826L22.8367 6.17056C22.8716 6.34332 22.9718 6.49623 23.1168 6.59776C23.2618 6.69928 23.4404 6.74169 23.6159 6.71623L25.231 6.48195C25.324 6.46846 25.4132 6.43631 25.4933 6.38746C25.5734 6.3386 25.6427 6.27405 25.6969 6.19776C25.7511 6.12146 25.789 6.035 25.8085 5.94365C25.828 5.85231 25.8285 5.75798 25.8101 5.66642Z" fill="#9772FF" stroke="#0D0D0D" stroke-width="0.1625" stroke-linejoin="round"/>
<path d="M3.20202 7.22168L1.58398 9.32427L2.04671 11.6522L3.66474 9.54965L3.20202 7.22168Z" fill="#56CC93" stroke="#0D0D0D" stroke-width="0.1625" stroke-linejoin="round"/>
<path d="M25.7646 19.9977L24.1406 22.1003L26.7169 21.7266L28.3409 19.624L25.7646 19.9977Z" fill="#56CC93" stroke="#0D0D0D" stroke-width="0.1625" stroke-linejoin="round"/>
</svg>
