<svg width="12" height="12" viewBox="0 0 12 12" fill="none" xmlns="http://www.w3.org/2000/svg">
<g opacity="0.5">
<path fill-rule="evenodd" clip-rule="evenodd" d="M6.02446 6.70535L10.2961 10.9561L11.0049 10.2508L6.73329 5.99998L11.0049 1.74921L10.2961 1.04381L6.02446 5.2946L1.70857 0.999756L0.999756 1.70515L5.31563 5.99998L0.999756 10.2948L1.70857 11.0002L6.02446 6.70535Z" fill="#545454"/>
<path d="M10.2961 10.9561L9.9434 11.3106L10.2961 11.6615L10.6488 11.3106L10.2961 10.9561ZM6.02446 6.70535L6.37715 6.35094L6.02446 5.99997L5.67177 6.35094L6.02446 6.70535ZM11.0049 10.2508L11.3576 10.6052L11.7137 10.2507L11.3576 9.89633L11.0049 10.2508ZM6.73329 5.99998L6.3806 5.64556L6.02445 5.99998L6.3806 6.35439L6.73329 5.99998ZM11.0049 1.74921L11.3576 2.10362L11.7137 1.74922L11.3576 1.3948L11.0049 1.74921ZM10.2961 1.04381L10.6488 0.689403L10.2961 0.338413L9.9434 0.689392L10.2961 1.04381ZM6.02446 5.2946L5.67177 5.64902L6.02446 5.99999L6.37715 5.64902L6.02446 5.2946ZM1.70857 0.999756L2.06126 0.645339L1.70856 0.294361L1.35587 0.64535L1.70857 0.999756ZM0.999756 1.70515L0.647057 1.35075L0.290925 1.70516L0.647068 2.05957L0.999756 1.70515ZM5.31563 5.99998L5.66832 6.35439L6.02447 5.99998L5.66832 5.64556L5.31563 5.99998ZM0.999756 10.2948L0.647068 9.94039L0.290925 10.2948L0.647057 10.6492L0.999756 10.2948ZM1.70857 11.0002L1.35587 11.3546L1.70856 11.7056L2.06126 11.3546L1.70857 11.0002ZM10.6488 10.6017L6.37715 6.35094L5.67177 7.05977L9.9434 11.3106L10.6488 10.6017ZM10.6522 9.89634L9.94338 10.6017L10.6488 11.3106L11.3576 10.6052L10.6522 9.89634ZM6.3806 6.35439L10.6522 10.6052L11.3576 9.89633L7.08598 5.64556L6.3806 6.35439ZM7.08598 6.35439L11.3576 2.10362L10.6522 1.39479L6.3806 5.64556L7.08598 6.35439ZM11.3576 1.3948L10.6488 0.689403L9.94338 1.39821L10.6522 2.10361L11.3576 1.3948ZM9.9434 0.689392L5.67177 4.94019L6.37715 5.64902L10.6488 1.39822L9.9434 0.689392ZM1.35588 1.35417L5.67177 5.64902L6.37715 4.94019L2.06126 0.645339L1.35588 1.35417ZM1.35245 2.05956L2.06127 1.35416L1.35587 0.64535L0.647057 1.35075L1.35245 2.05956ZM5.66832 5.64556L1.35244 1.35074L0.647068 2.05957L4.96294 6.35439L5.66832 5.64556ZM4.96294 5.64556L0.647068 9.94039L1.35244 10.6492L5.66832 6.35439L4.96294 5.64556ZM0.647057 10.6492L1.35587 11.3546L2.06127 10.6458L1.35245 9.9404L0.647057 10.6492ZM2.06126 11.3546L6.37715 7.05977L5.67177 6.35094L1.35588 10.6458L2.06126 11.3546Z" fill="#545454"/>
</g>
</svg>
