<svg width="12" height="14" viewBox="0 0 12 14" fill="none" xmlns="http://www.w3.org/2000/svg">
<path d="M5.87482 13.4842C5.80277 13.4842 5.73072 13.4657 5.66594 13.4293L0.237639 10.3708C0.104113 10.2954 0.0214844 10.154 0.0214844 10.0006V0.594957C0.0214844 0.360295 0.211862 0.169922 0.446524 0.169922H11.3038C11.5384 0.169922 11.7288 0.360295 11.7288 0.594957V10.0006C11.7288 10.154 11.6462 10.2954 11.5127 10.3708L6.08436 13.4293C6.01958 13.4657 5.94754 13.4842 5.87548 13.4842H5.87482ZM0.870894 9.75207L5.87482 12.5713L10.8787 9.75207V1.02H0.871556V9.75207H0.870894Z" fill="black"/>
<path d="M5.87482 9.2265C5.80277 9.2265 5.73072 9.20799 5.66594 9.17163L3.94662 8.20324C3.8131 8.12788 3.73047 7.98642 3.73047 7.83306V6.05029H4.58054V7.58518L5.87482 8.31429L7.38525 7.46289L7.80235 8.20324L6.08305 9.17163C6.01827 9.20799 5.94621 9.2265 5.87416 9.2265H5.87482Z" fill="black"/>
<path d="M5.87515 11.3551C5.8031 11.3551 5.73105 11.3366 5.66627 11.3003L2.09213 9.28679C1.95861 9.21143 1.87598 9.06997 1.87598 8.91661V4.30468C1.87598 4.07002 2.06635 3.87964 2.30101 3.87964H7.55017V4.72971H2.72605V8.66873L5.87515 10.4429L9.02425 8.66873V6.82779H9.87432V8.91728C9.87432 9.07063 9.79169 9.21209 9.65817 9.28745L6.08403 11.3009C6.01925 11.3373 5.9472 11.3558 5.87515 11.3558V11.3551Z" fill="black"/>
<path d="M9.87406 5.20218H9.02399V2.87473H3.38086V2.02466H9.44902C9.68368 2.02466 9.87406 2.21504 9.87406 2.4497V5.20218Z" fill="black"/>
</svg>
