<svg width="97" height="27" viewBox="0 0 97 27" fill="none" xmlns="http://www.w3.org/2000/svg">
<path d="M11.2808 26.4916C11.1399 26.492 11.0013 26.4556 10.8788 26.3859L0.430643 20.4987C0.304212 20.4273 0.199045 20.3236 0.125939 20.1981C0.0528335 20.0727 0.0144224 19.93 0.0146494 19.7848V1.67768C0.0146494 1.46065 0.100831 1.25251 0.254234 1.09905C0.407638 0.945589 0.615697 0.859375 0.832643 0.859375L21.7277 0.859375C21.9447 0.859375 22.1527 0.945589 22.3061 1.09905C22.4595 1.25251 22.5457 1.46065 22.5457 1.67768V19.7848C22.5459 19.93 22.5075 20.0727 22.4344 20.1981C22.3613 20.3236 22.2562 20.4273 22.1297 20.4987L11.6815 26.3859C11.5594 26.4554 11.4213 26.4919 11.2808 26.4916ZM1.65064 19.3126L11.2808 24.7391L20.9097 19.3126V2.49599H1.65064V19.3126Z" fill="#0D0D0D" fill-opacity="0.7"/>
<path d="M11.2812 18.2962C11.1403 18.296 11.0019 18.2596 10.8792 18.1905L7.57156 16.3248C7.44517 16.2536 7.33994 16.1501 7.26663 16.0249C7.19332 15.8997 7.15455 15.7573 7.1543 15.6122V12.1875H8.79028V15.1413L11.2824 16.5412L14.1893 14.902L14.992 16.3274L11.6844 18.1931C11.5611 18.2615 11.4222 18.297 11.2812 18.2962Z" fill="#0D0D0D" fill-opacity="0.7"/>
<path d="M11.2805 22.3935C11.1397 22.3934 11.0012 22.357 10.8785 22.2879L3.99998 18.4114C3.87373 18.3402 3.76869 18.2366 3.6956 18.1114C3.6225 17.9862 3.58398 17.8438 3.58398 17.6988V8.81831C3.58398 8.60128 3.67017 8.39314 3.82357 8.23968C3.97697 8.08621 4.18503 8 4.40198 8H14.5041V9.64043H5.21743V17.2241L11.278 20.6398L17.3372 17.2241V13.676H18.9732V17.6988C18.9732 17.8438 18.9347 17.9862 18.8616 18.1114C18.7885 18.2366 18.6834 18.3402 18.5572 18.4114L11.6787 22.2879C11.5571 22.3564 11.42 22.3928 11.2805 22.3935Z" fill="#0D0D0D" fill-opacity="0.7"/>
<path d="M18.9768 10.5473H17.3408V6.0663H6.48047V4.42969H18.1601C18.377 4.42969 18.5851 4.5159 18.7385 4.66936C18.8919 4.82283 18.9781 5.03097 18.9781 5.24799L18.9768 10.5473Z" fill="#0D0D0D" fill-opacity="0.7"/>
<path d="M30.1572 11.3819C30.1572 6.53046 33.7523 2.80956 38.7107 2.80956C40.1138 2.78803 41.499 3.12691 42.7338 3.7938C43.9685 4.46069 45.0117 5.43329 45.7635 6.61862L42.5209 8.50889C41.7926 7.23574 40.3825 6.48379 38.7133 6.48379C35.7974 6.48379 33.9182 8.43887 33.9182 11.3819C33.9182 14.3249 35.7974 16.28 38.7133 16.28C40.3825 16.28 41.8237 15.528 42.5209 14.2549L45.7635 16.14C44.3534 18.4736 41.7226 19.9542 38.7133 19.9542C33.7523 19.9542 30.1572 16.2333 30.1572 11.3819Z" fill="#0D0D0D" fill-opacity="0.7"/>
<path d="M78.1453 16.2479V19.9143H67.0361V2.80078H78.1453V6.46723H70.9396V9.39987H77.2822V13.113H70.9396V16.2401L78.1453 16.2479Z" fill="#0D0D0D" fill-opacity="0.7"/>
<path d="M59.6044 13.6563C60.5351 13.1981 61.3216 12.4924 61.8776 11.6164C62.4336 10.7405 62.7376 9.7282 62.7563 8.69075C62.759 7.91891 62.6092 7.15415 62.3156 6.44041C62.0219 5.72667 61.5901 5.07803 61.045 4.53178C60.4999 3.98552 59.8523 3.55243 59.1393 3.25737C58.4264 2.96232 57.6622 2.81114 56.8907 2.81251H50.0479V19.9572H53.9565V14.3175H55.8176L59.0446 19.952H63.2488L59.6044 13.6563ZM56.8907 10.8896H53.9565V6.48155H56.8907C57.9663 6.48155 58.845 7.43576 58.845 8.68556C58.845 9.93537 57.9663 10.8896 56.8907 10.8896Z" fill="#0D0D0D" fill-opacity="0.7"/>
<path d="M88.7064 2.80859H82.4209V19.8962H88.7064C93.4083 19.8962 97.0007 16.1857 97.0007 11.3524C97.0007 6.51912 93.4005 2.80859 88.7064 2.80859ZM88.7064 16.2479H86.3192V6.47763H88.6961C91.3762 6.47763 93.2268 8.42494 93.2268 11.355C93.2268 14.285 91.3865 16.2479 88.7064 16.2479Z" fill="#0D0D0D" fill-opacity="0.7"/>
</svg>
