
<svg width="23" height="23" viewBox="0 0 23 23" fill="none" xmlns="http://www.w3.org/2000/svg">
<g opacity="0.7">
<path d="M11.7661 22.3356C11.6539 22.3356 11.5417 22.3067 11.4409 22.2501L2.9889 17.4851C2.781 17.3677 2.65234 17.1473 2.65234 16.9084V2.25593C2.65234 1.89034 2.94876 1.59375 3.31414 1.59375H20.2191C20.5845 1.59375 20.8809 1.89034 20.8809 2.25593V16.9094C20.8809 17.1483 20.7523 17.3687 20.5444 17.4861L12.0924 22.2511C11.9915 22.3078 11.8793 22.3366 11.7671 22.3366L11.7661 22.3356ZM3.9749 16.5211L11.7661 20.9134L19.5573 16.5211V2.91811H3.97592V16.5222L3.9749 16.5211Z" fill="#0D0D0D"/>
<path d="M11.7646 15.7022C11.6524 15.7022 11.5402 15.6734 11.4393 15.6168L8.76234 14.1081C8.55443 13.9907 8.42578 13.7703 8.42578 13.5314V10.7539H9.74936V13.1452L11.7646 14.2811L14.1164 12.9547L14.7658 14.1081L12.0888 15.6168C11.9879 15.6734 11.8757 15.7022 11.7636 15.7022H11.7646Z" fill="#0D0D0D"/>
<path d="M11.7659 19.0194C11.6537 19.0194 11.5415 18.9906 11.4406 18.9339L5.87562 15.7971C5.66772 15.6797 5.53906 15.4593 5.53906 15.2204V8.03523C5.53906 7.66964 5.83548 7.37305 6.20085 7.37305H14.3739V8.69741H6.86264V14.8342L11.7659 17.5982L16.6691 14.8342V11.9661H17.9927V15.2214C17.9927 15.4603 17.864 15.6807 17.6561 15.7981L12.0911 18.935C11.9902 18.9916 11.878 19.0204 11.7659 19.0204V19.0194Z" fill="#0D0D0D"/>
<path d="M17.9929 9.43477H16.6693V5.80874H7.88281V4.48438H17.3311C17.6965 4.48438 17.9929 4.78097 17.9929 5.14656V9.43477Z" fill="#0D0D0D"/>
</g>
</svg>
