<svg width="81" height="61" viewBox="0 0 81 61" fill="none" xmlns="http://www.w3.org/2000/svg">
<path d="M69.7387 7.86719H7.26128C5.99851 7.86719 4.78736 8.3729 3.89444 9.27308C3.00153 10.1733 2.5 11.3941 2.5 12.6672V49.0672C2.5 50.3402 3.00153 51.5611 3.89444 52.4613C4.78736 53.3615 5.99851 53.8672 7.26128 53.8672H69.7387C71.0015 53.8672 72.2126 53.3615 73.1056 52.4613C73.9985 51.5611 74.5 50.3402 74.5 49.0672V12.6672C74.5 11.3941 73.9985 10.1733 73.1056 9.27308C72.2126 8.3729 71.0015 7.86719 69.7387 7.86719Z" fill="#D2D2D2"/>
<mask id="mask0_2203_30668" style="mask-type:alpha" maskUnits="userSpaceOnUse" x="2" y="7" width="73" height="47">
<path d="M69.7387 7.86719H7.26128C5.99851 7.86719 4.78736 8.3729 3.89444 9.27308C3.00153 10.1733 2.5 11.3941 2.5 12.6672V49.0672C2.5 50.3402 3.00153 51.5611 3.89444 52.4613C4.78736 53.3615 5.99851 53.8672 7.26128 53.8672H69.7387C71.0015 53.8672 72.2126 53.3615 73.1056 52.4613C73.9985 51.5611 74.5 50.3402 74.5 49.0672V12.6672C74.5 11.3941 73.9985 10.1733 73.1056 9.27308C72.2126 8.3729 71.0015 7.86719 69.7387 7.86719Z" fill="#EFEFEF"/>
</mask>
<g mask="url(#mask0_2203_30668)">
<path d="M19.3593 62.8672L62.1297 57.1255L51.5495 4.86719L8.75 10.5991L17.218 52.3454H17.2277L19.3593 62.8672Z" fill="#0D0D0D" stroke="#0D0D0D" stroke-width="0.3" stroke-miterlimit="10"/>
</g>
<path d="M21.3593 59.8672L64.1297 54.1255L53.5495 1.86719L10.75 7.59914L19.218 49.3454H19.2277L21.3593 59.8672Z" fill="white" stroke="#0D0D0D" stroke-width="0.3" stroke-miterlimit="10"/>
<path d="M19.2188 49.3427H19.2285L61.8278 43.5312" stroke="#0D0D0D" stroke-width="0.3" stroke-miterlimit="10"/>
<mask id="mask1_2203_30668" style="mask-type:alpha" maskUnits="userSpaceOnUse" x="10" y="1" width="55" height="60">
<path d="M21.3593 59.8672L64.1297 54.1255L53.5495 1.86719L10.75 7.59914L19.218 49.3454H19.2277L21.3593 59.8672Z" fill="white" stroke="#0D0D0D" stroke-width="0.3" stroke-miterlimit="10"/>
</mask>
<g mask="url(#mask1_2203_30668)">
<path d="M38.5224 24.0531L20.3877 26.8114L19.5117 22.4509L37.6561 19.7023L38.5224 24.0531Z" fill="#D2D2D2" stroke="black" stroke-width="0.3" stroke-linecap="round" stroke-linejoin="round"/>
<path d="M50.8889 14.8674L18.8565 19.5394L17.9805 15.1789L50.0226 10.5166L50.8889 14.8674Z" fill="#D2D2D2" stroke="black" stroke-width="0.3" stroke-linecap="round" stroke-linejoin="round"/>
<path fill-rule="evenodd" clip-rule="evenodd" d="M61.1352 17.3087C64.6084 17.2984 67.9776 18.4937 70.6678 20.6907C73.3579 22.8877 75.2023 25.9502 75.8861 29.3555C76.5699 32.7608 76.0508 36.2978 74.4173 39.363C72.7838 42.4282 70.1372 44.8316 66.9292 46.1629C63.7212 47.4942 60.1506 47.671 56.8268 46.6631C53.503 45.6552 50.632 43.525 48.7037 40.6362C46.7754 37.7473 45.9094 34.2788 46.2535 30.8226C46.5976 27.3664 48.1304 24.1368 50.5904 21.6848C53.3874 18.8877 57.1795 17.3139 61.1352 17.3087Z" fill="#0D0D0D" stroke="#0D0D0D" stroke-width="0.3" stroke-linejoin="round"/>
</g>
<path fill-rule="evenodd" clip-rule="evenodd" d="M63.4555 15.8673C66.9288 15.8569 70.298 17.0523 72.9881 19.2493C75.6783 21.4463 77.5226 24.5088 78.2064 27.9141C78.8902 31.3194 78.3711 34.8564 76.7376 37.9216C75.1041 40.9868 72.4575 43.3902 69.2495 44.7215C66.0415 46.0528 62.4709 46.2296 59.1471 45.2217C55.8233 44.2138 52.9523 42.0836 51.024 39.1948C49.0957 36.3059 48.2297 32.8374 48.5738 29.3812C48.9179 25.925 50.4507 22.6953 52.9107 20.2434C55.7077 17.4463 59.4998 15.8725 63.4555 15.8673Z" fill="#06C270" stroke="#0D0D0D" stroke-width="0.3" stroke-linejoin="round"/>
<path fill-rule="evenodd" clip-rule="evenodd" d="M71.5 32.543L71.5 29.1914L65.1758 29.1914L65.1817 22.8731L61.8242 22.8672V29.1914H55.5L55.5059 32.5489L61.8242 32.543L61.8242 38.8672L65.1758 38.8672L65.1817 32.5489L71.5 32.543Z" fill="white" stroke="black" stroke-width="0.3" stroke-linecap="round" stroke-linejoin="round"/>
</svg>
