<svg width="71" height="77" viewBox="0 0 71 77" fill="none" xmlns="http://www.w3.org/2000/svg">
<g clip-path="url(#clip0_31350_4426)">
<path d="M70.9258 69.5583L20.6264 76.9261L5.7869 5.38769L42.107 0.0738831L58.7351 10.7872L70.9258 69.5583Z" fill="white" stroke="black" stroke-width="0.5" stroke-linecap="round" stroke-linejoin="round"/>
<path d="M58.7351 10.7872L44.7528 12.8353L42.107 0.0738831L58.7351 10.7872Z" fill="#FF784B" stroke="#0D0D0D" stroke-width="0.5" stroke-linejoin="round"/>
<path d="M18.5619 67.064C20.0583 67.3838 21.5845 67.5452 23.1149 67.5457C24.2451 67.5473 25.3736 67.4614 26.4904 67.2886C29.4428 66.8296 32.2626 65.7463 34.76 64.1115C37.2375 62.5174 39.3637 60.438 41.0096 57.9997C42.6531 55.5239 43.7891 52.7488 44.3524 49.834C44.8925 46.9041 44.8532 43.8974 44.2367 40.9826C43.634 38.0279 42.444 35.2233 40.7367 32.734C39.1007 30.3237 37.0153 28.2488 34.5939 26.6222C32.1911 24.9914 29.5028 23.8236 26.6683 23.1792C24.9227 22.7742 23.1366 22.5679 21.3443 22.5645C20.1415 22.5664 18.9405 22.6603 17.7522 22.8452C15.0436 23.2456 12.4306 24.1329 10.0403 25.4637C9.82967 25.582 10.7402 27.1453 10.5356 27.2695" fill="black"/>
<path d="M18.5619 67.064C20.0583 67.3838 21.5845 67.5452 23.1149 67.5457C24.2451 67.5473 25.3736 67.4614 26.4904 67.2886C29.4428 66.8296 32.2626 65.7463 34.76 64.1115C37.2375 62.5174 39.3637 60.438 41.0096 57.9997C42.6531 55.5239 43.7891 52.7488 44.3524 49.834C44.8925 46.9041 44.8532 43.8974 44.2367 40.9826C43.634 38.0279 42.444 35.2233 40.7367 32.734C39.1007 30.3237 37.0153 28.2488 34.5939 26.6222C32.1911 24.9914 29.5028 23.8236 26.6683 23.1792C24.9227 22.7742 23.1366 22.5679 21.3443 22.5645C20.1415 22.5664 18.9405 22.6603 17.7522 22.8452C15.0436 23.2456 12.4306 24.1329 10.0403 25.4637C9.82967 25.582 10.7402 27.1453 10.5356 27.2695" stroke="black" stroke-width="0.5" stroke-linejoin="round"/>
<path d="M45.0317 37.6607C44.4298 34.7063 43.2408 31.9017 41.5346 29.4121C39.8975 27.0017 37.8111 24.9269 35.3888 23.3004C32.9855 21.6698 30.2976 20.5011 27.4634 19.8544C25.7186 19.4503 23.9335 19.245 22.1422 19.2426C20.9384 19.243 19.7364 19.3368 18.5472 19.5234C15.5999 19.9589 12.7683 20.9714 10.2154 22.5024C7.76469 23.9656 5.63826 25.9102 3.96573 28.2181C2.29482 30.5323 1.11871 33.1639 0.510235 35.9495C-0.109715 38.8776 -0.109715 41.9024 0.510235 44.8305C1.1155 47.8223 2.30361 50.6668 4.0073 53.2031C7.32569 58.2535 12.3936 61.9103 18.2447 63.4761C20.0879 63.9722 21.9888 64.2237 23.8981 64.2238C25.0284 64.2259 26.157 64.139 27.2735 63.9637C30.2258 63.5058 33.0454 62.4235 35.543 60.7896C38.0205 59.1956 40.1469 57.1161 41.7927 54.6778C43.4357 52.2018 44.5718 49.4268 45.1356 46.5121C45.6797 43.583 45.6444 40.5763 45.0317 37.6607Z" fill="#7229D4" stroke="#0D0D0D" stroke-width="0.5" stroke-linejoin="round"/>
<path d="M46.9685 35.4618C46.3756 32.5047 45.1858 29.6984 43.4714 27.2133C41.8352 24.8022 39.7487 22.7273 37.3257 21.1016C34.923 19.4699 32.2348 18.301 29.4002 17.6555C27.6554 17.2514 25.8702 17.0462 24.079 17.0438C22.8757 17.0461 21.6741 17.136 20.484 17.3127C17.5383 17.7601 14.7084 18.775 12.1522 20.3007C9.70211 21.7659 7.57603 23.7114 5.90264 26.0193C4.23224 28.3328 3.05601 30.9632 2.44699 33.7477C1.83001 36.6772 1.83001 39.7022 2.44699 42.6316C3.04954 45.6228 4.23467 48.4673 5.93523 51.0043C9.2479 56.0462 14.3023 59.7016 20.14 61.2773C21.9842 61.7736 23.8861 62.0251 25.7964 62.025C26.9224 62.0198 28.0465 61.9328 29.1599 61.7649C32.1131 61.3106 34.9337 60.2281 37.4295 58.5908C39.9044 56.9934 42.03 54.9147 43.6791 52.479C45.3221 50.003 46.4581 47.228 47.0219 44.3133C47.5827 41.3875 47.5645 38.3807 46.9685 35.4618Z" fill="#FADD4D" stroke="black" stroke-width="0.5" stroke-linecap="round" stroke-linejoin="round"/>
<path d="M35.8277 20.1529L7.69418 53.5903C10.4067 56.7288 13.8777 59.1263 17.779 60.5562L44.5927 28.7236C42.4523 25.1687 39.435 22.2184 35.8277 20.1529Z" fill="white"/>
<path d="M46.9685 35.4618C46.3756 32.5047 45.1858 29.6984 43.4714 27.2133C41.8352 24.8022 39.7487 22.7273 37.3257 21.1016C34.923 19.4699 32.2348 18.301 29.4002 17.6555C27.6554 17.2514 25.8702 17.0462 24.079 17.0438C22.8757 17.0461 21.6741 17.136 20.484 17.3127C17.5383 17.7601 14.7084 18.775 12.1522 20.3007C9.7021 21.7659 7.57603 23.7114 5.90264 26.0193C4.23224 28.3328 3.05601 30.9632 2.44699 33.7478C1.83001 36.6772 1.83001 39.7022 2.44699 42.6316C3.04954 45.6228 4.23467 48.4673 5.93523 51.0043C9.2479 56.0462 14.3023 59.7016 20.14 61.2773C21.9842 61.7736 23.8861 62.0251 25.7963 62.025C26.9224 62.0198 28.0465 61.9328 29.1599 61.7649C32.1131 61.3106 34.9337 60.228 37.4295 58.5908C39.9044 56.9934 42.03 54.9147 43.6791 52.479C45.3221 50.003 46.4581 47.228 47.0219 44.3133C47.5846 41.3827 47.5664 38.3708 46.9685 35.4471V35.4618Z" stroke="black" stroke-width="0.5" stroke-linecap="round" stroke-linejoin="round"/>
<path d="M25.7844 55.8039C24.429 55.8034 23.0797 55.6245 21.7713 55.2719C17.41 54.0925 13.6352 51.358 11.1644 47.5878C9.89763 45.7098 9.01664 43.6005 8.5721 41.3815C8.12568 39.2768 8.12568 37.1025 8.5721 34.9979C8.99896 33.0619 9.82068 31.234 10.9864 29.6279C12.1606 28.0058 13.6544 26.6392 15.3764 25.6115C17.2351 24.5012 19.2934 23.7632 21.4361 23.4393C22.3197 23.3073 23.212 23.2411 24.1056 23.2413C25.4156 23.244 26.7212 23.3947 27.9971 23.6905C30.0795 24.1626 32.0544 25.0197 33.8196 26.2173C35.5908 27.3985 37.115 28.9111 38.3075 30.6711C39.5585 32.4725 40.4256 34.5104 40.8553 36.6588C41.2956 38.7895 41.3106 40.9857 40.8998 43.1223C40.493 45.2326 39.6703 47.2416 38.4794 49.0331C37.3096 50.7572 35.8011 52.227 34.0451 53.3538C32.2899 54.5154 30.3021 55.2828 28.2196 55.6029C27.4139 55.7289 26.6 55.796 25.7844 55.8039Z" fill="white" stroke="black" stroke-width="0.5" stroke-linecap="round" stroke-linejoin="round"/>
<path d="M29.7947 31.5785L22.2222 42.1913L17.4942 38.8517L15.4149 41.7628L22.9726 47.115L32.6214 33.5734L29.7947 31.5785Z" fill="#E67AE6" stroke="#0D0D0D" stroke-width="0.5" stroke-linejoin="round"/>
</g>
<defs>
<clipPath id="clip0_31350_4426">
<rect width="71" height="77" fill="white"/>
</clipPath>
</defs>
</svg>
