<svg width="40" height="40" viewBox="0 0 40 40" fill="none" xmlns="http://www.w3.org/2000/svg">
<g id="UPI-points">
<path id="Fill 3" opacity="0.9" d="M38 20C38 29.9415 29.9415 38 20 38C10.0585 38 2 29.9415 2 20C2 10.0585 10.0585 2 20 2C29.9415 2 38 10.0585 38 20" stroke="#06C270" stroke-width="0.7"/>
<path id="Path 92" d="M25.7842 14.4204C26.2666 13.8861 27.0766 13.8572 27.5934 14.3559C28.1102 14.8546 28.1381 15.6919 27.6557 16.2262L18.6958 26.151C18.2278 26.6694 17.4478 26.7143 16.927 26.2528L12.447 22.2829C11.9103 21.8073 11.8481 20.9719 12.3082 20.417C12.7682 19.8621 13.5763 19.7978 14.113 20.2735L17.6614 23.4179L25.7842 14.4204Z" fill="#06C270" stroke="#06C270" stroke-width="0.2"/>
</g>
</svg>
