<svg width="23" height="25" viewBox="0 0 23 25" fill="none" xmlns="http://www.w3.org/2000/svg">
<path d="M22.9712 16.0192L20.4959 3.95832C20.4643 3.79988 20.3915 3.65235 20.2846 3.53031C20.1777 3.40828 20.0405 3.31596 19.8865 3.26249L10.5103 0.0524315C10.3633 0.00132982 10.2057 -0.0127064 10.0518 0.0115916C9.89795 0.0358896 9.75263 0.0977551 9.62898 0.191596L1.88428 6.01795C1.82344 6.06888 1.76699 6.12474 1.71552 6.18495L0.196592 8.12398C0.114123 8.22924 0.0555071 8.35085 0.0247672 8.48052C-0.00597269 8.61019 -0.00811799 8.74489 0.0184436 8.87547L2.5125 21.0106C2.54494 21.1701 2.61917 21.3183 2.72779 21.4405C2.8364 21.5626 2.97555 21.6543 3.1313 21.7064L12.7325 24.9443C12.8317 24.98 12.9363 24.9988 13.0419 25C13.2534 24.9988 13.4582 24.9269 13.6232 24.7959L21.1241 18.9139L21.2835 18.7561L22.8024 16.8171C22.8901 16.7056 22.9509 16.5758 22.9801 16.4375C23.0094 16.2992 23.0063 16.1562 22.9712 16.0192V16.0192Z" fill="#0D0D0D"/>
<path d="M8.04432 16.7802L6.17847 7.67883L11.4385 3.85645L17.8799 5.96247L19.7457 15.0917L14.7482 18.9141L8.04432 16.7802Z" fill="#92FCFF" stroke="black" stroke-width="0.15" stroke-linecap="round" stroke-linejoin="round"/>
<path d="M17.8798 5.96247L11.4384 3.85645L10.8665 4.26466L7.49109 14.0897L8.04428 16.7802L14.7482 18.9141L15.2639 18.5244L18.5174 9.07976L17.8798 5.96247Z" fill="white"/>
<path d="M19.7459 15.0913L14.7579 18.923L14.5797 22.133L22.0806 16.251L19.7459 15.0913Z" fill="#50FF9F" stroke="black" stroke-width="0.15" stroke-linecap="round" stroke-linejoin="round"/>
<path d="M22.0618 16.251L14.5796 22.1423L4.95972 18.8951L8.03509 16.7798L14.7578 18.9229L14.5796 22.133L22.0618 16.251Z" fill="#50FF9F" stroke="black" stroke-width="0.15" stroke-linecap="round" stroke-linejoin="round"/>
<path d="M19.5675 4.08799L17.8892 5.96208L11.429 3.85605L10.2289 0.87793L19.5675 4.08799Z" fill="#28EAFA" stroke="black" stroke-width="0.15" stroke-linecap="round" stroke-linejoin="round"/>
<path d="M22.0618 16.2514L19.7553 15.0917L17.8894 5.96246L19.5677 4.08838L22.0618 16.2514Z" fill="#28EAFA" stroke="black" stroke-width="0.15" stroke-linecap="round" stroke-linejoin="round"/>
<path d="M11.4291 3.85605L6.16907 7.67844L2.48425 6.75995L10.2289 0.87793L11.4291 3.85605Z" fill="#1AD3FF" stroke="black" stroke-width="0.15" stroke-linecap="round" stroke-linejoin="round"/>
<path d="M14.5797 22.1334L13.0701 24.0724L3.45959 20.8253L4.96915 18.8862L14.5797 22.1334Z" fill="#1E74FF" stroke="black" stroke-width="0.15" stroke-linecap="round" stroke-linejoin="round"/>
<path d="M14.7582 18.9141L14.58 22.1335L4.96948 18.8863L8.03548 16.7803L14.7582 18.9141Z" fill="#1AD3FF" stroke="black" stroke-width="0.15" stroke-linecap="round" stroke-linejoin="round"/>
<path d="M22.0619 16.251L14.5797 22.133L14.7579 18.923V18.9137L19.7366 15.0913H19.7553L22.0619 16.251Z" fill="#28EAFA" stroke="black" stroke-width="0.15" stroke-linecap="round" stroke-linejoin="round"/>
<path d="M22.0617 16.251L20.5427 18.19L13.0699 24.072L14.5795 22.133L22.0617 16.251Z" fill="#1E74FF" stroke="black" stroke-width="0.15" stroke-linecap="round" stroke-linejoin="round"/>
<path d="M4.96931 18.8861L3.45975 20.8252L0.965698 8.69L2.47526 6.76025L4.96931 18.8861Z" fill="#1E74FF" stroke="black" stroke-width="0.15" stroke-linecap="round" stroke-linejoin="round"/>
<path d="M8.03492 16.7801L4.95955 18.8954L2.48425 6.76025L6.16907 7.67874L8.03492 16.7801Z" fill="#1AD3FF" stroke="black" stroke-width="0.15" stroke-linecap="round" stroke-linejoin="round"/>
<path d="M14.4105 10.2853L13.051 10.4894L12.826 6.9082L10.2382 12.5676L13.1541 12.1315L13.3792 15.8055V15.7962V15.8055L15.9013 10.0626L14.4105 10.2853Z" fill="#00ABD3" stroke="black" stroke-width="0.15" stroke-linecap="round" stroke-linejoin="round"/>
</svg>
