<svg width="38" height="38" viewBox="0 0 38 38" fill="none" xmlns="http://www.w3.org/2000/svg">
<rect opacity="0.1" x="1" y="1" width="36" height="36" fill="#121212" stroke="white" stroke-width="0.4" stroke-linecap="square"/>
<circle cx="19.0001" cy="18.9996" r="9.9" fill="#121212" stroke="white" stroke-width="0.5" stroke-linecap="round" stroke-linejoin="round"/>
<path d="M20.028 21.4894H17.9708V20.8744C17.97 20.2735 18.1508 19.6851 18.4915 19.1803C18.8321 18.6754 19.3181 18.2755 19.8908 18.0288C20.0953 17.9382 20.2685 17.7936 20.39 17.612C20.5115 17.4304 20.5762 17.2194 20.5766 17.0038V16.5282C20.5755 16.3983 20.5472 16.2699 20.4932 16.1507C20.4392 16.0315 20.3606 15.9239 20.2622 15.8344C20.1639 15.7448 20.0476 15.6752 19.9205 15.6295C19.7934 15.5839 19.6579 15.5632 19.5223 15.5687H18.468C18.1997 15.5687 17.9425 15.6706 17.7528 15.8521C17.5631 16.0336 17.4566 16.2797 17.4566 16.5363H15.3994C15.3994 15.7577 15.7227 15.011 16.2982 14.4605C16.8736 13.9099 17.6541 13.6006 18.468 13.6006H19.5223C19.926 13.5995 20.3259 13.6746 20.6992 13.8217C21.0725 13.9688 21.4118 14.1848 21.6976 14.4576C21.9835 14.7303 22.2103 15.0543 22.365 15.411C22.5198 15.7677 22.5994 16.1501 22.5994 16.5363V17.012C22.5998 17.6044 22.4223 18.1844 22.088 18.6831C21.7537 19.1818 21.2767 19.578 20.7137 19.8247C20.5085 19.9167 20.335 20.0628 20.2136 20.2458C20.0921 20.4289 20.0278 20.6412 20.028 20.858V21.4894Z" fill="#121212" stroke="white" stroke-width="0.5" stroke-linecap="round" stroke-linejoin="round"/>
<path d="M20.0278 22.4316H17.9707V24.3997H20.0278V22.4316Z" fill="#121212" stroke="white" stroke-width="0.5" stroke-linecap="round" stroke-linejoin="round"/>
</svg>
