<svg width="46" height="53" viewBox="0 0 46 53" fill="none" xmlns="http://www.w3.org/2000/svg">
<g clip-path="url(#clip0_4451_17938)">
<path opacity="0.32" d="M20.5396 52.1599C30.1494 52.1599 37.9396 50.2034 37.9396 47.7899C37.9396 45.3764 30.1494 43.4199 20.5396 43.4199C10.9299 43.4199 3.13965 45.3764 3.13965 47.7899C3.13965 50.2034 10.9299 52.1599 20.5396 52.1599Z" fill="black" stroke="black" stroke-width="0.3" stroke-miterlimit="10"/>
<path d="M30.1902 2.99023L13.5802 6.99023L10.5802 22.4102C10.003 25.3304 10.1127 28.3448 10.9006 31.2153C11.6886 34.0859 13.1331 36.7339 15.1202 38.9502L18.2402 42.7902L15.2402 45.1502L22.1502 47.6402L32.6002 41.8602C35.1438 40.4755 37.3452 38.5389 39.0427 36.1925C40.7402 33.8461 41.8909 31.1494 42.4102 28.3002L45.4102 12.3002L30.1902 2.99023Z" fill="#FF8439" stroke="black" stroke-width="0.3" stroke-miterlimit="10"/>
<path d="M23.6104 0.160156L30.6704 2.27016L45.4904 12.2602L38.1804 10.2202L23.6104 0.160156Z" fill="#FF9E7E" stroke="black" stroke-width="0.3" stroke-linecap="round" stroke-linejoin="round"/>
<path d="M15.2802 45.1998L25.2802 39.8397C27.8239 38.4539 30.0257 36.5172 31.7247 34.1711C33.4238 31.825 34.577 29.1288 35.1002 26.2797L38.1002 10.2197L23.5302 0.219727L6.18016 5.0097L3.18016 20.4297C2.60316 23.3508 2.71197 26.3658 3.49804 29.2377C4.28411 32.1095 5.72598 34.7597 7.71016 36.9797L15.2802 45.1998Z" fill="#FF9E7E" stroke="black" stroke-width="0.3" stroke-miterlimit="10"/>
<path d="M38.1803 10.2204L37.0103 16.3504L9.51028 38.7904L7.78027 36.8904C5.9404 34.8319 4.57492 32.3945 3.78027 29.7504L32.3603 6.15039L38.1803 10.2204Z" fill="white" stroke="black" stroke-width="0.3" stroke-miterlimit="10"/>
<path d="M16.2799 40.9197L24.4099 36.5797C26.4837 35.4645 28.2798 33.8965 29.6647 31.9922C31.0496 30.088 31.9879 27.8962 32.4099 25.5797L34.8799 12.5797L23.0699 4.42969L9.06987 8.3197L6.53987 20.7897C6.07314 23.1549 6.16167 25.5962 6.7985 27.9214C7.43533 30.2466 8.60309 32.3924 10.2099 34.1897L16.2799 40.9197Z" fill="white" stroke="black" stroke-width="0.3" stroke-miterlimit="10"/>
<path d="M20.9062 14.1797L27.2463 22.1729L17.9385 29.4789L20.9062 14.1797Z" fill="#FF9E7E" stroke="black" stroke-width="0.206056" stroke-linejoin="round"/>
<path d="M14.8984 13.8984L21.2398 21.885L11.918 29.1883L14.8984 13.8984Z" fill="#FF9E7E" stroke="black" stroke-width="0.206056" stroke-linejoin="round"/>
<path d="M1.63996 24.4502L1.46996 24.5703C1.94737 25.2058 2.29373 25.9298 2.48893 26.7004C2.68413 27.4709 2.72429 28.2725 2.60706 29.0587C2.48983 29.8449 2.21755 30.6 1.80605 31.28C1.39454 31.9601 0.852007 32.5516 0.209961 33.0202L0.329964 33.1902C0.965809 32.7113 1.69061 32.3636 2.46214 32.1675C3.23368 31.9715 4.03652 31.9308 4.82389 32.0481C5.61127 32.1654 6.36744 32.4382 7.04835 32.8506C7.72926 33.263 8.32129 33.8067 8.78996 34.4502L8.94996 34.3302C7.99828 33.0402 7.59654 31.4256 7.8327 29.84C8.06885 28.2544 8.92366 26.827 10.21 25.8702L10.09 25.7102C9.45442 26.1876 8.73036 26.534 7.95982 26.7292C7.18929 26.9244 6.38765 26.9645 5.60146 26.8473C4.81528 26.7301 4.06023 26.4578 3.38017 26.0463C2.7001 25.6348 2.10858 25.0922 1.63996 24.4502Z" fill="white" stroke="black" stroke-width="0.3" stroke-miterlimit="10"/>
<path d="M33.4902 19.6702C33.4902 19.6702 38.0902 22.6702 43.0202 18.3702C44.2831 17.1097 45.065 15.4469 45.2302 13.6702C45.3202 12.1202 44.5302 11.6702 44.5302 11.6702L43.0402 10.7402L33.4902 17.2002V19.6702Z" fill="black" stroke="black" stroke-width="0.3" stroke-miterlimit="10"/>
<path fill-rule="evenodd" clip-rule="evenodd" d="M38.16 1.50039C33.65 0.290392 29.02 3.40034 27.8 8.45034C26.58 13.5003 29.24 18.5404 33.75 19.6904C38.26 20.8404 42.9 17.6904 44.12 12.6904C45.34 7.69039 42.66 2.70039 38.16 1.50039Z" fill="#FF9E7E" stroke="#0D0D0D" stroke-width="0.3" stroke-linejoin="round"/>
<path fill-rule="evenodd" clip-rule="evenodd" d="M34.0391 12.7497L36.3491 13.6397L38.3491 5.7597L35.9791 4.92969L34.0391 12.7497Z" fill="white" stroke="#0D0D0D" stroke-width="0.3" stroke-miterlimit="10"/>
<path fill-rule="evenodd" clip-rule="evenodd" d="M33.2188 16.0737L35.5387 16.9937L36.0987 14.7437L33.7587 13.8438L33.2188 16.0737Z" fill="white" stroke="#0D0D0D" stroke-width="0.3" stroke-miterlimit="10"/>
</g>
<defs>
<clipPath id="clip0_4451_17938">
<rect width="45.66" height="52.31" fill="white"/>
</clipPath>
</defs>
</svg>
