<svg width="22" height="22" viewBox="0 0 22 22" fill="none" xmlns="http://www.w3.org/2000/svg">
<path d="M11 0.5C13.784 0.502648 16.4531 1.60975 18.4217 3.57831C20.3903 5.54687 21.4974 8.21604 21.5 11C21.4974 13.784 20.3903 16.4531 18.4217 18.4217C16.4531 20.3903 13.784 21.4974 11 21.5C8.21604 21.4974 5.54687 20.3903 3.57831 18.4217C1.60975 16.4531 0.502648 13.784 0.5 11C0.502648 8.21604 1.60975 5.54687 3.57831 3.57831C5.54687 1.60975 8.21604 0.502648 11 0.5ZM11 0C8.08262 0 5.28473 1.15893 3.22183 3.22183C1.15893 5.28473 0 8.08262 0 11C0 13.9174 1.15893 16.7153 3.22183 18.7782C5.28473 20.8411 8.08262 22 11 22C13.9174 22 16.7153 20.8411 18.7782 18.7782C20.8411 16.7153 22 13.9174 22 11C22 8.08262 20.8411 5.28473 18.7782 3.22183C16.7153 1.15893 13.9174 0 11 0Z" fill="#0D0D0D"/>
<path fill-rule="evenodd" clip-rule="evenodd" d="M10.9999 12.5C10.6021 12.5 10.2205 12.3419 9.93922 12.0606C9.65792 11.7793 9.49988 11.3978 9.49988 11C9.49988 10.6022 9.65792 10.2206 9.93922 9.93933C10.2205 9.65803 10.6021 9.5 10.9999 9.5C11.3977 9.5 11.7792 9.65803 12.0605 9.93933C12.3419 10.2206 12.4999 10.6022 12.4999 11C12.4999 11.3978 12.3419 11.7793 12.0605 12.0606C11.7792 12.3419 11.3977 12.5 10.9999 12.5V12.5Z" fill="#0D0D0D" stroke="#FBFBFB" stroke-width="0.5" stroke-linecap="round" stroke-linejoin="round"/>
<path fill-rule="evenodd" clip-rule="evenodd" d="M15.5 12.5C15.1022 12.5 14.7207 12.3419 14.4393 12.0606C14.158 11.7793 14 11.3978 14 11C14 10.6022 14.158 10.2206 14.4393 9.93933C14.7207 9.65803 15.1022 9.5 15.5 9.5C15.8978 9.5 16.2794 9.65803 16.5607 9.93933C16.842 10.2206 17 10.6022 17 11C17 11.3978 16.842 11.7793 16.5607 12.0606C16.2794 12.3419 15.8978 12.5 15.5 12.5V12.5Z" fill="#0D0D0D" stroke="#FBFBFB" stroke-width="0.5" stroke-linecap="round" stroke-linejoin="round"/>
<path fill-rule="evenodd" clip-rule="evenodd" d="M6.49994 12.5C6.10211 12.5 5.72059 12.3419 5.43929 12.0606C5.15798 11.7793 4.99994 11.3978 4.99994 11C4.99994 10.6022 5.15798 10.2206 5.43929 9.93933C5.72059 9.65803 6.10211 9.5 6.49994 9.5C6.89776 9.5 7.2793 9.65803 7.56061 9.93933C7.84191 10.2206 7.99994 10.6022 7.99994 11C7.99994 11.3978 7.84191 11.7793 7.56061 12.0606C7.2793 12.3419 6.89776 12.5 6.49994 12.5V12.5Z" fill="#0D0D0D" stroke="#FBFBFB" stroke-width="0.5" stroke-linecap="round" stroke-linejoin="round"/>
</svg>
