<svg width="22" height="22" viewBox="0 0 22 22" fill="none" xmlns="http://www.w3.org/2000/svg">
<path d="M11 0.5C13.784 0.502648 16.4531 1.60975 18.4217 3.57831C20.3903 5.54687 21.4974 8.21604 21.5 11C21.4974 13.784 20.3903 16.4531 18.4217 18.4217C16.4531 20.3903 13.784 21.4974 11 21.5C8.21604 21.4974 5.54687 20.3903 3.57831 18.4217C1.60975 16.4531 0.502648 13.784 0.5 11C0.502648 8.21604 1.60975 5.54687 3.57831 3.57831C5.54687 1.60975 8.21604 0.502648 11 0.5ZM11 0C8.08262 0 5.28473 1.15893 3.22183 3.22183C1.15893 5.28473 0 8.08262 0 11C0 13.9174 1.15893 16.7153 3.22183 18.7782C5.28473 20.8411 8.08262 22 11 22C13.9174 22 16.7153 20.8411 18.7782 18.7782C20.8411 16.7153 22 13.9174 22 11C22 8.08262 20.8411 5.28473 18.7782 3.22183C16.7153 1.15893 13.9174 0 11 0Z" fill="#FBFBFB"/>
<path fill-rule="evenodd" clip-rule="evenodd" d="M11 12.5C10.6022 12.5 10.2207 12.3419 9.93935 12.0606C9.65804 11.7793 9.5 11.3978 9.5 11C9.5 10.6022 9.65804 10.2206 9.93935 9.93933C10.2207 9.65803 10.6022 9.5 11 9.5C11.3978 9.5 11.7794 9.65803 12.0607 9.93933C12.342 10.2206 12.5 10.6022 12.5 11C12.5 11.3978 12.342 11.7793 12.0607 12.0606C11.7794 12.3419 11.3978 12.5 11 12.5Z" fill="#FBFBFB" stroke="#FBFBFB" stroke-width="0.5" stroke-linecap="round" stroke-linejoin="round"/>
<path fill-rule="evenodd" clip-rule="evenodd" d="M15.4998 12.5C15.1019 12.5 14.7204 12.3419 14.4391 12.0606C14.1578 11.7793 13.9998 11.3978 13.9998 11C13.9998 10.6022 14.1578 10.2206 14.4391 9.93933C14.7204 9.65803 15.1019 9.5 15.4998 9.5C15.8976 9.5 16.2791 9.65803 16.5604 9.93933C16.8417 10.2206 16.9998 10.6022 16.9998 11C16.9998 11.3978 16.8417 11.7793 16.5604 12.0606C16.2791 12.3419 15.8976 12.5 15.4998 12.5Z" fill="#FBFBFB" stroke="#FBFBFB" stroke-width="0.5" stroke-linecap="round" stroke-linejoin="round"/>
<path fill-rule="evenodd" clip-rule="evenodd" d="M6.5 12.5C6.10218 12.5 5.72065 12.3419 5.43935 12.0606C5.15804 11.7793 5 11.3978 5 11C5 10.6022 5.15804 10.2206 5.43935 9.93933C5.72065 9.65803 6.10218 9.5 6.5 9.5C6.89782 9.5 7.27936 9.65803 7.56067 9.93933C7.84197 10.2206 8 10.6022 8 11C8 11.3978 7.84197 11.7793 7.56067 12.0606C7.27936 12.3419 6.89782 12.5 6.5 12.5Z" fill="#FBFBFB" stroke="#FBFBFB" stroke-width="0.5" stroke-linecap="round" stroke-linejoin="round"/>
</svg>
