<svg width="30" height="31" viewBox="0 0 30 31" fill="none" xmlns="http://www.w3.org/2000/svg">
<path d="M0.25 0.421875H29.75V29.9219H0.25V0.421875Z" stroke="#FBFBFB" stroke-opacity="0.5" stroke-width="0.5"/>
<path d="M15.373 17.4297C16.4086 17.4297 17.248 16.5902 17.248 15.5547C17.248 14.5192 16.4086 13.6797 15.373 13.6797C14.3375 13.6797 13.498 14.5192 13.498 15.5547C13.498 16.5902 14.3375 17.4297 15.373 17.4297Z" fill="white"/>
<path d="M20.623 17.4297C21.6586 17.4297 22.498 16.5902 22.498 15.5547C22.498 14.5192 21.6586 13.6797 20.623 13.6797C19.5875 13.6797 18.748 14.5192 18.748 15.5547C18.748 16.5902 19.5875 17.4297 20.623 17.4297Z" fill="white"/>
<path d="M10.123 17.4297C11.1586 17.4297 11.998 16.5902 11.998 15.5547C11.998 14.5192 11.1586 13.6797 10.123 13.6797C9.08751 13.6797 8.24805 14.5192 8.24805 15.5547C8.24805 16.5902 9.08751 17.4297 10.123 17.4297Z" fill="white"/>
</svg>
