<svg width="46" height="29" viewBox="0 0 46 29" fill="none" xmlns="http://www.w3.org/2000/svg">
<g filter="url(#filter0_d_296_3936)">
<mask id="path-1-inside-1_296_3936" fill="white">
<path fill-rule="evenodd" clip-rule="evenodd" d="M18.4821 20.5387L2.34375 20.5387C1.23918 20.5387 0.34375 19.6433 0.343751 18.5387L0.343752 0.538735L45.3438 0.538739L45.3438 18.5387C45.3438 19.6433 44.4483 20.5387 43.3438 20.5387L27.6315 20.5387L23.7639 24.4063C23.3734 24.7968 22.7402 24.7968 22.3497 24.4063L18.4821 20.5387Z"/>
</mask>
<path fill-rule="evenodd" clip-rule="evenodd" d="M18.4821 20.5387L2.34375 20.5387C1.23918 20.5387 0.34375 19.6433 0.343751 18.5387L0.343752 0.538735L45.3438 0.538739L45.3438 18.5387C45.3438 19.6433 44.4483 20.5387 43.3438 20.5387L27.6315 20.5387L23.7639 24.4063C23.3734 24.7968 22.7402 24.7968 22.3497 24.4063L18.4821 20.5387Z" fill="white"/>
<path d="M18.4821 20.5387L19.1892 19.8316L18.8963 19.5387L18.4821 19.5387L18.4821 20.5387ZM2.34375 20.5387L2.34375 21.5387L2.34375 20.5387ZM0.343752 0.538735L0.343752 -0.461265L-0.656248 -0.461265L-0.656248 0.538735L0.343752 0.538735ZM45.3438 0.538739L46.3438 0.538739L46.3438 -0.461261L45.3438 -0.461261L45.3438 0.538739ZM27.6315 20.5387L27.6315 19.5387L27.2173 19.5387L26.9244 19.8316L27.6315 20.5387ZM23.7639 24.4063L24.471 25.1134L24.471 25.1134L23.7639 24.4063ZM22.3497 24.4063L23.0568 23.6992L23.0568 23.6992L22.3497 24.4063ZM18.4821 19.5387L2.34375 19.5387L2.34375 21.5387L18.4821 21.5387L18.4821 19.5387ZM2.34375 19.5387C1.79146 19.5387 1.34375 19.091 1.34375 18.5387L-0.656249 18.5387C-0.65625 20.1956 0.686892 21.5387 2.34375 21.5387L2.34375 19.5387ZM1.34375 18.5387L1.34375 0.538735L-0.656248 0.538735L-0.656249 18.5387L1.34375 18.5387ZM0.343752 1.53874L45.3438 1.53874L45.3438 -0.461261L0.343752 -0.461265L0.343752 1.53874ZM44.3438 0.538739L44.3438 18.5387L46.3438 18.5387L46.3438 0.538739L44.3438 0.538739ZM44.3438 18.5387C44.3438 19.091 43.896 19.5387 43.3438 19.5387L43.3438 21.5387C45.0006 21.5387 46.3438 20.1956 46.3438 18.5387L44.3438 18.5387ZM43.3438 19.5387L27.6315 19.5387L27.6315 21.5387L43.3438 21.5387L43.3438 19.5387ZM26.9244 19.8316L23.0568 23.6992L24.471 25.1134L28.3386 21.2458L26.9244 19.8316ZM23.0568 23.6992L23.0568 23.6992L21.6426 25.1134C22.4236 25.8945 23.69 25.8945 24.471 25.1134L23.0568 23.6992ZM23.0568 23.6992L19.1892 19.8316L17.775 21.2458L21.6426 25.1134L23.0568 23.6992Z" fill="black" mask="url(#path-1-inside-1_296_3936)"/>
</g>
<defs>
<filter id="filter0_d_296_3936" x="0.34375" y="0.538574" width="45" height="28.1606" filterUnits="userSpaceOnUse" color-interpolation-filters="sRGB">
<feFlood flood-opacity="0" result="BackgroundImageFix"/>
<feColorMatrix in="SourceAlpha" type="matrix" values="0 0 0 0 0 0 0 0 0 0 0 0 0 0 0 0 0 0 127 0" result="hardAlpha"/>
<feOffset dy="4"/>
<feComposite in2="hardAlpha" operator="out"/>
<feColorMatrix type="matrix" values="0 0 0 0 0 0 0 0 0 0 0 0 0 0 0 0 0 0 0.05 0"/>
<feBlend mode="normal" in2="BackgroundImageFix" result="effect1_dropShadow_296_3936"/>
<feBlend mode="normal" in="SourceGraphic" in2="effect1_dropShadow_296_3936" result="shape"/>
</filter>
</defs>
</svg>
