<svg width="120" height="100" viewBox="0 0 120 100" fill="none" xmlns="http://www.w3.org/2000/svg">
<path d="M23.3 82.2443L18.9836 88.0853L39.833 83.3234L44.1494 77.4923L23.3 82.2443Z" fill="#FF784B" stroke="#0D0D0D" stroke-width="0.5" stroke-linejoin="round"/>
<path d="M19.9538 66.9488L24.2702 61.1078L23.3 82.2344L18.9836 88.0754L19.9538 66.9488Z" fill="#FF784B" stroke="#0D0D0D" stroke-width="0.5" stroke-linejoin="round"/>
<path d="M90.5608 77.5121L86.2444 83.3432L65.2168 81.7889L69.5431 75.9578L90.5608 77.5121V77.5121Z" fill="#FF784B" stroke="#0D0D0D" stroke-width="0.5" stroke-linejoin="round"/>
<path d="M1.5 56.7814L5.8164 50.9503L24.27 61.1077L19.9536 66.9487L1.5 56.7814Z" fill="#FF784B" stroke="#0D0D0D" stroke-width="0.5" stroke-linejoin="round"/>
<path d="M11.4299 22.4978L15.7463 16.6667L21.2606 36.7736L16.9442 42.6047L11.4299 22.4978V22.4978Z" fill="#FF784B" stroke="#0D0D0D" stroke-width="0.5" stroke-linejoin="round"/>
<path d="M82.0267 33.071L83.0068 11.9345L62.1574 16.6766L48.3568 0.5L36.7639 18.221L15.7561 16.6766L21.2704 36.7835L5.82642 50.9504L24.28 61.1078L23.3098 82.2344L44.1592 77.4824L57.9598 93.659L69.5527 75.9479L90.5704 77.5022L85.0759 57.3854L100.51 43.2086L82.0366 33.0512L82.0267 33.071Z" fill="#FFDF0D" stroke="#0D0D0D" stroke-width="0.5" stroke-linecap="round" stroke-linejoin="round"/>
<path d="M75.2843 36.3479L76.0367 20.1515L60.0581 23.7848L49.4849 11.39L40.6046 24.9629L24.5073 23.7749L28.7345 39.1793L16.9041 50.0396L31.0412 57.821L30.2987 74.0075L46.2773 70.3643C50.4056 75.2054 52.7222 77.918 56.8505 82.7591L65.7308 69.1862L81.8381 70.3742L77.6306 54.9599L89.4611 44.0996L75.314 36.3182L75.2843 36.3479Z" fill="white" stroke="#0D0D0D" stroke-width="0.5" stroke-linecap="round" stroke-linejoin="round"/>
<path d="M42.8328 48.2774C43.8327 48.1091 44.793 47.7428 45.6642 47.2082C46.9413 46.4063 47.961 45.2381 48.5649 43.8521C49.1787 42.4661 49.3569 40.9316 49.0797 39.4466C48.7233 37.4468 47.5848 35.6747 45.9216 34.5164C44.2584 33.3581 42.2091 32.8928 40.2093 33.2195H40.1697C38.6847 33.467 37.3086 34.1501 36.2097 35.1698C35.1009 36.1994 34.3287 37.5359 33.9921 39.011C33.6555 40.4861 33.7644 42.0206 34.3089 43.4363C34.9722 45.0896 36.1701 46.4657 37.7244 47.3468C39.2787 48.2279 41.0805 48.5447 42.8328 48.2576V48.2774ZM38.4966 41.9018C38.259 41.3078 38.2095 40.6643 38.358 40.0406C38.4966 39.4169 38.8233 38.8625 39.2886 38.4269C39.744 38.0012 40.3182 37.7141 40.9419 37.6151C41.7735 37.4765 42.6249 37.6745 43.308 38.1596C43.9119 38.5853 44.3574 39.209 44.5554 39.9218C44.7534 40.6346 44.7039 41.3969 44.4069 42.0701C44.1495 42.6443 43.7238 43.1294 43.1991 43.4561C42.6546 43.7927 42.0309 43.961 41.3973 43.9412C40.7637 43.9214 40.14 43.7135 39.6153 43.3472C39.1104 42.9809 38.7243 42.476 38.4966 41.8919V41.9018Z" fill="#FF784B" stroke="#0D0D0D" stroke-width="0.5" stroke-linecap="round" stroke-linejoin="round"/>
<path d="M70.196 54.257C69.8099 52.2473 68.6615 50.4752 66.9884 49.2971C65.3153 48.119 63.2561 47.6438 61.2365 47.9606C59.7416 48.2081 58.3457 48.8912 57.2369 49.9307C56.138 50.9603 55.3658 52.3067 55.0391 53.7818C54.7124 55.2569 54.8312 56.8013 55.3955 58.1972C55.9598 59.6228 56.9201 60.8405 58.1774 61.7216C59.8604 62.9096 61.9394 63.3947 63.9788 63.0581C64.9787 62.8997 65.939 62.5433 66.8003 62.0186C68.0873 61.2266 69.107 60.0584 69.7208 58.6724C70.3346 57.2864 70.5128 55.7519 70.2257 54.257H70.2059H70.196ZM65.543 56.8409C65.2856 57.4151 64.8599 57.9002 64.3253 58.2269C63.7808 58.5635 63.1571 58.7318 62.5235 58.7021C61.88 58.6823 61.2563 58.4744 60.7316 58.0982C60.2069 57.7319 59.801 57.2072 59.5634 56.6132C59.3258 56.0192 59.2763 55.3757 59.4149 54.7619C59.5535 54.1481 59.8703 53.5838 60.3356 53.1482C60.8009 52.7225 61.3751 52.4354 61.9988 52.3364C62.8403 52.2077 63.7115 52.4156 64.4045 52.9007C65.1074 53.3957 65.5925 54.1382 65.7509 54.9698C65.8598 55.5935 65.7905 56.237 65.5331 56.8211L65.543 56.8409Z" fill="#FF784B" stroke="#0D0D0D" stroke-width="0.5" stroke-linecap="round" stroke-linejoin="round"/>
<path d="M59.9794 32.8333L40.1101 60.7612L43.8028 63.3352L63.6721 35.4073L59.9794 32.8333Z" fill="#FF784B" stroke="#0D0D0D" stroke-width="0.5" stroke-linecap="round" stroke-linejoin="round"/>
<path d="M57.9495 93.6689L53.6331 99.5L39.8325 83.3234L44.1489 77.4923L57.9495 93.6689Z" fill="#FF784B" stroke="#0D0D0D" stroke-width="0.5" stroke-linejoin="round"/>
<mask id="mask0_8375_18518" style="mask-type:alpha" maskUnits="userSpaceOnUse" x="5" y="0" width="96" height="94">
<path d="M82.0265 33.071L83.0066 11.9345L62.1572 16.6766L48.3566 0.5L36.7637 18.221L15.7559 16.6766L21.2702 36.7835L5.82617 50.9504L24.2798 61.1078L23.3096 82.2344L44.159 77.4824L57.9596 93.659L69.5525 75.9479L90.5702 77.5022L85.0756 57.3854L100.51 43.2086L82.0363 33.0512L82.0265 33.071Z" fill="white" stroke="#0D0D0D" stroke-width="0.5" stroke-linecap="round" stroke-linejoin="round"/>
</mask>
<g mask="url(#mask0_8375_18518)">
<path d="M93.8639 51.9136C106.906 50.8798 116.31 39.4314 114.88 26.3502C113.451 13.2691 101.706 3.51134 88.6639 4.54508C75.6215 5.57882 66.2182 17.0273 67.6475 30.1084C69.0862 43.1896 80.8121 52.957 93.8545 51.9136H93.8639Z" fill="#0D0D0D" stroke="#0D0D0D" stroke-width="0.5" stroke-linejoin="round"/>
</g>
<path d="M97.1263 49.1828C110.3 48.1386 119.799 36.5745 118.355 23.3612C116.911 10.1479 105.048 0.291635 91.8737 1.33582C78.6996 2.38 69.2013 13.9441 70.645 27.1574C72.0983 40.3707 83.9426 50.2367 97.1168 49.1828H97.1263Z" fill="#9772FF" stroke="#0D0D0D" stroke-width="0.5" stroke-linejoin="round"/>
<path fill-rule="evenodd" clip-rule="evenodd" d="M92.4933 30.4981L97.5876 30.0913L95.6431 12.3644L90.5488 12.7712L92.4933 30.4981Z" fill="white" stroke="#0D0D0D" stroke-width="0.5" stroke-linecap="round" stroke-linejoin="round"/>
<path fill-rule="evenodd" clip-rule="evenodd" d="M93.2941 38.155L98.45 37.7482L97.8869 32.6408L92.731 33.0476L93.2941 38.155Z" fill="white" stroke="#0D0D0D" stroke-width="0.5" stroke-linecap="round" stroke-linejoin="round"/>
</svg>
