<svg width="20" height="20" viewBox="0 0 20 20" fill="none" xmlns="http://www.w3.org/2000/svg">
<path d="M9.97 0V0.5C11.8489 0.5 13.6856 1.05716 15.2479 2.10104C16.8102 3.14491 18.0278 4.62861 18.7469 6.36451C19.4659 8.10041 19.654 10.0105 19.2875 11.8534C18.9209 13.6962 18.0161 15.3889 16.6875 16.7175C15.3589 18.0461 13.6662 18.9509 11.8234 19.3175C9.98054 19.684 8.0704 19.4959 6.3345 18.7769C4.59861 18.0578 3.11491 16.8402 2.07104 15.2779C1.02716 13.7156 0.469997 11.8789 0.469997 10C0.483221 7.48208 1.49343 5.07194 3.2795 3.29711C5.06558 1.52228 7.48205 0.527319 10 0.529999V0H9.97ZM10 0C7.34784 0 4.8043 1.05357 2.92893 2.92893C1.05357 4.8043 0 7.34784 0 10C0 12.6522 1.05357 15.1957 2.92893 17.0711C4.8043 18.9464 7.34784 20 10 20C12.6522 20 15.1957 18.9464 17.0711 17.0711C18.9464 15.1957 20 12.6522 20 10C20 7.34784 18.9464 4.8043 17.0711 2.92893C15.1957 1.05357 12.6522 0 10 0Z" fill="#1FC87F"/>
<path d="M9.97926 11.5991C12.1829 11.5991 13.9693 9.81276 13.9693 7.60914C13.9693 5.40552 12.1829 3.61914 9.97926 3.61914C7.77564 3.61914 5.98926 5.40552 5.98926 7.60914C5.98926 9.81276 7.77564 11.5991 9.97926 11.5991Z" stroke="#1FC87F" stroke-width="0.5" stroke-linecap="round" stroke-linejoin="round"/>
<path d="M2.75 16.4498C3.32924 15.006 4.33007 13.7703 5.62199 12.9038C6.9139 12.0373 8.43694 11.5801 9.9925 11.592C11.5481 11.6039 13.0639 12.0842 14.3425 12.9704C15.621 13.8565 16.6029 15.1073 17.16 16.5598" stroke="#1FC87F" stroke-width="0.5" stroke-linecap="round" stroke-linejoin="round"/>
</svg>
