<svg width="34" height="10" viewBox="0 0 34 10" fill="none" xmlns="http://www.w3.org/2000/svg">
<path d="M0 7.71241L2.1407 0H5.56312C6.63272 0 7.34722 0.169327 7.71073 0.518259C8.07163 0.864389 8.14115 1.42937 7.92361 2.22349C7.79203 2.69129 7.59205 3.08395 7.31732 3.3942C7.04483 3.70501 6.68543 3.95077 6.24286 4.1315C6.61833 4.22177 6.85718 4.401 6.96427 4.66976C7.0708 4.93851 7.05847 5.33043 6.92914 5.8442L6.66879 6.92147L6.66805 6.95062C6.59291 7.25227 6.61515 7.41375 6.73757 7.42683L6.6587 7.71241H4.34344C4.35129 7.53093 4.36568 7.36871 4.38101 7.23246C4.39783 7.09304 4.41857 6.98501 4.43913 6.91081L4.655 6.14062C4.76377 5.7401 4.7705 5.4607 4.66958 5.29978C4.56772 5.13456 4.33971 5.05327 3.97975 5.05327H3.00677L2.2648 7.71241H0ZM3.48821 3.31533H4.53034C4.89553 3.31533 5.16503 3.26319 5.33118 3.15535C5.49808 3.04657 5.62199 2.86286 5.69469 2.59709C5.77001 2.32684 5.75151 2.13845 5.64349 2.03136C5.53565 1.92259 5.27754 1.8697 4.8718 1.8697H3.88947L3.48821 3.31533Z" fill="#D1D1D1"/>
<path d="M14.2778 2.02123L12.6996 7.71237H10.7819L11.0176 6.87863C10.68 7.21018 10.3346 7.46193 9.98646 7.62284C9.64108 7.78656 9.27663 7.86712 8.89294 7.86712C8.57578 7.86712 8.30347 7.80955 8.08424 7.69536C7.8624 7.58154 7.69718 7.40848 7.58598 7.18028C7.4873 6.98049 7.44431 6.73379 7.46113 6.43905C7.47889 6.14899 7.58131 5.6597 7.77119 4.97454L8.58905 2.02123H10.6868L9.87059 4.96071C9.75135 5.39095 9.72294 5.69334 9.78106 5.858C9.84162 6.02415 10.0033 6.10993 10.2657 6.10993C10.53 6.10993 10.7522 6.01424 10.9357 5.81893C11.1218 5.62531 11.2656 5.33656 11.3736 4.9523L12.183 2.02123H14.2778Z" fill="#D1D1D1"/>
<path d="M13.5167 7.71241L15.6551 0H18.5969C19.246 0 19.7483 0.0383132 20.1066 0.122416C20.4641 0.202968 20.7445 0.333794 20.9529 0.518259C21.214 0.759541 21.3739 1.0582 21.4397 1.41648C21.5016 1.77475 21.465 2.19209 21.3295 2.68213C21.0899 3.54428 20.6699 4.20495 20.0715 4.66658C19.4712 5.12223 18.7284 5.35118 17.842 5.35118H16.4653L15.8114 7.71241H13.5167ZM16.9866 3.46765H17.7263C18.2046 3.46765 18.5408 3.40859 18.7378 3.29458C18.9284 3.17908 19.0639 2.97387 19.1465 2.68213C19.2291 2.38646 19.2078 2.17976 19.083 2.06425C18.9628 1.94931 18.6557 1.89119 18.1644 1.89119H17.4262L16.9866 3.46765Z" fill="#D1D1D1"/>
<path d="M23.7972 7.71241L23.8185 7.17191C23.4802 7.42515 23.1376 7.61653 22.7932 7.73614C22.4502 7.858 22.085 7.91986 21.6939 7.91986C21.0997 7.91986 20.6854 7.75838 20.4458 7.44589C20.2092 7.13284 20.1703 6.68336 20.3318 6.10997C20.4863 5.54405 20.7613 5.12746 21.1579 4.86114C21.5522 4.59163 22.2108 4.39876 23.1348 4.27541C23.252 4.25635 23.409 4.24102 23.6056 4.21728C24.2887 4.13823 24.6722 3.95619 24.7548 3.65922C24.7978 3.49662 24.7717 3.37663 24.6707 3.30299C24.5734 3.22655 24.3913 3.18899 24.1286 3.18899C23.9104 3.18899 23.735 3.23422 23.591 3.32823C23.4473 3.42317 23.34 3.56184 23.2673 3.75696H21.2222C21.4068 3.11629 21.7841 2.63223 22.3506 2.30853C22.915 1.97922 23.6593 1.82073 24.581 1.82073C25.0144 1.82073 25.4026 1.86129 25.7458 1.94931C26.0895 2.0336 26.3406 2.15378 26.5036 2.29918C26.7042 2.48066 26.8228 2.68755 26.8567 2.91631C26.8957 3.14451 26.8529 3.47157 26.7333 3.89956L25.8536 7.07248C25.8254 7.17639 25.82 7.26909 25.8353 7.35338C25.8536 7.43375 25.8887 7.50252 25.9508 7.55168L25.9035 7.71241H23.7972ZM24.307 5.1712C24.0843 5.26072 23.7948 5.3465 23.435 5.4407C22.87 5.59227 22.5521 5.79449 22.4833 6.04474C22.4357 6.20566 22.4549 6.32957 22.5336 6.42377C22.6112 6.51329 22.7459 6.55852 22.9358 6.55852C23.284 6.55852 23.5636 6.47049 23.772 6.29668C23.9809 6.12062 24.1372 5.8442 24.2465 5.46294C24.2656 5.38183 24.2824 5.32352 24.2932 5.27997L24.307 5.1712Z" fill="#D1D1D1"/>
<path d="M25.9195 9.95496L26.385 8.27047H26.9853C27.1859 8.27047 27.3436 8.23085 27.4554 8.15871C27.5688 8.08377 27.646 7.95743 27.6905 7.78735C27.7127 7.71241 27.7264 7.63354 27.7357 7.54401C27.7417 7.44907 27.7417 7.34871 27.7357 7.23246L27.4154 2.02127H29.5387L29.5058 5.47434L31.3594 2.02127H33.334L30.057 7.68493C29.685 8.31795 29.4148 8.75285 29.2432 8.99021C29.0739 9.22457 28.9132 9.4068 28.7571 9.53015C28.5549 9.70078 28.3291 9.8217 28.0854 9.89216C27.8411 9.96412 27.4692 10 26.9693 10C26.8254 10 26.6598 9.9972 26.4807 9.98785C26.303 9.98094 26.1133 9.97028 25.9195 9.95496Z" fill="#D1D1D1"/>
</svg>
