<svg width="20" height="20" viewBox="0 0 20 20" fill="none" xmlns="http://www.w3.org/2000/svg">
<path d="M10 1.09868C12.3601 1.10092 14.6229 2.03946 16.2917 3.7083C17.9605 5.37713 18.8991 7.63991 18.9013 10C18.8991 12.3601 17.9605 14.6229 16.2917 16.2917C14.6229 17.9605 12.3601 18.8991 10 18.9013C7.63991 18.8991 5.37713 17.9605 3.7083 16.2917C2.03946 14.6229 1.10092 12.3601 1.09868 10C1.10092 7.63991 2.03946 5.37713 3.7083 3.7083C5.37713 2.03946 7.63991 1.10092 10 1.09868ZM10 0.674805C7.5268 0.674805 5.1549 1.65728 3.40608 3.4061C1.65727 5.15491 0.674805 7.5268 0.674805 10C0.674805 12.4732 1.65727 14.8451 3.40608 16.5939C5.1549 18.3427 7.5268 19.3252 10 19.3252C12.4732 19.3252 14.8451 18.3427 16.5939 16.5939C18.3427 14.8451 19.3252 12.4732 19.3252 10C19.3252 7.5268 18.3427 5.15491 16.5939 3.4061C14.8451 1.65728 12.4732 0.674805 10 0.674805Z" fill="#8A8A8A"/>
<path fill-rule="evenodd" clip-rule="evenodd" d="M13.8148 7.45668L12.5431 6.18506L9.99991 8.72829L7.45668 6.18506L6.18506 7.45668L8.72829 9.99991L6.18506 12.5431L7.45668 13.8148L9.99991 11.2715L12.5431 13.8148L13.8148 12.5431L11.2715 9.99991L13.8148 7.45668Z" fill="#8A8A8A"/>
</svg>
