<svg width="18" height="18" viewBox="0 0 18 18" fill="none" xmlns="http://www.w3.org/2000/svg">
<g clip-path="url(#clip0_5889_14872)">
<path d="M9 17C13.4183 17 17 13.4183 17 9C17 4.58172 13.4183 1 9 1C4.58172 1 1 4.58172 1 9C1 13.4183 4.58172 17 9 17Z" fill="#06C270"/>
<path d="M12.37 6.89L11.24 7.61C11.5174 8.03137 11.6635 8.52554 11.6599 9.03C11.6619 9.5585 11.507 10.0757 11.2149 10.5161C10.9227 10.9565 10.5064 11.3003 10.0187 11.5039C9.53098 11.7075 8.99381 11.7618 8.47523 11.6599C7.95664 11.558 7.48001 11.3045 7.1056 10.9315C6.73119 10.5585 6.47591 10.0828 6.37208 9.56458C6.26824 9.04638 6.32044 8.50902 6.52222 8.02056C6.72401 7.5321 7.06621 7.11451 7.5055 6.82068C7.94479 6.52685 8.4615 6.37001 8.99 6.37V7.37L11.61 5.72L8.99 4.06V5.06C8.19887 5.06 7.4255 5.2946 6.76771 5.73412C6.10991 6.17365 5.59719 6.79836 5.29444 7.52927C4.99169 8.26017 4.91244 9.06444 5.06678 9.84036C5.22112 10.6163 5.6021 11.329 6.16151 11.8884C6.72092 12.4478 7.43368 12.8288 8.2096 12.9831C8.98553 13.1375 9.78973 13.0583 10.5206 12.7555C11.2515 12.4528 11.8763 11.9401 12.3158 11.2823C12.7553 10.6245 12.99 9.85112 12.99 9.06C13.0005 8.29153 12.7849 7.53692 12.37 6.89Z" fill="white"/>
</g>
<defs>
<clipPath id="clip0_5889_14872">
<rect width="16" height="16" fill="white" transform="translate(1 1)"/>
</clipPath>
</defs>
</svg>
