<svg width="46" height="53" viewBox="0 0 46 53" fill="none" xmlns="http://www.w3.org/2000/svg">
<g clip-path="url(#clip0_4451_17646)">
<path opacity="0.32" d="M20.5396 52.1599C30.1494 52.1599 37.9396 50.2034 37.9396 47.7899C37.9396 45.3764 30.1494 43.4199 20.5396 43.4199C10.9299 43.4199 3.13965 45.3764 3.13965 47.7899C3.13965 50.2034 10.9299 52.1599 20.5396 52.1599Z" fill="black" stroke="black" stroke-width="0.3" stroke-miterlimit="10"/>
<path d="M30.1901 2.99023L13.5801 7.07025L10.5801 22.4902C10.0016 25.4097 10.1097 28.4236 10.8958 31.2941C11.682 34.1646 13.1247 36.813 15.1101 39.0303L18.2301 42.8703L15.2801 45.2303L22.1901 47.7203L32.6401 41.9402C35.185 40.5573 37.3875 38.6212 39.0852 36.2745C40.7829 33.9278 41.9328 31.2301 42.4501 28.3802L45.4501 12.3802L30.1901 2.99023Z" fill="#008445" stroke="black" stroke-width="0.3" stroke-linecap="round" stroke-linejoin="round"/>
<path d="M23.6104 0.160156L30.6704 2.27016L45.4904 12.2602L38.1804 10.2202L23.6104 0.160156Z" fill="#00FF78" stroke="black" stroke-width="0.3" stroke-linecap="round" stroke-linejoin="round"/>
<path d="M15.2804 45.1997L25.2804 39.8397C27.8231 38.4539 30.0237 36.5169 31.7211 34.1707C33.4185 31.8245 34.5697 29.1284 35.0904 26.2797L38.0904 10.2197L23.5204 0.219727L6.1704 5.0097L3.1704 20.4297C2.59339 23.3507 2.7022 26.3658 3.48827 29.2377C4.27434 32.1095 5.71621 34.7597 7.7004 36.9797L15.2804 45.1997Z" fill="#00FF78" stroke="black" stroke-width="0.3" stroke-miterlimit="10"/>
<path d="M38.19 10.2205L37.02 16.3505L9.51004 38.8304L7.79004 36.9304C5.94668 34.8744 4.58074 32.4362 3.79004 29.7904L32.37 6.19043L38.19 10.2205Z" fill="white" stroke="black" stroke-width="0.3" stroke-miterlimit="10"/>
<path d="M16.2799 40.9197L24.4199 36.5797C26.4821 35.456 28.2666 33.8847 29.6423 31.9812C31.018 30.0777 31.95 27.8904 32.3699 25.5797L34.8299 12.5797L23.0299 4.42969L8.97987 8.3197L6.53987 20.8097C6.07314 23.1749 6.16168 25.6163 6.79851 27.9415C7.43534 30.2667 8.60309 32.4124 10.2099 34.2097L16.2799 40.9197Z" fill="white" stroke="black" stroke-width="0.3" stroke-miterlimit="10"/>
<path d="M20.9043 14.1826L27.2443 22.1758L17.9366 29.4818L20.9043 14.1826Z" fill="#3BFFAD" stroke="black" stroke-width="0.206056" stroke-linejoin="round"/>
<path d="M14.8994 13.8984L21.2408 21.885L11.919 29.1883L14.8994 13.8984Z" fill="#3BFFAD" stroke="black" stroke-width="0.206056" stroke-linejoin="round"/>
<path d="M1.63997 24.4502L1.46997 24.5702C1.94737 25.2057 2.29373 25.9298 2.48894 26.7003C2.68414 27.4709 2.72429 28.2725 2.60706 29.0587C2.48983 29.8449 2.21755 30.5999 1.80605 31.28C1.39454 31.96 0.852007 32.5516 0.209961 33.0202L0.339966 33.1902C0.975507 32.7128 1.69958 32.3664 2.47011 32.1712C3.24064 31.976 4.04228 31.9359 4.82846 32.0531C5.61464 32.1703 6.36969 32.4426 7.04976 32.8541C7.72982 33.2656 8.32135 33.8081 8.78996 34.4502L8.94997 34.3302C7.99673 33.0398 7.59503 31.4237 7.83319 29.8372C8.07135 28.2507 8.92988 26.8238 10.22 25.8702L10.09 25.7102C9.45442 26.1876 8.73036 26.534 7.95982 26.7292C7.18929 26.9244 6.38765 26.9645 5.60147 26.8473C4.81529 26.7301 4.06024 26.4578 3.38017 26.0463C2.70011 25.6348 2.10859 25.0922 1.63997 24.4502Z" fill="white" stroke="black" stroke-width="0.3" stroke-miterlimit="10"/>
<path d="M33.4902 19.6702C33.4902 19.6702 38.0902 22.6702 43.0202 18.3702C44.2831 17.1097 45.065 15.4469 45.2302 13.6702C45.3302 12.1202 44.5302 11.6702 44.5302 11.6702L43.0402 10.7402L33.4902 17.2003V19.6702Z" fill="black" stroke="black" stroke-width="0.3" stroke-miterlimit="10"/>
<path fill-rule="evenodd" clip-rule="evenodd" d="M38.1598 1.50023C33.6598 0.290234 29.0198 3.40023 27.7998 8.50023C26.5798 13.6002 29.2398 18.5902 33.7998 19.7402C38.3598 20.8902 42.9598 17.7402 44.1698 12.7402C45.3798 7.74022 42.6698 2.70023 38.1598 1.50023Z" fill="#00FF78" stroke="black" stroke-width="0.3" stroke-miterlimit="10"/>
<path d="M30.29 10.4302L32.18 8.85022L34.07 12.1202L40.85 6.4502L42.01 8.4502L33.33 15.7102L30.29 10.4302Z" fill="white" stroke="#0D0D0D" stroke-width="0.3" stroke-miterlimit="10"/>
</g>
<defs>
<clipPath id="clip0_4451_17646">
<rect width="45.64" height="52.31" fill="white"/>
</clipPath>
</defs>
</svg>
