<svg width="32" height="32" viewBox="0 0 32 32" fill="none" xmlns="http://www.w3.org/2000/svg">
<rect opacity="0.2" x="1" y="1" width="30" height="30" stroke="#0D0D0D" stroke-width="0.4" stroke-linecap="square"/>
<path d="M16.0099 24.1354C7.5184 20.2609 8.65741 10.4372 8.65741 10.4372L15.9998 7.86426L23.3422 10.4372C23.3422 10.4372 24.4913 20.2405 16.0099 24.1354Z" stroke="#0D0D0D" stroke-width="0.5"/>
<path d="M15.9994 12.1962C15.7585 12.2067 15.5212 12.2583 15.2977 12.3488C15.0784 12.4474 14.8813 12.5892 14.718 12.7657C14.5509 12.9401 14.42 13.1457 14.3327 13.3708C14.2454 13.596 14.2036 13.8362 14.2095 14.0776V14.8708H17.8197V14.0776C17.827 13.8237 17.782 13.571 17.6875 13.3352C17.6041 13.1094 17.4722 12.9046 17.301 12.7353C17.1425 12.5535 16.9441 12.4108 16.7214 12.3183C16.4931 12.2233 16.2462 12.1815 15.9994 12.1962Z" stroke="#0D0D0D" stroke-width="0.5"/>
<path d="M18.9587 14.8711H13.04V18.8779H18.9587V14.8711Z" stroke="#0D0D0D" stroke-width="0.5"/>
<path d="M15.9999 17.4742C16.1205 17.4742 16.2385 17.4384 16.3388 17.3714C16.4392 17.3043 16.5174 17.2091 16.5636 17.0976C16.6098 16.9861 16.6218 16.8634 16.5983 16.745C16.5747 16.6267 16.5166 16.5179 16.4313 16.4326C16.346 16.3473 16.2372 16.2892 16.1188 16.2656C16.0005 16.2421 15.8778 16.2542 15.7663 16.3004C15.6549 16.3466 15.5595 16.4247 15.4925 16.5251C15.4255 16.6254 15.3896 16.7434 15.3896 16.8641C15.3896 17.0259 15.4539 17.1811 15.5683 17.2955C15.6828 17.41 15.838 17.4742 15.9999 17.4742V17.4742Z" stroke="#0D0D0D" stroke-width="0.5"/>
</svg>
