<svg width="76" height="80" viewBox="0 0 76 80" fill="none" xmlns="http://www.w3.org/2000/svg">
<path d="M75.7403 38.4102H1.0293V42.1457C1.0293 52.053 4.96495 61.5545 11.9705 68.56C18.976 75.5655 28.4775 79.5012 38.3848 79.5012C48.2921 79.5012 57.7936 75.5655 64.7991 68.56C71.8046 61.5545 75.7403 52.053 75.7403 42.1457V38.4102Z" fill="#039958" stroke="#06C270" stroke-width="0.3" stroke-miterlimit="10"/>
<path d="M38.3848 75.7642C45.773 75.7642 52.9953 73.5733 59.1384 69.4687C65.2815 65.364 70.0694 59.5299 72.8967 52.704C75.7241 45.8782 76.4638 38.3673 75.0225 31.121C73.5811 23.8748 70.0234 17.2187 64.7991 11.9944C59.5748 6.77015 52.9187 3.21239 45.6725 1.77102C38.4262 0.329647 30.9153 1.0694 24.0895 3.89675C17.2636 6.7241 11.4295 11.512 7.32483 17.6551C3.22015 23.7982 1.0293 31.0205 1.0293 38.4087C1.0293 48.316 4.96495 57.8175 11.9705 64.823C18.976 71.8285 28.4775 75.7642 38.3848 75.7642V75.7642Z" fill="white" stroke="#06C270" stroke-width="0.3" stroke-miterlimit="10"/>
<path d="M38.3495 79.0207C45.7366 79.0207 52.9577 76.774 59.0998 72.5647C65.2419 68.3555 70.0291 62.3727 72.856 55.373C75.6829 48.3733 76.4225 40.671 74.9814 33.2401C73.5402 25.8092 69.983 18.9836 64.7596 13.6262C59.5362 8.26883 52.8811 4.62042 45.636 3.14233C38.391 1.66424 30.8812 2.42284 24.0565 5.32222C17.2317 8.2216 11.3985 13.1315 7.29452 19.4311C3.19051 25.7307 1 33.137 1 40.7135C1 50.8732 4.93502 60.6168 11.9394 67.8007C18.9438 74.9847 28.4438 79.0207 38.3495 79.0207V79.0207Z" stroke="white" stroke-width="0.3" stroke-miterlimit="10"/>
<path d="M38.385 70.1474C44.665 70.1474 50.8039 68.2852 56.0255 64.7962C61.2471 61.3072 65.3169 56.3482 67.7201 50.5463C70.1234 44.7443 70.7522 38.36 69.527 32.2007C68.3019 26.0414 65.2777 20.3837 60.8371 15.9431C56.3965 11.5025 50.7388 8.47835 44.5795 7.25319C38.4202 6.02803 32.0359 6.65682 26.2339 9.06007C20.432 11.4633 15.473 15.5331 11.984 20.7547C8.49504 25.9763 6.63281 32.1153 6.63281 38.3952C6.63281 46.8164 9.97812 54.8927 15.9328 60.8474C21.8875 66.8021 29.9638 70.1474 38.385 70.1474V70.1474Z" fill="black"/>
<path d="M23.293 39.9796L26.894 36.4533L33.4611 43.0577L49.8677 26.6362L53.4762 30.2522L33.491 50.1851L23.293 39.9796Z" fill="white"/>
<path d="M43.7701 7.75498C44.4306 7.75498 44.9661 7.22012 44.9661 6.56035C44.9661 5.90058 44.4306 5.36572 43.7701 5.36572C43.1096 5.36572 42.5742 5.90058 42.5742 6.56035C42.5742 7.22012 43.1096 7.75498 43.7701 7.75498Z" fill="#4FE3A3"/>
</svg>
