<svg width="16" height="16" viewBox="0 0 16 16" fill="none" xmlns="http://www.w3.org/2000/svg">
    <path d="M13.5 6.99028C13.5019 8.27575 13.1226 9.53296 12.4101 10.6029C11.6975 11.6729 10.6836 12.5075 9.49664 13.0013C8.30966 13.4951 7.00294 13.6259 5.74171 13.3771C4.48046 13.1282 3.32135 12.5109 2.41091 11.6033C1.50047 10.6956 0.879593 9.53831 0.626849 8.27782C0.374108 7.01734 0.500844 5.7102 0.990986 4.52172C1.48112 3.33325 2.31269 2.31682 3.38051 1.60095C4.44821 0.885152 5.70416 0.502055 6.98961 0.5C8.71277 0.500093 10.3656 1.18329 11.586 2.39988C12.8063 3.61646 13.4946 5.26716 13.5 6.99028Z" stroke="#E0E0E0" />
    <path fill-rule="evenodd" clip-rule="evenodd" d="M11.5 11.4996C11.6953 11.3044 11.5 11.5 11.8536 11.1465C12.0489 11.3417 15.8536 15.1465 15.8536 15.1465C16.0489 15.3417 16.0489 15.6583 15.8536 15.8536C15.6583 16.0489 15.3417 16.0489 15.1465 15.8536L11.1465 11.8536C11.5 11.5 11.3048 11.6949 11.5 11.4996Z" fill="#E0E0E0" />
</svg>
    