<svg width="145" height="144" viewBox="0 0 145 144" fill="none" xmlns="http://www.w3.org/2000/svg">
<path d="M139.5 72C139.5 108.691 109.539 138.5 72.5 138.5C35.461 138.5 5.5 108.691 5.5 72C5.5 35.3089 35.461 5.5 72.5 5.5C109.539 5.5 139.5 35.3089 139.5 72Z" fill="#0D0D0D" stroke="#FBFBFB" stroke-width="11"/>
<path d="M124.5 72C124.5 100.438 101.223 123.5 72.5 123.5C43.7767 123.5 20.5 100.438 20.5 72C20.5 43.5618 43.7767 20.5 72.5 20.5C101.223 20.5 124.5 43.5618 124.5 72Z" stroke="#EEE75E"/>
<path d="M45.5 76.5L52.5619 68.9258L64 80L92.5 51.5L99.5 58.5L64.5829 94L45.5 76.5Z" fill="#FBFBFB"/>
</svg>
