<svg width="30" height="11" viewBox="0 0 30 11" fill="none" xmlns="http://www.w3.org/2000/svg">
    <path d="M22.9599 10.0469H21.3525L23.5872 0.841797H25.1945L22.9599 10.0469Z" fill="white" />
    <path
        d="M22.1264 1.13262C22.0148 0.957123 21.8429 0.871094 21.6077 0.871094H12.7778L12.3375 2.67426H20.3712L19.9038 4.60131H11.87L10.5371 10.0865H12.1445L13.0401 6.40103H20.2657C20.4889 6.40103 20.703 6.315 20.902 6.1395C21.101 5.96401 21.2307 5.74721 21.2971 5.48913L22.1897 1.80365C22.256 1.53524 22.2319 1.315 22.1234 1.1395"
        fill="white" />
    <path
        d="M9.60483 9.4691C9.51738 9.83386 9.22486 10.0885 8.89615 10.0885H0.609057C0.382881 10.0885 0.217018 10.0025 0.105438 9.82354C-0.0061423 9.64804 -0.0272521 9.43125 0.0330616 9.17316L2.05658 0.866211H3.66394L1.85755 8.2819H8.28698L10.0934 0.866211H11.7007L9.60483 9.4691V9.4691Z"
        fill="white" />
    <path d="M27.9682 0.856445L30.0008 5.47104L25.7275 10.0856L27.9682 0.856445Z" fill="#028C45" />
    <path d="M26.9386 0.5L29.1371 5.5L24.502 10.5L26.9386 0.5Z" fill="#333333" />
    <path d="M26.5158 0.5L28.7142 5.5L24.0791 10.5L26.5158 0.5Z" fill="#F47920" />
</svg>
