<svg width="23" height="23" viewBox="0 0 23 23" fill="none" xmlns="http://www.w3.org/2000/svg">
<g clip-path="url(#clip0_3106_18403)">
<path d="M22.9702 18.6943L18.7202 1.03034C18.6385 0.700561 18.4237 0.411645 18.1192 0.222057C17.8147 0.0324682 17.4433 -0.0436366 17.0802 0.00914284L12.0802 0.671543C11.7603 0.7105 11.4625 0.842691 11.2302 1.04874L11.0902 1.18674L10.5302 1.83994C10.3751 2.01773 10.275 2.23065 10.2402 2.45634C10.2448 2.50532 10.2448 2.55457 10.2402 2.60354C10.1135 2.66958 9.97439 2.71327 9.8302 2.73234C9.54036 2.76998 9.24498 2.72488 8.98388 2.60313C8.72279 2.48138 8.5086 2.28885 8.37024 2.05154C8.22712 1.81118 8.00797 1.61649 7.74188 1.49327C7.4758 1.37005 7.17529 1.32411 6.88019 1.36154L1.88019 2.03314C1.68614 2.05125 1.49791 2.10446 1.32629 2.18972C1.15468 2.27497 1.00307 2.3906 0.880186 2.52994L0.29022 3.21074C0.172389 3.36034 0.0893395 3.5307 0.0463236 3.71116C0.00330763 3.89162 0.00125068 4.07831 0.04022 4.25954L4.31024 21.9603C4.38591 22.2533 4.56569 22.5147 4.8211 22.703C5.07652 22.8913 5.39293 22.9958 5.72021 22.9999H5.93023L10.9302 22.3467C11.2593 22.3077 11.5633 22.1646 11.7902 21.9419L11.8802 21.8499L12.4602 21.1783C12.507 21.1276 12.5473 21.072 12.5802 21.0127C12.6626 20.864 12.7104 20.701 12.7202 20.5343C12.7146 20.4639 12.7146 20.3932 12.7202 20.3227C13.0641 20.1623 13.4627 20.1325 13.8302 20.2399C14.1102 20.3135 14.3802 20.5619 14.6602 21.0127C14.8147 21.2502 15.0431 21.4395 15.316 21.5559C15.5888 21.6724 15.8934 21.7107 16.1902 21.6659L21.1202 20.9943C21.4919 20.9477 21.8292 20.7695 22.0602 20.4975L22.6502 19.8167C22.7933 19.6646 22.8965 19.4843 22.952 19.2898C23.0074 19.0952 23.0137 18.8915 22.9702 18.6943Z" fill="#0D0D0D"/>
<path d="M17.7201 1.21438C17.6895 1.10808 17.6177 1.01574 17.5183 0.954741C17.4188 0.893742 17.2986 0.868292 17.1802 0.88318L12.1802 1.54558C12.0754 1.55735 11.9775 1.59928 11.9002 1.66538C11.823 1.73148 11.7705 1.81835 11.7502 1.91358C11.7117 2.21092 11.595 2.49514 11.4101 2.74158C11.2426 2.97666 11.0218 3.17564 10.7629 3.32491C10.504 3.47417 10.2131 3.57019 9.91013 3.60638C9.41925 3.67306 8.91794 3.60048 8.47306 3.3983C8.02818 3.19612 7.66088 2.87395 7.42014 2.47478C7.37738 2.39635 7.30915 2.33208 7.22495 2.29087C7.14075 2.24967 7.0447 2.23356 6.95011 2.24478L1.95011 2.90718C1.82569 2.9263 1.71247 2.98489 1.6301 3.07278C1.5921 3.1232 1.56547 3.1801 1.55173 3.24014C1.53799 3.30018 1.53746 3.36214 1.55015 3.42238L4.81016 16.8544L20.9901 14.7384L17.7201 1.21438Z" fill="#29E579" stroke="black" stroke-width="0.15" stroke-linecap="round" stroke-linejoin="round"/>
<path d="M22.0001 18.9151L21.0001 14.7383L4.81006 16.8543L5.81006 21.1047C5.83856 21.2102 5.90836 21.3024 6.00616 21.3635C6.10397 21.4247 6.22286 21.4504 6.34003 21.4359L11.34 20.7827C11.4429 20.7715 11.5389 20.7293 11.613 20.6628C11.6872 20.5962 11.7354 20.509 11.7501 20.4147C11.7736 20.0197 11.9349 19.6423 12.21 19.3383C12.5085 19.01 12.9082 18.7727 13.3563 18.6577C13.8044 18.5427 14.2799 18.5555 14.72 18.6943C15.0372 18.7928 15.3293 18.9497 15.5786 19.1553C15.8278 19.3609 16.0291 19.6109 16.17 19.8903C16.225 19.9682 16.3035 20.0297 16.3958 20.0673C16.4882 20.1048 16.5904 20.1169 16.69 20.1019L21.61 19.4303C21.6732 19.4215 21.7337 19.401 21.788 19.37C21.8422 19.3389 21.889 19.2981 21.9255 19.2499C21.962 19.2016 21.9874 19.1471 22.0002 19.0895C22.0131 19.032 22.013 18.9726 22.0001 18.9151Z" fill="#29E579" stroke="black" stroke-width="0.15" stroke-linecap="round" stroke-linejoin="round"/>
<g style="mix-blend-mode:color-dodge">
<path d="M18.35 3.72598L17.72 1.21438C17.6894 1.10808 17.6176 1.01574 17.5182 0.954741C17.4187 0.893742 17.2985 0.868292 17.1801 0.88318L12.1801 1.54558C12.0753 1.55735 11.9774 1.59928 11.9001 1.66538C11.8229 1.73148 11.7704 1.81835 11.7501 1.91358C11.7116 2.21092 11.5949 2.49514 11.41 2.74158C11.2425 2.97666 11.0217 3.17564 10.7628 3.32491C10.5039 3.47417 10.213 3.57019 9.91003 3.60638C9.60351 3.66679 9.28656 3.66679 8.98004 3.60638L4.53003 15.7228L4.81006 16.8544L13.98 15.64L18.35 3.72598Z" fill="white"/>
</g>
<path d="M11.9001 11.9416L9.72015 13.4412V10.9572L7.41016 9.54039L10.0302 8.79519L10.7202 6.43079L12.4001 8.43639H15.1602L13.5801 10.4144L14.5801 12.742L11.9001 11.9416Z" fill="#2EC773" stroke="black" stroke-width="0.15" stroke-linecap="round" stroke-linejoin="round"/>
<path d="M11.4202 2.74149C11.6051 2.49505 11.7218 2.21083 11.7602 1.91349C11.7693 1.8452 11.8007 1.78105 11.8502 1.72949L11.2802 2.39189C11.2345 2.44565 11.2036 2.50878 11.1902 2.57589C11.1571 2.79172 11.0827 3.00043 10.9702 3.19229C11.1435 3.06317 11.2951 2.91127 11.4202 2.74149Z" fill="#29B379" stroke="black" stroke-width="0.15" stroke-linecap="round" stroke-linejoin="round"/>
<path d="M11.36 20.8012L6.36003 21.4544C6.24286 21.4689 6.12397 21.4431 6.02617 21.382C5.92837 21.3209 5.8585 21.2287 5.83 21.1232L4.83 16.8728L1.56999 3.42235C1.55731 3.36212 1.5579 3.30016 1.57164 3.24012C1.58538 3.18008 1.61201 3.12317 1.65001 3.07275L1.08 3.73515C1.03997 3.78284 1.01206 3.83814 0.998216 3.89703C0.984376 3.95592 0.985006 4.01691 1.00005 4.07555L5.26 21.7764C5.29061 21.8827 5.36245 21.975 5.4619 22.036C5.56136 22.097 5.68161 22.1224 5.80003 22.1076L10.8 21.4544C10.8633 21.4463 10.9242 21.4267 10.9792 21.3966C11.0341 21.3666 11.082 21.3268 11.12 21.2796L11.7 20.608C11.6613 20.6603 11.611 20.7046 11.5524 20.7379C11.4938 20.7712 11.4283 20.7927 11.36 20.8012Z" fill="#29B379" stroke="black" stroke-width="0.15" stroke-linecap="round" stroke-linejoin="round"/>
<path d="M21.61 19.4304L16.72 20.102C16.6204 20.117 16.5181 20.1049 16.4258 20.0673C16.3334 20.0298 16.255 19.9683 16.2 19.8904C16.0557 19.6083 15.8498 19.3565 15.5952 19.1508C15.3406 18.945 15.0427 18.7897 14.72 18.6944C14.2807 18.5617 13.8081 18.554 13.364 18.6721C12.9198 18.7903 12.5246 19.0289 12.23 19.3568C12.1427 19.4571 12.0719 19.5687 12.02 19.688C12.3198 19.4827 12.6678 19.3449 13.036 19.2858C13.4042 19.2267 13.7823 19.2479 14.14 19.3476C14.4584 19.4435 14.7521 19.5983 15.0032 19.8023C15.2542 20.0064 15.4573 20.2555 15.6 20.5344C15.652 20.615 15.73 20.6787 15.8232 20.7167C15.9164 20.7546 16.0202 20.7648 16.1201 20.746L21.04 20.0744C21.1019 20.0661 21.1613 20.0464 21.2146 20.0163C21.2679 19.9863 21.314 19.9466 21.35 19.8996L21.91 19.2556C21.8751 19.3015 21.8306 19.3407 21.7791 19.3707C21.7276 19.4007 21.6701 19.421 21.61 19.4304Z" fill="#29B379" stroke="black" stroke-width="0.15" stroke-linecap="round" stroke-linejoin="round"/>
</g>
<defs>
<clipPath id="clip0_3106_18403">
<rect width="23" height="23" fill="white"/>
</clipPath>
</defs>
</svg>
