<svg width="22" height="22" viewBox="0 0 22 22" fill="none" xmlns="http://www.w3.org/2000/svg">
<path d="M11 19.549C9.30906 19.549 7.65609 19.0476 6.25013 18.1082C4.84417 17.1688 3.74836 15.8335 3.10126 14.2713C2.45417 12.7091 2.28486 10.99 2.61474 9.33159C2.94463 7.67314 3.75889 6.14976 4.95457 4.95409C6.15024 3.75841 7.67362 2.94415 9.33207 2.61426C10.9905 2.28438 12.7095 2.45368 14.2718 3.10078C15.834 3.74787 17.1692 4.84369 18.1087 6.24965C19.0481 7.65561 19.5495 9.30858 19.5495 10.9995C19.5448 13.2655 18.6425 15.4374 17.0402 17.0397C15.4379 18.642 13.266 19.5443 11 19.549ZM11 19.999C12.7799 19.999 14.5199 19.4712 15.9999 18.4823C17.4798 17.4935 18.6333 16.0879 19.3145 14.4435C19.9956 12.799 20.1738 10.9895 19.8266 9.2438C19.4793 7.49807 18.6222 5.89451 17.3636 4.6359C16.105 3.3773 14.5014 2.52018 12.7557 2.17293C11.01 1.82568 9.20048 2.0039 7.55603 2.68506C5.91159 3.36621 4.50606 4.5197 3.51718 5.99966C2.5283 7.47962 2.00049 9.21958 2.00049 10.9995C2.00049 13.3863 2.94865 15.6754 4.63639 17.3631C6.32412 19.0509 8.61318 19.999 11 19.999Z" fill="#0D0D0D"/>
<path fill-rule="evenodd" clip-rule="evenodd" d="M10.1001 12.6558L11.9 12.6558L11.9 6.5001L10.1001 6.5001L10.1001 12.6558Z" fill="#0D0D0D"/>
<path fill-rule="evenodd" clip-rule="evenodd" d="M10.1001 15.4995L11.9 15.4995L11.9 13.6996L10.1001 13.6996L10.1001 15.4995Z" fill="#0D0D0D"/>
</svg>
