<svg width="70" height="70" viewBox="0 0 70 70" fill="none" xmlns="http://www.w3.org/2000/svg">
<g clip-path="url(#clip0_2295_109)">
<path d="M54.456 54.2472L44.2824 52.4437C44.0115 52.3939 43.7539 52.2885 43.5258 52.1342C43.2977 51.9798 43.1041 51.7799 42.9571 51.5469C42.6603 51.0532 42.5708 50.4622 42.708 49.9028C42.8557 49.3224 43.21 48.8157 43.7044 48.4778C44.1836 48.1452 44.7722 48.0096 45.3486 48.0991L55.5123 49.9227C55.7844 49.9686 56.043 50.0741 56.2696 50.2315C56.5001 50.3822 56.6969 50.579 56.8475 50.8096C56.986 51.0536 57.0804 51.3199 57.1265 51.5967C57.1807 51.8831 57.1807 52.1771 57.1265 52.4636C57.0629 52.7493 56.9445 53.0201 56.7778 53.2608C56.6074 53.5028 56.3947 53.712 56.15 53.8785C55.9116 54.0429 55.6446 54.1611 55.3628 54.2273C55.0869 54.2865 54.8017 54.2865 54.5258 54.2273L54.456 54.2472ZM47.4112 37.2878L32.4646 56.3796L57.0568 60.764C57.4518 60.8197 57.8536 60.8027 58.2425 60.7141C58.5739 60.6311 58.8878 60.4893 59.1692 60.2956C59.8017 59.8559 60.2517 59.2004 60.4347 58.4522L64.7393 40.3767L47.3215 37.2977L47.4112 37.2878ZM7.23468 30.1931L2.90017 48.2089C2.81573 48.5644 2.79549 48.9322 2.84039 49.2949C2.90091 49.6485 3.02949 49.9869 3.21903 50.2914C3.40516 50.5945 3.65312 50.855 3.94671 51.0559C4.24031 51.2567 4.57295 51.3935 4.92295 51.4571L20.6069 54.2472L35.4938 35.1753L7.23468 30.1931ZM59.7571 21.3447L54.4859 28.0906L67.1308 30.3326L68.2269 25.769C68.2828 25.5442 68.3096 25.313 68.3066 25.0814C68.3081 24.5773 68.1665 24.0832 67.898 23.6565C67.7145 23.3522 67.4687 23.0901 67.1768 22.8874C66.8848 22.6848 66.5534 22.5462 66.2041 22.4807L59.7571 21.3447ZM14.1201 13.2237C13.373 13.1277 12.6166 13.3091 11.9941 13.7332C11.3716 14.1574 10.9262 14.7951 10.7422 15.5255L9.62615 20.159L42.6582 26.0081L47.9294 19.2422L14.1201 13.2636" fill="#4772FF"/>
<path d="M3.02976 50.4597C3.22836 50.7925 3.49701 51.0782 3.81706 51.2967C4.13711 51.5152 4.50088 51.6614 4.88313 51.7252L56.9671 61.0121C57.4779 61.1019 58.0033 61.0573 58.4917 60.8826C57.9982 61.0322 57.4788 61.0763 56.9671 61.0121L4.88313 51.7252C4.50153 51.6595 4.13853 51.5125 3.81875 51.2942C3.49897 51.0758 3.22989 50.7912 3.02976 50.4597ZM2.86035 49.294C2.91669 49.6486 3.0456 49.9878 3.239 50.2904C3.04947 49.9859 2.92087 49.6475 2.86035 49.294ZM60.4048 58.4612C60.2219 59.2094 59.7718 59.865 59.1394 60.3046C58.8579 60.4983 58.5441 60.6401 58.2127 60.7231C58.764 60.6121 59.2686 60.3364 59.66 59.9326C60.0514 59.5288 60.3111 59.0157 60.4048 58.4612ZM68.3764 25.0904C68.3794 25.322 68.3526 25.5532 68.2967 25.778C68.3526 25.5532 68.3794 25.322 68.3764 25.0904ZM68.187 23.516C68.397 23.8522 68.5328 24.2293 68.5856 24.6221C68.5379 24.2265 68.4053 23.8458 68.197 23.5061L68.187 23.516ZM66.3436 22.2406C66.7228 22.313 67.0827 22.4638 67.4001 22.6834C67.7176 22.9031 67.9856 23.1867 68.187 23.516C67.984 23.1871 67.7141 22.9044 67.3948 22.6864C67.0755 22.4684 66.714 22.3199 66.3337 22.2505L66.3436 22.2406ZM14.2497 12.9736C13.4505 12.8393 12.6306 13.0255 11.9678 13.4918C11.388 13.8847 10.9455 14.4491 10.7024 15.106C10.9675 14.4033 11.4619 13.8106 12.1056 13.4237C12.7493 13.0367 13.5047 12.8782 14.2497 12.9736ZM14.2497 12.9736L66.3337 22.2505L14.2497 12.9736Z" fill="#020203"/>
<path d="M54.3458 28.3188L47.5102 37.0776L64.8184 40.1366L65.1173 38.8513L67.1102 30.5808L54.3558 28.3188H54.3458ZM9.61553 20.3972L7.32373 29.953L35.7024 34.9352L42.528 26.1764L9.64544 20.3473" fill="#020203"/>
<path d="M47.5101 37.0776L47.3407 37.2968L64.7386 40.3757V40.1366L47.4404 37.0776H47.5101ZM7.24395 29.953L7.18416 30.1921L35.4432 35.1743L35.6226 34.9552L7.24395 29.9729V29.953ZM9.33647 20.2576L6.98486 30.0526L9.34644 20.2377L9.33647 20.2576ZM54.4653 28.1096L54.2859 28.3288L67.0404 30.5907L65.0475 38.8612L67.1002 30.3516L54.4553 28.1096H54.4653ZM9.61547 20.1381L9.55568 20.3772L42.4383 26.2064L42.6176 25.9872L9.58558 20.1381" fill="#020203"/>
<path d="M45.2683 48.3472C44.7591 48.2644 44.2376 48.3823 43.8135 48.6761C43.3752 48.9754 43.0629 49.4261 42.9367 49.9416C42.8755 50.1887 42.8643 50.4456 42.9036 50.6971C42.943 50.9486 43.0321 51.1897 43.1659 51.4064C43.2934 51.6136 43.4631 51.7917 43.6639 51.929C43.8648 52.0664 44.0923 52.1598 44.3317 52.2034L54.5054 54.017C54.7525 54.0619 55.0056 54.0619 55.2527 54.017C55.5059 53.9545 55.7456 53.8464 55.9602 53.6981C56.1779 53.5501 56.3642 53.3605 56.5082 53.1402C56.6622 52.9289 56.7708 52.688 56.8271 52.4327C56.8755 52.1826 56.8755 51.9255 56.8271 51.6754C56.7926 51.4283 56.7078 51.1908 56.578 50.9778C56.4486 50.7672 56.2753 50.5871 56.0698 50.4498C55.8658 50.3107 55.635 50.2156 55.3922 50.1708L45.2285 48.3672" fill="white"/>
<path d="M54.5053 54.0171L44.3316 52.2035C44.0923 52.1599 43.8647 52.0665 43.6639 51.9291C43.463 51.7918 43.2933 51.6137 43.1658 51.4065C43.0321 51.1898 42.9429 50.9487 42.9036 50.6972C42.8642 50.4457 42.8754 50.1888 42.9366 49.9417C43.0629 49.4262 43.3752 48.9755 43.8135 48.6762C44.2376 48.3824 44.7591 48.2645 45.2683 48.3473L55.432 50.1509C55.6748 50.1957 55.9056 50.2908 56.1096 50.43C56.3151 50.5673 56.4884 50.7474 56.6178 50.958C56.7476 51.171 56.8324 51.4085 56.8669 51.6556C56.9153 51.9057 56.9153 52.1628 56.8669 52.4129C56.8106 52.6682 56.702 52.909 56.548 53.1203C56.404 53.3407 56.2177 53.5304 56 53.6784C55.7854 53.8266 55.5457 53.9346 55.2925 53.9972C55.0454 54.042 54.7923 54.042 54.5452 53.9972L54.5053 54.0171ZM45.3679 48.0784C44.7916 47.9889 44.2029 48.1244 43.7238 48.457C43.2294 48.7949 42.8751 49.3015 42.7274 49.8819C42.5902 50.4413 42.6797 51.0323 42.9765 51.526C43.1234 51.759 43.3171 51.9589 43.5452 52.1133C43.7733 52.2676 44.0309 52.373 44.3017 52.4228L54.4754 54.2263C54.7513 54.2856 55.0366 54.2856 55.3124 54.2263C55.5943 54.1602 55.8613 54.0419 56.0996 53.8776C56.3443 53.7111 56.557 53.5018 56.7274 53.2598C56.8941 53.0192 57.0126 52.7484 57.0761 52.4626C57.1303 52.1762 57.1303 51.8821 57.0761 51.5957C57.03 51.319 56.9356 51.0526 56.7971 50.8086C56.6465 50.5781 56.4497 50.3812 56.2192 50.2306C55.9926 50.0731 55.734 49.9677 55.4619 49.9218L45.2982 48.0982" fill="#020203"/>
<path d="M35.5131 35.1944L20.6262 54.2663L32.4341 56.3787L47.3807 37.2869L35.5529 35.1944H35.5131ZM48.0084 19.2513L42.7373 26.0172L54.565 28.1097L59.8362 21.3638L48.0084 19.2513Z" fill="#82A6FF"/>
<path d="M42.518 26.2263L35.6924 34.9751L47.5201 37.0776L54.3557 28.3189L42.518 26.2263Z" fill="#08080B"/>
<path d="M35.6923 34.9851L35.5129 35.2043L47.3407 37.2968L47.5101 37.0776L35.6923 34.9851ZM42.6674 26.0171L42.488 26.2363L54.3158 28.3288L54.4951 28.1096L42.6674 26.0171Z" fill="#08080B"/>
<path d="M47.9785 19.2313L47.9685 19.2413L59.7963 21.3537V21.3438L47.9785 19.2313Z" fill="#4872FF"/>
<path d="M20.6262 54.2762V54.2861L32.434 56.3886L20.6262 54.2762Z" fill="#4872FF"/>
<path d="M14.1593 13.2729L66.2433 22.5399C66.5926 22.6054 66.9241 22.744 67.216 22.9466C67.5079 23.1493 67.7537 23.4113 67.9373 23.7156C68.2057 24.1423 68.3474 24.6365 68.3458 25.1406C68.3488 25.3722 68.3221 25.6032 68.2661 25.828L67.17 30.3918L65.1173 38.9014L64.8085 40.1868V40.4259L60.454 58.5114C60.3603 59.0659 60.1006 59.5788 59.7092 59.9827C59.3178 60.3865 58.8131 60.6623 58.2618 60.7733C57.8729 60.8619 57.4711 60.8787 57.0761 60.8231L32.4839 56.4387L20.6761 54.3362L4.99207 51.5463C4.64207 51.4826 4.30943 51.3459 4.01584 51.145C3.72224 50.9441 3.4743 50.6835 3.28816 50.3804C3.09476 50.0778 2.96585 49.7386 2.90951 49.3839C2.86461 49.0212 2.88485 48.6534 2.9693 48.2978L7.30382 30.2821L7.36361 30.043L9.65542 20.4871L9.71521 20.248L10.8312 15.6145C11.0152 14.8841 11.4606 14.2464 12.0831 13.8222C12.7056 13.398 13.462 13.2169 14.2092 13.3128L14.1593 13.2729ZM14.269 13.0637C13.524 12.9682 12.7686 13.1268 12.1249 13.5137C11.4812 13.9007 10.9868 14.4934 10.7216 15.1961C10.6727 15.3193 10.6328 15.4458 10.602 15.5747L9.45614 20.3177L7.09456 30.1327L2.74012 48.238C2.63987 48.6248 2.6182 49.0279 2.6764 49.4232C2.73459 49.8186 2.87145 50.1983 3.0789 50.5398C3.27904 50.8713 3.54813 51.1559 3.86791 51.3743C4.18769 51.5926 4.55069 51.7396 4.93229 51.8053L57.0163 61.0921C57.5279 61.1563 58.0474 61.1122 58.5408 60.9626C59.0871 60.8098 59.5786 60.5047 59.9579 60.083C60.3373 59.6613 60.5888 59.1404 60.6832 58.5811L68.5351 25.8979C68.639 25.5113 68.6594 25.1071 68.5949 24.712C68.5421 24.3192 68.4063 23.9422 68.1964 23.606C67.9949 23.2767 67.7269 22.9932 67.4094 22.7735C67.092 22.5539 66.7321 22.4029 66.3529 22.3305L14.269 13.0537" fill="#020203"/>
<path d="M9.39636 33.6996L4.41416 36.978C0.0397779 39.9075 -1.24564 46.753 1.71379 54.2662C5.44048 63.7324 14.4782 70.6875 21.8917 69.8007C23.3158 69.6476 24.6826 69.1556 25.8775 68.3659L30.77 65.0377L9.39636 33.6996Z" fill="#FF784B" stroke="#020203" stroke-width="0.25" stroke-linecap="round" stroke-linejoin="round"/>
<path d="M24.7714 36.1907C28.6499 39.2215 31.6494 43.2323 33.4604 47.8093C35.3138 52.5324 35.4533 56.9765 34.2874 60.3544C33.6579 62.255 32.4311 63.9011 30.7899 65.0476C29.5942 65.8374 28.2282 66.3327 26.8041 66.4926C23.1073 66.931 19.002 65.4264 15.365 62.6164C11.4865 59.5856 8.48703 55.5748 6.67603 50.9978C4.82265 46.2747 4.68314 41.8306 5.84898 38.4527C6.48856 36.5219 7.74561 34.8552 9.42621 33.7096C10.6072 32.9428 11.9522 32.4649 13.3522 32.3146C17.029 31.8662 21.1344 33.3808 24.7714 36.1907Z" fill="#FFF768" stroke="#020203" stroke-width="0.25" stroke-linecap="round" stroke-linejoin="round"/>
<path d="M24.0043 38.3431C27.2391 40.8828 29.7423 44.2353 31.2583 48.0584C32.8128 52.0441 32.9722 55.7309 31.9558 58.5608C31.5215 59.9328 30.6961 61.1483 29.581 62.058C28.4659 62.9678 27.1096 63.5324 25.6783 63.6825C22.5793 64.0512 19.1516 62.7857 16.1025 60.4441C12.8598 57.9096 10.3522 54.5558 8.83841 50.7288C7.28396 46.743 7.1345 43.0662 8.1409 40.2363C8.57658 38.8623 9.40337 37.645 10.5201 36.7336C11.6368 35.8221 12.995 35.2561 14.4284 35.1046C17.5174 34.7359 20.9551 36.0014 24.0043 38.3431Z" fill="#FFF768" stroke="#020203" stroke-width="0.25" stroke-linecap="round" stroke-linejoin="round"/>
<path d="M19.7394 54.8141C18.834 54.0824 18.145 53.118 17.7465 52.0242C17.3096 51.0903 17.211 50.0335 17.4675 49.0348C17.6087 48.6424 17.8628 48.3004 18.198 48.0521C18.5331 47.8039 18.9343 47.6604 19.3508 47.6398C19.9652 47.6008 20.5801 47.7098 21.1436 47.9578C21.7071 48.2057 22.2029 48.5854 22.5893 49.0648C22.6242 49.1161 22.6778 49.1519 22.7387 49.1644H22.7985C22.8109 49.1705 22.8245 49.1738 22.8384 49.1738C22.8522 49.1738 22.8658 49.1705 22.8782 49.1644L24.1437 47.6797C24.1647 47.6286 24.1647 47.5713 24.1437 47.5202C24.1305 47.4535 24.0995 47.3915 24.054 47.3408C23.3378 46.4807 22.4332 45.7969 21.4102 45.3425C20.3873 44.888 19.2735 44.6752 18.1551 44.7203C17.4377 44.7678 16.7495 45.0229 16.1745 45.4546C15.5995 45.8863 15.1625 46.4759 14.9167 47.1516C14.4163 48.8572 14.5472 50.6862 15.2853 52.3032C16.0283 54.208 17.2793 55.8726 18.9024 57.116C20.2392 58.2401 21.9638 58.7948 23.7053 58.6605C24.6331 58.5695 25.4945 58.1385 26.1237 57.4505C26.7528 56.7624 27.1052 55.8661 27.1131 54.9338C27.1264 54.8748 27.1264 54.8135 27.1131 54.7544C27.0763 54.6957 27.0247 54.6476 26.9636 54.6149L24.6917 53.5488C24.6591 53.5403 24.6248 53.5403 24.5921 53.5488C24.5704 53.56 24.5523 53.5772 24.5399 53.5984C24.5276 53.6195 24.5215 53.6438 24.5224 53.6683C24.5233 54.1768 24.3298 54.6664 23.9815 55.0368C23.6333 55.4073 23.1566 55.6307 22.649 55.6612C21.6535 55.7523 20.662 55.448 19.8889 54.8141" fill="white"/>
<path d="M19.7394 54.8141C18.834 54.0824 18.145 53.118 17.7465 52.0242C17.3096 51.0903 17.211 50.0335 17.4675 49.0348C17.6087 48.6424 17.8628 48.3004 18.198 48.0521C18.5331 47.8039 18.9343 47.6604 19.3508 47.6398C19.9652 47.6008 20.5801 47.7098 21.1436 47.9578C21.7071 48.2057 22.2029 48.5854 22.5893 49.0648C22.6242 49.1161 22.6778 49.1519 22.7387 49.1644H22.7985C22.8109 49.1705 22.8245 49.1738 22.8384 49.1738C22.8522 49.1738 22.8658 49.1705 22.8782 49.1644L24.1437 47.6797C24.1647 47.6286 24.1647 47.5713 24.1437 47.5202C24.1305 47.4535 24.0995 47.3915 24.054 47.3408C23.3378 46.4807 22.4332 45.7969 21.4102 45.3425C20.3873 44.888 19.2735 44.6752 18.1551 44.7203C17.4377 44.7678 16.7495 45.0229 16.1745 45.4546C15.5995 45.8863 15.1625 46.4759 14.9167 47.1516C14.4163 48.8572 14.5472 50.6862 15.2853 52.3032C16.0283 54.208 17.2793 55.8726 18.9024 57.116C20.2392 58.2401 21.9638 58.7948 23.7053 58.6605C24.6331 58.5695 25.4945 58.1385 26.1237 57.4505C26.7528 56.7624 27.1052 55.8661 27.1131 54.9338C27.1264 54.8748 27.1264 54.8135 27.1131 54.7544C27.0763 54.6957 27.0247 54.6476 26.9636 54.6149L24.6917 53.5488C24.6591 53.5403 24.6248 53.5403 24.5921 53.5488V53.5488C24.5704 53.56 24.5523 53.5772 24.5399 53.5984C24.5276 53.6195 24.5215 53.6438 24.5224 53.6683C24.5233 54.1768 24.3298 54.6664 23.9815 55.0368C23.6333 55.4073 23.1566 55.6307 22.649 55.6612C21.6535 55.7523 20.662 55.448 19.8889 54.8141" stroke="#020203" stroke-width="0.25" stroke-linecap="round" stroke-linejoin="round"/>
<path d="M22.1508 39.8675C22.1556 39.7776 22.1272 39.6889 22.0711 39.6184C22.0464 39.5835 22.0135 39.5552 21.9753 39.5361C21.937 39.517 21.8946 39.5076 21.8519 39.5088L13.6113 40.5053C13.5515 40.5053 13.5117 40.5053 13.5017 40.6149L12.9138 43.8235C12.9081 43.9136 12.9365 44.0026 12.9935 44.0726C13.0182 44.1076 13.0511 44.1358 13.0893 44.155C13.1276 44.1741 13.17 44.1835 13.2127 44.1822L21.4533 43.1858C21.4818 43.1798 21.5076 43.165 21.5273 43.1436C21.5469 43.1221 21.5594 43.0951 21.5629 43.0662L22.1508 39.8577" fill="white"/>
<path d="M22.1508 39.8675C22.1556 39.7776 22.1272 39.6889 22.0711 39.6184C22.0464 39.5835 22.0135 39.5552 21.9753 39.5361C21.937 39.517 21.8946 39.5076 21.8519 39.5088L13.6113 40.5053C13.5515 40.5053 13.5117 40.5053 13.5017 40.6149L12.9138 43.8235C12.9081 43.9136 12.9365 44.0026 12.9935 44.0726C13.0182 44.1076 13.0511 44.1358 13.0893 44.155C13.1276 44.1741 13.17 44.1835 13.2127 44.1822L21.4533 43.1858C21.4818 43.1798 21.5076 43.165 21.5273 43.1436C21.5469 43.1221 21.5594 43.0951 21.5629 43.0662L22.1508 39.8577" stroke="#020203" stroke-width="0.25" stroke-linecap="round" stroke-linejoin="round"/>
<g style="mix-blend-mode:soft-light">
<path d="M33.4605 47.7993C31.6495 43.2224 28.65 39.2115 24.7716 36.1808C21.1346 33.3808 17.0292 31.8662 13.3224 32.3046C11.9224 32.4549 10.5775 32.9329 9.39648 33.6996L30.7901 65.0377C32.4313 63.8911 33.6581 62.245 34.2876 60.3445C35.4933 56.9665 35.3139 52.5224 33.4605 47.7993Z" fill="white"/>
</g>
<path d="M27.6312 27.8605V29.7139C27.6299 30.1321 27.7111 30.5466 27.8703 30.9334C28.0295 31.3202 28.2634 31.6717 28.5587 31.9679C28.854 32.2641 29.2048 32.4992 29.5911 32.6595C29.9774 32.8199 30.3916 32.9024 30.8099 32.9024C31.1505 32.8977 31.4877 32.8337 31.8063 32.7132C32.4351 32.5066 32.9822 32.106 33.369 31.5688C33.7557 31.0317 33.9622 30.3857 33.9586 29.7238V27.8705H27.6013L27.6312 27.8605Z" fill="#020203" stroke="#020203" stroke-width="0.25" stroke-miterlimit="10"/>
<path d="M59.059 37.0975C57.0661 36.6591 57.0661 35.842 57.3352 33.5501L57.8334 29.9331L56.8369 33.4705C56.249 35.842 55.6412 36.3302 53.8476 36.1608L51.6953 36.0413L53.6882 36.679C55.5416 37.0477 55.8305 37.825 55.4021 40.2264L54.9038 43.8533L55.9003 40.306C56.4483 37.7651 57.0362 37.3168 58.8896 37.6157L61.0419 37.7353L59.059 37.0975Z" fill="white"/>
<path d="M9.93445 53.7081C8.17075 53.0903 8.2106 52.3231 8.72875 50.2306L9.57574 46.9224L8.31025 50.101C7.50313 52.2434 6.88535 52.632 5.25118 52.2833L3.2583 51.9346L5.08179 52.7516C6.76578 53.2897 6.94514 54.0469 6.29745 56.2292L5.44051 59.5374L6.70598 56.3487C7.50313 54.0569 8.09104 53.7481 9.76506 54.1765L11.7579 54.5253L9.93445 53.7081Z" fill="white"/>
<path d="M67.9373 23.6655C67.7553 23.36 67.5099 23.0969 67.2177 22.8941C66.9255 22.6913 66.5933 22.5534 66.2434 22.4897L59.7565 21.3437L54.4854 28.0996L63.6725 29.7238C65.1664 29.1096 66.5734 28.3022 67.8576 27.3224L68.2263 25.778C68.3217 25.4244 68.3453 25.0553 68.2957 24.6925C68.246 24.3297 68.1242 23.9805 67.9373 23.6655Z" fill="#020203" stroke="#020203" stroke-width="0.25" stroke-linecap="round" stroke-linejoin="round"/>
<path d="M65.8247 2.81986L62.0084 0.826981L49.2041 25.738L53.0404 27.7309C53.9667 28.1992 54.9918 28.4384 56.0297 28.4284C61.4803 28.4284 67.419 22.5594 69.2824 15.3153C70.797 9.47613 69.2625 4.58356 65.8247 2.81986Z" fill="#FF784B" stroke="#020203" stroke-width="0.25" stroke-linecap="round" stroke-linejoin="round"/>
<path d="M64.9878 3.97602C66.2482 6.91808 66.4282 10.2109 65.496 13.2728C64.5869 16.7828 62.7608 19.9878 60.2049 22.5596C57.8035 24.941 54.9537 26.4059 52.2334 26.4059C51.1955 26.4159 50.1703 26.1767 49.2441 25.7083C47.935 25.0075 46.8867 23.9032 46.2547 22.5596C44.9984 19.6196 44.8219 16.3302 45.7565 13.2728C46.658 9.75901 48.4811 6.54963 51.0377 3.97602C53.449 1.59453 56.2989 0.129772 59.0092 0.129772C60.0464 0.125461 61.0703 0.364306 61.9985 0.827233C63.3085 1.52697 64.357 2.63152 64.9878 3.97602Z" fill="#FFF768" stroke="#020203" stroke-width="0.25" stroke-linecap="round" stroke-linejoin="round"/>
<path d="M63.4235 5.53022C62.9941 4.56954 62.2944 3.75459 61.4097 3.18484C60.525 2.6151 59.4936 2.31522 58.4413 2.32171C55.8937 2.48895 53.5106 3.63936 51.795 5.53022C49.6616 7.6728 48.1379 10.3453 47.3808 13.2726C46.6042 15.8229 46.756 18.5659 47.8093 21.015C48.2391 21.9746 48.9393 22.788 49.8241 23.3561C50.7089 23.9241 51.7401 24.2221 52.7915 24.2135C55.3399 24.0463 57.7249 22.9002 59.4477 21.015C61.5723 18.8689 63.0888 16.197 63.842 13.2726C64.6166 10.7228 64.4684 7.98166 63.4235 5.53022Z" fill="#FFF768" stroke="#020203" stroke-width="0.25" stroke-linecap="round" stroke-linejoin="round"/>
<path d="M59.2883 12.2065C59.2703 12.254 59.2392 12.2955 59.1986 12.3261L57.6441 13.3225C57.6183 13.3316 57.5902 13.3316 57.5644 13.3225C57.534 13.3011 57.5127 13.269 57.5046 13.2327C57.4668 12.8575 57.2867 12.5111 57.0012 12.2646C56.7158 12.0182 56.3468 11.8903 55.9701 11.9075C55.6087 11.9154 55.2525 11.9953 54.9223 12.1424C54.5921 12.2895 54.2945 12.501 54.047 12.7644C53.4499 13.3867 53.0301 14.1573 52.8313 14.9965C52.5906 15.7186 52.6153 16.503 52.9011 17.2085C53.0362 17.482 53.2494 17.7095 53.5136 17.862C53.7778 18.0145 54.0813 18.0854 54.3858 18.0656C54.833 18.04 55.2675 17.9071 55.6525 17.6782C56.0376 17.4492 56.3618 17.1309 56.5979 16.7502C56.6232 16.7151 56.6577 16.6876 56.6975 16.6705H56.7573L57.8135 17.667C57.8223 17.6839 57.8268 17.7026 57.8268 17.7217C57.8268 17.7408 57.8223 17.7596 57.8135 17.7766C57.8274 17.822 57.8274 17.8706 57.8135 17.9161C57.375 18.6061 56.7822 19.1848 56.0819 19.6067C55.3816 20.0286 54.5929 20.2821 53.7779 20.3473C53.2475 20.3654 52.7233 20.2279 52.27 19.9517C51.8168 19.6755 51.4542 19.2727 51.227 18.793C50.7198 17.5886 50.6562 16.2433 51.0477 14.9965C51.4083 13.5588 52.1481 12.2443 53.19 11.1901C54.0621 10.2514 55.2681 9.6931 56.548 9.63561C57.2281 9.63239 57.886 9.87768 58.3979 10.3254C58.9099 10.7731 59.2407 11.3925 59.3281 12.067C59.3433 12.1122 59.3433 12.1612 59.3281 12.2065" fill="white"/>
<path d="M59.2883 12.2065C59.2703 12.254 59.2392 12.2955 59.1986 12.3261L57.6441 13.3225C57.6183 13.3316 57.5902 13.3316 57.5644 13.3225C57.534 13.3011 57.5127 13.269 57.5046 13.2327C57.4668 12.8575 57.2867 12.5111 57.0012 12.2646C56.7158 12.0182 56.3468 11.8903 55.9701 11.9075C55.6087 11.9154 55.2525 11.9953 54.9223 12.1424C54.5921 12.2895 54.2945 12.501 54.047 12.7644C53.4499 13.3867 53.0301 14.1573 52.8313 14.9965C52.5906 15.7186 52.6153 16.503 52.9011 17.2085C53.0362 17.482 53.2494 17.7095 53.5136 17.862C53.7778 18.0145 54.0813 18.0854 54.3858 18.0656C54.833 18.04 55.2675 17.9071 55.6525 17.6782C56.0376 17.4492 56.3618 17.1309 56.5979 16.7502C56.6232 16.7151 56.6577 16.6876 56.6975 16.6705V16.6705H56.7573L57.8135 17.667C57.8223 17.6839 57.8268 17.7026 57.8268 17.7217C57.8268 17.7408 57.8223 17.7596 57.8135 17.7766C57.8274 17.822 57.8274 17.8706 57.8135 17.9161C57.375 18.6061 56.7822 19.1848 56.0819 19.6067C55.3816 20.0286 54.5929 20.2821 53.7779 20.3473C53.2475 20.3654 52.7233 20.2279 52.27 19.9517C51.8168 19.6755 51.4542 19.2727 51.227 18.793C50.7198 17.5886 50.6562 16.2433 51.0477 14.9965C51.4083 13.5588 52.1481 12.2443 53.19 11.1901C54.0621 10.2514 55.2681 9.6931 56.548 9.63561C57.2281 9.63239 57.886 9.87768 58.3979 10.3254C58.9099 10.7731 59.2407 11.3925 59.3281 12.067C59.3433 12.1122 59.3433 12.1612 59.3281 12.2065" stroke="#020203" stroke-width="0.25" stroke-linecap="round" stroke-linejoin="round"/>
<path d="M61.4604 6.47711L59.5672 8.77882C59.5522 8.79944 59.5328 8.81638 59.5104 8.82845C59.488 8.84053 59.4631 8.8475 59.4377 8.84864H53.3793C53.3793 8.84864 53.2996 8.84855 53.2896 8.7489C53.2855 8.7149 53.2886 8.68049 53.2989 8.64782C53.3093 8.61516 53.3265 8.58507 53.3494 8.55964L55.2426 6.26777C55.2548 6.24675 55.2722 6.22928 55.2932 6.21705C55.3141 6.20482 55.3379 6.19829 55.3622 6.19808H61.4206C61.4454 6.19795 61.4693 6.20704 61.4877 6.22362C61.5062 6.2402 61.5177 6.26306 61.5202 6.28772C61.5217 6.35569 61.5007 6.4223 61.4604 6.47711Z" fill="white" stroke="#020203" stroke-width="0.25" stroke-linecap="round" stroke-linejoin="round"/>
<g style="mix-blend-mode:soft-light">
<path d="M58.9892 0.129632C56.2589 0.129632 53.4091 1.59439 51.0176 3.97588C48.4611 6.54949 46.638 9.75887 45.7365 13.2726C44.8019 16.3301 44.9784 19.6195 46.2347 22.5594C46.8667 23.9031 47.915 25.0073 49.224 25.7082L62.0283 0.79717C61.0825 0.336922 60.0408 0.108172 58.9892 0.129632Z" fill="white"/>
</g>
</g>
<defs>
<clipPath id="clip0_2295_109">
<rect width="70" height="70" fill="white"/>
</clipPath>
</defs>
</svg>
