<svg width="99" height="70" viewBox="0 0 99 70" fill="none" xmlns="http://www.w3.org/2000/svg">
<path d="M0.150018 61.4348L0.15 8.56536C0.15 5.57432 2.56895 3.15019 5.55217 3.15016C24.4928 3.14996 43.4334 3.14999 62.374 3.15002C70.7319 3.15003 79.0898 3.15005 87.4478 3.15004C90.431 3.15004 92.85 5.57417 92.85 8.56524V61.4348C92.85 64.4259 90.431 66.85 87.4478 66.85L5.55225 66.85C2.56901 66.85 0.150018 64.4258 0.150018 61.4348Z" fill="#0D0D0D" stroke="#3D3D3D" stroke-width="0.3" stroke-linejoin="round"/>
<path d="M66.9681 18.4178L66.9685 18.4185C69.4925 22.0914 71.2504 26.23 72.1385 30.5896L72.1388 30.5912C73.0697 34.9309 73.1213 39.4116 72.2906 43.7714C71.4623 48.0707 69.7846 52.1639 67.3545 55.8143C64.9474 59.4087 61.8266 62.476 58.1836 64.8277L58.1832 64.8279C54.4897 67.2282 50.3201 68.8105 45.9571 69.4674L45.9566 69.4675C44.312 69.7217 42.6501 69.8497 40.9858 69.8503C38.1582 69.8277 35.3457 69.4377 32.6199 68.6901L32.6193 68.69C23.9853 66.3618 16.509 60.9686 11.6043 53.5308L11.6037 53.5298C9.08655 49.776 7.3301 45.57 6.43285 41.1476L6.43262 41.1465C5.52263 36.828 5.52259 32.3689 6.43249 28.0504C7.33636 23.9418 9.07941 20.0615 11.5536 16.6501L11.5538 16.6498C14.0075 13.2493 17.1312 10.3804 20.7351 8.2175C24.5056 5.97 28.6796 4.47245 33.0249 3.80815C34.7826 3.54069 36.5581 3.40491 38.3363 3.40195C40.9887 3.40292 43.6323 3.70664 46.2151 4.30715L46.2153 4.3072C50.3903 5.27089 54.3484 6.99846 57.8876 9.4017L57.8885 9.40227C61.4701 11.799 64.5529 14.8601 66.9681 18.4178Z" fill="#3D3D3D" stroke="#8A8A8A" stroke-width="0.3" stroke-linecap="round" stroke-linejoin="round"/>
<path d="M69.8401 15.1543L69.8408 15.1552C72.373 18.8248 74.1351 22.9642 75.0221 27.326L75.0224 27.3274C75.946 31.6605 75.9936 36.133 75.1625 40.4845C74.3321 44.7869 72.6545 48.8838 70.2261 52.5394C67.8094 56.126 64.6903 59.1914 61.0552 61.5527L61.0551 61.5527C57.3618 63.9534 53.1921 65.5357 48.8291 66.1922L48.8285 66.1923C47.1842 66.4465 45.5226 66.5745 43.8585 66.5751C41.0306 66.5533 38.2178 66.1632 35.4918 65.415L35.4912 65.4148C26.8572 63.0866 19.3809 57.6934 14.4763 50.2556L14.4756 50.2546C11.96 46.5055 10.2075 42.303 9.31668 37.8842L9.31641 37.8829C8.40642 33.5645 8.40638 29.1054 9.31627 24.7869C10.221 20.6806 11.9597 16.8012 14.4257 13.3864C16.887 9.98834 20.014 7.12003 23.6188 4.95399C27.3866 2.7033 31.5618 1.2092 35.9082 0.556329L35.909 0.556201C37.6657 0.282347 39.4414 0.146549 41.2195 0.150067L41.22 0.150067C43.8682 0.146466 46.508 0.446302 49.0872 1.04364L49.0872 1.04366C53.262 2.00786 57.2201 3.7354 60.7596 6.13817L60.7604 6.13873C64.342 8.53541 67.425 11.5965 69.8401 15.1543Z" fill="#0D0D0D" stroke="white" stroke-width="0.3" stroke-linejoin="round"/>
<path d="M67.8126 28.7484L67.8128 28.7492C68.5095 32.1148 68.5332 35.5838 67.8826 38.9585C67.2367 42.3051 65.9295 45.4911 64.0368 48.3321C62.1716 51.1046 59.7571 53.4697 56.9409 55.2827L56.9399 55.2834C54.085 57.1551 50.859 58.3953 47.4802 58.9203C44.0176 59.4493 40.4823 59.26 37.097 58.3642C30.288 56.5158 24.3941 52.2558 20.5253 46.3869L20.5244 46.3856C18.5482 43.4518 17.1736 40.1592 16.4793 36.6964L16.4791 36.6952C15.78 33.3483 15.7799 29.8944 16.4789 26.5476C17.1743 23.4013 18.5102 20.4299 20.4043 17.8162L20.4044 17.816C22.3026 15.1888 24.7159 12.9706 27.4992 11.295C30.4443 9.52849 33.7065 8.34765 37.1046 7.81808C40.5522 7.28373 44.0711 7.4136 47.4694 8.2006L47.4696 8.20065C50.7615 8.95815 53.8842 10.314 56.6804 12.1998L56.6808 12.2001C59.4795 14.0746 61.8894 16.4667 63.7794 19.2461L63.78 19.2469C65.7566 22.1104 67.1286 25.3427 67.8126 28.7484Z" fill="#0D0D0D" stroke="#3D3D3D" stroke-width="0.3" stroke-linejoin="round"/>
<path d="M58.6331 29.2329L44.5662 46.5149L44.3534 16.5973L58.6331 29.2329Z" fill="#06C270" stroke="#0D0D0D" stroke-width="0.3" stroke-linecap="round" stroke-linejoin="round"/>
<path d="M47.4727 30.9911L33.3944 48.2845L33.1816 18.3665L47.4727 30.9911Z" fill="#06C270" stroke="#0D0D0D" stroke-width="0.3" stroke-linecap="round" stroke-linejoin="round"/>
<path d="M65.0002 34.0469L65 34.0467C61.2755 30.3338 59.1735 25.278 59.15 20.0118C59.1735 14.7339 61.2754 9.68971 64.9884 5.96489C68.7133 2.23997 73.7458 0.15 79 0.15C84.2542 0.15 89.2867 2.23997 93.0116 5.96489C96.7364 9.68968 98.8382 14.7338 98.85 20.0114C98.8266 25.2778 96.7246 30.3338 93 34.0467C89.275 37.76 84.2424 39.85 79 39.85C73.7575 39.85 68.7133 37.76 65.0002 34.0469Z" fill="#0D0D0D" stroke="#3D3D3D" stroke-width="0.3" stroke-linejoin="round"/>
<path d="M86.5993 12.863L89.3055 15.4813L76.0889 28.282L68.6001 21.0294L71.3015 18.4063L75.9845 22.9445C76.0427 23.0009 76.1351 23.0009 76.1932 22.9445L86.5993 12.863Z" fill="white" stroke="#0D0D0D" stroke-width="0.3" stroke-linecap="round" stroke-linejoin="round"/>
</svg>
