<svg width="72" height="72" viewBox="0 0 72 72" fill="none" xmlns="http://www.w3.org/2000/svg">
<path d="M36.2546 71.5092C43.2273 71.5092 50.0434 69.4416 55.841 65.5677C61.6386 61.6939 66.1573 56.1879 68.8256 49.746C71.4939 43.304 72.1921 36.2155 70.8318 29.3768C69.4715 22.5381 66.1138 16.2563 61.1834 11.3259C56.2529 6.39541 49.9712 3.03773 43.1324 1.67743C36.2937 0.317119 29.2052 1.01527 22.7633 3.68361C16.3213 6.35194 10.8153 10.8706 6.94147 16.6682C3.06764 22.4658 1 29.2819 1 36.2546C1 45.6047 4.71431 54.5719 11.3258 61.1834C17.9373 67.7949 26.9045 71.5092 36.2546 71.5092Z" fill="#F08D32" stroke="#F08D32" stroke-width="0.3" stroke-miterlimit="10"/>
<path d="M36.2555 66.2082C42.1823 66.2082 47.976 64.4507 52.9039 61.158C57.8319 57.8652 61.6727 53.1851 63.9408 47.7095C66.2089 42.2338 66.8024 36.2086 65.6461 30.3957C64.4898 24.5827 61.6358 19.2432 57.4449 15.0524C53.254 10.8615 47.9145 8.00746 42.1016 6.8512C36.2887 5.69494 30.2635 6.28837 24.7878 8.55646C19.3122 10.8245 14.6321 14.6654 11.3393 19.5934C8.04656 24.5213 6.28906 30.315 6.28906 36.2418C6.28906 44.1894 9.44623 51.8115 15.066 57.4313C20.6858 63.0511 28.3079 66.2082 36.2555 66.2082Z" fill="black"/>
<path d="M51.3333 41.5H34V22" stroke="#F08D32" stroke-width="4" stroke-linecap="round" stroke-linejoin="round"/>
</svg>
