<svg width="40" height="40" viewBox="0 0 40 40" fill="none" xmlns="http://www.w3.org/2000/svg">
<rect opacity="0.2" x="0.25" y="0.25" width="39.5" height="39.5" stroke="#0D0D0D" stroke-width="0.5"/>
<path d="M10.3291 16.3306V27.0656L20.0441 29.9999V19.2109L10.3291 16.3306Z" fill="#FBFBFB" stroke="#3D3D3D" stroke-width="0.5" stroke-linecap="round" stroke-linejoin="round"/>
<path d="M15.1807 22.1633C14.995 22.1071 14.7991 22.0953 14.6082 22.1286C14.4173 22.1619 14.2364 22.2396 14.0796 22.3556C13.9227 22.4715 13.7941 22.6227 13.7036 22.7975C13.6131 22.9722 13.5631 23.1658 13.5576 23.3634V28.0139L16.7861 28.992V24.3235C16.7785 23.836 16.6187 23.3637 16.33 22.9752C16.0413 22.5868 15.6387 22.3023 15.1807 22.1633V22.1633Z" fill="#FBFBFB" stroke="#3D3D3D" stroke-width="0.5" stroke-linecap="round" stroke-linejoin="round"/>
<path d="M29.7358 16.7686V27.0656L20.062 29.9939V19.6788L29.7358 16.7686Z" fill="#D2D2D2" stroke="#3D3D3D" stroke-width="0.5" stroke-linecap="round" stroke-linejoin="round"/>
<path d="M29.7358 16.9551V18.1171L20.062 21.0454V20.0001L29.7358 16.9551Z" fill="#3D3D3D" stroke="#3D3D3D" stroke-width="0.5" stroke-linecap="round" stroke-linejoin="round"/>
<path d="M25.3488 13.0842L20.062 20.2249L31.0002 16.9006L25.3488 13.0842Z" fill="#D2D2D2" stroke="#3D3D3D" stroke-width="0.5" stroke-linecap="round" stroke-linejoin="round"/>
<path d="M20.0617 20.225V20.825C20.0597 20.9961 20.0187 21.1644 19.9421 21.3165C19.8655 21.4687 19.7552 21.6006 19.6201 21.7018C19.4849 21.8031 19.3285 21.8709 19.1633 21.8999C18.9981 21.929 18.8285 21.9184 18.6679 21.8691C18.2724 21.7504 17.9249 21.5047 17.677 21.1686C17.4291 20.8324 17.294 20.4236 17.2918 20.0029C17.2887 20.1728 17.2472 20.3397 17.1705 20.4905C17.0938 20.6413 16.984 20.772 16.8497 20.8725C16.7154 20.9729 16.5602 21.0404 16.3962 21.0696C16.2321 21.0989 16.0637 21.0891 15.904 21.0411C15.5084 20.9223 15.161 20.6767 14.9131 20.3405C14.6652 20.0043 14.5301 19.5956 14.5279 19.1749C14.5241 19.3442 14.4821 19.5103 14.405 19.6602C14.3279 19.8102 14.2178 19.9399 14.0834 20.0392C13.9491 20.1386 13.794 20.2049 13.6303 20.2329C13.4667 20.261 13.2988 20.25 13.14 20.201C12.7435 20.084 12.395 19.8388 12.1468 19.5022C11.8986 19.1656 11.7643 18.756 11.764 18.3348C11.7611 18.5046 11.7196 18.6714 11.6429 18.8221C11.5662 18.9728 11.4563 19.1033 11.3218 19.2033C11.1873 19.3033 11.0319 19.3702 10.8678 19.3986C10.7037 19.4269 10.5354 19.4161 10.3761 19.3669C9.97959 19.2499 9.63101 19.0047 9.38284 18.6681C9.13467 18.3316 9.00032 17.9219 9 17.5007V16.9006L20.0617 20.225Z" fill="#FBFBFB" stroke="#3D3D3D" stroke-width="0.5" stroke-linecap="round" stroke-linejoin="round"/>
<path d="M25.3484 13.0843L20.0617 20.225L9 16.8947L15.0513 10L25.3484 13.0843Z" fill="#FBFBFB" stroke="#3D3D3D" stroke-width="0.5" stroke-linecap="round" stroke-linejoin="round"/>
</svg>
