<svg width="30" height="30" viewBox="0 0 30 30" fill="none" xmlns="http://www.w3.org/2000/svg">
<path d="M0.25 0.25H29.75V29.75H0.25V0.25Z" fill="#121212" fill-opacity="0.5" stroke="#565656" stroke-width="0.5"/>
<path fill-rule="evenodd" clip-rule="evenodd" d="M15 16.75C14.5379 16.75 14.0857 16.5632 13.7612 16.2388C13.4368 15.9143 13.25 15.4621 13.25 15C13.25 14.5379 13.4368 14.0857 13.7612 13.7612C14.0857 13.4368 14.5379 13.25 15 13.25C15.4621 13.25 15.9143 13.4368 16.2388 13.7612C16.5632 14.0857 16.75 14.5379 16.75 15C16.75 15.4621 16.5632 15.9143 16.2388 16.2388C15.9143 16.5632 15.4621 16.75 15 16.75V16.75Z" fill="white"/>
<path fill-rule="evenodd" clip-rule="evenodd" d="M20.75 16.75C20.2879 16.75 19.8357 16.5632 19.5112 16.2388C19.1868 15.9143 19 15.4621 19 15C19 14.5379 19.1868 14.0857 19.5112 13.7612C19.8357 13.4368 20.2879 13.25 20.75 13.25C21.2121 13.25 21.6643 13.4368 21.9888 13.7612C22.3132 14.0857 22.5 14.5379 22.5 15C22.5 15.4621 22.3132 15.9143 21.9888 16.2388C21.6643 16.5632 21.2121 16.75 20.75 16.75Z" fill="white"/>
<path fill-rule="evenodd" clip-rule="evenodd" d="M9.25 16.75C8.78792 16.75 8.33567 16.5632 8.01124 16.2388C7.6868 15.9143 7.5 15.4621 7.5 15C7.5 14.5379 7.6868 14.0857 8.01124 13.7612C8.33567 13.4368 8.78792 13.25 9.25 13.25C9.71208 13.25 10.1643 13.4368 10.4888 13.7612C10.8132 14.0857 11 14.5379 11 15C11 15.4621 10.8132 15.9143 10.4888 16.2388C10.1643 16.5632 9.71208 16.75 9.25 16.75Z" fill="white"/>
</svg>
