<svg width="122" height="102" viewBox="0 0 122 102" fill="none" xmlns="http://www.w3.org/2000/svg">
<path d="M99.1741 88.6501L39.7208 97.3877L22.1836 12.5637L65.1131 6.25867L84.7642 18.962L99.1741 88.6501Z" fill="white" stroke="black" stroke-width="0.336111" stroke-linecap="round" stroke-linejoin="round"/>
<path d="M84.7643 18.962L68.2406 21.3946L65.1133 6.25867L84.7643 18.962Z" fill="#FF784B" stroke="#0D0D0D" stroke-width="0.336111" stroke-linejoin="round"/>
<path d="M112.272 70.6282C114.975 64.1745 116.352 57.2432 116.32 50.2469C116.313 43.0079 114.853 35.8438 112.026 29.1792C109.163 22.5145 105.012 16.4806 99.8095 11.4239C95.3971 7.11928 90.2857 3.59457 84.6929 1L78.7383 13.9965C82.8772 15.92 86.6621 18.527 89.9341 21.7079C93.7943 25.4549 96.8741 29.9286 98.996 34.871C101.064 39.7333 102.128 44.9633 102.123 50.2469C102.153 55.4137 101.12 60.5315 99.0895 65.2829L89.3205 61.324L94.7352 92.4823L121.001 74.1672L112.272 70.6282Z" fill="#FFDF0D" stroke="black" stroke-width="0.336111" stroke-linecap="round" stroke-linejoin="round"/>
<path d="M43.4828 87.4169C38.4771 85.4366 33.9362 82.4411 30.1465 78.6193C26.5737 74.9671 23.7889 70.6208 21.9646 65.8494C20.1246 61.0778 19.2672 55.9841 19.444 50.8734C19.6346 45.4973 20.869 40.2095 23.0783 35.3042C23.1717 35.0842 23.2783 34.8776 23.385 34.6377L32.6871 38.41L27.2724 7.25159L1 25.5667L10.1887 29.2924C10.1875 29.3146 10.1875 29.3369 10.1887 29.3591C7.21259 35.9841 5.54819 43.1226 5.28757 50.3802C5.04683 57.4305 6.2283 64.4571 8.76165 71.0413C11.2842 77.6212 15.1234 83.6174 20.0443 88.6633L20.1709 88.7833C25.329 93.9771 31.5096 98.044 38.3216 100.727C38.555 100.807 38.7951 100.913 39.0285 101L44.9898 87.9701C44.443 87.7768 43.9629 87.5969 43.4828 87.4169Z" fill="#FF784B" stroke="#0D0D0D" stroke-width="0.336111" stroke-linejoin="round"/>
<path d="M88.6455 70.0883L84.2246 66.6625C85.2126 65.3393 86.0554 63.9137 86.7385 62.4103C92.1997 50.2069 85.9783 35.4575 72.8487 29.4658C61.3661 24.2472 48.4032 27.4663 41.6684 36.4506L41.7817 36.2906L39.1144 39.843C38.0611 41.2152 37.1663 42.702 36.4472 44.2752C30.986 56.4786 37.2074 71.2346 50.3437 77.2197C61.8929 82.485 74.9491 79.2192 81.6439 70.0616L86.0516 73.4807C85.4515 74.8137 85.2915 76.0534 85.7316 76.6599L100.715 88.2835L108.577 82.7982L91.2395 69.3285C90.666 68.9419 89.6857 69.2685 88.6455 70.0883ZM81.5707 60.091C80.746 61.9263 79.5986 63.5991 78.1832 65.0297C76.388 66.8092 74.2537 68.2104 71.9067 69.1503C69.5598 70.0902 67.048 70.5497 64.5202 70.5015C61.3621 70.5018 58.2413 69.8197 55.3715 68.502C45.1092 63.8366 40.148 52.433 44.3156 43.1222C44.529 42.6556 44.7558 42.1957 45.0158 41.7492C48.1565 36.144 54.2846 32.7116 61.3661 32.7116C64.5243 32.7107 67.6453 33.3928 70.5148 34.7111C75.4646 36.9186 79.4053 40.9025 81.5573 45.8748C82.5424 48.1148 83.0521 50.5346 83.0544 52.9814C83.0567 55.4283 82.5516 57.8491 81.5707 60.091Z" fill="black" stroke="black" stroke-width="0.336111" stroke-linejoin="round"/>
<path d="M83.5571 43.1688C81.4013 38.1991 77.4618 34.2164 72.5146 32.0051C69.6439 30.6902 66.5237 30.0083 63.3659 30.0056C56.2844 30.0056 50.1563 33.4314 47.0156 39.0433C48.8091 37.2586 50.9437 35.8532 53.2922 34.9108C55.6408 33.9684 58.1551 33.5083 60.6853 33.558C63.8414 33.557 66.9601 34.2391 69.8273 35.5574C74.7804 37.7625 78.724 41.747 80.8765 46.7211C81.8611 48.9617 82.3695 51.3822 82.3695 53.8293C82.3695 56.2764 81.8611 58.6969 80.8765 60.9374C80.6686 61.4098 80.4348 61.8703 80.1763 62.317C81.5932 60.8876 82.7408 59.2147 83.5638 57.3784C84.5448 55.1379 85.0506 52.7185 85.0495 50.2728C85.0483 47.8272 84.5402 45.4083 83.5571 43.1688Z" fill="#9772FF" stroke="#0D0D0D" stroke-width="0.336111" stroke-linejoin="round"/>
<path d="M83.2582 61.6971L80.7109 65.1095L91.3533 73.3606L93.9005 69.9482L83.2582 61.6971Z" fill="white" stroke="black" stroke-width="0.336111" stroke-linejoin="round"/>
<path d="M93.2277 66.6623C92.4142 66.0692 90.7206 66.9889 89.2669 68.8351C87.7466 70.7812 87.0931 73.0873 87.7465 73.9937L110.625 91.7357L116.106 84.4043L93.2277 66.6623Z" fill="#9772FF" stroke="#0D0D0D" stroke-width="0.336111" stroke-linejoin="round"/>
<path d="M116.393 84.7509C116.9 85.7174 116.213 87.8435 114.759 89.703C113.212 91.6691 111.358 92.5622 110.625 91.7491C109.891 90.936 110.625 88.5366 112.138 86.5905C113.599 84.7443 115.293 83.8245 116.106 84.4177C116.227 84.5046 116.325 84.6188 116.393 84.7509Z" fill="black" stroke="black" stroke-width="0.336111" stroke-linejoin="round"/>
<path d="M81.4439 60.0909C80.6208 61.9272 79.4735 63.6002 78.0566 65.0296C76.2614 66.8091 74.1271 68.2103 71.7801 69.1502C69.4332 70.0902 66.9214 70.5497 64.3936 70.5014C61.2355 70.5011 58.1148 69.8191 55.2449 68.502C44.9826 63.8366 40.0214 52.4396 44.189 43.1221C44.3994 42.6661 44.6331 42.2212 44.8892 41.7891C48.0299 36.1773 54.158 32.7448 61.2395 32.7448C64.3973 32.7475 67.5175 33.4294 70.3882 34.7443C75.3369 36.9535 79.2771 40.9368 81.4307 45.908C82.4111 48.1434 82.9182 50.5573 82.9205 52.9981C82.9228 55.4388 82.42 57.8536 81.4439 60.0909Z" fill="white" stroke="black" stroke-width="0.336111" stroke-linejoin="round"/>
<path d="M42.489 35.5241C41.9869 36.3345 41.5413 37.1785 41.1554 38.0502C35.6942 50.2536 41.9156 65.0096 55.0452 70.9947C65.7142 75.8667 77.6836 73.4407 84.7251 65.8227C78.4237 76.1733 64.554 80.1056 52.3646 74.5537C39.2283 68.5553 33.0269 53.8126 38.4681 41.6092C39.1857 40.0352 40.0806 38.5482 41.1354 37.177L43.8026 33.618L42.509 35.5241" fill="#9772FF"/>
<path d="M42.489 35.5241C41.9869 36.3345 41.5413 37.1785 41.1554 38.0502C35.6942 50.2536 41.9156 65.0096 55.0452 70.9947C65.7142 75.8667 77.6836 73.4407 84.7251 65.8227C78.4237 76.1733 64.554 80.1056 52.3646 74.5537C39.2283 68.5553 33.0269 53.8126 38.4681 41.6092C39.1857 40.0352 40.0806 38.5482 41.1354 37.177L43.8026 33.618L42.509 35.5241" stroke="#0D0D0D" stroke-width="0.336111" stroke-linejoin="round"/>
<path d="M74.8505 26.7998C62.6544 21.2546 48.7846 25.1869 42.4899 35.5242C41.9878 36.3345 41.5422 37.1785 41.1563 38.0502C35.6951 50.2536 41.9165 65.0096 55.0461 70.9947C65.7151 75.8667 77.6845 73.4407 84.726 65.8227C86.3785 64.0252 87.7295 61.9726 88.7269 59.7444C94.2015 47.5343 87.98 32.7649 74.8505 26.7998ZM83.5724 57.385C82.7494 59.2213 81.6019 60.8943 80.185 62.3237C78.3907 64.1044 76.2566 65.5065 73.9095 66.4465C71.5623 67.3865 69.05 67.8453 66.5219 67.7956C63.3642 67.7929 60.244 67.111 57.3733 65.7961C47.111 61.1307 42.1498 49.727 46.3174 40.4162C46.5267 39.9466 46.7605 39.4884 47.0176 39.0432C50.1583 33.4314 56.2863 30.0056 63.3679 30.0056C66.5257 30.0083 69.6459 30.6902 72.5166 32.0051C77.4638 34.2164 81.4033 38.1991 83.5591 43.1688C84.5442 45.4088 85.0539 47.8286 85.0562 50.2755C85.0585 52.7224 84.5533 55.1431 83.5724 57.385Z" fill="white" stroke="black" stroke-width="0.336111" stroke-linejoin="round"/>
<path d="M73.8957 52.0863L67.981 48.1407L71.8886 42.169L67.4542 39.2164L63.54 45.1815L57.6254 41.2359L54.6914 45.708L60.6127 49.6537L56.6985 55.6254L61.1328 58.5846L65.047 52.6129L70.9684 56.5585L73.8957 52.0863Z" fill="#9772FF" stroke="#0D0D0D" stroke-width="0.336111" stroke-linejoin="round"/>
</svg>
