<svg width="326" height="216" viewBox="0 0 326 216" fill="none" xmlns="http://www.w3.org/2000/svg">
<g opacity="0.04">
<path d="M17.1214 4.45762C19.7362 5.20695 22.4844 5.36859 25.169 4.931C27.8536 4.49341 30.4081 3.46749 32.6495 1.92659C36.0968 -0.475098 40.5689 -0.501065 45.9364 1.83851C50.3568 3.76918 54.4254 6.88524 57.0548 9.16788C57.7765 9.79517 58.6926 10.1533 59.6484 10.1816C60.6042 10.2099 61.5406 9.90667 62.2981 9.32319L62.4427 9.20933C65.0491 7.21826 68.2589 6.17913 71.5377 6.26482C74.8165 6.35051 77.967 7.55581 80.4658 9.6803C107.247 32.4083 128.526 47.8589 145.524 56.917C157.61 63.356 167.532 66.5341 175.638 66.5341C177.521 66.5414 179.4 66.3523 181.244 65.9699C194.184 63.2162 200.11 50.7937 206.415 37.6465C209.655 30.8814 213.009 23.8834 217.46 17.8585C222.486 11.052 228.258 6.47118 235.095 3.88315C237.565 3.88254 240.011 4.36956 242.292 5.31642C244.573 6.26329 246.644 7.65132 248.387 9.40078C254.666 15.6534 260.903 20.3843 266.938 23.4692C272.973 26.5542 279.112 28.1277 284.966 27.9983C290.318 27.8469 295.559 26.441 300.267 23.8937C305.293 21.2488 310.293 17.2684 315.127 12.0562L315.391 11.7818C316.988 10.1042 318.949 8.81621 321.123 8.01742C323.297 7.21864 325.625 6.9304 327.928 7.17505C330.275 7.40868 332.536 8.17847 334.539 9.42504C336.541 10.6716 338.23 12.3617 339.476 14.3647C342.203 18.7177 344.895 21.9527 347.483 23.9869C350.071 26.021 352.587 26.8959 355.025 26.6371C358.042 26.311 360.998 24.2043 363.824 20.374C366.65 16.5437 369.305 11.0571 371.888 3.85207L371.8 3.82098C369.212 11.0002 366.51 16.549 363.746 20.3171C360.982 24.0853 358.016 26.2178 355.025 26.5284C352.618 26.7872 350.102 25.902 347.55 23.8989C344.998 21.8958 342.286 18.64 339.569 14.2973C338.317 12.2791 336.618 10.5759 334.603 9.3194C332.588 8.06284 330.311 7.2866 327.948 7.05083C325.631 6.80546 323.288 7.09558 321.1 7.89876C318.912 8.70194 316.938 9.9967 315.329 11.6834L315.07 11.9629C310.241 17.1648 305.236 21.1401 300.236 23.7799C295.541 26.3214 290.314 27.7222 284.977 27.8689C279.133 27.9879 273.072 26.4662 266.99 23.3502C260.908 20.2342 254.733 15.5448 248.465 9.30764C246.712 7.54699 244.629 6.15029 242.334 5.19802C240.04 4.24574 237.58 3.7567 235.095 3.75893C228.237 6.34696 222.45 10.9639 217.409 17.7911C212.952 23.8264 209.598 30.8244 206.353 37.5947C200.064 50.7212 194.122 63.1231 181.249 65.8664C172.273 67.7815 160.607 64.8312 145.596 56.8238C128.603 47.7709 107.329 32.3204 80.5538 9.59753C78.0399 7.46667 74.874 6.2579 71.5796 6.17131C68.2853 6.08471 65.06 7.12539 62.4376 9.12125L62.2925 9.23511C61.5512 9.80263 60.6373 10.0976 59.704 10.0703C58.7708 10.0429 57.8754 9.69493 57.1685 9.08498C54.5339 6.80234 50.4395 3.67604 46.0244 1.7402C40.6257 -0.614908 36.1228 -0.5787 32.6445 1.84369C30.4111 3.37865 27.8653 4.39989 25.1903 4.83395C22.5152 5.268 19.7771 5.10414 17.1729 4.35413C15.7369 3.95544 14.2536 3.7535 12.7632 3.75375H-5.92216V3.84688H12.7632C14.2368 3.85271 15.7029 4.05813 17.1214 4.45762Z" fill="#D8D1FF"/>
<path d="M16.992 13.0914C19.6044 13.8335 22.3475 13.9965 25.0295 13.5692C27.7115 13.1419 30.2677 12.1345 32.5201 10.6172C41.0296 4.69583 54.2595 15.462 56.8061 17.6773C57.5408 18.2989 58.4646 18.6529 59.4265 18.6811C60.3884 18.7093 61.3317 18.4101 62.1015 17.8326L62.246 17.7239C64.8523 15.7889 68.0318 14.7824 71.2768 14.865C74.5219 14.9475 77.6454 16.1143 80.1499 18.1794C106.196 40.2863 127.045 55.3434 143.893 64.2151C155.953 70.5662 165.933 73.6925 174.178 73.6925C176.037 73.7012 177.892 73.5278 179.717 73.1749C193.226 70.5144 199.675 58.0713 206.508 44.893C213.34 31.7148 220.38 18.1225 235.064 12.5116C239.997 12.5298 244.732 14.4549 248.279 17.8843C260.391 29.9445 272.477 36.0575 284.206 36.0523H284.868C295.464 35.8453 305.604 30.6019 314.998 20.4775L315.153 20.3223L315.262 20.2085C316.894 18.5738 318.871 17.3247 321.048 16.5524C323.224 15.7801 325.546 15.5041 327.844 15.7448C330.141 15.9854 332.355 16.7365 334.325 17.9432C336.294 19.1498 337.969 20.7815 339.227 22.7188C344.558 31.2282 349.833 35.2655 354.905 34.722C361.117 34.0491 366.862 26.5542 371.93 12.465L371.738 12.3978C366.702 26.4249 361.029 33.8732 354.879 34.5358C349.89 35.0534 344.688 31.0626 339.403 22.6308C338.128 20.6668 336.431 19.0126 334.434 17.7894C332.438 16.5662 330.193 15.8049 327.864 15.5613C325.535 15.3176 323.182 15.5978 320.975 16.3813C318.769 17.1648 316.765 18.4316 315.112 20.0893L315.003 20.1981L314.853 20.3585C305.49 30.4466 295.402 35.6641 284.868 35.8866H284.206C272.534 35.8866 260.494 29.7944 248.424 17.7704C244.833 14.299 240.037 12.353 235.043 12.3408H235.007C220.24 17.9775 213.164 31.6267 206.327 44.8257C199.489 58.0246 193.091 70.3592 179.68 73.0042C170.519 74.8055 158.841 71.881 143.965 64.06C127.133 55.1986 106.295 40.1465 80.2591 18.05C77.7201 15.9556 74.5524 14.7723 71.2622 14.6888C67.9719 14.6053 64.7485 15.6265 62.1065 17.5894L61.9564 17.698C61.2239 18.2469 60.3267 18.5309 59.4118 18.5036C58.497 18.4764 57.6184 18.1394 56.9199 17.5479C55.248 16.109 50.8279 12.5169 45.7605 10.374C40.305 8.06028 35.8019 8.09649 32.3857 10.4775C28.1258 13.4382 22.2353 14.375 17.0127 12.9206C15.5769 12.5311 14.0957 12.3344 12.608 12.3356H-5.99495V12.5375H12.608C14.0876 12.5255 15.5619 12.7118 16.992 13.0914Z" fill="#D8D1FF"/>
<path d="M16.8833 21.7302C22.1163 23.1847 28.2137 22.2477 32.4115 19.3077C39.5078 14.3698 50.9419 21.3109 56.5787 26.1919C57.3257 26.8092 58.2571 27.1594 59.2258 27.1866C60.1945 27.2138 61.1446 26.9165 61.9251 26.342L62.0752 26.2386C67.1581 22.341 74.969 22.5376 79.8552 26.6836C105.161 48.1591 125.575 62.8229 142.257 71.5031C154.307 77.7661 164.344 80.8563 172.745 80.8563C174.567 80.8632 176.386 80.7055 178.179 80.3852C192.31 77.8334 199.277 65.3747 206.648 52.1603C213.682 39.5721 220.954 26.5543 235.043 21.166C239.919 21.166 244.951 23.1744 248.181 26.3887C259.853 38.0089 272.259 44.1322 284.107 44.1322H284.785C295.583 43.92 305.712 38.8008 314.884 28.9197L315.019 28.7799C315.06 28.7385 315.106 28.6971 315.143 28.6557C318.248 25.4052 322.804 23.8214 327.633 24.3131C332.462 24.8048 336.603 27.2789 338.994 31.0936C343.896 38.925 348.87 42.8795 353.803 42.8795C354.135 42.8803 354.466 42.8631 354.797 42.8278C361.179 42.1394 367.126 34.6134 371.991 21.0884L371.697 20.9797C366.872 34.4064 361.018 41.8599 354.76 42.5379C349.641 43.0918 344.408 39.1891 339.232 30.9488C336.789 27.0512 332.56 24.5253 327.638 24.0232C322.716 23.5211 318.067 25.1361 314.894 28.4591L314.775 28.5781L314.625 28.7283C305.515 38.5628 295.474 43.6301 284.754 43.8371C272.777 44.0752 260.204 37.9726 248.372 26.1919C245.08 22.9155 239.956 20.8761 234.992 20.8761H234.935C220.721 26.3006 213.413 39.3754 206.348 52.0205C199.008 65.1573 192.072 77.5695 178.086 80.0954C158.469 83.6358 127.309 66.5962 80.0205 26.4611C75.0256 22.2219 67.0445 22.0201 61.8477 26.0057L61.7027 26.1092C60.9788 26.6418 60.0979 26.9173 59.1995 26.892C58.3012 26.8667 57.4367 26.542 56.744 25.9694C51.0503 21.0314 39.4508 14.0178 32.1992 19.0645C28.0583 21.9424 22.0696 22.8741 16.9298 21.4455C15.4929 21.062 14.0123 20.8671 12.5251 20.8657H-5.98989V21.1815H12.5251C13.9957 21.1712 15.4611 21.3557 16.8833 21.7302Z" fill="#D8D1FF"/>
<path d="M16.7696 30.3641C21.9456 31.8082 28.1828 30.8816 32.2977 27.9934C39.7047 22.8173 52.163 31.099 56.3401 34.7223C57.0989 35.3376 58.0395 35.6862 59.0161 35.7143C59.9926 35.7423 60.9511 35.4483 61.7441 34.8776L61.8063 34.8311L61.8892 34.7689C66.7754 31.0266 74.86 31.2285 79.5444 35.2037C121.786 71.0531 151.223 88.0304 171.368 88.0304C173.115 88.0364 174.86 87.8997 176.585 87.6216C191.373 85.1889 198.884 72.6938 206.839 59.4638C214.086 47.4398 221.539 35.007 235.033 29.8361C239.883 29.8361 245.002 31.8393 248.087 34.9138C259.474 46.2546 271.897 52.2329 283.988 52.2329H284.713C295.583 52.0155 305.934 46.8809 314.775 37.3776L315.04 37.124C318.026 34.0184 322.69 32.4241 327.504 32.9158C332.317 33.4076 336.489 35.861 338.766 39.4946C343.823 47.5692 349.336 51.5341 354.698 50.9544C361.324 50.2401 367.328 42.8901 372.064 29.7015L371.665 29.5618C367.007 42.5847 361.106 49.8415 354.657 50.5351C349.481 51.0941 344.093 47.1966 339.129 39.2669C336.784 35.5246 332.457 32.9936 327.55 32.4915C322.643 31.9894 317.819 33.6095 314.739 36.8341L314.62 36.9428L314.47 37.0929C305.733 46.5082 295.438 51.5858 284.708 51.8084H283.993C271.995 51.8084 259.702 45.8767 248.392 34.6136C245.219 31.4562 239.966 29.4375 235.002 29.4375H234.924C221.27 34.6498 213.749 47.1604 206.456 59.2568C198.552 72.3988 191.094 84.8162 176.497 87.2075C156.466 90.4995 125.736 73.874 79.7981 34.8879C74.8912 30.7471 66.7288 30.5194 61.6096 34.4429L61.5424 34.4894L61.4646 34.5464C60.7463 35.0511 59.8845 35.3105 59.007 35.2863C58.1295 35.262 57.2831 34.9554 56.5938 34.4118C53.2425 31.561 49.4668 29.2505 45.4031 27.5639C39.9062 25.3744 35.2839 25.4106 32.0334 27.6726C28.0219 30.4676 21.9298 31.3941 16.8676 29.9862C15.4314 29.6101 13.9527 29.4204 12.468 29.422H-5.96361V29.8413H12.468C13.9181 29.8323 15.3638 30.0079 16.7696 30.3641Z" fill="#D8D1FF"/>
<path d="M16.6503 39.0027C21.7746 40.4261 28.1515 39.4737 32.1784 36.6839C39.0367 31.9115 51.2573 39.0235 56.0969 43.2161C56.8755 43.8129 57.8227 44.1487 58.8033 44.1756C59.7838 44.2026 60.7475 43.9193 61.5576 43.3662L61.6198 43.3248L61.7027 43.2626C66.475 39.6083 74.6427 39.805 79.2391 43.6819C120.42 78.6358 149.473 95.1732 169.898 95.1732C171.587 95.1781 173.274 95.057 174.944 94.8109C190.426 92.5179 198.506 79.9971 207.036 66.736C214.433 55.2711 222.078 43.4179 234.987 38.4696C239.8 38.4696 245.007 40.4572 247.958 43.3972C259.071 54.4636 271.452 60.2919 283.822 60.2919H284.599C295.645 60.0745 306.033 55.0641 314.62 45.7989L314.744 45.6851C314.791 45.6385 314.842 45.5971 314.884 45.5505C317.803 42.4966 322.456 40.9748 327.306 41.4717C332.156 41.9686 336.277 44.3445 338.471 47.8486C343.099 55.2349 348.244 59.1014 353.425 59.1014C353.799 59.1013 354.172 59.0805 354.543 59.0392C361.303 58.3094 367.53 50.9439 372.069 38.2988L371.551 38.1176C367.085 50.5402 361.018 57.7867 354.471 58.5114C349.139 59.0859 343.751 55.3021 338.906 47.5691C336.629 43.9459 332.306 41.451 327.348 40.9437C322.389 40.4365 317.514 42.0153 314.465 45.183C314.429 45.2202 314.391 45.2548 314.351 45.2865C314.294 45.3383 314.242 45.3849 314.196 45.4366C305.702 54.5879 295.448 59.5413 284.547 59.7536C272.078 60.002 259.531 54.2151 248.315 43.0245C245.261 39.9862 239.873 37.9416 234.914 37.9416H234.821C221.715 42.9417 214.008 54.8828 206.56 66.4358C198.076 79.5881 190.059 92.0107 174.815 94.2726C154.375 97.2954 124.09 81.0892 79.5292 43.2626C74.7879 39.2356 66.2785 39.0338 61.3251 42.8279L61.2679 42.864L61.18 42.9262C60.4725 43.4157 59.6274 43.667 58.7674 43.6437C57.9074 43.6205 57.0772 43.3238 56.3972 42.7968C53.039 39.9904 49.2568 37.7349 45.1913 36.1146C39.6374 33.9717 35.01 34.0131 31.8216 36.2336C27.9965 38.8941 21.6608 39.8568 16.7539 38.4747C15.3199 38.1062 13.8449 37.9202 12.3644 37.921H-5.98433V38.4386H12.3644C13.8112 38.4433 15.2516 38.6329 16.6503 39.0027Z" fill="#D8D1FF"/>
<path d="M16.5315 47.6363C21.5212 49.0287 28.1824 48.0503 32.0334 45.3743C38.9952 40.5295 51.9146 48.335 55.8432 51.7305C56.6319 52.3272 57.5877 52.662 58.5763 52.688C59.5649 52.714 60.5369 52.4299 61.3559 51.8755L61.4075 51.8392L61.501 51.7771C66.1594 48.2108 74.4408 48.4023 78.9181 52.186C119.038 86.234 147.703 102.337 168.412 102.337C170.027 102.34 171.64 102.236 173.242 102.026C189.453 99.8885 198.526 86.7516 207.305 74.0496C214.846 63.1385 222.637 51.8547 234.982 47.1341C238.905 47.1341 244.593 48.6456 247.875 51.9117C258.786 62.7814 271.788 68.6199 284.532 68.3715C295.779 68.1489 306.152 63.2627 314.527 54.246C314.561 54.2089 314.597 54.1743 314.636 54.1425C314.689 54.0999 314.739 54.0531 314.786 54.0028C317.633 51.0265 322.281 49.5514 327.208 50.0587C332.017 50.5452 336.153 52.8537 338.265 56.2337C342.783 63.4439 347.944 67.2172 353.275 67.2172C353.68 67.218 354.084 67.1956 354.486 67.15C361.479 66.3995 367.758 59.2151 372.173 46.9219L371.572 46.7046C367.24 58.7544 361.153 65.7887 354.419 66.5134C348.932 67.1034 343.549 63.4077 338.818 55.8921C336.603 52.3465 332.291 49.9293 327.281 49.4168C322.151 48.8992 317.306 50.452 314.34 53.5577C314.308 53.5944 314.272 53.6273 314.232 53.656C314.175 53.7078 314.118 53.7544 314.072 53.8061C305.821 62.6986 295.603 67.5123 284.537 67.7297C271.964 67.9781 259.128 62.1965 248.341 51.4562C244.914 48.0452 238.993 46.4923 234.935 46.4923H234.821C222.264 51.2853 214.402 62.6675 206.793 73.6718C197.693 86.8396 189.101 99.2777 173.148 101.379C163.314 102.678 151.626 99.8264 137.434 92.7196C121.331 84.6295 102.319 71.208 79.3169 51.6839C74.6584 47.7294 65.9678 47.5431 61.0971 51.2595L61.0455 51.2905L60.952 51.3579C60.2497 51.8222 59.422 52.0593 58.5803 52.0371C57.7387 52.0149 56.9239 51.7344 56.2471 51.2336C51.5317 47.1497 38.7934 39.8722 31.6608 44.836C27.9548 47.424 21.5209 48.3505 16.6968 47.0099C15.2621 46.6587 13.7899 46.4848 12.3128 46.4923H-5.9535V47.1341H12.3335C13.748 47.1308 15.1577 47.2995 16.5315 47.6363Z" fill="#D8D1FF"/>
<path d="M16.4122 56.2753C21.345 57.647 28.1517 56.6739 31.9095 54.0599C38.8195 49.2514 51.868 57.0206 55.5844 60.2401C56.9768 61.4461 59.6842 61.5186 61.1542 60.3851H61.1957L61.2937 60.3178C65.7607 56.8965 74.3271 57.0932 78.587 60.7112C100.844 79.6142 119.442 92.6578 135.394 100.567C147.465 106.561 157.837 109.511 166.927 109.511C168.447 109.512 169.966 109.426 171.476 109.252C188.459 107.285 198.185 94.1174 207.59 81.3843C215.251 71.0322 223.165 60.3075 234.94 55.7836C239.024 55.7836 244.718 57.3934 247.751 60.4421C258.393 71.0374 271.411 76.7311 284.434 76.4878C295.878 76.2601 306.24 71.4981 314.387 62.7195C314.419 62.6876 314.454 62.6582 314.491 62.6315L314.651 62.4866C317.421 59.588 322.063 58.1645 327.074 58.6718C331.898 59.1635 335.992 61.3996 338.026 64.645C342.385 71.6016 347.7 75.3594 353.119 75.3594C353.541 75.3602 353.963 75.3378 354.383 75.2921C361.489 74.5261 367.996 67.3365 372.219 55.5713L371.515 55.3177C367.374 66.8034 361.111 73.8118 354.3 74.5468C348.756 75.1421 343.197 71.4877 338.663 64.2464C336.504 60.8043 332.203 58.4389 327.151 57.9264C321.913 57.4088 317.043 58.9047 314.113 61.969L314.014 62.0517C313.954 62.0996 313.897 62.1515 313.844 62.207C305.836 70.8355 295.66 75.5146 284.423 75.732C271.612 75.9856 258.781 70.3697 248.289 59.9245C245.09 56.736 239.122 55.0693 234.878 55.0693H234.743C222.73 59.6552 214.728 70.4835 206.995 80.9495C197.678 93.5532 188.05 106.587 171.393 108.517C161.399 109.677 149.732 106.856 135.731 99.9043C119.835 92.0056 101.305 78.9982 79.0788 60.1314C74.498 56.2494 65.6208 56.0423 60.8433 59.7173L60.8019 59.7432L60.6988 59.8157C60.0063 60.262 59.1952 60.4895 58.3716 60.4682C57.548 60.447 56.7498 60.1781 56.0813 59.6966C52.251 56.3788 38.7573 48.4025 31.4849 53.4854C27.8876 55.9854 21.3607 56.9119 16.6194 55.592C15.1839 55.2458 13.7117 55.072 12.235 55.0744H-5.94288V55.8249H12.235C13.6401 55.8116 15.0422 55.9628 16.4122 56.2753Z" fill="#D8D1FF"/>
<path d="M16.2985 64.9141C20.548 66.0942 27.6859 65.6025 31.7801 62.7505C38.2502 58.2422 51.2523 65.2194 55.3362 68.7547C56.7182 69.9504 59.4768 70.0228 60.952 68.8996H60.9884L61.0971 68.8272C65.4553 65.4938 74.1199 65.6853 78.2711 69.2051C99.7672 87.4506 117.868 100.08 133.608 107.813C145.705 113.761 156.181 116.68 165.472 116.68C166.898 116.68 168.293 116.613 169.66 116.478C187.455 114.697 197.864 101.504 207.931 88.7395C216.042 78.465 223.697 68.7548 234.909 64.4483C238.993 64.4483 244.842 66.146 247.642 68.9307C257.86 79.1068 271.229 84.8004 284.345 84.5365C289.979 84.4461 295.536 83.2116 300.678 80.9079C305.82 78.6043 310.44 75.2796 314.258 71.1357L314.351 71.0581C314.413 71.0135 314.47 70.9632 314.522 70.908C317.182 68.1285 321.934 66.7153 326.944 67.2278C331.779 67.7195 335.826 69.878 337.783 72.994C342.379 80.3388 348.244 84.024 354.29 83.3718C361.619 82.5799 368.177 75.582 372.276 64.1636L371.469 63.8737C367.483 74.966 361.189 81.7621 354.196 82.5075C348.502 83.1183 342.928 79.5778 338.513 72.528C336.442 69.1843 332.126 66.881 327.032 66.3582C321.774 65.8406 316.747 67.3364 313.911 70.3023L313.823 70.3749C313.756 70.4247 313.694 70.4801 313.637 70.5405C309.897 74.5981 305.371 77.8538 300.335 80.1102C295.299 82.3665 289.858 83.5765 284.34 83.6669C271.478 83.9205 258.315 78.3253 248.263 68.3148C245.157 65.235 239.039 63.5786 234.842 63.5786H234.764L234.686 63.6045C223.216 67.9835 215.105 78.2579 207.253 88.196C197.295 100.815 187 113.869 169.572 115.629C159.427 116.664 147.785 113.838 133.981 107.052C118.308 99.3503 100.264 86.7622 78.8251 68.5632C74.4099 64.8158 65.1966 64.6087 60.5744 68.1491L60.538 68.175C60.4975 68.1949 60.4595 68.2191 60.4243 68.2474C59.2959 69.1222 56.9667 69.0601 55.8953 68.1336C51.6664 64.4741 38.1415 57.3001 31.2832 62.0724C27.5099 64.7019 20.5996 65.2505 16.5209 64.1118C15.0863 63.7694 13.6168 63.5957 12.142 63.5942H-5.97422V64.4535H12.142C13.5406 64.445 14.9356 64.5995 16.2985 64.9141Z" fill="#D8D1FF"/>
<path d="M16.1792 73.5476C20.3821 74.7174 27.7687 74.1378 31.6507 71.4359C37.7585 67.1863 50.8483 73.5943 55.0875 77.2693C56.454 78.4494 59.3166 78.5218 60.7503 77.4141H60.7812L60.9055 77.3365C65.0464 74.1481 73.9908 74.3396 77.9557 77.704C98.6599 95.3026 116.258 107.497 131.787 115.039C143.924 120.94 154.509 123.838 164.013 123.838C165.286 123.838 166.543 123.781 167.775 123.678C186.409 122.125 197.558 108.885 208.319 96.0945C216.492 86.3739 224.215 77.1968 234.873 73.0974C238.905 73.0974 244.857 74.7743 247.528 77.4348C257.254 87.114 270.256 92.6214 283.341 92.6214H284.257C295.924 92.3937 306.514 87.7611 314.123 79.583L314.201 79.5208C314.268 79.4739 314.331 79.4201 314.387 79.3603C316.975 76.6532 321.732 75.2972 326.809 75.8148C331.649 76.3065 335.655 78.4028 337.529 81.379C342.032 88.5686 347.949 92.1556 354.196 91.4827C361.738 90.6701 368.347 83.8531 372.312 72.7867L371.401 72.4555C367.612 83.0043 361.137 89.759 354.082 90.5147C348.228 91.1462 342.638 87.7197 338.342 80.8614C336.313 77.6212 332.033 75.3696 326.898 74.8468C321.541 74.2981 316.478 75.7734 313.688 78.6875L313.616 78.7496C313.544 78.8001 313.476 78.8573 313.414 78.9204C306.002 86.9071 295.639 91.4257 284.236 91.6482C271.11 91.907 257.979 86.4723 248.211 76.7569C245.308 73.8634 239.106 72.1346 234.784 72.1346H234.696L234.614 72.1656C223.677 76.3427 215.856 85.6234 207.574 95.4579C196.943 108.098 185.944 121.167 167.719 122.705C157.444 123.564 145.834 120.769 132.231 114.154C116.791 106.649 99.2495 94.4848 78.5971 76.9535C74.2647 73.2785 64.8758 73.0714 60.3364 76.5497C60.2915 76.5718 60.2496 76.5996 60.212 76.6325C59.1406 77.4555 56.7701 77.3986 55.7608 76.5238C53.7421 74.7743 49.3473 72.1398 44.4766 70.4938C40.4445 69.1273 34.8546 68.0455 31.1382 70.6335C27.4218 73.2216 20.4753 73.7392 16.4794 72.6005C15.0459 72.2625 13.5784 72.0889 12.1056 72.0829H-5.90699V73.0559H12.1056C13.4776 73.0666 14.8441 73.2315 16.1792 73.5476Z" fill="#D8D1FF"/>
<path d="M16.0604 82.1867C20.2789 83.3565 27.7894 82.7043 31.5213 80.1163C37.6291 75.8667 51.2368 82.6525 54.8393 85.7685C56.1903 86.9434 59.1356 87.0159 60.5694 85.9082C60.6192 85.8844 60.6658 85.8548 60.7089 85.8202C64.7617 82.7145 73.7785 82.9061 77.6347 86.1774C97.5366 103.067 114.623 114.847 129.876 122.203C142.092 128.088 152.822 130.971 162.568 130.971C163.635 130.971 164.696 130.935 165.741 130.867C185.353 129.563 197.253 116.286 208.765 103.434C216.979 94.2727 224.738 85.6131 234.852 81.6949C238.936 81.7259 244.925 83.403 247.425 85.8875C256.944 95.3231 269.798 100.625 283.201 100.644H284.18C296.038 100.406 306.633 95.9084 313.994 87.9735L314.061 87.9217C314.136 87.8726 314.206 87.8154 314.268 87.7509C316.784 85.1215 321.515 83.8119 326.691 84.3347C331.535 84.8523 335.49 86.8348 337.286 89.6971C341.629 96.633 347.762 100.215 354.113 99.5316C361.758 98.7035 368.606 91.9072 372.379 81.3429L371.344 80.9806C367.69 91.1464 361.199 97.6786 353.979 98.455C348.057 99.0968 342.297 95.6961 338.182 89.1381C336.215 85.991 331.97 83.8015 326.794 83.2736C321.328 82.7146 316.23 84.1483 313.492 87.0107L313.43 87.0573C313.351 87.1096 313.278 87.1704 313.212 87.2385C306.043 94.9664 295.722 99.3452 284.159 99.573C277.503 99.6892 270.891 98.4719 264.713 95.9926C258.534 93.5133 252.915 89.8222 248.186 85.137C245.39 82.3523 239.034 80.6339 234.728 80.6339H234.629L234.536 80.67C224.138 84.64 216.27 93.4187 207.942 102.71C196.554 115.391 184.82 128.507 165.653 129.78C143.821 131.225 115.249 116.69 78.3125 85.344C74.063 81.7208 64.4976 81.5344 60.0255 84.9558L59.886 85.0437C58.8508 85.8202 56.4751 85.7632 55.5227 84.9403C51.2732 81.2653 37.3752 74.702 30.8844 79.2466C27.4423 81.6431 20.2372 82.2384 16.3293 81.1515C14.8946 80.823 13.4272 80.658 11.9554 80.6596H-5.96917V81.7415H11.9554C13.336 81.7363 14.7131 81.8857 16.0604 82.1867Z" fill="#D8D1FF"/>
<path d="M15.9568 90.8204C20.0976 91.9746 27.7687 91.3379 31.4126 88.8172C37.0338 84.8989 50.6105 90.8359 54.6012 94.2935C55.9418 95.4529 58.9698 95.5254 60.3829 94.4333C60.4352 94.4041 60.4854 94.3713 60.533 94.3349C64.3995 91.3742 73.6697 91.5605 77.3395 94.6765C115.544 127.104 141.724 138.124 161.192 138.119C183.231 138.119 196.694 124.009 209.262 110.831C217.486 102.213 225.255 94.0657 234.826 90.3752C238.34 90.4062 244.733 91.84 247.316 94.4177C256.374 103.434 269.687 108.75 283.108 108.75H284.107C296.157 108.512 306.732 104.138 313.864 96.4519L313.921 96.4106C314.002 96.3584 314.076 96.2976 314.144 96.2293C316.551 93.7138 321.432 92.4249 326.566 92.9477C331.406 93.4653 335.314 95.3701 337.032 98.1237C341.277 104.904 347.467 108.388 354.025 107.679C361.872 106.835 368.751 100.23 372.421 90.0077L371.303 89.604C367.788 99.3867 361.282 105.702 353.901 106.499C347.814 107.156 342.032 103.869 338.037 97.4923C336.132 94.4436 331.888 92.3162 326.686 91.7986C321.111 91.2292 315.971 92.6268 313.295 95.4218L313.238 95.4633C313.155 95.5202 313.077 95.5843 313.005 95.6547C306.074 103.124 295.8 107.363 284.076 107.591C270.618 107.86 257.207 102.632 248.149 93.6154C245.276 90.7531 238.496 89.2261 234.691 89.2261H234.583L234.479 89.2676C224.608 93.0357 216.725 101.302 208.376 110.055C196.472 122.524 184.178 135.417 164.706 136.851C142.449 138.481 114.11 124.429 78.0694 93.8122C73.9027 90.2769 64.1614 90.0751 59.7773 93.4291L59.6221 93.5275C58.6542 94.2728 56.2573 94.2211 55.3463 93.4291C51.7231 90.2976 37.2306 83.3358 30.6984 87.8752C27.365 90.1941 20.0665 90.7737 16.2414 89.7126C14.807 89.3937 13.3424 89.2323 11.873 89.2313H-5.96917V90.4218H11.873C13.2448 90.4062 14.614 90.5398 15.9568 90.8204Z" fill="#D8D1FF"/>
<path d="M15.8223 99.459C19.9166 100.593 27.7271 99.9765 31.2676 97.5024C36.8681 93.6048 50.9367 99.8523 54.3374 102.803C55.6625 103.952 58.7729 104.024 60.1756 102.942H60.1498C60.2089 102.915 60.2647 102.88 60.3156 102.839C64.0786 99.9559 73.437 100.142 77.0033 103.17C110.332 131.457 137.47 145.277 159.768 145.277C161.169 145.277 162.549 145.222 163.909 145.112C184.173 143.492 197.791 130.07 209.8 118.227C217.999 110.142 225.747 102.508 234.784 99.0189C238.408 99.05 244.8 100.525 247.207 102.911C256.006 111.664 269.293 116.819 282.963 116.819H284.03C296.08 116.581 306.902 112.233 313.735 104.889L313.771 104.858C313.862 104.804 313.945 104.74 314.019 104.666C316.354 102.223 321.266 100.986 326.442 101.519C331.276 102.011 335.138 103.864 336.794 106.473C340.935 113.103 347.203 116.488 353.969 115.758C362.012 114.889 368.932 108.476 372.483 98.5998L371.262 98.1598C367.882 107.559 361.365 113.652 353.829 114.464C347.581 115.142 341.774 111.975 337.897 105.784C336.049 102.839 331.825 100.758 326.592 100.225C320.898 99.6453 315.754 100.996 313.104 103.75L313.062 103.776C312.969 103.833 312.883 103.903 312.808 103.983C306.214 111.084 295.728 115.287 284.009 115.52C270.329 115.789 256.902 110.738 248.128 102C245.328 99.2156 238.522 97.7301 234.671 97.7301H234.552L234.438 97.7716C225.095 101.338 217.228 109.097 208.894 117.311C184.339 141.52 156.512 168.958 77.8414 102.187C73.8455 98.8016 63.773 98.5894 59.5493 101.804C59.4924 101.835 59.4375 101.87 59.384 101.907C58.4731 102.611 56.0401 102.559 55.1861 101.819C53.3331 100.21 48.8348 97.7923 43.8296 96.2757C39.6888 95.0128 33.9955 94.0189 30.5276 96.4309C27.4219 98.61 19.8905 99.2364 16.1741 98.2012C14.7404 97.8909 13.2778 97.7347 11.8109 97.7353H-5.94844V99.0345H11.8159C13.1625 99.0365 14.5053 99.1787 15.8223 99.459Z" fill="#D8D1FF"/>
<path d="M15.7081 108.093C19.704 109.205 27.7737 108.533 31.1382 106.193C36.3142 102.606 50.3878 108.113 54.0887 111.317C55.3827 112.44 58.5297 112.523 59.9375 111.483C60.0019 111.454 60.063 111.417 60.119 111.374C63.7008 108.631 73.2972 108.817 76.6824 111.69C108.95 139.077 135.72 152.457 158.314 152.457C159.915 152.457 161.493 152.389 163.05 152.255C183.666 150.485 197.88 137.301 210.416 125.671C218.558 118.114 226.25 110.981 234.743 107.694C238.32 107.725 244.805 109.18 247.078 111.436C255.83 120.153 269.609 125.189 283.937 124.894C296.157 124.656 306.96 120.443 313.575 113.336C313.674 113.28 313.764 113.21 313.844 113.129C316.111 110.758 321.002 109.573 326.302 110.117C331.059 110.603 334.962 112.42 336.494 114.868C340.495 121.25 346.981 124.62 353.854 123.88C361.97 123 369.108 116.633 372.488 107.228L371.163 106.752C367.97 115.634 361.282 121.659 353.71 122.477C347.291 123.17 341.453 120.122 337.695 114.118C335.909 111.271 331.706 109.252 326.453 108.714C320.759 108.134 315.428 109.469 312.86 112.125H312.829C312.726 112.184 312.632 112.257 312.55 112.342C306.199 119.19 295.748 123.248 283.89 123.481C269.914 123.755 256.54 118.874 248.051 110.422C245.36 107.746 238.387 106.281 234.593 106.281H234.464L234.345 106.328C225.545 109.692 217.703 116.954 209.422 124.635C197.051 136.111 183.024 149.118 162.894 150.852C139.726 152.845 111.812 139.687 77.5568 110.619C73.6541 107.301 63.4211 107.089 59.2647 110.23C59.1994 110.258 59.1386 110.294 59.0838 110.339C58.2297 110.996 55.7709 110.945 54.9738 110.251C51.4023 107.145 36.4643 100.748 30.2996 105.039C27.3027 107.109 19.7299 107.761 16.0498 106.737C14.617 106.433 13.1563 106.28 11.6916 106.281H-5.98433V107.689H11.6916C13.0407 107.687 14.3863 107.823 15.7081 108.093Z" fill="#D8D1FF"/>
<path d="M15.5893 116.732C19.5697 117.839 27.7684 117.14 31.0138 114.878C36.1226 111.323 50.6831 117.084 53.8405 119.832C55.119 120.934 58.3333 121.022 59.7308 120.003C59.8003 119.972 59.8662 119.934 59.9274 119.889C63.4006 117.223 73.0848 117.404 76.3664 120.189C111.046 149.625 136.693 159.631 156.828 159.631C180.716 159.631 196.85 145.541 211.084 133.103C219.133 126.079 226.736 119.433 234.728 116.343C238.258 116.38 244.837 117.808 246.98 119.967C255.344 128.295 269.49 133.295 283.885 133.01C296.276 132.767 307.048 128.693 313.45 121.83C313.556 121.769 313.653 121.694 313.74 121.607C315.909 119.345 320.93 118.186 326.235 118.729C330.971 119.211 334.822 120.955 336.271 123.274C340.179 129.485 346.743 132.777 353.829 132.011C362.11 131.116 369.305 124.936 372.561 115.877L371.132 115.36C368.079 123.864 361.381 129.666 353.663 130.495C347.172 131.199 341.147 128.191 337.56 122.461C335.837 119.713 331.66 117.751 326.385 117.213C320.578 116.618 315.215 117.912 312.684 120.51C312.572 120.573 312.469 120.651 312.379 120.743C306.261 127.337 295.867 131.25 283.854 131.488C269.878 131.763 256.136 126.933 248.051 118.89C245.349 116.198 237.963 114.847 234.593 114.847H234.453L234.324 114.894C226.042 118.062 218.278 124.822 210.09 131.975C197.201 143.233 182.595 155.992 162.092 157.855C138.417 160.029 110.699 147.327 77.3551 119.035C73.5352 115.795 63.1415 115.582 59.0525 118.647C58.9853 118.679 58.9211 118.717 58.8609 118.761C58.0638 119.376 55.5847 119.33 54.8393 118.683C52.8414 116.954 48.0381 114.754 43.4262 113.46C35.3516 111.193 31.6402 112.596 30.1495 113.636C27.313 115.608 19.5283 116.25 15.9982 115.267C14.5657 114.974 13.1072 114.827 11.6451 114.827H-5.9535V116.343H11.6451C12.9694 116.342 14.2907 116.472 15.5893 116.732Z" fill="#D8D1FF"/>
<path d="M15.47 125.365C19.0052 126.349 27.4941 125.929 30.8844 123.569C32.9548 122.125 37.3027 122.146 42.7893 123.626C47.6497 124.936 52.1064 127.053 53.5868 128.341C54.8445 129.434 58.1261 129.521 59.5185 128.522C59.5915 128.49 59.6606 128.45 59.7252 128.403C63.0224 125.878 72.9347 126.054 76.0455 128.693C106.18 154.268 132.206 166.779 155.379 166.779C157.418 166.779 159.442 166.68 161.435 166.489C182.822 164.418 198.226 151.737 211.819 140.557C219.733 134.045 227.212 127.891 234.696 124.998C238.294 125.034 244.883 126.473 246.866 128.45C254.744 136.292 268.331 141.074 282.581 141.074H283.833C296.39 140.826 307.125 136.887 313.337 130.267C313.455 130.206 313.563 130.127 313.658 130.034C315.728 127.845 320.785 126.742 326.183 127.291C330.904 127.772 334.693 129.433 336.07 131.628C339.879 137.715 346.52 140.878 353.824 140.091C362.307 139.18 369.522 133.191 372.654 124.475L371.101 123.921C368.182 132.053 361.484 137.627 353.632 138.476C346.96 139.196 340.899 136.312 337.426 130.764C335.764 128.114 331.618 126.209 326.328 125.671C321.825 125.21 315.526 125.774 312.514 128.854C312.391 128.917 312.279 128.999 312.182 129.097C306.302 135.433 295.955 139.206 283.797 139.449C269.526 139.729 255.846 135.081 248.03 127.311C245.406 124.697 237.978 123.383 234.573 123.383H234.423L234.283 123.44C226.518 126.406 218.884 132.679 210.809 139.315C197.398 150.35 182.196 162.855 161.305 164.884C137.092 167.234 109.545 154.993 77.1221 127.467C73.4989 124.361 62.7532 124.154 58.8194 127.084C58.7461 127.112 58.6781 127.152 58.6177 127.203C57.8931 127.762 55.3516 127.72 54.6735 127.13C51.2108 124.133 35.7863 118.202 29.9736 122.249C27.2613 124.138 19.4094 124.785 15.9259 123.802C14.4942 123.517 13.0377 123.373 11.5779 123.372H-5.92772V125.003H11.5779C12.8837 125.003 14.1866 125.124 15.47 125.365Z" fill="#D8D1FF"/>
<path d="M15.3512 134.02C18.8192 134.982 27.5666 134.496 30.755 132.275C35.3514 129.071 50.0823 134.051 53.3381 136.872C54.5751 137.943 57.924 138.036 59.3163 137.058C59.3932 137.025 59.4666 136.983 59.5342 136.934C62.733 134.48 72.7228 134.651 75.73 137.208C104.804 161.882 130.456 173.958 153.914 173.958C156.182 173.96 158.449 173.844 160.705 173.611C182.512 171.391 198.516 158.984 212.631 148.042C220.395 142.043 227.693 136.37 234.671 133.668C237.818 133.709 244.769 134.987 246.762 136.97C254.609 144.781 268.781 149.449 283.76 149.154C296.483 148.906 307.192 145.107 313.171 138.725C313.293 138.662 313.405 138.58 313.502 138.481C315.5 136.411 320.671 135.319 326.08 135.893C330.775 136.375 334.496 137.964 335.795 140.034C339.512 145.971 346.235 149.03 353.766 148.223C358.025 147.75 362.062 146.08 365.41 143.405C368.758 140.731 371.278 137.163 372.68 133.114L371.034 132.467C369.744 136.21 367.418 139.51 364.326 141.984C361.235 144.458 357.505 146.004 353.57 146.442C346.711 147.182 340.63 144.418 337.255 139.061C335.656 136.504 331.561 134.661 326.245 134.118C321.654 133.652 315.272 134.175 312.301 137.187C312.172 137.252 312.055 137.338 311.955 137.441C306.308 143.523 296.017 147.151 283.714 147.395C269.221 147.679 255.499 143.202 247.999 135.712C245.483 133.212 237.89 131.903 234.541 131.903H234.381L234.231 131.96C226.984 134.729 219.505 140.515 211.601 146.644C197.662 157.446 181.87 169.688 160.56 171.857C135.777 174.388 108.406 162.612 76.884 135.857C73.3229 132.834 62.4428 132.617 58.5763 135.474C58.5005 135.506 58.4291 135.548 58.364 135.598C57.6911 136.116 55.1345 136.074 54.5082 135.531C51.2732 132.731 35.4292 126.903 29.7977 130.821C27.2096 132.601 19.1764 133.243 15.8223 132.317C14.3914 132.039 12.9368 131.901 11.4793 131.903H-5.94288V133.637H11.4793C12.7788 133.646 14.075 133.774 15.3512 134.02Z" fill="#D8D1FF"/>
<path d="M15.2375 142.638C18.6381 143.585 27.525 143.109 30.6307 140.945C35.02 137.886 50.0464 142.736 53.0899 145.371C54.3063 146.406 57.7122 146.514 59.1045 145.562C59.1882 145.529 59.2662 145.483 59.337 145.428C62.3598 143.114 72.5777 143.285 75.4141 145.691C103.417 169.46 128.701 181.106 152.439 181.101C154.973 181.1 157.506 180.967 160.027 180.702C182.284 178.332 199.598 165.692 213.522 155.51C221.379 149.77 228.17 144.812 234.64 142.301C237.88 142.348 244.821 143.637 246.648 145.459C254.237 153.01 268.45 157.519 283.709 157.219C296.587 156.965 307.26 153.3 313.026 147.167C313.154 147.101 313.271 147.016 313.372 146.913C315.303 144.894 320.5 143.88 326.007 144.439C330.666 144.915 334.326 146.421 335.547 148.367C339.119 154.061 346.096 157.105 353.751 156.282C362.551 155.329 369.838 149.739 372.732 141.69L370.992 141.064C367.825 149.863 359.905 153.761 353.549 154.444C346.608 155.195 340.309 152.488 337.11 147.389C335.557 144.931 331.494 143.145 326.194 142.601C321.142 142.084 314.863 142.803 312.12 145.552C311.983 145.618 311.861 145.709 311.758 145.821C306.427 151.561 295.929 155.138 283.672 155.371C283.222 155.371 282.777 155.371 282.327 155.371C268.253 155.371 254.868 151.018 247.953 144.133C245.551 141.742 237.787 140.438 234.495 140.438H234.324L234.169 140.5C227.44 143.088 220.488 148.14 212.429 154.004C197.973 164.563 181.585 176.536 159.83 178.849C134.431 181.551 107.21 170.241 76.6096 144.268C73.1313 141.318 62.1167 141.105 58.2968 143.885C58.2158 143.921 58.1397 143.966 58.0693 144.02C57.4482 144.501 54.8755 144.454 54.301 143.957C51.1954 141.256 35.1493 135.541 29.5747 139.413C27.1109 141.126 18.9794 141.747 15.7288 140.847C14.2989 140.576 12.8468 140.439 11.3913 140.438H-5.94844V142.301H11.3913C12.6805 142.303 13.9676 142.415 15.2375 142.638Z" fill="#D8D1FF"/>
<path d="M15.1182 151.277C18.4516 152.203 27.4888 151.732 30.5013 149.636C34.6783 146.727 49.9892 151.411 52.8412 153.88C54.0369 154.916 57.4997 155.014 58.8973 154.087C58.9839 154.049 59.0654 154 59.1404 153.942C61.9872 151.763 72.4274 151.929 75.0982 154.196C102.014 177.059 126.947 188.265 150.959 188.265C153.781 188.265 156.601 188.109 159.406 187.799C182.123 185.288 200.074 172.933 214.495 163.011C222.078 157.788 228.635 153.275 234.609 150.956C237.807 151.002 244.826 152.255 246.513 153.963C253.76 161.147 268.294 165.599 283.631 165.299C296.659 165.04 307.301 161.515 312.86 155.619C312.995 155.555 313.117 155.467 313.222 155.361C315.055 153.445 320.396 152.462 325.919 153.026C330.547 153.497 334.134 154.921 335.273 156.748C338.756 162.307 345.821 165.231 353.72 164.382C357.797 163.958 361.702 162.52 365.081 160.2C368.609 157.784 371.293 154.326 372.758 150.309L370.915 149.646C367.907 158.016 359.952 161.743 353.508 162.436C346.37 163.207 340.014 160.63 336.944 155.707C334.812 152.307 328.663 151.339 326.132 151.08C320.956 150.562 314.62 151.23 311.918 153.911C311.773 153.978 311.642 154.071 311.53 154.186C306.437 159.672 296.002 163.099 283.605 163.342C268.786 163.632 254.764 159.408 247.89 152.576C245.401 150.097 237.124 148.999 234.396 148.999H234.22L234.049 149.061C227.838 151.442 221.109 156.054 213.345 161.396C199.106 171.199 181.384 183.399 159.152 185.858C133.096 188.736 106.005 177.892 76.3356 152.705C72.9453 149.822 61.7542 149.6 58.0223 152.317C57.9379 152.355 57.858 152.401 57.7842 152.457C57.2252 152.887 54.6114 152.845 54.0938 152.405C52.396 150.93 47.5463 149.004 42.5669 147.824C38.9696 146.97 32.4682 145.863 29.3574 148.031C27.0592 149.631 18.7414 150.262 15.6151 149.393C14.1843 149.129 12.7324 148.998 11.2776 148.999H-5.97422V150.956H11.2983C12.5783 150.956 13.856 151.064 15.1182 151.277Z" fill="#D8D1FF"/>
<path d="M14.9994 159.9C18.2707 160.811 27.4474 160.35 30.3719 158.316C34.404 155.51 50.0412 160.179 52.593 162.384C53.7628 163.419 57.2927 163.497 58.6799 162.596C58.774 162.558 58.8626 162.507 58.9438 162.446C61.6974 160.34 72.2047 160.5 74.7772 162.684C103.577 187.126 128.329 195.428 149.556 195.428C177.144 195.428 198.775 181.396 215.556 170.511C222.802 165.8 229.096 161.711 234.578 159.599C237.74 159.646 244.831 160.868 246.431 162.457C253.392 169.387 267.994 173.668 283.616 173.363C296.597 173.109 307.462 169.636 312.741 164.046C312.883 163.981 313.012 163.89 313.119 163.777C314.889 161.929 320.267 161.002 325.899 161.577C330.479 162.043 333.989 163.394 335.055 165.091C338.446 170.505 345.609 173.326 353.756 172.446C357.839 172.034 361.764 170.647 365.201 168.404C368.706 166.141 371.385 162.803 372.835 158.89L370.889 158.192C369.02 163.368 363.482 169.32 353.534 170.397C346.184 171.183 339.771 168.735 336.805 163.994C334.734 160.733 328.642 159.781 326.106 159.522C320.842 159.004 314.408 159.62 311.742 162.234C311.591 162.303 311.454 162.399 311.338 162.519C306.478 167.757 296.1 171.028 283.574 171.277C268.481 171.577 254.474 167.529 247.89 160.971C245.478 158.575 237.15 157.508 234.391 157.508H234.2L234.024 157.576C228.294 159.765 221.871 163.932 214.433 168.756C199.696 178.316 181.363 190.211 158.619 192.809C146.14 194.232 133.872 192.762 121.119 188.311C106.538 183.218 91.398 174.056 76.1183 161.09C72.8936 158.357 61.3921 158.14 57.7999 160.707C57.7083 160.742 57.6226 160.791 57.5461 160.852C56.9975 161.245 54.4716 161.209 53.9229 160.8C50.6723 157.985 34.2077 153.093 29.1714 156.597C27.0181 158.093 18.5032 158.72 15.5322 157.891C14.1017 157.64 12.6522 157.511 11.1998 157.508H-5.96917V159.579H11.1998C12.4726 159.585 13.7434 159.693 14.9994 159.9Z" fill="#D8D1FF"/>
<path d="M14.8801 168.549C18.0686 169.434 27.4995 168.922 30.248 166.996C31.8423 165.889 36.2364 165.93 41.7127 167.115C46.8887 168.228 51.247 169.941 52.3443 170.894C53.4416 171.846 57.0753 171.991 58.4676 171.116C58.5685 171.074 58.6639 171.02 58.7522 170.956C61.3402 168.979 72.0498 169.134 74.4618 171.179C89.4724 183.917 104.617 192.882 119.493 197.82C128.751 200.932 138.449 202.533 148.215 202.561C151.618 202.56 155.018 202.359 158.397 201.96C182.17 199.165 201.358 187.468 216.73 178.037C223.609 173.829 229.567 170.185 234.557 168.244C237.787 168.296 244.868 169.502 246.333 170.956C252.797 177.4 266.628 181.453 281.892 181.453H283.595C296.706 181.194 307.529 177.866 312.607 172.535C312.754 172.466 312.887 172.372 313 172.255C314.677 170.501 320.21 169.615 325.873 170.185C330.335 170.635 333.844 171.934 334.817 173.487C338.12 178.761 345.392 181.474 353.793 180.568C357.879 180.162 361.818 178.827 365.309 176.665C368.785 174.55 371.456 171.335 372.897 167.529L370.827 166.794C369.067 171.696 363.58 177.322 353.539 178.404C346.085 179.207 339.45 176.826 336.639 172.333C334.682 169.227 328.6 168.275 326.075 168.016C320.697 167.467 314.17 168.062 311.54 170.604C311.384 170.676 311.242 170.776 311.121 170.899C306.494 175.889 296.178 179.01 283.528 179.258C268.403 179.558 254.055 175.604 247.844 169.424C245.494 167.084 236.783 166.08 234.34 166.08H234.137L233.951 166.153C228.734 168.14 222.637 171.846 215.571 176.189C200.359 185.506 181.409 197.069 158.117 199.812C145.32 201.281 132.356 199.898 120.156 195.765C105.554 190.915 90.6522 182.09 75.8539 169.533C72.7483 166.872 61.0661 166.655 57.536 169.15C57.4447 169.188 57.3579 169.237 57.2772 169.294C56.7182 169.652 54.2748 169.615 53.7521 169.258C51.9767 167.705 46.5784 165.956 42.158 164.998C38.4934 164.206 31.9145 163.187 28.9848 165.221C26.9765 166.624 18.2702 167.234 15.4493 166.448C14.0198 166.204 12.5726 166.081 11.1224 166.08H-5.95855V168.254H11.1224C12.3807 168.257 13.6368 168.355 14.8801 168.549Z" fill="#D8D1FF"/>
<path d="M14.7613 177.183C17.5771 177.969 27.3029 177.664 30.1186 175.702C31.63 174.667 35.9883 174.698 41.5059 175.832C46.7286 176.908 51.0713 178.528 52.0961 179.419C53.2193 180.392 56.8424 180.5 58.2503 179.657C58.3608 179.613 58.465 179.556 58.5606 179.486C60.9727 177.638 71.8994 177.788 74.151 179.698C100.585 202.131 124.985 209.756 146.657 209.75C176.062 209.75 200.436 195.708 217.999 185.594C224.438 181.877 230.017 178.663 234.521 176.913C237.709 176.965 244.873 178.13 246.213 179.502C252.424 185.687 266.229 189.574 281.731 189.574C282.337 189.574 282.948 189.574 283.564 189.574C296.804 189.315 307.576 186.127 312.457 181.039C312.612 180.97 312.752 180.871 312.871 180.749C314.46 179.093 320.159 178.244 325.847 178.823C330.247 179.274 333.668 180.49 334.563 181.929C337.726 186.981 345.294 189.646 353.839 188.725C357.921 188.327 361.868 187.043 365.402 184.962C369.083 182.726 371.686 179.703 372.944 176.209L370.791 175.433C368.72 181.23 361.96 185.552 353.596 186.453C345.909 187.281 339.201 185.029 336.515 180.718C334.646 177.731 328.606 176.815 326.095 176.577C320.779 176.059 313.983 176.577 311.385 179.046C311.218 179.118 311.069 179.224 310.945 179.357C306.551 184.087 296.302 187.064 283.512 187.317C268.113 187.617 253.765 183.849 247.797 177.933C245.396 175.542 236.094 174.698 234.283 174.698H234.076L233.879 174.776C229.163 176.572 223.449 179.869 216.824 183.684C201.964 192.245 181.627 203.974 157.718 206.857C144.778 208.427 131.651 207.202 119.224 203.265C104.581 198.658 89.9017 190.169 75.5951 178.026C72.5516 175.438 60.7659 175.226 57.2772 177.638C57.1858 177.679 57.099 177.729 57.0184 177.788C56.5008 178.104 54.0888 178.073 53.5453 177.747C50.6778 175.309 33.5968 170.552 28.7882 173.896C26.8679 175.236 18.0997 175.821 15.3305 175.055C13.9003 174.818 12.4529 174.698 11.0031 174.698H-5.99495V176.986H11.0031C12.2588 176.963 13.5149 177.028 14.7613 177.183Z" fill="#D8D1FF"/>
<path d="M14.6471 185.821C17.4007 186.588 27.2614 186.287 29.9892 184.388C33.3744 182.033 49.596 185.987 51.8424 187.933C52.9397 188.88 56.6147 188.994 58.0536 188.182C58.1715 188.136 58.2827 188.075 58.3847 188.001C60.6311 186.277 71.7596 186.422 73.8507 188.197C87.9244 200.138 102.681 208.456 117.713 212.908C126.674 215.561 135.971 216.903 145.317 216.893C149.488 216.893 153.656 216.635 157.796 216.122C182.781 213.016 203.956 201.541 219.417 193.146C225.349 189.921 230.489 187.131 234.516 185.568C237.657 185.62 244.867 186.738 246.125 187.985C253.175 194.999 270.002 197.871 283.564 197.607C296.928 197.343 307.643 194.3 312.332 189.45C312.495 189.381 312.641 189.278 312.762 189.15C314.263 187.597 320.143 186.779 325.868 187.364C330.19 187.804 333.512 188.917 334.335 190.252C337.441 195.164 345.107 197.721 353.932 196.774C358.007 196.38 361.957 195.146 365.532 193.151C369.228 191.003 371.816 188.109 373.016 184.771L370.759 183.963C368.813 189.388 362.105 193.482 353.678 194.393C345.878 195.231 338.927 193.058 336.37 188.984C334.652 186.235 329.206 185.299 326.116 184.983C320.681 184.429 313.792 184.936 311.209 187.328C311.034 187.399 310.877 187.509 310.749 187.649C306.649 192.064 296.214 194.962 283.522 195.211C267.834 195.521 253.501 191.934 247.807 186.287C245.494 183.984 236.125 183.182 234.288 183.182H234.07L233.863 183.259C229.661 184.864 224.381 187.731 218.268 191.023C202.978 199.331 182.036 210.692 157.496 213.731C144.383 215.399 131.065 214.331 118.385 210.594C103.68 206.236 89.2133 198.084 75.3985 186.355C72.4378 183.844 60.5123 183.632 57.0806 185.972C56.9854 186.009 56.8947 186.057 56.8112 186.116C55.6896 186.395 54.5157 186.382 53.4002 186.08C51.7336 184.678 46.304 183.052 41.7698 182.167C38.0379 181.443 31.3761 180.506 28.6432 182.41C26.8574 183.653 17.9133 184.222 15.3098 183.497C14.316 183.223 11.371 183.156 10.988 183.156H-5.92772V185.547H10.988C12.2125 185.558 13.4346 185.65 14.6471 185.821Z" fill="#D8D1FF"/>
<path d="M14.5283 194.455C17.2198 195.206 27.2252 194.916 29.8598 193.078C30.864 192.38 34.4044 192.002 41.0763 193.239C46.7285 194.274 50.8173 195.77 51.5937 196.443C52.6651 197.369 56.3712 197.478 57.8049 196.707C57.9356 196.661 58.0581 196.595 58.1674 196.51C60.3206 194.864 71.5114 194.999 73.5146 196.696C87.1224 208.249 101.708 216.236 116.869 220.439C125.655 222.861 134.728 224.08 143.842 224.062C148.466 224.057 153.085 223.763 157.672 223.182C169.059 221.748 180.659 218.638 193.2 213.669C203.873 209.445 213.335 204.605 220.933 200.728C226.291 197.99 230.929 195.615 234.464 194.243C237.57 194.295 244.847 195.366 245.996 196.51C252.725 203.239 269.723 205.972 283.538 205.703C296.996 205.439 307.674 202.54 312.166 197.939C312.337 197.868 312.49 197.762 312.617 197.628C314.03 196.148 320.096 195.392 325.857 195.982C330.681 196.474 333.456 197.685 334.072 198.663C337.058 203.436 344.885 205.879 354.01 204.874C365.449 203.643 371.344 198.146 373.042 193.399L370.687 192.55C368.477 198.7 360.18 201.691 353.741 202.385C345.687 203.254 338.637 201.215 336.194 197.312C334.553 194.698 329.175 193.782 326.111 193.472C320.552 192.902 313.559 193.368 311.002 195.687C310.807 195.76 310.63 195.875 310.484 196.023C306.618 200.19 296.266 202.939 283.466 203.192C267.741 203.498 253.051 200.019 247.751 194.724C245.396 192.374 235.297 191.722 234.226 191.722H233.993L233.776 191.805C230.09 193.213 225.313 195.656 219.8 198.487C189.21 214.145 132.268 243.286 75.1397 194.802C73.1158 193.083 67.5725 192.887 65.9213 192.871C64.2702 192.856 59.0579 192.913 56.8218 194.424C56.726 194.462 56.6353 194.513 56.5524 194.574C55.4452 194.827 54.2941 194.813 53.1935 194.533C51.5061 193.135 45.9932 191.624 41.5418 190.801C36.9507 189.952 30.9467 189.305 28.4415 191.049C26.7799 192.203 17.6492 192.752 15.2061 192.084C14.2693 191.826 11.2671 191.753 10.8944 191.753H-5.93783V194.258H10.8944C12.1085 194.249 13.3223 194.315 14.5283 194.455Z" fill="#D8D1FF"/>
<path d="M14.404 203.094C16.992 203.808 27.2459 203.497 29.7304 201.769C30.7656 201.06 34.5803 200.842 40.864 201.94C46.5007 202.923 50.6365 204.352 51.3404 204.957C52.3756 205.858 56.0972 205.992 57.5517 205.237C57.698 205.191 57.8344 205.119 57.9551 205.024C59.9478 203.498 71.3351 203.627 73.183 205.2C86.3301 216.36 100.772 224.021 116.103 227.975C124.686 230.161 133.51 231.251 142.366 231.221C147.506 231.215 152.641 230.881 157.739 230.222C184.178 226.831 207.31 215.666 222.621 208.28C227.31 206.018 231.373 204.057 234.417 202.876C237.523 202.933 244.857 203.989 245.866 204.999C252.337 211.438 269.444 214.041 283.533 213.767C297.104 213.498 307.7 210.739 312.001 206.375C312.179 206.301 312.34 206.19 312.472 206.049C313.658 204.812 319.454 203.891 325.878 204.543C330.588 205.024 333.254 206.132 333.808 207.012C335.314 209.424 338.207 211.241 342.162 212.266C346.077 213.197 350.126 213.434 354.124 212.965C361.676 212.152 370.625 208.824 373.079 202.012L370.62 201.127C368.933 205.822 362.338 209.45 353.844 210.366C345.651 211.251 338.316 209.3 336.023 205.625C334.543 203.265 329.812 202.323 326.142 201.945C322.042 201.525 313.719 201.427 310.8 204.015C310.605 204.092 310.428 204.211 310.283 204.362C306.659 208.285 296.374 210.879 283.476 211.132C267.466 211.448 252.761 208.156 247.709 203.125C245.442 200.868 235.256 200.242 234.174 200.242H233.931L233.708 200.325C230.541 201.536 226.342 203.56 221.477 205.91C206.321 213.218 183.417 224.269 157.402 227.608C143.142 229.435 129.452 228.7 116.75 225.423C101.807 221.572 87.7122 214.093 74.8652 203.192C72.9708 201.577 67.7847 201.355 65.6418 201.329C64.0269 201.329 58.7263 201.37 56.5524 202.799C56.4587 202.837 56.3688 202.884 56.2835 202.938C55.1899 203.167 54.0597 203.156 52.9706 202.908C49.9995 200.527 32.3857 196.696 28.2241 199.605C26.6713 200.677 17.3543 201.194 15.0924 200.563C14.1245 200.288 10.8168 200.242 10.7858 200.242H-5.96361V202.861H10.7807C11.992 202.868 13.2018 202.946 14.404 203.094Z" fill="#D8D1FF"/>
<path d="M14.2902 211.733C16.8058 212.431 27.2303 212.121 29.6061 210.454C30.5533 209.797 34.3368 209.6 40.6567 210.641C46.1434 211.546 50.4343 212.897 51.0968 213.472C52.132 214.373 55.8693 214.507 57.3445 213.762C57.4976 213.712 57.6413 213.637 57.7691 213.539C58.3384 213.104 61.0711 212.504 65.3724 212.556C69.6737 212.607 72.3447 213.249 72.8726 213.7C92.2103 230.108 115.057 238.374 140.969 238.374C146.681 238.364 152.387 237.982 158.049 237.23C170.079 235.677 182.465 232.572 195.928 227.742C207.248 223.695 217.217 219.16 224.495 215.837C228.423 214.052 231.834 212.499 234.37 211.515C237.435 211.567 244.723 212.551 245.758 213.487C251.938 219.642 269.195 222.111 283.543 221.826C297.192 221.557 307.721 218.943 311.846 214.818C312.029 214.739 312.194 214.625 312.332 214.481C313.466 213.301 319.516 212.463 325.924 213.12C331.173 213.638 333.207 214.828 333.549 215.371C336.753 220.485 346.267 221.904 354.253 221.039C361.846 220.222 370.781 217.054 373.094 210.61L370.532 209.693C368.979 214.021 362.473 217.416 353.969 218.332C345.625 219.233 338 217.38 335.852 213.927C334.45 211.691 329.827 210.78 326.199 210.408C321.318 209.89 313.305 210.045 310.603 212.369C310.406 212.452 310.229 212.577 310.086 212.737C306.675 216.407 296.489 218.85 283.507 219.103C267.197 219.424 252.451 216.324 247.684 211.557C245.375 209.259 234.226 208.788 234.143 208.788H233.894L233.656 208.881C231.022 209.885 227.486 211.469 223.387 213.358C208.894 219.963 184.603 231.008 157.718 234.523C142.93 236.454 128.924 235.889 116.088 232.846C100.948 229.254 86.9983 222.111 74.6327 211.624C72.0446 209.409 59.6219 209.191 56.33 211.225C56.2353 211.262 56.1452 211.309 56.0611 211.365C54.9755 211.567 53.8606 211.557 52.779 211.334C50.926 209.88 44.3631 208.493 41.097 207.954C36.4386 207.183 30.3667 206.603 28.0426 208.218C26.6348 209.202 17.173 209.704 15.0146 209.109C14.0829 208.845 10.7447 208.798 10.7084 208.798H-5.9535V211.526H10.7084C11.9052 211.53 13.1009 211.599 14.2902 211.733Z" fill="#D8D1FF"/>
<path d="M14.1709 220.367C16.35 220.972 27.0439 220.838 29.4767 219.145C30.3204 218.555 34.0885 218.363 40.3464 219.331C45.8485 220.175 50.1809 221.448 50.8279 221.981C51.8631 222.861 55.5896 222.991 57.0907 222.292C57.2581 222.239 57.4157 222.159 57.5568 222.054C58.0744 221.666 60.8072 221.112 65.0878 221.148C69.3684 221.184 72.0649 221.8 72.536 222.183C90.8281 237.712 113.272 245.527 139.447 245.527C145.896 245.51 152.337 245.067 158.728 244.202C186.979 240.439 211.793 229.771 226.617 223.4C229.681 222.08 232.347 220.936 234.345 220.165C237.316 220.216 244.619 221.148 245.639 221.987C251.529 227.851 268.931 230.191 283.584 229.901C297.306 229.626 307.757 227.158 311.696 223.275C311.891 223.195 312.067 223.076 312.213 222.924C313.275 221.816 319.532 221.039 326.012 221.702C330.728 222.183 332.959 223.187 333.306 223.772C336.411 228.731 346.184 230.046 354.486 229.15C362.1 228.327 371.008 225.299 373.177 219.248L370.511 218.291C369.088 222.261 362.675 225.418 354.186 226.335C345.537 227.266 337.767 225.558 335.707 222.266C334.641 220.568 331.479 219.44 326.302 218.912C321.302 218.394 313.145 218.493 310.438 220.739C310.221 220.821 310.026 220.952 309.869 221.122C306.69 224.549 296.597 226.816 283.533 227.09C267.187 227.416 252.088 224.435 247.642 220.004C245.427 217.804 234.184 217.354 234.091 217.354H233.832L233.589 217.447C231.519 218.239 228.729 219.435 225.504 220.822C210.814 227.137 186.223 237.706 158.355 241.418C124.633 245.91 96.3721 238.721 74.3739 220.051C71.8531 217.913 59.2957 217.696 56.0762 219.652C55.9855 219.686 55.8987 219.729 55.8174 219.782C54.739 219.965 53.6364 219.955 52.5617 219.751C50.75 218.379 44.4043 217.1 40.869 216.552C36.1588 215.822 30.0717 215.279 27.846 216.831C26.4744 217.758 16.9453 218.213 14.9059 217.649C13.9949 217.396 10.6359 217.354 10.6048 217.354H-5.95855V220.185H10.6048C11.4796 220.175 13.7568 220.273 14.1709 220.367Z" fill="#D8D1FF"/>
<path d="M14.0572 229.005C16.0345 229.554 27.0386 229.44 29.3523 227.836C29.9942 227.385 33.3793 227.064 40.0719 228.022C45.8018 228.84 49.9427 230.009 50.5949 230.496C51.6301 231.397 55.2947 231.433 56.8061 230.838C57.0105 230.787 57.2024 230.696 57.3702 230.569C57.8878 230.217 60.5849 229.709 64.8189 229.745C69.0529 229.782 71.7548 230.341 72.2362 230.703C89.4828 245.341 111.522 252.706 137.972 252.706C145.328 252.688 152.674 252.17 159.96 251.154C189.339 247.147 216.171 236.216 229.065 230.967C231.135 230.129 232.937 229.414 234.35 228.845C237.041 228.902 244.427 229.72 245.587 230.543C251.208 236.107 268.761 238.307 283.678 238.006C290.345 237.877 306.224 237.002 311.582 231.764C311.778 231.682 311.954 231.558 312.099 231.402C312.933 230.532 318.574 229.652 325.51 230.263C330.982 230.744 332.85 231.816 333.073 232.152C336.085 236.961 346.137 238.172 354.755 237.24C364.59 236.205 371.52 232.675 373.244 227.872L370.475 226.878C369.181 230.501 362.887 233.405 354.429 234.316C345.599 235.268 337.483 233.669 335.557 230.594C334.553 228.99 331.484 227.913 326.427 227.396C322.861 227.033 313.269 226.666 310.262 229.093C310.034 229.177 309.831 229.313 309.667 229.492C306.758 232.598 296.525 234.808 283.595 235.066C266.933 235.393 251.798 232.608 247.616 228.436C245.499 226.329 234.158 225.9 234.06 225.9H233.786L233.532 225.998C232.057 226.562 230.142 227.344 227.926 228.244C214.168 233.85 188.547 244.29 159.535 248.245C124.033 253.089 95.3003 246.438 74.1302 228.472C72.4998 227.09 67.6242 226.842 64.8654 226.821C62.7588 226.821 57.8154 226.888 55.8381 228.068C55.7511 228.103 55.6663 228.142 55.5844 228.187C54.515 228.363 53.4244 228.363 52.3549 228.187C50.1033 226.557 41.0451 225.227 40.6517 225.17C35.9001 224.482 29.7822 223.969 27.66 225.449C26.278 226.303 16.7178 226.733 14.8286 226.205C13.9538 225.962 10.5631 225.92 10.532 225.92H-5.96361V228.866H10.532C11.2981 228.829 13.6431 228.917 14.0572 229.005ZM57.2408 230.61C57.1206 230.703 56.9862 230.777 56.8425 230.827C56.9836 230.771 57.1172 230.698 57.2408 230.61Z" fill="#D8D1FF"/>
<path d="M13.9692 237.649C15.9931 238.167 27.0179 238.053 29.2229 236.521C29.8492 236.117 33.1982 235.838 39.8546 236.723C45.5482 237.479 49.6893 238.56 50.3674 239.026C50.6262 239.249 51.2366 239.715 53.7055 239.741C55.4861 239.741 56.2939 239.528 56.7131 239.326C56.8766 239.274 57.0303 239.195 57.1685 239.094C58.8559 238.027 70.3209 238.126 71.9203 239.202C88.1317 252.96 109.757 259.881 136.429 259.875C145.014 259.839 153.586 259.201 162.082 257.965C192.869 253.602 220.188 242.955 231.85 238.436L234.303 237.484C236.969 237.536 244.267 238.286 245.478 239.037C250.815 244.27 269.035 246.34 283.75 246.05C290.432 245.921 306.313 245.082 311.416 240.196C311.625 240.112 311.813 239.985 311.97 239.823C312.731 239.099 317.752 238.328 324.206 238.716C329.693 239.052 332.416 239.999 332.83 240.501C335.728 245.129 346.386 246.231 355.087 245.294C358.762 244.896 370.936 243.089 373.317 236.454L370.444 235.419C369.279 238.669 363.119 241.356 354.76 242.256C345.723 243.229 337.234 241.739 335.433 238.876C335.081 238.312 334.009 236.599 326.634 235.843C323.217 235.496 313.176 235.077 310.148 237.396C309.904 237.481 309.684 237.623 309.506 237.81C306.83 240.698 296.711 242.727 283.729 242.986C267.011 243.317 251.493 240.662 247.632 236.821C245.613 234.808 234.174 234.399 234.07 234.399H233.791L233.527 234.497C232.75 234.792 231.834 235.149 230.784 235.558C219.22 240.061 192.134 250.6 161.693 254.912C123.908 260.264 94.3737 254.187 73.9387 236.842C72.3858 235.517 67.4583 235.289 64.6632 235.258C62.0338 235.258 57.505 235.367 55.6572 236.438C55.5736 236.469 55.4925 236.505 55.4141 236.547C54.3469 236.707 53.2614 236.707 52.1942 236.547C50.0099 235.041 41.4797 233.85 40.4859 233.716C33.5189 232.774 29.1555 232.872 27.5458 233.995C26.1379 234.787 16.526 235.175 14.7972 234.694C13.9587 234.461 10.5374 234.425 10.5012 234.425H-5.90699V237.479H10.5012C11.1793 237.484 13.4982 237.541 13.9692 237.649Z" fill="#D8D1FF"/>
<path d="M13.8863 246.288C15.8067 246.774 26.966 246.707 29.0986 245.222C31.2208 244.016 47.9605 246.226 50.1551 247.556C50.4346 247.789 51.0451 248.219 53.5089 248.239C55.2636 248.239 56.097 248.048 56.5059 247.856C56.6772 247.803 56.8381 247.72 56.982 247.613C57.4996 247.323 60.2223 246.904 64.3321 246.935C68.4419 246.966 71.1026 247.416 71.6564 247.727C82.8678 257.235 97.6143 263.296 115.482 265.755C121.981 266.622 128.532 267.045 135.089 267.023C145.201 266.973 155.295 266.182 165.291 264.658C187.03 261.449 210.897 255.046 234.293 246.138C236.881 246.19 244.164 246.893 245.411 247.582C250.504 252.509 268.885 254.44 283.88 254.145C290.572 254.011 306.4 253.213 311.281 248.674C311.494 248.592 311.687 248.465 311.846 248.301C312.488 247.784 316.266 247.059 322.327 247.23C328.389 247.401 332.012 248.338 332.627 248.928C335.469 253.379 346.442 254.363 355.464 253.39C360.123 252.872 371.22 251.071 373.368 245.108L370.392 244.042C369.357 246.888 363.233 249.394 355.123 250.253C345.857 251.252 336.955 249.89 335.283 247.22C334.915 246.635 333.942 245.082 326.799 244.352C323.285 243.995 313.021 243.534 309.956 245.775C309.699 245.865 309.467 246.014 309.279 246.21C306.825 248.855 296.856 250.729 283.817 250.988C266.762 251.324 251.208 248.871 247.585 245.294C245.623 243.343 234.127 242.986 234.014 242.986H233.723L233.449 243.094C210.157 251.976 186.451 258.358 164.835 261.547C146.642 264.233 130.187 264.601 115.922 262.639C98.6389 260.263 84.4255 254.43 73.6748 245.31C72.2566 244.104 67.8415 243.819 64.3943 243.788C61.7597 243.788 57.2514 243.891 55.4191 244.89C55.3339 244.919 55.2506 244.953 55.1704 244.994C54.1058 245.141 53.0258 245.141 51.9612 244.994C49.8338 243.612 41.8838 242.556 40.2534 242.349C33.2761 241.469 28.933 241.567 27.3491 242.628C25.8843 243.348 16.293 243.71 14.6936 243.265C13.881 243.043 10.4389 243.006 10.4026 243.006H-5.92216V246.169H10.4026C11.0703 246.133 13.3998 246.21 13.8863 246.288Z" fill="#D8D1FF"/>
<path d="M13.762 254.927C15.6978 255.398 26.8213 255.326 28.9383 253.892C29.6164 253.566 32.9702 253.374 39.5179 254.114C45.0822 254.751 49.1454 255.667 49.9115 256.061C50.2065 256.309 50.8279 256.697 53.2658 256.718C55.0878 256.718 55.8847 256.537 56.2936 256.345C56.4516 256.292 56.6017 256.217 56.7389 256.123C58.5298 255.232 69.5651 255.315 71.3405 256.221C81.7754 265.057 96.1131 270.714 113.955 272.981C120.48 273.791 127.049 274.185 133.624 274.161C143.874 274.109 154.109 273.374 164.261 271.961C194.422 267.909 223.025 259.021 234.241 254.767C236.612 254.818 243.957 255.429 245.313 256.086C250.168 260.709 268.719 262.494 284.009 262.194C290.696 262.06 306.452 261.299 311.105 257.111C311.322 257.028 311.52 256.902 311.685 256.739C312.384 256.257 316.147 255.621 322.105 255.776C328.062 255.931 331.681 256.764 332.379 257.329C335.594 262.246 349.15 262.179 355.894 261.47C360.501 260.978 371.422 259.228 373.4 253.705L370.32 252.598C369.424 255.103 363.482 257.36 355.547 258.214C345.195 259.332 336.463 257.696 335.107 255.533C334.522 254.601 333.073 253.462 327.007 252.831C324.056 252.531 312.985 251.93 309.781 254.114C309.501 254.201 309.249 254.36 309.051 254.575C307.224 256.542 298.755 258.659 283.947 258.949C266.814 259.285 250.82 256.982 247.528 253.705C247.01 253.188 245.975 252.546 240.499 251.971C237.616 251.666 234.743 251.516 233.951 251.516H233.646L233.367 251.625C233.051 251.744 201.477 263.685 163.821 268.747C145.249 271.242 128.624 271.584 114.369 269.782C97.1379 267.577 83.3543 262.173 73.4059 253.737C72.3137 252.81 69.1874 252.323 64.089 252.287C60.8798 252.287 56.8425 252.432 55.1396 253.322C55.0621 253.35 54.9859 253.381 54.9116 253.416C53.8411 253.553 52.7577 253.553 51.6872 253.416C49.6168 252.163 42.2821 251.226 39.984 250.957C32.9859 250.144 28.6639 250.237 27.1318 251.231C25.6877 251.863 16.0757 252.21 14.5591 251.816C13.7672 251.599 10.3095 251.573 10.2732 251.573H-5.96917V254.844H10.2732C10.8943 254.787 13.2703 254.855 13.762 254.927Z" fill="#D8D1FF"/>
<path d="M13.6584 263.566C15.2474 263.959 20.5014 263.768 21.107 263.742C27.2872 263.504 28.3533 262.908 28.7933 262.618C29.4972 262.334 32.8514 262.158 39.337 262.846C44.9323 263.436 48.8816 264.244 49.6891 264.622C50.0151 264.886 50.626 265.227 53.0484 265.243C54.829 265.243 55.6362 265.082 56.0555 264.901C56.2187 264.849 56.3741 264.774 56.5165 264.679C58.3178 263.887 69.2237 263.959 71.0509 264.772C80.7146 272.94 94.6381 278.147 112.459 280.258C119.011 281.007 125.601 281.369 132.196 281.345C142.579 281.296 152.95 280.62 163.252 279.322C198.097 275.077 227.906 265.781 234.21 263.441C236.576 263.493 243.832 264.047 245.24 264.648C250.572 269.611 272.999 270.517 284.206 270.295C292.487 270.134 306.685 269.301 310.95 265.6C311.168 265.52 311.367 265.397 311.535 265.238C312.27 264.803 316.028 264.239 321.887 264.378C327.746 264.518 331.38 265.263 332.146 265.766C335.112 270.134 348.249 270.424 356.427 269.539C362.023 268.933 371.681 267.194 373.43 262.292L370.252 261.154C369.626 262.893 364.921 265.196 356.065 266.154C351.447 266.666 346.787 266.677 342.167 266.185C337.566 265.626 335.392 264.565 334.921 263.825C334.341 262.903 332.974 261.878 327.234 261.293C324.387 261.004 312.886 260.362 309.599 262.427C309.298 262.517 309.027 262.685 308.813 262.914C307.172 264.684 298.895 266.599 284.102 266.889C266.886 267.225 250.458 265.082 247.461 262.106C246.891 261.537 245.908 260.988 240.39 260.455C237.533 260.175 234.629 260.03 233.879 260.03H233.568L233.273 260.144C227.766 262.246 197.916 271.666 162.807 275.936C143.857 278.245 127.035 278.561 112.811 276.873C95.6318 274.839 82.2724 269.87 73.1264 262.101C72.0911 261.216 68.9545 260.755 63.8095 260.719C59.2235 260.688 56.242 261.009 54.9066 261.666C54.8271 261.69 54.7492 261.72 54.6735 261.754C53.5972 261.881 52.5098 261.881 51.4334 261.754C49.42 260.626 42.6808 259.803 39.7408 259.487C29.4612 258.39 27.5514 259.347 26.9458 259.756C25.4447 260.325 15.9412 260.641 14.4505 260.274C13.6844 260.061 10.2012 260.036 10.1701 260.036H-5.98989V263.421H10.1701C10.8068 263.421 13.1511 263.498 13.6584 263.566Z" fill="#D8D1FF"/>
<path d="M13.5603 272.22C15.1131 272.577 20.3564 272.401 20.962 272.381C27.0852 272.163 28.2086 271.635 28.633 271.345C29.3732 271.087 32.717 270.942 39.156 271.563C44.7254 272.106 48.6592 272.836 49.5081 273.183C49.9222 273.488 50.6156 273.747 52.8569 273.763C54.596 273.763 55.4035 273.623 55.8331 273.447C56.0035 273.401 56.1657 273.33 56.3143 273.235C58.1621 272.52 68.9128 272.588 70.8072 273.312C79.7049 280.807 93.2196 285.59 110.984 287.526C117.56 288.216 124.17 288.55 130.782 288.525C141.307 288.475 151.821 287.855 162.279 286.666C195.592 283.017 226.369 275.005 234.226 272.112C236.55 272.158 243.775 272.676 245.214 273.204C250.328 277.81 273.067 278.613 284.501 278.38C292.71 278.219 306.758 277.438 310.826 274.078C311.043 274.002 311.244 273.884 311.416 273.732C312.193 273.338 315.94 272.836 321.768 272.965C327.597 273.095 331.184 273.752 332.012 274.208C335.324 278.866 351.23 278.255 357.152 277.619C363.803 276.899 372.043 275.16 373.555 270.947L370.273 269.767C369.756 271.232 365.299 273.229 356.779 274.146C351.965 274.676 347.11 274.723 342.286 274.285C337.11 273.768 335.164 272.676 334.853 272.179C334.289 271.278 333.021 270.362 327.633 269.813C324.039 269.471 320.427 269.373 316.82 269.518C311.861 269.73 310.163 270.346 309.444 270.833C309.157 270.927 308.898 271.093 308.693 271.314C307.28 272.836 299.092 274.601 284.439 274.891C276.55 275.064 268.658 274.739 260.81 273.918C250.396 272.722 248.004 271.056 247.518 270.569C246.943 270 246.017 269.487 240.401 269.016C237.569 268.768 234.635 268.633 233.926 268.633H233.605L233.304 268.747C226.353 271.402 194.914 279.617 161.911 283.214C131.989 286.491 92.2723 286.956 72.9656 270.574C72.5619 270.227 71.4749 269.311 63.6487 269.265C61.8992 269.265 56.8836 269.223 54.8494 270.119C54.7577 270.144 54.668 270.175 54.5805 270.212C53.4932 270.328 52.3964 270.328 51.3091 270.212C49.3526 269.208 43.276 268.488 39.6372 268.142C29.43 267.143 27.5462 267.976 26.9043 268.395C25.2532 268.954 15.7603 269.156 14.4818 268.882C13.7468 268.675 10.2372 268.659 10.2009 268.659H-5.84482V272.148H10.2009C10.703 272.091 13.0582 272.148 13.5603 272.22ZM54.5755 270.191C54.4654 270.246 54.361 270.312 54.2646 270.388C54.3607 270.308 54.465 270.239 54.5755 270.181V270.191ZM51.6351 270.429C51.5496 270.359 51.4582 270.296 51.3612 270.243C51.4583 270.292 51.5499 270.351 51.6351 270.419V270.429Z" fill="#D8D1FF"/>
<path d="M13.4673 280.848C14.9166 281.169 19.8287 281.03 20.8225 280.998C26.8991 280.802 27.9909 280.352 28.4723 280.041C30.8533 279.296 46.9562 280.812 49.2751 281.708C49.6995 282.013 50.3876 282.225 52.6082 282.251C54.3628 282.251 55.1603 282.122 55.59 281.956C55.75 281.911 55.9032 281.845 56.0454 281.759C57.9036 281.123 68.5402 281.18 70.4812 281.827C78.6128 288.649 91.7031 293.002 109.426 294.767C115.523 295.372 122.159 295.673 129.297 295.673C139.033 295.673 149.706 295.108 161.217 293.985C194.618 290.719 226.906 283.359 234.137 280.755C236.275 280.802 243.569 281.242 245.101 281.739C250.028 285.978 273.093 286.677 284.77 286.449C294.661 286.252 306.939 285.414 310.603 282.541C310.817 282.468 311.015 282.358 311.188 282.215C311.996 281.863 315.733 281.418 321.54 281.532C327.348 281.646 330.899 282.236 331.774 282.644C335.143 287.044 352.121 286.299 357.913 285.672C367.204 284.673 372.473 282.613 373.57 279.56L370.185 278.343C369.978 278.907 367.804 280.626 360.283 281.744C354.835 282.515 349.324 282.751 343.829 282.448C337.198 282.044 334.957 280.895 334.656 280.496C334.051 279.523 332.674 278.778 327.928 278.291C324.239 277.95 320.533 277.84 316.83 277.96C311.711 278.141 309.972 278.7 309.227 279.177C308.919 279.275 308.644 279.454 308.429 279.694C307.394 280.807 300.236 282.567 284.708 282.872C265.116 283.255 249.614 281.185 247.44 279.011C246.871 278.442 245.98 277.976 240.281 277.52C237.549 277.303 234.562 277.168 233.843 277.168H233.511L233.201 277.287C228.025 279.254 196.508 286.941 160.886 290.424C130.311 293.411 90.1968 293.856 72.681 278.985C72.2566 278.628 71.2628 277.784 63.3641 277.743C57.303 277.712 55.2845 278.188 54.4926 278.545L54.3268 278.607C53.2507 278.705 52.1679 278.705 51.0917 278.607C50.5741 278.307 49.539 277.996 46.7957 277.572C44.6994 277.246 42.065 276.94 39.3683 276.702C29.2595 275.812 27.3698 276.526 26.7021 276.946C25.0096 277.463 15.6306 277.629 14.2796 277.375C12.8731 277.229 11.4598 277.162 10.0458 277.173H-5.94288V280.797H10.0458C10.5323 280.745 12.9497 280.791 13.4673 280.848Z" fill="#D8D1FF"/>
<path d="M13.3687 289.493C14.787 289.777 19.6678 289.653 20.6668 289.627C26.6399 289.456 27.7995 289.058 28.2964 288.752C30.7395 288.095 46.7025 289.451 49.0628 290.259C49.4976 290.543 50.2016 290.74 52.3807 290.776C53.3594 290.844 54.3425 290.758 55.2948 290.523C55.4762 290.486 55.6508 290.421 55.8124 290.331C57.7068 289.762 68.204 289.814 70.2123 290.388C81.3719 299.705 103.494 302.842 128.013 302.842C172.998 302.842 226.032 292.215 234.122 289.425C236.244 289.467 243.439 289.86 245.044 290.3C245.96 291.118 248.61 292.728 260.318 293.784C268.595 294.467 276.901 294.721 285.204 294.544C290.622 294.478 296.034 294.132 301.416 293.509C307.203 292.769 309.418 291.837 310.474 291.02C310.672 290.953 310.858 290.853 311.023 290.725C311.877 290.404 315.531 290.021 321.375 290.124C327.068 290.223 330.63 290.735 331.592 291.102C332.244 291.967 334.149 293.54 342.302 294.11C347.823 294.448 353.364 294.327 358.865 293.747C372.152 292.314 373.265 289.213 373.632 288.188L370.149 286.92C369.916 287.37 367.84 288.747 361.137 289.72C355.564 290.484 349.935 290.749 344.315 290.512C337.405 290.202 334.9 289.177 334.481 288.789C333.875 287.857 332.648 287.236 328.337 286.791C324.551 286.445 320.749 286.326 316.949 286.434C311.685 286.573 309.879 287.075 309.097 287.531C308.773 287.625 308.48 287.804 308.248 288.049C306.949 289.317 296.675 291.03 277.891 290.859C259.107 290.688 248.75 288.752 247.419 287.427C246.902 286.91 246.446 286.459 240.209 286.019C237.336 285.812 234.386 285.704 233.817 285.704H233.47L233.154 285.828C228.387 287.645 195.799 294.529 159.913 297.629C103.344 302.516 81.1233 294.762 72.4379 287.396C72.0031 287.024 71.1025 286.258 63.121 286.221C57.1944 286.19 55.1551 286.594 54.3217 286.936L54.1352 286.998C53.0328 287.088 51.9252 287.088 50.8228 286.998C49.917 286.584 47.3754 285.963 39.161 285.295C29.1816 284.508 27.2561 285.103 26.5677 285.517C24.8285 285.968 15.4911 286.128 14.2023 285.9H14.2695C13.5863 285.709 10.0405 285.704 10.0043 285.704H-5.90194V289.415H10.0043C10.4339 289.399 12.877 289.441 13.3687 289.493Z" fill="#D8D1FF"/>
<path d="M13.2965 298.136C14.6526 298.38 19.135 298.287 20.5429 298.255C26.4178 298.105 27.6082 297.774 28.1362 297.469C30.6517 296.889 46.4645 298.085 48.8869 298.809C49.3268 299.084 50.0409 299.244 52.1735 299.254C53.1401 299.312 54.1103 299.237 55.0567 299.032C55.2256 298.994 55.3893 298.935 55.5435 298.856C57.3861 298.369 67.8882 298.411 69.9328 298.897C76.5685 304.374 88.8409 307.857 106.424 309.249C112.485 309.731 119.162 309.974 126.414 309.974C136.305 309.974 147.263 309.524 159.194 308.623C194.391 305.968 228.035 300.041 234.07 298.038C236.141 298.074 243.33 298.426 244.971 298.809C245.908 299.581 248.651 301.014 260.349 301.915C267.741 302.495 276.99 302.728 285.712 302.557C291.923 302.438 297.425 302.117 301.576 301.63C307.099 300.988 309.237 300.186 310.272 299.436C310.457 299.373 310.631 299.285 310.79 299.172C313.337 298.276 328.596 298.53 331.344 299.498C332.048 300.367 334.066 301.76 342.576 302.22C348.373 302.505 354.184 302.346 359.957 301.744C370.925 300.564 373.032 298.457 373.643 296.754L370.05 295.466C370.064 295.426 370.081 295.388 370.102 295.352C370.102 295.352 368.787 296.941 359.647 297.94C347.887 299.218 335.966 298.287 334.248 296.993C333.663 296.149 332.539 295.61 328.73 295.222C324.844 294.876 320.943 294.746 317.043 294.834C311.546 294.948 309.693 295.388 308.89 295.828C308.559 295.919 308.259 296.098 308.021 296.346C306.602 297.448 296.266 298.934 277.648 298.783C258.952 298.633 248.662 296.951 247.347 295.812C246.762 295.233 246.1 294.855 240.101 294.477C237.337 294.306 234.329 294.203 233.744 294.203H233.392L233.061 294.327C228.33 296.133 194.531 302.091 158.899 304.803C138.417 306.356 120.86 306.558 106.714 305.424C89.7465 304.068 78.1209 300.818 72.1685 295.766C71.6923 295.362 70.9055 294.694 62.8101 294.658C56.8732 294.658 54.8652 294.979 54.0422 295.3L53.8815 295.346C52.765 295.429 51.6441 295.429 50.5276 295.346C49.5752 294.953 47.0131 294.399 38.8815 293.83C29.0833 293.147 27.1006 293.638 26.3812 294.037C24.7145 294.399 15.4134 294.596 14.0314 294.373H14.1295C13.4877 294.197 10.2374 294.192 9.86985 294.192H-5.9535V298.007H9.86985C10.3512 298.048 12.8203 298.1 13.2965 298.136ZM13.2965 298.136C13.237 298.129 13.1778 298.116 13.1201 298.1L13.2965 298.136Z" fill="#D8D1FF"/>
<path d="M13.2343 306.781C13.1534 306.771 13.0737 306.754 12.9962 306.729C13.0741 306.752 13.1537 306.77 13.2343 306.781C14.5387 306.982 18.6122 306.92 20.3928 306.879C26.133 306.755 27.3959 306.48 27.9446 306.19C30.4446 305.709 46.3192 306.749 48.7054 307.365C49.1764 307.629 49.922 307.748 51.951 307.754C52.9008 307.807 53.8533 307.743 54.7873 307.562C54.9572 307.529 55.1225 307.475 55.2791 307.402C57.158 306.977 67.5309 307.008 69.6583 307.438C75.6366 312.303 87.1742 315.269 104.913 316.517C110.962 316.941 117.645 317.153 124.964 317.153C134.928 317.153 146.031 316.755 158.174 315.968C193.267 313.691 227.957 308.649 234.024 306.708C235.965 306.744 243.196 307.034 244.919 307.376C245.887 308.121 248.687 309.353 260.447 310.14C268.066 310.657 277.528 310.833 286.41 310.657C304.294 310.305 308.698 308.861 310.096 307.935C310.278 307.883 310.452 307.806 310.614 307.707C313.202 306.92 328.337 307.143 331.194 307.987C331.965 308.841 334.165 310.057 343.052 310.409C349.147 310.637 355.251 310.442 361.319 309.824C371.231 308.758 373.151 306.988 373.741 305.404L370.045 304.074C370.077 303.981 370.124 303.896 370.185 303.82C369.285 304.721 363.125 306.144 352.261 306.501C341.795 306.843 335.319 305.983 334.077 305.254C333.424 304.4 332.213 304.032 329.242 303.732C325.261 303.388 321.265 303.251 317.27 303.323C311.67 303.406 309.698 303.778 308.828 304.187C308.478 304.271 308.157 304.45 307.902 304.705C306.375 305.657 296.049 306.92 277.596 306.775C259.143 306.63 248.776 305.223 247.326 304.224C246.778 303.706 246.322 303.349 240.054 303.007C237.171 302.852 234.2 302.764 233.739 302.764H233.377L233.041 302.893C229.573 304.218 195.348 309.622 157.951 312.039C111.967 315.021 81.4237 312.241 71.9567 304.203C71.4391 303.778 70.771 303.194 62.5928 303.168C56.7801 303.168 54.7565 303.427 53.8921 303.727L53.7263 303.773C52.5921 303.846 51.4545 303.846 50.3204 303.773C49.3369 303.401 46.7749 302.94 38.6899 302.448C29.0521 301.863 27.0387 302.246 26.2674 302.629C24.5541 302.95 15.3098 303.147 13.9278 302.919L14.0623 302.95C12.6473 302.804 11.2248 302.747 9.80263 302.78H-5.93277V306.708H9.80263C10.1908 306.703 12.7891 306.739 13.2343 306.781Z" fill="#D8D1FF"/>
<path d="M13.1564 315.425C13.1564 315.425 13.0322 315.425 12.8769 315.368C13.6533 315.585 17.3129 315.564 20.2477 315.507C25.8638 315.404 27.1733 315.186 27.753 314.912C30.341 314.493 46.1125 315.383 48.5401 315.921C49.0577 316.175 49.8083 316.253 51.7286 316.258C52.6724 316.309 53.6185 316.251 54.5492 316.087C54.6991 316.063 54.8457 316.02 54.9844 315.958C56.7857 315.595 67.2048 315.626 69.3995 315.984C74.6532 320.155 85.792 322.712 103.411 323.748C109.441 324.11 116.16 324.265 123.52 324.265C133.562 324.265 144.809 323.929 157.164 323.23C193.257 321.258 228.403 316.915 233.977 315.29C235.898 315.321 243.108 315.569 244.883 315.865C245.893 316.584 248.724 317.604 260.706 318.261C268.501 318.685 278.47 318.836 287.384 318.66C304.33 318.328 308.549 317.184 309.931 316.341C310.088 316.294 310.239 316.23 310.381 316.149C312.912 315.492 328.109 315.683 331.028 316.387C331.877 317.221 334.253 318.235 343.642 318.494C350.055 318.662 356.472 318.432 362.856 317.806C372.002 316.822 373.28 315.3 373.767 313.949L369.968 312.588C370.017 312.423 370.11 312.275 370.237 312.158C369.336 312.878 363.601 314.131 352.063 314.446C341.639 314.731 335.143 314.006 333.808 313.411C333.114 312.624 331.908 312.376 329.693 312.148C326.804 311.853 322.001 311.687 317.462 311.729C311.675 311.786 309.599 312.096 308.662 312.474C308.311 312.544 307.984 312.707 307.715 312.945C305.847 313.887 294.108 314.798 277.446 314.705C260.122 314.607 248.977 313.53 247.197 312.562C246.638 312.045 246.1 311.76 239.925 311.475C237.083 311.341 234.086 311.268 233.651 311.268H233.279L232.932 311.398C229.686 312.64 193.682 317.205 156.921 319.213C93.6182 322.676 76.3355 316.543 71.6615 312.578C71.1439 312.117 70.5536 311.636 62.2875 311.61C56.4075 311.61 54.4354 311.822 53.5969 312.096L53.4933 312.122C52.3314 312.192 51.1668 312.192 50.005 312.122C48.9698 311.781 46.3814 311.403 38.4155 310.989C28.9951 310.502 26.9042 310.792 26.1122 311.149C24.311 311.444 14.9006 311.542 13.7671 311.398C13.8127 311.402 13.8581 311.41 13.902 311.423C13.7105 311.377 13.0787 311.279 9.68839 311.279H-5.96361V315.316H9.68839C10.0973 315.357 12.7527 315.388 13.1564 315.425Z" fill="#D8D1FF"/>
<path d="M13.0791 324.063L12.8719 324.032C13.2238 324.1 14.4247 324.224 20.1183 324.136C25.5532 324.053 26.9456 323.887 27.5564 323.618C30.0926 323.272 45.9932 324.017 48.4001 324.462C48.9177 324.685 49.6941 324.736 51.5057 324.741C52.4155 324.78 53.3272 324.735 54.2287 324.607C54.392 324.588 54.552 324.548 54.7049 324.488C56.5061 324.193 66.8944 324.214 69.1356 324.488C75.2382 329.146 92.8468 331.455 121.641 331.455C131.759 331.455 143.257 331.167 156.135 330.59C191.503 329.007 228.315 325.456 233.915 323.975C235.799 324.001 243.056 324.214 244.847 324.452C245.913 325.124 248.884 325.948 261.11 326.476C269.299 326.833 279.604 326.936 288.683 326.76C304.092 326.455 308.243 325.596 309.677 324.855C309.837 324.82 309.992 324.764 310.137 324.69C312.637 324.172 327.933 324.312 330.878 324.886C331.836 325.678 334.475 326.496 344.403 326.662C351.141 326.788 357.881 326.533 364.59 325.896C371.608 325.14 373.239 324.157 373.798 322.599L369.895 321.196C369.975 320.953 370.125 320.739 370.325 320.58C369.393 321.175 363.559 322.226 351.893 322.49C341.458 322.723 334.936 322.128 333.518 321.625C332.881 321.004 331.882 320.797 330.153 320.621C327.467 320.347 322.581 320.187 317.731 320.207C311.768 320.238 309.573 320.476 308.585 320.823C308.233 320.878 307.902 321.022 307.622 321.242C305.655 322.024 293.957 322.769 277.363 322.692C260.132 322.609 249.034 321.734 247.114 320.937C246.555 320.42 245.867 320.228 239.867 320C237.005 319.886 234.008 319.824 233.656 319.824H233.279L232.921 319.959C230.033 320.994 193.863 324.762 155.715 326.46C108.717 328.53 78.0023 326.569 71.4598 321.01C70.8801 320.523 70.4243 320.135 62.0701 320.109C56.4903 320.109 54.4458 320.259 53.5296 320.502L53.3537 320.539C52.6964 320.596 50.4447 320.59 49.777 320.539C48.7056 320.228 46.0712 319.933 38.2295 319.597C29.1403 319.203 26.909 319.41 26.0602 319.726C24.378 319.954 14.9163 320.073 13.674 319.938H13.7312C12.373 319.826 11.0092 319.79 9.64694 319.829H-5.92216V323.97H9.64694C10.03 324.007 12.6857 324.032 13.0791 324.063Z" fill="#D8D1FF"/>
<path d="M13.0063 332.707C12.9245 332.701 12.8434 332.689 12.7632 332.671C13.1255 332.738 14.2591 332.832 19.9632 332.764C25.2375 332.697 26.6919 332.594 27.3234 332.366C29.9114 332.081 45.957 332.702 48.25 333.044C48.7676 333.235 49.5646 333.256 51.2934 333.261C52.1763 333.297 53.0608 333.264 53.9386 333.163C54.0965 333.145 54.2527 333.112 54.4046 333.065C56.1386 332.826 66.5683 332.842 68.8976 333.065C71.4856 334.943 77.9503 337.35 100.414 338.241C106.415 338.479 113.156 338.599 120.637 338.603C130.829 338.603 142.377 338.375 155.13 337.925C191.72 336.636 228.392 333.825 233.806 332.63C235.499 332.63 243.02 332.816 244.842 333.018C246.001 333.624 249.247 334.26 261.793 334.664C270.593 334.943 281.312 335.006 290.546 334.824C304.18 334.555 308.036 333.965 309.444 333.339C309.586 333.309 309.724 333.265 309.858 333.21C312.358 332.749 327.746 332.883 330.754 333.365C331.841 334.095 334.802 334.71 345.361 334.793C352.415 334.882 359.468 334.613 366.495 333.986C371.562 333.437 373.28 332.795 373.844 331.222L369.838 329.783C369.948 329.444 370.171 329.154 370.47 328.96C369.528 329.447 363.611 330.295 351.753 330.513C341.204 330.699 334.641 330.223 333.192 329.819C332.503 329.271 331.54 329.172 330.604 329.079C327.684 328.779 322.001 328.686 318.021 328.691C311.81 328.691 309.496 328.867 308.455 329.177C308.119 329.219 307.799 329.339 307.519 329.529C305.552 330.14 294.459 330.735 277.223 330.678C260.064 330.611 248.998 329.928 246.959 329.296C246.389 328.825 245.53 328.696 239.754 328.52C236.803 328.432 233.838 328.385 233.542 328.385H233.149L232.818 328.51C229.94 329.333 193.371 332.35 154.225 333.686C86.5373 336.036 73.5716 331.486 71.1388 329.426C70.5022 328.908 70.1812 328.608 61.739 328.592C56.3145 328.592 54.2493 328.691 53.3072 328.898C53.2373 328.904 53.1678 328.916 53.1 328.934C52.4375 328.981 50.0409 328.976 49.4146 328.934C48.2966 328.655 45.6208 328.448 37.9292 328.184C29.1299 327.878 26.8056 328.002 25.905 328.282C24.2642 328.468 14.6574 328.566 13.4825 328.453H13.6225C12.2454 328.337 10.8627 328.304 9.48165 328.354H-6V332.609H9.48165C9.86985 332.661 12.6181 332.682 13.0063 332.707Z" fill="#D8D1FF"/>
<path d="M12.934 341.346C12.8379 341.342 12.7426 341.328 12.6495 341.305C12.9963 341.377 14.0054 341.444 19.8181 341.387C24.8389 341.341 26.371 341.284 27.0646 341.092C29.5439 340.87 45.9259 341.346 48.1413 341.61C48.6589 341.765 49.4769 341.765 51.066 341.771C51.9293 341.8 52.7936 341.775 53.654 341.698C53.8024 341.686 53.9494 341.662 54.0938 341.626C55.7604 341.439 66.2006 341.45 68.6489 341.626C70.7193 343.07 77.8519 345.808 118.857 345.808C128.588 345.808 140.218 345.653 154.142 345.29C189.282 344.379 227.952 342.304 233.734 341.32C235.287 341.32 243.149 341.46 244.935 341.615C246.239 342.133 249.837 342.594 263.051 342.878C272.606 343.08 284.232 343.096 293.388 342.914C304.392 342.697 307.881 342.34 309.222 341.879C309.359 341.857 309.494 341.822 309.625 341.776C312.006 341.439 327.907 341.543 330.759 341.9C332.038 342.537 335.417 342.935 346.608 342.966C355.33 342.966 363.906 342.671 368.487 342.174C371.401 341.864 373.358 341.532 373.948 339.892L369.838 338.416C369.984 337.97 370.297 337.599 370.713 337.381C369.553 337.847 362.488 338.416 351.691 338.561C341.934 338.686 334.553 338.391 332.902 338.044C332.332 337.727 331.695 337.55 331.044 337.526C328.596 337.272 322.726 337.185 318.44 337.179C312.063 337.179 309.594 337.278 308.461 337.542C308.142 337.566 307.832 337.656 307.549 337.806C305.619 338.266 294.516 338.717 277.161 338.67C260.018 338.623 248.983 338.121 246.845 337.635C246.255 337.231 245.193 337.169 239.722 337.045C236.694 336.977 233.755 336.941 233.579 336.941H233.175L232.89 337.05C229.935 337.676 193.097 339.923 152.972 340.942C130.803 341.507 112.527 341.574 98.6599 341.139C75.6834 340.42 71.6564 338.458 70.968 337.878C70.2796 337.298 70.0877 337.128 61.5576 337.112C56.278 337.112 54.2025 337.169 53.2294 337.34C53.1622 337.336 53.0949 337.336 53.0277 337.34C52.3807 337.381 49.6837 337.376 49.1558 337.34C47.9705 337.107 45.2323 336.972 37.7685 336.781C29.3833 336.569 26.8987 336.626 25.9308 336.853C24.4504 336.998 14.5435 337.076 13.3789 336.988H13.488C13.1568 336.941 12.3903 336.915 9.47104 336.915H-5.92772V341.284H9.47104C9.80748 341.315 12.5769 341.331 12.934 341.346ZM49.5389 337.464C49.4048 337.422 49.2682 337.387 49.13 337.361C49.27 337.378 49.4074 337.413 49.5389 337.464Z" fill="#D8D1FF"/>
<path d="M12.8511 349.99C12.7486 349.985 12.6467 349.973 12.5458 349.954C12.9185 350.016 13.9276 350.052 19.6523 350.016C24.4246 349.99 26.0296 349.975 26.7749 349.824C28.9385 349.69 45.8793 349.964 48.0584 350.166C48.9793 350.27 49.9069 350.305 50.8329 350.27C52.0493 350.27 52.7791 350.27 53.2708 350.223C53.4184 350.218 53.5658 350.203 53.7111 350.177C55.2639 350.047 65.9365 350.052 68.4158 350.177C70.4035 351.3 77.4795 352.972 116.859 352.972C126.745 352.972 138.676 352.863 153.091 352.62C170.793 352.319 190.762 351.802 207.885 351.207C227.341 350.529 232.212 350.171 233.661 349.969C235.318 349.969 243.496 350.068 245.049 350.177C246.601 350.617 250.836 350.875 265.163 351.041C276.095 351.17 288.802 351.139 297.539 350.968C304.925 350.823 307.674 350.658 308.895 350.337C309.026 350.324 309.156 350.302 309.284 350.27C311.53 350.021 327.959 350.094 330.718 350.358C331.618 350.704 333.207 350.813 336.577 350.922C339.522 351.02 343.585 351.062 348.016 351.056C355.501 351.056 365.817 350.849 370.273 350.373C371.826 350.208 373.446 350.032 374 348.489L369.786 346.978C369.881 346.7 370.035 346.446 370.238 346.234C370.441 346.022 370.688 345.857 370.962 345.751C368.151 346.574 336.577 346.926 332.482 346.196C332.114 346.039 331.723 345.944 331.323 345.917C329.486 345.73 323.45 345.658 318.844 345.647C312.301 345.647 309.672 345.673 308.44 345.88C308.141 345.89 307.845 345.949 307.565 346.056C302.907 346.874 251.871 346.781 246.612 345.958C245.96 345.658 244.624 345.637 239.634 345.565C236.7 345.518 233.682 345.497 233.537 345.497H233.129L232.911 345.575C229.552 346.041 191.316 347.495 152.879 348.163C82.2414 349.364 72.086 347.045 70.6677 346.274C69.969 345.684 69.6892 345.632 61.2988 345.627C56.19 345.627 54.1041 345.627 53.1 345.772H52.8826C52.2615 345.803 49.3166 345.798 48.8611 345.772C49.0019 345.786 49.1407 345.815 49.2751 345.86C48.2916 345.601 45.8588 345.544 37.5461 345.404C29.6733 345.27 27.0644 345.27 25.9722 345.44L25.7498 345.482C25.8585 345.456 25.9412 345.446 25.9722 345.44C24.937 345.544 14.2747 345.601 13.2343 345.539H13.3379C12.9808 345.497 12.1886 345.492 9.39875 345.492H-5.9171V349.964H9.39875C9.74555 349.964 12.5458 349.975 12.8511 349.99Z" fill="#D8D1FF"/>
<path d="M369.703 355.555C369.826 355.209 370.032 354.9 370.303 354.653C370.574 354.407 370.901 354.231 371.256 354.141C368.886 354.566 335.448 354.757 331.918 354.374C331.749 354.326 331.576 354.293 331.401 354.276C330.045 354.136 321.049 354.121 319.232 354.116C316.416 354.116 313.792 354.116 311.84 354.116C310.805 354.116 309.988 354.116 309.392 354.152C308.989 354.152 308.642 354.152 308.357 354.209C308.127 354.208 307.898 354.234 307.674 354.286C303.709 354.721 250.303 354.669 246.131 354.229C245.31 354.113 244.48 354.068 243.651 354.095L239.511 354.054C236.524 354.028 233.532 354.017 233.46 354.017H233.035L232.916 354.064C229.293 354.297 191.632 355.006 152.662 355.337C83.1835 355.927 71.915 354.861 70.1137 354.452C69.622 354.126 69.0784 354.121 66.4541 354.095C65.0152 354.095 63.0793 354.095 60.9985 354.095C56.1693 354.095 54.0419 354.095 52.9756 354.188H52.9398C52.8656 354.184 52.791 354.184 52.7168 354.188C52.1992 354.188 48.9129 354.188 48.5143 354.188C48.6454 354.197 48.7753 354.218 48.9025 354.25C47.5681 354.116 46.2264 354.063 44.8855 354.09C42.8565 354.059 40.0826 354.028 37.2771 354.007C28.1725 353.929 26.1279 353.914 25.3308 354.147C25.5119 354.078 25.7018 354.036 25.8949 354.022C25.0098 354.079 13.845 354.105 13.022 354.074H13.2444C12.9131 354.033 12.1833 354.033 9.27441 354.033H-5.95855V358.619H12.8046C13.4309 358.655 14.9579 358.655 19.5335 358.619C24.7872 358.619 26.231 358.619 26.878 358.422C26.7112 358.481 26.5371 358.518 26.3604 358.531C27.5872 358.448 46.6868 358.598 48.0998 358.702C48.0448 358.707 47.9896 358.707 47.9346 358.702C48.8284 358.767 49.7247 358.788 50.6206 358.764C51.7697 358.764 52.4893 358.764 52.9655 358.738H53.0019C53.0985 358.743 53.195 358.743 53.2916 358.738C53.5195 358.713 53.7429 358.656 53.9542 358.567C53.7451 358.662 53.5207 358.72 53.2916 358.738C54.3785 358.67 66.0146 358.67 68.3542 358.738C70.0467 359.323 75.1604 359.82 95.906 360.032C101.739 360.089 108.562 360.12 116.212 360.12C126.73 360.12 138.816 360.063 152.061 359.954C170.131 359.804 190.441 359.545 207.776 359.25C226.674 358.924 231.85 358.758 233.455 358.624C234.526 358.624 243.522 358.67 245.085 358.733C246.053 358.914 247.999 358.96 252.673 359.038C256.814 359.105 262.544 359.152 269.205 359.178C282.823 359.235 296.639 359.178 303.528 359.038C305.199 359.058 306.87 358.982 308.533 358.81C308.642 358.808 308.751 358.8 308.859 358.784C310.614 358.645 328.528 358.686 330.806 358.826C331.468 358.951 332.14 359.013 332.814 359.012C333.797 359.054 335.195 359.085 336.955 359.111C340.288 359.157 344.786 359.178 349.626 359.162C358.078 359.162 368.891 359.012 371.551 358.722C372.069 358.665 373.487 358.515 373.994 357.107L369.703 355.555ZM308.89 358.779C309.085 358.751 309.274 358.697 309.455 358.619C309.275 358.698 309.085 358.75 308.89 358.774V358.779Z" fill="#D8D1FF"/>
<path d="M371.862 362.573H-5.94844V367.268H371.862V362.573Z" fill="#D8D1FF"/>
</g>
</svg>
