<svg width="48" height="25" viewBox="0 0 48 25" fill="none" xmlns="http://www.w3.org/2000/svg">
<g clip-path="url(#clip0_3775_11688)">
<path d="M1 12.5C1 18.8513 6.14873 24 12.5 24C18.8513 24 24 18.8513 24 12.5C24 6.14873 18.8513 1 12.5 1C6.14873 1 1 6.14873 1 12.5Z" fill="#FF1AF2"/>
<path d="M5.13402 14.2295C5.13402 14.509 5.02298 14.7771 4.82533 14.9747C4.62768 15.1724 4.3596 15.2834 4.08008 15.2834C4.21872 15.2826 4.35616 15.3093 4.48441 15.3619C4.61267 15.4146 4.72919 15.4922 4.82723 15.5902C4.92527 15.6883 5.00287 15.8048 5.05553 15.933C5.10819 16.0613 5.13487 16.1987 5.13402 16.3374C5.13402 16.0579 5.24506 15.7898 5.44271 15.5921C5.64036 15.3945 5.90844 15.2834 6.18796 15.2834C5.90896 15.2817 5.64186 15.1702 5.44458 14.9729C5.24729 14.7756 5.1357 14.5085 5.13402 14.2295ZM5.13402 15.7333C5.02878 15.5444 4.87301 15.3887 4.68417 15.2834C4.87161 15.1764 5.02695 15.021 5.13402 14.8336C5.2436 15.0213 5.40106 15.1765 5.5903 15.2834C5.3997 15.3885 5.24181 15.5442 5.13402 15.7333Z" fill="white"/>
<path d="M6.18651 15.1218C5.95012 15.1201 5.72389 15.0255 5.55673 14.8583C5.38957 14.6912 5.29492 14.4649 5.29323 14.2285C5.29323 14.1859 5.27631 14.1451 5.24618 14.1149C5.21605 14.0848 5.17518 14.0679 5.13257 14.0679C5.08996 14.0679 5.0491 14.0848 5.01897 14.1149C4.98884 14.1451 4.97191 14.1859 4.97191 14.2285C4.97191 14.4654 4.8778 14.6927 4.71028 14.8602C4.54275 15.0277 4.31554 15.1218 4.07863 15.1218C4.03602 15.1218 3.99516 15.1387 3.96503 15.1689C3.9349 15.199 3.91797 15.2399 3.91797 15.2825C3.91797 15.3251 3.9349 15.3659 3.96503 15.3961C3.99516 15.4262 4.03602 15.4431 4.07863 15.4431C4.31554 15.4431 4.54275 15.5372 4.71028 15.7048C4.8778 15.8723 4.97191 16.0995 4.97191 16.3364C4.97191 16.379 4.98884 16.4199 5.01897 16.45C5.0491 16.4801 5.08996 16.4971 5.13257 16.4971C5.17518 16.4971 5.21605 16.4801 5.24618 16.45C5.27631 16.4199 5.29323 16.379 5.29323 16.3364C5.29323 16.0995 5.38735 15.8723 5.55487 15.7048C5.72239 15.5372 5.9496 15.4431 6.18651 15.4431C6.22912 15.4431 6.26999 15.4262 6.30012 15.3961C6.33025 15.3659 6.34718 15.3251 6.34718 15.2825C6.34718 15.2399 6.33025 15.199 6.30012 15.1689C6.26999 15.1387 6.22912 15.1218 6.18651 15.1218ZM5.13257 15.7645C5.02734 15.5756 4.87156 15.4198 4.68272 15.3146C4.87017 15.2075 5.0255 15.0522 5.13257 14.8648C5.24215 15.0525 5.39961 15.2077 5.58885 15.3146C5.40239 15.4109 5.2449 15.5551 5.13257 15.7323V15.7645Z" fill="black"/>
<path d="M5.58973 15.2831C5.39913 15.3882 5.24124 15.5439 5.13344 15.733C5.02821 15.5441 4.87243 15.3883 4.68359 15.2831C4.87104 15.176 5.02638 15.0207 5.13344 14.8333C5.24303 15.021 5.40049 15.1762 5.58973 15.2831Z" fill="white"/>
<path d="M15.6213 15.9564C16.6757 15.2061 17.4597 14.1355 17.8567 12.9039C18.2537 11.6722 18.2424 10.3453 17.8246 9.1205C17.4068 7.89573 16.6048 6.83857 15.5378 6.1063C14.4708 5.37403 13.196 5.00579 11.9029 5.05635C10.6098 5.10691 9.3676 5.57357 8.36107 6.38692C7.35454 7.20026 6.63749 8.31682 6.31659 9.57047C5.99569 10.8241 6.08809 12.1479 6.58004 13.3448C7.072 14.5417 7.93722 15.5478 9.04698 16.2134" fill="#0083FF"/>
<path d="M15.6213 15.9564C16.6757 15.2061 17.4597 14.1355 17.8567 12.9039C18.2537 11.6722 18.2424 10.3453 17.8246 9.1205C17.4068 7.89573 16.6048 6.83857 15.5378 6.1063C14.4708 5.37403 13.196 5.00579 11.9029 5.05635C10.6098 5.10691 9.3676 5.57357 8.36107 6.38692C7.35454 7.20026 6.63749 8.31682 6.31659 9.57047C5.99569 10.8241 6.08809 12.1479 6.58004 13.3448C7.072 14.5417 7.93722 15.5478 9.04698 16.2134" stroke="black" stroke-width="0.321324" stroke-miterlimit="10"/>
<path d="M9.45131 15.5534C9.06364 15.3379 8.74028 15.0231 8.51441 14.6414C8.28855 14.2597 8.1683 13.8247 8.16602 13.3812C8.16598 13.0245 8.25538 12.6735 8.42602 12.3603C8.59667 12.0471 8.84312 11.7816 9.14284 11.5882V9.1783C9.14447 8.91002 9.25089 8.653 9.4394 8.46209C9.6279 8.27119 9.88355 8.16152 10.1518 8.15649H14.6503V10.9456H14.6118V15.5084L9.45131 15.5534Z" fill="#FF1AF2" stroke="black" stroke-width="0.321324" stroke-miterlimit="10"/>
<path d="M10.4336 10.5657V12.4486H11.2048" stroke="black" stroke-width="0.321324" stroke-linecap="round" stroke-linejoin="round"/>
<path d="M14.5356 13.7976L14.2207 12.9043L14.5356 13.0328V13.7976Z" fill="black" stroke="black" stroke-width="0.321324" stroke-miterlimit="10"/>
<path d="M9.32812 8.32829C9.81045 7.72029 10.4688 7.27614 11.2132 7.05662C11.9576 6.8371 12.7517 6.85293 13.4867 7.10193C14.2218 7.35094 14.862 7.82096 15.3197 8.4477C15.7774 9.07444 16.0303 9.82729 16.0438 10.6033C16.0435 11.4466 15.7427 12.2623 15.1955 12.9039L13.3639 8.04553L9.32812 8.32829Z" fill="black"/>
<path d="M10.0739 8.14909H13.0622V9.55649C13.0622 9.55649 14.8167 11.3687 12.5353 12.8918V13.0461C12.5271 13.3759 12.3925 13.6899 12.1592 13.9232C11.9259 14.1564 11.6119 14.2911 11.2821 14.2992H9.9968C9.66701 14.2911 9.35297 14.1564 9.1197 13.9232C8.88643 13.6899 8.75179 13.3759 8.74364 13.0461V11.9536C8.74364 11.9536 7.76039 13.663 8.74364 14.9804C8.88135 15.1709 9.07778 15.3109 9.30274 15.3789C9.5341 15.4239 11.8733 15.3789 13.1136 15.3789C13.2158 15.378 13.3167 15.3571 13.4107 15.3172C13.5047 15.2774 13.59 15.2194 13.6616 15.1466C13.7332 15.0738 13.7898 14.9876 13.8281 14.8929C13.8664 14.7982 13.8857 14.697 13.8848 14.5948V10.9446L15.2472 10.5976L13.8013 7.53857L12.2011 7.73137L10.0739 8.14909Z" fill="black" stroke="black" stroke-width="0.321324" stroke-linecap="round" stroke-linejoin="round"/>
<path d="M14.2136 12.9052C14.3828 13.0164 14.5792 13.0793 14.7815 13.0871C14.9839 13.0949 15.1845 13.0473 15.3618 12.9494C15.539 12.8515 15.6862 12.7071 15.7874 12.5317C15.8886 12.3562 15.9399 12.1565 15.9359 11.9541C15.9342 11.6597 15.8165 11.3779 15.6084 11.1698C15.4002 10.9616 15.1184 10.844 14.8241 10.8423C14.7157 10.8569 14.6084 10.8783 14.5028 10.9065L13.918 11.0479V12.7124L14.2136 12.9052Z" fill="#FF1AF2" stroke="black" stroke-width="0.321324" stroke-linecap="round" stroke-linejoin="round"/>
<path d="M14.5117 11.626L15.1608 12.275" stroke="black" stroke-width="0.321324" stroke-miterlimit="10" stroke-linecap="round"/>
<path d="M15.1608 11.626L14.5117 12.275" stroke="black" stroke-width="0.321324" stroke-miterlimit="10" stroke-linecap="round"/>
<g opacity="0.18">
<path opacity="0.18" d="M15.6213 15.9581C16.6757 15.2079 17.4597 14.1373 17.8567 12.9056C18.2537 11.6739 18.2424 10.347 17.8246 9.12221C17.4068 7.89744 16.6048 6.84028 15.5378 6.10801C14.4708 5.37574 13.196 5.0075 11.9029 5.05806C10.6098 5.10862 9.3676 5.57528 8.36107 6.38863C7.35454 7.20197 6.63749 8.31853 6.31659 9.57218C5.99569 10.8258 6.08809 12.1496 6.58004 13.3465C7.072 14.5434 7.93722 15.5495 9.04698 16.2152" fill="#0083FF"/>
<path opacity="0.18" d="M8.96324 16.3558C7.8237 15.673 6.935 14.6406 6.42931 13.4122C5.92362 12.1837 5.82796 10.8249 6.15655 9.53769C6.48515 8.25052 7.22044 7.1038 8.25308 6.26807C9.28571 5.43234 10.5605 4.95225 11.8879 4.89921C13.2153 4.84616 14.5244 5.22299 15.6204 5.97366C16.7164 6.72432 17.5409 7.80871 17.9711 9.06556C18.4014 10.3224 18.4145 11.6846 18.0084 12.9494C17.6024 14.2143 16.7989 15.3143 15.7175 16.0859L15.5311 15.8224C16.5514 15.0895 17.3083 14.0471 17.6893 12.85C18.0704 11.6529 18.0555 10.3649 17.6466 9.17698C17.2378 7.98908 16.4569 6.96461 15.4198 6.2556C14.3828 5.54658 13.1447 5.19077 11.8895 5.24099C10.6342 5.2912 9.42852 5.74474 8.45139 6.53433C7.47425 7.32392 6.77769 8.40748 6.46505 9.62424C6.15242 10.841 6.24037 12.1261 6.71585 13.289C7.19133 14.4518 8.02902 15.4304 9.10462 16.0795L8.96324 16.3558Z" fill="black"/>
</g>
<path d="M1 12.5C1 18.8513 6.14873 24 12.5 24C18.8513 24 24 18.8513 24 12.5C24 6.14873 18.8513 1 12.5 1C6.14873 1 1 6.14873 1 12.5Z" stroke="white" stroke-width="1.21053" stroke-miterlimit="10"/>
<path d="M6.99738 12.0169C6.9279 11.6808 6.89344 11.3384 6.89456 10.9951H7.5372C7.53784 11.2951 7.56798 11.5943 7.62718 11.8884L6.99738 12.0169Z" fill="white"/>
<path d="M7.5821 10.3406L6.93945 10.2506C7.05873 9.42319 7.3741 8.63627 7.85927 7.95546C8.34444 7.27466 8.98535 6.71972 9.72854 6.33691L10.0177 6.90887C9.36906 7.24721 8.81 7.73475 8.38656 8.33136C7.96312 8.92798 7.68741 9.61662 7.5821 10.3406Z" fill="white"/>
<path d="M15.9364 17.5959V21.2782H6.98438L9.28505 15.5522H13.925C14.1914 15.5539 14.4548 15.6082 14.7002 15.7119C14.9456 15.8156 15.1681 15.9667 15.3549 16.1565C15.5418 16.3464 15.6894 16.5712 15.7891 16.8182C15.8889 17.0652 15.939 17.3295 15.9364 17.5959Z" fill="#0083FF"/>
<path d="M15.4234 15.984C15.2309 15.7838 15.0005 15.6239 14.7457 15.5136C14.4908 15.4032 14.2166 15.3447 13.9389 15.3413H9.18973L6.81836 21.228H7.17181L9.40823 15.6626H13.9389C14.1769 15.6601 14.4131 15.7048 14.6337 15.7941C14.8543 15.8835 15.055 16.0157 15.2242 16.1832C15.4075 16.3645 15.5526 16.5808 15.6508 16.8193C15.7491 17.0577 15.7985 17.3134 15.7961 17.5713V21.2537H16.1175V17.597C16.1155 17.2954 16.0531 16.9972 15.9338 16.7202C15.8146 16.4431 15.6411 16.1928 15.4234 15.984Z" fill="black"/>
<path d="M12.4112 18.5532H12.0898V21.278H12.4112V18.5532Z" fill="black"/>
<path d="M16.371 15.6248H8.18366C7.93876 15.6248 7.74023 15.8233 7.74023 16.0682C7.74023 16.3131 7.93876 16.5116 8.18366 16.5116H16.371C16.6159 16.5116 16.8144 16.3131 16.8144 16.0682C16.8144 15.8233 16.6159 15.6248 16.371 15.6248Z" fill="#0083FF"/>
<path d="M16.3721 16.6774H8.17831C8.01809 16.6774 7.86444 16.6138 7.75115 16.5005C7.63786 16.3872 7.57422 16.2335 7.57422 16.0733C7.57422 15.9131 7.63786 15.7595 7.75115 15.6462C7.86444 15.5329 8.01809 15.4692 8.17831 15.4692H16.3721C16.5323 15.4692 16.6859 15.5329 16.7992 15.6462C16.9125 15.7595 16.9761 15.9131 16.9761 16.0733C16.9761 16.2335 16.9125 16.3872 16.7992 16.5005C16.6859 16.6138 16.5323 16.6774 16.3721 16.6774ZM8.17831 15.7906C8.10331 15.7906 8.03139 15.8204 7.97836 15.8734C7.92533 15.9264 7.89554 15.9983 7.89554 16.0733C7.89554 16.1483 7.92533 16.2202 7.97836 16.2733C8.03139 16.3263 8.10331 16.3561 8.17831 16.3561H16.3721C16.4471 16.3561 16.519 16.3263 16.572 16.2733C16.625 16.2202 16.6548 16.1483 16.6548 16.0733C16.6548 15.9983 16.625 15.9264 16.572 15.8734C16.519 15.8204 16.4471 15.7906 16.3721 15.7906H8.17831Z" fill="black"/>
<path d="M15.1566 18.7017H13.0938V19.9998H15.1566V18.7017Z" fill="white"/>
<path d="M15.2927 20.1588H12.9277V18.5393H15.2927V20.1588ZM13.2298 19.8375H14.9714V18.8606H13.2491L13.2298 19.8375Z" fill="black"/>
<g style="mix-blend-mode:color-dodge">
<g style="mix-blend-mode:color-dodge">
<path d="M10.4206 15.5522L8.11348 21.2782H6.98242L9.28952 15.5522H10.4206Z" fill="white"/>
</g>
</g>
<path d="M12.5 12.5C12.5 18.8513 17.6487 24 24 24C30.3513 24 35.5 18.8513 35.5 12.5C35.5 6.14873 30.3513 1 24 1C17.6487 1 12.5 6.14873 12.5 12.5Z" fill="#00FF87" stroke="white" stroke-width="1.21053" stroke-miterlimit="10"/>
<path d="M28.0161 21.8023V17.9194C28.0215 17.6372 27.9711 17.3567 27.8678 17.0941C27.7646 16.8314 27.6105 16.5917 27.4144 16.3887C27.2183 16.1857 26.9841 16.0234 26.7252 15.9111C26.4662 15.7988 26.1877 15.7388 25.9055 15.7344H22.9831H21.0281L18.5996 21.7685" fill="#71227A"/>
<path d="M28.0161 21.8023V17.9194C28.0215 17.6372 27.9711 17.3567 27.8678 17.0941C27.7646 16.8314 27.6105 16.5917 27.4144 16.3887C27.2183 16.1857 26.9841 16.0234 26.7252 15.9111C26.4662 15.7988 26.1877 15.7388 25.9055 15.7344H22.9831H21.0281L18.5996 21.7685" stroke="black" stroke-width="0.322861" stroke-miterlimit="10"/>
<g style="mix-blend-mode:color-dodge">
<path d="M19.4993 21.8022L21.9278 15.7681H21.1973H21.0281L18.5996 21.8022H19.4993Z" fill="white"/>
</g>
<path d="M24.1445 18.9263V21.8013" stroke="black" stroke-width="0.322861" stroke-linecap="round" stroke-linejoin="round"/>
<path d="M26.5502 13.9144L26.2188 12.9741L26.5502 13.1094V13.9144Z" fill="black" stroke="black" stroke-width="0.322861" stroke-miterlimit="10"/>
<path d="M21.0781 8.15641C21.4306 7.70633 21.8773 7.33872 22.3867 7.07931C22.8962 6.81991 23.4562 6.67497 24.0275 6.65465C25.0893 6.62735 26.1185 7.02222 26.8895 7.75265C27.6605 8.48309 28.1104 9.48947 28.1405 10.5511C28.138 11.4373 27.8243 12.2944 27.2543 12.9729L25.3128 7.852L21.0781 8.15641Z" fill="black"/>
<path d="M24.0275 6.99965C24.9996 6.97232 25.9428 7.33154 26.6504 7.99855C27.3579 8.66556 27.7722 9.58593 27.8022 10.5579C27.8045 11.1571 27.6456 11.7459 27.3422 12.2626L25.6308 7.74376L25.5158 7.47994H25.2655L21.9305 7.71671C22.5257 7.25091 23.2521 6.98356 24.0072 6.9523L24.0275 6.99965ZM24.0275 6.66141C23.4567 6.68092 22.8971 6.82481 22.3876 7.08302C21.8782 7.34124 21.4313 7.70757 21.0781 8.15641L25.3128 7.852L27.2543 12.9729C27.8243 12.2944 28.138 11.4373 28.1405 10.5511C28.1104 9.48947 27.6605 8.48309 26.8895 7.75265C26.1185 7.02222 25.0893 6.62735 24.0275 6.65465V6.66141Z" fill="black"/>
<path d="M27.2086 11.6353L26.5254 12.3185" stroke="black" stroke-width="0.322861" stroke-linecap="round" stroke-linejoin="round"/>
<path d="M24.2381 7.66893C24.4341 7.89456 24.776 7.91858 25.0016 7.72258C25.2272 7.52657 25.2513 7.18476 25.0553 6.95912L23.6445 5.33512C23.4485 5.10948 23.1067 5.08546 22.8811 5.28146C22.6554 5.47747 22.6314 5.81928 22.8274 6.04492L24.2381 7.66893Z" fill="black" stroke="black" stroke-width="0.322861" stroke-linecap="round" stroke-linejoin="round"/>
<path d="M27.6014 12.2671C27.5799 11.9607 27.3142 11.7298 27.0078 11.7512C26.7015 11.7727 26.4705 12.0384 26.492 12.3447L26.6406 14.4689C26.6621 14.7752 26.9278 15.0062 27.2342 14.9847C27.5405 14.9633 27.7715 14.6976 27.7501 14.3912L27.6014 12.2671Z" fill="black" stroke="black" stroke-width="0.323651" stroke-linecap="round" stroke-linejoin="round"/>
<path d="M21.9702 10.5692L21.8833 10.4568C21.7072 10.2293 21.38 10.1877 21.1525 10.3637L19.4193 11.7053C19.1918 11.8814 19.1501 12.2085 19.3262 12.436L19.4132 12.5484C19.5892 12.7758 19.9164 12.8175 20.1439 12.6414L21.8771 11.2999C22.1046 11.1238 22.1463 10.7967 21.9702 10.5692Z" fill="black" stroke="black" stroke-width="0.322861" stroke-linecap="round" stroke-linejoin="round"/>
<path d="M22.3806 12.7297L22.3782 12.7234C22.2599 12.4126 21.9121 12.2565 21.6014 12.3747L19.7046 13.0964C19.3938 13.2146 19.2377 13.5624 19.356 13.8732L19.3584 13.8795C19.4766 14.1903 19.8244 14.3464 20.1352 14.2281L22.0319 13.5065C22.3427 13.3882 22.4988 13.0404 22.3806 12.7297Z" fill="black" stroke="black" stroke-width="0.322861" stroke-linecap="round" stroke-linejoin="round"/>
<path d="M23.0645 6.66262H21.3869C21.219 6.66172 21.0525 6.69391 20.8971 6.75734C20.7416 6.82077 20.6002 6.91421 20.4808 7.0323C20.3615 7.15039 20.2665 7.29084 20.2015 7.44562C20.1364 7.6004 20.1024 7.76648 20.1016 7.93438V9.84203C20.1016 9.91189 20.1154 9.98106 20.1424 10.0455C20.1693 10.11 20.2088 10.1685 20.2585 10.2175C20.3082 10.2666 20.3672 10.3054 20.432 10.3315C20.4968 10.3576 20.5661 10.3706 20.636 10.3697C20.7759 10.3697 20.9101 10.3141 21.0091 10.2151C21.108 10.1162 21.1636 9.98197 21.1636 9.84203V8.23203H23.0577L23.0645 6.66262Z" fill="black" stroke="black" stroke-width="0.322861" stroke-linecap="round" stroke-linejoin="round"/>
<path d="M21.2006 15.7671C20.7925 15.5386 20.4522 15.206 20.2145 14.8031C19.9769 14.4002 19.8503 13.9416 19.8477 13.4738C19.848 13.0952 19.9444 12.7229 20.1278 12.3916C20.3112 12.0604 20.5755 11.781 20.8962 11.5797V9.05648C20.8962 8.77059 21.0093 8.4963 21.2108 8.29352C21.4123 8.09073 21.6859 7.97591 21.9718 7.97412H26.6665V10.8627H26.6327V15.6994L21.2006 15.7671Z" fill="#FF1AF2" stroke="black" stroke-width="0.322861" stroke-miterlimit="10"/>
<path d="M22.2383 10.519V12.5011H23.05" stroke="black" stroke-width="0.322861" stroke-linecap="round" stroke-linejoin="round"/>
<path d="M20.6527 13.4738C20.6571 13.9403 20.7846 14.3973 21.0221 14.7987C21.2597 15.2002 21.5989 15.5319 22.0056 15.7603H21.2006C20.7929 15.5313 20.453 15.1985 20.2154 14.7958C19.9778 14.3931 19.851 13.9347 19.8477 13.4671C19.8482 13.0875 19.9445 12.7143 20.1278 12.382C20.3111 12.0497 20.5754 11.769 20.8962 11.5662V9.04971C20.8962 8.76445 21.0095 8.49087 21.2112 8.28915C21.4129 8.08744 21.6865 7.97412 21.9718 7.97412H22.8106C22.5253 7.97412 22.2518 8.08744 22.05 8.28915C21.8483 8.49087 21.735 8.76445 21.735 9.04971V11.5729C21.408 11.7718 21.137 12.0506 20.9476 12.3832C20.7583 12.7158 20.6567 13.0911 20.6527 13.4738Z" fill="white"/>
<path d="M21.2006 15.7671C20.7925 15.5386 20.4522 15.206 20.2145 14.8031C19.9769 14.4002 19.8503 13.9416 19.8477 13.4738C19.848 13.0952 19.9444 12.7229 20.1278 12.3916C20.3112 12.0604 20.5755 11.781 20.8962 11.5797V9.05648C20.8962 8.77059 21.0093 8.4963 21.2108 8.29352C21.4123 8.09073 21.6859 7.97591 21.9718 7.97412H26.6665V10.8627H26.6327V15.6994L21.2006 15.7671Z" stroke="black" stroke-width="0.322861" stroke-miterlimit="10"/>
<path d="M23.6672 7.51001C23.8044 7.30515 23.7496 7.02783 23.5447 6.89058C23.3399 6.75334 23.0626 6.80816 22.9253 7.01301L21.6226 8.95755C21.4853 9.16241 21.5402 9.43973 21.745 9.57697C21.9499 9.71421 22.2272 9.6594 22.3644 9.45455L23.6672 7.51001Z" fill="black" stroke="black" stroke-width="0.322861" stroke-linecap="round" stroke-linejoin="round"/>
<path d="M24.4303 7.0239C24.4127 6.77794 24.1991 6.59278 23.9532 6.61032C23.7072 6.62787 23.522 6.84147 23.5396 7.08743L23.7061 9.42208C23.7237 9.66804 23.9373 9.8532 24.1832 9.83566C24.4292 9.81811 24.6143 9.60451 24.5968 9.35855L24.4303 7.0239Z" fill="black" stroke="black" stroke-width="0.322861" stroke-linecap="round" stroke-linejoin="round"/>
<path d="M25.873 12.7776L26.2113 12.9806C26.3656 13.074 26.5395 13.1304 26.7193 13.1456C26.899 13.1607 27.0799 13.134 27.2476 13.0677C27.4154 13.0013 27.5656 12.8971 27.6864 12.7631C27.8072 12.6291 27.8954 12.469 27.9441 12.2953C27.9928 12.1216 28.0007 11.939 27.9671 11.7617C27.9336 11.5844 27.8595 11.4173 27.7507 11.2734C27.6419 11.1296 27.5012 11.0128 27.3398 10.9322C27.1784 10.8517 27.0005 10.8095 26.8201 10.8091C26.7083 10.8244 26.5975 10.847 26.4886 10.8767L25.873 11.0188" fill="#FF1AF2"/>
<path d="M25.873 12.7776L26.2113 12.9806C26.3656 13.074 26.5395 13.1304 26.7193 13.1456C26.899 13.1607 27.0799 13.134 27.2476 13.0677C27.4154 13.0013 27.5656 12.8971 27.6864 12.7631C27.8072 12.6291 27.8954 12.469 27.9441 12.2953C27.9928 12.1216 28.0007 11.939 27.9671 11.7617C27.9336 11.5844 27.8595 11.4173 27.7507 11.2734C27.6419 11.1296 27.5012 11.0128 27.3398 10.9322C27.1784 10.8517 27.0005 10.8095 26.8201 10.8091C26.7083 10.8244 26.5975 10.847 26.4886 10.8767L25.873 11.0188" stroke="black" stroke-width="0.322861" stroke-linecap="round" stroke-linejoin="round"/>
<path d="M26.5254 11.6353L27.2086 12.3185" stroke="black" stroke-width="0.322861" stroke-linecap="round" stroke-linejoin="round"/>
<path d="M26.5254 12.3185L27.2086 11.6353" stroke="black" stroke-width="0.322861" stroke-linecap="round" stroke-linejoin="round"/>
<path d="M24.8966 7.53429L24.891 7.53815C24.578 7.75547 24.5004 8.18541 24.7177 8.49844L27.8425 12.9995C28.0599 13.3125 28.4898 13.3901 28.8028 13.1728L28.8084 13.1689C29.1214 12.9516 29.199 12.5217 28.9817 12.2086L25.8569 7.7076C25.6395 7.39456 25.2096 7.31697 24.8966 7.53429Z" fill="black" stroke="black" stroke-width="0.322861" stroke-linecap="round" stroke-linejoin="round"/>
<path d="M25.8223 9.71924V11.5728C25.8223 11.5728 26.2484 10.6934 26.7423 10.7069L25.8223 9.71924Z" fill="black" stroke="black" stroke-width="0.322861" stroke-linecap="round" stroke-linejoin="round"/>
<path d="M26.0312 12.8662L26.5589 14.4762L26.5521 13.1097L26.0312 12.8662Z" fill="black" stroke="black" stroke-width="0.322861" stroke-linecap="round" stroke-linejoin="round"/>
<path d="M22.8624 14.5977H22.4294C22.1081 14.5977 21.8477 14.8581 21.8477 15.1794C21.8477 15.5007 22.1081 15.7612 22.4294 15.7612H22.8624C23.1837 15.7612 23.4441 15.5007 23.4441 15.1794C23.4441 14.8581 23.1837 14.5977 22.8624 14.5977Z" fill="black" stroke="black" stroke-width="0.322861" stroke-linecap="round" stroke-linejoin="round"/>
<path d="M25.4596 6.54892L25.4545 6.55337C25.1668 6.80327 25.1362 7.23908 25.3861 7.52677L28.5004 11.1118C28.7503 11.3995 29.1861 11.4302 29.4738 11.1803L29.4789 11.1758C29.7666 10.9259 29.7972 10.4901 29.5473 10.2024L26.433 6.61734C26.1831 6.32965 25.7473 6.29902 25.4596 6.54892Z" fill="black" stroke="black" stroke-width="0.322861" stroke-linecap="round" stroke-linejoin="round"/>
<path d="M17.086 14.665C17.086 14.9593 16.9691 15.2415 16.761 15.4495C16.553 15.6576 16.2708 15.7745 15.9766 15.7745C16.1225 15.7736 16.2672 15.8016 16.4022 15.8571C16.5372 15.9125 16.6598 15.9942 16.763 16.0974C16.8662 16.2006 16.9479 16.3232 17.0034 16.4582C17.0588 16.5933 17.0869 16.7379 17.086 16.8839C17.086 16.5896 17.2029 16.3074 17.4109 16.0994C17.619 15.8913 17.9012 15.7745 18.1954 15.7745C17.9017 15.7727 17.6205 15.6552 17.4129 15.4476C17.2052 15.2399 17.0877 14.9587 17.086 14.665ZM17.086 16.248C16.9752 16.0492 16.8112 15.8852 16.6124 15.7745C16.8098 15.6617 16.9733 15.4982 17.086 15.3009C17.2013 15.4985 17.3671 15.6619 17.5663 15.7745C17.362 15.8924 17.1954 16.066 17.086 16.275V16.248Z" fill="white"/>
<path d="M18.1946 15.5972C17.9457 15.5954 17.7076 15.4958 17.5317 15.3198C17.3557 15.1439 17.2561 14.9057 17.2543 14.6569C17.2543 14.6121 17.2365 14.569 17.2048 14.5373C17.173 14.5056 17.13 14.4878 17.0852 14.4878C17.0403 14.4878 16.9973 14.5056 16.9656 14.5373C16.9339 14.569 16.9161 14.6121 16.9161 14.6569C16.9161 14.9063 16.817 15.1455 16.6406 15.3218C16.4643 15.4981 16.2251 15.5972 15.9758 15.5972C15.9309 15.5972 15.8879 15.615 15.8562 15.6467C15.8245 15.6785 15.8066 15.7215 15.8066 15.7663C15.8066 15.8112 15.8245 15.8542 15.8562 15.8859C15.8879 15.9176 15.9309 15.9354 15.9758 15.9354C16.2251 15.9354 16.4643 16.0345 16.6406 16.2108C16.817 16.3872 16.9161 16.6264 16.9161 16.8757C16.9161 16.9206 16.9339 16.9636 16.9656 16.9953C16.9973 17.027 17.0403 17.0449 17.0852 17.0449C17.13 17.0449 17.173 17.027 17.2048 16.9953C17.2365 16.9636 17.2543 16.9206 17.2543 16.8757C17.2543 16.6264 17.3534 16.3872 17.5297 16.2108C17.706 16.0345 17.9452 15.9354 18.1946 15.9354C18.2394 15.9354 18.2825 15.9176 18.3142 15.8859C18.3459 15.8542 18.3637 15.8112 18.3637 15.7663C18.3637 15.7215 18.3459 15.6785 18.3142 15.6467C18.2825 15.615 18.2394 15.5972 18.1946 15.5972ZM17.0852 16.2737C16.9744 16.0749 16.8104 15.9109 16.6116 15.8001C16.809 15.6874 16.9725 15.5239 17.0852 15.3266C17.2005 15.5242 17.3663 15.6876 17.5655 15.8001C17.3648 15.9108 17.1986 16.0746 17.0852 16.2737Z" fill="black"/>
<path d="M17.5671 15.7743C17.3665 15.8849 17.2003 16.0488 17.0868 16.2478C16.976 16.0491 16.8121 15.8851 16.6133 15.7743C16.8106 15.6616 16.9741 15.4981 17.0868 15.3008C17.2022 15.4984 17.3679 15.6618 17.5671 15.7743Z" fill="white"/>
<path d="M24 12.5C24 18.8513 29.1487 24 35.5 24C41.8513 24 47 18.8513 47 12.5C47 6.14873 41.8513 1 35.5 1C29.1487 1 24 6.14873 24 12.5Z" fill="#6AB1D9" stroke="white" stroke-width="1.21053" stroke-miterlimit="10"/>
<path d="M39.5161 21.8023V17.9194C39.5215 17.6372 39.4711 17.3567 39.3678 17.0941C39.2646 16.8314 39.1105 16.5917 38.9144 16.3887C38.7183 16.1857 38.4841 16.0234 38.2252 15.9111C37.9662 15.7988 37.6877 15.7388 37.4055 15.7344H34.4831H32.5281L30.0996 21.7685" fill="#71227A"/>
<path d="M39.5161 21.8023V17.9194C39.5215 17.6372 39.4711 17.3567 39.3678 17.0941C39.2646 16.8314 39.1105 16.5917 38.9144 16.3887C38.7183 16.1857 38.4841 16.0234 38.2252 15.9111C37.9662 15.7988 37.6877 15.7388 37.4055 15.7344H34.4831H32.5281L30.0996 21.7685" stroke="black" stroke-width="0.322861" stroke-miterlimit="10"/>
<g style="mix-blend-mode:color-dodge">
<path d="M30.9993 21.8022L33.4278 15.7681H32.6973H32.5281L30.0996 21.8022H30.9993Z" fill="white"/>
</g>
<path d="M35.6445 18.9263V21.8013" stroke="black" stroke-width="0.322861" stroke-linecap="round" stroke-linejoin="round"/>
<path d="M38.0502 13.9144L37.7188 12.9741L38.0502 13.1094V13.9144Z" fill="black" stroke="black" stroke-width="0.322861" stroke-miterlimit="10"/>
<path d="M32.5781 8.15641C32.9306 7.70633 33.3773 7.33872 33.8867 7.07931C34.3962 6.81991 34.9562 6.67497 35.5275 6.65465C36.5893 6.62735 37.6185 7.02222 38.3895 7.75265C39.1605 8.48309 39.6104 9.48947 39.6405 10.5511C39.638 11.4373 39.3243 12.2944 38.7543 12.9729L36.8128 7.852L32.5781 8.15641Z" fill="black"/>
<path d="M35.5275 6.99965C36.4996 6.97232 37.4428 7.33154 38.1504 7.99855C38.8579 8.66556 39.2722 9.58593 39.3022 10.5579C39.3045 11.1571 39.1456 11.7459 38.8422 12.2626L37.1308 7.74376L37.0158 7.47994H36.7655L33.4305 7.71671C34.0257 7.25091 34.7521 6.98356 35.5072 6.9523L35.5275 6.99965ZM35.5275 6.66141C34.9567 6.68092 34.3971 6.82481 33.8876 7.08302C33.3782 7.34124 32.9313 7.70757 32.5781 8.15641L36.8128 7.852L38.7543 12.9729C39.3243 12.2944 39.638 11.4373 39.6405 10.5511C39.6104 9.48947 39.1605 8.48309 38.3895 7.75265C37.6185 7.02222 36.5893 6.62735 35.5275 6.65465V6.66141Z" fill="black"/>
<path d="M38.7086 11.6353L38.0254 12.3185" stroke="black" stroke-width="0.322861" stroke-linecap="round" stroke-linejoin="round"/>
<path d="M35.7381 7.66893C35.9341 7.89456 36.276 7.91858 36.5016 7.72258C36.7272 7.52657 36.7513 7.18476 36.5553 6.95912L35.1445 5.33512C34.9485 5.10948 34.6067 5.08546 34.3811 5.28146C34.1554 5.47747 34.1314 5.81928 34.3274 6.04492L35.7381 7.66893Z" fill="black" stroke="black" stroke-width="0.322861" stroke-linecap="round" stroke-linejoin="round"/>
<path d="M39.1014 12.2671C39.0799 11.9607 38.8142 11.7298 38.5078 11.7512C38.2015 11.7727 37.9705 12.0384 37.992 12.3447L38.1406 14.4689C38.1621 14.7752 38.4278 15.0062 38.7342 14.9847C39.0405 14.9633 39.2715 14.6976 39.2501 14.3912L39.1014 12.2671Z" fill="black" stroke="black" stroke-width="0.323651" stroke-linecap="round" stroke-linejoin="round"/>
<path d="M33.4702 10.5692L33.3833 10.4568C33.2072 10.2293 32.88 10.1877 32.6525 10.3637L30.9193 11.7053C30.6918 11.8814 30.6501 12.2085 30.8262 12.436L30.9132 12.5484C31.0892 12.7758 31.4164 12.8175 31.6439 12.6414L33.3771 11.2999C33.6046 11.1238 33.6463 10.7967 33.4702 10.5692Z" fill="black" stroke="black" stroke-width="0.322861" stroke-linecap="round" stroke-linejoin="round"/>
<path d="M33.8806 12.7297L33.8782 12.7234C33.7599 12.4126 33.4121 12.2565 33.1014 12.3747L31.2046 13.0964C30.8938 13.2146 30.7377 13.5624 30.856 13.8732L30.8584 13.8795C30.9766 14.1903 31.3244 14.3464 31.6352 14.2281L33.5319 13.5065C33.8427 13.3882 33.9988 13.0404 33.8806 12.7297Z" fill="black" stroke="black" stroke-width="0.322861" stroke-linecap="round" stroke-linejoin="round"/>
<path d="M34.5645 6.66262H32.8869C32.719 6.66172 32.5525 6.69391 32.3971 6.75734C32.2416 6.82077 32.1002 6.91421 31.9808 7.0323C31.8615 7.15039 31.7665 7.29084 31.7015 7.44562C31.6364 7.6004 31.6024 7.76648 31.6016 7.93438V9.84203C31.6016 9.91189 31.6154 9.98106 31.6424 10.0455C31.6693 10.11 31.7088 10.1685 31.7585 10.2175C31.8082 10.2666 31.8672 10.3054 31.932 10.3315C31.9968 10.3576 32.0661 10.3706 32.136 10.3697C32.2759 10.3697 32.4101 10.3141 32.5091 10.2151C32.608 10.1162 32.6636 9.98197 32.6636 9.84203V8.23203H34.5577L34.5645 6.66262Z" fill="black" stroke="black" stroke-width="0.322861" stroke-linecap="round" stroke-linejoin="round"/>
<path d="M32.7006 15.7671C32.2925 15.5386 31.9522 15.206 31.7145 14.8031C31.4769 14.4002 31.3503 13.9416 31.3477 13.4738C31.348 13.0952 31.4444 12.7229 31.6278 12.3916C31.8112 12.0604 32.0755 11.781 32.3962 11.5797V9.05648C32.3962 8.77059 32.5093 8.4963 32.7108 8.29352C32.9123 8.09073 33.1859 7.97591 33.4718 7.97412H38.1665V10.8627H38.1327V15.6994L32.7006 15.7671Z" fill="#FF1AF2" stroke="black" stroke-width="0.322861" stroke-miterlimit="10"/>
<path d="M33.7383 10.519V12.5011H34.55" stroke="black" stroke-width="0.322861" stroke-linecap="round" stroke-linejoin="round"/>
<path d="M32.1527 13.4738C32.1571 13.9403 32.2846 14.3973 32.5221 14.7987C32.7597 15.2002 33.0989 15.5319 33.5056 15.7603H32.7006C32.2929 15.5313 31.953 15.1985 31.7154 14.7958C31.4778 14.3931 31.351 13.9347 31.3477 13.4671C31.3482 13.0875 31.4445 12.7143 31.6278 12.382C31.8111 12.0497 32.0754 11.769 32.3962 11.5662V9.04971C32.3962 8.76445 32.5095 8.49087 32.7112 8.28915C32.9129 8.08744 33.1865 7.97412 33.4718 7.97412H34.3106C34.0253 7.97412 33.7518 8.08744 33.55 8.28915C33.3483 8.49087 33.235 8.76445 33.235 9.04971V11.5729C32.908 11.7718 32.637 12.0506 32.4476 12.3832C32.2583 12.7158 32.1567 13.0911 32.1527 13.4738Z" fill="white"/>
<path d="M32.7006 15.7671C32.2925 15.5386 31.9522 15.206 31.7145 14.8031C31.4769 14.4002 31.3503 13.9416 31.3477 13.4738C31.348 13.0952 31.4444 12.7229 31.6278 12.3916C31.8112 12.0604 32.0755 11.781 32.3962 11.5797V9.05648C32.3962 8.77059 32.5093 8.4963 32.7108 8.29352C32.9123 8.09073 33.1859 7.97591 33.4718 7.97412H38.1665V10.8627H38.1327V15.6994L32.7006 15.7671Z" stroke="black" stroke-width="0.322861" stroke-miterlimit="10"/>
<path d="M35.1672 7.51001C35.3044 7.30515 35.2496 7.02783 35.0447 6.89058C34.8399 6.75334 34.5626 6.80816 34.4253 7.01301L33.1226 8.95755C32.9853 9.16241 33.0402 9.43973 33.245 9.57697C33.4499 9.71421 33.7272 9.6594 33.8644 9.45455L35.1672 7.51001Z" fill="black" stroke="black" stroke-width="0.322861" stroke-linecap="round" stroke-linejoin="round"/>
<path d="M35.9303 7.0239C35.9127 6.77794 35.6991 6.59278 35.4532 6.61032C35.2072 6.62787 35.022 6.84147 35.0396 7.08743L35.2061 9.42208C35.2237 9.66804 35.4373 9.8532 35.6832 9.83566C35.9292 9.81811 36.1143 9.60451 36.0968 9.35855L35.9303 7.0239Z" fill="black" stroke="black" stroke-width="0.322861" stroke-linecap="round" stroke-linejoin="round"/>
<path d="M37.373 12.7776L37.7113 12.9806C37.8656 13.074 38.0395 13.1304 38.2193 13.1456C38.399 13.1607 38.5799 13.134 38.7476 13.0677C38.9154 13.0013 39.0656 12.8971 39.1864 12.7631C39.3072 12.6291 39.3954 12.469 39.4441 12.2953C39.4928 12.1216 39.5007 11.939 39.4671 11.7617C39.4336 11.5844 39.3595 11.4173 39.2507 11.2734C39.1419 11.1296 39.0012 11.0128 38.8398 10.9322C38.6784 10.8517 38.5005 10.8095 38.3201 10.8091C38.2083 10.8244 38.0975 10.847 37.9886 10.8767L37.373 11.0188" fill="#FF1AF2"/>
<path d="M37.373 12.7776L37.7113 12.9806C37.8656 13.074 38.0395 13.1304 38.2193 13.1456C38.399 13.1607 38.5799 13.134 38.7476 13.0677C38.9154 13.0013 39.0656 12.8971 39.1864 12.7631C39.3072 12.6291 39.3954 12.469 39.4441 12.2953C39.4928 12.1216 39.5007 11.939 39.4671 11.7617C39.4336 11.5844 39.3595 11.4173 39.2507 11.2734C39.1419 11.1296 39.0012 11.0128 38.8398 10.9322C38.6784 10.8517 38.5005 10.8095 38.3201 10.8091C38.2083 10.8244 38.0975 10.847 37.9886 10.8767L37.373 11.0188" stroke="black" stroke-width="0.322861" stroke-linecap="round" stroke-linejoin="round"/>
<path d="M38.0254 11.6353L38.7086 12.3185" stroke="black" stroke-width="0.322861" stroke-linecap="round" stroke-linejoin="round"/>
<path d="M38.0254 12.3185L38.7086 11.6353" stroke="black" stroke-width="0.322861" stroke-linecap="round" stroke-linejoin="round"/>
<path d="M36.3966 7.53429L36.391 7.53815C36.078 7.75547 36.0004 8.18541 36.2177 8.49844L39.3425 12.9995C39.5599 13.3125 39.9898 13.3901 40.3028 13.1728L40.3084 13.1689C40.6214 12.9516 40.699 12.5217 40.4817 12.2086L37.3569 7.7076C37.1395 7.39456 36.7096 7.31697 36.3966 7.53429Z" fill="black" stroke="black" stroke-width="0.322861" stroke-linecap="round" stroke-linejoin="round"/>
<path d="M37.3223 9.71924V11.5728C37.3223 11.5728 37.7484 10.6934 38.2423 10.7069L37.3223 9.71924Z" fill="black" stroke="black" stroke-width="0.322861" stroke-linecap="round" stroke-linejoin="round"/>
<path d="M37.5312 12.8662L38.0589 14.4762L38.0521 13.1097L37.5312 12.8662Z" fill="black" stroke="black" stroke-width="0.322861" stroke-linecap="round" stroke-linejoin="round"/>
<path d="M34.3624 14.5977H33.9294C33.6081 14.5977 33.3477 14.8581 33.3477 15.1794C33.3477 15.5007 33.6081 15.7612 33.9294 15.7612H34.3624C34.6837 15.7612 34.9441 15.5007 34.9441 15.1794C34.9441 14.8581 34.6837 14.5977 34.3624 14.5977Z" fill="black" stroke="black" stroke-width="0.322861" stroke-linecap="round" stroke-linejoin="round"/>
<path d="M36.9596 6.54892L36.9545 6.55337C36.6668 6.80327 36.6362 7.23908 36.8861 7.52677L40.0004 11.1118C40.2503 11.3995 40.6861 11.4302 40.9738 11.1803L40.9789 11.1758C41.2666 10.9259 41.2972 10.4901 41.0473 10.2024L37.933 6.61734C37.6831 6.32965 37.2473 6.29902 36.9596 6.54892Z" fill="black" stroke="black" stroke-width="0.322861" stroke-linecap="round" stroke-linejoin="round"/>
<path d="M28.586 14.665C28.586 14.9593 28.4691 15.2415 28.261 15.4495C28.053 15.6576 27.7708 15.7745 27.4766 15.7745C27.6225 15.7736 27.7672 15.8016 27.9022 15.8571C28.0372 15.9125 28.1598 15.9942 28.263 16.0974C28.3662 16.2006 28.4479 16.3232 28.5034 16.4582C28.5588 16.5933 28.5869 16.7379 28.586 16.8839C28.586 16.5896 28.7029 16.3074 28.9109 16.0994C29.119 15.8913 29.4012 15.7745 29.6954 15.7745C29.4017 15.7727 29.1205 15.6552 28.9129 15.4476C28.7052 15.2399 28.5877 14.9587 28.586 14.665ZM28.586 16.248C28.4752 16.0492 28.3112 15.8852 28.1124 15.7745C28.3098 15.6617 28.4733 15.4982 28.586 15.3009C28.7013 15.4985 28.8671 15.6619 29.0663 15.7745C28.862 15.8924 28.6954 16.066 28.586 16.275V16.248Z" fill="white"/>
<path d="M29.6946 15.5972C29.4457 15.5954 29.2076 15.4958 29.0317 15.3198C28.8557 15.1439 28.7561 14.9057 28.7543 14.6569C28.7543 14.6121 28.7365 14.569 28.7048 14.5373C28.673 14.5056 28.63 14.4878 28.5852 14.4878C28.5403 14.4878 28.4973 14.5056 28.4656 14.5373C28.4339 14.569 28.4161 14.6121 28.4161 14.6569C28.4161 14.9063 28.317 15.1455 28.1406 15.3218C27.9643 15.4981 27.7251 15.5972 27.4758 15.5972C27.4309 15.5972 27.3879 15.615 27.3562 15.6467C27.3245 15.6785 27.3066 15.7215 27.3066 15.7663C27.3066 15.8112 27.3245 15.8542 27.3562 15.8859C27.3879 15.9176 27.4309 15.9354 27.4758 15.9354C27.7251 15.9354 27.9643 16.0345 28.1406 16.2108C28.317 16.3872 28.4161 16.6264 28.4161 16.8757C28.4161 16.9206 28.4339 16.9636 28.4656 16.9953C28.4973 17.027 28.5403 17.0449 28.5852 17.0449C28.63 17.0449 28.673 17.027 28.7048 16.9953C28.7365 16.9636 28.7543 16.9206 28.7543 16.8757C28.7543 16.6264 28.8534 16.3872 29.0297 16.2108C29.206 16.0345 29.4452 15.9354 29.6946 15.9354C29.7394 15.9354 29.7825 15.9176 29.8142 15.8859C29.8459 15.8542 29.8637 15.8112 29.8637 15.7663C29.8637 15.7215 29.8459 15.6785 29.8142 15.6467C29.7825 15.615 29.7394 15.5972 29.6946 15.5972ZM28.5852 16.2737C28.4744 16.0749 28.3104 15.9109 28.1116 15.8001C28.309 15.6874 28.4725 15.5239 28.5852 15.3266C28.7005 15.5242 28.8663 15.6876 29.0655 15.8001C28.8648 15.9108 28.6986 16.0746 28.5852 16.2737Z" fill="black"/>
<path d="M29.0671 15.7743C28.8665 15.8849 28.7003 16.0488 28.5868 16.2478C28.476 16.0491 28.3121 15.8851 28.1133 15.7743C28.3106 15.6616 28.4741 15.4981 28.5868 15.3008C28.7022 15.4984 28.8679 15.6618 29.0671 15.7743Z" fill="white"/>
</g>
<defs>
<clipPath id="clip0_3775_11688">
<rect width="48" height="25" fill="white"/>
</clipPath>
</defs>
</svg>
