<svg width="170" height="12" viewBox="0 0 170 12" fill="none" xmlns="http://www.w3.org/2000/svg">
<g filter="url(#filter0_d_926_2978)">
<path d="M1.60744 11L2.22344 7.44L0.447439 0.2L3.80744 0.2L4.32744 4.464H4.35944L6.36744 0.2H9.76744L5.45544 7.416L4.82344 11H1.60744ZM12.3873 11.08C10.3393 11.08 9.21398 10.5867 9.01131 9.6C8.81398 8.61333 8.84865 7.27733 9.11531 5.592C9.39265 3.89067 9.81931 2.54933 10.3953 1.568C10.9713 0.581333 12.2806 0.0879993 14.3233 0.0879993C16.366 0.0879993 17.486 0.581333 17.6833 1.568C17.886 2.55467 17.854 3.896 17.5873 5.592C17.31 7.28267 16.8833 8.62133 16.3073 9.608C15.7366 10.5893 14.43 11.08 12.3873 11.08ZM12.7873 8.832C13.1233 8.832 13.398 8.728 13.6113 8.52C13.83 8.312 14.0886 7.336 14.3873 5.592C14.6913 3.8 14.774 2.81067 14.6353 2.624C14.502 2.432 14.2673 2.336 13.9313 2.336C13.5846 2.336 13.3046 2.432 13.0913 2.624C12.878 2.816 12.6193 3.80533 12.3153 5.592C12.0273 7.336 11.9473 8.312 12.0753 8.52C12.2033 8.728 12.4406 8.832 12.7873 8.832ZM21.5648 11.048C20.1141 11.048 19.1035 10.816 18.5328 10.352C17.9621 9.888 17.7728 9.12 17.9648 8.048L19.3408 0.2H22.5568L21.2448 7.664C21.1755 8.06933 21.1861 8.36 21.2768 8.536C21.3675 8.712 21.5968 8.8 21.9648 8.8C22.3435 8.8 22.6075 8.712 22.7568 8.536C22.9115 8.36 23.0235 8.06933 23.0928 7.664L24.4048 0.2L27.6288 0.2L26.2528 8.048C26.0608 9.12 25.5941 9.888 24.8528 10.352C24.1168 10.816 23.0208 11.048 21.5648 11.048ZM29.8147 11L31.7187 0.2H34.9347L33.4227 8.776H35.9987L35.6067 11L29.8147 11ZM40.5467 11.08C38.4987 11.08 37.3734 10.5867 37.1707 9.6C36.9734 8.61333 37.008 7.27733 37.2747 5.592C37.552 3.89067 37.9787 2.54933 38.5547 1.568C39.1307 0.581333 40.44 0.0879993 42.4827 0.0879993C44.5254 0.0879993 45.6454 0.581333 45.8427 1.568C46.0454 2.55467 46.0134 3.896 45.7467 5.592C45.4694 7.28267 45.0427 8.62133 44.4667 9.608C43.896 10.5893 42.5894 11.08 40.5467 11.08ZM40.9467 8.832C41.2827 8.832 41.5574 8.728 41.7707 8.52C41.9894 8.312 42.248 7.336 42.5467 5.592C42.8507 3.8 42.9334 2.81067 42.7947 2.624C42.6614 2.432 42.4267 2.336 42.0907 2.336C41.744 2.336 41.464 2.432 41.2507 2.624C41.0374 2.816 40.7787 3.80533 40.4747 5.592C40.1867 7.336 40.1067 8.312 40.2347 8.52C40.3627 8.728 40.6 8.832 40.9467 8.832ZM49.6762 11.048C47.6282 11.048 46.4922 10.656 46.2682 9.872C46.0442 9.08267 46.0175 8.19733 46.1882 7.216H49.4122C49.2682 8.064 49.2709 8.544 49.4202 8.656C49.5695 8.76267 49.7802 8.816 50.0522 8.816C50.3242 8.816 50.5535 8.77067 50.7402 8.68C50.9322 8.584 51.0602 8.36 51.1242 8.008C51.1935 7.608 51.0922 7.34667 50.8202 7.224C50.5535 7.10133 50.1109 6.952 49.4922 6.776C48.2015 6.38133 47.4042 5.97067 47.1002 5.544C46.8015 5.11733 46.7082 4.48533 46.8202 3.648C46.9055 2.832 47.2149 2.03467 47.7482 1.256C48.2869 0.477333 49.5642 0.0879993 51.5802 0.0879993C53.5855 0.0879993 54.7002 0.501333 54.9242 1.328C55.1482 2.15467 55.1829 3.01067 55.0282 3.896H51.8042C51.9482 3.06933 51.9402 2.60267 51.7802 2.496C51.6255 2.38933 51.4202 2.336 51.1642 2.336C50.8922 2.336 50.6549 2.384 50.4522 2.48C50.2549 2.57067 50.1269 2.776 50.0682 3.096C49.9882 3.592 50.0815 3.896 50.3482 4.008C50.6149 4.11467 51.0895 4.26133 51.7722 4.448C53.0522 4.84267 53.8469 5.21867 54.1562 5.576C54.4709 5.93333 54.5642 6.544 54.4362 7.408C54.3242 8.23467 54.0095 9.048 53.4922 9.848C52.9802 10.648 51.7082 11.048 49.6762 11.048ZM56.5473 11L58.0433 2.448H55.9793L56.3873 0.2L63.7313 0.2L63.3233 2.448H61.2673L59.7633 11H56.5473ZM67.6192 11L69.1152 2.448H67.0512L67.4592 0.2H74.8032L74.3952 2.448H72.3392L70.8352 11H67.6192ZM73.8272 11L75.7312 0.2H78.9472L78.1792 4.552L79.8832 4.552L80.6512 0.2L83.8752 0.2L81.9712 11H78.7472L79.4832 6.8L77.7712 6.8L77.0432 11H73.8272ZM82.9079 11L84.8119 0.2H90.9879L90.5879 2.448H87.6359L87.2839 4.472H90.0439L89.6519 6.648H86.8919L86.5319 8.752H89.4759L89.0839 11H82.9079ZM97.1776 11.064C95.1296 11.064 94.0069 10.5573 93.8096 9.544C93.6176 8.52533 93.6602 7.19733 93.9376 5.56C94.2096 3.90667 94.6229 2.58133 95.1776 1.584C95.7376 0.586666 97.0336 0.0879993 99.0656 0.0879993C101.146 0.0879993 102.266 0.581333 102.426 1.568C102.586 2.54933 102.575 3.59733 102.394 4.712H99.1616C99.3749 3.47467 99.4229 2.77067 99.3056 2.6C99.1936 2.424 98.9909 2.336 98.6976 2.336C98.3989 2.336 98.1429 2.432 97.9296 2.624C97.7216 2.81067 97.4682 3.78933 97.1696 5.56C96.8709 7.33067 96.7856 8.31733 96.9136 8.52C97.0416 8.71733 97.2549 8.816 97.5536 8.816C97.8469 8.816 98.0842 8.728 98.2656 8.552C98.4469 8.376 98.6442 7.68267 98.8576 6.472H102.074C101.892 7.53867 101.548 8.57067 101.042 9.568C100.54 10.5653 99.2522 11.064 97.1776 11.064ZM102.143 11L104.047 0.2L107.263 0.2L106.495 4.552H108.199L108.967 0.2H112.191L110.287 11H107.063L107.799 6.8H106.087L105.359 11H102.143ZM111.012 11L114.932 0.183999L119.692 0.183999L119.844 11H116.564L116.692 8.584H115.012L114.284 11H111.012ZM115.684 6.376H116.796L116.988 2.256H116.948L115.684 6.376ZM120.605 11L122.509 0.2L125.725 0.2L124.213 8.776H126.789L126.397 11H120.605ZM127.337 11L129.241 0.2L132.457 0.2L130.945 8.776H133.521L133.129 11H127.337ZM133.98 11L135.884 0.2L142.06 0.2L141.66 2.448H138.708L138.356 4.472H141.116L140.724 6.648H137.964L137.604 8.752H140.548L140.156 11H133.98ZM141.127 11L143.031 0.2L148.007 0.2L148.247 8.56H148.287L149.807 0.2H153.007L151.103 11H146.087L145.831 2.496H145.807L144.311 11H141.127ZM155.756 11.064C153.943 11.064 152.948 10.5573 152.772 9.544C152.596 8.53067 152.636 7.20267 152.892 5.56C153.169 3.864 153.58 2.528 154.124 1.552C154.673 0.575999 155.972 0.0879993 158.02 0.0879993C159.983 0.0879993 161.076 0.549333 161.3 1.472C161.524 2.39467 161.569 3.296 161.436 4.176H158.22C158.353 3.23733 158.367 2.696 158.26 2.552C158.159 2.408 157.959 2.336 157.66 2.336C157.345 2.336 157.087 2.43733 156.884 2.64C156.681 2.84267 156.417 3.87467 156.092 5.736C155.852 7.15467 155.783 8.024 155.884 8.344C155.991 8.65867 156.215 8.816 156.556 8.816C156.86 8.816 157.087 8.73333 157.236 8.568C157.385 8.40267 157.535 7.97333 157.684 7.28L157.708 7.224H156.908L157.252 5.224H161.252L160.252 11L158.58 11L158.324 10.088C157.817 10.7387 156.961 11.064 155.756 11.064ZM161.189 11L163.093 0.2H169.269L168.869 2.448L165.917 2.448L165.565 4.472H168.325L167.933 6.648H165.173L164.813 8.752H167.757L167.365 11H161.189Z" fill="#EE4D37"/>
</g>
<defs>
<filter id="filter0_d_926_2978" x="0.447266" y="0.0878906" width="168.822" height="10.9922" filterUnits="userSpaceOnUse" color-interpolation-filters="sRGB">
<feFlood flood-opacity="0" result="BackgroundImageFix"/>
<feColorMatrix in="SourceAlpha" type="matrix" values="0 0 0 0 0 0 0 0 0 0 0 0 0 0 0 0 0 0 127 0" result="hardAlpha"/>
<feOffset/>
<feComposite in2="hardAlpha" operator="out"/>
<feColorMatrix type="matrix" values="0 0 0 0 0.913725 0 0 0 0 0.321569 0 0 0 0 0.137255 0 0 0 1 0"/>
<feBlend mode="normal" in2="BackgroundImageFix" result="effect1_dropShadow_926_2978"/>
<feBlend mode="normal" in="SourceGraphic" in2="effect1_dropShadow_926_2978" result="shape"/>
</filter>
</defs>
</svg>
