<svg width="74" height="74" viewBox="0 0 74 74" fill="none" xmlns="http://www.w3.org/2000/svg">
<circle cx="39.1272" cy="39.1277" r="23.8723" fill="#C21313" stroke="#0D0D0D" stroke-width="0.5" stroke-linejoin="round"/>
<circle cx="35.8723" cy="35.8723" r="23.8723" fill="#FF5050" stroke="#0D0D0D" stroke-width="0.5" stroke-linejoin="round"/>
<mask id="path-3-outside-1_4326_4080" maskUnits="userSpaceOnUse" x="21.891" y="21.2822" width="29.6985" height="29.6985" fill="black">
<rect fill="white" x="21.891" y="21.2822" width="29.6985" height="29.6985"/>
<path fill-rule="evenodd" clip-rule="evenodd" d="M44.9235 30.8797L42.3394 28.2956L36.74 33.895L31.1408 28.2959L28.5567 30.8799L34.1559 36.4791L28.5578 42.0773L31.1418 44.6613L36.74 39.0632L42.3384 44.6616L44.9225 42.0775L39.324 36.4791L44.9235 30.8797Z"/>
</mask>
<path fill-rule="evenodd" clip-rule="evenodd" d="M44.9235 30.8797L42.3394 28.2956L36.74 33.895L31.1408 28.2959L28.5567 30.8799L34.1559 36.4791L28.5578 42.0773L31.1418 44.6613L36.74 39.0632L42.3384 44.6616L44.9225 42.0775L39.324 36.4791L44.9235 30.8797Z" fill="black"/>
<path d="M42.3394 28.2956L42.693 27.9421L42.3394 27.5885L41.9859 27.9421L42.3394 28.2956ZM44.9235 30.8797L45.277 31.2332L45.6306 30.8797L45.277 30.5261L44.9235 30.8797ZM36.74 33.895L36.3864 34.2486L36.74 34.6022L37.0935 34.2486L36.74 33.895ZM31.1408 28.2959L31.4944 27.9423L31.1408 27.5888L30.7873 27.9423L31.1408 28.2959ZM28.5567 30.8799L28.2032 30.5264L27.8496 30.8799L28.2032 31.2335L28.5567 30.8799ZM34.1559 36.4791L34.5095 36.8327L34.863 36.4791L34.5095 36.1256L34.1559 36.4791ZM28.5578 42.0773L28.2042 41.7237L27.8506 42.0773L28.2042 42.4308L28.5578 42.0773ZM31.1418 44.6613L30.7883 45.0149L31.1418 45.3684L31.4954 45.0149L31.1418 44.6613ZM36.74 39.0632L37.0935 38.7096L36.74 38.3561L36.3864 38.7096L36.74 39.0632ZM42.3384 44.6616L41.9848 45.0151L42.3384 45.3687L42.692 45.0151L42.3384 44.6616ZM44.9225 42.0775L45.276 42.4311L45.6296 42.0775L45.276 41.724L44.9225 42.0775ZM39.324 36.4791L38.9705 36.1256L38.6169 36.4791L38.9705 36.8327L39.324 36.4791ZM41.9859 28.6492L44.5699 31.2332L45.277 30.5261L42.693 27.9421L41.9859 28.6492ZM37.0935 34.2486L42.693 28.6492L41.9859 27.9421L36.3864 33.5415L37.0935 34.2486ZM30.7873 28.6494L36.3864 34.2486L37.0935 33.5415L31.4944 27.9423L30.7873 28.6494ZM28.9103 31.2335L31.4944 28.6494L30.7873 27.9423L28.2032 30.5264L28.9103 31.2335ZM34.5095 36.1256L28.9103 30.5264L28.2032 31.2335L33.8024 36.8327L34.5095 36.1256ZM28.9113 42.4308L34.5095 36.8327L33.8024 36.1256L28.2042 41.7237L28.9113 42.4308ZM31.4954 44.3078L28.9113 41.7237L28.2042 42.4308L30.7883 45.0149L31.4954 44.3078ZM36.3864 38.7096L30.7883 44.3078L31.4954 45.0149L37.0935 39.4167L36.3864 38.7096ZM42.692 44.308L37.0935 38.7096L36.3864 39.4167L41.9848 45.0151L42.692 44.308ZM44.5689 41.724L41.9848 44.308L42.692 45.0151L45.276 42.4311L44.5689 41.724ZM38.9705 36.8327L44.5689 42.4311L45.276 41.724L39.6776 36.1256L38.9705 36.8327ZM44.5699 30.5261L38.9705 36.1256L39.6776 36.8327L45.277 31.2332L44.5699 30.5261Z" fill="black" mask="url(#path-3-outside-1_4326_4080)"/>
<mask id="path-5-outside-2_4326_4080" maskUnits="userSpaceOnUse" x="20.6742" y="20.0643" width="29.6985" height="29.6985" fill="black">
<rect fill="white" x="20.6742" y="20.0643" width="29.6985" height="29.6985"/>
<path fill-rule="evenodd" clip-rule="evenodd" d="M43.7068 29.6619L41.1227 27.0778L35.5234 32.6771L29.9241 27.0778L27.3401 29.6619L32.9394 35.2612L27.3411 40.8595L29.9252 43.4435L35.5235 37.8452L41.1217 43.4435L43.7058 40.8595L38.1075 35.2612L43.7068 29.6619Z"/>
</mask>
<path fill-rule="evenodd" clip-rule="evenodd" d="M43.7068 29.6619L41.1227 27.0778L35.5234 32.6771L29.9241 27.0778L27.3401 29.6619L32.9394 35.2612L27.3411 40.8595L29.9252 43.4435L35.5235 37.8452L41.1217 43.4435L43.7058 40.8595L38.1075 35.2612L43.7068 29.6619Z" fill="white"/>
<path d="M41.1227 27.0778L41.4763 26.7243L41.1227 26.3707L40.7692 26.7243L41.1227 27.0778ZM43.7068 29.6619L44.0604 30.0154L44.4139 29.6619L44.0604 29.3083L43.7068 29.6619ZM35.5234 32.6771L35.1699 33.0307L35.5235 33.3842L35.877 33.0307L35.5234 32.6771ZM29.9241 27.0778L30.2777 26.7243L29.9241 26.3707L29.5706 26.7243L29.9241 27.0778ZM27.3401 29.6619L26.9865 29.3083L26.633 29.6619L26.9865 30.0154L27.3401 29.6619ZM32.9394 35.2612L33.2929 35.6147L33.6465 35.2612L33.2929 34.9076L32.9394 35.2612ZM27.3411 40.8595L26.9875 40.5059L26.634 40.8595L26.9875 41.213L27.3411 40.8595ZM29.9252 43.4435L29.5716 43.7971L29.9252 44.1506L30.2787 43.7971L29.9252 43.4435ZM35.5235 37.8452L35.877 37.4917L35.5235 37.1381L35.1699 37.4917L35.5235 37.8452ZM41.1217 43.4435L40.7682 43.7971L41.1217 44.1506L41.4753 43.7971L41.1217 43.4435ZM43.7058 40.8595L44.0594 41.213L44.4129 40.8595L44.0594 40.5059L43.7058 40.8595ZM38.1075 35.2612L37.754 34.9076L37.4004 35.2612L37.754 35.6147L38.1075 35.2612ZM40.7692 27.4314L43.3533 30.0154L44.0604 29.3083L41.4763 26.7243L40.7692 27.4314ZM35.877 33.0307L41.4763 27.4314L40.7692 26.7243L35.1699 32.3236L35.877 33.0307ZM29.5706 27.4314L35.1699 33.0307L35.877 32.3236L30.2777 26.7243L29.5706 27.4314ZM27.6936 30.0154L30.2777 27.4314L29.5706 26.7243L26.9865 29.3083L27.6936 30.0154ZM33.2929 34.9076L27.6936 29.3083L26.9865 30.0154L32.5858 35.6147L33.2929 34.9076ZM27.6946 41.213L33.2929 35.6147L32.5858 34.9076L26.9875 40.5059L27.6946 41.213ZM30.2787 43.09L27.6946 40.5059L26.9875 41.213L29.5716 43.7971L30.2787 43.09ZM35.1699 37.4917L29.5716 43.09L30.2787 43.7971L35.877 38.1988L35.1699 37.4917ZM41.4753 43.09L35.877 37.4917L35.1699 38.1988L40.7682 43.7971L41.4753 43.09ZM43.3522 40.5059L40.7682 43.09L41.4753 43.7971L44.0594 41.213L43.3522 40.5059ZM37.754 35.6147L43.3522 41.213L44.0594 40.5059L38.4611 34.9076L37.754 35.6147ZM43.3533 29.3083L37.754 34.9076L38.4611 35.6147L44.0604 30.0154L43.3533 29.3083Z" fill="black" mask="url(#path-5-outside-2_4326_4080)"/>
</svg>
