<svg width="205" height="54" viewBox="0 0 205 54" fill="none" xmlns="http://www.w3.org/2000/svg">
<g filter="url(#filter0_d_16_4)">
<mask id="path-1-outside-1_16_4" maskUnits="userSpaceOnUse" x="9" y="10" width="190" height="29" fill="black">
<rect fill="white" x="9" y="10" width="190" height="29"/>
<path d="M18.1584 36.14C14.1917 36.14 12.0159 35.0317 11.6309 32.815C11.2459 30.5983 11.3334 27.6933 11.8934 24.1C12.5 20.39 13.3984 17.4675 14.5884 15.3325C15.79 13.1975 18.6309 12.13 23.1109 12.13C27.4042 12.13 29.7959 13.1392 30.2859 15.1575C30.7759 17.1758 30.875 19.1475 30.5834 21.0725H23.5484C23.84 19.0192 23.8692 17.835 23.6359 17.52C23.4142 17.205 22.9767 17.0475 22.3234 17.0475C21.635 17.0475 21.0692 17.2692 20.6259 17.7125C20.1825 18.1558 19.605 20.4133 18.8934 24.485C18.3684 27.5883 18.2167 29.49 18.4384 30.19C18.6717 30.8783 19.1617 31.2225 19.9084 31.2225C20.5734 31.2225 21.0692 31.0417 21.3959 30.68C21.7225 30.3183 22.0492 29.3792 22.3759 27.8625L22.4284 27.74H20.6784L21.4309 23.365H30.1809L27.9934 36H24.3359L23.7759 34.005C22.6675 35.4283 20.795 36.14 18.1584 36.14ZM29.4387 36L38.0137 12.34L48.4262 12.34L48.7587 36H41.5837L41.8637 30.715H38.1887L36.5962 36H29.4387ZM39.6587 25.885H42.0912L42.5112 16.8725H42.4237L39.6587 25.885ZM50.2485 36L54.4485 12.375H65.5435L64.2485 30.7675H64.301L69.481 12.375H80.8035L76.6735 36H69.726L72.9985 17.2925H72.9635L67.381 35.9475H59.5585L60.556 17.2925H60.521L57.196 36H50.2485ZM78.5856 36L82.7506 12.375H96.2606L95.3856 17.2925H88.9281L88.1581 21.72H94.1956L93.3381 26.48H87.3006L86.5131 31.0825H92.9531L92.0956 36H78.5856ZM100.733 36L104.898 12.375L116.413 12.375C119.4 12.375 120.928 13.3667 120.998 15.35C121.08 17.3217 121.016 19.1475 120.806 20.8275C120.619 22.7525 120.094 24.765 119.231 26.865C118.367 28.965 116.436 30.015 113.438 30.015H108.801L107.768 36H100.733ZM109.693 25.0975H111.881C112.371 25.0975 112.756 24.835 113.036 24.31C113.316 23.785 113.572 22.7058 113.806 21.0725C114.051 19.5442 114.138 18.535 114.068 18.045C114.01 17.5433 113.736 17.2925 113.246 17.2925H111.058L109.693 25.0975ZM118.284 36L126.859 12.34H137.271L137.604 36H130.429L130.709 30.715H127.034L125.441 36H118.284ZM128.504 25.885H130.936L131.356 16.8725H131.269L128.504 25.885ZM148.002 36.105C144.828 36.105 142.618 35.5975 141.369 34.5825C140.121 33.5675 139.707 31.8875 140.127 29.5425L143.137 12.375H150.172L147.302 28.7025C147.15 29.5892 147.173 30.225 147.372 30.61C147.57 30.995 148.072 31.1875 148.877 31.1875C149.705 31.1875 150.283 30.995 150.609 30.61C150.948 30.225 151.193 29.5892 151.344 28.7025L154.214 12.375H161.267L158.257 29.5425C157.837 31.8875 156.816 33.5675 155.194 34.5825C153.584 35.5975 151.187 36.105 148.002 36.105ZM167.915 36.105C163.435 36.105 160.95 35.2475 160.46 33.5325C159.97 31.8058 159.911 29.8692 160.285 27.7225H167.337C167.022 29.5775 167.028 30.6275 167.355 30.8725C167.681 31.1058 168.142 31.2225 168.737 31.2225C169.332 31.2225 169.834 31.1233 170.242 30.925C170.662 30.715 170.942 30.225 171.082 29.455C171.234 28.58 171.012 28.0083 170.417 27.74C169.834 27.4717 168.866 27.145 167.512 26.76C164.689 25.8967 162.945 24.9983 162.28 24.065C161.626 23.1317 161.422 21.7492 161.667 19.9175C161.854 18.1325 162.531 16.3883 163.697 14.685C164.876 12.9817 167.67 12.13 172.08 12.13C176.466 12.13 178.905 13.0342 179.395 14.8425C179.885 16.6508 179.961 18.5233 179.622 20.46H172.57C172.885 18.6517 172.867 17.6308 172.517 17.3975C172.179 17.1642 171.73 17.0475 171.17 17.0475C170.575 17.0475 170.056 17.1525 169.612 17.3625C169.181 17.5608 168.901 18.01 168.772 18.71C168.597 19.795 168.801 20.46 169.385 20.705C169.968 20.9383 171.006 21.2592 172.5 21.6675C175.3 22.5308 177.038 23.3533 177.715 24.135C178.403 24.9167 178.607 26.2525 178.327 28.1425C178.082 29.9508 177.394 31.73 176.262 33.48C175.142 35.23 172.36 36.105 167.915 36.105ZM178.664 36L182.829 12.375H196.339L195.464 17.2925H189.007L188.237 21.72H194.274L193.417 26.48H187.379L186.592 31.0825H193.032L192.174 36H178.664Z"/>
</mask>
<path d="M18.1584 36.14C14.1917 36.14 12.0159 35.0317 11.6309 32.815C11.2459 30.5983 11.3334 27.6933 11.8934 24.1C12.5 20.39 13.3984 17.4675 14.5884 15.3325C15.79 13.1975 18.6309 12.13 23.1109 12.13C27.4042 12.13 29.7959 13.1392 30.2859 15.1575C30.7759 17.1758 30.875 19.1475 30.5834 21.0725H23.5484C23.84 19.0192 23.8692 17.835 23.6359 17.52C23.4142 17.205 22.9767 17.0475 22.3234 17.0475C21.635 17.0475 21.0692 17.2692 20.6259 17.7125C20.1825 18.1558 19.605 20.4133 18.8934 24.485C18.3684 27.5883 18.2167 29.49 18.4384 30.19C18.6717 30.8783 19.1617 31.2225 19.9084 31.2225C20.5734 31.2225 21.0692 31.0417 21.3959 30.68C21.7225 30.3183 22.0492 29.3792 22.3759 27.8625L22.4284 27.74H20.6784L21.4309 23.365H30.1809L27.9934 36H24.3359L23.7759 34.005C22.6675 35.4283 20.795 36.14 18.1584 36.14ZM29.4387 36L38.0137 12.34L48.4262 12.34L48.7587 36H41.5837L41.8637 30.715H38.1887L36.5962 36H29.4387ZM39.6587 25.885H42.0912L42.5112 16.8725H42.4237L39.6587 25.885ZM50.2485 36L54.4485 12.375H65.5435L64.2485 30.7675H64.301L69.481 12.375H80.8035L76.6735 36H69.726L72.9985 17.2925H72.9635L67.381 35.9475H59.5585L60.556 17.2925H60.521L57.196 36H50.2485ZM78.5856 36L82.7506 12.375H96.2606L95.3856 17.2925H88.9281L88.1581 21.72H94.1956L93.3381 26.48H87.3006L86.5131 31.0825H92.9531L92.0956 36H78.5856ZM100.733 36L104.898 12.375L116.413 12.375C119.4 12.375 120.928 13.3667 120.998 15.35C121.08 17.3217 121.016 19.1475 120.806 20.8275C120.619 22.7525 120.094 24.765 119.231 26.865C118.367 28.965 116.436 30.015 113.438 30.015H108.801L107.768 36H100.733ZM109.693 25.0975H111.881C112.371 25.0975 112.756 24.835 113.036 24.31C113.316 23.785 113.572 22.7058 113.806 21.0725C114.051 19.5442 114.138 18.535 114.068 18.045C114.01 17.5433 113.736 17.2925 113.246 17.2925H111.058L109.693 25.0975ZM118.284 36L126.859 12.34H137.271L137.604 36H130.429L130.709 30.715H127.034L125.441 36H118.284ZM128.504 25.885H130.936L131.356 16.8725H131.269L128.504 25.885ZM148.002 36.105C144.828 36.105 142.618 35.5975 141.369 34.5825C140.121 33.5675 139.707 31.8875 140.127 29.5425L143.137 12.375H150.172L147.302 28.7025C147.15 29.5892 147.173 30.225 147.372 30.61C147.57 30.995 148.072 31.1875 148.877 31.1875C149.705 31.1875 150.283 30.995 150.609 30.61C150.948 30.225 151.193 29.5892 151.344 28.7025L154.214 12.375H161.267L158.257 29.5425C157.837 31.8875 156.816 33.5675 155.194 34.5825C153.584 35.5975 151.187 36.105 148.002 36.105ZM167.915 36.105C163.435 36.105 160.95 35.2475 160.46 33.5325C159.97 31.8058 159.911 29.8692 160.285 27.7225H167.337C167.022 29.5775 167.028 30.6275 167.355 30.8725C167.681 31.1058 168.142 31.2225 168.737 31.2225C169.332 31.2225 169.834 31.1233 170.242 30.925C170.662 30.715 170.942 30.225 171.082 29.455C171.234 28.58 171.012 28.0083 170.417 27.74C169.834 27.4717 168.866 27.145 167.512 26.76C164.689 25.8967 162.945 24.9983 162.28 24.065C161.626 23.1317 161.422 21.7492 161.667 19.9175C161.854 18.1325 162.531 16.3883 163.697 14.685C164.876 12.9817 167.67 12.13 172.08 12.13C176.466 12.13 178.905 13.0342 179.395 14.8425C179.885 16.6508 179.961 18.5233 179.622 20.46H172.57C172.885 18.6517 172.867 17.6308 172.517 17.3975C172.179 17.1642 171.73 17.0475 171.17 17.0475C170.575 17.0475 170.056 17.1525 169.612 17.3625C169.181 17.5608 168.901 18.01 168.772 18.71C168.597 19.795 168.801 20.46 169.385 20.705C169.968 20.9383 171.006 21.2592 172.5 21.6675C175.3 22.5308 177.038 23.3533 177.715 24.135C178.403 24.9167 178.607 26.2525 178.327 28.1425C178.082 29.9508 177.394 31.73 176.262 33.48C175.142 35.23 172.36 36.105 167.915 36.105ZM178.664 36L182.829 12.375H196.339L195.464 17.2925H189.007L188.237 21.72H194.274L193.417 26.48H187.379L186.592 31.0825H193.032L192.174 36H178.664Z" fill="#9DFFD6"/>
<path d="M11.6309 32.815L9.66038 33.1572L11.6309 32.815ZM11.8934 24.1L9.9196 23.7772L9.91839 23.7846L9.91723 23.792L11.8934 24.1ZM14.5884 15.3325L12.8455 14.3515L12.8414 14.3588L14.5884 15.3325ZM30.2859 15.1575L28.3423 15.6293L28.3423 15.6293L30.2859 15.1575ZM30.5834 21.0725V23.0725H32.3032L32.5608 21.3721L30.5834 21.0725ZM23.5484 21.0725L21.5683 20.7912L21.2442 23.0725H23.5484V21.0725ZM23.6359 17.52L22.0003 18.671L22.0143 18.6909L22.0288 18.7105L23.6359 17.52ZM18.8934 24.485L16.9232 24.1406L16.9214 24.1514L18.8934 24.485ZM18.4384 30.19L16.5317 30.7938L16.5378 30.813L16.5442 30.8321L18.4384 30.19ZM21.3959 30.68L19.9117 29.3394L19.9117 29.3394L21.3959 30.68ZM22.3759 27.8625L20.5376 27.0747L20.4614 27.2524L20.4207 27.4414L22.3759 27.8625ZM22.4284 27.74L24.2667 28.5278L25.4614 25.74H22.4284V27.74ZM20.6784 27.74L18.7073 27.401L18.305 29.74H20.6784V27.74ZM21.4309 23.365V21.365H19.7455L19.4598 23.026L21.4309 23.365ZM30.1809 23.365L32.1516 23.7062L32.5569 21.365H30.1809V23.365ZM27.9934 36V38H29.6769L29.9641 36.3412L27.9934 36ZM24.3359 36L22.4103 36.5405L22.82 38H24.3359V36ZM23.7759 34.005L25.7015 33.4645L24.6311 29.6514L22.1979 32.7762L23.7759 34.005ZM18.1584 34.14C16.3156 34.14 15.1433 33.875 14.4593 33.5266C13.8771 33.2301 13.6759 32.9017 13.6014 32.4728L9.66038 33.1572C9.97088 34.945 11.0501 36.2791 12.6437 37.0909C14.1356 37.8508 16.0345 38.14 18.1584 38.14V34.14ZM13.6014 32.4728C13.2695 30.5622 13.3251 27.9015 13.8695 24.408L9.91723 23.792C9.34168 27.4852 9.22222 30.6345 9.66038 33.1572L13.6014 32.4728ZM13.8672 24.4228C14.4544 20.8317 15.3017 18.1606 16.3353 16.3062L12.8414 14.3588C11.495 16.7744 10.5457 19.9483 9.9196 23.7772L13.8672 24.4228ZM16.3313 16.3135C16.9601 15.1963 18.7559 14.13 23.1109 14.13V10.13C18.5058 10.13 14.62 11.1987 12.8455 14.3515L16.3313 16.3135ZM23.1109 14.13C25.1426 14.13 26.5068 14.375 27.3471 14.7296C28.1212 15.0562 28.284 15.3891 28.3423 15.6293L32.2294 14.6857C31.7977 12.9075 30.5197 11.7267 28.9022 11.0442C27.3508 10.3896 25.3725 10.13 23.1109 10.13V14.13ZM28.3423 15.6293C28.7752 17.4122 28.8561 19.1216 28.606 20.7729L32.5608 21.3721C32.894 19.1734 32.7766 16.9394 32.2294 14.6857L28.3423 15.6293ZM30.5834 19.0725H23.5484V23.0725H30.5834V19.0725ZM25.5285 21.3538C25.6785 20.298 25.771 19.4 25.7884 18.6936C25.797 18.3434 25.789 17.9841 25.7434 17.6493C25.7073 17.3848 25.6136 16.8298 25.243 16.3295L22.0288 18.7105C21.8827 18.5133 21.8234 18.343 21.8035 18.2799C21.7809 18.208 21.7775 18.171 21.78 18.1891C21.7854 18.2291 21.7956 18.3533 21.7896 18.5951C21.7778 19.0729 21.71 19.7936 21.5683 20.7912L25.5285 21.3538ZM25.2715 16.369C24.4751 15.2373 23.1772 15.0475 22.3234 15.0475V19.0475C22.5053 19.0475 22.5311 19.0715 22.4641 19.0474C22.3776 19.0163 22.1716 18.9144 22.0003 18.671L25.2715 16.369ZM22.3234 15.0475C21.1617 15.0475 20.0686 15.4414 19.2117 16.2983L22.0401 19.1267C22.0698 19.097 22.1084 19.0475 22.3234 19.0475V15.0475ZM19.2117 16.2983C18.7691 16.7408 18.5277 17.3333 18.3974 17.678C18.2328 18.1136 18.0757 18.6441 17.9227 19.2425C17.615 20.4452 17.2823 22.0863 16.9232 24.1406L20.8635 24.8293C21.2161 22.812 21.528 21.2885 21.7979 20.2338C21.9336 19.7034 22.0485 19.3319 22.1391 19.0923C22.264 18.7618 22.2609 18.9059 22.0401 19.1267L19.2117 16.2983ZM16.9214 24.1514C16.6545 25.729 16.4747 27.0452 16.3922 28.0797C16.3187 29.0017 16.2876 30.023 16.5317 30.7938L20.3451 29.5862C20.3675 29.657 20.3014 29.3774 20.3796 28.3978C20.4487 27.5306 20.6073 26.3443 20.8654 24.8186L16.9214 24.1514ZM16.5442 30.8321C16.7675 31.4906 17.1699 32.1365 17.8313 32.601C18.4881 33.0623 19.2261 33.2225 19.9084 33.2225V29.2225C19.844 29.2225 19.9636 29.2106 20.1304 29.3277C20.3018 29.4481 20.3426 29.5778 20.3325 29.5479L16.5442 30.8321ZM19.9084 33.2225C20.9244 33.2225 22.0509 32.9387 22.8801 32.0206L19.9117 29.3394C19.9445 29.3031 19.9813 29.272 20.018 29.2478C20.0541 29.224 20.0817 29.2123 20.0937 29.2079C20.1141 29.2005 20.0653 29.2225 19.9084 29.2225V33.2225ZM22.8801 32.0206C23.3273 31.5255 23.5961 30.8755 23.7749 30.3614C23.9756 29.7844 24.1589 29.083 24.331 28.2836L20.4207 27.4414C20.2662 28.1587 20.1229 28.6851 19.9969 29.0473C19.9343 29.2273 19.885 29.3404 19.8536 29.4028C19.8171 29.4756 19.8294 29.4306 19.9117 29.3394L22.8801 32.0206ZM24.2142 28.6503L24.2667 28.5278L20.5901 26.9522L20.5376 27.0747L24.2142 28.6503ZM22.4284 25.74H20.6784V29.74H22.4284V25.74ZM22.6494 28.079L23.4019 23.704L19.4598 23.026L18.7073 27.401L22.6494 28.079ZM21.4309 25.365H30.1809V21.365H21.4309V25.365ZM28.2102 23.0238L26.0227 35.6588L29.9641 36.3412L32.1516 23.7062L28.2102 23.0238ZM27.9934 34H24.3359V38H27.9934V34ZM26.2615 35.4595L25.7015 33.4645L21.8503 34.5455L22.4103 36.5405L26.2615 35.4595ZM22.1979 32.7762C21.6193 33.5192 20.4745 34.14 18.1584 34.14V38.14C21.1156 38.14 23.7158 37.3375 25.3539 35.2338L22.1979 32.7762ZM29.4387 36L27.5584 35.3185L26.5865 38H29.4387V36ZM38.0137 12.34V10.34H36.6112L36.1334 11.6585L38.0137 12.34ZM48.4262 12.34L50.426 12.3119L50.3983 10.34H48.4262V12.34ZM48.7587 36V38H50.787L50.7585 35.9719L48.7587 36ZM41.5837 36L39.5865 35.8942L39.4749 38H41.5837V36ZM41.8637 30.715L43.8609 30.8208L43.9724 28.715H41.8637V30.715ZM38.1887 30.715V28.715H36.7025L36.2737 30.138L38.1887 30.715ZM36.5962 36V38H38.0824L38.5111 36.577L36.5962 36ZM39.6587 25.885L37.7466 25.2984L36.9531 27.885H39.6587V25.885ZM42.0912 25.885V27.885H44.0001L44.089 25.9781L42.0912 25.885ZM42.5112 16.8725L44.509 16.9656L44.6066 14.8725L42.5112 14.8725V16.8725ZM42.4237 16.8725V14.8725H40.9453L40.5116 16.2859L42.4237 16.8725ZM31.319 36.6815L39.894 13.0215L36.1334 11.6585L27.5584 35.3185L31.319 36.6815ZM38.0137 14.34L48.4262 14.34V10.34L38.0137 10.34V14.34ZM46.4264 12.3681L46.7589 36.0281L50.7585 35.9719L50.426 12.3119L46.4264 12.3681ZM48.7587 34H41.5837V38H48.7587V34ZM43.5809 36.1058L43.8609 30.8208L39.8665 30.6092L39.5865 35.8942L43.5809 36.1058ZM41.8637 28.715H38.1887V32.715H41.8637V28.715ZM36.2737 30.138L34.6812 35.423L38.5111 36.577L40.1036 31.292L36.2737 30.138ZM36.5962 34H29.4387V38H36.5962V34ZM39.6587 27.885H42.0912V23.885H39.6587V27.885ZM44.089 25.9781L44.509 16.9656L40.5133 16.7794L40.0933 25.7919L44.089 25.9781ZM42.5112 14.8725H42.4237V18.8725H42.5112V14.8725ZM40.5116 16.2859L37.7466 25.2984L41.5707 26.4716L44.3357 17.4591L40.5116 16.2859ZM50.2485 36L48.2794 35.6499L47.8616 38H50.2485V36ZM54.4485 12.375V10.375H52.7727L52.4794 12.0249L54.4485 12.375ZM65.5435 12.375L67.5386 12.5155L67.6893 10.375H65.5435V12.375ZM64.2485 30.7675L62.2535 30.627L62.1028 32.7675H64.2485V30.7675ZM64.301 30.7675V32.7675H65.8156L66.2261 31.3097L64.301 30.7675ZM69.481 12.375V10.375H67.9665L67.5559 11.8328L69.481 12.375ZM80.8035 12.375L82.7737 12.7194L83.1835 10.375H80.8035V12.375ZM76.6735 36V38H78.3542L78.6437 36.3444L76.6735 36ZM69.726 36L67.756 35.6554L67.3458 38H69.726V36ZM72.9985 17.2925L74.9686 17.6371L75.3788 15.2925H72.9985V17.2925ZM72.9635 17.2925V15.2925H71.4744L71.0475 16.7191L72.9635 17.2925ZM67.381 35.9475V37.9475H68.8702L69.2971 36.5209L67.381 35.9475ZM59.5585 35.9475L57.5614 35.8407L57.4487 37.9475H59.5585V35.9475ZM60.556 17.2925L62.5532 17.3993L62.6658 15.2925H60.556V17.2925ZM60.521 17.2925V15.2925H58.8452L58.5519 16.9425L60.521 17.2925ZM57.196 36V38H58.8719L59.1652 36.35L57.196 36ZM52.2177 36.3501L56.4177 12.7251L52.4794 12.0249L48.2794 35.6499L52.2177 36.3501ZM54.4485 14.375H65.5435V10.375H54.4485V14.375ZM63.5485 12.2345L62.2535 30.627L66.2436 30.908L67.5386 12.5155L63.5485 12.2345ZM64.2485 32.7675H64.301V28.7675H64.2485V32.7675ZM66.2261 31.3097L71.4061 12.9172L67.5559 11.8328L62.3759 30.2253L66.2261 31.3097ZM69.481 14.375H80.8035V10.375H69.481V14.375ZM78.8334 12.0306L74.7034 35.6556L78.6437 36.3444L82.7737 12.7194L78.8334 12.0306ZM76.6735 34H69.726V38H76.6735V34ZM71.6961 36.3446L74.9686 17.6371L71.0285 16.9479L67.756 35.6554L71.6961 36.3446ZM72.9985 15.2925H72.9635V19.2925H72.9985V15.2925ZM71.0475 16.7191L65.465 35.3741L69.2971 36.5209L74.8796 17.8659L71.0475 16.7191ZM67.381 33.9475H59.5585V37.9475H67.381V33.9475ZM61.5557 36.0543L62.5532 17.3993L58.5589 17.1857L57.5614 35.8407L61.5557 36.0543ZM60.556 15.2925H60.521V19.2925H60.556V15.2925ZM58.5519 16.9425L55.2269 35.65L59.1652 36.35L62.4902 17.6425L58.5519 16.9425ZM57.196 34H50.2485V38H57.196V34ZM78.5856 36L76.616 35.6528L76.2022 38H78.5856V36ZM82.7506 12.375V10.375H81.0723L80.781 12.0278L82.7506 12.375ZM96.2606 12.375L98.2297 12.7254L98.6479 10.375H96.2606V12.375ZM95.3856 17.2925V19.2925H97.0611L97.3547 17.6429L95.3856 17.2925ZM88.9281 17.2925V15.2925H87.2459L86.9577 16.9498L88.9281 17.2925ZM88.1581 21.72L86.1877 21.3773L85.7802 23.72H88.1581V21.72ZM94.1956 21.72L96.1639 22.0746L96.5881 19.72H94.1956V21.72ZM93.3381 26.48V28.48H95.01L95.3064 26.8346L93.3381 26.48ZM87.3006 26.48V24.48H85.6137L85.3292 26.1427L87.3006 26.48ZM86.5131 31.0825L84.5417 30.7452L84.1418 33.0825H86.5131V31.0825ZM92.9531 31.0825L94.9234 31.4261L95.332 29.0825H92.9531V31.0825ZM92.0956 36V38H93.777L94.0659 36.3436L92.0956 36ZM80.5552 36.3472L84.7202 12.7222L80.781 12.0278L76.616 35.6528L80.5552 36.3472ZM82.7506 14.375H96.2606V10.375H82.7506V14.375ZM94.2915 12.0246L93.4165 16.9421L97.3547 17.6429L98.2297 12.7254L94.2915 12.0246ZM95.3856 15.2925H88.9281V19.2925H95.3856V15.2925ZM86.9577 16.9498L86.1877 21.3773L90.1285 22.0627L90.8985 17.6352L86.9577 16.9498ZM88.1581 23.72H94.1956V19.72H88.1581V23.72ZM92.2273 21.3654L91.3698 26.1254L95.3064 26.8346L96.1639 22.0746L92.2273 21.3654ZM93.3381 24.48H87.3006V28.48H93.3381V24.48ZM85.3292 26.1427L84.5417 30.7452L88.4844 31.4198L89.2719 26.8173L85.3292 26.1427ZM86.5131 33.0825H92.9531V29.0825H86.5131V33.0825ZM90.9828 30.7389L90.1253 35.6564L94.0659 36.3436L94.9234 31.4261L90.9828 30.7389ZM92.0956 34H78.5856V38H92.0956V34ZM100.733 36L98.7634 35.6528L98.3496 38H100.733V36ZM104.898 12.375V10.375H103.22L102.928 12.0278L104.898 12.375ZM120.998 15.35L118.999 15.4205L119 15.4328L120.998 15.35ZM120.806 20.8275L118.821 20.5794L118.818 20.6069L118.815 20.6345L120.806 20.8275ZM119.231 26.865L121.08 27.6255L121.08 27.6255L119.231 26.865ZM108.801 30.015V28.015H107.116L106.83 29.675L108.801 30.015ZM107.768 36V38H109.453L109.739 36.34L107.768 36ZM109.693 25.0975L107.723 24.753L107.313 27.0975H109.693V25.0975ZM113.036 24.31L111.271 23.3688L111.271 23.3688L113.036 24.31ZM113.806 21.0725L111.831 20.7559L111.828 20.7728L111.826 20.7897L113.806 21.0725ZM114.068 18.045L112.081 18.276L112.084 18.302L112.088 18.3278L114.068 18.045ZM111.058 17.2925V15.2925H109.377L109.088 16.948L111.058 17.2925ZM102.703 36.3472L106.868 12.7222L102.928 12.0278L98.7634 35.6528L102.703 36.3472ZM104.898 14.375L116.413 14.375V10.375L104.898 10.375V14.375ZM116.413 14.375C117.743 14.375 118.417 14.6062 118.711 14.7965C118.833 14.8761 118.882 14.9428 118.91 14.995C118.942 15.0534 118.991 15.1776 118.999 15.4205L122.997 15.2795C122.941 13.7039 122.254 12.3276 120.888 11.441C119.653 10.6397 118.07 10.375 116.413 10.375V14.375ZM119 15.4328C119.078 17.3116 119.015 19.0254 118.821 20.5794L122.79 21.0756C123.016 19.2696 123.082 17.3317 122.996 15.2672L119 15.4328ZM118.815 20.6345C118.65 22.334 118.182 24.1551 117.381 26.1045L121.08 27.6255C122.006 25.3749 122.588 23.171 122.796 21.0205L118.815 20.6345ZM117.381 26.1045C117.118 26.7447 116.727 27.1728 116.179 27.4705C115.595 27.7885 114.719 28.015 113.438 28.015V32.015C115.155 32.015 116.744 31.7165 118.09 30.9845C119.474 30.2322 120.48 29.0853 121.08 27.6255L117.381 26.1045ZM113.438 28.015H108.801V32.015H113.438V28.015ZM106.83 29.675L105.797 35.66L109.739 36.34L110.771 30.355L106.83 29.675ZM107.768 34H100.733V38H107.768V34ZM109.693 27.0975H111.881V23.0975H109.693V27.0975ZM111.881 27.0975C113.281 27.0975 114.262 26.2612 114.8 25.2512L111.271 23.3688C111.242 23.423 111.272 23.3424 111.41 23.2482C111.48 23.2006 111.563 23.1599 111.654 23.1326C111.744 23.1056 111.823 23.0975 111.881 23.0975V27.0975ZM114.8 25.2512C115.063 24.7593 115.244 24.1588 115.384 23.5696C115.531 22.9496 115.664 22.2064 115.785 21.3553L111.826 20.7897C111.714 21.5719 111.601 22.185 111.492 22.6441C111.438 22.8726 111.388 23.048 111.344 23.1778C111.323 23.2419 111.305 23.2896 111.291 23.3234C111.277 23.3577 111.27 23.3713 111.271 23.3688L114.8 25.2512ZM115.78 21.3891C115.907 20.5992 115.998 19.9129 116.047 19.3421C116.094 18.809 116.117 18.2447 116.048 17.7622L112.088 18.3278C112.086 18.3115 112.093 18.3551 112.091 18.4865C112.09 18.6102 112.081 18.778 112.062 18.9966C112.024 19.435 111.949 20.0174 111.831 20.7559L115.78 21.3891ZM116.055 17.814C115.99 17.2577 115.771 16.5559 115.169 16.005C114.558 15.4464 113.827 15.2925 113.246 15.2925V19.2925C113.154 19.2925 112.805 19.264 112.469 18.9562C112.141 18.6562 112.088 18.3306 112.081 18.276L116.055 17.814ZM113.246 15.2925H111.058V19.2925H113.246V15.2925ZM109.088 16.948L107.723 24.753L111.663 25.442L113.028 17.637L109.088 16.948ZM118.284 36L116.403 35.3185L115.431 38H118.284V36ZM126.859 12.34V10.34H125.456L124.978 11.6585L126.859 12.34ZM137.271 12.34L139.271 12.3119L139.243 10.34H137.271V12.34ZM137.604 36V38L139.632 38L139.603 35.9719L137.604 36ZM130.429 36L128.431 35.8942L128.32 38H130.429V36ZM130.709 30.715L132.706 30.8208L132.817 28.715H130.709V30.715ZM127.034 30.715V28.715H125.547L125.119 30.138L127.034 30.715ZM125.441 36V38H126.927L127.356 36.577L125.441 36ZM128.504 25.885L126.591 25.2984L125.798 27.885H128.504V25.885ZM130.936 25.885V27.885H132.845L132.934 25.9781L130.936 25.885ZM131.356 16.8725L133.354 16.9656L133.451 14.8725H131.356V16.8725ZM131.269 16.8725V14.8725H129.79L129.356 16.2859L131.269 16.8725ZM120.164 36.6815L128.739 13.0215L124.978 11.6585L116.403 35.3185L120.164 36.6815ZM126.859 14.34H137.271V10.34H126.859V14.34ZM135.271 12.3681L135.604 36.0281L139.603 35.9719L139.271 12.3119L135.271 12.3681ZM137.604 34H130.429V38H137.604V34ZM132.426 36.1058L132.706 30.8208L128.711 30.6092L128.431 35.8942L132.426 36.1058ZM130.709 28.715H127.034V32.715H130.709V28.715ZM125.119 30.138L123.526 35.423L127.356 36.577L128.948 31.292L125.119 30.138ZM125.441 34H118.284V38H125.441V34ZM128.504 27.885H130.936V23.885H128.504V27.885ZM132.934 25.9781L133.354 16.9656L129.358 16.7794L128.938 25.7919L132.934 25.9781ZM131.356 14.8725H131.269V18.8725H131.356V14.8725ZM129.356 16.2859L126.591 25.2984L130.416 26.4716L133.181 17.4591L129.356 16.2859ZM141.369 34.5825L140.107 36.1343L140.107 36.1343L141.369 34.5825ZM140.127 29.5425L142.095 29.8951L142.097 29.8879L140.127 29.5425ZM143.137 12.375V10.375H141.457L141.167 12.0296L143.137 12.375ZM150.172 12.375L152.142 12.7212L152.554 10.375H150.172V12.375ZM147.302 28.7025L145.332 28.3563L145.33 28.3653L147.302 28.7025ZM147.372 30.61L145.594 31.5259L145.594 31.5259L147.372 30.61ZM150.609 30.61L149.107 29.2898L149.095 29.3028L149.084 29.316L150.609 30.61ZM151.344 28.7025L149.374 28.3563L149.373 28.3653L151.344 28.7025ZM154.214 12.375V10.375H152.535L152.244 12.0288L154.214 12.375ZM161.267 12.375L163.237 12.7204L163.648 10.375H161.267V12.375ZM158.257 29.5425L160.225 29.8951L160.227 29.8879L158.257 29.5425ZM155.194 34.5825L154.133 32.8872L154.128 32.8906L155.194 34.5825ZM148.002 34.105C144.908 34.105 143.311 33.5833 142.631 33.0307L140.107 36.1343C141.925 37.6117 144.749 38.105 148.002 38.105V34.105ZM142.631 33.0307C142.193 32.6749 141.736 31.9032 142.095 29.8951L138.158 29.1899C137.678 31.8718 138.048 34.4601 140.107 36.1343L142.631 33.0307ZM142.097 29.8879L145.107 12.7204L141.167 12.0296L138.157 29.1971L142.097 29.8879ZM143.137 14.375H150.172V10.375H143.137V14.375ZM148.202 12.0288L145.332 28.3563L149.272 29.0487L152.142 12.7212L148.202 12.0288ZM145.33 28.3653C145.17 29.3014 145.073 30.5155 145.594 31.5259L149.15 29.6941C149.233 29.8559 149.21 29.9219 149.204 29.771C149.199 29.634 149.212 29.3983 149.273 29.0397L145.33 28.3653ZM145.594 31.5259C146.354 33.0024 147.969 33.1875 148.877 33.1875V29.1875C148.753 29.1875 148.67 29.1799 148.621 29.1728C148.572 29.1654 148.574 29.161 148.613 29.1759C148.653 29.1913 148.743 29.2319 148.85 29.3199C148.962 29.4119 149.069 29.5379 149.15 29.6941L145.594 31.5259ZM148.877 33.1875C149.925 33.1875 151.241 32.9567 152.134 31.904L149.084 29.316C149.139 29.2509 149.196 29.2056 149.241 29.1771C149.284 29.1497 149.307 29.1428 149.299 29.1458C149.289 29.1489 149.252 29.16 149.18 29.1699C149.107 29.1798 149.008 29.1875 148.877 29.1875V33.1875ZM152.112 31.9302C152.816 31.1283 153.143 30.051 153.316 29.0397L149.373 28.3653C149.313 28.7169 149.243 28.9628 149.18 29.1253C149.117 29.2912 149.078 29.3223 149.107 29.2898L152.112 31.9302ZM153.314 29.0487L156.184 12.7212L152.244 12.0288L149.374 28.3563L153.314 29.0487ZM154.214 14.375H161.267V10.375H154.214V14.375ZM159.297 12.0296L156.287 29.1971L160.227 29.8879L163.237 12.7204L159.297 12.0296ZM156.288 29.1899C155.941 31.1257 155.163 32.2424 154.133 32.8872L156.255 36.2778C158.468 34.8926 159.732 32.6493 160.225 29.8951L156.288 29.1899ZM154.128 32.8906C152.986 33.6104 151.036 34.105 148.002 34.105V38.105C151.337 38.105 154.182 37.5846 156.261 36.2744L154.128 32.8906ZM160.46 33.5325L158.536 34.0785L158.537 34.0819L160.46 33.5325ZM160.285 27.7225V25.7225H158.602L158.314 27.3798L160.285 27.7225ZM167.337 27.7225L169.309 28.0573L169.705 25.7225H167.337V27.7225ZM167.355 30.8725L166.155 32.4725L166.173 32.4865L166.192 32.5L167.355 30.8725ZM170.242 30.925L171.116 32.724L171.126 32.719L171.137 32.7139L170.242 30.925ZM171.082 29.455L173.05 29.8128L173.051 29.8047L173.053 29.7966L171.082 29.455ZM170.417 27.74L169.581 29.557L169.588 29.5601L169.595 29.5632L170.417 27.74ZM167.512 26.76L166.927 28.6726L166.946 28.6783L166.965 28.6837L167.512 26.76ZM162.28 24.065L160.641 25.2119L160.646 25.2188L160.651 25.2255L162.28 24.065ZM161.667 19.9175L163.65 20.1827L163.653 20.1541L163.656 20.1255L161.667 19.9175ZM163.697 14.685L162.052 13.5472L162.047 13.5548L163.697 14.685ZM179.395 14.8425L181.325 14.3194L181.325 14.3194L179.395 14.8425ZM179.622 20.46V22.46H181.303L181.592 20.8042L179.622 20.46ZM172.57 20.46L170.599 20.1168L170.191 22.46H172.57V20.46ZM172.517 17.3975L171.382 19.0439L171.395 19.0529L171.408 19.0616L172.517 17.3975ZM169.612 17.3625L170.447 19.1799L170.458 19.175L170.468 19.17L169.612 17.3625ZM168.772 18.71L166.805 18.3493L166.801 18.3704L166.798 18.3915L168.772 18.71ZM169.385 20.705L168.61 22.549L168.626 22.5556L168.642 22.562L169.385 20.705ZM172.5 21.6675L173.089 19.7563L173.058 19.7468L173.027 19.7383L172.5 21.6675ZM177.715 24.135L176.203 25.444L176.208 25.4504L176.214 25.4568L177.715 24.135ZM178.327 28.1425L176.349 27.8494L176.347 27.8617L176.345 27.874L178.327 28.1425ZM176.262 33.48L174.583 32.3939L174.578 32.4019L176.262 33.48ZM167.915 34.105C165.763 34.105 164.279 33.8941 163.343 33.5713C162.886 33.4136 162.636 33.2544 162.509 33.1451C162.4 33.0509 162.387 32.9998 162.383 32.9831L158.537 34.0819C159.035 35.8266 160.488 36.8175 162.039 37.3525C163.588 37.8871 165.586 38.105 167.915 38.105V34.105ZM162.384 32.9865C161.991 31.604 161.922 29.9782 162.255 28.0652L158.314 27.3798C157.9 29.7602 157.948 32.0076 158.536 34.0785L162.384 32.9865ZM160.285 29.7225H167.337V25.7225H160.285V29.7225ZM165.365 27.3877C165.201 28.355 165.101 29.2147 165.105 29.9124C165.107 30.2571 165.134 30.651 165.233 31.0352C165.321 31.3782 165.541 32.0121 166.155 32.4725L168.555 29.2725C169.005 29.6104 169.102 30.0212 169.107 30.0404C169.123 30.1009 169.106 30.0704 169.105 29.8901C169.103 29.5378 169.158 28.945 169.309 28.0573L165.365 27.3877ZM166.192 32.5C166.986 33.0669 167.916 33.2225 168.737 33.2225V29.2225C168.566 29.2225 168.472 29.2052 168.436 29.1962C168.404 29.1879 168.444 29.193 168.517 29.245L166.192 32.5ZM168.737 33.2225C169.545 33.2225 170.364 33.0891 171.116 32.724L169.368 29.126C169.303 29.1576 169.12 29.2225 168.737 29.2225V33.2225ZM171.137 32.7139C172.409 32.0775 172.872 30.793 173.05 29.8128L169.114 29.0972C169.093 29.2126 169.071 29.294 169.054 29.3475C169.036 29.4014 169.025 29.4175 169.031 29.4077C169.037 29.397 169.062 29.3551 169.117 29.3008C169.173 29.2446 169.25 29.1849 169.348 29.1361L171.137 32.7139ZM173.053 29.7966C173.164 29.1523 173.183 28.3905 172.894 27.6469C172.581 26.838 171.981 26.2513 171.239 25.9168L169.595 29.5632C169.541 29.5387 169.451 29.4869 169.359 29.3923C169.266 29.2958 169.202 29.1886 169.165 29.0931C169.098 28.9212 169.152 28.8827 169.112 29.1134L173.053 29.7966ZM171.253 25.923C170.519 25.5856 169.424 25.2244 168.059 24.8363L166.965 28.6837C168.307 29.0656 169.148 29.3577 169.581 29.557L171.253 25.923ZM168.097 24.8474C166.749 24.4351 165.73 24.0353 165.002 23.6607C164.238 23.2672 163.968 22.9879 163.909 22.9044L160.651 25.2255C161.256 26.0754 162.191 26.7119 163.171 27.2168C164.188 27.7405 165.452 28.2216 166.927 28.6726L168.097 24.8474ZM163.918 22.9181C163.686 22.5861 163.432 21.8095 163.65 20.1827L159.685 19.6523C159.412 21.6889 159.567 23.6772 160.641 25.2119L163.918 22.9181ZM163.656 20.1255C163.804 18.7181 164.34 17.2857 165.347 15.8152L162.047 13.5548C160.721 15.491 159.904 17.5469 159.678 19.7095L163.656 20.1255ZM165.342 15.8228C165.588 15.4675 166.12 15.0291 167.26 14.6819C168.398 14.335 169.982 14.13 172.08 14.13V10.13C169.767 10.13 167.75 10.3508 166.093 10.8556C164.439 11.3601 162.985 12.1992 162.052 13.5472L165.342 15.8228ZM172.08 14.13C174.176 14.13 175.608 14.3514 176.503 14.6834C177.37 15.0047 177.448 15.307 177.464 15.3656L181.325 14.3194C180.851 12.5696 179.465 11.5157 177.894 10.9329C176.351 10.3606 174.37 10.13 172.08 10.13V14.13ZM177.464 15.3656C177.874 16.8773 177.942 18.4531 177.652 20.1158L181.592 20.8042C181.979 18.5936 181.895 16.4244 181.325 14.3194L177.464 15.3656ZM179.622 18.46H172.57V22.46H179.622V18.46ZM174.54 20.8032C174.705 19.8562 174.804 19.003 174.793 18.3038C174.787 17.9581 174.753 17.5541 174.637 17.1578C174.528 16.7872 174.271 16.1627 173.627 15.7334L171.408 19.0616C170.939 18.7489 170.815 18.3396 170.798 18.2826C170.774 18.1997 170.79 18.2078 170.793 18.3724C170.799 18.6941 170.749 19.2555 170.599 20.1168L174.54 20.8032ZM173.653 15.7511C172.879 15.2176 171.992 15.0475 171.17 15.0475V19.0475C171.468 19.0475 171.479 19.1107 171.382 19.0439L173.653 15.7511ZM171.17 15.0475C170.341 15.0475 169.518 15.1942 168.756 15.555L170.468 19.17C170.593 19.1108 170.809 19.0475 171.17 19.0475V15.0475ZM168.777 15.5451C167.5 16.1321 166.989 17.3434 166.805 18.3493L170.739 19.0707C170.773 18.8879 170.806 18.8576 170.776 18.9061C170.758 18.9343 170.723 18.9832 170.663 19.0376C170.602 19.0931 170.528 19.1426 170.447 19.1799L168.777 15.5451ZM166.798 18.3915C166.687 19.0794 166.653 19.8624 166.882 20.6095C167.139 21.445 167.713 22.1722 168.61 22.549L170.159 18.861C170.282 18.9127 170.417 19.0027 170.531 19.1337C170.64 19.2605 170.688 19.3772 170.706 19.4355C170.722 19.488 170.713 19.4887 170.712 19.4117C170.71 19.336 170.717 19.2115 170.747 19.0285L166.798 18.3915ZM168.642 22.562C169.343 22.8422 170.481 23.1889 171.972 23.5967L173.027 19.7383C171.532 19.3295 170.593 19.0345 170.127 18.848L168.642 22.562ZM171.91 23.5787C173.261 23.9952 174.297 24.3844 175.048 24.7397C175.845 25.1169 176.142 25.374 176.203 25.444L179.227 22.826C178.611 22.1143 177.7 21.5694 176.759 21.124C175.771 20.6568 174.538 20.2031 173.089 19.7563L171.91 23.5787ZM176.214 25.4568C176.289 25.5417 176.609 26.0904 176.349 27.8494L180.306 28.4356C180.605 26.4146 180.518 24.2916 179.216 22.8132L176.214 25.4568ZM176.345 27.874C176.145 29.3521 175.577 30.8558 174.583 32.394L177.942 34.566C179.21 32.6042 180.019 30.5495 180.309 28.411L176.345 27.874ZM174.578 32.4019C174.356 32.7483 173.858 33.188 172.735 33.5409C171.612 33.8942 170.029 34.105 167.915 34.105V38.105C170.246 38.105 172.276 37.8783 173.935 37.3566C175.596 36.8345 177.048 35.9617 177.947 34.5581L174.578 32.4019ZM178.664 36L176.695 35.6528L176.281 38H178.664V36ZM182.829 12.375V10.375H181.151L180.86 12.0278L182.829 12.375ZM196.339 12.375L198.308 12.7254L198.727 10.375H196.339V12.375ZM195.464 17.2925V19.2925H197.14L197.433 17.6429L195.464 17.2925ZM189.007 17.2925V15.2925H187.325L187.036 16.9498L189.007 17.2925ZM188.237 21.72L186.266 21.3773L185.859 23.72H188.237V21.72ZM194.274 21.72L196.243 22.0746L196.667 19.72H194.274V21.72ZM193.417 26.48V28.48H195.089L195.385 26.8346L193.417 26.48ZM187.379 26.48V24.48H185.692L185.408 26.1427L187.379 26.48ZM186.592 31.0825L184.62 30.7452L184.22 33.0825H186.592V31.0825ZM193.032 31.0825L195.002 31.4261L195.411 29.0825H193.032V31.0825ZM192.174 36V38H193.856L194.145 36.3436L192.174 36ZM180.634 36.3472L184.799 12.7222L180.86 12.0278L176.695 35.6528L180.634 36.3472ZM182.829 14.375H196.339V10.375H182.829V14.375ZM194.37 12.0246L193.495 16.9421L197.433 17.6429L198.308 12.7254L194.37 12.0246ZM195.464 15.2925H189.007V19.2925H195.464V15.2925ZM187.036 16.9498L186.266 21.3773L190.207 22.0627L190.977 17.6352L187.036 16.9498ZM188.237 23.72H194.274V19.72H188.237V23.72ZM192.306 21.3654L191.448 26.1254L195.385 26.8346L196.243 22.0746L192.306 21.3654ZM193.417 24.48H187.379V28.48H193.417V24.48ZM185.408 26.1427L184.62 30.7452L188.563 31.4198L189.351 26.8173L185.408 26.1427ZM186.592 33.0825H193.032V29.0825H186.592V33.0825ZM191.061 30.7389L190.204 35.6564L194.145 36.3436L195.002 31.4261L191.061 30.7389ZM192.174 34H178.664V38H192.174V34Z" fill="black" mask="url(#path-1-outside-1_16_4)"/>
</g>
<defs>
<filter id="filter0_d_16_4" x="11.0534" y="12.13" width="190.286" height="29.01" filterUnits="userSpaceOnUse" color-interpolation-filters="sRGB">
<feFlood flood-opacity="0" result="BackgroundImageFix"/>
<feColorMatrix in="SourceAlpha" type="matrix" values="0 0 0 0 0 0 0 0 0 0 0 0 0 0 0 0 0 0 127 0" result="hardAlpha"/>
<feOffset dx="5" dy="5"/>
<feComposite in2="hardAlpha" operator="out"/>
<feColorMatrix type="matrix" values="0 0 0 0 0 0 0 0 0 0 0 0 0 0 0 0 0 0 0.4 0"/>
<feBlend mode="normal" in2="BackgroundImageFix" result="effect1_dropShadow_16_4"/>
<feBlend mode="normal" in="SourceGraphic" in2="effect1_dropShadow_16_4" result="shape"/>
</filter>
</defs>
</svg>
