<svg width="92" height="92" viewBox="0 0 92 92" fill="none" xmlns="http://www.w3.org/2000/svg">
<rect x="12" y="12" width="68" height="68" rx="34" fill="white" fill-opacity="0.1"/>
<g opacity="0.1" filter="url(#filter0_f_14_3)">
<rect x="2.25" y="2.25" width="87.5" height="87.5" rx="43.75" stroke="white" stroke-width="0.5"/>
</g>
<rect x="13" y="13" width="66" height="66" rx="33" fill="#121212"/>
<path opacity="0.2" fill-rule="evenodd" clip-rule="evenodd" d="M77.4285 40.7857C77.4285 41.2196 77.0767 41.5713 76.6428 41.5713C76.2089 41.5713 75.8572 41.2196 75.8572 40.7857C75.8572 40.3518 76.2089 40 76.6428 40C77.0767 40 77.4285 40.3518 77.4285 40.7857ZM77.4285 43.9281C77.4285 44.362 77.0767 44.7137 76.6428 44.7137C76.2089 44.7137 75.8572 44.362 75.8572 43.9281C75.8572 43.4942 76.2089 43.1424 76.6428 43.1424C77.0767 43.1424 77.4285 43.4942 77.4285 43.9281ZM73.4999 44.7137C73.9338 44.7137 74.2855 44.362 74.2855 43.9281C74.2855 43.4942 73.9338 43.1424 73.4999 43.1424C73.0659 43.1424 72.7142 43.4942 72.7142 43.9281C72.7142 44.362 73.0659 44.7137 73.4999 44.7137ZM77.4285 47.0705C77.4285 47.5044 77.0767 47.8561 76.6428 47.8561C76.2089 47.8561 75.8572 47.5044 75.8572 47.0705C75.8572 46.6366 76.2089 46.2848 76.6428 46.2848C77.0767 46.2848 77.4285 46.6366 77.4285 47.0705ZM73.4999 47.8561C73.9338 47.8561 74.2855 47.5044 74.2855 47.0705C74.2855 46.6366 73.9338 46.2848 73.4999 46.2848C73.0659 46.2848 72.7142 46.6366 72.7142 47.0705C72.7142 47.5044 73.0659 47.8561 73.4999 47.8561ZM71.1431 45.4998C71.1431 45.9337 70.7913 46.2855 70.3574 46.2855C69.9235 46.2855 69.5718 45.9337 69.5718 45.4998C69.5718 45.0659 69.9235 44.7142 70.3574 44.7142C70.7913 44.7142 71.1431 45.0659 71.1431 45.4998ZM76.6428 50.9997C77.0767 50.9997 77.4285 50.6479 77.4285 50.214C77.4285 49.7801 77.0767 49.4283 76.6428 49.4283C76.2089 49.4283 75.8572 49.7801 75.8572 50.214C75.8572 50.6479 76.2089 50.9997 76.6428 50.9997Z" fill="#D9D9D9"/>
<path opacity="0.2" fill-rule="evenodd" clip-rule="evenodd" d="M14.9998 50.2143C14.9998 49.7804 15.3515 49.4287 15.7854 49.4287C16.2193 49.4287 16.5711 49.7804 16.5711 50.2143C16.5711 50.6482 16.2193 51 15.7854 51C15.3515 51 14.9998 50.6482 14.9998 50.2143ZM14.9998 47.0719C14.9998 46.638 15.3515 46.2863 15.7854 46.2863C16.2193 46.2863 16.5711 46.638 16.5711 47.0719C16.5711 47.5058 16.2193 47.8576 15.7854 47.8576C15.3515 47.8576 14.9998 47.5058 14.9998 47.0719ZM18.9284 46.2863C18.4945 46.2863 18.1427 46.638 18.1427 47.0719C18.1427 47.5058 18.4945 47.8576 18.9284 47.8576C19.3623 47.8576 19.714 47.5058 19.714 47.0719C19.714 46.638 19.3623 46.2863 18.9284 46.2863ZM14.9998 43.9295C14.9998 43.4956 15.3515 43.1439 15.7854 43.1439C16.2193 43.1439 16.5711 43.4956 16.5711 43.9295C16.5711 44.3634 16.2193 44.7152 15.7854 44.7152C15.3515 44.7152 14.9998 44.3634 14.9998 43.9295ZM18.9284 43.1439C18.4945 43.1439 18.1427 43.4956 18.1427 43.9295C18.1427 44.3634 18.4945 44.7152 18.9284 44.7152C19.3623 44.7152 19.714 44.3634 19.714 43.9295C19.714 43.4956 19.3623 43.1439 18.9284 43.1439ZM21.2851 45.5002C21.2851 45.0663 21.6369 44.7145 22.0708 44.7145C22.5047 44.7145 22.8564 45.0663 22.8564 45.5002C22.8564 45.9341 22.5047 46.2858 22.0708 46.2858C21.6369 46.2858 21.2851 45.9341 21.2851 45.5002ZM15.7854 40.0003C15.3515 40.0003 14.9998 40.3521 14.9998 40.786C14.9998 41.2199 15.3515 41.5717 15.7854 41.5717C16.2193 41.5717 16.5711 41.2199 16.5711 40.786C16.5711 40.3521 16.2193 40.0003 15.7854 40.0003Z" fill="#D9D9D9"/>
<defs>
<filter id="filter0_f_14_3" x="0" y="0" width="92" height="92" filterUnits="userSpaceOnUse" color-interpolation-filters="sRGB">
<feFlood flood-opacity="0" result="BackgroundImageFix"/>
<feBlend mode="normal" in="SourceGraphic" in2="BackgroundImageFix" result="shape"/>
<feGaussianBlur stdDeviation="1" result="effect1_foregroundBlur_14_3"/>
</filter>
</defs>
</svg>
