<svg width="21" height="21" viewBox="0 0 21 21" fill="none" xmlns="http://www.w3.org/2000/svg">
<path d="M2.58984 5.82422H4.45884C5.28198 5.82523 6.09303 6.02246 6.82471 6.39956C7.5564 6.77666 8.18764 7.32276 8.66609 7.99257L12.0481 12.7176C12.5265 13.3875 13.1578 13.9336 13.8895 14.3107C14.6211 14.6878 15.4322 14.885 16.2553 14.886H18.7716" stroke="white" stroke-width="1.3" stroke-linecap="round" stroke-linejoin="round"/>
<path d="M16.8281 3.88477L18.7699 5.82658L16.8281 7.76839" stroke="white" stroke-width="1.3" stroke-linecap="square" stroke-linejoin="round"/>
<path d="M16.8281 12.9453L18.7699 14.8871L16.8281 16.8289" stroke="white" stroke-width="1.3" stroke-linecap="square" stroke-linejoin="round"/>
<path d="M11.9492 8.13012L12.0463 7.99257C12.5248 7.32276 13.156 6.77666 13.8877 6.39956C14.6194 6.02246 15.4304 5.82523 16.2536 5.82422H18.7698" stroke="white" stroke-width="1.3" stroke-linecap="round" stroke-linejoin="round"/>
<path d="M2.58984 14.8879H4.45884C5.28198 14.8869 6.09303 14.6897 6.82471 14.3126C7.5564 13.9355 8.18764 13.3894 8.66609 12.7196L8.76318 12.582" stroke="white" stroke-width="1.3" stroke-linecap="square" stroke-linejoin="round"/>
</svg>
