<svg width="91" height="81" viewBox="0 0 91 81" fill="none" xmlns="http://www.w3.org/2000/svg">
<path d="M45.4859 17.9882L57.5108 4.46677L54.4367 22.2987L54.3916 22.5604L54.6366 22.4582L71.3374 15.4932L60.8308 30.2254L60.6766 30.4415L60.9418 30.4558L79.0107 31.4268L63.1524 40.1414L62.9197 40.2692L63.1524 40.3971L79.0107 49.1117L60.9418 50.0827L60.6766 50.0969L60.8308 50.3131L71.3374 65.0453L54.6366 58.0803L54.3916 57.9781L54.4367 58.2398L57.5108 76.0717L45.4859 62.5502L45.3094 62.3518L45.2366 62.6071L40.2692 80.007L35.3019 62.6071L35.229 62.3518L35.0526 62.5502L23.0277 76.0717L26.1018 58.2398L26.1469 57.9781L25.9018 58.0803L9.20102 65.0453L19.7077 50.3131L19.8618 50.0969L19.5967 50.0827L1.5278 49.1117L17.386 40.3971L17.6187 40.2692L17.386 40.1414L1.5278 31.4268L19.5967 30.4558L19.8618 30.4415L19.7077 30.2254L9.20102 15.4932L25.9018 22.4582L26.1469 22.5604L26.1018 22.2987L23.0277 4.46677L35.0526 17.9882L35.229 18.1866L35.3019 17.9313L40.2692 0.531492L45.2366 17.9313L45.3094 18.1866L45.4859 17.9882Z" fill="#FFEB34" stroke="black" stroke-width="0.291806"/>
<path d="M76.6091 34.5283C75.9885 31.4637 74.7597 28.5483 72.9971 25.9686C71.309 23.4697 69.1554 21.3127 66.6543 19.6281C64.1718 17.9373 61.3977 16.7251 58.4683 16.0538C56.6685 15.6311 54.8253 15.4197 52.9758 15.4197C51.7346 15.4197 50.4933 15.5192 49.2645 15.7119C46.2234 16.1657 43.3003 17.2162 40.6626 18.8013C38.1305 20.3181 35.9397 22.3383 34.2082 24.7378C32.4828 27.1372 31.2664 29.8724 30.6396 32.7629C30.0003 35.8026 30.0003 38.9418 30.6396 41.9815C31.2664 45.0896 32.4952 48.0423 34.2516 50.6718C37.6837 55.912 42.9155 59.7101 48.9604 61.3326C50.8657 61.8485 52.8269 62.1096 54.8004 62.1096C55.9672 62.1096 57.134 62.0226 58.2821 61.8423C61.3294 61.3636 64.2401 60.2447 66.8219 58.5477C69.3789 56.8942 71.5759 54.7372 73.2764 52.2072C74.9707 49.6399 76.1437 46.7556 76.727 43.7283C77.2856 40.6886 77.2422 37.568 76.6091 34.5407V34.5283Z" fill="black" stroke="black" stroke-width="0.600695" stroke-linejoin="round"/>
<path d="M74.449 32.39C73.8283 29.3254 72.5995 26.41 70.8369 23.8302C69.1488 21.3313 66.9953 19.1743 64.4942 17.4897C62.0117 15.7989 59.2375 14.5868 56.3082 13.9154C54.5084 13.4927 52.6651 13.2814 50.8156 13.2814C49.5744 13.2814 48.3332 13.3808 47.1043 13.5735C44.0633 14.0273 41.1401 15.0778 38.5025 16.663C35.9703 18.1797 33.7796 20.2 32.048 22.5994C30.3227 24.9989 29.1063 27.734 28.4794 30.6246C27.8402 33.6643 27.8402 36.8035 28.4794 39.8432C29.1063 42.9513 30.3351 45.904 32.0915 48.5334C35.5235 53.7737 40.7554 57.5718 46.8002 59.1942C48.7055 59.7102 50.6667 59.9712 52.6403 59.9712C53.8071 59.9712 54.9738 59.8842 56.122 59.7039C59.1692 59.2253 62.08 58.1064 64.6617 56.4094C67.2187 54.7558 69.4157 52.5988 71.1162 50.0688C72.8105 47.5015 73.9835 44.6172 74.5669 41.5899C75.1254 38.5502 75.082 35.4297 74.449 32.4024V32.39Z" fill="#992825" stroke="black" stroke-width="0.360417" stroke-linejoin="round"/>
<path d="M76.4482 30.1086C75.8338 27.0378 74.605 24.1286 72.8362 21.5489C71.1481 19.05 68.9945 16.893 66.4934 15.2084C64.0109 13.5176 61.2368 12.3054 58.3074 11.6341C56.5076 11.2114 54.6644 11 52.8149 11C51.5737 11 50.3324 11.0932 49.1036 11.2797C46.0625 11.7459 43.1394 12.7965 40.5017 14.3816C37.9696 15.8984 35.7788 17.9186 34.0473 20.3181C32.3219 22.7175 31.1055 25.4527 30.4787 28.3432C29.8456 31.3829 29.8456 34.5221 30.4787 37.5618C31.0993 40.6637 32.3281 43.6164 34.0783 46.2521C37.4979 51.4861 42.7174 55.278 48.7436 56.9129C50.6489 57.4288 52.6101 57.6899 54.5837 57.6899C55.7442 57.6899 56.9048 57.5966 58.0592 57.4226C61.1064 56.9502 64.0233 55.825 66.5989 54.128C69.1559 52.4683 71.3467 50.3113 73.0534 47.7875C74.7477 45.2202 75.9207 42.3359 76.5041 39.3086C77.0813 36.2751 77.0626 33.1545 76.4482 30.121V30.1086Z" fill="#FF433E" stroke="black" stroke-width="0.360417" stroke-linecap="round" stroke-linejoin="round"/>
<path d="M76.4482 30.1086C75.8338 27.0378 74.605 24.1286 72.8362 21.5489C71.1481 19.05 68.9945 16.893 66.4934 15.2084C64.0109 13.5176 61.2368 12.3054 58.3074 11.6341C56.5076 11.2114 54.6644 11 52.8149 11C51.5737 11 50.3324 11.0932 49.1036 11.2797C46.0625 11.7459 43.1394 12.7965 40.5017 14.3816C37.9696 15.8984 35.7788 17.9186 34.0473 20.3181C32.3219 22.7175 31.1055 25.4527 30.4787 28.3432C29.8456 31.3829 29.8456 34.5221 30.4787 37.5618C31.0993 40.6637 32.3281 43.6164 34.0783 46.2521C37.4979 51.4861 42.7174 55.278 48.7436 56.9129C50.6489 57.4288 52.6101 57.6899 54.5837 57.6899C55.7442 57.6899 56.9048 57.5966 58.0592 57.4226C61.1064 56.9502 64.0233 55.825 66.5989 54.128C69.1559 52.4683 71.3467 50.3113 73.0534 47.7875C74.7477 45.2202 75.9207 42.3359 76.5041 39.3086C77.0813 36.2751 77.0626 33.1545 76.4482 30.121V30.1086Z" stroke="black" stroke-width="0.360417" stroke-linecap="round" stroke-linejoin="round"/>
<path d="M60.7812 39.1142L55.27 35.4343L58.9131 29.8645L54.7859 27.1046L51.1429 32.6743L45.6318 28.9943L42.9072 33.1653L48.4122 36.8453L44.7753 42.4151L48.9024 45.175L52.5393 39.6053L58.0504 43.2853L60.7812 39.1142Z" fill="#992825" stroke="#0D0D0D" stroke-width="0.600695" stroke-linejoin="round"/>
<path d="M62.7812 37.1142L57.27 33.4343L60.9131 27.8645L56.7859 25.1046L53.1429 30.6743L47.6318 26.9943L44.9072 31.1653L50.4122 34.8453L46.7753 40.4151L50.9024 43.175L54.5393 37.6053L60.0504 41.2853L62.7812 37.1142Z" fill="white" stroke="#0D0D0D" stroke-width="0.600695" stroke-linejoin="round"/>
<path d="M89.9166 11.1507C88.5836 11.8806 87.493 12.9754 86.7659 14.3014C86.0388 12.9754 84.9482 11.8806 83.6152 11.1507C84.9482 10.4208 86.0388 9.32597 86.7659 8C87.493 9.32597 88.5836 10.4208 89.9166 11.1507Z" fill="white" stroke="black" stroke-width="0.34"/>
<path d="M23.3014 52.1093C21.9684 52.7349 20.8778 53.6733 20.1507 54.8099C19.4236 53.6733 18.333 52.7349 17 52.1093C18.333 51.4837 19.4236 50.5452 20.1507 49.4087C20.8778 50.5452 21.9684 51.4837 23.3014 52.1093Z" fill="white" stroke="black" stroke-width="0.34"/>
</svg>
