<svg width="99" height="86" viewBox="0 0 99 86" fill="none" xmlns="http://www.w3.org/2000/svg">
<path d="M81.9997 46.2383H12.0273V49.762C12.0273 59.1076 15.7134 68.0704 22.2746 74.6787C28.8357 81.287 37.7346 84.9995 47.0135 84.9995C56.2924 84.9995 65.1913 81.287 71.7525 74.6787C78.3137 68.0704 81.9997 59.1076 81.9997 49.762V46.2383Z" fill="#039958" stroke="#06C270" stroke-width="0.3" stroke-miterlimit="10"/>
<path d="M47.0135 81.475C53.9331 81.475 60.6974 79.4084 66.4508 75.5364C72.2043 71.6645 76.6885 66.1611 79.3366 59.7223C81.9846 53.2835 82.6774 46.1984 81.3275 39.363C79.9775 32.5276 76.6454 26.2489 71.7525 21.3208C66.8596 16.3928 60.6257 13.0367 53.839 11.6771C47.0523 10.3174 40.0178 11.0153 33.6249 13.6823C27.232 16.3493 21.7679 20.8658 17.9236 26.6606C14.0792 32.4554 12.0273 39.2682 12.0273 46.2375C12.0273 55.5831 15.7134 64.5459 22.2746 71.1542C28.8357 77.7625 37.7346 81.475 47.0135 81.475Z" fill="white" stroke="#06C270" stroke-width="0.3" stroke-miterlimit="10"/>
<path d="M46.9806 84.5469C53.8991 84.5469 60.6623 82.4276 66.4148 78.457C72.1673 74.4864 76.6509 68.8429 79.2985 62.24C81.9461 55.6372 82.6388 48.3715 81.2891 41.362C79.9393 34.3524 76.6078 27.9138 71.7156 22.8602C66.8235 17.8066 60.5906 14.365 53.805 12.9707C47.0194 11.5764 39.986 12.292 33.5941 15.027C27.2022 17.762 21.739 22.3936 17.8953 28.336C14.0516 34.2784 12 41.2648 12 48.4116C12 57.9953 15.6854 67.1865 22.2456 73.9631C28.8057 80.7398 37.7032 84.5469 46.9806 84.5469V84.5469Z" stroke="white" stroke-width="0.3" stroke-miterlimit="10"/>
<path d="M47.0136 76.1762C52.8953 76.1762 58.6449 74.4196 63.5353 71.1284C68.4258 67.8373 72.2374 63.1594 74.4882 57.6864C76.739 52.2134 77.328 46.1911 76.1805 40.381C75.033 34.5709 72.2007 29.234 68.0418 25.0452C63.8828 20.8563 58.584 18.0037 52.8153 16.848C47.0466 15.6923 41.0673 16.2854 35.6333 18.5524C30.1993 20.8194 25.5549 24.6584 22.2872 29.584C19.0195 34.5096 17.2754 40.3004 17.2754 46.2244C17.2754 54.1681 20.4085 61.7865 25.9855 67.4035C31.5625 73.0206 39.1266 76.1762 47.0136 76.1762Z" fill="black"/>
<path d="M32.8799 47.7196L36.2526 44.3932L42.4031 50.6232L57.7691 35.1328L61.1487 38.5438L42.4311 57.3465L32.8799 47.7196Z" fill="white"/>
<path d="M84.7224 17.7002C85.3458 17.7002 85.8511 17.1954 85.8511 16.5728C85.8511 15.9501 85.3458 15.4453 84.7224 15.4453C84.0991 15.4453 83.5938 15.9501 83.5938 16.5728C83.5938 17.1954 84.0991 17.7002 84.7224 17.7002Z" fill="#4FE3A3"/>
<path d="M5.45882 17.986C5.96463 17.986 6.37467 17.5764 6.37467 17.0711C6.37467 16.5658 5.96463 16.1562 5.45882 16.1562C4.95301 16.1562 4.54297 16.5658 4.54297 17.0711C4.54297 17.5764 4.95301 17.986 5.45882 17.986Z" fill="#4FE3A3"/>
<path d="M8.68721 64.2846C10.1265 64.2846 11.2934 63.1178 11.2934 61.6784C11.2934 60.2391 10.1265 59.0723 8.68721 59.0723C7.24787 59.0723 6.08105 60.2391 6.08105 61.6784C6.08105 63.1178 7.24787 64.2846 8.68721 64.2846Z" fill="#4FE3A3"/>
<path d="M8.68718 77.6879C6.56184 77.6879 4.84057 75.9671 4.84057 73.8418H3.84659C3.84659 75.9671 2.12533 77.6879 0 77.6879V78.6819C2.12533 78.6819 3.84659 80.4037 3.84659 82.529H4.84057C4.84057 80.4037 6.56184 78.6819 8.68718 78.6819V77.6879Z" fill="white"/>
<path d="M98.1646 67.7474C96.4642 67.7474 95.0874 66.198 95.0874 64.2852H94.292C94.292 66.198 92.9152 67.7474 91.2148 67.7474V68.6414C92.9152 68.6414 94.292 70.1908 94.292 72.1036H95.0874C95.0874 70.1908 96.4642 68.6414 98.1646 68.6414V67.7474Z" fill="white"/>
<path d="M81.6595 5.00057C78.8962 5.00057 76.6591 2.76292 76.6591 0H75.3666C75.3666 2.76292 73.1284 5.00057 70.3662 5.00057V6.29273C73.1284 6.29273 75.3666 8.5304 75.3666 11.2933H76.6591C76.6591 8.5304 78.8962 6.29273 81.6595 6.29273V5.00057Z" fill="white"/>
</svg>
