<svg width="42" height="42" viewBox="0 0 42 42" fill="none" xmlns="http://www.w3.org/2000/svg">
<mask id="mask0_776_984" style="mask-type:alpha" maskUnits="userSpaceOnUse" x="0" y="0" width="42" height="42">
<circle cx="21" cy="21" r="21" fill="white"/>
</mask>
<g mask="url(#mask0_776_984)">
<circle opacity="0.7" cx="21" cy="21.0003" r="24.1111" fill="white" fill-opacity="0.1"/>
<path d="M20.4694 11.1185L6.99994 16.295L18.2815 35.0001L31.771 29.874L20.4694 11.1185Z" fill="#9724D6" stroke="black" stroke-width="0.15" stroke-linecap="round" stroke-linejoin="round"/>
<path d="M21.7631 10.0512L8.08418 14.5194L18.3317 33.8624L32.0306 29.4513L21.7631 10.0512Z" fill="#9724D6" stroke="black" stroke-width="0.15" stroke-linecap="round" stroke-linejoin="round"/>
<path d="M23.1026 9.05466L9.25084 12.7876L18.4211 32.7215L32.2927 29.0522L23.1026 9.05466Z" fill="#9724D6" stroke="black" stroke-width="0.15" stroke-linecap="round" stroke-linejoin="round"/>
<path d="M24.5857 8.14433L10.5976 11.0985L18.6107 31.5928L32.6188 28.7059L24.5857 8.14433Z" fill="#FF8EFF" stroke="black" stroke-width="0.15" stroke-linecap="round" stroke-linejoin="round"/>
<path d="M24.2967 10.5108L22.8171 9.66487L13.5837 11.6019H13.5604L12.5895 12.9614L18.9934 29.1992L20.8287 29.968H20.8421L29.9125 28.1048L30.5609 26.8057L24.2967 10.5108Z" fill="#FF8EFF" stroke="black" stroke-width="0.15" stroke-linecap="round" stroke-linejoin="round"/>
<g style="mix-blend-mode:color-dodge">
<g style="mix-blend-mode:color-dodge">
<path d="M25.9155 14.7234L20.8417 29.9709H20.8283L18.9897 29.1988L16.3829 22.5788L20.4726 10.1613L22.8167 9.66779L24.2963 10.5104L25.9155 14.7234Z" fill="white"/>
</g>
</g>
<path d="M24.2967 10.5108L22.8171 9.66487L13.5837 11.6019H13.5604L12.5895 12.9614L18.9934 29.1992L20.8287 29.968H20.8421L29.9125 28.1048L30.5609 26.8057L24.2967 10.5108Z" stroke="#0D0D0D" stroke-width="0.2" stroke-linecap="round" stroke-linejoin="round"/>
<path d="M20.5477 21.3586C21.6766 21.095 23.171 20.1804 23.0611 18.6083L24.0314 18.398L24.4714 17.113L22.8541 17.4467C22.7894 17.196 22.6726 16.9627 22.5117 16.7633C22.3508 16.5638 22.1497 16.4029 21.9225 16.2918L23.4233 15.9848L23.8665 14.6496L17.5718 15.9848L17.161 17.2965L19.0048 16.9093C20.661 16.5555 21.3305 17.3633 21.4405 17.7304L18.1606 18.4447L17.753 19.7064L21.6152 18.8987C21.7963 20.0202 20.4507 20.2772 19.4447 20.5509L18.5325 20.7879L18.8948 21.7057L23.5236 25.0936L25.1409 24.7331C23.5754 23.5616 22.1165 22.5402 20.5477 21.3586Z" fill="#CC36CC" stroke="black" stroke-width="0.15" stroke-linecap="round" stroke-linejoin="round"/>
<path d="M33.1551 27.8167C31.4146 27.2387 31.3856 26.5563 31.6774 24.4084L32.1785 21L31.2667 24.3226C30.701 26.56 30.1316 26.9739 28.5532 26.8732L26.6 26.6644L28.4559 27.2238C30.0739 27.7384 30.3262 28.4618 29.9982 30.6806L29.4325 34.0667L30.3082 30.7104C30.9424 28.3313 31.436 28.0591 33.0829 28.2119L35 28.4022L33.1551 27.8167Z" fill="white" stroke="#020203" stroke-width="0.2" stroke-linecap="round" stroke-linejoin="round"/>
<path d="M14.986 12.7016C13.5256 12.2181 13.5012 11.6474 13.7462 9.85081L14.1666 7L13.4015 9.77906C12.9268 11.6505 12.449 11.9967 11.1245 11.9125L9.48555 11.7378L11.0429 12.2057C12.4006 12.6361 12.6123 13.2412 12.3371 15.097L11.8623 17.9292L12.5971 15.122C13.1294 13.132 13.5436 12.9043 14.9255 13.0322L16.5342 13.1913L14.986 12.7016Z" fill="white" stroke="#020203" stroke-width="0.2" stroke-linecap="round" stroke-linejoin="round"/>
</g>
</svg>
