<svg width="50" height="50" viewBox="0 0 50 50" fill="none" xmlns="http://www.w3.org/2000/svg">
<circle opacity="0.3" cx="25" cy="25" r="25" fill="#D2D2D2"/>
<path d="M33.477 24.7259L27.052 16.6758C26.9915 16.605 26.9125 16.5524 26.8238 16.524C26.7352 16.4955 26.6404 16.4923 26.5501 16.5148C26.462 16.5351 26.3814 16.5798 26.3175 16.6439C26.2536 16.7079 26.2091 16.7887 26.1888 16.877L25.1045 22.2907L20.567 16.6758C20.5096 16.6066 20.434 16.5549 20.3488 16.5264C20.2637 16.498 20.1724 16.494 20.0851 16.5148C19.997 16.5351 19.9164 16.5798 19.8525 16.6439C19.7886 16.7079 19.7439 16.7887 19.7236 16.877L16.5112 32.9773C16.4896 33.0738 16.4994 33.1748 16.5392 33.2653C16.5789 33.3559 16.6464 33.4312 16.7321 33.4804C16.8103 33.5065 16.8948 33.5065 16.973 33.4804C17.0909 33.4793 17.2047 33.4365 17.2943 33.3597L23.96 27.8051L22.9362 32.8968C22.9146 32.9934 22.9242 33.0942 22.9639 33.1848C23.0037 33.2753 23.0714 33.3508 23.1571 33.4C23.2416 33.4291 23.3335 33.4291 23.4181 33.4C23.5301 33.3995 23.6376 33.3563 23.719 33.2792L33.3564 25.2291C33.4201 25.164 33.4649 25.0828 33.4861 24.9942C33.5073 24.9056 33.5043 24.8129 33.477 24.7259ZM17.7761 31.8301L20.5067 18.1046L24.8636 23.5586L25.6467 24.5448L25.9878 24.9674L25.4859 25.3901L24.3014 26.3762L17.7761 31.8301ZM24.2011 31.8301L25.1849 26.8995L26.9716 25.4101C27.0577 25.3171 27.1057 25.1949 27.1057 25.068C27.1057 24.9412 27.0577 24.819 26.9716 24.7259L25.8273 23.297L26.8513 18.1046L32.3324 24.9674L24.2011 31.8301Z" fill="#252525"/>
</svg>
