<svg width="31" height="239" viewBox="0 0 31 239" fill="none" xmlns="http://www.w3.org/2000/svg">
<path d="M11.5 8L19.5 8" stroke="#FBFBFB"/>
<path d="M11.5 14L19.5 14" stroke="#FBFBFB"/>
<path d="M11.5 20H19.5" stroke="#FBFBFB"/>
<path d="M11.5 26H19.5" stroke="#FBFBFB"/>
<path d="M11.5 32H19.5" stroke="#FBFBFB"/>
<path d="M11.5 38H19.5" stroke="#FBFBFB"/>
<path d="M11.5 44H19.5" stroke="#FBFBFB"/>
<path d="M11.5 50H19.5" stroke="#FBFBFB"/>
<path d="M11.5 56H19.5" stroke="#FBFBFB"/>
<path d="M11.5 62H19.5" stroke="#FBFBFB"/>
<path d="M11.5 68H19.5" stroke="#FBFBFB"/>
<path d="M11.5 74H19.5" stroke="#FBFBFB"/>
<path d="M11.5 80H19.5" stroke="#FBFBFB"/>
<path d="M11.5 86H19.5" stroke="#FBFBFB"/>
<path d="M11.5 92H19.5" stroke="#FBFBFB"/>
<path d="M11.5 98H19.5" stroke="#FBFBFB"/>
<path d="M11.5 104H19.5" stroke="#FBFBFB"/>
<path d="M11.5 110H19.5" stroke="#FBFBFB"/>
<path d="M11.5 116H19.5" stroke="#FBFBFB"/>
<path d="M11.5 122H19.5" stroke="#FBFBFB"/>
<path d="M11.5 128H19.5" stroke="#FBFBFB"/>
<path d="M11.5 134H19.5" stroke="#FBFBFB"/>
<path d="M11.5 140H19.5" stroke="#FBFBFB"/>
<path d="M11.5 146H19.5" stroke="#FBFBFB"/>
<path d="M11.5 152H19.5" stroke="#FBFBFB"/>
<path d="M11.5 158H19.5" stroke="#FBFBFB"/>
<path d="M11.5 164H19.5" stroke="#FBFBFB"/>
<path d="M11.5 170H19.5" stroke="#FBFBFB"/>
<path d="M11.5 176H19.5" stroke="#FBFBFB"/>
<path d="M11.5 182H19.5" stroke="#FBFBFB"/>
<path d="M11.5 188H19.5" stroke="#FBFBFB"/>
<path d="M11.5 194H19.5" stroke="#FBFBFB"/>
<path d="M11.5 200H19.5" stroke="#FBFBFB"/>
<path d="M11.5 206H19.5" stroke="#FBFBFB"/>
<path d="M11.5 212H19.5" stroke="#FBFBFB"/>
<path d="M11.5 218H19.5" stroke="#FBFBFB"/>
<path d="M11.5 224H19.5" stroke="#FBFBFB"/>
<path d="M11.5 230H19.5" stroke="#FBFBFB"/>
<path d="M1 4.5L4.5 1L27 1L30.5 4.5" stroke="#FBFBFB"/>
<path d="M1 235L4.5 238.5H27L30.5 235" stroke="#FBFBFB"/>
</svg>
