<svg width="55" height="55" viewBox="0 0 55 55" fill="none" xmlns="http://www.w3.org/2000/svg">
<path d="M27.5 -4.57764e-05C42.6896 -4.57764e-05 55 12.3104 55 27.5C55 42.6895 42.6896 54.9999 27.5 54.9999C12.3104 54.9999 0 42.6895 0 27.5C0 12.3196 12.3104 -4.57764e-05 27.5 -4.57764e-05Z" fill="#ACBEFE"/>
<mask id="mask0_1657_5067" style="mask-type:alpha" maskUnits="userSpaceOnUse" x="-1" y="0" width="56" height="55">
<path d="M27.4999 -3.8147e-05C42.6895 -3.8147e-05 54.9999 12.3104 54.9999 27.5C54.9999 42.6896 42.6895 55 27.4999 55C12.3103 55 -0.00012207 42.6896 -0.00012207 27.5C-0.00012207 12.3196 12.3103 -3.8147e-05 27.4999 -3.8147e-05Z" fill="#9449FD"/>
</mask>
<g mask="url(#mask0_1657_5067)">
<path d="M-1.21103 -26.7256V9.13515L27.1111 25.4855L55.4334 9.13515V-26.275M2.29384 -26.7767V7.11003L27.1113 21.439L51.9289 7.11003V-26.4155M5.79835 -26.8276V5.08687L27.1111 17.3925L48.424 5.08687V-26.5559M9.30322 -26.877V3.06345L27.1113 13.344L44.9194 3.06345V-26.6982M12.8077 -26.9281V1.0402L27.1111 9.29746L41.4127 1.0402V-26.8387M16.3144 -26.9791V-0.984828L27.1112 5.24918L37.9081 -0.984828V-26.9791M-61.6647 -26.7256V9.13515L-33.3425 25.4855L-5.0203 9.13515V-26.275M-58.1602 -26.7767V7.11003L-33.3426 21.439L-8.52517 7.11003V-26.4155M-54.6553 -26.8276V5.08687L-33.3426 17.3925L-12.0298 5.08687V-26.5559M-51.1508 -26.877V3.06345L-33.3427 13.344L-15.5346 3.06345V-26.6982M-47.6442 -26.9281V1.0402L-33.3426 9.29746L-19.0392 1.0402V-26.8387M-44.1396 -26.9791V-0.984828L-33.3427 5.24918L-22.5458 -0.984828V-26.9791M-121.695 -26.275V9.13515L-93.3732 25.4855L-65.051 9.13515V-26.275M-118.191 -26.4154V7.11012L-93.3731 21.4391L-68.5556 7.11012V-26.4154M-114.686 -26.5559V5.08679L-93.3733 17.3924L-72.0605 5.08679V-26.5559M-111.181 -26.6981V3.06354L-93.3731 13.3441L-75.565 3.06354V-26.6981M-107.675 -26.8387V1.0402L-93.3733 9.29746L-79.0699 1.0402V-26.8387M-104.17 -26.9791V-0.984828L-93.3731 5.24918L-82.5762 -0.984828V-26.9791M119.686 -26.275V9.13515L148.008 25.4855L176.33 9.13515V-26.275M123.191 -26.4154V7.11012L148.008 21.4391L172.826 7.11012V-26.4154M126.695 -26.5559V5.08679L148.008 17.3924L169.321 5.08679V-26.5559M130.2 -26.6981V3.06354L148.008 13.3441L165.816 3.06354V-26.6981M133.704 -26.8387V1.0402L148.008 9.29746L162.309 1.0402V-26.8387M137.211 -26.9791V-0.984828L148.008 5.24918L158.805 -0.984828V-26.9791M59.232 -26.7256V9.13515L87.5542 25.4855L115.876 9.13515V-26.7256M62.7365 -26.7767V7.11003L87.554 21.439L112.372 7.11003V-26.7767M66.2413 -26.8276V5.08687L87.5542 17.3925L108.867 5.08687V-26.8276M69.7459 -26.877V3.06345L87.554 13.344L105.362 3.06345V-26.877M73.2507 -26.9281V1.0402L87.5542 9.29746L101.856 1.0402V-26.9281M76.757 -26.9791V-0.984828L87.5539 5.24918L98.3508 -0.984828V-26.9791M-31.6021 61.7586V29.0541L-3.27998 12.7019L25.0441 29.0541V61.7586M-28.0973 61.764V31.0774L-3.2798 16.7484L21.5395 31.0774V61.764M-24.5928 61.7696V33.1007L-3.27998 20.7969L18.0329 33.1007V61.7696M-21.0861 61.775V35.1258L-3.27989 24.8434L14.5283 35.1258V61.775M-17.5816 61.7806V37.1491L-3.28007 28.8918L11.0234 37.1491V61.7806M-14.0767 61.786V39.1723L-3.27989 32.9383L7.51881 39.1723V61.786M-92.0558 61.7586V29.0541L-63.7318 12.7019L-35.4096 29.0541V61.7586M-88.5513 61.764V31.0774L-63.732 16.7484L-38.9145 31.0774V61.764M-85.0447 61.7696V33.1007L-63.7318 20.7969L-42.419 33.1007V61.7696M-81.5401 61.775V35.1258L-63.732 24.8434L-45.9258 35.1258V61.775M-78.0353 61.7806V37.1491L-63.7318 28.8918L-49.4303 37.1491V61.7806M-74.5304 61.786V39.1723L-63.7316 32.9383L-52.9348 39.1723V61.786M89.2272 61.7586V29.0541L117.549 12.7019L145.872 29.0541V61.7586M92.7317 61.764V31.0774L117.549 16.7484L142.367 31.0774V61.764M96.2366 61.7696V33.1007L117.549 20.7969L138.862 33.1007V61.7696M99.7411 61.775V35.1258L117.549 24.8434L135.357 35.1258V61.775M103.246 61.7806V37.1491L117.549 28.8918L131.851 37.1491V61.7806M106.752 61.786V39.1723L117.549 32.9383L128.346 39.1723V61.786M28.7731 61.7586V29.0541L57.0954 12.7019L85.4194 29.0541V61.7586M32.278 61.764V31.0774L57.0955 16.7484L81.913 31.0774V61.764M35.7825 61.7696V33.1007L57.0953 20.7969L78.4081 33.1007V61.7696M39.2874 61.775V35.1258L57.0955 24.8434L74.9036 35.1258V61.775M42.7937 61.7806V37.1491L57.0953 28.8918L71.3987 37.1491V61.7806M46.2986 61.786V39.1723L57.0955 32.9383L67.8924 39.1723V61.786M110.14 74.5259V41.1135L117.515 36.7149L124.931 41.1135V74.5259M113.508 74.4967V42.9507L117.524 40.5772L121.563 42.9507V74.4967M116.101 74.3178V45.1436L117.531 44.2515L118.97 45.1436V74.3178M49.8654 74.5259V41.1135L57.2378 36.7149L64.6542 41.1135V74.5259M53.2331 74.4967V42.9507L57.2486 40.5772L61.2861 42.9507V74.4967M55.8258 74.3178V45.1436L57.2561 44.2515L58.6937 45.1436V74.3178M-10.4115 74.5259V41.1135L-3.03723 36.7149L4.379 41.1135V74.5259M-7.04346 74.4967V42.9507L-3.02788 40.5772L1.01131 42.9507V74.4967M-4.45115 74.3178V45.1436L-3.02084 44.2515L-1.58135 45.1436V74.3178M-70.6863 74.5259V41.1135L-63.3139 36.7149L-55.8976 41.1135V74.5259M-67.3186 74.4967V42.9507L-63.3031 40.5772L-59.2638 42.9507V74.4967M-64.7263 74.3178V45.1436L-63.296 44.2515L-61.8584 45.1436V74.3178M140.53 -36.3912V-2.97895L147.904 1.41978L155.32 -2.97895V-36.3912M143.898 -36.3622V-4.81619L147.913 -2.44258L151.952 -4.81619V-36.3622M146.49 -36.1833V-7.00905L147.92 -6.11689L149.36 -7.00905V-36.1833M80.2548 -36.3912V-2.97895L87.629 1.41978L95.0435 -2.97895V-36.3912M83.6225 -36.3622V-4.81619L87.638 -2.44258L91.6772 -4.81619V-36.3622M86.2148 -36.1833V-7.00905L87.6452 -6.11689L89.0828 -7.00905V-36.1833M19.9778 -36.3912V-2.97895L27.3522 1.41978L34.7684 -2.97895V-36.3912M23.3455 -36.3622V-4.81619L27.3611 -2.44258L31.4004 -4.81619V-36.3622M25.9382 -36.1833V-7.00905L27.3685 -6.11689L28.808 -7.00905V-36.1833M-40.2973 -36.3912V-2.97895L-32.9231 1.41978L-25.5068 -2.97895V-36.3912M-36.9293 -36.3622V-4.81619L-32.9137 -2.44258L-28.8745 -4.81619V-36.3622M-34.337 -36.1833V-7.00905L-32.9066 -6.11689L-31.4672 -7.00905V-36.1833M-100.777 -36.3912V-2.97895L-93.4024 1.41978L-85.9862 -2.97895V-36.3912M-97.4086 -36.3622V-4.81619L-93.393 -2.44258L-89.3539 -4.81619V-36.3622M-94.8163 -36.1833V-7.00905L-93.3859 -6.11689L-91.9465 -7.00905V-36.1833" stroke="#474747" stroke-opacity="0.7" stroke-width="0.166667" stroke-miterlimit="10"/>
</g>
</svg>
