<svg width="24" height="24" viewBox="0 0 24 24" fill="none" xmlns="http://www.w3.org/2000/svg">
<path d="M21.2305 4.61548H2.76904V19.3847H21.2305V4.61548Z" stroke="white" stroke-width="0.5" stroke-linecap="round" stroke-linejoin="round"/>
<path d="M21.2305 4.61548H2.76904V19.3847H21.2305V4.61548Z" stroke="white" stroke-width="0.5" stroke-linecap="round" stroke-linejoin="round"/>
<path d="M2.76904 12.197L5.9786 9.21094L11.6105 14.4506L16.9136 19.3844" stroke="white" stroke-width="0.5" stroke-linecap="round" stroke-linejoin="round"/>
<path d="M11.6104 14.4532L14.6469 11.6282L21.2304 17.7451" stroke="white" stroke-width="0.5" stroke-linecap="round" stroke-linejoin="round"/>
<path d="M17.5383 6.46167C17.1732 6.46167 16.8163 6.56994 16.5127 6.77279C16.2091 6.97565 15.9725 7.26399 15.8328 7.60133C15.6931 7.93868 15.6563 8.30986 15.7276 8.66798C15.7988 9.0261 15.9746 9.35507 16.2328 9.61326C16.491 9.87145 16.8201 10.0473 17.1782 10.1185C17.5363 10.1897 17.9075 10.1532 18.2448 10.0134C18.5821 9.87371 18.8704 9.63709 19.0732 9.33349C19.2761 9.02989 19.3844 8.67296 19.3844 8.30783C19.3844 7.8182 19.19 7.34862 18.8438 7.0024C18.4976 6.65617 18.0279 6.46167 17.5383 6.46167Z" stroke="white" stroke-width="0.5" stroke-linecap="round" stroke-linejoin="round"/>
</svg>
