<svg width="77" height="58" viewBox="0 0 77 58" fill="none" xmlns="http://www.w3.org/2000/svg">
<path d="M67.2387 5H4.76128C3.49851 5 2.28736 5.50572 1.39444 6.40589C0.501528 7.30607 0 8.52696 0 9.8V48.2C0 49.473 0.501528 50.6939 1.39444 51.5941C2.28736 52.4943 3.49851 53 4.76128 53H67.2387C68.5015 53 69.7126 52.4943 70.6056 51.5941C71.4985 50.6939 72 49.473 72 48.2V9.8C72 8.52696 71.4985 7.30607 70.6056 6.40589C69.7126 5.50572 68.5015 5 67.2387 5Z" fill="#D2D2D2"/>
<mask id="mask0_13244_30362" style="mask-type:alpha" maskUnits="userSpaceOnUse" x="0" y="5" width="72" height="48">
<path d="M67.2387 5H4.76128C3.49851 5 2.28736 5.50572 1.39444 6.40589C0.501528 7.30607 0 8.52696 0 9.8V48.2C0 49.473 0.501528 50.6939 1.39444 51.5941C2.28736 52.4943 3.49851 53 4.76128 53H67.2387C68.5015 53 69.7126 52.4943 70.6056 51.5941C71.4985 50.6939 72 49.473 72 48.2V9.8C72 8.52696 71.4985 7.30607 70.6056 6.40589C69.7126 5.50572 68.5015 5 67.2387 5Z" fill="#D2D2D2"/>
</mask>
<g mask="url(#mask0_13244_30362)">
<path d="M61.0339 47.7115C60.9178 47.0491 60.6437 46.4247 60.2348 45.8913L27.4283 4.40735C27.0083 3.89047 26.4603 3.49288 25.8391 3.25422C25.233 3.02349 24.5788 2.94815 23.9362 3.03503C23.2796 3.14198 22.661 3.41415 22.138 3.82602C21.6199 4.24279 21.2197 4.78821 20.9773 5.408L2.1382 54.8399C1.89093 55.4695 1.81541 56.1537 1.91938 56.8221C2.07412 57.8104 2.5979 58.7028 3.38468 59.319C3.78571 59.6279 4.24537 59.8517 4.73569 59.9766C5.22525 60.1114 5.73841 60.1375 6.23908 60.0528L57.8752 52.1143C58.3516 52.0426 58.81 51.8809 59.2262 51.6378C59.6603 51.3617 60.0353 51.0022 60.3298 50.58C60.9211 49.7487 61.1729 48.7226 61.0339 47.7115Z" fill="#0D0D0D" stroke="#0D0D0D" stroke-width="0.3" stroke-miterlimit="10"/>
<path d="M74.0539 10.7626L69.8795 20.7578L59.8719 22.4284L64.0464 12.4143L74.0539 10.7626Z" fill="#0D0D0D"/>
<path d="M68.1831 2.42834L58.1378 4.09894L64.0085 12.4141L74.0539 10.7626L68.1831 2.42834Z" fill="#0D0D0D"/>
<path d="M59.8706 22.4289L54 14.0948L58.1744 4.09961L64.045 12.4148L59.8706 22.4289Z" fill="#0D0D0D"/>
<path d="M74.0539 10.7626L69.8795 20.7578L59.8719 22.4284L64.0464 12.4143L74.0539 10.7626ZM74.0539 10.7626L64.0085 12.4141L58.1378 4.09894L68.1831 2.42834L74.0539 10.7626ZM59.8706 22.4289L54 14.0948L58.1744 4.09961L64.045 12.4148L59.8706 22.4289Z" stroke="#0D0D0D" stroke-width="0.3" stroke-linecap="round" stroke-linejoin="round"/>
</g>
<path d="M64.0339 45.1807C63.9178 44.5184 63.6437 43.8939 63.2348 43.3605L30.4283 1.87659C30.0083 1.35971 29.4603 0.962116 28.8391 0.723454C28.233 0.492729 27.5788 0.417387 26.9362 0.504269C26.2796 0.611222 25.661 0.883387 25.138 1.29526C24.6199 1.71203 24.2197 2.25744 23.9773 2.87723L5.1382 52.3091C4.89093 52.9387 4.81541 53.6229 4.91938 54.2914C5.07412 55.2796 5.5979 56.1721 6.38468 56.7882C6.78571 57.0971 7.24537 57.3209 7.73569 57.4458C8.22525 57.5807 8.73841 57.6067 9.23908 57.522L60.8752 49.5836C61.3516 49.5118 61.81 49.3501 62.2262 49.1071C62.6603 48.831 63.0353 48.4714 63.3298 48.0492C63.9211 47.218 64.1729 46.1918 64.0339 45.1807Z" fill="#FFEB34" stroke="#0D0D0D" stroke-width="0.3" stroke-miterlimit="10"/>
<path d="M25.3375 55.054L49.5809 26.0924L42.7399 17.4392L9.21973 57.5222L25.3375 55.054Z" fill="white"/>
<path d="M31.2164 44.6669H31.0642L30.988 44.5431L30.2363 39.6542V39.5017L30.3697 39.4255L35.1841 38.6821H35.3268L35.4125 38.8155L36.1547 43.7044V43.8474L36.0213 43.9236L31.2164 44.6669Z" fill="#0D0D0D" stroke="#0D0D0D" stroke-width="0.3" stroke-linecap="round" stroke-linejoin="round"/>
<path d="M29.9811 36.6328H29.8287L29.7527 36.4994L27.2217 20.0602V19.9077L27.355 19.8315L32.1693 19.0881H32.3121L32.3881 19.2216L34.9191 35.6703V35.8132L34.7953 35.8895L29.9811 36.6328Z" fill="#0D0D0D" stroke="#0D0D0D" stroke-width="0.3" stroke-linecap="round" stroke-linejoin="round"/>
<path d="M64.0339 45.1807C63.9178 44.5184 63.6437 43.8939 63.2348 43.3605L30.4283 1.87659C30.0083 1.35971 29.4603 0.962116 28.8391 0.723454C28.233 0.492729 27.5788 0.417387 26.9362 0.504269C26.2796 0.611222 25.661 0.883387 25.138 1.29526C24.6199 1.71203 24.2197 2.25744 23.9773 2.87723L5.1382 52.3091C4.89093 52.9387 4.81541 53.6229 4.91938 54.2914C5.07412 55.2796 5.5979 56.1721 6.38468 56.7882C6.78571 57.0971 7.24537 57.3209 7.73569 57.4458C8.22525 57.5807 8.73841 57.6067 9.23908 57.522L60.8752 49.5836C61.3516 49.5118 61.81 49.3501 62.2262 49.1071C62.6602 48.831 63.0353 48.4714 63.3298 48.0492C63.9211 47.218 64.1729 46.1918 64.0339 45.1807Z" stroke="#0D0D0D" stroke-width="0.3" stroke-miterlimit="10"/>
<path d="M76.1439 8.76257L71.9695 18.7578L61.9619 20.4284L66.1363 10.4143L76.1439 8.76257Z" fill="#8A8A8A" stroke="#0D0D0D" stroke-width="0.3" stroke-linecap="round" stroke-linejoin="round"/>
<path d="M70.2728 0.428345L60.2275 2.09894L66.0982 10.4141L76.1435 8.76241L70.2728 0.428345Z" fill="white" stroke="#0D0D0D" stroke-width="0.3" stroke-linecap="round" stroke-linejoin="round"/>
<path d="M61.9605 20.4289L56.0898 12.0948L60.2643 2.09961L66.1349 10.4148L61.9605 20.4289Z" fill="#E0E0E0" stroke="#0D0D0D" stroke-width="0.3" stroke-linecap="round" stroke-linejoin="round"/>
</svg>
