<svg width="27" height="17" viewBox="0 0 27 17" fill="none" xmlns="http://www.w3.org/2000/svg">
<g opacity="0.7">
<path d="M1 2C1 1.44772 1.44772 1 2 1H25C25.5523 1 26 1.44772 26 2V15C26 15.5523 25.5523 16 25 16H2C1.44772 16 1 15.5523 1 15V2Z" stroke="white" stroke-linecap="square"/>
<path d="M8.75399 11.2351L8.44605 10.3112H6.40042L6.09247 11.2351H5L6.79634 6.10265H8.05012L9.8538 11.2351H8.75399ZM6.72302 9.3654H8.13077L7.4269 7.26844L6.72302 9.3654ZM14.3701 8.57354C14.7807 8.80816 15.0446 9.21142 15.0446 9.74666C15.0446 10.6265 14.3334 11.2351 13.4463 11.2351H11.2686V6.10265H13.2923C14.1575 6.10265 14.854 6.68921 14.854 7.54706C14.854 7.98698 14.6707 8.33158 14.3701 8.57354ZM13.2923 7.04848H12.2805V8.17761H13.2923C13.6076 8.17761 13.8422 7.93565 13.8422 7.61304C13.8422 7.29044 13.6149 7.04848 13.2923 7.04848ZM13.4463 10.2892C13.7909 10.2892 14.0401 10.0326 14.0401 9.68067C14.0401 9.33607 13.7909 9.07945 13.4463 9.07945H12.2805V10.2892H13.4463ZM19.0587 11.3377C17.5043 11.3377 16.3898 10.1646 16.3898 8.66885C16.3898 7.16579 17.5043 6 19.0587 6C19.9972 6 20.8257 6.47658 21.2656 7.20978L20.3931 7.71569C20.1438 7.26111 19.6453 6.98249 19.0587 6.98249C18.0542 6.98249 17.3943 7.67903 17.3943 8.66885C17.3943 9.65135 18.0542 10.3479 19.0587 10.3479C19.6453 10.3479 20.1512 10.0693 20.3931 9.62202L21.2656 10.1279C20.833 10.8611 20.0045 11.3377 19.0587 11.3377Z" fill="#FBFBFB"/>
</g>
</svg>
