<svg width="95" height="13" viewBox="0 0 95 13" fill="none" xmlns="http://www.w3.org/2000/svg">
<path d="M84.9629 11.242H86.693L89.0916 2.51465H87.365L84.9629 11.242Z" fill="#ACACAC"/>
<path d="M71.5652 11.2815C71.9191 11.2815 72.2372 11.0405 72.3302 10.6952L74.5822 2.53623H72.8556L70.9146 9.57278H64.0013L65.9423 2.53623H64.2122L62.0388 10.4146C61.9673 10.6592 61.9959 10.8678 62.1139 11.0333C62.2318 11.1988 62.4141 11.2815 62.6572 11.2815H71.5652Z" fill="#ACACAC"/>
<path d="M85.2417 2.53983C85.4919 2.53983 85.6778 2.62257 85.7958 2.78805C85.9137 2.95353 85.9352 3.16578 85.8637 3.43199L84.9021 6.92508C84.8342 7.1697 84.6948 7.37835 84.4803 7.54383C84.2658 7.70932 84.0371 7.79206 83.794 7.79206H76.0263L75.0648 11.2851H73.3382L74.7716 6.07609H76.4982V6.07969H83.4115L83.9155 4.2522H75.2757L75.7439 2.53983H85.2417Z" fill="#ACACAC"/>
<path d="M92.08 2.52875L94.2641 6.9032L89.6671 11.2777L90.2141 9.29548L92.727 6.9032L91.5331 4.51092L92.08 2.52875Z" fill="#ACACAC"/>
<path d="M92.727 6.9032L90.5429 2.52875L88.13 11.2777L92.727 6.9032Z" fill="#ACACAC"/>
<path d="M3.73242 4.54825C5.17772 4.54825 6.3786 5.77037 6.3786 7.3432C6.3786 8.92665 5.17772 10.1382 3.73242 10.1382C2.9035 10.1382 2.2765 9.79808 1.87266 9.24547V12.1254H0.724926V4.6864H1.87266V5.45156C2.2765 4.88832 2.9035 4.54825 3.73242 4.54825ZM3.55176 9.04355C4.50821 9.04355 5.23086 8.33153 5.23086 7.3432C5.23086 6.35487 4.50821 5.64285 3.55176 5.64285C2.59531 5.64285 1.87266 6.35487 1.87266 7.3432C1.87266 8.33153 2.59531 9.04355 3.55176 9.04355ZM9.92684 10.1382C8.37526 10.1382 7.12125 8.91603 7.12125 7.3432C7.12125 5.75975 8.37526 4.54825 9.92684 4.54825C11.489 4.54825 12.7324 5.75975 12.7324 7.3432C12.7324 8.91603 11.489 10.1382 9.92684 10.1382ZM9.92684 9.0223C10.862 9.0223 11.5847 8.31028 11.5847 7.3432C11.5847 6.37612 10.862 5.6641 9.92684 5.6641C8.99164 5.6641 8.26899 6.37612 8.26899 7.3432C8.26899 8.31028 8.99164 9.0223 9.92684 9.0223ZM19.6839 4.6864H20.8954L19.227 10H18.1005L16.9953 6.41863L15.8794 10H14.7529L13.0844 4.6864H14.2959L15.3268 8.35278L16.4426 4.6864H17.5372L18.6425 8.35278L19.6839 4.6864ZM22.4364 7.83205C22.617 8.66097 23.2866 9.08606 24.1367 9.08606C24.7744 9.08606 25.2526 8.79913 25.5076 8.42717L26.4535 8.97979C25.9646 9.70244 25.1676 10.1382 24.1261 10.1382C22.3726 10.1382 21.2355 8.93728 21.2355 7.3432C21.2355 5.77037 22.3726 4.54825 24.0411 4.54825C25.6245 4.54825 26.7085 5.82351 26.7085 7.35383C26.7085 7.51324 26.6873 7.68327 26.666 7.83205H22.4364ZM22.4258 6.89686H25.5501C25.3907 5.98292 24.7212 5.58971 24.0305 5.58971C23.1697 5.58971 22.5852 6.09982 22.4258 6.89686ZM28.8662 5.57909C29.185 4.85644 29.8332 4.59076 30.5028 4.59076V5.83414C29.7482 5.781 28.8662 6.1317 28.8662 7.32195V10H27.7184V4.6864H28.8662V5.57909ZM32.005 7.83205C32.1857 8.66097 32.8552 9.08606 33.7054 9.08606C34.343 9.08606 34.8212 8.79913 35.0763 8.42717L36.0221 8.97979C35.5332 9.70244 34.7362 10.1382 33.6947 10.1382C31.9412 10.1382 30.8041 8.93728 30.8041 7.3432C30.8041 5.77037 31.9412 4.54825 33.6097 4.54825C35.1932 4.54825 36.2771 5.82351 36.2771 7.35383C36.2771 7.51324 36.2559 7.68327 36.2346 7.83205H32.005ZM31.9944 6.89686H35.1188C34.9594 5.98292 34.2899 5.58971 33.5991 5.58971C32.7383 5.58971 32.1538 6.09982 31.9944 6.89686ZM41.4643 2.56096H42.612V10H41.4643V9.23484C41.0605 9.79808 40.4335 10.1382 39.6045 10.1382C38.1592 10.1382 36.9584 8.91603 36.9584 7.3432C36.9584 5.75975 38.1592 4.54825 39.6045 4.54825C40.4335 4.54825 41.0605 4.88832 41.4643 5.44093V2.56096ZM39.7852 9.04355C40.7416 9.04355 41.4643 8.33153 41.4643 7.3432C41.4643 6.35487 40.7416 5.64285 39.7852 5.64285C38.8287 5.64285 38.1061 6.35487 38.1061 7.3432C38.1061 8.33153 38.8287 9.04355 39.7852 9.04355ZM49.6141 4.54825C51.0594 4.54825 52.2603 5.75975 52.2603 7.3432C52.2603 8.91603 51.0594 10.1382 49.6141 10.1382C48.7852 10.1382 48.1582 9.79808 47.7544 9.23484V10H46.6066V2.56096H47.7544V5.44093C48.1582 4.88832 48.7852 4.54825 49.6141 4.54825ZM49.4334 9.04355C50.3899 9.04355 51.1125 8.33153 51.1125 7.3432C51.1125 6.35487 50.3899 5.64285 49.4334 5.64285C48.477 5.64285 47.7544 6.35487 47.7544 7.3432C47.7544 8.33153 48.477 9.04355 49.4334 9.04355ZM56.6743 4.6864H57.8964L55.856 10.17C55.3565 11.5197 54.4851 12.1998 53.263 12.1254V11.0521C54.0069 11.0946 54.4107 10.712 54.6764 10.0106L54.7295 9.90436L52.4766 4.6864H53.7306L55.314 8.54407L56.6743 4.6864Z" fill="#ACACAC"/>
</svg>
