<svg width="20" height="20" viewBox="0 0 20 20" fill="none" xmlns="http://www.w3.org/2000/svg">
<g opacity="0.5">
<path d="M11.9111 13.9226C11.5856 13.5972 11.5856 13.0695 11.9111 12.7441C12.2365 12.4186 12.7641 12.4186 13.0896 12.7441L16.4229 16.0774C16.7484 16.4028 16.7484 16.9305 16.4229 17.2559C16.0975 17.5814 15.5698 17.5814 15.2444 17.2559L11.9111 13.9226Z" fill="#0D0D0D"/>
<path fill-rule="evenodd" clip-rule="evenodd" d="M3.33301 9.16732C3.33301 12.389 5.94468 15.0007 9.16634 15.0007C12.388 15.0007 14.9997 12.389 14.9997 9.16732C14.9997 5.94566 12.388 3.33398 9.16634 3.33398C5.94468 3.33398 3.33301 5.94566 3.33301 9.16732ZM13.3333 9.16667C13.3333 11.4679 11.4678 13.3333 9.16666 13.3333C6.86547 13.3333 4.99999 11.4679 4.99999 9.16667C4.99999 6.86548 6.86547 5 9.16666 5C11.4678 5 13.3333 6.86548 13.3333 9.16667Z" fill="#0D0D0D"/>
</g>
</svg>
